<svg xmlns="http://www.w3.org/2000/svg" width="66.172" height="59.16" viewBox="0 0 66.172 59.16">
  <g id="atencion-al-cliente" transform="translate(0 -27.127)">
    <g id="Grupo_1099991" data-name="Grupo 1099991" transform="translate(0.969 28.096)">
      <g id="Grupo_1099990" data-name="Grupo 1099990" transform="translate(0 0)">
        <g id="Grupo_1099989" data-name="Grupo 1099989">
          <g id="Grupo_1099988" data-name="Grupo 1099988">
            <g id="Grupo_1099987" data-name="Grupo 1099987">
              <g id="Grupo_1099974" data-name="Grupo 1099974" transform="translate(30.126)">
                <path id="Trazado_874709" data-name="Trazado 874709" d="M313.943,44.837a10.211,10.211,0,1,0-20.421,0s0,14.972,0,17.31h20.429C313.946,59.808,313.943,44.837,313.943,44.837Z" transform="translate(-286.679 -34.626)" fill="#756e78"/>
                <g id="Grupo_1099956" data-name="Grupo 1099956" transform="translate(15.278)">
                  <path id="Trazado_874710" data-name="Trazado 874710" d="M370.8,44.836a10.2,10.2,0,0,0-11.986-10.054,4.763,4.763,0,0,1,3.546,4.6V62.145H370.8C370.8,59.807,370.8,44.836,370.8,44.836Z" transform="translate(-358.811 -34.625)" fill="#665e66"/>
                </g>
                <g id="Grupo_1099958" data-name="Grupo 1099958" transform="translate(23.174 10.002)">
                  <g id="Grupo_1099957" data-name="Grupo 1099957">
                    <path id="Trazado_874711" data-name="Trazado 874711" d="M419.9,112.013V117.8h3.415a1.454,1.454,0,0,0,1.454-1.454v-2.876a1.454,1.454,0,0,0-1.454-1.454H419.9Z" transform="translate(-419.903 -112.013)" fill="#9bc4f9"/>
                  </g>
                </g>
                <g id="Grupo_1099960" data-name="Grupo 1099960" transform="translate(6.065 10.002)">
                  <g id="Grupo_1099959" data-name="Grupo 1099959">
                    <path id="Trazado_874712" data-name="Trazado 874712" d="M292.393,112.013V117.8h-3.415a1.454,1.454,0,0,1-1.454-1.454v-2.876a1.454,1.454,0,0,1,1.454-1.454h3.415Z" transform="translate(-287.524 -112.013)" fill="#9bc4f9"/>
                  </g>
                </g>
                <g id="Grupo_1099964" data-name="Grupo 1099964" transform="translate(0 17.451)">
                  <g id="Grupo_1099963" data-name="Grupo 1099963">
                    <g id="Grupo_1099962" data-name="Grupo 1099962">
                      <g id="Grupo_1099961" data-name="Grupo 1099961">
                        <path id="Trazado_874713" data-name="Trazado 874713" d="M326.259,182.683l-2.4-5.267c-.025,0-.048-.012-.072-.017a2.082,2.082,0,0,1-1.616-2.027v-5.718h-7.967v5.718a2.082,2.082,0,0,1-1.616,2.027c-.024.006-.048.013-.072.017l-2.4,5.267Z" transform="translate(-301.138 -169.653)" fill="#ffddce"/>
                        <path id="Trazado_874714" data-name="Trazado 874714" d="M266.174,235.229l-.054.048a10.792,10.792,0,0,1-16.935,0l-.06-.047a11.079,11.079,0,0,0-8.526,10.781v6.726h34.107v-6.726A11.079,11.079,0,0,0,266.174,235.229Z" transform="translate(-240.599 -226.754)" fill="#dbe8f9"/>
                        <path id="Trazado_874715" data-name="Trazado 874715" d="M403.816,221.213l-.315-1.757a2.084,2.084,0,0,0,1.487,1.309c.024.006.048.013.072.017l2.4.615a11.079,11.079,0,0,1,8.985,10.88V239h-13.07A44.274,44.274,0,0,0,403.816,221.213Z" transform="translate(-382.335 -213.019)" fill="#7fb2f9"/>
                        <path id="Trazado_874716" data-name="Trazado 874716" d="M408.324,221.4l-2.4-.615c-.025,0-.048-.012-.072-.017a2.084,2.084,0,0,1-1.487-1.309l.315,1.757c.162.906.293,1.815.4,2.727a11.07,11.07,0,0,1,3.784,8.337V239h8.444v-6.726A11.079,11.079,0,0,0,408.324,221.4Z" transform="translate(-383.202 -213.019)" fill="#60a0f7"/>
                        <path id="Trazado_874717" data-name="Trazado 874717" d="M253.226,221.213l.315-1.757a2.084,2.084,0,0,1-1.487,1.309c-.024.006-.048.013-.072.017l-2.4.615a11.079,11.079,0,0,0-8.985,10.88V239h13.07A44.274,44.274,0,0,1,253.226,221.213Z" transform="translate(-240.6 -213.019)" fill="#7fb2f9"/>
                      </g>
                    </g>
                  </g>
                  <path id="Trazado_874718" data-name="Trazado 874718" d="M435.967,291.7h3.1a1.034,1.034,0,0,0,1.034-1.034v-1.514a1.034,1.034,0,0,0-1.034-1.034h-3.1a1.034,1.034,0,0,0-1.034,1.034v1.514A1.034,1.034,0,0,0,435.967,291.7Z" transform="translate(-409.817 -272.803)" fill="#ffd064"/>
                </g>
                <g id="Grupo_1099973" data-name="Grupo 1099973" transform="translate(9.771 5.67)">
                  <g id="Grupo_1099972" data-name="Grupo 1099972">
                    <g id="Grupo_1099971" data-name="Grupo 1099971">
                      <g id="Grupo_1099970" data-name="Grupo 1099970">
                        <g id="Grupo_1099969" data-name="Grupo 1099969">
                          <g id="Grupo_1099966" data-name="Grupo 1099966" transform="translate(0 0)">
                            <g id="Grupo_1099965" data-name="Grupo 1099965">
                              <path id="Trazado_874719" data-name="Trazado 874719" d="M330.764,82.829a6.833,6.833,0,0,1-3.433-4.064.386.386,0,0,0-.706-.067c-1.582,2.848-4.732,4.132-8.36,4.132H316.2v4.613a7.284,7.284,0,0,0,14.566,0Z" transform="translate(-316.198 -78.497)" fill="#ffddce"/>
                            </g>
                          </g>
                          <path id="Trazado_874720" data-name="Trazado 874720" d="M357.83,78.764a.386.386,0,0,0-.706-.067,7.2,7.2,0,0,1-1.373,1.762v6.983a7.288,7.288,0,0,1-4.527,6.633,7.285,7.285,0,0,0,10.039-6.633V82.829A6.833,6.833,0,0,1,357.83,78.764Z" transform="translate(-346.697 -78.497)" fill="#ffcbbe"/>
                          <g id="Grupo_1099968" data-name="Grupo 1099968" transform="translate(8.526 12.127)">
                            <g id="Grupo_1099967" data-name="Grupo 1099967">
                              <path id="Trazado_874721" data-name="Trazado 874721" d="M385.9,175.381h-2.21a1.527,1.527,0,1,1,0-3.053h2.21a1.527,1.527,0,1,1,0,3.053Z" transform="translate(-382.165 -172.328)" fill="#db636e"/>
                            </g>
                          </g>
                        </g>
                      </g>
                    </g>
                  </g>
                </g>
              </g>
              <path id="Trazado_874722" data-name="Trazado 874722" d="M116.933,378.909H164.4a2.619,2.619,0,0,0,2.619-2.619v-12h-50.09Z" transform="translate(-102.79 -321.687)" fill="#eaf2ff"/>
              <path id="Trazado_874723" data-name="Trazado 874723" d="M421.521,364.294v12a2.619,2.619,0,0,1-2.619,2.619h8.444a2.619,2.619,0,0,0,2.619-2.619v-12Z" transform="translate(-365.732 -321.687)" fill="#dbe8f9"/>
              <g id="Grupo_1099986" data-name="Grupo 1099986" transform="translate(0 10.881)">
                <g id="Grupo_1099985" data-name="Grupo 1099985" transform="translate(0 19.172)">
                  <g id="Grupo_1099984" data-name="Grupo 1099984">
                    <g id="Grupo_1099983" data-name="Grupo 1099983">
                      <g id="Grupo_1099982" data-name="Grupo 1099982">
                        <g id="Grupo_1099981" data-name="Grupo 1099981">
                          <g id="Grupo_1099980" data-name="Grupo 1099980">
                            <g id="Grupo_1099979" data-name="Grupo 1099979">
                              <g id="Grupo_1099978" data-name="Grupo 1099978">
                                <g id="Grupo_1099977" data-name="Grupo 1099977">
                                  <g id="Grupo_1099976" data-name="Grupo 1099976">
                                    <path id="Trazado_874724" data-name="Trazado 874724" d="M116.634,273.14v-5.979h-8.323v5.979a2.177,2.177,0,0,1-1.69,2.12s.221,4.916,5.851,4.916,6.207-4.844,6.207-4.844l-.281-.054A2.177,2.177,0,0,1,116.634,273.14Z" transform="translate(-93.81 -267.161)" fill="#ffddce"/>
                                    <path id="Trazado_874725" data-name="Trazado 874725" d="M41.673,348.9a3.151,3.151,0,0,0,3.151-3.151v-2.83A12.857,12.857,0,0,0,34.4,330.288l-2.027-.39a8.634,8.634,0,0,1-11.989,0l-.07-.067c-.025.006-.05.013-.076.018l-2.308.444A12.857,12.857,0,0,0,7.5,342.914v2.83a3.151,3.151,0,0,0,3.151,3.151Z" transform="translate(-7.5 -321.727)" fill="#e07f84"/>
                                    <g id="Grupo_1099975" data-name="Grupo 1099975" transform="translate(22.217 8.171)">
                                      <path id="Trazado_874726" data-name="Trazado 874726" d="M184.08,330.773l-2.027-.39a8.609,8.609,0,0,1-2.653,1.746,12.859,12.859,0,0,1,6.668,11.27v2.83a3.151,3.151,0,0,1-3.151,3.151h8.439a3.151,3.151,0,0,0,3.151-3.151V343.4A12.857,12.857,0,0,0,184.08,330.773Z" transform="translate(-179.4 -330.383)" fill="#db636e"/>
                                    </g>
                                  </g>
                                </g>
                              </g>
                            </g>
                          </g>
                        </g>
                      </g>
                    </g>
                  </g>
                </g>
                <path id="Trazado_874727" data-name="Trazado 874727" d="M90.556,129.836a4.69,4.69,0,0,0,.384-2.7l-.009-.06a1.92,1.92,0,0,0-.565-1.353.719.719,0,0,1-.214-.508,2.567,2.567,0,0,0-1.714-2.383.871.871,0,0,1-.538-.579,2.108,2.108,0,0,0-1.906-1.486.721.721,0,0,1-.534-.3,2.188,2.188,0,0,0-1.782-.887,2.268,2.268,0,0,0-.583.076.881.881,0,0,1-.845-.213,2.384,2.384,0,0,0-1.87-.625h0a2.353,2.353,0,0,0-1.87.625.881.881,0,0,1-.845.213,2.268,2.268,0,0,0-.583-.076,2.188,2.188,0,0,0-1.782.887.719.719,0,0,1-.534.3,2.108,2.108,0,0,0-1.906,1.486.872.872,0,0,1-.538.579,2.567,2.567,0,0,0-1.714,2.383.72.72,0,0,1-.214.508,1.92,1.92,0,0,0-.565,1.353l-.009.06a4.693,4.693,0,0,0,.394,2.72,23.437,23.437,0,0,1,.63,3.114,5.277,5.277,0,0,0,.556,1.653,5.351,5.351,0,0,1,.6,1.852,7.914,7.914,0,0,0,2.627,5.029,8.576,8.576,0,0,0,11.565-.049,7.916,7.916,0,0,0,2.585-5.052,5.119,5.119,0,0,1,.6-1.839l.005-.01a5.29,5.29,0,0,0,.574-1.7A22.742,22.742,0,0,1,90.556,129.836Z" transform="translate(-61.718 -118.821)" fill="#ffddce"/>
                <path id="Trazado_874728" data-name="Trazado 874728" d="M135.232,127.138l-.009-.06a1.92,1.92,0,0,0-.565-1.353.719.719,0,0,1-.214-.508,2.567,2.567,0,0,0-1.714-2.383.871.871,0,0,1-.538-.579,2.109,2.109,0,0,0-1.906-1.486.721.721,0,0,1-.534-.3,2.188,2.188,0,0,0-1.782-.887,2.269,2.269,0,0,0-.583.076.882.882,0,0,1-.845-.213,2.384,2.384,0,0,0-1.87-.625h0a2.353,2.353,0,0,0-1.87.625.882.882,0,0,1-.845.213,2.282,2.282,0,0,0-1.318.046,2.2,2.2,0,0,1,.641.371c.419.34.441.66.909.694a2.241,2.241,0,0,1,1.084.37c1.013.681.6,1.408,1.359,1.7a2.567,2.567,0,0,1,1.714,2.383c0,.634.841.538.843,2.634,0,1.678-.35.6-1.035,5-.252,1.62-.993,1.975-1.176,3.552a7.915,7.915,0,0,1-2.585,5.052,9.492,9.492,0,0,1-1.76,1.231,8.634,8.634,0,0,0,4.084,1.037,8.8,8.8,0,0,0,5.773-2.268,7.916,7.916,0,0,0,2.585-5.052,5.118,5.118,0,0,1,.6-1.839l.005-.01a5.29,5.29,0,0,0,.574-1.7,22.66,22.66,0,0,1,.6-3.018A4.689,4.689,0,0,0,135.232,127.138Z" transform="translate(-106.011 -118.82)" fill="#ffcbbe"/>
                <path id="Trazado_874729" data-name="Trazado 874729" d="M90.931,127.078a1.92,1.92,0,0,0-.565-1.353.719.719,0,0,1-.214-.508,2.567,2.567,0,0,0-1.714-2.383.871.871,0,0,1-.538-.579,2.109,2.109,0,0,0-1.905-1.486.72.72,0,0,1-.535-.3,2.188,2.188,0,0,0-1.782-.887,2.268,2.268,0,0,0-.583.076.882.882,0,0,1-.845-.213,2.384,2.384,0,0,0-1.87-.625h0a2.353,2.353,0,0,0-1.87.625.882.882,0,0,1-.845.213,2.268,2.268,0,0,0-.583-.076,2.188,2.188,0,0,0-1.782.887.721.721,0,0,1-.535.3,2.108,2.108,0,0,0-1.905,1.486.872.872,0,0,1-.538.579,2.567,2.567,0,0,0-1.714,2.383.72.72,0,0,1-.214.508,1.92,1.92,0,0,0-.565,1.353l-.009.06a4.693,4.693,0,0,0,.394,2.719,23.437,23.437,0,0,1,.63,3.114,5.28,5.28,0,0,0,.556,1.653,5.746,5.746,0,0,1,.353.8,4.738,4.738,0,0,0,1.617,2.237l.071.052a11.764,11.764,0,0,0,13.961-.051l.016-.012a4.648,4.648,0,0,0,1.592-2.243,5.471,5.471,0,0,1,.37-.844l.005-.01a5.29,5.29,0,0,0,.574-1.7,22.663,22.663,0,0,1,.6-3.018,4.69,4.69,0,0,0,.384-2.7Z" transform="translate(-61.718 -118.82)" fill="#756e78"/>
                <path id="Trazado_874730" data-name="Trazado 874730" d="M135.281,127.137l-.009-.06a1.92,1.92,0,0,0-.565-1.353.719.719,0,0,1-.214-.508,2.567,2.567,0,0,0-1.714-2.383.871.871,0,0,1-.538-.579,2.109,2.109,0,0,0-1.905-1.486.72.72,0,0,1-.535-.3,2.188,2.188,0,0,0-1.782-.887,2.268,2.268,0,0,0-.583.076.882.882,0,0,1-.845-.213,2.384,2.384,0,0,0-1.87-.625h0a2.353,2.353,0,0,0-1.87.625.882.882,0,0,1-.845.213,2.281,2.281,0,0,0-1.318.046,2.2,2.2,0,0,1,.641.371c.419.34.441.66.909.694a2.242,2.242,0,0,1,1.084.37c1.013.681.6,1.408,1.359,1.7a2.567,2.567,0,0,1,1.714,2.383c0,.634.841.538.843,2.634,0,1.678-.35.6-1.035,5-.252,1.62-.993,1.975-1.176,3.552a8.148,8.148,0,0,1-1.27,3.532c.33.028.669.045,1.019.047a11.711,11.711,0,0,0,6.969-2.32l.016-.012a4.648,4.648,0,0,0,1.592-2.243,5.47,5.47,0,0,1,.37-.844l.005-.01a5.29,5.29,0,0,0,.574-1.7,22.661,22.661,0,0,1,.6-3.018A4.688,4.688,0,0,0,135.281,127.137Z" transform="translate(-106.059 -118.819)" fill="#665e66"/>
              </g>
            </g>
          </g>
        </g>
      </g>
    </g>
    <g id="Grupo_1099993" data-name="Grupo 1099993" transform="translate(0 27.127)">
      <g id="Grupo_1099992" data-name="Grupo 1099992" transform="translate(0 0)">
        <path id="Trazado_874731" data-name="Trazado 874731" d="M59.332,53.943c0-.014,0-.961,0-9.743a2.415,2.415,0,0,0,.775-1.772V39.552a2.415,2.415,0,0,0-.794-1.788,11.177,11.177,0,0,0-22.329,0,2.415,2.415,0,0,0-.794,1.788v2.876a2.414,2.414,0,0,0,.777,1.773v3.051a.969.969,0,0,0,.969.97h0a.969.969,0,0,0,.969-.969v-2.4h1.3A8.232,8.232,0,0,0,43.2,49.2c-.022,2.057.052,2.126-.073,2.456-.321.845-.932.626-4.219,1.552V51.785a.969.969,0,0,0-.969-.97h0a.969.969,0,0,0-.969.969v2.158A12.07,12.07,0,0,0,30.126,64.8v1.528a13.8,13.8,0,0,0-2.077-.574l-2.307-.444a1.209,1.209,0,0,1-.98-1.186v-.789a10.762,10.762,0,0,0,1.327-1A8.865,8.865,0,0,0,29,56.674a4.227,4.227,0,0,1,.492-1.5c.923-1.706.761-3.583,1.2-4.784.714-1.54.8-3.915-.32-5.122a3.518,3.518,0,0,0-2.3-3.17,3.079,3.079,0,0,0-2.64-2.13,3.2,3.2,0,0,0-3.293-1.1,3.276,3.276,0,0,0-2.505-.861,3.272,3.272,0,0,0-2.505.861,3.2,3.2,0,0,0-3.293,1.1,3.075,3.075,0,0,0-2.64,2.13,3.518,3.518,0,0,0-2.3,3.17c-1.138,1.227-1.03,3.61-.307,5.15.13.345.426,2.08.5,2.54.376,2.3,1.029,2.361,1.208,3.795A8.863,8.863,0,0,0,13.249,62.4a10.807,10.807,0,0,0,1.251.933v.8a1.2,1.2,0,0,1-.938,1.175h0l-2.349.455a13.755,13.755,0,0,0-4.924,1.984.969.969,0,1,0,1.057,1.625,11.819,11.819,0,0,1,4.233-1.705l1.9-.366a9.552,9.552,0,0,0,6.361,2.411h0a9.553,9.553,0,0,0,6.287-2.343l1.549.3a11.9,11.9,0,0,1,9.641,11.674v2.83a2.184,2.184,0,0,1-2.182,2.182H32.233V80.914a.969.969,0,0,0-1.939,0v3.434H8.947V80.914a.969.969,0,0,0-1.939,0v3.434H4.121a2.184,2.184,0,0,1-2.182-2.182v-2.83a11.8,11.8,0,0,1,2.353-7.1.969.969,0,1,0-1.555-1.158A13.725,13.725,0,0,0,0,79.336v2.83a4.125,4.125,0,0,0,4.121,4.121H62.583A3.592,3.592,0,0,0,66.172,82.7V64.8a12.07,12.07,0,0,0-6.839-10.862ZM11.917,43.9a1.852,1.852,0,0,0,1.128-1.224,1.139,1.139,0,0,1,1.042-.78,1.713,1.713,0,0,0,1.252-.7,1.257,1.257,0,0,1,1.33-.441,1.857,1.857,0,0,0,1.774-.459,1.423,1.423,0,0,1,1.19-.347,1.456,1.456,0,0,1,1.19.347,1.856,1.856,0,0,0,1.774.459l.012,0a1.418,1.418,0,0,1,1.508.661,1.681,1.681,0,0,0,.887.459c.156.028,1,.035,1.215.8A1.852,1.852,0,0,0,27.346,43.9a1.6,1.6,0,0,1,1.088,1.472,1.681,1.681,0,0,0,.493,1.193,3.366,3.366,0,0,1,0,3.02c-.52,1.117-.417,3.326-1.15,4.68-.6,1.111-.553,1.92-1.685,2.767l-.019.014a10.8,10.8,0,0,1-12.806.048l-.066-.048c-1.111-.831-1.169-1.732-1.7-2.718-.689-1.291-.653-3.641-1.164-4.724a3.346,3.346,0,0,1-.006-3.038,1.681,1.681,0,0,0,.493-1.193A1.6,1.6,0,0,1,11.917,43.9ZM13.2,59.362a12.709,12.709,0,0,0,6.481,1.749H19.7a12.7,12.7,0,0,0,6.383-1.747,6.575,6.575,0,0,1-1.272,1.522,7.618,7.618,0,0,1-10.292.044A6.581,6.581,0,0,1,13.2,59.362ZM15.472,66.4a3.124,3.124,0,0,0,.961-2.115,9.339,9.339,0,0,0,6.4.006,3.145,3.145,0,0,0,1.15,2.273A7.628,7.628,0,0,1,15.472,66.4ZM64.233,64.8v4.929H60.762v-1.95a.969.969,0,0,0-1.939,0v1.95H53.491a45.12,45.12,0,0,0,.159-15.467c2.3.589,2.338.6,2.384.61A10.124,10.124,0,0,1,64.233,64.8ZM44.781,69.734a43.076,43.076,0,0,1-.671-11.3,11.8,11.8,0,0,0,8.078,0,43.081,43.081,0,0,1-.671,11.3Zm12.9-30.666a.485.485,0,0,1,.485.485v2.876a.485.485,0,0,1-.485.485H56.4c.014-.358,0,.1.006-3.846Zm-2.213,7.5c-.011-.031-.021-.062-.034-.092a8.237,8.237,0,0,0,.652-1.622h1.3v.558a1.179,1.179,0,0,1-1.177,1.155Zm-1.785.854a.558.558,0,0,1-.557.557h-2.21a.557.557,0,0,1,0-1.115h2.21A.558.558,0,0,1,53.685,47.42ZM54,52.358l.013,0a1.135,1.135,0,0,1-.913-1.095v-1.35h.026A2.5,2.5,0,0,0,55.373,48.5h.842a3.1,3.1,0,0,0,1.177-.232V53.21L54,52.358ZM48.149,29.066a9.262,9.262,0,0,1,9.163,8.063H55.678a5.847,5.847,0,0,1-2.757-3.391,1.356,1.356,0,0,0-2.476-.242c-2.3,4.141-7.34,3.633-11.459,3.633A9.261,9.261,0,0,1,48.149,29.066ZM38.614,42.913a.486.486,0,0,1-.485-.485V39.552a.485.485,0,0,1,.485-.485H39.9c.006,4.348-.008,3.42.007,3.846Zm3.221-.21V39.067c.463-.076,6.426.645,9.675-3.661a7.757,7.757,0,0,0,2.953,3.261V42.7a6.31,6.31,0,0,1-.5,2.366,2.479,2.479,0,0,0-.832-.146h-2.21a2.492,2.492,0,0,0-2.028,3.946A6.3,6.3,0,0,1,41.835,42.7Zm9.328,7.579c.038,1.158.665,4.754.831,6.138a9.826,9.826,0,0,1-7.69,0c.166-1.38.793-4.981.831-6.134A8.256,8.256,0,0,0,51.163,50.282ZM32.065,67.2V64.8a10.124,10.124,0,0,1,8.2-9.928c.046-.009.084-.02,2.384-.61a45.121,45.121,0,0,0,.159,15.467H37.475v-1.95a.969.969,0,0,0-1.939,0v1.95h-.162a13.841,13.841,0,0,0-3.31-2.53ZM64.233,82.7a1.65,1.65,0,0,1-1.65,1.65H38.635a4.1,4.1,0,0,0,.627-2.182v-2.83a13.773,13.773,0,0,0-2.018-7.178l-.211-.33a.1.1,0,0,1,.085-.155H64.233Z" transform="translate(0 -27.127)"/>
        <path id="Trazado_874732" data-name="Trazado 874732" d="M427.433,282.616v1.514a2.006,2.006,0,0,0,2,2h3.1a2.006,2.006,0,0,0,2-2v-1.514a2.006,2.006,0,0,0-2-2h-3.1A2.006,2.006,0,0,0,427.433,282.616Zm1.939,0a.065.065,0,0,1,.065-.065h3.1a.065.065,0,0,1,.065.065v1.514a.065.065,0,0,1-.065.065h-3.1a.065.065,0,0,1-.065-.065Z" transform="translate(-372.191 -247.851)"/>
      </g>
    </g>
  </g>
</svg>
