<svg xmlns="http://www.w3.org/2000/svg" width="70.434" height="75.046" viewBox="0 0 70.434 75.046">
  <g id="medios-de-comunicacion-social-" transform="translate(-15.731)">
    <path id="Trazado_874766" data-name="Trazado 874766" d="M220.1,45.835a7.125,7.125,0,0,0,4.188,1.352h13.381v6.488l8.482-6.488h3.659a7.132,7.132,0,0,0,7.143-7.121V14.621A7.132,7.132,0,0,0,249.811,7.5H224.288a7.132,7.132,0,0,0-7.143,7.121V45.835Z" transform="translate(-171.888 -6.401)" fill="#f7f3f1"/>
    <path id="Trazado_874767" data-name="Trazado 874767" d="M369.29,7.5h-6.118a7.132,7.132,0,0,1,7.143,7.121V40.066a7.132,7.132,0,0,1-7.143,7.121h-3.659L357.148,49v4.68l8.482-6.488h3.659a7.132,7.132,0,0,0,7.143-7.121V14.621A7.132,7.132,0,0,0,369.29,7.5Z" transform="translate(-291.367 -6.401)" fill="#ebe1dc"/>
    <path id="Trazado_874768" data-name="Trazado 874768" d="M306.489,83.627l.736.6a6.557,6.557,0,0,0,4.125,1.46H321.8a1.743,1.743,0,0,0,1.741-1.828c-.044-.938,0-9.477,0-10.439a1.743,1.743,0,0,0-1.743-1.743l-7.087-.021.868-2.055a7.436,7.436,0,0,0-.394-6.582,1.16,1.16,0,0,0-2.167.576,7.563,7.563,0,0,1-1.892,5l-4.519,5.113h-1.647v9.919h1.527Z" transform="translate(-246.831 -53.279)" fill="#ffd36c"/>
    <path id="Trazado_874769" data-name="Trazado 874769" d="M279.462,140.29H274.69a.571.571,0,0,1-.571-.571V127.555a.571.571,0,0,1,.571-.571h4.772a.571.571,0,0,1,.571.571v12.164A.571.571,0,0,1,279.462,140.29Z" transform="translate(-220.509 -108.369)" fill="#8ee6f3"/>
    <path id="Trazado_874770" data-name="Trazado 874770" d="M54.622,173.8V148.115A5.624,5.624,0,0,0,48.99,142.5H28.863a5.624,5.624,0,0,0-5.633,5.615v20.066a5.624,5.624,0,0,0,5.633,5.615H39.92v5.165l6.689-5.165Z" transform="translate(-6.4 -121.61)" fill="#4ed5ea"/>
    <path id="Trazado_874771" data-name="Trazado 874771" d="M152.517,142.5h-7.976a5.624,5.624,0,0,1,5.633,5.615V173.8h7.976V148.115A5.624,5.624,0,0,0,152.517,142.5Z" transform="translate(-109.927 -121.61)" fill="#62a6fd"/>
    <path id="Trazado_874772" data-name="Trazado 874772" d="M205.278,328H191a3.991,3.991,0,0,0-4,3.985v14.239a3.991,3.991,0,0,0,4,3.985h7.847v3.665l4.747-3.665h1.69a3.991,3.991,0,0,0,4-3.985V331.983A3.991,3.991,0,0,0,205.278,328Z" transform="translate(-146.16 -279.915)" fill="#fa9084"/>
    <path id="Trazado_874773" data-name="Trazado 874773" d="M274.227,328H268.07a3.991,3.991,0,0,1,4,3.985v14.24a3.991,3.991,0,0,1-4,3.985h-.28v3.665l4.747-3.665h1.69a3.991,3.991,0,0,0,4-3.985v-14.24A3.991,3.991,0,0,0,274.227,328Z" transform="translate(-215.108 -279.915)" fill="#ff6cb5"/>
    <path id="Trazado_874774" data-name="Trazado 874774" d="M232.6,384.876c3.437-1.822,5.218-3.372,5.218-5.774,0-3.313-4.058-4.141-5.218-1.656-1.325-2.567-5.218-1.656-5.218,1.656C227.387,381.5,229.168,383.054,232.6,384.876Z" transform="translate(-180.628 -320.85)" fill="#f7f3f1"/>
    <path id="Trazado_874775" data-name="Trazado 874775" d="M77.923,0H74.7a1.1,1.1,0,0,0,0,2.2h3.227A6.039,6.039,0,0,1,83.966,8.22V33.665a6.039,6.039,0,0,1-6.043,6.021H74.264a1.1,1.1,0,0,0-.668.226l-6.715,5.136V40.786a1.1,1.1,0,0,0-1.1-1.1H52.4a6.013,6.013,0,0,1-3.078-.839V26.505a6.709,6.709,0,0,0-2.965-5.563V8.22A6.039,6.039,0,0,1,52.4,2.2H67.806a1.1,1.1,0,0,0,0-2.2H52.4a8.241,8.241,0,0,0-8.242,8.22V19.976a6.741,6.741,0,0,0-1.568-.186H22.463a6.731,6.731,0,0,0-6.732,6.715v2.374a1.1,1.1,0,0,0,2.2,0V26.505a4.53,4.53,0,0,1,4.533-4.516H42.59a4.53,4.53,0,0,1,4.533,4.516v12.78a1.1,1.1,0,0,0,0,.291v6.994c0,.138-.008.276-.021.413H44.835a5.1,5.1,0,0,0-5.013,4.173,1.1,1.1,0,0,0-.285.159l-4.918,3.8V52.186a1.1,1.1,0,0,0-1.1-1.1H22.463a4.53,4.53,0,0,1-4.533-4.516V35.476a1.1,1.1,0,0,0-2.2,0V46.571a6.731,6.731,0,0,0,6.732,6.715h9.958v4.065a1.116,1.116,0,0,0,1.771.87l5.546-4.283V66.308a5.1,5.1,0,0,0,5.1,5.084h6.747v2.566a1.116,1.116,0,0,0,1.771.87l4.45-3.436h1.315a5.1,5.1,0,0,0,5.1-5.084V64.356a1.1,1.1,0,0,0-2.2,0v1.952a2.9,2.9,0,0,1-2.9,2.885h-1.69a1.1,1.1,0,0,0-.672.229l-2.976,2.3V70.292a1.1,1.1,0,0,0-1.1-1.1H44.835a2.9,2.9,0,0,1-2.9-2.885V52.068a2.9,2.9,0,0,1,2.9-2.885H59.118a2.9,2.9,0,0,1,2.9,2.885v5.4a1.1,1.1,0,0,0,2.2,0v-5.4a5.1,5.1,0,0,0-5.1-5.084H49.31c.008-.137.013-5.691.013-5.691a8.229,8.229,0,0,0,3.078.592H64.682v5.389a1.116,1.116,0,0,0,1.768.873l8.187-6.262h3.287a8.241,8.241,0,0,0,8.242-8.22V8.22A8.241,8.241,0,0,0,77.923,0Z"/>
    <path id="Trazado_874776" data-name="Trazado 874776" d="M282.018,54.659a2.291,2.291,0,0,0-2.819,2.189,6.459,6.459,0,0,1-1.617,4.276l-3.029,3.428a1.1,1.1,0,0,0-.921-.5h-5.914a1.1,1.1,0,0,0-1.1,1.1V78.457a1.1,1.1,0,0,0,1.1,1.1h5.914a1.1,1.1,0,0,0,1-.643,7.682,7.682,0,0,0,4,1.127h10.451a2.878,2.878,0,0,0,2.84-2.979c-.033-.705,0-10.177,0-10.388a2.845,2.845,0,0,0-2.839-2.843l-5.435-.016.225-.533a8.585,8.585,0,0,0-.452-7.555,2.24,2.24,0,0,0-1.4-1.068Zm-9.485,22.7h-3.715V66.25h3.715ZM289.079,66.03a.645.645,0,0,1,.644.644c0,.209,0,.777-.005,1.547-.016,4.25-.027,8.275,0,8.944a.644.644,0,0,1-.643.676H278.628a5.474,5.474,0,0,1-3.433-1.216l-.463-.375V67.67l4.5-5.091a8.657,8.657,0,0,0,2.167-5.732.061.061,0,0,1,.113-.03,6.373,6.373,0,0,1,.336,5.608l-.868,2.055a1.1,1.1,0,0,0,1.009,1.527Z" transform="translate(-214.109 -46.535)"/>
    <path id="Trazado_874777" data-name="Trazado 874777" d="M73.55,203.321a1.1,1.1,0,1,0,0,2.2h3.241l-.605,3.662a1.1,1.1,0,1,0,2.169.359l.665-4.02h2.652l-.605,3.662a1.1,1.1,0,1,0,2.169.359l.665-4.02h4.412a1.1,1.1,0,0,0,0-2.2H84.265l.443-2.682h3.6a1.1,1.1,0,1,0,0-2.2H85.072l.605-3.662a1.1,1.1,0,0,0-2.169-.359l-.665,4.02H80.191l.605-3.662a1.1,1.1,0,1,0-2.169-.359l-.665,4.02H73.55a1.1,1.1,0,0,0,0,2.2H77.6l-.443,2.682Zm6.277-2.682H82.48l-.443,2.682H79.384Z" transform="translate(-48.405 -165.133)"/>
    <path id="Trazado_874778" data-name="Trazado 874778" d="M226.191,369.3a3.7,3.7,0,0,0-3.254-.731,4.09,4.09,0,0,0-3.05,4.128,5.4,5.4,0,0,0,1.625,3.864,16.129,16.129,0,0,0,4.178,2.882,1.1,1.1,0,0,0,1.03,0c3.483-1.846,5.8-3.7,5.8-6.746a4.064,4.064,0,0,0-3.159-4.106A3.687,3.687,0,0,0,226.191,369.3Zm4.132,3.4c0,1.643-1.09,2.858-4.118,4.525-3.029-1.667-4.118-2.882-4.118-4.525a1.881,1.881,0,0,1,1.37-1.991,1.649,1.649,0,0,1,.387-.046,1.517,1.517,0,0,1,1.384.885,1.1,1.1,0,0,0,1.973-.039,1.429,1.429,0,0,1,1.686-.768A1.859,1.859,0,0,1,230.323,372.694Z" transform="translate(-174.228 -314.442)"/>
  </g>
</svg>
