<svg id="promocion_1_" data-name="promocion (1)" xmlns="http://www.w3.org/2000/svg" width="71.408" height="71.127" viewBox="0 0 71.408 71.127">
  <g id="Grupo_1100001" data-name="Grupo 1100001">
    <g id="Grupo_1100000" data-name="Grupo 1100000" transform="translate(1.052 24.163)">
      <path id="Trazado_874779" data-name="Trazado 874779" d="M142.556,172.229l-15.014,5.1V192.5l15.014,5.1a.772.772,0,0,0,1.02-.731V172.96A.772.772,0,0,0,142.556,172.229Z" transform="translate(-110.697 -172.187)" fill="#b3dafe"/>
      <path id="Trazado_874780" data-name="Trazado 874780" d="M60.728,316.92c-.046,0-.092,0-.138,0v11.765a2.746,2.746,0,0,0,2.743,2.746h.079a2.746,2.746,0,0,0,2.75-2.746V316.92Z" transform="translate(-53.14 -296.606)" fill="#0593fc"/>
      <path id="Trazado_874781" data-name="Trazado 874781" d="M243.875,231.118H241.8v8.916h2.075a1.9,1.9,0,0,0,1.895-1.895v-5.126A1.9,1.9,0,0,0,243.875,231.118Z" transform="translate(-208.921 -222.848)" fill="#60b7ff"/>
      <path id="Trazado_874782" data-name="Trazado 874782" d="M15.088,208.791a7.588,7.588,0,0,0,0,15.176h9.257V208.791Z" transform="translate(-7.5 -203.654)" fill="#fe646f"/>
      <path id="Trazado_874783" data-name="Trazado 874783" d="M142.556,172.228l-2.138.726v20.121a.772.772,0,0,1-1.02.731l-11.856-4.023V192.5l15.014,5.1a.772.772,0,0,0,1.02-.731V172.959A.772.772,0,0,0,142.556,172.228Z" transform="translate(-110.697 -172.187)" fill="#8ac9fe"/>
      <path id="Trazado_874784" data-name="Trazado 874784" d="M7.623,253.191a7.583,7.583,0,0,0,7.465,8.946h9.257v-2.715H15.088a7.589,7.589,0,0,1-7.465-6.23Z" transform="translate(-7.5 -241.824)" fill="#fd4755"/>
      <g id="Grupo_1099999" data-name="Grupo 1099999" transform="translate(7.45 20.31)">
        <path id="Trazado_874785" data-name="Trazado 874785" d="M60.728,316.92c-.046,0-.092,0-.138,0v0Z" transform="translate(-60.59 -316.916)" fill="#0182fc"/>
        <path id="Trazado_874786" data-name="Trazado 874786" d="M74.526,316.941H71.684V328.7a2.745,2.745,0,0,1-1.365,2.373,2.732,2.732,0,0,0,1.378.373h.079a2.746,2.746,0,0,0,2.75-2.746Z" transform="translate(-68.954 -316.938)" fill="#0182fc"/>
      </g>
    </g>
    <path id="Trazado_874787" data-name="Trazado 874787" d="M331.3,176.139a10.991,10.991,0,0,0-10.628,8.2l-3.9,2.044a.842.842,0,0,0,0,1.492l3.9,2.044A10.988,10.988,0,1,0,331.3,176.139Z" transform="translate(-271.935 -151.422)" fill="#01998d"/>
    <path id="Trazado_874788" data-name="Trazado 874788" d="M286.287,12.7A10.988,10.988,0,0,0,269.03,26.011l-1.312,4.2a.842.842,0,0,0,1.055,1.055l4.2-1.312A10.988,10.988,0,0,0,286.287,12.7Z" transform="translate(-229.989 -8.151)" fill="#fd4755"/>
    <path id="Trazado_874789" data-name="Trazado 874789" d="M289.121,346.019A10.991,10.991,0,0,0,275.81,344.3l-4.2-1.312a.842.842,0,0,0-1.055,1.055l1.312,4.2a10.988,10.988,0,1,0,17.257-2.226Z" transform="translate(-232.426 -294.697)" fill="#ffc344"/>
    <path id="Trazado_874790" data-name="Trazado 874790" fill="none" stroke="#000" stroke-linecap="round" stroke-linejoin="round" stroke-miterlimit="10" stroke-width="15"/>
  </g>
  <g id="Grupo_1100002" data-name="Grupo 1100002" transform="translate(0 0.281)">
    <path id="Trazado_874791" data-name="Trazado 874791" d="M7.45,197.832a3.852,3.852,0,0,0,6.563,2.688,3.774,3.774,0,0,0,1.115-2.688V187.123h2.6l7.924,2.689a1.052,1.052,0,0,0,.676-1.993l-7.374-2.5V171.648l13.929-4.727v23.122l-1.9-.646a1.052,1.052,0,0,0-.676,1.993l2.275.772a1.825,1.825,0,0,0,2.41-1.728v-6.44h1.023a2.95,2.95,0,0,0,2.947-2.947v-5.126a2.95,2.95,0,0,0-2.947-2.947H34.984v-6.445a1.825,1.825,0,0,0-2.41-1.727l-14.85,5.039H8.641a8.64,8.64,0,0,0-1.191,17.2Zm28.557-22.753a.843.843,0,0,1,.842.842v5.126a.843.843,0,0,1-.842.842H34.984v-6.811ZM13.022,197.832a1.734,1.734,0,0,1-3.467,0V187.122h3.467ZM2.1,178.482a6.543,6.543,0,0,1,6.536-6.536h8.2v13.071c-.067,0-8.186,0-8.253,0l-.075,0A6.542,6.542,0,0,1,2.1,178.482Z" transform="translate(0 -141.872)"/>
    <path id="Trazado_874792" data-name="Trazado 874792" d="M324.864,168.659a12.042,12.042,0,0,0-11.518,8.527l-3.5,1.834a1.9,1.9,0,0,0,0,3.356l3.5,1.834a12.04,12.04,0,1,0,11.518-15.551Zm0,21.974a9.935,9.935,0,0,1-9.61-7.411,1.052,1.052,0,0,0-.529-.666L311.18,180.7l3.544-1.858a1.052,1.052,0,0,0,.529-.666,9.935,9.935,0,1,1,9.61,12.458Z" transform="translate(-265.495 -145.272)"/>
    <path id="Trazado_874793" data-name="Trazado 874793" d="M280.583,22.553a11.96,11.96,0,0,0,3.526-8.513c0-.3-.011-.6-.033-.9a1.053,1.053,0,0,0-2.1.156c.018.246.028.5.028.742a9.938,9.938,0,0,1-14.946,8.58,1.053,1.053,0,0,0-.845-.1l-3.82,1.193,1.193-3.82a1.052,1.052,0,0,0-.1-.845,9.937,9.937,0,1,1,17.2-9.963,1.052,1.052,0,1,0,1.824-1.05A12.042,12.042,0,0,0,261.442,19.7l-1.178,3.772a1.893,1.893,0,0,0,2.373,2.373l3.771-1.178a12.048,12.048,0,0,0,14.174-2.114Z" transform="translate(-223.541 -2.001)"/>
    <path id="Trazado_874794" data-name="Trazado 874794" d="M306.563,58.343l9.327-9.327a1.052,1.052,0,1,0-1.488-1.488l-9.327,9.327a1.052,1.052,0,0,0,1.488,1.488Z" transform="translate(-261.999 -40.874)"/>
    <path id="Trazado_874795" data-name="Trazado 874795" d="M304.938,42.322a2.947,2.947,0,1,0-2.947,2.947A2.95,2.95,0,0,0,304.938,42.322Zm-3.789,0a.842.842,0,1,1,.842.842A.843.843,0,0,1,301.149,42.322Z" transform="translate(-257.08 -34.13)"/>
    <path id="Trazado_874796" data-name="Trazado 874796" d="M353.61,99.717a2.947,2.947,0,1,0-2.947-2.947A2.95,2.95,0,0,0,353.61,99.717Zm0-3.789a.842.842,0,1,1-.842.842A.843.843,0,0,1,353.61,95.928Z" transform="translate(-301.455 -80.938)"/>
    <path id="Trazado_874797" data-name="Trazado 874797" d="M269.14,336.615l-3.771-1.178A1.9,1.9,0,0,0,263,337.811l1.177,3.771a12.04,12.04,0,1,0,4.967-4.966Zm12.686,3.6h0a9.933,9.933,0,1,1-15.6,2.013,1.053,1.053,0,0,0,.1-.845l-1.193-3.82,3.82,1.193a1.052,1.052,0,0,0,.845-.1A9.935,9.935,0,0,1,281.826,340.218Z" transform="translate(-225.875 -288.43)"/>
    <path id="Trazado_874798" data-name="Trazado 874798" d="M396.006,200.668q-.256-.095-.506-.19v-3.29a4.683,4.683,0,0,1,1.491.751,1.052,1.052,0,0,0,1.351-1.614,6.7,6.7,0,0,0-2.841-1.3v-1.037a1.052,1.052,0,1,0-2.1,0v1.06c-.133.029-.267.061-.4.1a3.589,3.589,0,0,0-2.606,2.892,3.21,3.21,0,0,0,1.431,3.178,1.033,1.033,0,0,0,.146.08c.039.017.609.271,1.432.609v4.007a4.018,4.018,0,0,1-1.836-1.124A1.052,1.052,0,1,0,390,206.2a6.243,6.243,0,0,0,3.4,1.874v1.07a1.052,1.052,0,1,0,2.1,0v-1.014a4.2,4.2,0,0,0,3.534-3.217C399.287,203.5,398.625,201.634,396.006,200.668Zm-3.1-1.253a1.11,1.11,0,0,1-.438-1.074,1.438,1.438,0,0,1,.926-1.1v2.387C393.172,199.53,393,199.456,392.907,199.415Zm4.054,5.132a2.024,2.024,0,0,1-1.462,1.43V202.73C396.559,203.176,397.089,203.83,396.962,204.547Z" transform="translate(-335.037 -166.142)"/>
    <path id="Trazado_874799" data-name="Trazado 874799" d="M303.424,380.191l.679,5.139a1.541,1.541,0,0,0,1.523,1.335h8.267a1.541,1.541,0,0,0,1.523-1.335l.679-5.139a1.537,1.537,0,0,0-1.523-1.738H313.7v-1.342a3.929,3.929,0,1,0-7.858,0v1.342h-.9A1.537,1.537,0,0,0,303.424,380.191Zm4.527-3.08a1.824,1.824,0,1,1,3.648,0v1.342h-3.648Zm5.973,3.446-.529,4h-7.271l-.529-4Z" transform="translate(-260.834 -321.096)"/>
  </g>
</svg>
