<svg xmlns="http://www.w3.org/2000/svg" xmlns:xlink="http://www.w3.org/1999/xlink" width="69.102" height="69.102" viewBox="0 0 69.102 69.102">
  <defs>
    <clipPath id="clip-path">
      <path id="path7857" d="M0-682.665H69.1v69.1H0Z" transform="translate(0 682.665)"/>
    </clipPath>
  </defs>
  <g id="g7851" transform="translate(0 682.665)">
    <g id="g7853" transform="translate(0 -682.665)">
      <g id="g7855" clip-path="url(#clip-path)">
        <g id="g7861" transform="translate(56.955 3.037)">
          <path id="path7863" d="M-35.951,0H-40V65.053h4.049A4.061,4.061,0,0,0-31.9,61V4.049A4.061,4.061,0,0,0-35.951,0" transform="translate(40)" fill="#fc9f63"/>
        </g>
        <g id="g7865" transform="translate(12.147 3.037)">
          <path id="path7867" d="M-433.809-35.951A4.061,4.061,0,0,0-437.857-40h-40.759a4.061,4.061,0,0,0-4.049,4.049V21a4.061,4.061,0,0,0,4.049,4.049h40.759A4.061,4.061,0,0,0-433.809,21V10.881l-22.4-19.367Z" transform="translate(482.665 40)" fill="#f9bb69"/>
        </g>
        <g id="g7869" transform="translate(4.049 36.373)">
          <path id="path7871" d="M-361.907,0l-28.612,17.545h-12.147a6.073,6.073,0,0,0,6.073,6.073h40.759Z" transform="translate(402.666)" fill="#e7e6e6"/>
        </g>
        <g id="g7873" transform="translate(44.808 36.373)">
          <path id="path7875" d="M0,0V17.545a6.073,6.073,0,0,0,6.073,6.073h4.049V0Z" fill="#d0cdcd"/>
        </g>
        <g id="g7877" transform="translate(52.906 7.086)">
          <path id="path7879" d="M-35.951,0-40,52.559a6.062,6.062,0,0,0,2.024.347A6.073,6.073,0,0,0-31.9,46.832V0Z" transform="translate(40)" fill="#e7e6e6"/>
        </g>
        <g id="g7881" transform="translate(16.196 7.086)">
          <path id="path7883" d="M-234.486,0a4.049,4.049,0,0,1-4.049,4.049A4.049,4.049,0,0,1-242.583,0h-18.311V46.832h32.661a6.075,6.075,0,0,0,4.049,5.727,6.075,6.075,0,0,0,4.049-5.727V0Z" transform="translate(260.894)" fill="#fff"/>
        </g>
        <g id="g7885" transform="translate(44.673 11.135)">
          <path id="path7887" d="M-17.973,0H-20l2.024,4.049h4.049A4.049,4.049,0,0,0-17.973,0" transform="translate(19.997)" fill="#9c9897"/>
        </g>
        <g id="g7889" transform="translate(26.453 1.012)">
          <path id="path7891" d="M-107.853-71.9a2.025,2.025,0,0,1-2.024-2.024,2.025,2.025,0,0,1,2.024-2.024,2.025,2.025,0,0,1,2.024,2.024,2.025,2.025,0,0,1-2.024,2.024m6.074,2.024s0-4.049,0-4.049A6.073,6.073,0,0,0-107.853-80a6.073,6.073,0,0,0-6.073,6.073v4.049h-2.024A4.049,4.049,0,0,0-120-65.829h20.245c0-2.236-.906-4.049-2.024-4.049" transform="translate(120 80)" fill="#b8b4b3"/>
        </g>
        <g id="g7893" transform="translate(41.771 31.514)">
          <path id="path7895" d="M-6.963-23.927a1.009,1.009,0,0,1-.716-.3L-9.7-26.247a1.012,1.012,0,0,1,0-1.432,1.012,1.012,0,0,1,1.432,0l1.309,1.309L-3.63-29.7a1.012,1.012,0,0,1,1.432,0,1.012,1.012,0,0,1,0,1.432l-4.049,4.049A1.009,1.009,0,0,1-6.963-23.927Z" transform="translate(10 30)"/>
        </g>
        <g id="g7897" transform="translate(41.771 23.416)">
          <path id="path7899" d="M-6.963-23.927a1.009,1.009,0,0,1-.716-.3L-9.7-26.247a1.012,1.012,0,0,1,0-1.432,1.012,1.012,0,0,1,1.432,0l1.309,1.309L-3.63-29.7a1.012,1.012,0,0,1,1.432,0,1.012,1.012,0,0,1,0,1.432l-4.049,4.049A1.009,1.009,0,0,1-6.963-23.927Z" transform="translate(10 30)"/>
        </g>
        <g id="g7901" transform="translate(41.771 39.612)">
          <path id="path7903" d="M-6.963-23.927a1.009,1.009,0,0,1-.716-.3L-9.7-26.247a1.012,1.012,0,0,1,0-1.432,1.012,1.012,0,0,1,1.432,0l1.309,1.309L-3.63-29.7a1.012,1.012,0,0,1,1.432,0,1.012,1.012,0,0,1,0,1.432l-4.049,4.049A1.009,1.009,0,0,1-6.963-23.927Z" transform="translate(10 30)"/>
        </g>
        <g id="g7905" transform="translate(25.441 33.539)">
          <path id="path7907" d="M-118.039-7.976h-12.282a1.012,1.012,0,0,1-1.012-1.012A1.012,1.012,0,0,1-130.321-10h12.282a1.012,1.012,0,0,1,1.012,1.012A1.012,1.012,0,0,1-118.039-7.976Z" transform="translate(131.333 10)"/>
        </g>
        <g id="g7909" transform="translate(25.441 25.441)">
          <path id="path7911" d="M-118.039-7.976h-12.282a1.012,1.012,0,0,1-1.012-1.012A1.012,1.012,0,0,1-130.321-10h12.282a1.012,1.012,0,0,1,1.012,1.012A1.012,1.012,0,0,1-118.039-7.976Z" transform="translate(131.333 10)"/>
        </g>
        <g id="g7913" transform="translate(25.441 41.636)">
          <path id="path7915" d="M-118.039-7.976h-12.282a1.012,1.012,0,0,1-1.012-1.012A1.012,1.012,0,0,1-130.321-10h12.282a1.012,1.012,0,0,1,1.012,1.012A1.012,1.012,0,0,1-118.039-7.976Z" transform="translate(131.333 10)"/>
        </g>
        <g id="g7917" transform="translate(3.037 6.073)">
          <path id="path7919" d="M-363.944,44.93h-44.808a7.094,7.094,0,0,1-7.086-7.086,1.012,1.012,0,0,1,1.012-1.012h44.808a1.012,1.012,0,0,1,1.012,1.012,5.067,5.067,0,0,0,5.061,5.061,5.067,5.067,0,0,0,5.061-5.061V-7.975h-14.862a1.012,1.012,0,0,1-1.012-1.012A1.012,1.012,0,0,1-373.745-10h15.875a1.012,1.012,0,0,1,1.012,1.012V37.845A7.094,7.094,0,0,1-363.944,44.93Zm-49.767-6.073a5.07,5.07,0,0,0,4.959,4.049H-368.9a7.074,7.074,0,0,1-2.059-4.049Z" transform="translate(415.838 10)"/>
        </g>
        <g id="g7921" transform="translate(15.183 6.073)">
          <path id="path7923" d="M-164.939,38.857a1.012,1.012,0,0,1-1.012-1.012V-8.988A1.012,1.012,0,0,1-164.939-10h15.786a1.012,1.012,0,0,1,1.012,1.012,1.012,1.012,0,0,1-1.012,1.012h-14.774v45.82A1.012,1.012,0,0,1-164.939,38.857Z" transform="translate(165.952 10)"/>
        </g>
        <g id="g7925" transform="translate(11.135 2.024)">
          <path id="path7927" d="M-8.988-423.809A1.012,1.012,0,0,1-10-424.821V-467.6a5.067,5.067,0,0,1,5.061-5.061H12.9a1.012,1.012,0,0,1,1.012,1.012,1.012,1.012,0,0,1-1.012,1.012H-4.939A3.04,3.04,0,0,0-7.975-467.6v42.784A1.012,1.012,0,0,1-8.988-423.809Z" transform="translate(10 472.666)"/>
        </g>
        <g id="g7929" transform="translate(11.135 2.024)">
          <path id="path7931" d="M-265.719,57.077h-44.808a5.067,5.067,0,0,1-5.061-5.061V47.967a1.012,1.012,0,0,1,1.012-1.012,1.012,1.012,0,0,1,1.012,1.012v4.049a3.04,3.04,0,0,0,3.037,3.037h44.808a3.04,3.04,0,0,0,3.037-3.037V-4.939a3.04,3.04,0,0,0-3.037-3.037h-17.924a1.012,1.012,0,0,1-1.012-1.012A1.012,1.012,0,0,1-283.644-10h17.924a5.067,5.067,0,0,1,5.061,5.061V52.016A5.067,5.067,0,0,1-265.719,57.077Z" transform="translate(315.589 10)"/>
        </g>
        <g id="g7933" transform="translate(25.441 0)">
          <path id="path7935" d="M-56.841-70a7.094,7.094,0,0,1,7.086,7.086v3.037h1.012a5.067,5.067,0,0,1,5.061,5.061A1.012,1.012,0,0,1-44.694-53.8H-68.988A1.012,1.012,0,0,1-70-54.816a5.067,5.067,0,0,1,5.061-5.061h1.012v-3.037A7.094,7.094,0,0,1-56.841-70ZM-45.88-55.829a3.042,3.042,0,0,0-2.863-2.024h-2.024a1.012,1.012,0,0,1-1.012-1.012v-4.049a5.067,5.067,0,0,0-5.061-5.061A5.067,5.067,0,0,0-61.9-62.914v4.049a1.012,1.012,0,0,1-1.012,1.012h-2.024A3.042,3.042,0,0,0-67.8-55.829Z" transform="translate(70 70)"/>
        </g>
        <g id="g7937" transform="translate(35.563 4.049)">
          <path id="path7939" d="M-46.963-30a3.04,3.04,0,0,1,3.037,3.037,3.04,3.04,0,0,1-3.037,3.037A3.04,3.04,0,0,1-50-26.963,3.04,3.04,0,0,1-46.963-30Zm0,4.049a1.013,1.013,0,0,0,1.012-1.012,1.013,1.013,0,0,0-1.012-1.012,1.013,1.013,0,0,0-1.012,1.012A1.013,1.013,0,0,0-46.963-25.951Z" transform="translate(50 30)"/>
        </g>
      </g>
    </g>
  </g>
</svg>
