<svg xmlns="http://www.w3.org/2000/svg" width="62.008" height="62" viewBox="0 0 62.008 62">
  <g id="ubicacion" transform="translate(-0.998 -1)">
    <path id="Trazado_874800" data-name="Trazado 874800" d="M43.2,30h7.59a3,3,0,0,1,2.865,2.111l8.228,26.512A2.605,2.605,0,0,1,59.4,62H4.605a2.6,2.6,0,0,1-2.488-3.372l8.228-26.512A3,3,0,0,1,13.21,30H20.8" fill="#f9d266"/>
    <path id="Trazado_874801" data-name="Trazado 874801" d="M50.655,40.111A3,3,0,0,0,47.79,38H10.21a2.987,2.987,0,0,0-1.909.7L2.117,58.623A2.6,2.6,0,0,0,4.6,62H57.448Z" fill="#fce797"/>
    <g id="Grupo_1100005" data-name="Grupo 1100005">
      <path id="Trazado_874802" data-name="Trazado 874802" d="M14,34H26.8v2H14Z" fill="#f0ae42"/>
      <path id="Trazado_874803" data-name="Trazado 874803" d="M37.2,34H50v2H37.2Z" fill="#f0ae42"/>
      <path id="Trazado_874804" data-name="Trazado 874804" d="M9,57H55v2H9Z" fill="#f0ae42"/>
      <path id="Trazado_874805" data-name="Trazado 874805" d="M15,53H49v2H15Z" fill="#f0ae42"/>
    </g>
    <path id="Trazado_874806" data-name="Trazado 874806" d="M32,44,44.252,28.685A17.106,17.106,0,0,0,48,18a16,16,0,0,0-32,0,17.106,17.106,0,0,0,3.748,10.685Z" fill="#4d8c28"/>
    <path id="Trazado_874807" data-name="Trazado 874807" d="M36.5,38.37c4.96.845,8.5,3.047,8.5,5.63,0,3.314-5.82,6-13,6s-13-2.686-13-6c0-2.583,3.536-4.785,8.5-5.63L32,44Z" fill="#d5883e"/>
    <circle id="Elipse_11511" data-name="Elipse 11511" cx="12" cy="12" r="12" transform="translate(20 6)" fill="#6bc13b"/>
    <path id="Trazado_874808" data-name="Trazado 874808" d="M20.378,21a12.03,12.03,0,0,1,1.874-10H25.5a2.5,2.5,0,0,1,0,5A1.5,1.5,0,0,0,24,17.5,3.5,3.5,0,0,1,20.5,21Z" fill="#3d54bd"/>
    <path id="Trazado_874809" data-name="Trazado 874809" d="M40.943,26H38a2,2,0,0,1-2-2,2,2,0,0,0-2-2H31a2,2,0,0,1,0-4h3a2,2,0,0,0,0-4,2,2,0,0,1,0-4h6.944a12,12,0,0,1,0,16Z" fill="#3d54bd"/>
    <path id="Trazado_874810" data-name="Trazado 874810" d="M62.838,58.327,54.61,31.814A3.981,3.981,0,0,0,50.79,29H45.259A18.16,18.16,0,0,0,49,18a17,17,0,1,0-34,0,18.16,18.16,0,0,0,3.741,11H13.21a3.981,3.981,0,0,0-3.82,2.814L1.162,58.327A3.6,3.6,0,0,0,4.605,63H59.4a3.6,3.6,0,0,0,3.443-4.673ZM32,3A15.017,15.017,0,0,1,47,18a16.163,16.163,0,0,1-3.529,10.061L32,42.4,20.529,28.061A16.163,16.163,0,0,1,17,18,15.017,15.017,0,0,1,32,3Zm-.781,41.624a1,1,0,0,0,1.562,0l4.128-5.16C41.05,40.287,44,42.151,44,44c0,2.365-4.928,5-12,5s-12-2.635-12-5c0-1.849,2.95-3.713,7.091-4.536ZM59.4,61H4.605a1.606,1.606,0,0,1-1.533-2.081L11.3,32.407A1.99,1.99,0,0,1,13.21,31h7.11l2.4,3H14v2H24.32l1.38,1.725C20.974,38.877,18,41.252,18,44c0,3.925,6.149,7,14,7s14-3.075,14-7c0-2.748-2.974-5.123-7.7-6.275L39.68,36H50V34H41.28l2.4-3h7.11a1.99,1.99,0,0,1,1.91,1.407l8.228,26.512A1.606,1.606,0,0,1,59.4,61Z"/>
    <path id="Trazado_874811" data-name="Trazado 874811" d="M32,31A13,13,0,1,0,19,18,13,13,0,0,0,32,31ZM43,18a10.949,10.949,0,0,1-2.521,7H38a1,1,0,0,1-1-1,3,3,0,0,0-3-3H31a1,1,0,0,1,0-2h3a3,3,0,0,0,0-6,1,1,0,0,1,0-2h6.479A10.949,10.949,0,0,1,43,18ZM38.305,9H34a3,3,0,0,0,0,6,1,1,0,0,1,0,2H31a3,3,0,0,0,0,6h3a1,1,0,0,1,1,1,3,3,0,0,0,3,3h.3a10.968,10.968,0,0,1-16.6-5.182A4.494,4.494,0,0,0,25,17.5a.5.5,0,0,1,.5-.5,3.5,3.5,0,1,0,0-7H24.474A10.939,10.939,0,0,1,38.305,9ZM22.792,12H25.5a1.5,1.5,0,0,1,0,3A2.5,2.5,0,0,0,23,17.5a2.5,2.5,0,0,1-1.825,2.4A10.8,10.8,0,0,1,22.792,12Z"/>
    <path id="Trazado_874812" data-name="Trazado 874812" d="M9,57H55v2H9Z"/>
    <path id="Trazado_874813" data-name="Trazado 874813" d="M15,53H49v2H15Z"/>
  </g>
</svg>
