<svg xmlns="http://www.w3.org/2000/svg" xmlns:xlink="http://www.w3.org/1999/xlink" width="85" height="87" viewBox="0 0 85 87">
  <defs>
    <clipPath id="clip-path">
      <rect id="Rect치ngulo_401341" data-name="Rect치ngulo 401341" width="85" height="87" fill="none"/>
    </clipPath>
    <clipPath id="clip-path-2">
      <rect id="Rect치ngulo_401340" data-name="Rect치ngulo 401340" width="72.008" height="79.273" fill="#769671"/>
    </clipPath>
  </defs>
  <g id="Enmascarar_grupo_1098694" data-name="Enmascarar grupo 1098694" clip-path="url(#clip-path)">
    <g id="Grupo_1099621" data-name="Grupo 1099621" transform="translate(6.766 4.987)">
      <g id="Grupo_1099620" data-name="Grupo 1099620" clip-path="url(#clip-path-2)">
        <path id="Trazado_873584" data-name="Trazado 873584" d="M12.062,74.759A399.448,399.448,0,0,1,12.7,32.186,105.76,105.76,0,0,1,13.74,21.267q-.1.6-.21,1.2a20.982,20.982,0,0,1,2.046-6.223l-.593,1.077a14.7,14.7,0,0,1,1.868-2.668c.245-.275.951-.856-.2.156.2-.179.391-.367.6-.545a15.675,15.675,0,0,1,1.482-1.13c.163-.111,1.1-.687.27-.2-.868.509.276-.146.441-.233q.8-.422,1.639-.794a39.864,39.864,0,0,1,3.776-1.425l-1.406.455a45.51,45.51,0,0,1,9.067-1.922l-1.563.161a38.023,38.023,0,0,1,7.5-.037L36.892,8.98a28.425,28.425,0,0,1,5.382,1.091l-1.406-.455a23.068,23.068,0,0,1,2.234.844q.575.255,1.126.541c.164.085.324.175.486.262.9.481-.844-.553-.333-.2.678.474,1.365.928,1.99,1.447q.493.409.951.842c.129.12.624.606.04.031-.64-.63.031.048.119.144a39.1,39.1,0,0,1,5.433,7.887l-.593-1.077a63.829,63.829,0,0,1,6.658,19.678q-.1-.6-.21-1.2c1.816,10.542,1.594,21.2,1.3,31.808-.067,2.36,2.753,4.618,5.883,4.51,3.244-.111,5.812-1.981,5.883-4.51.31-11.029.427-22.051-1.505-33.006a66.434,66.434,0,0,0-4.55-15.4C63.38,16.8,60.327,11.328,55.54,6.883c-9.726-9.029-27.187-8.19-39.547-3.125A25.571,25.571,0,0,0,7.045,9.717a18.5,18.5,0,0,0-4.162,7.391,40.713,40.713,0,0,0-1.424,8.246C1.2,28.276.987,31.2.8,34.126Q-.346,52.186.148,70.278q.064,2.24.148,4.481c.09,2.356,2.641,4.621,5.883,4.51,3.11-.107,5.979-1.983,5.883-4.51" transform="translate(0 0)" fill="#769671"/>
        <path id="Trazado_873585" data-name="Trazado 873585" d="M34.024,84.82A162.834,162.834,0,0,1,32.893,66.31q-.016-4.6.23-9.192a76.206,76.206,0,0,1,.819-9q-.1.6-.21,1.2a15.639,15.639,0,0,1,1.592-4.692L34.73,45.7a11.279,11.279,0,0,1,1.119-1.623c.158-.189.341-.367.5-.556-.984,1.19-.344.339.009.045q.393-.329.825-.63c.4-.277,1.124-.464-.3.144.671-.287,1.267-.632,1.977-.877l-1.4.455a12.314,12.314,0,0,1,2.2-.485l-1.564.161a12.65,12.65,0,0,1,2.328-.018l-1.564-.161a13.593,13.593,0,0,1,2.517.517l-1.406-.455a14.051,14.051,0,0,1,2.075.859c.041.022.476.272.486.265-.046.031-1.124-.719-.488-.274.334.234.669.463.983.714.279.223.533.461.8.693.454.4-.738-.813-.377-.361.1.13.227.252.336.38a12.8,12.8,0,0,1,1.292,1.886L44.475,45.3a18.9,18.9,0,0,1,1.919,5.807q-.1-.6-.21-1.2a149.355,149.355,0,0,1,1.676,16.8q.5,8.607.319,17.228c-.049,2.36,2.741,4.617,5.883,4.51,3.229-.111,5.831-1.981,5.883-4.51a218.5,218.5,0,0,0-.684-22.419c-.3-3.611-.622-7.234-1.181-10.828-.592-3.807-1.483-7.811-4.393-11.039a18.968,18.968,0,0,0-11.706-6.2,19.817,19.817,0,0,0-9.058.957,15.415,15.415,0,0,0-5.274,3.111,16.924,16.924,0,0,0-4.06,5.453,20.553,20.553,0,0,0-1.525,5.812,96.24,96.24,0,0,0-.823,10.843A162.249,162.249,0,0,0,22.258,84.82a4.349,4.349,0,0,0,1.723,3.189,7.008,7.008,0,0,0,4.16,1.321c2.949-.1,6.18-1.994,5.883-4.51" transform="translate(-4.555 -13.279)" fill="#769671"/>
      </g>
    </g>
  </g>
</svg>
