<svg xmlns="http://www.w3.org/2000/svg" xmlns:xlink="http://www.w3.org/1999/xlink" width="295" height="615" viewBox="0 0 295 615">
  <defs>
    <clipPath id="clip-path">
      <rect id="Rectángulo_401620" data-name="Rectángulo 401620" width="226" height="231" fill="none"/>
    </clipPath>
    <clipPath id="clip-path-2">
      <rect id="Rectángulo_401619" data-name="Rectángulo 401619" width="191.215" height="210.508" fill="#d59cff"/>
    </clipPath>
    <clipPath id="clip-path-3">
      <rect id="Rectángulo_401623" data-name="Rectángulo 401623" width="180.77" height="600.221" fill="none"/>
    </clipPath>
    <clipPath id="clip-path-4">
      <rect id="Rectángulo_401624" data-name="Rectángulo 401624" width="168.377" height="444" fill="none"/>
    </clipPath>
    <clipPath id="clip-path-7">
      <rect id="Rectángulo_401618" data-name="Rectángulo 401618" width="204" height="527.361" fill="none"/>
    </clipPath>
    <clipPath id="clip-path-9">
      <rect id="Rectángulo_401609" data-name="Rectángulo 401609" width="14.166" height="25.896" fill="none"/>
    </clipPath>
    <clipPath id="clip-path-10">
      <rect id="Rectángulo_401610" data-name="Rectángulo 401610" width="44.343" height="29.474" fill="none"/>
    </clipPath>
    <clipPath id="clip-path-11">
      <rect id="Rectángulo_401611" data-name="Rectángulo 401611" width="15.934" height="15.934" fill="none"/>
    </clipPath>
    <clipPath id="clip-path-12">
      <rect id="Rectángulo_401612" data-name="Rectángulo 401612" width="11.903" height="13.777" fill="none"/>
    </clipPath>
    <clipPath id="clip-path-14">
      <rect id="Rectángulo_401614" data-name="Rectángulo 401614" width="13.808" height="16.933" fill="none"/>
    </clipPath>
    <clipPath id="clip-path-15">
      <rect id="Rectángulo_401615" data-name="Rectángulo 401615" width="174.664" height="63.051" fill="none"/>
    </clipPath>
  </defs>
  <g id="Grupo_1100175" data-name="Grupo 1100175" transform="translate(-180.051 -4725)">
    <rect id="Rectángulo_401369" data-name="Rectángulo 401369" width="295" height="614.838" transform="translate(180.051 4725)" fill="#eed7fe"/>
    <g id="Enmascarar_grupo_1098720" data-name="Enmascarar grupo 1098720" transform="translate(189.051 4727)" clip-path="url(#clip-path)">
      <g id="Grupo_1100172" data-name="Grupo 1100172" transform="translate(17.966 7.469)">
        <g id="Grupo_1100171" data-name="Grupo 1100171" clip-path="url(#clip-path-2)">
          <path id="Trazado_875291" data-name="Trazado 875291" d="M32.032,11.987a1060.727,1060.727,0,0,0,1.683,113.053c.66,9.66,1.106,19.4,2.772,28.994q-.278-1.593-.558-3.184a55.718,55.718,0,0,0,5.434,16.525l-1.575-2.86a39.048,39.048,0,0,0,4.96,7.085c.65.731,2.525,2.272-.519-.415.539.476,1.039.976,1.581,1.447a41.626,41.626,0,0,0,3.935,3c.433.3,2.933,1.824.717.525-2.306-1.351.733.388,1.171.62q2.118,1.121,4.351,2.108a105.86,105.86,0,0,0,10.027,3.783q-1.872-.6-3.733-1.207a120.852,120.852,0,0,0,24.077,5.1q-2.078-.213-4.151-.428a100.97,100.97,0,0,0,19.915.1l-4.153.428a75.484,75.484,0,0,0,14.291-2.9q-1.868.6-3.733,1.209a61.254,61.254,0,0,0,5.932-2.24q1.528-.678,2.991-1.437c.435-.227.86-.465,1.291-.7,2.381-1.277-2.241,1.467-.885.519,1.8-1.26,3.624-2.465,5.284-3.843q1.309-1.087,2.525-2.237c.342-.319,1.656-1.608.106-.083-1.7,1.672.081-.128.317-.382,5.966-6.435,10.429-13.694,14.427-20.945l-1.575,2.86c9.094-16.7,14.539-34.358,17.68-52.256q-.278,1.59-.558,3.184c4.822-27.995,4.233-56.3,3.441-84.464-.177-6.267,7.311-12.263,15.622-11.977,8.615.3,15.433,5.26,15.622,11.977.823,29.286,1.133,58.555-4,87.647a176.413,176.413,0,0,1-12.081,40.908c-6.361,14.39-14.468,28.922-27.18,40.724-25.827,23.975-72.2,21.75-105.016,8.3A67.9,67.9,0,0,1,18.708,184.7,49.113,49.113,0,0,1,7.655,165.077a108.111,108.111,0,0,1-3.783-21.9c-.7-7.757-1.25-15.525-1.741-23.292q-3.049-47.958-1.737-96,.169-5.95.394-11.9C1.027,5.73,7.8-.285,16.41.011,24.669.3,32.288,5.277,32.032,11.987" transform="translate(-0.001 0)" fill="#d59cff"/>
          <path id="Trazado_875292" data-name="Trazado 875292" d="M55.375,45.291a432.4,432.4,0,0,0-3,49.155q-.044,12.208.61,24.408c.427,7.958.8,15.993,2.175,23.894q-.278-1.593-.558-3.184a41.529,41.529,0,0,0,4.226,12.46l-1.575-2.861a29.952,29.952,0,0,0,2.97,4.31c.421.5.906.974,1.321,1.477-2.612-3.16-.912-.9.023-.118q1.044.874,2.191,1.672c1.06.734,2.985,1.231-.785-.382,1.783.763,3.364,1.678,5.249,2.33l-3.731-1.207a32.7,32.7,0,0,0,5.834,1.287l-4.153-.428a33.592,33.592,0,0,0,6.182.048q-2.075.216-4.153.428a36.1,36.1,0,0,0,6.684-1.372l-3.733,1.207a37.314,37.314,0,0,0,5.509-2.28c.108-.057,1.264-.723,1.291-.7-.123-.083-2.985,1.91-1.3.728.887-.621,1.777-1.23,2.61-1.9.742-.592,1.414-1.223,2.114-1.841,1.206-1.068-1.96,2.159-1,.96.277-.345.6-.669.891-1.009a33.986,33.986,0,0,0,3.431-5.007l-1.575,2.86a50.191,50.191,0,0,0,5.1-15.42q-.278,1.593-.558,3.184c2.556-14.757,3.585-29.759,4.451-44.623q1.331-22.857.848-45.747c-.129-6.266,7.278-12.262,15.622-11.976,8.573.3,15.485,5.261,15.622,11.976a580.233,580.233,0,0,1-1.816,59.534c-.789,9.589-1.652,19.211-3.137,28.755-1.573,10.109-3.939,20.742-11.667,29.315A50.368,50.368,0,0,1,76.5,181.674a52.625,52.625,0,0,1-24.054-2.542,40.934,40.934,0,0,1-14-8.26,44.941,44.941,0,0,1-10.781-14.481c-2.343-4.958-3.256-10.223-4.049-15.434-1.45-9.528-1.823-19.209-2.185-28.793a430.848,430.848,0,0,1,2.7-66.873,11.548,11.548,0,0,1,4.576-8.468,18.609,18.609,0,0,1,11.046-3.508c7.832.268,16.412,5.295,15.622,11.976" transform="translate(22.879 -24.759)" fill="#d59cff"/>
        </g>
      </g>
    </g>
    <g id="Grupo_1100176" data-name="Grupo 1100176" transform="translate(189.051 4739.779)">
      <g id="Grupo_1100176-2" data-name="Grupo 1100176" clip-path="url(#clip-path-3)">
        <path id="Trazado_875295" data-name="Trazado 875295" d="M90.385,0h0c18.188,0,33.066,14.556,33.066,32.349V171.07c2.1,51.764,57.319,54.4,57.319,147.379V510.357c0,22.933-19.181,41.69-42.619,41.69H42.622C19.177,552.047,0,533.29,0,510.357V160.305c0-48.884,11.455-52.175,34.906-65.417,20.606-11.64,22.3-32.248,22.408-37.066V32.349C57.314,14.556,72.2,0,90.385,0" fill="#608f61" fill-rule="evenodd"/>
        <path id="Trazado_875296" data-name="Trazado 875296" d="M70.047,56.517a4.013,4.013,0,0,1,8.025,0v89.716l18.882-10.665a2.427,2.427,0,0,1,3.274.861,2.32,2.32,0,0,1-.883,3.2L78.071,151.648V279.969L134,248.381a2.423,2.423,0,0,1,3.27.868,2.305,2.305,0,0,1-.884,3.194l-58.314,32.94V408.432L134,376.85a2.421,2.421,0,0,1,3.27.863,2.312,2.312,0,0,1-.884,3.2L78.071,413.846V555.311a4.013,4.013,0,0,1-8.025,0V446.6l-47.893-27.05a2.322,2.322,0,0,1-.886-3.2,2.426,2.426,0,0,1,3.274-.863l45.5,25.705V338.327L22.154,311.273a2.32,2.32,0,0,1-.886-3.2,2.429,2.429,0,0,1,3.274-.863l45.5,25.7V230.057L22.154,203a2.322,2.322,0,0,1-.886-3.2,2.429,2.429,0,0,1,3.274-.863l45.5,25.7V121.779L22.154,94.731a2.319,2.319,0,0,1-.886-3.2,2.424,2.424,0,0,1,3.274-.863l45.5,25.7Z" transform="translate(16.326 40.985)" fill="#456c61" fill-rule="evenodd"/>
      </g>
    </g>
    <g id="Grupo_1100177" data-name="Grupo 1100177" transform="translate(302.673 4896)">
      <g id="Grupo_1100178" data-name="Grupo 1100178" clip-path="url(#clip-path-4)">
        <path id="Trazado_875297" data-name="Trazado 875297" d="M132.39,49.088V98.18c0,19.379,14.529,32.3,22.783,40.691s13.205,20.349,13.205,57.815S167.3,299.874,167.3,331.525c0,85.346-166.234,85.346-166.234,0C1.071,299.874,0,234.148,0,196.686s4.953-49.413,13.205-57.815S35.984,117.559,35.984,98.18V49.088c0-65.451,96.406-65.451,96.406,0" transform="translate(0 0)" fill="#88ab7c" fill-rule="evenodd"/>
        <path id="Trazado_875298" data-name="Trazado 875298" d="M73.1,32.326a3.12,3.12,0,0,0-6.239,0v69.769L52.181,93.8a1.888,1.888,0,0,0-2.546.673,1.8,1.8,0,0,0,.688,2.488l16.542,9.345V206.1L23.371,181.531a1.89,1.89,0,0,0-2.545.675,1.8,1.8,0,0,0,.688,2.488l45.35,25.614V306L23.371,281.439a1.884,1.884,0,0,0-2.545.669,1.805,1.805,0,0,0,.688,2.492l45.35,25.612V420.228a3.12,3.12,0,0,0,6.239,0V335.684l37.246-21.037a1.8,1.8,0,0,0,.69-2.488,1.886,1.886,0,0,0-2.545-.673L73.1,331.47V251.479l37.246-21.034a1.8,1.8,0,0,0,.69-2.488,1.889,1.889,0,0,0-2.545-.673L73.1,247.271V167.277l37.246-21.034a1.8,1.8,0,0,0,.69-2.487,1.888,1.888,0,0,0-2.545-.675L73.1,163.069V83.077l24.265-13.7a1.8,1.8,0,0,0,.685-2.488,1.888,1.888,0,0,0-2.545-.673L73.1,78.868Z" transform="translate(14.567 20.72)" fill="#456c61" fill-rule="evenodd"/>
      </g>
    </g>
    <g id="Enmascarar_grupo_1098721" data-name="Enmascarar grupo 1098721" transform="translate(245.051 5102)" clip-path="url(#clip-path)">
      <g id="Grupo_1100174" data-name="Grupo 1100174" transform="translate(16.819 13.023)">
        <g id="Grupo_1100173" data-name="Grupo 1100173" clip-path="url(#clip-path-2)">
          <path id="Trazado_875293" data-name="Trazado 875293" d="M159.183,198.521A1060.726,1060.726,0,0,0,157.5,85.468c-.66-9.66-1.106-19.4-2.772-28.994q.278,1.593.558,3.184a55.718,55.718,0,0,0-5.434-16.525l1.575,2.86a39.047,39.047,0,0,0-4.96-7.085c-.65-.731-2.525-2.272.519.415-.539-.476-1.039-.976-1.581-1.447a41.626,41.626,0,0,0-3.935-3c-.433-.3-2.933-1.824-.717-.525,2.306,1.351-.733-.388-1.171-.62q-2.118-1.121-4.351-2.108A105.86,105.86,0,0,0,125.2,27.839q1.872.6,3.733,1.207a120.852,120.852,0,0,0-24.077-5.1q2.078.213,4.151.428a100.97,100.97,0,0,0-19.915-.1l4.153-.428a75.484,75.484,0,0,0-14.291,2.9q1.868-.6,3.733-1.209a61.254,61.254,0,0,0-5.932,2.24q-1.528.678-2.991,1.437c-.435.227-.86.465-1.291.7-2.381,1.277,2.241-1.467.885-.519-1.8,1.26-3.624,2.465-5.284,3.843q-1.309,1.087-2.525,2.237c-.342.319-1.656,1.608-.106.083,1.7-1.672-.081.128-.317.382C59.164,42.37,54.7,49.629,50.7,56.88l1.575-2.86c-9.094,16.7-14.539,34.358-17.68,52.256q.278-1.59.558-3.184c-4.822,27.995-4.233,56.3-3.441,84.464.177,6.267-7.311,12.263-15.622,11.977C7.477,199.238.66,194.274.47,187.556-.352,158.27-.663,129,4.468,99.909A176.413,176.413,0,0,1,16.549,59c6.361-14.39,14.468-28.922,27.18-40.724,25.827-23.975,72.2-21.75,105.016-8.3A67.9,67.9,0,0,1,172.508,25.8,49.113,49.113,0,0,1,183.56,45.431a108.111,108.111,0,0,1,3.783,21.9c.7,7.757,1.25,15.525,1.741,23.292q3.049,47.958,1.737,96-.169,5.95-.394,11.9c-.24,6.256-7.013,12.271-15.622,11.976-8.259-.284-15.878-5.266-15.622-11.976" transform="translate(0 0)" fill="#d59cff"/>
          <path id="Trazado_875294" data-name="Trazado 875294" d="M90.085,170.1a432.4,432.4,0,0,0,3-49.155q.044-12.208-.61-24.408c-.427-7.958-.8-15.993-2.175-23.894q.278,1.593.558,3.184a41.529,41.529,0,0,0-4.226-12.46l1.575,2.861a29.952,29.952,0,0,0-2.97-4.31c-.421-.5-.906-.974-1.321-1.477,2.612,3.16.912.9-.023.118q-1.044-.874-2.191-1.672c-1.06-.734-2.985-1.231.785.382-1.783-.763-3.364-1.678-5.249-2.33l3.731,1.207a32.7,32.7,0,0,0-5.834-1.287l4.153.428a33.592,33.592,0,0,0-6.182-.048q2.075-.216,4.153-.428a36.1,36.1,0,0,0-6.684,1.372l3.733-1.207a37.314,37.314,0,0,0-5.509,2.28c-.108.057-1.264.723-1.291.7.123.083,2.985-1.91,1.3-.728-.887.621-1.777,1.23-2.61,1.9-.742.592-1.414,1.223-2.114,1.841-1.206,1.068,1.96-2.159,1-.96-.277.345-.6.669-.891,1.009a33.986,33.986,0,0,0-3.431,5.007l1.575-2.86a50.191,50.191,0,0,0-5.1,15.42q.278-1.593.558-3.184c-2.556,14.757-3.585,29.759-4.451,44.623q-1.331,22.857-.848,45.747c.129,6.266-7.278,12.262-15.622,11.976-8.573-.3-15.485-5.261-15.622-11.976a580.233,580.233,0,0,1,1.816-59.534c.789-9.589,1.652-19.211,3.137-28.755,1.573-10.109,3.939-20.742,11.667-29.315A50.368,50.368,0,0,1,68.955,33.715a52.625,52.625,0,0,1,24.054,2.542,40.934,40.934,0,0,1,14,8.26A44.941,44.941,0,0,1,117.794,59c2.343,4.958,3.256,10.223,4.049,15.434,1.45,9.528,1.823,19.209,2.185,28.793a430.848,430.848,0,0,1-2.7,66.873,11.548,11.548,0,0,1-4.576,8.468,18.609,18.609,0,0,1-11.046,3.508c-7.832-.268-16.412-5.295-15.622-11.976" transform="translate(22.876 19.877)" fill="#d59cff"/>
        </g>
      </g>
    </g>
    <g id="Grupo_1100170" data-name="Grupo 1100170" transform="translate(226.051 4812.639)">
      <g id="Grupo_1100169" data-name="Grupo 1100169" clip-path="url(#clip-path-7)">
        <g id="Grupo_1100168" data-name="Grupo 1100168">
          <g id="Grupo_1100167" data-name="Grupo 1100167" clip-path="url(#clip-path-7)">
            <path id="Trazado_875248" data-name="Trazado 875248" d="M106.631,57.968a26.259,26.259,0,0,1,2.117,14.874,30.155,30.155,0,0,1-7.986,17.068,24.737,24.737,0,0,1-15.137,7.461A27.153,27.153,0,0,0,77.454,80.8C87.263,70.14,88.142,53.875,88.142,53.875c2.565-.31,5.22-2.549,7.26-5.561l.016.016a18.037,18.037,0,0,1,11.214,9.638" transform="translate(47.498 29.628)" fill="#21232b"/>
            <path id="Trazado_875249" data-name="Trazado 875249" d="M120.034,66.938c-2.039,3.012-4.7,5.251-7.26,5.561,0,0-.881,16.265-10.689,26.922a27.755,27.755,0,0,1-2.58,2.472c-4.586,3.893-10.765,6.564-19.044,6.564-9.5,0-16.218-3.522-20.975-8.355a27.83,27.83,0,0,1-2.1-2.4C48.935,87.11,48.148,72.5,48.148,72.5c-6.224-.757-13.037-12.882-10.194-19.864a9.187,9.187,0,0,1,.773-1.513c2.192-3.414,5.561-2.534,7.29-1.762l.047-.108a60.775,60.775,0,0,0,42.97-17.825c3.769-3.8,7.1-8.31,8.263-13.484,4.372,4.232,8.681,8.557,11.925,13.685,3.428,5.375,5.638,11.785,4.943,18.118,1.05-.587,4.062-2.008,6.548-.232a6.885,6.885,0,0,1,2.255,3.12c1.668,4.109,0,9.994-2.935,14.3" transform="translate(22.867 11.004)" fill="#ff9a55"/>
            <path id="Trazado_875250" data-name="Trazado 875250" d="M97.264,28.948C96.106,34.122,92.77,38.632,89,42.433A60.782,60.782,0,0,1,46.029,60.258l-.045.108c-1.731-.773-5.1-1.654-7.292,1.76-2.688-12.4-1.42-25.749,4.325-37.04,5.838-11.475,16.436-20.621,28.9-23.833,12.449-3.228,26.567-.169,35.99,8.587,6.9,6.395,11.059,15.353,12.774,24.591,1.607,8.587,1.236,17.423,0,26.088-2.488-1.776-5.5-.355-6.55.232.7-6.334-1.513-12.743-4.941-18.118-3.244-5.129-7.553-9.454-11.925-13.685" transform="translate(22.9 0)" fill="#21232b"/>
            <path id="Trazado_875251" data-name="Trazado 875251" d="M92.148,70.662l2.1,10.1-12.727,29.9-9.639,30.027-9.854-30.707L49.286,80.069l2.223-10.6.618-.6C56.884,73.7,63.6,77.227,73.1,77.227c8.279,0,14.456-2.672,19.044-6.564" transform="translate(30.225 42.234)" fill="#ff9a55"/>
            <g id="Grupo_1100148" data-name="Grupo 1100148" transform="translate(90.863 63.623)" style="mix-blend-mode: soft-light;isolation: isolate">
              <g id="Grupo_1100147" data-name="Grupo 1100147">
                <g id="Grupo_1100146" data-name="Grupo 1100146" clip-path="url(#clip-path-9)">
                  <path id="Trazado_875252" data-name="Trazado 875252" d="M68.788,39.438l1.7,25.633c-4.7.789-16.153-.118-13.867-3.917S68.788,39.438,68.788,39.438" transform="translate(-56.323 -39.438)" fill="#21232b"/>
                </g>
              </g>
            </g>
            <g id="Grupo_1100151" data-name="Grupo 1100151" transform="translate(79.511 111.104)" style="mix-blend-mode: soft-light;isolation: isolate">
              <g id="Grupo_1100150" data-name="Grupo 1100150">
                <g id="Grupo_1100149" data-name="Grupo 1100149" clip-path="url(#clip-path-10)">
                  <path id="Trazado_875253" data-name="Trazado 875253" d="M70.845,93.307A88.415,88.415,0,0,0,93.629,77.779L92.15,70.662c-4.588,3.893-10.767,6.564-19.046,6.564-9.5,0-16.218-3.52-20.975-8.355l-.618.6-2.225,10.6L57.07,98.343a74.556,74.556,0,0,0,13.776-5.037" transform="translate(-49.286 -68.869)" fill="#21232b"/>
                </g>
              </g>
            </g>
            <g id="Grupo_1100154" data-name="Grupo 1100154" transform="translate(114.454 79.77)" style="mix-blend-mode: soft-light;isolation: isolate">
              <g id="Grupo_1100153" data-name="Grupo 1100153">
                <g id="Grupo_1100152" data-name="Grupo 1100152" clip-path="url(#clip-path-11)">
                  <path id="Trazado_875254" data-name="Trazado 875254" d="M70.946,57.413a7.967,7.967,0,1,0,7.968-7.966,7.967,7.967,0,0,0-7.968,7.966" transform="translate(-70.946 -49.447)" fill="#21232b"/>
                </g>
              </g>
            </g>
            <path id="Trazado_875255" data-name="Trazado 875255" d="M60.061,31.381A28.479,28.479,0,0,0,49.038,34.7c-4.027,2.191-.437,8.342,3.593,6.148A19.564,19.564,0,0,1,60.061,38.5a3.66,3.66,0,0,0,3.56-3.56c0-1.781-1.636-3.749-3.56-3.56" transform="translate(28.991 19.236)" fill="#21232b"/>
            <g id="Grupo_1100157" data-name="Grupo 1100157" transform="translate(80.076 59.335)" opacity="0.3" style="mix-blend-mode: soft-light;isolation: isolate">
              <g id="Grupo_1100156" data-name="Grupo 1100156">
                <g id="Grupo_1100155" data-name="Grupo 1100155" clip-path="url(#clip-path-12)">
                  <path id="Trazado_875256" data-name="Trazado 875256" d="M61.54,43.669c0,3.8-2.665,6.889-5.951,6.889s-5.951-3.085-5.951-6.889S52.3,36.78,55.588,36.78s5.951,3.085,5.951,6.889" transform="translate(-49.636 -36.78)" fill="#21232b"/>
                </g>
              </g>
            </g>
            <path id="Trazado_875257" data-name="Trazado 875257" d="M59.385,44.431c0,2.9-1.965,5.254-4.39,5.254S50.6,47.334,50.6,44.431,52.569,39.177,55,39.177s4.39,2.352,4.39,5.254" transform="translate(31.033 24.025)" fill="#21232b"/>
            <path id="Trazado_875258" data-name="Trazado 875258" d="M72.641,31.032A28.479,28.479,0,0,1,83.665,34.35c4.027,2.191.437,8.342-3.593,6.148a19.564,19.564,0,0,0-7.431-2.346,3.66,3.66,0,0,1-3.56-3.56c0-1.781,1.636-3.749,3.56-3.56" transform="translate(42.364 19.022)" fill="#21232b"/>
            <g id="Grupo_1100160" data-name="Grupo 1100160" transform="translate(112.079 58.772)" opacity="0.3" style="mix-blend-mode: soft-light;isolation: isolate">
              <g id="Grupo_1100159" data-name="Grupo 1100159">
                <g id="Grupo_1100158" data-name="Grupo 1100158" clip-path="url(#clip-path-12)">
                  <path id="Trazado_875259" data-name="Trazado 875259" d="M69.474,43.32c0,3.8,2.665,6.889,5.951,6.889s5.951-3.085,5.951-6.889-2.663-6.889-5.951-6.889-5.951,3.085-5.951,6.889" transform="translate(-69.474 -36.431)" fill="#21232b"/>
                </g>
              </g>
            </g>
            <path id="Trazado_875260" data-name="Trazado 875260" d="M70.442,44.082c0,2.9,1.965,5.254,4.39,5.254s4.391-2.352,4.391-5.254-1.965-5.254-4.391-5.254-4.39,2.352-4.39,5.254" transform="translate(43.198 23.811)" fill="#21232b"/>
            <g id="Grupo_1100163" data-name="Grupo 1100163" transform="translate(100.599 93.151)" style="mix-blend-mode: soft-light;isolation: isolate">
              <g id="Grupo_1100162" data-name="Grupo 1100162">
                <g id="Grupo_1100161" data-name="Grupo 1100161" clip-path="url(#clip-path-14)">
                  <path id="Trazado_875261" data-name="Trazado 875261" d="M62.761,68.03c1.279,4.565,5.229,7.45,8.82,6.443s5.464-5.524,4.183-10.089-5.227-7.448-8.818-6.442-5.464,5.522-4.185,10.088" transform="translate(-62.358 -57.741)" fill="#21232b"/>
                </g>
              </g>
            </g>
            <path id="Trazado_875262" data-name="Trazado 875262" d="M61.51,65.85a8.552,8.552,0,1,0,16.421-4.785c-1.321-4.536-4.541-1.9-9.076-.576s-8.666.826-7.345,5.361" transform="translate(37.568 35.886)" fill="#fff"/>
            <path id="Trazado_875263" data-name="Trazado 875263" d="M184.374,253.026c-.016.526-.016,1.05-.031,1.591-.6,29.873-5.375,69.539-19.895,117.993H102.31V310.918l-5.638,3.43L90.539,372.61h-61.6A508.392,508.392,0,0,1,15.148,315.4a393.459,393.459,0,0,1-6.334-63.051c6.456,5.329,68.611,8.294,118.085,6.872,25.115-.726,46.941-2.61,56.58-5.869Z" transform="translate(5.405 154.751)" fill="#2c3344"/>
            <g id="Grupo_1100166" data-name="Grupo 1100166" transform="translate(14.22 407.098)" style="mix-blend-mode: soft-light;isolation: isolate">
              <g id="Grupo_1100165" data-name="Grupo 1100165">
                <g id="Grupo_1100164" data-name="Grupo 1100164" clip-path="url(#clip-path-15)">
                  <path id="Trazado_875264" data-name="Trazado 875264" d="M183.478,253.35,15.147,315.4a393.437,393.437,0,0,1-6.332-63.051c6.456,5.329,68.61,8.294,118.085,6.872,25.115-.726,46.941-2.61,56.578-5.869" transform="translate(-8.814 -252.347)" fill="#2c3344"/>
                </g>
              </g>
            </g>
            <path id="Trazado_875265" data-name="Trazado 875265" d="M86.734,280.841,63.176,295.747c-.837.531-.063,1.868.781,1.334l23.557-14.906c.839-.531.065-1.868-.779-1.334" transform="translate(38.522 172.149)" fill="#21232b"/>
            <path id="Trazado_875266" data-name="Trazado 875266" d="M184.378,358.156c-9.839,8.124-59.869,9.407-86.452-.679-26.567,10.086-79.269,8.124-89.108,0-.665-41.457,31.9-104.724,31.9-104.724L48.776,231.7l-9.762-32.93.324-13.438s12.882-26.2,5.716-50.385a61.115,61.115,0,0,0-20.913-31.263c16.294-10.673,36.822-22.2,37.826-22.768C56.81,86.769,49.5,97.906,47.5,115.622l18.781,21.471-6.471,15.6L92.566,206l4.248,6.9,8.65,14.072-4.619-20.651,32.546-52.934L126.919,137.8,145.7,116.318c-2.023-17.763-9.344-28.9-14.5-34.738.787.447,21.471,12.048,37.858,22.8a61.061,61.061,0,0,0-20.914,31.263c-7.166,24.187,5.716,50.369,5.716,50.369l.324,13.438-9.762,32.946,8.063,21.038v.015c.432,1.05,32.53,64.039,31.9,104.709" transform="translate(5.401 49.621)" fill="#ed4f4f"/>
            <path id="Trazado_875267" data-name="Trazado 875267" d="M96.66,342.41l-20.435-9.191-3.414-1.544,40.422-87.148v-.015l2.859-6.163-1.158-47.821-.324-13.438s-12.883-26.181-5.716-50.369a61.053,61.053,0,0,1,20.914-31.263c9.947,6.518,18.335,12.727,19.725,15.941,3.722,8.587,13.175,96.753,8.587,129.252-1.652,11.77-9.886,28.484-19.709,45.026v.015c-17.3,29.132-39.542,57.722-39.542,57.722Z" transform="translate(44.651 58.54)" fill="#fff"/>
            <path id="Trazado_875268" data-name="Trazado 875268" d="M103.687,117.363,84.9,138.848,77.32,120.56c1.56-4.835,9.515-30.166,8.481-41.333v-.016a41.579,41.579,0,0,1,3.367,3.414h.016c5.158,5.838,12.48,16.975,14.5,34.738" transform="translate(47.416 48.576)" fill="#c63030"/>
            <path id="Trazado_875269" data-name="Trazado 875269" d="M92.657,269.546q-1.992,3.383-4.217,6.611c-2.8-6.811-8.542-12.341-14.056-17.439a30.639,30.639,0,0,0,7.894-1.791,2.733,2.733,0,0,0,1.652-1.205c.448-.989-.339-2.086-1.173-2.8-3.012-2.533-7.013-3.475-10.859-4.341-2.347-.524-4.7-1.065-7.043-1.591l.015-.494q8.111-1.832,16.234-3.66l20.435,9.191a163.335,163.335,0,0,1-8.881,17.515" transform="translate(39.772 148.921)" fill="#ff9a55"/>
            <path id="Trazado_875270" data-name="Trazado 875270" d="M93.518,127.657l6.472,15.586L67.444,196.176l-4.17-18.706L81.1,97.646l.263-.186c3.893,5.051,4.309,12.712,4.309,12.712s.094-.279.263-.8Z" transform="translate(38.803 59.767)" fill="#c63030"/>
            <path id="Trazado_875271" data-name="Trazado 875271" d="M89.9,85.085c.247.216.526.448.834.726v.016c1.036,11.167-6.919,36.5-8.479,41.333-.171.526-.263.8-.263.8s-.418-7.661-4.309-12.712a10.416,10.416,0,0,0-8.42-4.325L82,81.023l-2.1-10.1a28.163,28.163,0,0,0,2.58-2.472,27.153,27.153,0,0,1,8.171,16.575c-.248.031-.5.045-.742.061" transform="translate(42.478 41.976)" fill="#fff"/>
            <path id="Trazado_875272" data-name="Trazado 875272" d="M80.8,247.258c2.347.526,4.7,1.066,7.043,1.591,3.846.865,7.847,1.807,10.859,4.341.834.71,1.621,1.807,1.174,2.8a2.728,2.728,0,0,1-1.654,1.2,30.641,30.641,0,0,1-7.894,1.792c5.516,5.1,11.26,10.626,14.056,17.439a23.033,23.033,0,0,1,1.313,4.232,7.127,7.127,0,0,1-.092,4.062,3.154,3.154,0,0,1-3.183,2.1,4.384,4.384,0,0,1-6.95,3.785,5.646,5.646,0,0,1-9.684,4.123c-1.545,2.72-5.051,3.862-8.157,3.414-3.1-.432-5.869-2.162-8.387-4.03-8.912-6.627-15.832-15.385-21.516-24.992a168.7,168.7,0,0,1-8.866-17.5l20.42-9.205q10.193,2.292,20.419,4.6c.355.077.726.169,1.1.247" transform="translate(23.83 148.657)" fill="#ff9a55"/>
            <path id="Trazado_875273" data-name="Trazado 875273" d="M70.24,125.065l9.639-30.027A10.411,10.411,0,0,1,88.3,99.362l-.263.186L70.21,179.373l-17.98-80.5-.263-.2a10.4,10.4,0,0,1,8.418-4.309Z" transform="translate(31.869 57.865)" fill="#fff"/>
            <path id="Trazado_875274" data-name="Trazado 875274" d="M46.892,127.211l7.569-18.257.261.787s.432-7.676,4.325-12.712l.263.2,17.98,80.5,4.17,18.706,4.619,20.651-8.65-14.071-4.248-6.9-32.762-53.3Z" transform="translate(24.787 59.503)" fill="#c63030"/>
            <path id="Trazado_875275" data-name="Trazado 875275" d="M43.911,85.767a27.5,27.5,0,0,1,6.766-15.816,19.15,19.15,0,0,1,2.7-2.565,27.568,27.568,0,0,0,2.1,2.394l-.618.6-2.223,10.6L65.382,110.9a10.4,10.4,0,0,0-8.42,4.309c-3.891,5.035-4.324,12.712-4.324,12.712s-.094-.279-.263-.787c-1.545-4.79-9.5-30.166-8.465-41.349Z" transform="translate(26.872 41.324)" fill="#fff"/>
            <path id="Trazado_875276" data-name="Trazado 875276" d="M83.11,332.789l-20.42,9.205-2.209.989s-22.258-28.606-39.557-57.737C11.115,268.7,2.883,251.975,1.229,240.221c-4.586-32.5,4.866-120.664,8.589-129.253,1.391-3.212,9.778-9.421,19.725-15.939a61.117,61.117,0,0,1,20.913,31.262c7.168,24.189-5.714,50.385-5.714,50.385l-.324,13.438-1.158,47.822,2.857,6.163,40.407,87.148Z" transform="translate(0 58.276)" fill="#fff"/>
            <path id="Trazado_875277" data-name="Trazado 875277" d="M47.278,82.224a45.462,45.462,0,0,1,3.4-3.444v.015c-1.034,11.183,6.921,36.561,8.465,41.349L51.572,138.4,32.789,116.932C34.8,99.215,42.1,88.079,47.261,82.224Z" transform="translate(20.108 48.312)" fill="#c63030"/>
            <path id="Trazado_875278" data-name="Trazado 875278" d="M69.175,173.157q0,22.072-.292,44.142-.286,21.975-.858,43.942-.322,12.431-.736,24.857c-.034.994,1.512.992,1.544,0q.733-22.06,1.182-44.127.448-21.972.61-43.946.092-12.433.094-24.867a.772.772,0,0,0-1.544,0" transform="translate(41.265 105.73)" fill="#21232b"/>
            <path id="Trazado_875279" data-name="Trazado 875279" d="M27.531,132.966q-.06,9.875-.118,19.751a.772.772,0,0,0,1.544,0q.058-9.876.118-19.751a.772.772,0,0,0-1.544,0" transform="translate(16.811 81.083)" fill="#21232b"/>
            <path id="Trazado_875280" data-name="Trazado 875280" d="M99.633,129.239c.081-.991-1.465-.986-1.544,0a161.748,161.748,0,0,0,0,26.046c.079.984,1.625.992,1.545,0a161.935,161.935,0,0,1,0-26.046" transform="translate(59.83 78.801)" fill="#21232b"/>
            <path id="Trazado_875281" data-name="Trazado 875281" d="M71.6,278.225q-4.162-4.852-8.326-9.7c-.649-.755-1.736.342-1.092,1.092q4.162,4.852,8.326,9.7c.649.755,1.736-.34,1.092-1.092" transform="translate(38.013 164.515)" fill="#21232b"/>
            <path id="Trazado_875282" data-name="Trazado 875282" d="M79.474,277.688A101.388,101.388,0,0,0,65.9,262.844c-.737-.661-1.834.428-1.092,1.092A99.67,99.67,0,0,1,78.14,278.467c.589.787,1.931.018,1.334-.779" transform="translate(39.59 161.063)" fill="#21232b"/>
            <path id="Trazado_875283" data-name="Trazado 875283" d="M84.277,275.312a80.708,80.708,0,0,0-14.669-17.789c-.736-.666-1.831.423-1.092,1.092a79.195,79.195,0,0,1,14.427,17.476c.516.849,1.852.073,1.334-.779" transform="translate(41.866 157.798)" fill="#21232b"/>
            <path id="Trazado_875284" data-name="Trazado 875284" d="M87.12,273.524a56.838,56.838,0,0,0-12.261-15c.9-.09,1.807-.161,2.707-.29a26.5,26.5,0,0,0,4.367-.828c2.394-.778,2.676-3.454.79-5.006a14.13,14.13,0,0,0-3.581-1.765q-2.265-.953-4.53-1.908l-9.06-3.815c-.915-.386-1.315,1.108-.411,1.489q7.143,3.008,14.287,6.017c.945.4,2.3.8,2.834,1.762.692,1.255-.513,1.715-1.512,1.933A55.188,55.188,0,0,1,73,257.184c-.6.042-1.11.858-.545,1.318a55.653,55.653,0,0,1,13.327,15.8.773.773,0,0,0,1.334-.779" transform="translate(39.636 150.155)" fill="#21232b"/>
            <path id="Trazado_875285" data-name="Trazado 875285" d="M72.96,185.069q-4.757-18.752-8.486-37.744c-.192-.974-1.681-.561-1.489.411q3.727,18.984,8.486,37.744a.773.773,0,0,0,1.489-.411" transform="translate(38.615 90.006)" fill="#21232b"/>
            <path id="Trazado_875286" data-name="Trazado 875286" d="M61.841,94.342a13.063,13.063,0,0,0-9.229,5.68c-2.52,3.507-3.451,7.863-4.011,12.064-.131.982,1.415.973,1.544,0,.5-3.775,1.368-7.652,3.51-10.864a11.541,11.541,0,0,1,8.186-5.337c.981-.094.991-1.639,0-1.544" transform="translate(29.8 57.852)" fill="#21232b"/>
            <path id="Trazado_875287" data-name="Trazado 875287" d="M79.208,100.352c-2.315-2.936-6.016-6.213-10.055-5.209a.773.773,0,0,0,.41,1.489c3.5-.868,6.826,2.509,8.726,5.04a19.538,19.538,0,0,1,3.783,9.365c.116.974,1.662.986,1.544,0a21.246,21.246,0,0,0-4.407-10.685" transform="translate(42.07 58.233)" fill="#21232b"/>
            <path id="Trazado_875288" data-name="Trazado 875288" d="M67.328,186.624a4.67,4.67,0,1,1-4.67-4.67,4.67,4.67,0,0,1,4.67,4.67" transform="translate(35.562 111.583)" fill="#ffa840"/>
            <path id="Trazado_875289" data-name="Trazado 875289" d="M67.328,205.881a4.67,4.67,0,1,1-4.67-4.67,4.67,4.67,0,0,1,4.67,4.67" transform="translate(35.562 123.392)" fill="#ffa840"/>
            <path id="Trazado_875290" data-name="Trazado 875290" d="M67.328,226.61a4.67,4.67,0,1,1-4.67-4.67,4.67,4.67,0,0,1,4.67,4.67" transform="translate(35.562 136.104)" fill="#ffa840"/>
            <rect id="Rectángulo_401616" data-name="Rectángulo 401616" width="24.905" height="10.902" transform="translate(129.61 223.924)" fill="#ffa840"/>
          </g>
        </g>
      </g>
    </g>
  </g>
</svg>
