<svg xmlns="http://www.w3.org/2000/svg" xmlns:xlink="http://www.w3.org/1999/xlink" width="306.247" height="384.838" viewBox="0 0 306.247 384.838">
  <defs>
    <clipPath id="clip-path">
      <rect id="Rect치ngulo_401208" data-name="Rect치ngulo 401208" width="251.137" height="374.622" fill="#d59cff"/>
    </clipPath>
    <clipPath id="clip-path-2">
      <path id="Trazado_873240" data-name="Trazado 873240" d="M115,0h18.189c49.222,0,83.457,43.827,108.838,90.743,7.188,13.286,38.841,21.717,38.841,36.008L261.4,197.757l-13.213,10.021v41.045a115,115,0,0,1-115,115H115A115.084,115.084,0,0,1,8.3,291.8c-2.694-6.658-13.4-12.739-14.861-20.277C-7.89,264.669,0,256.368,0,248.822V115A115,115,0,0,1,115,0Z" transform="translate(0 0)" fill="none" stroke="#707070" stroke-width="1"/>
    </clipPath>
    <clipPath id="clip-path-3">
      <rect id="Rect치ngulo_401239" data-name="Rect치ngulo 401239" width="282.075" height="609.357" fill="none"/>
    </clipPath>
  </defs>
  <g id="Grupo_1099362" data-name="Grupo 1099362" transform="translate(0 -5.905)">
    <path id="Trazado_873000" data-name="Trazado 873000" d="M-11569.668-12617.027l28.1-19.021,15.725-19.709,22.725-16.99,12.435-13.494,11.479-39.172v-54.412l-11.479-14.91-5.509-20.027s-11.625-32.524-13.533-36.1-7.18-17.575-7.18-17.575-9.525-7.3-13.269-7.6-11.394,0-11.394,0l-16.357-15.616-11.745-5.142-31.392-15.735-19.885,4.77s-14.061,0-19.034,0-26.5,0-26.5,0l-21.211,10.966-31.99,20.758-20.93,14.922s-7.622,13.224-8.814,19.087,0,16.9,0,16.9-8.885,4.478-10.956,10.362-15.132,49.814-15.132,49.814.155,11.439,0,18.047,0,27.063,0,27.063,8.765,37.4,15.132,42.737,19.771,21.344,19.771,21.344l13.611,13.342s16.611,13.379,20.984,15.938,26.864,16.883,26.864,16.883,15.255,5.646,18.813,5.646,20.119,3.24,20.358,0,10.481-13.077,10.481-13.077-.9-.136,8.553,0,23.428,10.391,27.706,7.432,14.748,0,14.748,0Z" transform="translate(11775.582 12982.551)" fill="#c8d5c6"/>
    <ellipse id="Elipse_11490" data-name="Elipse 11490" cx="140.095" cy="143.5" rx="140.095" ry="143.5" transform="translate(9.379 81.905)" fill="#769671"/>
    <g id="Grupo_1099075" data-name="Grupo 1099075" transform="translate(31.183 16.122)">
      <g id="Grupo_1099075-2" data-name="Grupo 1099075" clip-path="url(#clip-path)">
        <path id="Trazado_873148" data-name="Trazado 873148" d="M213.209,367.43a67.928,67.928,0,0,0,1.536-11.194q.064-1.227.084-2.456c.008-.491.005-.983.008-1.474,0-.319.077-1.206.006.192a37.411,37.411,0,0,0-.4-5.886,79.922,79.922,0,0,0-1.995-10.632c-.4-1.618.407,1.28-.085-.313-.1-.313-.189-.629-.286-.942q-.437-1.41-.935-2.8-.908-2.549-2.009-5.026t-2.383-4.856c-.158-.293-1.467-2.56-.621-1.148-.506-.843-1.023-1.679-1.562-2.5a66.87,66.87,0,0,0-6.956-8.9q-.861-.925-1.755-1.817c1.131,1.13-.794-.732-1.038-.956q-2.263-2.084-4.679-4c-2.963-2.353-6.065-4.526-9.245-6.575q-4.814-3.1-9.824-5.9c1.464.819-.085-.045-.322-.178q-.571-.32-1.143-.638-1.258-.7-2.52-1.4-2.523-1.388-5.049-2.77c-7.149-3.926-14.321-7.874-21.054-12.491-12.573-8.622-22.9-19.909-28.444-34.26-4.989-12.911-6.527-26.759-8.161-40.4-.816-6.814-1.666-13.636-3.041-20.363q-.453-2.21-.985-4.4c-.213-.872-.445-1.739-.674-2.607-.089-.339-.209-1.153.086.29-.118-.576-.339-1.152-.513-1.713a73.635,73.635,0,0,0-3.492-9.146c-.69-1.489-1.455-2.933-2.24-4.373-.545-1,.084.1.158.252a13.393,13.393,0,0,0-.705-1.154q-.854-1.362-1.783-2.677c-1.123-1.593-2.325-3.13-3.59-4.612q-.858-1.007-1.756-1.981-.538-.585-1.088-1.158c-.125-.13-1.5-1.507-.9-.92.708.69-.545-.518-.55-.521q-.576-.549-1.164-1.087-.98-.9-1.985-1.772-2.422-2.106-4.962-4.074c-3.127-2.438-6.354-4.746-9.612-7.009-6.559-4.554-13.254-8.922-19.6-13.776a118.786,118.786,0,0,1-17.358-16.19A118.25,118.25,0,0,1,.141,16.386,105.066,105.066,0,0,1,1.226,5.738C1.734,2.419,4.822-.491,8.344.069c3.333.53,6.213,3.559,5.669,7.117A104.894,104.894,0,0,0,12.9,18.321q-.109,2.429-.106,4.861c0,.485,0,.973.012,1.459-.053-1.673.008-.013.017.276q.048,1.459.136,2.914a110.853,110.853,0,0,0,3.354,21.112c.123.472.252.941.377,1.412.406,1.542-.274-.9.013.058.256.855.506,1.712.774,2.564q.807,2.555,1.732,5.07,1.934,5.257,4.382,10.3,1.061,2.19,2.219,4.333.636,1.178,1.3,2.341c.181.317.741,1.322.022.055.32.563.666,1.114,1.006,1.666q2.8,4.557,6.043,8.827a106.363,106.363,0,0,0,6.884,8.182q.912.979,1.848,1.934c.262.268,1.069,1.1.018.032.341.346.7.681,1.046,1.018q1.932,1.854,3.961,3.6a215.992,215.992,0,0,0,19.6,14.494c13.23,9.032,27.094,18.49,35.713,32.359,15.03,24.186,11.9,53.435,19,80.022.4,1.5-.408-1.348.042.135.086.285.17.569.257.854q.391,1.275.824,2.539.792,2.309,1.733,4.564t2.056,4.432q.507.993,1.051,1.967c.189.338.707,1.653.063.131a9.88,9.88,0,0,0,.829,1.339,60.219,60.219,0,0,0,6.965,8.9q.344.365.694.725c.2.2,1.289,1.466.235.244a21.015,21.015,0,0,0,1.829,1.717c1.49,1.352,3.035,2.643,4.62,3.883,2.938,2.3,6.015,4.419,9.161,6.421q2.392,1.522,4.833,2.961,1.114.66,2.236,1.308.675.39,1.352.775c1.531.877-1.232-.687.31.175,7.194,4.026,14.488,7.876,21.584,12.075,13.16,7.788,25.4,17.354,33.36,30.644A78.822,78.822,0,0,1,227.5,358.175a67.922,67.922,0,0,1-1.509,10.7c-.726,3.272-3.439,6.254-7.117,5.669-3.142-.5-6.449-3.6-5.669-7.118" transform="translate(23.498 0)" fill="#d59cff"/>
        <path id="Trazado_873149" data-name="Trazado 873149" d="M184.884,365.02a25.008,25.008,0,0,0,.128-2.776q.014.835.029,1.668a23.384,23.384,0,0,0-.246-2.958q-.109-.726-.266-1.443c-.127-.585-.716-2.279.021-.09a32.9,32.9,0,0,0-2.287-5.42c-.133-.242-.587-1.017.013,0s.141.24,0,.005q-.434-.7-.9-1.387c-.578-.848-1.191-1.672-1.831-2.474a54.967,54.967,0,0,0-4.245-4.691l1.184,1.174A114.7,114.7,0,0,0,162.571,335.3c-6.637-4.752-13.215-9.572-19.644-14.6a452.689,452.689,0,0,1-37.255-32.325C94.644,277.611,84.5,265.641,80.2,250.537a129.742,129.742,0,0,1-3.906-22.327A196.893,196.893,0,0,0,73.4,206.879q-.255-1.172-.542-2.335-.162-.651-.334-1.3c-.058-.216-.117-.431-.176-.648-.232-.856.19.485.174.615a4.691,4.691,0,0,0-.384-1.285q-.174-.561-.354-1.119-.416-1.276-.872-2.537a80.822,80.822,0,0,0-4.09-9.367q-.536-1.045-1.1-2.072-.324-.588-.657-1.17a3.653,3.653,0,0,0-.336-.581c.1.114.773,1.3.321.552-.9-1.482-1.83-2.943-2.815-4.371a82.036,82.036,0,0,0-6.318-8.038q-1.675-1.877-3.465-3.646l1.184,1.174a80.746,80.746,0,0,0-10.288-8.583,6.488,6.488,0,0,1-1.221-9.017,6.571,6.571,0,0,1,9.017-1.221,87.036,87.036,0,0,1,32.976,45.425c2.874,9.532,3.892,19.282,4.921,29.144.493,4.722,1.038,9.445,1.932,14.11q.328,1.715.726,3.417.2.849.418,1.694.089.337.179.675c.318,1.208-.407-1.353-.071-.239a61.965,61.965,0,0,0,2.505,6.95q.783,1.8,1.69,3.54.493.948,1.017,1.878c.117.206.239.41.353.618-.915-1.672-.344-.583-.107-.194a76.39,76.39,0,0,0,4.646,6.76,123.194,123.194,0,0,0,11.04,12.335l-1.184-1.174A442.878,442.878,0,0,0,154.3,313.233c6.7,5.146,13.674,9.918,20.407,15.018,5.685,4.306,11.262,9.084,15.6,14.783,5.14,6.751,8.23,14.868,7.36,23.435a6.434,6.434,0,1,1-12.786-1.449" transform="translate(18.309 -21.447)" fill="#d59cff"/>
        <path id="Trazado_873150" data-name="Trazado 873150" d="M272.3,120.379a175.131,175.131,0,0,1-14.245-16.746c-4.3-5.649-8.527-11.383-12.517-17.257-8.007-11.788-15.091-24.99-15.916-39.508-.465-8.191.682-16.61,4.615-23.912a7,7,0,0,1,3.444-3.519,6.433,6.433,0,0,1,8.441,3.389,6.217,6.217,0,0,1,.054,4.923,35.425,35.425,0,0,0-3.079,7.885q.212-.836.424-1.672a42.241,42.241,0,0,0-1.208,10.9l-.029-1.668a50.769,50.769,0,0,0,.788,7.851q.319,1.77.756,3.516c.087.349.181.7.271,1.044.261,1.009-.139-.469-.158-.546.164.692.415,1.375.64,2.05a68.951,68.951,0,0,0,3.065,7.6c1.117,2.374,2.522,4.6,3.663,6.949-.9-1.852.147.238.414.677q.538.881,1.089,1.755,1.1,1.748,2.259,3.466c1.467,2.189,2.985,4.345,4.522,6.486,3.3,4.587,6.632,9.148,10.09,13.613a166.919,166.919,0,0,0,12.782,14.84,6.44,6.44,0,0,1,1.311,4.669,6.575,6.575,0,0,1-2.449,4.359,6.5,6.5,0,0,1-4.669,1.311,7.472,7.472,0,0,1-4.358-2.449" transform="translate(-229.523 -2.694)" fill="#d59cff"/>
        <path id="Trazado_873151" data-name="Trazado 873151" d="M176.853,368.27c-.3-.642-.614-1.277-.945-1.9-.166-.313-.334-.624-.507-.932-.115-.2-.231-.41-.349-.613.157.27.316.54.474.812a26.568,26.568,0,0,0-2.444-3.664,56.337,56.337,0,0,0-5.677-6.533l1.184,1.174a87.077,87.077,0,0,0-18.207-13.332l1.5.851c-7.132-4.032-14.579-7.453-21.892-11.135-3.912-1.968-7.784-4.025-11.556-6.253a46.16,46.16,0,0,1-8.577-6.258,34.463,34.463,0,0,1-7.763-10.668,70.558,70.558,0,0,1-3.658-11.227q-3.183-11.881-6.338-23.77-3.624-13.594-7.25-27.187a6.473,6.473,0,0,1,1.246-4.842,6.566,6.566,0,0,1,4.176-2.466,6.49,6.49,0,0,1,4.841,1.246,7.488,7.488,0,0,1,2.466,4.175q3.79,14.212,7.578,28.423,1.869,7,3.736,14.005.934,3.5,1.866,7c.261.978.52,1.955.788,2.931.064.234.136.467.194.7-.43-1.729-.22-.78-.1-.357q.232.787.479,1.568a38.011,38.011,0,0,0,2.6,6.359c.087.163.693,1.22.115.234-.553-.943.017.009.152.215q.5.763,1.05,1.488a27.977,27.977,0,0,0,2.4,2.722l-1.184-1.174a49.791,49.791,0,0,0,10.4,7.468l-1.5-.85c9.354,5.293,19.263,9.515,28.682,14.686,9.064,4.975,17.516,10.658,24.574,18.29a54.59,54.59,0,0,1,9.266,13.759,6.486,6.486,0,0,1-3.389,8.442,6.571,6.571,0,0,1-8.443-3.389" transform="translate(-10.748 -34.202)" fill="#d59cff"/>
        <path id="Trazado_873152" data-name="Trazado 873152" d="M229.5,208.214c-1.256-2.688-2.631-5.311-4.1-7.889-.674-1.182.785,1.305.083.14-.19-.317-.381-.636-.575-.952q-.579-.948-1.179-1.884-1.2-1.872-2.481-3.69A103.014,103.014,0,0,0,209.8,180.358l1.184,1.175q-.264-.262-.527-.521a7.1,7.1,0,0,1-2.467-4.175,6.432,6.432,0,0,1,5.421-7.307c1.594-.167,3.64.063,4.841,1.244a111.7,111.7,0,0,1,23.084,32.388,6.488,6.488,0,0,1-3.389,8.442,6.568,6.568,0,0,1-8.442-3.389" transform="translate(-169.042 -24.125)" fill="#d59cff"/>
      </g>
    </g>
    <g id="Enmascarar_grupo_1098681" data-name="Enmascarar grupo 1098681" transform="translate(25.379 5.905)" clip-path="url(#clip-path-2)">
      <g id="Grupo_1099368" data-name="Grupo 1099368" transform="translate(0 4.511)">
        <g id="Grupo_1099368-2" data-name="Grupo 1099368" transform="translate(0)" clip-path="url(#clip-path-3)">
          <path id="Trazado_873184" data-name="Trazado 873184" d="M146.446,95.974,80.8,96.88,72.014,270.288c38.3,2.664,69.372,3.315,89.352.871l-4.774-94.47Z" transform="translate(10.631 50.728)" fill="#f4fdff"/>
          <path id="Trazado_873185" data-name="Trazado 873185" d="M69.195,372.251s-10.278,8.27-12.935,34.995a651.883,651.883,0,0,0,85.945,2.556s-.816-23.288-43.284-36.167Z" transform="translate(53.873 196.758)" fill="#396d97"/>
          <path id="Trazado_873186" data-name="Trazado 873186" d="M57.529,389.311c-.514,2.715-.946,5.68-1.269,8.918a651.886,651.886,0,0,0,85.945,2.556,21.876,21.876,0,0,0-2.588-8.227c-16.829,1.347-57.761,3.649-82.089-3.247" transform="translate(53.873 205.776)" fill="#e8f4f9"/>
          <path id="Trazado_873187" data-name="Trazado 873187" d="M123.673,279.338,103.806,424.92a75.817,75.817,0,0,1-34.015-.053l7.941-145.528Z" transform="translate(51.722 147.648)" fill="#fba598"/>
          <path id="Trazado_873188" data-name="Trazado 873188" d="M69.791,308.561a198.347,198.347,0,0,0,43.578-.22l3.957-29H71.385Z" transform="translate(58.069 147.648)" fill="#ef8b83"/>
          <path id="Trazado_873189" data-name="Trazado 873189" d="M179.292,373.806s8.571,8.27,10.784,34.993a453.845,453.845,0,0,1-71.658,2.556s.679-23.286,36.089-36.167Z" transform="translate(-89.01 197.58)" fill="#396d97"/>
          <path id="Trazado_873190" data-name="Trazado 873190" d="M189.018,390.866c.43,2.715.79,5.68,1.058,8.916a453.847,453.847,0,0,1-71.658,2.556,25.3,25.3,0,0,1,2.157-8.227c14.032,1.348,48.161,3.65,68.443-3.245" transform="translate(-89.01 206.598)" fill="#e8f4f9"/>
          <path id="Trazado_873191" data-name="Trazado 873191" d="M161.926,282.217,142.36,429.842c-8.244,2.192-22.8,2.151-31.861-3.661l2.961-145.288Z" transform="translate(-48.756 148.47)" fill="#fba598"/>
          <path id="Trazado_873192" data-name="Trazado 873192" d="M110.5,294.945a364.022,364.022,0,0,0,45.674,10.509l3.08-23.237-48.466-1.324Z" transform="translate(-46.082 148.47)" fill="#ef8b83"/>
          <path id="Trazado_873193" data-name="Trazado 873193" d="M196.364,203.1c-22.719,6.831-71.908,5.882-130.429-1.009l-5.9,127.279s57.344,9.992,72.518,7.138l1.295-4.029s31.938,5.784,54.475,3.546c0,0,13.162-106.735,8.037-132.925" transform="translate(-7.247 106.82)" fill="#7299e0"/>
          <path id="Trazado_873194" data-name="Trazado 873194" d="M87.393,317.539c3.453-29.668,11.84-57.158,27.129-82.848l-28.494,5.232-8.549,75.343,0-.014s3.782,1.116,9.91,2.287" transform="translate(49.121 124.049)" fill="#5e7ccc"/>
          <path id="Trazado_873195" data-name="Trazado 873195" d="M43.864,153.483l19.391,48.353L82.7,176.466,71.649,138.605Z" transform="translate(132.326 73.262)" fill="#ef8b83"/>
          <path id="Trazado_873196" data-name="Trazado 873196" d="M44.148,89.029s15.2,4.731,27.16,23.289c9.766,15.16,23.789,61.725,23.789,61.725L57.078,196.982Z" transform="translate(119.496 47.058)" fill="#fde677"/>
          <path id="Trazado_873197" data-name="Trazado 873197" d="M57.965,154.514S32.682,146.687,0,158.891c0,0,7.285-63.954,16.406-89.578,0,0,21.892-6.264,35.533-2.964C63.318,69.1,82.891,80.209,82.891,80.209S60.67,122.481,57.965,154.514" transform="translate(199.184 34.562)" fill="#dcf4ec"/>
          <path id="Trazado_873198" data-name="Trazado 873198" d="M4.038,150.277a80.2,80.2,0,0,1,8.652-2.858A92.181,92.181,0,0,1,25.025,144.9h.015c8.652-1.116,18.648-.963,27.3,2.95,0,0,.52-10.731,7.2-30.6v-.015q1.192-3.623,2.706-7.658c.535-1.437,1.116-2.935,1.712-4.463.856-2.186,1.788-4.463,2.782-6.8,2.262-5.335,4.876-11.067,7.9-17.181,0,0-18.908-8.957-28.615-11.4a30.3,30.3,0,0,0-8.208-.642,74.3,74.3,0,0,0-9.217.978c-1.865.306-3.607.642-5.105.948-3.088.657-5.136,1.223-5.136,1.223S17.8,74.8,16.893,79.061c-2.094,9.829-6.007,28.645-9,45.475-.52,2.889-1.009,5.717-1.467,8.422-1.116,6.772-1.972,12.825-2.385,17.319" transform="translate(201.26 36.496)" fill="#69a549"/>
          <path id="Trazado_873199" data-name="Trazado 873199" d="M19.68,147.07c-1.3-13.558,25.7-14.537,28.615-25.619,2.125-8.025-2.782-16.539-6.145-21.155,5.839,2.109,13.268,2.767,18.251,3.286,3.348.336,6.374,2.767,8.835,5.64.535-1.437,1.116-2.935,1.712-4.463a15.5,15.5,0,0,0-6.038-3.134c-6.741-1.345-20.146-1.208-24.717-6.221-3.623-3.974-4.418-19.535-4.6-25.7-1.865.306-3.607.642-5.105.948.474,5.2,1.483,15.056,2.8,21.537A8.494,8.494,0,0,0,36,96.81a.056.056,0,0,0-.046-.015h-.015c0,.153,4.326,6.8,5.4,12.519,1.1,5.916.734,11.128-12.259,14.965-8.835,2.629-13.558,6.267-15.668,8.331-1.116,6.772-1.972,12.825-2.385,17.319a80.2,80.2,0,0,1,8.652-2.858" transform="translate(194.27 36.846)" fill="#78bcd1"/>
          <path id="Trazado_873200" data-name="Trazado 873200" d="M6.054,90.541c6.3,5.319,19.2.4,25.542,3.669a29.718,29.718,0,0,1,6.007,4.1c2.262-5.335,4.876-11.067,7.9-17.181,0,0-18.908-8.957-28.615-11.4a30.3,30.3,0,0,0-8.208-.642C6.039,74.736,1.331,86.567,6.054,90.541" transform="translate(230.396 36.496)" fill="#9bbc5b"/>
          <path id="Trazado_873201" data-name="Trazado 873201" d="M35.681,121.074c17.854-6.833,22.134-19.382,15.3-24.839-5.09-4.066-6.13-14.8-6.3-20.636-2.094,9.829-6.007,28.645-9,45.475" transform="translate(173.469 39.959)" fill="#9bbc5b"/>
          <path id="Trazado_873202" data-name="Trazado 873202" d="M13.918,131.261c8.652-1.116,18.648-.963,27.3,2.95,0,0,.52-10.731,7.2-30.6v-.015c-4-5.4-9.829-11.923-12-7.016-3.3,7.459,1.085,17.273-6.237,23.953-5.977,5.457-13.956,6.053-16.264,10.731" transform="translate(212.383 50.132)" fill="#9bbc5b"/>
          <path id="Trazado_873203" data-name="Trazado 873203" d="M52.615,169.2s11.064-26.495,10.859-31.887S56.508,116.153,52.155,114.3s-17.134,5.24-16.614,9.5c0,0-3.372.989-4.619,2.953a8.89,8.89,0,0,0-1.059,6.8,4.461,4.461,0,0,0-3.364,4.1c-.637,5.168,1.383,8.017,1.383,8.017s-2.641.2-2.709,4.575c-.075,4.861,6.613,7.033,6.613,7.033s-6.316,9.382,2.978,18.471c6.224,6.087,17.852-6.544,17.852-6.544" transform="translate(180.121 60.255)" fill="#fba598"/>
          <path id="Trazado_873204" data-name="Trazado 873204" d="M31.324,119.783s11.2,1.472,18.52,8.152a1.31,1.31,0,0,1-1.765,1.935c-6.752-6.162-17.092-7.49-17.092-7.49a1.309,1.309,0,1,1,.338-2.6" transform="translate(186.185 63.307)" fill="#dd5f5f"/>
          <path id="Trazado_873205" data-name="Trazado 873205" d="M34.205,126.5s11.489,1.753,19.433,7.521a1.31,1.31,0,1,1-1.538,2.12c-7.473-5.425-18.288-7.05-18.288-7.05a1.31,1.31,0,1,1,.393-2.591Z" transform="translate(177.915 66.855)" fill="#dd5f5f"/>
          <path id="Trazado_873206" data-name="Trazado 873206" d="M37.124,133.634A35.9,35.9,0,0,1,53.978,141.4a1.31,1.31,0,1,1-1.64,2.044,33.48,33.48,0,0,0-15.5-7.2,1.31,1.31,0,0,1,.289-2.6" transform="translate(173.085 70.63)" fill="#dd5f5f"/>
          <path id="Trazado_873207" data-name="Trazado 873207" d="M70.76,144.39s-6.136,39.484-10.682,49.276c-8.777,18.9-32.167,14.031-28.56-3.049,1.932-9.151,16.6-40.68,16.6-40.68Z" transform="translate(163.709 76.319)" fill="#fba598"/>
          <path id="Trazado_873208" data-name="Trazado 873208" d="M93.015,69.488s6.791,25.076-4.544,28.254v15.6s21.035,8.587,32.494,8.215,19.529-9.752,22.062-17.572l-6.2-13.117s-9.373-.677-7.646-13.548Z" transform="translate(3.815 36.729)" fill="#fba598"/>
          <path id="Trazado_873209" data-name="Trazado 873209" d="M135.977,90.672c-2.392-.622-7.968-3.173-6.6-13.352L93.211,69.488a67.764,67.764,0,0,1,1.924,11.923c9.855,6.133,26.964,14.474,40.842,9.262" transform="translate(3.619 36.729)" fill="#ef8b83"/>
          <path id="Trazado_873210" data-name="Trazado 873210" d="M88.258,50.493c-6.669,1.474-11.188,6.733-10.081,11.739s7.417,7.877,14.086,6.4S103.45,61.9,102.345,56.9s-7.418-7.875-14.087-6.4" transform="translate(60.32 26.485)" fill="#ef8b83"/>
          <path id="Trazado_873211" data-name="Trazado 873211" d="M116.528,18.828C96.148,20.946,81.49,40.941,85.313,70.982c3.624,28.477,23.227,38.327,42.54,38.861,12.152.336,31.3-9.836,29.13-48.39-2.059-36.656-18.7-44.886-40.455-42.626" transform="translate(-4.555 9.769)" fill="#fba598"/>
          <path id="Trazado_873212" data-name="Trazado 873212" d="M137.346,21q-1.635-.426-3.478-.717a85.859,85.859,0,0,0-23.684-.605C99.142,22.958,90.448,31.953,86.573,45.151c-.167,12.8.827,27.25.827,27.25A50.968,50.968,0,0,0,98.892,42.224s30.747,9.665,27.225-4.468c0,0,19.855.521,27.881,5.54C150.75,31.339,144.91,24.451,137.346,21" transform="translate(-4.226 10.107)" fill="#ef8b83"/>
          <path id="Trazado_873213" data-name="Trazado 873213" d="M76.731,80.751s-5.087-31.054-4.6-42.224c.624-14.367,10.845-14.521,10.845-14.521s.795-16.18,12.358-22.432,11.006,8.141,11.006,8.141,22.9-12.663,40.505-5.1C161.991,11.131,152.785,20,152.785,20s16.632,1.472,19,11.66c2.106,9.06-8.769,15.287-8.769,15.287s5.588,4.483,3.045,10.659S155.4,68.174,155.4,68.174a67.346,67.346,0,0,1-2.883,15.052c-.378-12.953-1.319-27.311-5.318-35.476-9.054-2.97-19.35-4.092-30.64-3.739,0,0,5.212,6.314,0,7.868s-24.089-4.364-24.089-4.364.33,19.8-7.3,33.754Z" transform="translate(-0.187 0)" fill="#282838"/>
          <path id="Trazado_873214" data-name="Trazado 873214" d="M151.7,58.076c.073-.156.142-.315.208-.474,2.544-6.175-3.045-10.659-3.045-10.659s10.876-6.227,8.769-15.287c-2.371-10.188-19-11.66-19-11.66s9.207-8.866-5.942-15.377c-17.6-7.566-40.505,5.1-40.505,5.1s.559-14.394-11.006-8.141A21.725,21.725,0,0,0,72.1,11.6c3.337-2.557,11.091-7.99,13.63-5.4,3.268,3.335,2.23,8.95,2.23,8.95s59.69-19.138,43.939,7.024c0,0,36.656,6.191,12.2,23.865,0,0,6.856,4.421,7.6,12.04" transform="translate(13.972 0)" fill="#36394d"/>
          <path id="Trazado_873215" data-name="Trazado 873215" d="M139.07,50.848c-6.518-2.039-13.054.278-14.584,5.171S127,66.54,133.523,68.581s13.052-.278,14.584-5.171-2.519-10.523-9.037-12.562" transform="translate(-56.146 26.485)" fill="#fba598"/>
          <path id="Trazado_873216" data-name="Trazado 873216" d="M124.371,45.31l.2-4.207s-9.9-4.011-14.676,5.807a18.418,18.418,0,0,1,14.48-1.6" transform="translate(-10.467 21.297)" fill="#282838"/>
          <path id="Trazado_873217" data-name="Trazado 873217" d="M87.026,45.276l1.116-4.752s10-2.614,13.415,6.449c-4.34-2.692-9.861-3.983-14.531-1.7" transform="translate(47.494 21.235)" fill="#282838"/>
          <path id="Trazado_873218" data-name="Trazado 873218" d="M96.714,46.225s-5.7,8.435,1.417,16.414a1.531,1.531,0,0,1,.39.963A5.783,5.783,0,0,1,95.7,68.78s4.48-.737,4.873-4.751a2.273,2.273,0,0,0-.792-2c-1.834-1.706-6.435-6.932-3.068-15.808" transform="translate(36.957 24.433)" fill="#dd5f5f"/>
          <path id="Trazado_873219" data-name="Trazado 873219" d="M93.84,49.553A2.476,2.476,0,1,0,95.9,51.994a2.276,2.276,0,0,0-2.061-2.441" transform="translate(45.885 26.192)" fill="#203a5a"/>
          <path id="Trazado_873220" data-name="Trazado 873220" d="M111.994,50.486a2.476,2.476,0,1,0,2.061,2.441,2.276,2.276,0,0,0-2.061-2.441" transform="translate(-0.021 26.685)" fill="#203a5a"/>
          <path id="Trazado_873221" data-name="Trazado 873221" d="M119.952,65.745,99.276,61.184s-3.971,13.219,8.2,15.072c10.136,1.544,12.479-10.51,12.479-10.51" transform="translate(11.32 32.34)" fill="#fff"/>
          <path id="Trazado_873222" data-name="Trazado 873222" d="M56.568,81.3s19.92,73.752,21.152,213.626l39.306-3.815s-12.238-183-25.6-193.976C81.739,89.176,56.568,81.3,56.568,81.3" transform="translate(78.582 42.972)" fill="#ffd568"/>
          <path id="Trazado_873223" data-name="Trazado 873223" d="M83.294,136.484c-3.325-25.264-6.683-43.054-9.978-55.949,0,0,18.71,3.935,22.176,8.8s13.191,30.8,13.191,30.8a73.236,73.236,0,0,0-25.389,16.35" transform="translate(61.323 42.568)" fill="#fce68f"/>
          <path id="Trazado_873224" data-name="Trazado 873224" d="M68.685,126.559H91.427l.512,7.886H69.2Z" transform="translate(85.147 66.895)" fill="#e19c4c"/>
          <path id="Trazado_873225" data-name="Trazado 873225" d="M173.167,117.137c-12.624,36.644-22.369,73.82-26.64,112.01h11.134a441.641,441.641,0,0,1,21.55-89.282Z" transform="translate(-121.112 61.914)" fill="#373541"/>
          <path id="Trazado_873226" data-name="Trazado 873226" d="M151.842,86.524s29.711,58.842,12.913,205.639L112.348,288.6s3.96-135.22,3.186-150.165-5.89-30.562,3.977-38.434,32.331-13.482,32.331-13.482" transform="translate(-59.556 45.733)" fill="#ffd568"/>
          <path id="Trazado_873227" data-name="Trazado 873227" d="M157.5,189.771l-9.22-9.694,21.172-43.128,32.529,24.809-23.266,32.172Z" transform="translate(-146.569 72.386)" fill="#ef8b83"/>
          <path id="Trazado_873228" data-name="Trazado 873228" d="M181.493,93.9s-9.951,3.867-20.88,21.009-24.04,44.787-24.04,44.787l42.78,34.706s10.128-25.455,11.808-40.834c2.51-22.99-2.287-45.8-9.668-59.667" transform="translate(-118.519 49.634)" fill="#fde377"/>
          <path id="Trazado_873229" data-name="Trazado 873229" d="M126.1,197.733a13.8,13.8,0,0,1,13.675-11.959H178.39a13.8,13.8,0,0,1,13.676,15.637c-1.955,14.535-4.824,35.872-6.6,49.09a13.8,13.8,0,0,1-13.676,11.958H133.177A13.8,13.8,0,0,1,119.5,246.822c1.954-14.534,4.824-35.871,6.6-49.088" transform="translate(-92.592 98.193)" fill="#373541"/>
          <path id="Trazado_873230" data-name="Trazado 873230" d="M133.326,197.753A13.8,13.8,0,0,1,147,185.774h37.869a13.8,13.8,0,0,1,13.679,15.617c-1.932,14.527-4.769,35.863-6.528,49.088a13.8,13.8,0,0,1-13.678,11.979H140.476A13.8,13.8,0,0,1,126.8,246.842c1.931-14.526,4.769-35.863,6.527-49.088" transform="translate(-110.232 98.193)" fill="#444252"/>
          <path id="Trazado_873231" data-name="Trazado 873231" d="M132.119,184.581h52.014a3.006,3.006,0,0,1,3.007,3.007h-7.4l-2.635,18.9a11.579,11.579,0,0,1-11.469,9.98H136.981a11.578,11.578,0,0,1-11.469-13.179c.741-5.312,1.541-11.047,2.056-14.746a4.6,4.6,0,0,1,4.551-3.961" transform="translate(-96.748 97.563)" fill="#4d4c59"/>
          <path id="Trazado_873232" data-name="Trazado 873232" d="M147.265,202.453H159.58l-1.924,19.789H145.341Z" transform="translate(-99.667 107.009)" fill="#373541"/>
          <path id="Trazado_873233" data-name="Trazado 873233" d="M144.872,215.4h16.851l-.232,2.47H144.64Z" transform="translate(-100.74 113.852)" fill="#4d4c59"/>
          <path id="Trazado_873234" data-name="Trazado 873234" d="M140.758,241.308c.535-47.658-3.751-94.849-19.645-147.827l8.662-4.385c17.112,50.177,23.118,101.929,20.752,154.874Z" transform="translate(-54.074 47.092)" fill="#373541"/>
          <path id="Trazado_873235" data-name="Trazado 873235" d="M122.588,173.177c10.319-4.891,55.435-5.805,56.15-6.617S186.93,146,190.687,143.577s22.531-8.221,25.148-2.589-.307,8.783-.307,8.783,4.76,1.232,5.189,5.266-3.484,8-3.484,8,4.09,2.5,3.643,7.224a8.306,8.306,0,0,1-4.63,6.542s3.609,1.212,2.522,5.914-8.838,5.625-12.232,6.539c0,0-8.152,6.851-17.95,3.3,0,0-40.625,15.082-52.584,15.642-7.673.359-16.956-6.454-19.174-12.29s-1.507-19.286,5.76-22.73" transform="translate(-115.717 73.262)" fill="#fba598"/>
          <path id="Trazado_873236" data-name="Trazado 873236" d="M138.165,144.646s-11.243-.769-18.942,5.251a1.2,1.2,0,0,0,1.472,1.885c7.028-5.5,17.3-4.751,17.3-4.751a1.2,1.2,0,1,0,.167-2.385" transform="translate(-38.741 76.438)" fill="#e67470"/>
          <path id="Trazado_873237" data-name="Trazado 873237" d="M134.868,153.222s-10.711.362-16.932,4.945a1.2,1.2,0,1,0,1.419,1.924c5.72-4.213,15.587-4.479,15.587-4.479a1.2,1.2,0,0,0-.073-2.391" transform="translate(-33.555 80.987)" fill="#e67470"/>
          <path id="Trazado_873238" data-name="Trazado 873238" d="M134.13,162.365s-8.584-.3-15.37,4.749a1.2,1.2,0,1,0,1.426,1.918c6.119-4.551,13.861-4.278,13.861-4.278a1.2,1.2,0,1,0,.083-2.389" transform="translate(-34.006 85.819)" fill="#e67470"/>
          <path id="Trazado_873239" data-name="Trazado 873239" d="M144.6,138.926s-12.328-15.148-28.968-15.9c0,0,2.349-28.729,5.148-31.519,4.882-4.868,16.516-10.2,16.516-10.2,3,19.67,5.783,38.469,7.3,57.627" transform="translate(-39.283 42.972)" fill="#fce68f"/>
        </g>
      </g>
    </g>
  </g>
</svg>
