<svg xmlns="http://www.w3.org/2000/svg" width="91.542" height="91.541" viewBox="0 0 91.542 91.541">
  <g id="Grupo_1100220" data-name="Grupo 1100220" transform="translate(325 5639.324)">
    <g id="Grupo_1098742" data-name="Grupo 1098742" transform="translate(-325 -5639.324)">
      <rect id="Rect치ngulo_400898" data-name="Rect치ngulo 400898" width="91.541" height="91.541" rx="45.771" transform="translate(0.001 0)" fill="#769671" opacity="0.859"/>
      <rect id="Rect치ngulo_400907" data-name="Rect치ngulo 400907" width="91.541" height="91.541" rx="45.771" transform="translate(0 0)" fill="none"/>
    </g>
    <g id="agua_1_" data-name="agua (1)" transform="translate(-303.563 -5617.562)">
      <path id="Trazado_875487" data-name="Trazado 875487" d="M38.808,308.419c6.528,0,9.336.865,9.336,2.162,0,2.508-4.773.865-4.773,3.286,0,2.341,11.231.778,11.372,3.372.086,1.591-2.944,1.958-6.949,2.075-4.457.131-9.617-.519-9.687,1.556-.073,2.16,4.492.82,4.492,3.328,0,3.849-22.952,3.763-22.952,0,0-2.508,4.566-1.168,4.492-3.328-.07-2.075-5.23-1.425-9.687-1.556-4.006-.118-7.035-.484-6.949-2.075.14-2.594,11.372-1.031,11.372-3.372,0-2.421-4.773-.778-4.773-3.286,0-1.3,2.808-2.162,9.336-2.162Z" transform="translate(-6.789 -279.102)" fill="#fff"/>
      <path id="Trazado_875487_-_Contorno" data-name="Trazado 875487 - Contorno" d="M23.437,305.919H38.808a33.574,33.574,0,0,1,7.721.669,7.31,7.31,0,0,1,2.537,1.081,3.558,3.558,0,0,1,1.578,2.913,3.806,3.806,0,0,1-.837,2.434,26.823,26.823,0,0,1,3.575.476,6.781,6.781,0,0,1,2.148.829,3.488,3.488,0,0,1,1.708,2.784,3.573,3.573,0,0,1-.95,2.631c-1.448,1.574-4.184,1.954-8.422,2.078-.473.014-.993.021-1.592.021-.522,0-1.043-.005-1.547-.01l-.391,0a3.857,3.857,0,0,1-1.467,5.8,11.671,11.671,0,0,1-3.278,1.165,40.46,40.46,0,0,1-8.372.769,41.481,41.481,0,0,1-8.487-.776,12.081,12.081,0,0,1-3.314-1.155,4.967,4.967,0,0,1-1.445-1.173,3.525,3.525,0,0,1-.827-2.25,3.9,3.9,0,0,1,.761-2.378l-.391,0c-.5,0-1.026.01-1.547.01-.6,0-1.118-.007-1.59-.021a34.6,34.6,0,0,1-4.551-.358,6.445,6.445,0,0,1-3.871-1.72,3.573,3.573,0,0,1-.95-2.631,3.488,3.488,0,0,1,1.708-2.784,6.781,6.781,0,0,1,2.148-.829,26.829,26.829,0,0,1,3.575-.476,3.806,3.806,0,0,1-.837-2.435,3.557,3.557,0,0,1,1.578-2.912,7.31,7.31,0,0,1,2.537-1.081A33.574,33.574,0,0,1,23.437,305.919Zm18.707,5.1c-.9-.059-2-.1-3.336-.1H23.437c-1.332,0-2.432.038-3.336.1a3.689,3.689,0,0,1,1.274,2.851,3.3,3.3,0,0,1-1.633,2.815q-.113.071-.232.136a17.7,17.7,0,0,1,3.637.32c3.063.7,3.461,2.786,3.491,3.649a3.56,3.56,0,0,1-1.858,3.295l.155.026a41.028,41.028,0,0,0,6.286.447,40.116,40.116,0,0,0,6.165-.437l.11-.018a3.563,3.563,0,0,1-1.888-3.312c.029-.862.428-2.945,3.491-3.649a17.7,17.7,0,0,1,3.637-.32q-.119-.065-.232-.136a3.3,3.3,0,0,1-1.633-2.815A3.689,3.689,0,0,1,42.144,311.016Z" transform="translate(-6.789 -279.102)" fill="#fff"/>
      <path id="Trazado_875488" data-name="Trazado 875488" d="M248.976,424.6c.04-1.184,1.738-1.481,4.017-1.542-3.674-.031-7.1-.146-7.153,1.542-.073,2.16,4.492.82,4.492,3.328,0,1.738-4.678,2.673-9.811,2.831,6.184.189,12.947-.741,12.947-2.831C253.468,425.421,248.9,426.761,248.976,424.6Z" transform="translate(-217.658 -382.832)" fill="#fff"/>
      <path id="Trazado_875488_-_Contorno" data-name="Trazado 875488 - Contorno" d="M251.049,420.545c.478,0,.977,0,1.459.009l.5,0,.032,3.488a5.461,5.461,0,0,1,.914.414,3.861,3.861,0,0,1-.22,6.887,11.668,11.668,0,0,1-3.278,1.165,40.465,40.465,0,0,1-8.372.769c-.548,0-1.1-.008-1.646-.025v-5a35.682,35.682,0,0,0,4.788-.43,3.564,3.564,0,0,1-1.892-3.314c.029-.862.428-2.945,3.491-3.649A19.908,19.908,0,0,1,251.049,420.545Z" transform="translate(-217.658 -382.832)" fill="#fff"/>
      <path id="Trazado_875489" data-name="Trazado 875489" d="M311.551,313.867c0-2.421,4.773-.778,4.773-3.286,0-1.3-2.808-2.162-9.336-2.162h-3.137c6.528,0,9.336.865,9.336,2.162,0,2.508-4.773.865-4.773,3.286,0,2.341,11.231.778,11.372,3.372.086,1.591-2.944,1.958-6.949,2.075l-.256.007c1.114.01,2.275.026,3.392-.007,4.005-.118,7.035-.484,6.949-2.075C322.782,314.645,311.551,316.208,311.551,313.867Z" transform="translate(-274.968 -279.102)" fill="#fff"/>
      <path id="Trazado_875489_-_Contorno" data-name="Trazado 875489 - Contorno" d="M303.851,305.919h3.137a33.574,33.574,0,0,1,7.721.669,7.31,7.31,0,0,1,2.537,1.081,3.558,3.558,0,0,1,1.578,2.913,3.805,3.805,0,0,1-.837,2.434,26.828,26.828,0,0,1,3.575.476,6.78,6.78,0,0,1,2.148.829,3.488,3.488,0,0,1,1.708,2.784,3.573,3.573,0,0,1-.95,2.631c-1.448,1.574-4.184,1.954-8.422,2.078-.473.014-.993.021-1.592.021-.522,0-1.044-.005-1.548-.01l-.348,0-.026-3.978a23.763,23.763,0,0,1-2.977-.4,6.227,6.227,0,0,1-2.008-.759,3.3,3.3,0,0,1-1.633-2.815,3.689,3.689,0,0,1,1.274-2.851c-.9-.059-2-.1-3.336-.1Z" transform="translate(-274.968 -279.102)" fill="#fff"/>
      <path id="Trazado_875490" data-name="Trazado 875490" transform="translate(0)" fill="#fff"/>
      <path id="Trazado_875490_-_Contorno" data-name="Trazado 875490 - Contorno" transform="translate(0)" fill="#fff"/>
      <path id="Trazado_875491" data-name="Trazado 875491" d="M181.86,120.473l-6.734,11.664a7.776,7.776,0,1,0,13.469,0Z" transform="translate(-157.526 -109.021)" fill="#fff"/>
      <path id="Trazado_875491_-_Contorno" data-name="Trazado 875491 - Contorno" d="M181.86,115.473l8.9,15.414a10.287,10.287,0,1,1-17.8,0Zm0,25.829a5.276,5.276,0,0,0,4.569-7.914l-4.569-7.914-4.569,7.914a5.276,5.276,0,0,0,4.569,7.914Z" transform="translate(-157.526 -109.021)" fill="#fff"/>
      <path id="Trazado_875492" data-name="Trazado 875492" d="M308.92,42.453l-3,5.2a3.47,3.47,0,1,0,6.009,0Z" transform="translate(-276.411 -38.418)" fill="#fff"/>
      <path id="Trazado_875492_-_Contorno" data-name="Trazado 875492 - Contorno" d="M308.92,37.453l5.17,8.954a5.97,5.97,0,1,1-10.34,0Zm0,12.909a.97.97,0,0,0,.84-1.454l-.84-1.454-.84,1.454a.97.97,0,0,0,.84,1.454Z" transform="translate(-276.411 -38.418)" fill="#fff"/>
      <path id="Trazado_875493" data-name="Trazado 875493" d="M180.889,7.453l-2.1,3.636a2.424,2.424,0,1,0,4.2,0Z" transform="translate(-161.498 -6.745)" fill="#fff"/>
      <path id="Trazado_875493_-_Contorno" data-name="Trazado 875493 - Contorno" d="M180.889,2.453l4.264,7.386a4.924,4.924,0,1,1-8.529,0Z" transform="translate(-161.498 -6.745)" fill="#fff"/>
      <path id="Trazado_875494" data-name="Trazado 875494" d="M48.666,140.421c-.106-1.952-3.261-2.2-6.6-2.47-1.244-.1-2.418-.193-3.35-.367-.4-.074-1.588-.147-1.364-.8.181-.528,1.272-.527,1.709-.6,1.188-.2,2.664-.518,2.963-1.891.364-1.675-1.389-2.421-2.713-2.751a30.459,30.459,0,0,0-6.628-.612,8.407,8.407,0,0,0-.994-5.848l-6.734-11.664a.723.723,0,0,0-1.235,0l-1.673,2.9a.713.713,0,0,0,1.235.713l1.056-1.828,6.117,10.6a7.063,7.063,0,1,1-12.234,0L21.3,120.45a.713.713,0,0,0-1.235-.713l-3.086,5.345a8.406,8.406,0,0,0-.994,5.848,30.452,30.452,0,0,0-6.628.612c-1.325.33-3.076,1.076-2.713,2.751.3,1.373,1.776,1.687,2.963,1.891.379.065,1.7.146,1.745.74.037.49-1.073.6-1.4.66-.932.174-2.107.267-3.35.367-3.341.267-6.5.518-6.6,2.47a1.777,1.777,0,0,0,.481,1.324c1.017,1.106,3.493,1.394,7.159,1.5,1.014.03,2.059.02,3.069.01a31.081,31.081,0,0,1,4.49.149c.4.062,1.6.222,1.42.866-.13.454-1.189.558-1.521.63-1.177.257-2.955.645-2.955,2.517,0,1.288,1.368,2.215,4.183,2.833a39.685,39.685,0,0,0,8.1.734,38.664,38.664,0,0,0,7.984-.727c2.764-.615,4.108-1.545,4.108-2.841,0-1.872-1.778-2.26-2.955-2.517-.348-.076-1.4-.175-1.518-.643-.164-.636,1.025-.792,1.417-.853a31.108,31.108,0,0,1,4.49-.149c1.01.01,2.055.02,3.069-.01a.713.713,0,0,0-.042-1.425c-.986.029-2.017.019-3.013.01a31.792,31.792,0,0,0-4.722.166c-1.093.17-2.45.615-2.628,1.879-.227,1.614,1.378,2.143,2.644,2.419,1.49.325,1.833.535,1.833,1.124,0,.271-.625.922-2.992,1.449a37.23,37.23,0,0,1-7.674.693,38.808,38.808,0,0,1-7.8-.7c-2.423-.532-3.063-1.175-3.063-1.441,0-.589.343-.8,1.833-1.124,1.265-.276,2.871-.8,2.644-2.419-.178-1.264-1.535-1.709-2.628-1.879a31.841,31.841,0,0,0-4.722-.166c-1,.009-2.027.019-3.013-.01-1.46-.043-5.338-.157-6.152-1.042a.349.349,0,0,1-.107-.282c.007-.129.3-.412,1.362-.654a30.532,30.532,0,0,1,3.929-.471,30.535,30.535,0,0,0,3.842-.456c.893-.2,2.053-.574,2.224-1.616.285-1.739-1.608-2.294-2.932-2.521-.451-.077-1.88-.173-1.823-.919.046-.594,1.261-.831,1.676-.935a30.4,30.4,0,0,1,6.7-.572,8.719,8.719,0,0,0,.582,1.217,8.489,8.489,0,0,0,14.7,0,8.718,8.718,0,0,0,.582-1.217,30.4,30.4,0,0,1,6.7.572c.419.1,1.64.342,1.676.935.046.748-1.374.842-1.823.919-1.2.207-2.686.536-2.928,1.966-.232,1.371,1.123,1.929,2.22,2.171a30.535,30.535,0,0,0,3.842.456,30.535,30.535,0,0,1,3.929.471c1.061.242,1.355.525,1.362.654.025.467-.943.862-2.657,1.084A.713.713,0,0,0,44.768,143c1.1-.142,4.009-.52,3.9-2.575Z" transform="translate(0 -102.322)" fill="#fff"/>
      <path id="Trazado_875494_-_Contorno" data-name="Trazado 875494 - Contorno" d="M24.432,153.487a42.206,42.206,0,0,1-8.64-.793,11.58,11.58,0,0,1-4.013-1.537,4.446,4.446,0,0,1-2.134-3.738,4.846,4.846,0,0,1,.28-1.654l-.745,0c-.6,0-1.131-.007-1.611-.021-4.535-.133-7.3-.541-8.926-2.309a4.281,4.281,0,0,1-1.137-3.152,4.055,4.055,0,0,1,1.5-2.958,6.35,6.35,0,0,1,2.409-1.182,18.457,18.457,0,0,1,3.04-.518,4.527,4.527,0,0,1-.255-.806,4.258,4.258,0,0,1,1.625-4.377,7.759,7.759,0,0,1,2.927-1.329,25.175,25.175,0,0,1,4.61-.607,11.041,11.041,0,0,1,1.452-4.677l3.086-5.345a3.171,3.171,0,0,1,1.572-1.374,3.171,3.171,0,0,1,.4-2.048l1.673-2.9a3.215,3.215,0,0,1,2.565-1.59l.218-.378.218.378a3.216,3.216,0,0,1,2.564,1.59l6.735,11.665a11.042,11.042,0,0,1,1.452,4.677,25.182,25.182,0,0,1,4.61.607,7.763,7.763,0,0,1,2.926,1.329,4.255,4.255,0,0,1,1.625,4.38,4.533,4.533,0,0,1-.254.8,18.458,18.458,0,0,1,3.04.518,6.351,6.351,0,0,1,2.41,1.182,4.055,4.055,0,0,1,1.5,2.958,4.458,4.458,0,0,1-3,4.434,11.376,11.376,0,0,1-3.075.756,3.314,3.314,0,0,1-.428.028,3.154,3.154,0,0,1-1.65-.459,3.172,3.172,0,0,1-1.912.7c-.479.014-1.005.021-1.609.021l-.747,0a4.845,4.845,0,0,1,.28,1.655,4.5,4.5,0,0,1-2.1,3.732,11.263,11.263,0,0,1-3.969,1.549A41.181,41.181,0,0,1,24.432,153.487Zm-4.807-6.678a43.858,43.858,0,0,0,4.806.252,42.948,42.948,0,0,0,4.626-.234,4.131,4.131,0,0,1-.913-3.3,4.325,4.325,0,0,1,2.187-3.161,7.118,7.118,0,0,1,2.533-.84c.405-.063.832-.107,1.266-.137a3.959,3.959,0,0,1-.707-3.062,4.4,4.4,0,0,1,.512-1.446l-.118,0a10.989,10.989,0,0,1-18.967,0l-.091,0a4.159,4.159,0,0,1,.491,2.824,3.91,3.91,0,0,1-.708,1.685c.432.03.857.074,1.26.137a7.118,7.118,0,0,1,2.533.84,4.325,4.325,0,0,1,2.187,3.161A4.131,4.131,0,0,1,19.625,146.809Zm4.247-27.156a3.17,3.17,0,0,1-.4,2.048l-3.086,5.345a4.563,4.563,0,1,0,7.9,0l-4.3-7.442Z" transform="translate(0 -102.322)" fill="#fff"/>
      <path id="Trazado_875495" data-name="Trazado 875495" d="M254.1,303.554a.713.713,0,0,0-1.235-.713,4.169,4.169,0,0,1-3.647,2.106.713.713,0,1,0,0,1.426,5.58,5.58,0,0,0,4.882-2.819Z" transform="translate(-224.879 -273.732)" fill="#fff"/>
      <path id="Trazado_875495_-_Contorno" data-name="Trazado 875495 - Contorno" d="M253.478,299.985a3.213,3.213,0,0,1,2.782,4.819,8.055,8.055,0,0,1-7.047,4.069,3.213,3.213,0,1,1,0-6.426,1.673,1.673,0,0,0,1.482-.856A3.222,3.222,0,0,1,253.478,299.985Z" transform="translate(-224.879 -273.732)" fill="#fff"/>
      <path id="Trazado_875496" data-name="Trazado 875496" d="M302.119,46.876a4.183,4.183,0,0,0,3.622-6.274l-3-5.2a.723.723,0,0,0-1.235,0l-3,5.2a4.183,4.183,0,0,0,3.622,6.274Zm-2.387-5.561,2.387-4.135,2.387,4.135a2.757,2.757,0,1,1-4.775,0Z" transform="translate(-269.61 -31.719)" fill="#fff"/>
      <path id="Trazado_875496_-_Contorno" data-name="Trazado 875496 - Contorno" d="M302.119,49.376a6.682,6.682,0,0,1-5.787-10.024l3-5.2a3.215,3.215,0,0,1,2.564-1.59l.218-.378.218.378a3.216,3.216,0,0,1,2.564,1.589l3,5.2a6.683,6.683,0,0,1-5.787,10.024Zm0-7.2-.222.385a.257.257,0,1,0,.445,0Z" transform="translate(-269.61 -31.719)" fill="#fff"/>
      <path id="Trazado_875497" data-name="Trazado 875497" d="M174.091,8.739a3.137,3.137,0,0,0,2.717-4.705L174.708.4a.723.723,0,0,0-1.235,0l-2.1,3.636a3.137,3.137,0,0,0,2.716,4.705Zm-1.482-3.992,1.482-2.567,1.482,2.567a1.711,1.711,0,1,1-2.964,0Z" transform="translate(-154.7 -0.046)" fill="#fff"/>
      <path id="Trazado_875497_-_Contorno" data-name="Trazado 875497 - Contorno" d="M174.091,11.239a5.579,5.579,0,0,1-4.882-2.819,5.579,5.579,0,0,1,0-5.637l2.1-3.636a3.215,3.215,0,0,1,2.564-1.59l.218-.378.218.378a3.216,3.216,0,0,1,2.564,1.589l2.1,3.636a5.58,5.58,0,0,1,0,5.637A5.58,5.58,0,0,1,174.091,11.239Z" transform="translate(-154.7 -0.046)" fill="#fff"/>
    </g>
    <g id="agua_1_2" data-name="agua (1)" transform="translate(-303.563 -5617.562)">
      <path id="Trazado_875495-2" data-name="Trazado 875495" d="M254.1,303.554a.713.713,0,0,0-1.235-.713,4.169,4.169,0,0,1-3.647,2.106.713.713,0,1,0,0,1.426,5.58,5.58,0,0,0,4.882-2.819Z" transform="translate(-224.879 -273.732)"/>
      <path id="Trazado_875487-2" data-name="Trazado 875487" d="M38.808,308.419c6.528,0,9.336.865,9.336,2.162,0,2.508-4.773.865-4.773,3.286,0,2.341,11.231.778,11.372,3.372.086,1.591-2.944,1.958-6.949,2.075-4.457.131-9.617-.519-9.687,1.556-.073,2.16,4.492.82,4.492,3.328,0,3.849-22.952,3.763-22.952,0,0-2.508,4.566-1.168,4.492-3.328-.07-2.075-5.23-1.425-9.687-1.556-4.006-.118-7.035-.484-6.949-2.075.14-2.594,11.372-1.031,11.372-3.372,0-2.421-4.773-.778-4.773-3.286,0-1.3,2.808-2.162,9.336-2.162Z" transform="translate(-6.789 -279.102)" fill="#baeefc"/>
      <path id="Trazado_875488-2" data-name="Trazado 875488" d="M248.976,424.6c.04-1.184,1.738-1.481,4.017-1.542-3.674-.031-7.1-.146-7.153,1.542-.073,2.16,4.492.82,4.492,3.328,0,1.738-4.678,2.673-9.811,2.831,6.184.189,12.947-.741,12.947-2.831C253.468,425.421,248.9,426.761,248.976,424.6Z" transform="translate(-217.658 -382.832)" fill="#a2e1f8"/>
      <path id="Trazado_875489-2" data-name="Trazado 875489" d="M311.551,313.867c0-2.421,4.773-.778,4.773-3.286,0-1.3-2.808-2.162-9.336-2.162h-3.137c6.528,0,9.336.865,9.336,2.162,0,2.508-4.773.865-4.773,3.286,0,2.341,11.231.778,11.372,3.372.086,1.591-2.944,1.958-6.949,2.075l-.256.007c1.114.01,2.275.026,3.392-.007,4.005-.118,7.035-.484,6.949-2.075C322.782,314.645,311.551,316.208,311.551,313.867Z" transform="translate(-274.968 -279.102)" fill="#a2e1f8"/>
      <path id="Trazado_875490-2" data-name="Trazado 875490" transform="translate(0)"/>
      <path id="Trazado_875491-2" data-name="Trazado 875491" d="M181.86,120.473l-6.734,11.664a7.776,7.776,0,1,0,13.469,0Z" transform="translate(-157.526 -109.021)" fill="#82d5f2"/>
      <path id="Trazado_875492-2" data-name="Trazado 875492" d="M308.92,42.453l-3,5.2a3.47,3.47,0,1,0,6.009,0Z" transform="translate(-276.411 -38.418)" fill="#baeefc"/>
      <path id="Trazado_875493-2" data-name="Trazado 875493" d="M180.889,7.453l-2.1,3.636a2.424,2.424,0,1,0,4.2,0Z" transform="translate(-161.498 -6.745)" fill="#82d5f2"/>
      <path id="Trazado_875494-2" data-name="Trazado 875494" d="M48.666,140.421c-.106-1.952-3.261-2.2-6.6-2.47-1.244-.1-2.418-.193-3.35-.367-.4-.074-1.588-.147-1.364-.8.181-.528,1.272-.527,1.709-.6,1.188-.2,2.664-.518,2.963-1.891.364-1.675-1.389-2.421-2.713-2.751a30.459,30.459,0,0,0-6.628-.612,8.407,8.407,0,0,0-.994-5.848l-6.734-11.664a.723.723,0,0,0-1.235,0l-1.673,2.9a.713.713,0,0,0,1.235.713l1.056-1.828,6.117,10.6a7.063,7.063,0,1,1-12.234,0L21.3,120.45a.713.713,0,0,0-1.235-.713l-3.086,5.345a8.406,8.406,0,0,0-.994,5.848,30.452,30.452,0,0,0-6.628.612c-1.325.33-3.076,1.076-2.713,2.751.3,1.373,1.776,1.687,2.963,1.891.379.065,1.7.146,1.745.74.037.49-1.073.6-1.4.66-.932.174-2.107.267-3.35.367-3.341.267-6.5.518-6.6,2.47a1.777,1.777,0,0,0,.481,1.324c1.017,1.106,3.493,1.394,7.159,1.5,1.014.03,2.059.02,3.069.01a31.081,31.081,0,0,1,4.49.149c.4.062,1.6.222,1.42.866-.13.454-1.189.558-1.521.63-1.177.257-2.955.645-2.955,2.517,0,1.288,1.368,2.215,4.183,2.833a39.685,39.685,0,0,0,8.1.734,38.664,38.664,0,0,0,7.984-.727c2.764-.615,4.108-1.545,4.108-2.841,0-1.872-1.778-2.26-2.955-2.517-.348-.076-1.4-.175-1.518-.643-.164-.636,1.025-.792,1.417-.853a31.108,31.108,0,0,1,4.49-.149c1.01.01,2.055.02,3.069-.01a.713.713,0,0,0-.042-1.425c-.986.029-2.017.019-3.013.01a31.792,31.792,0,0,0-4.722.166c-1.093.17-2.45.615-2.628,1.879-.227,1.614,1.378,2.143,2.644,2.419,1.49.325,1.833.535,1.833,1.124,0,.271-.625.922-2.992,1.449a37.23,37.23,0,0,1-7.674.693,38.808,38.808,0,0,1-7.8-.7c-2.423-.532-3.063-1.175-3.063-1.441,0-.589.343-.8,1.833-1.124,1.265-.276,2.871-.8,2.644-2.419-.178-1.264-1.535-1.709-2.628-1.879a31.841,31.841,0,0,0-4.722-.166c-1,.009-2.027.019-3.013-.01-1.46-.043-5.338-.157-6.152-1.042a.349.349,0,0,1-.107-.282c.007-.129.3-.412,1.362-.654a30.532,30.532,0,0,1,3.929-.471,30.535,30.535,0,0,0,3.842-.456c.893-.2,2.053-.574,2.224-1.616.285-1.739-1.608-2.294-2.932-2.521-.451-.077-1.88-.173-1.823-.919.046-.594,1.261-.831,1.676-.935a30.4,30.4,0,0,1,6.7-.572,8.719,8.719,0,0,0,.582,1.217,8.489,8.489,0,0,0,14.7,0,8.718,8.718,0,0,0,.582-1.217,30.4,30.4,0,0,1,6.7.572c.419.1,1.64.342,1.676.935.046.748-1.374.842-1.823.919-1.2.207-2.686.536-2.928,1.966-.232,1.371,1.123,1.929,2.22,2.171a30.535,30.535,0,0,0,3.842.456,30.535,30.535,0,0,1,3.929.471c1.061.242,1.355.525,1.362.654.025.467-.943.862-2.657,1.084A.713.713,0,0,0,44.768,143c1.1-.142,4.009-.52,3.9-2.575Z" transform="translate(0 -102.322)"/>
      <path id="Trazado_875496-2" data-name="Trazado 875496" d="M302.119,46.876a4.183,4.183,0,0,0,3.622-6.274l-3-5.2a.723.723,0,0,0-1.235,0l-3,5.2a4.183,4.183,0,0,0,3.622,6.274Zm-2.387-5.561,2.387-4.135,2.387,4.135a2.757,2.757,0,1,1-4.775,0Z" transform="translate(-269.61 -31.719)"/>
      <path id="Trazado_875497-2" data-name="Trazado 875497" d="M174.091,8.739a3.137,3.137,0,0,0,2.717-4.705L174.708.4a.723.723,0,0,0-1.235,0l-2.1,3.636a3.137,3.137,0,0,0,2.716,4.705Zm-1.482-3.992,1.482-2.567,1.482,2.567a1.711,1.711,0,1,1-2.964,0Z" transform="translate(-154.7 -0.046)"/>
    </g>
  </g>
</svg>
