<svg xmlns="http://www.w3.org/2000/svg" width="91.542" height="91.541" viewBox="0 0 91.542 91.541">
  <g id="Grupo_1100224" data-name="Grupo 1100224" transform="translate(-12 5657)">
    <g id="Grupo_1098742" data-name="Grupo 1098742" transform="translate(12 -5657)">
      <rect id="Rect치ngulo_400898" data-name="Rect치ngulo 400898" width="91.541" height="91.541" rx="45.771" transform="translate(0.001 0)" fill="#769671" opacity="0.859"/>
      <rect id="Rect치ngulo_400907" data-name="Rect치ngulo 400907" width="91.541" height="91.541" rx="45.771" transform="translate(0 0)" fill="none"/>
    </g>
    <g id="Grupo_1100223" data-name="Grupo 1100223" transform="translate(-1002.791 -9874.004)">
      <g id="recurso" transform="translate(1033.791 4236.004)">
        <g id="Grupo_1100142" data-name="Grupo 1100142" transform="translate(0.754 0.754)">
          <path id="Trazado_875208" data-name="Trazado 875208" d="M52.768,465.491H10a2,2,0,0,1-2-2v0a2,2,0,0,1,2-2H52.768a2,2,0,0,1,2,2v0A2,2,0,0,1,52.768,465.491Z" transform="translate(-5.458 -416.178)" fill="#fff"/>
          <path id="Trazado_875208_-_Contorno" data-name="Trazado 875208 - Contorno" d="M53.31,468.575H10.545a4.546,4.546,0,0,1,0-9.093H53.31a4.546,4.546,0,0,1,0,9.093Z" transform="translate(-6 -416.72)" fill="#fff"/>
          <path id="Trazado_875209" data-name="Trazado 875209" d="M52.768,474.9H10a2,2,0,0,1-1.813-1.156,1.992,1.992,0,0,0-.19.847v0a2,2,0,0,0,2,2H52.768a2,2,0,0,0,2-2v0a1.992,1.992,0,0,0-.19-.847A2,2,0,0,1,52.768,474.9Z" transform="translate(-5.458 -427.281)" fill="#fff"/>
          <path id="Trazado_875209_-_Contorno" data-name="Trazado 875209 - Contorno" d="M8.731,471.741a2.542,2.542,0,0,1,2.131,1.156h42.13a2.542,2.542,0,0,1,2.131-1.156h0a2.542,2.542,0,0,1,2.3,1.464,4.544,4.544,0,0,1-4.115,6.472H10.545a4.544,4.544,0,0,1-4.115-6.473A2.542,2.542,0,0,1,8.731,471.741Z" transform="translate(-6 -427.823)" fill="#fff"/>
          <path id="Trazado_875210" data-name="Trazado 875210" d="M117.118,50.39H143.31V89.155H117.118Z" transform="translate(-104.287 -43.851)" fill="#fff"/>
          <path id="Trazado_875210_-_Contorno" data-name="Trazado 875210 - Contorno" d="M117.66,48.39h26.192a2.542,2.542,0,0,1,2.542,2.542V89.7a2.542,2.542,0,0,1-2.542,2.542H117.66a2.542,2.542,0,0,1-2.542-2.542V50.932A2.542,2.542,0,0,1,117.66,48.39Zm23.651,5.083H120.2V87.155H141.31Z" transform="translate(-104.828 -44.393)" fill="#fff"/>
          <path id="Trazado_875211" data-name="Trazado 875211" d="M117.118,443.482H143.31v1.7H117.118Z" transform="translate(-104.287 -399.876)" fill="#fff"/>
          <path id="Trazado_875211_-_Contorno" data-name="Trazado 875211 - Contorno" d="M117.66,441.482h26.192a2.542,2.542,0,0,1,2.542,2.542v1.7a2.542,2.542,0,0,1-2.542,2.542H117.66a2.542,2.542,0,0,1-2.542-2.542v-1.7A2.542,2.542,0,0,1,117.66,441.482Z" transform="translate(-104.828 -400.417)" fill="#fff"/>
          <path id="Trazado_875212" data-name="Trazado 875212" d="M117.118,50.39H143.31v1.7H117.118Z" transform="translate(-104.287 -43.851)" fill="#fff"/>
          <path id="Trazado_875212_-_Contorno" data-name="Trazado 875212 - Contorno" d="M117.66,48.39h26.192a2.542,2.542,0,0,1,2.542,2.542v1.7a2.542,2.542,0,0,1-2.542,2.542H117.66a2.542,2.542,0,0,1-2.542-2.542v-1.7A2.542,2.542,0,0,1,117.66,48.39Z" transform="translate(-104.828 -44.393)" fill="#fff"/>
          <path id="Trazado_875213" data-name="Trazado 875213" d="M128.164,8H100.557a.943.943,0,0,0-.943.943v2.111a.943.943,0,0,0,.943.943h27.607a.943.943,0,0,0,.943-.943V8.943A.943.943,0,0,0,128.164,8Z" transform="translate(-88.434 -5.458)" fill="#fff"/>
          <path id="Trazado_875213_-_Contorno" data-name="Trazado 875213 - Contorno" d="M101.1,6h27.607a3.488,3.488,0,0,1,3.485,3.485V11.6a3.488,3.488,0,0,1-3.485,3.485H101.1A3.488,3.488,0,0,1,97.614,11.6V9.485A3.488,3.488,0,0,1,101.1,6Z" transform="translate(-88.975 -6)" fill="#fff"/>
          <path id="Trazado_875214" data-name="Trazado 875214" d="M128.164,23.333H100.557a.943.943,0,0,1-.943-.943v1.7a.943.943,0,0,0,.943.943h27.607a.943.943,0,0,0,.943-.943v-1.7A.943.943,0,0,1,128.164,23.333Z" transform="translate(-88.434 -18.491)" fill="#fff"/>
          <path id="Trazado_875214_-_Contorno" data-name="Trazado 875214 - Contorno" d="M100.156,20.39a2.537,2.537,0,0,1,1.976.943h25.541a2.542,2.542,0,0,1,4.518,1.6v1.7a3.488,3.488,0,0,1-3.485,3.485H101.1a3.488,3.488,0,0,1-3.485-3.485v-1.7A2.542,2.542,0,0,1,100.156,20.39Z" transform="translate(-88.975 -19.033)" fill="#fff"/>
          <g id="Grupo_1100141" data-name="Grupo 1100141" transform="translate(14.465 8.44)">
            <path id="Trazado_875215" data-name="Trazado 875215" d="M239.2,260.141h-2.853a.472.472,0,0,0-.471.471v2.853a.471.471,0,0,0,.471.471H239.2a.471.471,0,0,0,.472-.471v-2.853A.472.472,0,0,0,239.2,260.141Z" transform="translate(-226.309 -242.264)" fill="#fff"/>
            <path id="Trazado_875215_-_Contorno" data-name="Trazado 875215 - Contorno" d="M236.887,258.141h2.853a3.017,3.017,0,0,1,3.013,3.013v2.853a3.016,3.016,0,0,1-3.013,3.013h-2.853a3.016,3.016,0,0,1-3.013-3.013v-2.853A3.017,3.017,0,0,1,236.887,258.141Z" transform="translate(-226.851 -242.805)" fill="#fff"/>
            <path id="Trazado_875216" data-name="Trazado 875216" d="M164.717,260.141h-2.853a.472.472,0,0,0-.471.471v2.853a.471.471,0,0,0,.471.471h2.853a.471.471,0,0,0,.471-.471v-2.853A.471.471,0,0,0,164.717,260.141Z" transform="translate(-158.851 -242.264)" fill="#fff"/>
            <path id="Trazado_875216_-_Contorno" data-name="Trazado 875216 - Contorno" d="M162.406,258.141h2.853a3.016,3.016,0,0,1,3.013,3.013v2.853a3.016,3.016,0,0,1-3.013,3.013h-2.853a3.016,3.016,0,0,1-3.013-3.013v-2.853A3.016,3.016,0,0,1,162.406,258.141Z" transform="translate(-159.393 -242.805)" fill="#fff"/>
            <path id="Trazado_875217" data-name="Trazado 875217" d="M310.827,260.141h2.853a.472.472,0,0,1,.472.471v2.853a.471.471,0,0,1-.472.471h-2.853a.472.472,0,0,1-.471-.471v-2.853A.472.472,0,0,1,310.827,260.141Z" transform="translate(-293.767 -242.264)" fill="#fff"/>
            <path id="Trazado_875217_-_Contorno" data-name="Trazado 875217 - Contorno" d="M311.368,258.141h2.853a3.017,3.017,0,0,1,3.013,3.013v2.853a3.016,3.016,0,0,1-3.013,3.013h-2.853a3.016,3.016,0,0,1-3.013-3.013v-2.853A3.017,3.017,0,0,1,311.368,258.141Z" transform="translate(-294.308 -242.805)" fill="#fff"/>
            <path id="Trazado_875218" data-name="Trazado 875218" d="M239.2,178.824h-2.853a.472.472,0,0,0-.471.471v2.853a.471.471,0,0,0,.471.471H239.2a.472.472,0,0,0,.472-.471V179.3A.471.471,0,0,0,239.2,178.824Z" transform="translate(-226.309 -168.614)" fill="#fff"/>
            <path id="Trazado_875218_-_Contorno" data-name="Trazado 875218 - Contorno" d="M236.887,176.824h2.853a3.016,3.016,0,0,1,3.013,3.013v2.853a3.017,3.017,0,0,1-3.013,3.013h-2.853a3.017,3.017,0,0,1-3.013-3.013v-2.853A3.016,3.016,0,0,1,236.887,176.824Z" transform="translate(-226.851 -169.156)" fill="#fff"/>
            <path id="Trazado_875219" data-name="Trazado 875219" d="M164.717,178.824h-2.853a.472.472,0,0,0-.471.471v2.853a.471.471,0,0,0,.471.471h2.853a.471.471,0,0,0,.471-.471V179.3A.471.471,0,0,0,164.717,178.824Z" transform="translate(-158.851 -168.614)" fill="#fff"/>
            <path id="Trazado_875219_-_Contorno" data-name="Trazado 875219 - Contorno" d="M162.406,176.824h2.853a3.016,3.016,0,0,1,3.013,3.013v2.853a3.016,3.016,0,0,1-3.013,3.013h-2.853a3.016,3.016,0,0,1-3.013-3.013v-2.853A3.016,3.016,0,0,1,162.406,176.824Z" transform="translate(-159.393 -169.156)" fill="#fff"/>
            <path id="Trazado_875220" data-name="Trazado 875220" d="M310.827,178.824h2.853a.472.472,0,0,1,.472.471v2.853a.471.471,0,0,1-.472.471h-2.853a.472.472,0,0,1-.471-.471V179.3A.472.472,0,0,1,310.827,178.824Z" transform="translate(-293.767 -168.614)" fill="#fff"/>
            <path id="Trazado_875220_-_Contorno" data-name="Trazado 875220 - Contorno" d="M311.368,176.824h2.853a3.017,3.017,0,0,1,3.013,3.013v2.853a3.017,3.017,0,0,1-3.013,3.013h-2.853a3.017,3.017,0,0,1-3.013-3.013v-2.853A3.017,3.017,0,0,1,311.368,176.824Z" transform="translate(-294.308 -169.156)" fill="#fff"/>
            <path id="Trazado_875221" data-name="Trazado 875221" d="M239.2,97.507h-2.853a.472.472,0,0,0-.471.471v2.853a.472.472,0,0,0,.471.471H239.2a.472.472,0,0,0,.472-.471V97.979A.471.471,0,0,0,239.2,97.507Z" transform="translate(-226.309 -94.965)" fill="#fff"/>
            <path id="Trazado_875221_-_Contorno" data-name="Trazado 875221 - Contorno" d="M236.887,95.507h2.853a3.017,3.017,0,0,1,3.013,3.013v2.853a3.017,3.017,0,0,1-3.013,3.013h-2.853a3.017,3.017,0,0,1-3.013-3.013V98.52A3.017,3.017,0,0,1,236.887,95.507Z" transform="translate(-226.851 -95.507)" fill="#fff"/>
            <path id="Trazado_875222" data-name="Trazado 875222" d="M164.717,97.507h-2.853a.472.472,0,0,0-.471.471v2.853a.472.472,0,0,0,.471.471h2.853a.472.472,0,0,0,.471-.471V97.979A.471.471,0,0,0,164.717,97.507Z" transform="translate(-158.851 -94.965)" fill="#fff"/>
            <path id="Trazado_875222_-_Contorno" data-name="Trazado 875222 - Contorno" d="M162.406,95.507h2.853a3.016,3.016,0,0,1,3.013,3.013v2.853a3.016,3.016,0,0,1-3.013,3.013h-2.853a3.016,3.016,0,0,1-3.013-3.013V98.52A3.016,3.016,0,0,1,162.406,95.507Z" transform="translate(-159.393 -95.507)" fill="#fff"/>
            <path id="Trazado_875223" data-name="Trazado 875223" d="M310.827,97.507h2.853a.472.472,0,0,1,.472.471v2.853a.472.472,0,0,1-.472.471h-2.853a.472.472,0,0,1-.471-.471V97.979A.472.472,0,0,1,310.827,97.507Z" transform="translate(-293.767 -94.965)" fill="#fff"/>
            <path id="Trazado_875223_-_Contorno" data-name="Trazado 875223 - Contorno" d="M311.368,95.507h2.853a3.017,3.017,0,0,1,3.013,3.013v2.853a3.017,3.017,0,0,1-3.013,3.013h-2.853a3.017,3.017,0,0,1-3.013-3.013V98.52A3.017,3.017,0,0,1,311.368,95.507Z" transform="translate(-294.308 -95.507)" fill="#fff"/>
          </g>
          <path id="Trazado_875224" data-name="Trazado 875224" d="M239.2,277.865h-2.853a.472.472,0,0,1-.471-.472v1.7a.471.471,0,0,0,.471.471H239.2a.472.472,0,0,0,.472-.471v-1.7A.472.472,0,0,1,239.2,277.865Z" transform="translate(-211.845 -249.448)" fill="#fff"/>
          <path id="Trazado_875224_-_Contorno" data-name="Trazado 875224 - Contorno" d="M236.416,275.393a2.53,2.53,0,0,1,1.475.471h.846a2.542,2.542,0,0,1,4.017,2.07v1.7a3.016,3.016,0,0,1-3.013,3.013h-2.853a3.016,3.016,0,0,1-3.013-3.013v-1.7A2.542,2.542,0,0,1,236.416,275.393Z" transform="translate(-212.386 -249.99)" fill="#fff"/>
          <path id="Trazado_875225" data-name="Trazado 875225" d="M164.717,277.865h-2.853a.472.472,0,0,1-.471-.472v1.7a.472.472,0,0,0,.471.471h2.853a.472.472,0,0,0,.471-.471v-1.7A.472.472,0,0,1,164.717,277.865Z" transform="translate(-144.387 -249.448)" fill="#fff"/>
          <path id="Trazado_875225_-_Contorno" data-name="Trazado 875225 - Contorno" d="M161.935,275.393a2.53,2.53,0,0,1,1.475.471h.846a2.542,2.542,0,0,1,4.017,2.07v1.7a3.016,3.016,0,0,1-3.013,3.013h-2.853a3.016,3.016,0,0,1-3.013-3.013v-1.7A2.542,2.542,0,0,1,161.935,275.393Z" transform="translate(-144.929 -249.99)" fill="#fff"/>
          <path id="Trazado_875226" data-name="Trazado 875226" d="M313.679,277.865h-2.853a.472.472,0,0,1-.471-.472v1.7a.472.472,0,0,0,.471.471h2.853a.472.472,0,0,0,.471-.471v-1.7A.472.472,0,0,1,313.679,277.865Z" transform="translate(-279.302 -249.448)" fill="#fff"/>
          <path id="Trazado_875226_-_Contorno" data-name="Trazado 875226 - Contorno" d="M310.9,275.393a2.53,2.53,0,0,1,1.475.471h.846a2.542,2.542,0,0,1,4.016,2.07v1.7a3.016,3.016,0,0,1-3.013,3.013h-2.853a3.016,3.016,0,0,1-3.013-3.013v-1.7A2.542,2.542,0,0,1,310.9,275.393Z" transform="translate(-279.844 -249.99)" fill="#fff"/>
          <path id="Trazado_875227" data-name="Trazado 875227" d="M239.2,196.547h-2.853a.471.471,0,0,1-.471-.472v1.7a.471.471,0,0,0,.471.471H239.2a.471.471,0,0,0,.472-.471v-1.7A.472.472,0,0,1,239.2,196.547Z" transform="translate(-211.845 -175.798)" fill="#fff"/>
          <path id="Trazado_875227_-_Contorno" data-name="Trazado 875227 - Contorno" d="M236.416,194.075a2.529,2.529,0,0,1,1.475.471h.846a2.542,2.542,0,0,1,4.017,2.07v1.7a3.017,3.017,0,0,1-3.013,3.013h-2.853a3.017,3.017,0,0,1-3.013-3.013v-1.7A2.542,2.542,0,0,1,236.416,194.075Z" transform="translate(-212.386 -176.34)" fill="#fff"/>
          <path id="Trazado_875228" data-name="Trazado 875228" d="M164.717,196.547h-2.853a.471.471,0,0,1-.471-.472v1.7a.471.471,0,0,0,.471.471h2.853a.471.471,0,0,0,.471-.471v-1.7A.471.471,0,0,1,164.717,196.547Z" transform="translate(-144.387 -175.798)" fill="#fff"/>
          <path id="Trazado_875228_-_Contorno" data-name="Trazado 875228 - Contorno" d="M161.935,194.075a2.53,2.53,0,0,1,1.475.471h.846a2.542,2.542,0,0,1,4.017,2.07v1.7a3.016,3.016,0,0,1-3.013,3.013h-2.853a3.016,3.016,0,0,1-3.013-3.013v-1.7A2.542,2.542,0,0,1,161.935,194.075Z" transform="translate(-144.929 -176.34)" fill="#fff"/>
          <path id="Trazado_875229" data-name="Trazado 875229" d="M313.679,196.547h-2.853a.471.471,0,0,1-.471-.472v1.7a.471.471,0,0,0,.471.471h2.853a.471.471,0,0,0,.471-.471v-1.7A.471.471,0,0,1,313.679,196.547Z" transform="translate(-279.302 -175.798)" fill="#fff"/>
          <path id="Trazado_875229_-_Contorno" data-name="Trazado 875229 - Contorno" d="M310.9,194.075a2.53,2.53,0,0,1,1.475.471h.846a2.542,2.542,0,0,1,4.016,2.07v1.7a3.016,3.016,0,0,1-3.013,3.013h-2.853a3.016,3.016,0,0,1-3.013-3.013v-1.7A2.542,2.542,0,0,1,310.9,194.075Z" transform="translate(-279.844 -176.34)" fill="#fff"/>
          <path id="Trazado_875230" data-name="Trazado 875230" d="M239.2,115.229h-2.853a.471.471,0,0,1-.471-.471v1.7a.471.471,0,0,0,.471.471H239.2a.472.472,0,0,0,.472-.471v-1.7A.471.471,0,0,1,239.2,115.229Z" transform="translate(-211.845 -102.149)" fill="#fff"/>
          <path id="Trazado_875230_-_Contorno" data-name="Trazado 875230 - Contorno" d="M236.416,112.758a2.53,2.53,0,0,1,1.475.471h.846a2.542,2.542,0,0,1,4.016,2.07V117a3.017,3.017,0,0,1-3.013,3.013h-2.853A3.017,3.017,0,0,1,233.874,117v-1.7A2.542,2.542,0,0,1,236.416,112.758Z" transform="translate(-212.386 -102.691)" fill="#fff"/>
          <path id="Trazado_875231" data-name="Trazado 875231" d="M164.717,115.229h-2.853a.472.472,0,0,1-.471-.471v1.7a.472.472,0,0,0,.471.471h2.853a.472.472,0,0,0,.471-.471v-1.7A.471.471,0,0,1,164.717,115.229Z" transform="translate(-144.387 -102.149)" fill="#fff"/>
          <path id="Trazado_875231_-_Contorno" data-name="Trazado 875231 - Contorno" d="M161.935,112.758a2.53,2.53,0,0,1,1.475.471h.846a2.542,2.542,0,0,1,4.016,2.07V117a3.016,3.016,0,0,1-3.013,3.013h-2.853A3.017,3.017,0,0,1,159.393,117v-1.7A2.542,2.542,0,0,1,161.935,112.758Z" transform="translate(-144.929 -102.691)" fill="#fff"/>
          <path id="Trazado_875232" data-name="Trazado 875232" d="M313.679,115.229h-2.853a.472.472,0,0,1-.471-.471v1.7a.472.472,0,0,0,.471.471h2.853a.472.472,0,0,0,.471-.471v-1.7A.471.471,0,0,1,313.679,115.229Z" transform="translate(-279.302 -102.149)" fill="#fff"/>
          <path id="Trazado_875232_-_Contorno" data-name="Trazado 875232 - Contorno" d="M310.9,112.758a2.53,2.53,0,0,1,1.475.471h.846a2.542,2.542,0,0,1,4.016,2.07V117a3.016,3.016,0,0,1-3.013,3.013h-2.853A3.017,3.017,0,0,1,308.355,117v-1.7A2.542,2.542,0,0,1,310.9,112.758Z" transform="translate(-279.844 -102.691)" fill="#fff"/>
          <path id="Trazado_875233" data-name="Trazado 875233" d="M256,344.771h6.324v11.006H256Z" transform="translate(-230.073 -310.473)" fill="#fff"/>
          <path id="Trazado_875233_-_Contorno" data-name="Trazado 875233 - Contorno" d="M256.542,342.771h6.324a2.542,2.542,0,0,1,2.542,2.542v11.006a2.542,2.542,0,0,1-2.542,2.542h-6.324A2.542,2.542,0,0,1,254,356.318V345.313A2.542,2.542,0,0,1,256.542,342.771Zm3.782,5.083h-1.241v5.922h1.241Z" transform="translate(-230.614 -311.014)" fill="#fff"/>
          <path id="Trazado_875234" data-name="Trazado 875234" d="M188.937,344.771h6.324v11.006h-6.324Z" transform="translate(-169.334 -310.473)" fill="#fff"/>
          <path id="Trazado_875234_-_Contorno" data-name="Trazado 875234 - Contorno" d="M189.479,342.771H195.8a2.542,2.542,0,0,1,2.542,2.542v11.006a2.542,2.542,0,0,1-2.542,2.542h-6.324a2.542,2.542,0,0,1-2.542-2.542V345.313A2.542,2.542,0,0,1,189.479,342.771Zm3.782,5.083h-1.24v5.922h1.24Z" transform="translate(-169.875 -311.014)" fill="#fff"/>
          <path id="Trazado_875235" data-name="Trazado 875235" d="M188.937,443.482h6.324v1.7h-6.324Z" transform="translate(-169.334 -399.876)" fill="#fff"/>
          <path id="Trazado_875235_-_Contorno" data-name="Trazado 875235 - Contorno" d="M189.479,441.482H195.8a2.542,2.542,0,0,1,2.542,2.542v1.7a2.542,2.542,0,0,1-2.542,2.542h-6.324a2.542,2.542,0,0,1-2.542-2.542v-1.7A2.542,2.542,0,0,1,189.479,441.482Z" transform="translate(-169.875 -400.417)" fill="#fff"/>
          <path id="Trazado_875236" data-name="Trazado 875236" d="M256,443.482h6.324v1.7H256Z" transform="translate(-230.073 -399.876)" fill="#fff"/>
          <path id="Trazado_875236_-_Contorno" data-name="Trazado 875236 - Contorno" d="M256.542,441.482h6.324a2.542,2.542,0,0,1,2.542,2.542v1.7a2.542,2.542,0,0,1-2.542,2.542h-6.324A2.542,2.542,0,0,1,254,445.721v-1.7A2.542,2.542,0,0,1,256.542,441.482Z" transform="translate(-230.614 -400.417)" fill="#fff"/>
        </g>
        <g id="Grupo_1100143" data-name="Grupo 1100143" transform="translate(0 0)">
          <path id="Trazado_875237" data-name="Trazado 875237" d="M45.564,155.946h-1.59v-12.36a3.1,3.1,0,0,1,2.168,1.456.709.709,0,0,0,1.265-.638,4.5,4.5,0,0,0-2.842-2.141,4.828,4.828,0,0,1,2.489-.9.709.709,0,0,0-.062-1.416,6.459,6.459,0,0,0-2.9.909,4.5,4.5,0,0,0-1.773-2.95.709.709,0,1,0-.791,1.176,3.061,3.061,0,0,1,1.146,1.936,6.33,6.33,0,0,0-3.136-1.071.709.709,0,0,0-.062,1.416,4.827,4.827,0,0,1,2.489.9,4.5,4.5,0,0,0-2.842,2.141.709.709,0,1,0,1.265.639,3.1,3.1,0,0,1,2.168-1.457v12.36H37.97V135.169a.709.709,0,1,0-1.417,0v20.777H31.185V145.628a.709.709,0,0,0-.709-.709H17.8a.709.709,0,0,0-.709.709v4.1a.709.709,0,1,0,1.417,0v-3.388h4.919v9.61H18.512v-3.388a.709.709,0,1,0-1.417,0v3.388H11.727V125.585a.709.709,0,0,0-1.417,0v30.362H5.723v-12.36a3.1,3.1,0,0,1,2.168,1.456.709.709,0,0,0,1.265-.638,4.5,4.5,0,0,0-2.842-2.141,4.828,4.828,0,0,1,2.489-.9.709.709,0,0,0-.062-1.416,6.331,6.331,0,0,0-3.136,1.071,3.061,3.061,0,0,1,1.146-1.936.709.709,0,0,0-.79-1.176,4.5,4.5,0,0,0-1.773,2.95,6.459,6.459,0,0,0-2.9-.909.709.709,0,0,0-.062,1.416,4.828,4.828,0,0,1,2.489.9A4.5,4.5,0,0,0,.872,144.4a.709.709,0,1,0,1.268.634,3.088,3.088,0,0,1,2.166-1.452v12.36H2.716a2.717,2.717,0,0,0,0,5.434H45.564a2.717,2.717,0,0,0,0-5.434Zm-20.715-9.61h4.919v9.61H24.849Zm20.715,13.627H2.716a1.3,1.3,0,0,1,0-2.6H45.564a1.3,1.3,0,0,1,0,2.6Z" transform="translate(2.542 -110.559)" fill="#fff"/>
          <path id="Trazado_875237_-_Contorno" data-name="Trazado 875237 - Contorno" d="M46.106,164.464H3.258a5.259,5.259,0,0,1-.952-10.431V148.5q-.128.01-.259.01A3.266,3.266,0,0,1,.6,148.17a3.25,3.25,0,0,1-1.454-4.361,5.006,5.006,0,0,1,.247-.436,3.248,3.248,0,0,1,2.548-5.422,8.511,8.511,0,0,1,1.394.192,6.763,6.763,0,0,1,1.764-1.809,3.253,3.253,0,0,1,3.216-.223v-9.985a3.25,3.25,0,1,1,6.5,0v27.82H15.1V153.1a3.23,3.23,0,0,1,.326-1.417,3.23,3.23,0,0,1-.326-1.417v-4.1a3.254,3.254,0,0,1,3.25-3.25H31.018a3.254,3.254,0,0,1,3.25,3.25v7.777h.285V135.711a3.25,3.25,0,0,1,6.5,0v.4a3.258,3.258,0,0,1,3.217.225,6.751,6.751,0,0,1,1.764,1.808,8.513,8.513,0,0,1,1.392-.192q.072,0,.143,0a3.248,3.248,0,0,1,2.406,5.428,4.976,4.976,0,0,1,.249.435,3.25,3.25,0,0,1-2.907,4.7q-.13,0-.259-.01v5.53a5.259,5.259,0,0,1-.952,10.431ZM21.27,151.683a3.227,3.227,0,0,1,.161.4v-.791A3.227,3.227,0,0,1,21.27,151.683Z" transform="translate(2 -111.101)" fill="#fff"/>
          <path id="Trazado_875238" data-name="Trazado 875238" d="M93.447,5.422h0V9.65a.709.709,0,1,0,1.417,0V5.422h24.826V19.234a.709.709,0,1,0,1.417,0V5.422h0a1.655,1.655,0,0,0,1.653-1.653V1.653A1.655,1.655,0,0,0,121.109,0H93.447a1.655,1.655,0,0,0-1.653,1.653V3.769a1.655,1.655,0,0,0,1.653,1.653Zm-.236-3.769a.237.237,0,0,1,.236-.236h27.662a.236.236,0,0,1,.236.236V3.769a.236.236,0,0,1-.236.236H93.447a.237.237,0,0,1-.236-.236Z" transform="translate(-80.597 2.542)" fill="#fff"/>
          <path id="Trazado_875238_-_Contorno" data-name="Trazado 875238 - Contorno" d="M93.989-2h27.662a4.2,4.2,0,0,1,4.2,4.195V4.31a4.191,4.191,0,0,1-1.654,3.336v12.13a3.25,3.25,0,1,1-6.5,0V8.505H97.948v1.686a3.25,3.25,0,1,1-6.5,0V7.648a4.265,4.265,0,0,1-.425-.372A4.167,4.167,0,0,1,89.794,4.31V2.195A4.2,4.2,0,0,1,93.989-2Z" transform="translate(-81.138 2)" fill="#fff"/>
          <path id="Trazado_875239" data-name="Trazado 875239" d="M232.36,252.634H229.5a1.182,1.182,0,0,0-1.181,1.181v2.858a1.182,1.182,0,0,0,1.181,1.181h2.858a1.182,1.182,0,0,0,1.181-1.181v-2.858A1.182,1.182,0,0,0,232.36,252.634Zm-.236,3.8h-2.386v-2.386h2.386Z" transform="translate(-204.249 -226.27)" fill="#fff"/>
          <path id="Trazado_875239_-_Contorno" data-name="Trazado 875239 - Contorno" d="M230.044,250.634H232.9a3.727,3.727,0,0,1,3.723,3.723v2.858a3.727,3.727,0,0,1-3.723,3.723h-2.858a3.727,3.727,0,0,1-3.723-3.723v-2.858A3.727,3.727,0,0,1,230.044,250.634Z" transform="translate(-204.791 -226.811)" fill="#fff"/>
          <path id="Trazado_875240" data-name="Trazado 875240" d="M157.732,252.634h-2.858a1.182,1.182,0,0,0-1.181,1.181v2.858a1.182,1.182,0,0,0,1.181,1.181h2.858a1.182,1.182,0,0,0,1.181-1.181v-2.858A1.182,1.182,0,0,0,157.732,252.634Zm-.236,3.8H155.11v-2.386H157.5Z" transform="translate(-136.659 -226.27)" fill="#fff"/>
          <path id="Trazado_875240_-_Contorno" data-name="Trazado 875240 - Contorno" d="M155.416,250.634h2.858A3.727,3.727,0,0,1,162,254.357v2.858a3.727,3.727,0,0,1-3.723,3.723h-2.858a3.727,3.727,0,0,1-3.723-3.723v-2.858A3.727,3.727,0,0,1,155.416,250.634Z" transform="translate(-137.2 -226.811)" fill="#fff"/>
          <path id="Trazado_875241" data-name="Trazado 875241" d="M306.987,252.634h-2.858a1.182,1.182,0,0,0-1.181,1.181v2.858a1.182,1.182,0,0,0,1.181,1.181h2.858a1.182,1.182,0,0,0,1.181-1.181v-2.858A1.182,1.182,0,0,0,306.987,252.634Zm-.236,3.8h-2.386v-2.386h2.386Z" transform="translate(-271.839 -226.27)" fill="#fff"/>
          <path id="Trazado_875241_-_Contorno" data-name="Trazado 875241 - Contorno" d="M304.671,250.634h2.858a3.727,3.727,0,0,1,3.723,3.723v2.858a3.727,3.727,0,0,1-3.723,3.723h-2.858a3.727,3.727,0,0,1-3.723-3.723v-2.858A3.727,3.727,0,0,1,304.671,250.634Z" transform="translate(-272.381 -226.811)" fill="#fff"/>
          <path id="Trazado_875242" data-name="Trazado 875242" d="M233.541,172.339a1.182,1.182,0,0,0-1.181-1.181H229.5a1.182,1.182,0,0,0-1.181,1.181V175.2a1.182,1.182,0,0,0,1.181,1.181h2.858a1.182,1.182,0,0,0,1.181-1.181Zm-1.417,2.622h-2.386v-2.386h2.386Z" transform="translate(-204.249 -152.477)" fill="#fff"/>
          <path id="Trazado_875242_-_Contorno" data-name="Trazado 875242 - Contorno" d="M230.044,169.158H232.9a3.727,3.727,0,0,1,3.723,3.723v2.858a3.727,3.727,0,0,1-3.723,3.723h-2.858a3.727,3.727,0,0,1-3.723-3.723v-2.858A3.727,3.727,0,0,1,230.044,169.158Z" transform="translate(-204.791 -153.018)" fill="#fff"/>
          <path id="Trazado_875243" data-name="Trazado 875243" d="M158.913,172.339a1.182,1.182,0,0,0-1.181-1.181h-2.858a1.182,1.182,0,0,0-1.181,1.181V175.2a1.182,1.182,0,0,0,1.181,1.181h2.858a1.182,1.182,0,0,0,1.181-1.181Zm-1.417,2.622H155.11v-2.386H157.5Z" transform="translate(-136.659 -152.477)" fill="#fff"/>
          <path id="Trazado_875243_-_Contorno" data-name="Trazado 875243 - Contorno" d="M155.416,169.158h2.858A3.727,3.727,0,0,1,162,172.881v2.858a3.727,3.727,0,0,1-3.723,3.723h-2.858a3.727,3.727,0,0,1-3.723-3.723v-2.858A3.727,3.727,0,0,1,155.416,169.158Z" transform="translate(-137.2 -153.018)" fill="#fff"/>
          <path id="Trazado_875244" data-name="Trazado 875244" d="M308.168,172.339a1.182,1.182,0,0,0-1.181-1.181h-2.858a1.182,1.182,0,0,0-1.181,1.181V175.2a1.182,1.182,0,0,0,1.181,1.181h2.858a1.182,1.182,0,0,0,1.181-1.181Zm-1.417,2.622h-2.386v-2.386h2.386Z" transform="translate(-271.839 -152.477)" fill="#fff"/>
          <path id="Trazado_875244_-_Contorno" data-name="Trazado 875244 - Contorno" d="M304.671,169.158h2.858a3.727,3.727,0,0,1,3.723,3.723v2.858a3.727,3.727,0,0,1-3.723,3.723h-2.858a3.727,3.727,0,0,1-3.723-3.723v-2.858A3.727,3.727,0,0,1,304.671,169.158Z" transform="translate(-272.381 -153.018)" fill="#fff"/>
          <path id="Trazado_875245" data-name="Trazado 875245" d="M233.541,90.863a1.182,1.182,0,0,0-1.181-1.181H229.5a1.182,1.182,0,0,0-1.181,1.181v2.858A1.182,1.182,0,0,0,229.5,94.9h2.858a1.182,1.182,0,0,0,1.181-1.181Zm-1.417,2.622h-2.386V91.1h2.386Z" transform="translate(-204.249 -78.684)" fill="#fff"/>
          <path id="Trazado_875245_-_Contorno" data-name="Trazado 875245 - Contorno" d="M230.044,87.682H232.9a3.727,3.727,0,0,1,3.723,3.723v2.858a3.727,3.727,0,0,1-3.723,3.723h-2.858a3.727,3.727,0,0,1-3.723-3.723V91.4A3.727,3.727,0,0,1,230.044,87.682Z" transform="translate(-204.791 -79.225)" fill="#fff"/>
          <path id="Trazado_875246" data-name="Trazado 875246" d="M158.913,90.863a1.182,1.182,0,0,0-1.181-1.181h-2.858a1.182,1.182,0,0,0-1.181,1.181v2.858a1.182,1.182,0,0,0,1.181,1.181h2.858a1.182,1.182,0,0,0,1.181-1.181ZM157.5,93.485H155.11V91.1H157.5Z" transform="translate(-136.659 -78.684)" fill="#fff"/>
          <path id="Trazado_875246_-_Contorno" data-name="Trazado 875246 - Contorno" d="M155.416,87.682h2.858A3.727,3.727,0,0,1,162,91.4v2.858a3.727,3.727,0,0,1-3.723,3.723h-2.858a3.727,3.727,0,0,1-3.723-3.723V91.4A3.727,3.727,0,0,1,155.416,87.682Z" transform="translate(-137.2 -79.225)" fill="#fff"/>
          <path id="Trazado_875247" data-name="Trazado 875247" d="M308.168,90.863a1.182,1.182,0,0,0-1.181-1.181h-2.858a1.182,1.182,0,0,0-1.181,1.181v2.858a1.182,1.182,0,0,0,1.181,1.181h2.858a1.182,1.182,0,0,0,1.181-1.181Zm-1.417,2.622h-2.386V91.1h2.386Z" transform="translate(-271.839 -78.684)" fill="#fff"/>
          <path id="Trazado_875247_-_Contorno" data-name="Trazado 875247 - Contorno" d="M304.671,87.682h2.858a3.727,3.727,0,0,1,3.723,3.723v2.858a3.727,3.727,0,0,1-3.723,3.723h-2.858a3.727,3.727,0,0,1-3.723-3.723V91.4A3.727,3.727,0,0,1,304.671,87.682Z" transform="translate(-272.381 -79.225)" fill="#fff"/>
        </g>
      </g>
      <g id="recurso-2" data-name="recurso" transform="translate(1036.333 4238.546)">
        <g id="Grupo_1100142-2" data-name="Grupo 1100142" transform="translate(0.754 0.754)">
          <path id="Trazado_875208-2" data-name="Trazado 875208" d="M52.768,465.491H10a2,2,0,0,1-2-2v0a2,2,0,0,1,2-2H52.768a2,2,0,0,1,2,2v0A2,2,0,0,1,52.768,465.491Z" transform="translate(-8 -418.72)" fill="#025f80"/>
          <path id="Trazado_875209-2" data-name="Trazado 875209" d="M52.768,474.9H10a2,2,0,0,1-1.813-1.156,1.992,1.992,0,0,0-.19.847v0a2,2,0,0,0,2,2H52.768a2,2,0,0,0,2-2v0a1.992,1.992,0,0,0-.19-.847A2,2,0,0,1,52.768,474.9Z" transform="translate(-8 -429.823)" fill="#024c67"/>
          <path id="Trazado_875210-2" data-name="Trazado 875210" d="M117.118,50.39H143.31V89.155H117.118Z" transform="translate(-106.828 -46.393)" fill="#faf7f7"/>
          <path id="Trazado_875211-2" data-name="Trazado 875211" d="M117.118,443.482H143.31v1.7H117.118Z" transform="translate(-106.828 -402.417)" fill="#dedbee"/>
          <path id="Trazado_875212-2" data-name="Trazado 875212" d="M117.118,50.39H143.31v1.7H117.118Z" transform="translate(-106.828 -46.393)" fill="#dedbee"/>
          <path id="Trazado_875213-2" data-name="Trazado 875213" d="M128.164,8H100.557a.943.943,0,0,0-.943.943v2.111a.943.943,0,0,0,.943.943h27.607a.943.943,0,0,0,.943-.943V8.943A.943.943,0,0,0,128.164,8Z" transform="translate(-90.975 -8)" fill="#e89d80"/>
          <path id="Trazado_875214-2" data-name="Trazado 875214" d="M128.164,23.333H100.557a.943.943,0,0,1-.943-.943v1.7a.943.943,0,0,0,.943.943h27.607a.943.943,0,0,0,.943-.943v-1.7A.943.943,0,0,1,128.164,23.333Z" transform="translate(-90.975 -21.033)" fill="#d28b74"/>
          <g id="Grupo_1100141-2" data-name="Grupo 1100141" transform="translate(14.465 8.44)">
            <path id="Trazado_875215-2" data-name="Trazado 875215" d="M239.2,260.141h-2.853a.472.472,0,0,0-.471.471v2.853a.471.471,0,0,0,.471.471H239.2a.471.471,0,0,0,.472-.471v-2.853A.472.472,0,0,0,239.2,260.141Z" transform="translate(-228.851 -244.805)" fill="#62dbfb"/>
            <path id="Trazado_875216-2" data-name="Trazado 875216" d="M164.717,260.141h-2.853a.472.472,0,0,0-.471.471v2.853a.471.471,0,0,0,.471.471h2.853a.471.471,0,0,0,.471-.471v-2.853A.471.471,0,0,0,164.717,260.141Z" transform="translate(-161.393 -244.805)" fill="#62dbfb"/>
            <path id="Trazado_875217-2" data-name="Trazado 875217" d="M310.827,260.141h2.853a.472.472,0,0,1,.472.471v2.853a.471.471,0,0,1-.472.471h-2.853a.472.472,0,0,1-.471-.471v-2.853A.472.472,0,0,1,310.827,260.141Z" transform="translate(-296.308 -244.805)" fill="#62dbfb"/>
            <path id="Trazado_875218-2" data-name="Trazado 875218" d="M239.2,178.824h-2.853a.472.472,0,0,0-.471.471v2.853a.471.471,0,0,0,.471.471H239.2a.472.472,0,0,0,.472-.471V179.3A.471.471,0,0,0,239.2,178.824Z" transform="translate(-228.851 -171.156)" fill="#62dbfb"/>
            <path id="Trazado_875219-2" data-name="Trazado 875219" d="M164.717,178.824h-2.853a.472.472,0,0,0-.471.471v2.853a.471.471,0,0,0,.471.471h2.853a.471.471,0,0,0,.471-.471V179.3A.471.471,0,0,0,164.717,178.824Z" transform="translate(-161.393 -171.156)" fill="#62dbfb"/>
            <path id="Trazado_875220-2" data-name="Trazado 875220" d="M310.827,178.824h2.853a.472.472,0,0,1,.472.471v2.853a.471.471,0,0,1-.472.471h-2.853a.472.472,0,0,1-.471-.471V179.3A.472.472,0,0,1,310.827,178.824Z" transform="translate(-296.308 -171.156)" fill="#62dbfb"/>
            <path id="Trazado_875221-2" data-name="Trazado 875221" d="M239.2,97.507h-2.853a.472.472,0,0,0-.471.471v2.853a.472.472,0,0,0,.471.471H239.2a.472.472,0,0,0,.472-.471V97.979A.471.471,0,0,0,239.2,97.507Z" transform="translate(-228.851 -97.507)" fill="#62dbfb"/>
            <path id="Trazado_875222-2" data-name="Trazado 875222" d="M164.717,97.507h-2.853a.472.472,0,0,0-.471.471v2.853a.472.472,0,0,0,.471.471h2.853a.472.472,0,0,0,.471-.471V97.979A.471.471,0,0,0,164.717,97.507Z" transform="translate(-161.393 -97.507)" fill="#62dbfb"/>
            <path id="Trazado_875223-2" data-name="Trazado 875223" d="M310.827,97.507h2.853a.472.472,0,0,1,.472.471v2.853a.472.472,0,0,1-.472.471h-2.853a.472.472,0,0,1-.471-.471V97.979A.472.472,0,0,1,310.827,97.507Z" transform="translate(-296.308 -97.507)" fill="#62dbfb"/>
          </g>
          <path id="Trazado_875224-2" data-name="Trazado 875224" d="M239.2,277.865h-2.853a.472.472,0,0,1-.471-.472v1.7a.471.471,0,0,0,.471.471H239.2a.472.472,0,0,0,.472-.471v-1.7A.472.472,0,0,1,239.2,277.865Z" transform="translate(-214.386 -251.99)" fill="#01d0fb"/>
          <path id="Trazado_875225-2" data-name="Trazado 875225" d="M164.717,277.865h-2.853a.472.472,0,0,1-.471-.472v1.7a.472.472,0,0,0,.471.471h2.853a.472.472,0,0,0,.471-.471v-1.7A.472.472,0,0,1,164.717,277.865Z" transform="translate(-146.928 -251.99)" fill="#01d0fb"/>
          <path id="Trazado_875226-2" data-name="Trazado 875226" d="M313.679,277.865h-2.853a.472.472,0,0,1-.471-.472v1.7a.472.472,0,0,0,.471.471h2.853a.472.472,0,0,0,.471-.471v-1.7A.472.472,0,0,1,313.679,277.865Z" transform="translate(-281.844 -251.99)" fill="#01d0fb"/>
          <path id="Trazado_875227-2" data-name="Trazado 875227" d="M239.2,196.547h-2.853a.471.471,0,0,1-.471-.472v1.7a.471.471,0,0,0,.471.471H239.2a.471.471,0,0,0,.472-.471v-1.7A.472.472,0,0,1,239.2,196.547Z" transform="translate(-214.386 -178.34)" fill="#01d0fb"/>
          <path id="Trazado_875228-2" data-name="Trazado 875228" d="M164.717,196.547h-2.853a.471.471,0,0,1-.471-.472v1.7a.471.471,0,0,0,.471.471h2.853a.471.471,0,0,0,.471-.471v-1.7A.471.471,0,0,1,164.717,196.547Z" transform="translate(-146.928 -178.34)" fill="#01d0fb"/>
          <path id="Trazado_875229-2" data-name="Trazado 875229" d="M313.679,196.547h-2.853a.471.471,0,0,1-.471-.472v1.7a.471.471,0,0,0,.471.471h2.853a.471.471,0,0,0,.471-.471v-1.7A.471.471,0,0,1,313.679,196.547Z" transform="translate(-281.844 -178.34)" fill="#01d0fb"/>
          <path id="Trazado_875230-2" data-name="Trazado 875230" d="M239.2,115.229h-2.853a.471.471,0,0,1-.471-.471v1.7a.471.471,0,0,0,.471.471H239.2a.472.472,0,0,0,.472-.471v-1.7A.471.471,0,0,1,239.2,115.229Z" transform="translate(-214.386 -104.691)" fill="#01d0fb"/>
          <path id="Trazado_875231-2" data-name="Trazado 875231" d="M164.717,115.229h-2.853a.472.472,0,0,1-.471-.471v1.7a.472.472,0,0,0,.471.471h2.853a.472.472,0,0,0,.471-.471v-1.7A.471.471,0,0,1,164.717,115.229Z" transform="translate(-146.928 -104.691)" fill="#01d0fb"/>
          <path id="Trazado_875232-2" data-name="Trazado 875232" d="M313.679,115.229h-2.853a.472.472,0,0,1-.471-.471v1.7a.472.472,0,0,0,.471.471h2.853a.472.472,0,0,0,.471-.471v-1.7A.471.471,0,0,1,313.679,115.229Z" transform="translate(-281.844 -104.691)" fill="#01d0fb"/>
          <path id="Trazado_875233-2" data-name="Trazado 875233" d="M256,344.771h6.324v11.006H256Z" transform="translate(-232.614 -313.014)" fill="#62dbfb"/>
          <path id="Trazado_875234-2" data-name="Trazado 875234" d="M188.937,344.771h6.324v11.006h-6.324Z" transform="translate(-171.875 -313.014)" fill="#62dbfb"/>
          <path id="Trazado_875235-2" data-name="Trazado 875235" d="M188.937,443.482h6.324v1.7h-6.324Z" transform="translate(-171.875 -402.417)" fill="#01d0fb"/>
          <path id="Trazado_875236-2" data-name="Trazado 875236" d="M256,443.482h6.324v1.7H256Z" transform="translate(-232.614 -402.417)" fill="#01d0fb"/>
        </g>
        <g id="Grupo_1100143-2" data-name="Grupo 1100143" transform="translate(0 0)">
          <path id="Trazado_875237-2" data-name="Trazado 875237" d="M45.564,155.946h-1.59v-12.36a3.1,3.1,0,0,1,2.168,1.456.709.709,0,0,0,1.265-.638,4.5,4.5,0,0,0-2.842-2.141,4.828,4.828,0,0,1,2.489-.9.709.709,0,0,0-.062-1.416,6.459,6.459,0,0,0-2.9.909,4.5,4.5,0,0,0-1.773-2.95.709.709,0,1,0-.791,1.176,3.061,3.061,0,0,1,1.146,1.936,6.33,6.33,0,0,0-3.136-1.071.709.709,0,0,0-.062,1.416,4.827,4.827,0,0,1,2.489.9,4.5,4.5,0,0,0-2.842,2.141.709.709,0,1,0,1.265.639,3.1,3.1,0,0,1,2.168-1.457v12.36H37.97V135.169a.709.709,0,1,0-1.417,0v20.777H31.185V145.628a.709.709,0,0,0-.709-.709H17.8a.709.709,0,0,0-.709.709v4.1a.709.709,0,1,0,1.417,0v-3.388h4.919v9.61H18.512v-3.388a.709.709,0,1,0-1.417,0v3.388H11.727V125.585a.709.709,0,0,0-1.417,0v30.362H5.723v-12.36a3.1,3.1,0,0,1,2.168,1.456.709.709,0,0,0,1.265-.638,4.5,4.5,0,0,0-2.842-2.141,4.828,4.828,0,0,1,2.489-.9.709.709,0,0,0-.062-1.416,6.331,6.331,0,0,0-3.136,1.071,3.061,3.061,0,0,1,1.146-1.936.709.709,0,0,0-.79-1.176,4.5,4.5,0,0,0-1.773,2.95,6.459,6.459,0,0,0-2.9-.909.709.709,0,0,0-.062,1.416,4.828,4.828,0,0,1,2.489.9A4.5,4.5,0,0,0,.872,144.4a.709.709,0,1,0,1.268.634,3.088,3.088,0,0,1,2.166-1.452v12.36H2.716a2.717,2.717,0,0,0,0,5.434H45.564a2.717,2.717,0,0,0,0-5.434Zm-20.715-9.61h4.919v9.61H24.849Zm20.715,13.627H2.716a1.3,1.3,0,0,1,0-2.6H45.564a1.3,1.3,0,0,1,0,2.6Z" transform="translate(0 -113.101)"/>
          <path id="Trazado_875238-2" data-name="Trazado 875238" d="M93.447,5.422h0V9.65a.709.709,0,1,0,1.417,0V5.422h24.826V19.234a.709.709,0,1,0,1.417,0V5.422h0a1.655,1.655,0,0,0,1.653-1.653V1.653A1.655,1.655,0,0,0,121.109,0H93.447a1.655,1.655,0,0,0-1.653,1.653V3.769a1.655,1.655,0,0,0,1.653,1.653Zm-.236-3.769a.237.237,0,0,1,.236-.236h27.662a.236.236,0,0,1,.236.236V3.769a.236.236,0,0,1-.236.236H93.447a.237.237,0,0,1-.236-.236Z" transform="translate(-83.138 0)"/>
          <path id="Trazado_875239-2" data-name="Trazado 875239" d="M232.36,252.634H229.5a1.182,1.182,0,0,0-1.181,1.181v2.858a1.182,1.182,0,0,0,1.181,1.181h2.858a1.182,1.182,0,0,0,1.181-1.181v-2.858A1.182,1.182,0,0,0,232.36,252.634Zm-.236,3.8h-2.386v-2.386h2.386Z" transform="translate(-206.791 -228.811)"/>
          <path id="Trazado_875240-2" data-name="Trazado 875240" d="M157.732,252.634h-2.858a1.182,1.182,0,0,0-1.181,1.181v2.858a1.182,1.182,0,0,0,1.181,1.181h2.858a1.182,1.182,0,0,0,1.181-1.181v-2.858A1.182,1.182,0,0,0,157.732,252.634Zm-.236,3.8H155.11v-2.386H157.5Z" transform="translate(-139.2 -228.811)"/>
          <path id="Trazado_875241-2" data-name="Trazado 875241" d="M306.987,252.634h-2.858a1.182,1.182,0,0,0-1.181,1.181v2.858a1.182,1.182,0,0,0,1.181,1.181h2.858a1.182,1.182,0,0,0,1.181-1.181v-2.858A1.182,1.182,0,0,0,306.987,252.634Zm-.236,3.8h-2.386v-2.386h2.386Z" transform="translate(-274.381 -228.811)"/>
          <path id="Trazado_875242-2" data-name="Trazado 875242" d="M233.541,172.339a1.182,1.182,0,0,0-1.181-1.181H229.5a1.182,1.182,0,0,0-1.181,1.181V175.2a1.182,1.182,0,0,0,1.181,1.181h2.858a1.182,1.182,0,0,0,1.181-1.181Zm-1.417,2.622h-2.386v-2.386h2.386Z" transform="translate(-206.791 -155.018)"/>
          <path id="Trazado_875243-2" data-name="Trazado 875243" d="M158.913,172.339a1.182,1.182,0,0,0-1.181-1.181h-2.858a1.182,1.182,0,0,0-1.181,1.181V175.2a1.182,1.182,0,0,0,1.181,1.181h2.858a1.182,1.182,0,0,0,1.181-1.181Zm-1.417,2.622H155.11v-2.386H157.5Z" transform="translate(-139.2 -155.018)"/>
          <path id="Trazado_875244-2" data-name="Trazado 875244" d="M308.168,172.339a1.182,1.182,0,0,0-1.181-1.181h-2.858a1.182,1.182,0,0,0-1.181,1.181V175.2a1.182,1.182,0,0,0,1.181,1.181h2.858a1.182,1.182,0,0,0,1.181-1.181Zm-1.417,2.622h-2.386v-2.386h2.386Z" transform="translate(-274.381 -155.018)"/>
          <path id="Trazado_875245-2" data-name="Trazado 875245" d="M233.541,90.863a1.182,1.182,0,0,0-1.181-1.181H229.5a1.182,1.182,0,0,0-1.181,1.181v2.858A1.182,1.182,0,0,0,229.5,94.9h2.858a1.182,1.182,0,0,0,1.181-1.181Zm-1.417,2.622h-2.386V91.1h2.386Z" transform="translate(-206.791 -81.225)"/>
          <path id="Trazado_875246-2" data-name="Trazado 875246" d="M158.913,90.863a1.182,1.182,0,0,0-1.181-1.181h-2.858a1.182,1.182,0,0,0-1.181,1.181v2.858a1.182,1.182,0,0,0,1.181,1.181h2.858a1.182,1.182,0,0,0,1.181-1.181ZM157.5,93.485H155.11V91.1H157.5Z" transform="translate(-139.2 -81.225)"/>
          <path id="Trazado_875247-2" data-name="Trazado 875247" d="M308.168,90.863a1.182,1.182,0,0,0-1.181-1.181h-2.858a1.182,1.182,0,0,0-1.181,1.181v2.858a1.182,1.182,0,0,0,1.181,1.181h2.858a1.182,1.182,0,0,0,1.181-1.181Zm-1.417,2.622h-2.386V91.1h2.386Z" transform="translate(-274.381 -81.225)"/>
        </g>
      </g>
    </g>
  </g>
</svg>
