<svg xmlns="http://www.w3.org/2000/svg" width="91.542" height="91.541" viewBox="0 0 91.542 91.541">
  <g id="Grupo_1100285" data-name="Grupo 1100285" transform="translate(-321 5639.324)">
    <g id="Grupo_1098742" data-name="Grupo 1098742" transform="translate(321 -5639.324)">
      <rect id="Rect치ngulo_400898" data-name="Rect치ngulo 400898" width="91.541" height="91.541" rx="45.771" transform="translate(0.001 0)" fill="#769671" opacity="0.859"/>
      <rect id="Rect치ngulo_400907" data-name="Rect치ngulo 400907" width="91.541" height="91.541" rx="45.771" transform="translate(0 0)" fill="none"/>
    </g>
    <g id="smell" transform="translate(302.568 -5651.769)">
      <circle id="Elipse_11526" data-name="Elipse 11526" cx="22.76" cy="22.76" r="22.76" transform="translate(42.927 38.135)" fill="#ffe4b8"/>
      <path id="Elipse_11526_-_Contorno" data-name="Elipse 11526 - Contorno" d="M22.76-2.5A25.253,25.253,0,0,1,40.622,40.622,25.26,25.26,0,1,1,12.927-.514,25.1,25.1,0,0,1,22.76-2.5Zm0,45.521a20.266,20.266,0,0,0,7.886-38.93A20.266,20.266,0,0,0,14.875,41.43,20.131,20.131,0,0,0,22.76,43.021Z" transform="translate(42.927 38.135)" fill="#fff"/>
      <path id="Trazado_875676" data-name="Trazado 875676" d="M168.328,60.9c-.089-4.716.99-3.958-7.126-5.6-1.61-.326-3.285-2.464-3.285-6.57,0-1.427,2.686-3.3,5.276-6.237,5.312-5.4,8.2-10.716,12.66-13.289,8.455-2.858,11.007,3.269,5.085,8.8-3.592,4.724,1.935,13.45,1.633,18.751-.866,5.187-7.435,5.915-10.958,2.579" transform="translate(-91.755 0)" fill="#ffded5"/>
      <path id="Trazado_875676_-_Contorno" data-name="Trazado 875676 - Contorno" d="M176.782,63.857a10.125,10.125,0,0,1-2.177-.239,9.952,9.952,0,0,1-4.711-2.474l.267-.282-4.333.081c-.011-.594,0-1.113,0-1.53,0-.2.005-.419,0-.616-.63-.171-1.719-.382-2.855-.6-.663-.129-1.415-.275-2.272-.448a5.981,5.981,0,0,1-3.923-3.08,11.9,11.9,0,0,1-1.367-5.94c0-1.983,1.506-3.458,3.413-5.324.774-.757,1.65-1.615,2.488-2.566l.046-.052.048-.049c1.95-1.981,3.552-3.941,5.1-5.836,2.652-3.245,4.942-6.047,8.09-7.864l.215-.124.235-.079a13,13,0,0,1,6.28-.729,6.315,6.315,0,0,1,4.5,2.888,6.636,6.636,0,0,1,.416,5.553,12.918,12.918,0,0,1-3.42,5.107,5.168,5.168,0,0,0-.557,3.448,35.143,35.143,0,0,0,1.353,5.877c.813,2.821,1.581,5.486,1.443,7.916l-.008.135-.022.134a7.72,7.72,0,0,1-5.3,6.222A9.3,9.3,0,0,1,176.782,63.857ZM161.707,52.847c.834.169,1.573.312,2.225.439,2.919.567,4.251.826,5.324,1.642a3.848,3.848,0,0,1,1.475,2.47,10.942,10.942,0,0,1,.1,2.076c0,.214-.005.444-.006.69l2.51-2.651a5,5,0,0,0,4.818,1.129,2.737,2.737,0,0,0,1.931-2.173,23.836,23.836,0,0,0-1.261-6.108,38.65,38.65,0,0,1-1.525-6.776,9.68,9.68,0,0,1,1.653-7.1l.129-.169.155-.145c2.457-2.294,2.616-4.1,2.308-4.615s-1.833-.965-4.647-.066c-2.267,1.383-4.238,3.795-6.509,6.574-1.534,1.876-3.27,4-5.362,6.131-.944,1.066-1.874,1.976-2.7,2.781A19.734,19.734,0,0,0,160.42,49a6.992,6.992,0,0,0,.644,3.074A1.7,1.7,0,0,0,161.707,52.847Z" transform="translate(-91.755 0)" fill="#fff"/>
      <path id="Trazado_875677" data-name="Trazado 875677" d="M164.867,62.949A.989.989,0,0,1,164,61.48a3.8,3.8,0,0,0,.593-1.768c0-1.257-4.239-2.3-6.4-2.3-2.124,0-4.275-2.6-4.275-7.56,0-1.159,1.11-2.286,2.647-3.847.73-.742,1.485-1.509,2.154-2.319,4.759-5.759,11.822-13.325,11.892-13.4a.989.989,0,0,1,1.446,1.351c-.07.075-7.092,7.6-11.812,13.311-.724.877-1.545,1.711-2.27,2.447a10.445,10.445,0,0,0-2.079,2.474c0,3.577,1.359,5.564,2.3,5.564,1.663,0,8.382.76,8.382,4.275a5.786,5.786,0,0,1-.842,2.728.988.988,0,0,1-.866.51Z" transform="translate(-88.746 -1.13)" fill="#4c241d"/>
      <path id="Trazado_875677_-_Contorno" data-name="Trazado 875677 - Contorno" d="M164.867,65.449a3.489,3.489,0,0,1-3.354-2.529,3.462,3.462,0,0,1,.164-2.374,12.426,12.426,0,0,0-3.484-.631,6.054,6.054,0,0,1-5.047-3.082,13.083,13.083,0,0,1-1.728-6.978c0-2.182,1.558-3.765,3.363-5.6l.025-.026c.685-.7,1.393-1.416,1.985-2.133,4.581-5.543,11.235-12.7,11.979-13.5l.01-.011a3.489,3.489,0,0,1,4.939-.169,3.489,3.489,0,0,1,.164,4.93c-.069.074-7.044,7.547-11.711,13.2-.793.961-1.655,1.836-2.416,2.609-.316.321-.955.97-1.338,1.409a6.362,6.362,0,0,0,.556,2.405,20.3,20.3,0,0,1,4.825.918c4.591,1.531,5.276,4.308,5.276,5.827a8.138,8.138,0,0,1-1.156,3.942A3.489,3.489,0,0,1,164.867,65.449Z" transform="translate(-88.746 -1.13)" fill="#fff"/>
      <g id="Grupo_1100278" data-name="Grupo 1100278" transform="translate(75.004 50.447)">
        <path id="Trazado_875678" data-name="Trazado 875678" d="M197.761,124.11s-1.126-6.835,5.558.883h-2.474" transform="translate(-196.692 -120.322)" fill="#6b4f5b"/>
        <path id="Trazado_875678_-_Contorno" data-name="Trazado 875678 - Contorno" d="M208.792,127.493h-7.947v-1.522a13.542,13.542,0,0,0-2.146-2.015l-3.4.561a8.939,8.939,0,0,1-.1-1.7,5.575,5.575,0,0,1,.3-1.657,3.391,3.391,0,0,1,4.1-2.233,5.655,5.655,0,0,1,1.817.835,20.267,20.267,0,0,1,3.791,3.6Z" transform="translate(-196.692 -120.322)" fill="#fff"/>
        <path id="Trazado_875679" data-name="Trazado 875679" d="M200.284,122.954H197.81a.99.99,0,0,1,0-1.979h.21c-1.4-1.394-2.057-1.643-2.266-1.687a3.86,3.86,0,0,0-.05,1.635.99.99,0,0,1-1.953.32c-.117-.7-.378-3.06,1.141-3.772,1.4-.657,3.238.495,6.14,3.846a.99.99,0,0,1-.748,1.638Z" transform="translate(-193.656 -117.294)" fill="#4c241d"/>
        <path id="Trazado_875679_-_Contorno" data-name="Trazado 875679 - Contorno" d="M200.284,125.454H197.81a3.477,3.477,0,0,1-2.394-.953l-.121.022a3.484,3.484,0,0,1-4.011-2.873,9.01,9.01,0,0,1-.051-2.647,4.725,4.725,0,0,1,2.6-3.8,4.338,4.338,0,0,1,1.856-.413c2.134,0,4.231,1.416,7.236,4.886a3.5,3.5,0,0,1,.692,3.326l.473.469h-.657A3.5,3.5,0,0,1,200.284,125.454Z" transform="translate(-193.656 -117.294)" fill="#fff"/>
      </g>
      <g id="Grupo_1100279" data-name="Grupo 1100279" transform="translate(53.279 28.736)">
        <path id="Trazado_875680" data-name="Trazado 875680" d="M211.826,125.33a7.887,7.887,0,0,1-1.8-.2.989.989,0,0,1,.488-1.918c.034.008,2.523.608,3.767-.7,1.035-1.093,1.059-3.374.068-6.6a.99.99,0,0,1,1.892-.582c1.233,4.008,1.053,6.884-.532,8.548A5.253,5.253,0,0,1,211.826,125.33Z" transform="translate(-183.691 -93.577)" fill="#4c241d"/>
        <path id="Trazado_875680_-_Contorno" data-name="Trazado 875680 - Contorno" d="M211.826,127.83a10.333,10.333,0,0,1-2.414-.278l-.008,0a3.489,3.489,0,0,1,1.687-6.772,3.905,3.905,0,0,0,.757.076,1.844,1.844,0,0,0,.613-.081c.082-.211.376-1.273-.5-4.127a3.49,3.49,0,0,1,6.67-2.056c1.52,4.94,1.145,8.643-1.111,11.011A7.624,7.624,0,0,1,211.826,127.83Z" transform="translate(-183.691 -93.577)" fill="#fff"/>
        <path id="Trazado_875681" data-name="Trazado 875681" d="M151.3,35.638a3.053,3.053,0,1,1,3.053-3.053A3.056,3.056,0,0,1,151.3,35.638Zm0-4.126a1.073,1.073,0,1,0,1.074,1.073A1.074,1.074,0,0,0,151.3,31.512Z" transform="translate(-137.759 -29.533)" fill="#4c241d"/>
        <path id="Trazado_875681_-_Contorno" data-name="Trazado 875681 - Contorno" d="M151.3,38.138a5.553,5.553,0,1,1,5.553-5.553A5.559,5.559,0,0,1,151.3,38.138Zm0-6.105a.553.553,0,1,0,.553.552A.553.553,0,0,0,151.3,32.033Z" transform="translate(-137.759 -29.533)" fill="#fff"/>
        <path id="Trazado_875682" data-name="Trazado 875682" d="M107.77,129.331a.99.99,0,0,1-.719-1.67c.53-.56.785-1.058.7-1.369-.056-.206-.361-.433-.656-.653a2.416,2.416,0,0,1-1.252-1.916,3.512,3.512,0,0,1,2.542-3.245.99.99,0,0,1,.642,1.873,1.6,1.6,0,0,0-1.2,1.372c.033.015.287.2.455.329a3.261,3.261,0,0,1,1.383,1.721,3.416,3.416,0,0,1-1.172,3.249A.99.99,0,0,1,107.77,129.331Z" transform="translate(-105.844 -97.938)" fill="#4c241d"/>
        <path id="Trazado_875682_-_Contorno" data-name="Trazado 875682 - Contorno" d="M107.77,131.831a3.49,3.49,0,0,1-3.139-5.015,4.341,4.341,0,0,1-1.287-3.092,5.643,5.643,0,0,1,1.223-3.506,6.445,6.445,0,0,1,3.008-2.1,3.489,3.489,0,0,1,3.814,5.531,4.835,4.835,0,0,1,.684,1.474c.362,1.328.35,3.384-1.769,5.622l0,.005A3.509,3.509,0,0,1,107.77,131.831Z" transform="translate(-105.844 -97.938)" fill="#fff"/>
        <path id="Trazado_875683" data-name="Trazado 875683" d="M123.77,105.33a.99.99,0,0,1-.719-1.67c.53-.56.785-1.058.7-1.369-.056-.206-.361-.433-.656-.653a2.416,2.416,0,0,1-1.252-1.916,3.512,3.512,0,0,1,2.541-3.245.99.99,0,0,1,.642,1.873,1.6,1.6,0,0,0-1.2,1.372c.033.015.287.2.455.329a3.261,3.261,0,0,1,1.383,1.721,3.416,3.416,0,0,1-1.172,3.249.99.99,0,0,1-.719.309Z" transform="translate(-117.886 -79.875)" fill="#4c241d"/>
        <path id="Trazado_875683_-_Contorno" data-name="Trazado 875683 - Contorno" d="M123.77,107.831a3.49,3.49,0,0,1-3.139-5.015,4.341,4.341,0,0,1-1.287-3.093,5.643,5.643,0,0,1,1.223-3.506,6.445,6.445,0,0,1,3.008-2.1,3.489,3.489,0,0,1,3.814,5.531,4.835,4.835,0,0,1,.684,1.474c.362,1.328.35,3.384-1.769,5.622l0,.005A3.509,3.509,0,0,1,123.77,107.831Z" transform="translate(-117.886 -79.875)" fill="#fff"/>
      </g>
      <g id="Grupo_1100280" data-name="Grupo 1100280" transform="translate(36 62.875)">
        <path id="Trazado_875684" data-name="Trazado 875684" d="M49.4,184.392H46.385a6.432,6.432,0,0,1,0-12.865H49.4a1.485,1.485,0,0,1,1.484,1.484v9.9A1.484,1.484,0,0,1,49.4,184.392Zm-3.016-9.9a3.464,3.464,0,0,0,0,6.927h1.532V174.5Z" transform="translate(-39.01 -170.538)" fill="#fff"/>
        <path id="Trazado_875684_-_Contorno" data-name="Trazado 875684 - Contorno" d="M49.4,186.892H46.385a8.941,8.941,0,0,1-6.29-15.239,8.788,8.788,0,0,1,6.29-2.625H49.4a3.989,3.989,0,0,1,3.984,3.984v9.9A3.989,3.989,0,0,1,49.4,186.892Z" transform="translate(-39.01 -170.538)" fill="#fff"/>
        <path id="Trazado_875685" data-name="Trazado 875685" d="M46.391,182.372H43.375a7.422,7.422,0,0,1,0-14.844h3.016A2.476,2.476,0,0,1,48.865,170v9.9a2.476,2.476,0,0,1-2.474,2.474Zm-3.016-12.865a5.443,5.443,0,0,0,0,10.885h3.016a.5.5,0,0,0,.495-.495V170a.5.5,0,0,0-.495-.495Zm1.532,9.9H43.375a4.453,4.453,0,0,1,0-8.906h1.532a.989.989,0,0,1,.99.99v6.927A.989.989,0,0,1,44.906,179.4Zm-1.532-6.927a2.474,2.474,0,0,0,0,4.948h.542v-4.948Z" transform="translate(-36 -167.528)" fill="#4c241d"/>
        <path id="Trazado_875685_-_Contorno" data-name="Trazado 875685 - Contorno" d="M46.391,184.872H43.375a9.922,9.922,0,0,1,0-19.844h3.016A4.98,4.98,0,0,1,51.365,170v9.9a4.979,4.979,0,0,1-4.974,4.974Z" transform="translate(-36 -167.528)" fill="#fff"/>
      </g>
      <g id="Grupo_1100281" data-name="Grupo 1100281" transform="translate(43.917 62.875)">
        <path id="Trazado_875686" data-name="Trazado 875686" d="M84.865,195.277A12.865,12.865,0,0,1,72,182.412V171.527H97.729v10.885A12.865,12.865,0,0,1,84.865,195.277Z" transform="translate(-71.01 -170.537)" fill="#fff"/>
        <path id="Trazado_875686_-_Contorno" data-name="Trazado 875686 - Contorno" d="M84.865,197.777A15.354,15.354,0,0,1,69.5,182.412V169.027h30.729v13.385a15.354,15.354,0,0,1-15.365,15.365ZM74.5,174.027v8.385a10.365,10.365,0,0,0,20.729,0v-8.385Z" transform="translate(-71.01 -170.537)" fill="#fff"/>
        <path id="Trazado_875687" data-name="Trazado 875687" d="M81.854,193.256A13.87,13.87,0,0,1,68,179.4V168.517a.989.989,0,0,1,.99-.99H94.719a.989.989,0,0,1,.99.99V179.4A13.87,13.87,0,0,1,81.854,193.256Zm-11.875-23.75v9.9a11.875,11.875,0,0,0,23.75,0v-9.9Z" transform="translate(-68 -167.527)" fill="#4c241d"/>
        <path id="Trazado_875687_-_Contorno" data-name="Trazado 875687 - Contorno" d="M81.854,195.756A16.373,16.373,0,0,1,65.5,179.4V168.517a3.494,3.494,0,0,1,3.49-3.49H94.719a3.494,3.494,0,0,1,3.49,3.49V179.4A16.373,16.373,0,0,1,81.854,195.756Zm-9.375-23.75v7.4a9.375,9.375,0,0,0,18.75,0v-7.4Z" transform="translate(-68 -167.527)" fill="#fff"/>
      </g>
      <g id="Grupo_1100282" data-name="Grupo 1100282" transform="translate(43.917 62.875)">
        <path id="Trazado_875688" data-name="Trazado 875688" d="M72,171.527v8.411a1.484,1.484,0,0,0,2.969,0V176.97a1.484,1.484,0,0,0,2.969,0V183.9a1.484,1.484,0,0,0,2.969,0v-5.937a1.484,1.484,0,0,0,2.969,0v-6.432Z" transform="translate(-71.01 -170.537)" fill="#bf7e68"/>
        <path id="Trazado_875688_-_Contorno" data-name="Trazado 875688 - Contorno" d="M69.5,169.027H86.375v8.932a3.992,3.992,0,0,1-2.969,3.853V183.9a3.984,3.984,0,1,1-7.969,0v-.486a3.983,3.983,0,0,1-5.938-3.472Z" transform="translate(-71.01 -170.537)" fill="#fff"/>
        <path id="Trazado_875689" data-name="Trazado 875689" d="M76.411,183.36a2.476,2.476,0,0,1-2.474-2.474v-4.5a2.5,2.5,0,0,1-.99,0v.545a2.474,2.474,0,1,1-4.948,0v-8.411a.989.989,0,0,1,.99-.99H80.865a.989.989,0,0,1,.99.99v6.432a2.475,2.475,0,0,1-2.969,2.424v3.513A2.476,2.476,0,0,1,76.411,183.36Zm-.495-9.4v6.927a.495.495,0,0,0,.99,0v-5.938a.99.99,0,1,1,1.979,0,.495.495,0,1,0,.99,0v-5.443h-9.9v7.422a.495.495,0,0,0,.99,0v-2.969a.99.99,0,0,1,1.979,0,.495.495,0,1,0,.99,0,.99.99,0,0,1,1.979,0Z" transform="translate(-68 -167.527)" fill="#4c241d"/>
        <path id="Trazado_875689_-_Contorno" data-name="Trazado 875689 - Contorno" d="M76.411,185.86a4.982,4.982,0,0,1-4.891-4.069,4.976,4.976,0,0,1-6.02-4.863v-8.411a3.494,3.494,0,0,1,3.49-3.49H80.865a3.494,3.494,0,0,1,3.49,3.49v6.432a4.982,4.982,0,0,1-2.969,4.552v1.386A4.98,4.98,0,0,1,76.411,185.86Z" transform="translate(-68 -167.527)" fill="#fff"/>
      </g>
      <g id="Grupo_1100283" data-name="Grupo 1100283" transform="translate(40.948 86.625)">
        <path id="Trazado_875690" data-name="Trazado 875690" d="M60,267.527h42.552" transform="translate(-59.01 -266.537)" fill="#bf7e68"/>
        <path id="Trazado_875690_-_Contorno" data-name="Trazado 875690 - Contorno" d="M102.552,270.027H60v-5h42.552Z" transform="translate(-59.01 -266.537)" fill="#fff"/>
        <path id="Trazado_875691" data-name="Trazado 875691" d="M99.542,265.506H56.99a.99.99,0,0,1,0-1.979H99.542a.99.99,0,0,1,0,1.979Z" transform="translate(-56 -263.527)" fill="#4c241d"/>
        <path id="Trazado_875691_-_Contorno" data-name="Trazado 875691 - Contorno" d="M99.542,268.006H56.99a3.49,3.49,0,0,1,0-6.979H99.542a3.49,3.49,0,0,1,0,6.979Z" transform="translate(-56 -263.527)" fill="#fff"/>
      </g>
    </g>
    <g id="smell-2" data-name="smell" transform="translate(302.568 -5651.769)">
      <circle id="Elipse_11526-2" data-name="Elipse 11526" cx="22.76" cy="22.76" r="22.76" transform="translate(42.927 38.135)" fill="#ffe4b8"/>
      <path id="Trazado_875676-2" data-name="Trazado 875676" d="M168.328,60.9c-.089-4.716.99-3.958-7.126-5.6-1.61-.326-3.285-2.464-3.285-6.57,0-1.427,2.686-3.3,5.276-6.237,5.312-5.4,8.2-10.716,12.66-13.289,8.455-2.858,11.007,3.269,5.085,8.8-3.592,4.724,1.935,13.45,1.633,18.751-.866,5.187-7.435,5.915-10.958,2.579" transform="translate(-91.755 0)" fill="#ffded5"/>
      <path id="Trazado_875677-2" data-name="Trazado 875677" d="M164.867,62.949A.989.989,0,0,1,164,61.48a3.8,3.8,0,0,0,.593-1.768c0-1.257-4.239-2.3-6.4-2.3-2.124,0-4.275-2.6-4.275-7.56,0-1.159,1.11-2.286,2.647-3.847.73-.742,1.485-1.509,2.154-2.319,4.759-5.759,11.822-13.325,11.892-13.4a.989.989,0,0,1,1.446,1.351c-.07.075-7.092,7.6-11.812,13.311-.724.877-1.545,1.711-2.27,2.447a10.445,10.445,0,0,0-2.079,2.474c0,3.577,1.359,5.564,2.3,5.564,1.663,0,8.382.76,8.382,4.275a5.786,5.786,0,0,1-.842,2.728.988.988,0,0,1-.866.51Z" transform="translate(-88.746 -1.13)" fill="#4c241d"/>
      <g id="Grupo_1100278-2" data-name="Grupo 1100278" transform="translate(75.004 50.447)">
        <path id="Trazado_875678-2" data-name="Trazado 875678" d="M197.761,124.11s-1.126-6.835,5.558.883h-2.474" transform="translate(-196.692 -120.322)" fill="#6b4f5b"/>
        <path id="Trazado_875679-2" data-name="Trazado 875679" d="M200.284,122.954H197.81a.99.99,0,0,1,0-1.979h.21c-1.4-1.394-2.057-1.643-2.266-1.687a3.86,3.86,0,0,0-.05,1.635.99.99,0,0,1-1.953.32c-.117-.7-.378-3.06,1.141-3.772,1.4-.657,3.238.495,6.14,3.846a.99.99,0,0,1-.748,1.638Z" transform="translate(-193.656 -117.294)" fill="#4c241d"/>
      </g>
      <g id="Grupo_1100279-2" data-name="Grupo 1100279" transform="translate(53.279 28.736)">
        <path id="Trazado_875680-2" data-name="Trazado 875680" d="M211.826,125.33a7.887,7.887,0,0,1-1.8-.2.989.989,0,0,1,.488-1.918c.034.008,2.523.608,3.767-.7,1.035-1.093,1.059-3.374.068-6.6a.99.99,0,0,1,1.892-.582c1.233,4.008,1.053,6.884-.532,8.548A5.253,5.253,0,0,1,211.826,125.33Z" transform="translate(-183.691 -93.577)" fill="#4c241d"/>
        <path id="Trazado_875681-2" data-name="Trazado 875681" d="M151.3,35.638a3.053,3.053,0,1,1,3.053-3.053A3.056,3.056,0,0,1,151.3,35.638Zm0-4.126a1.073,1.073,0,1,0,1.074,1.073A1.074,1.074,0,0,0,151.3,31.512Z" transform="translate(-137.759 -29.533)" fill="#4c241d"/>
        <path id="Trazado_875682-2" data-name="Trazado 875682" d="M107.77,129.331a.99.99,0,0,1-.719-1.67c.53-.56.785-1.058.7-1.369-.056-.206-.361-.433-.656-.653a2.416,2.416,0,0,1-1.252-1.916,3.512,3.512,0,0,1,2.542-3.245.99.99,0,0,1,.642,1.873,1.6,1.6,0,0,0-1.2,1.372c.033.015.287.2.455.329a3.261,3.261,0,0,1,1.383,1.721,3.416,3.416,0,0,1-1.172,3.249A.99.99,0,0,1,107.77,129.331Z" transform="translate(-105.844 -97.938)" fill="#4c241d"/>
        <path id="Trazado_875683-2" data-name="Trazado 875683" d="M123.77,105.33a.99.99,0,0,1-.719-1.67c.53-.56.785-1.058.7-1.369-.056-.206-.361-.433-.656-.653a2.416,2.416,0,0,1-1.252-1.916,3.512,3.512,0,0,1,2.541-3.245.99.99,0,0,1,.642,1.873,1.6,1.6,0,0,0-1.2,1.372c.033.015.287.2.455.329a3.261,3.261,0,0,1,1.383,1.721,3.416,3.416,0,0,1-1.172,3.249.99.99,0,0,1-.719.309Z" transform="translate(-117.886 -79.875)" fill="#4c241d"/>
      </g>
      <g id="Grupo_1100280-2" data-name="Grupo 1100280" transform="translate(36 62.875)">
        <path id="Trazado_875684-2" data-name="Trazado 875684" d="M49.4,184.392H46.385a6.432,6.432,0,0,1,0-12.865H49.4a1.485,1.485,0,0,1,1.484,1.484v9.9A1.484,1.484,0,0,1,49.4,184.392Zm-3.016-9.9a3.464,3.464,0,0,0,0,6.927h1.532V174.5Z" transform="translate(-39.01 -170.538)" fill="#fff"/>
        <path id="Trazado_875685-2" data-name="Trazado 875685" d="M46.391,182.372H43.375a7.422,7.422,0,0,1,0-14.844h3.016A2.476,2.476,0,0,1,48.865,170v9.9a2.476,2.476,0,0,1-2.474,2.474Zm-3.016-12.865a5.443,5.443,0,0,0,0,10.885h3.016a.5.5,0,0,0,.495-.495V170a.5.5,0,0,0-.495-.495Zm1.532,9.9H43.375a4.453,4.453,0,0,1,0-8.906h1.532a.989.989,0,0,1,.99.99v6.927A.989.989,0,0,1,44.906,179.4Zm-1.532-6.927a2.474,2.474,0,0,0,0,4.948h.542v-4.948Z" transform="translate(-36 -167.528)" fill="#4c241d"/>
      </g>
      <g id="Grupo_1100281-2" data-name="Grupo 1100281" transform="translate(43.917 62.875)">
        <path id="Trazado_875686-2" data-name="Trazado 875686" d="M84.865,195.277A12.865,12.865,0,0,1,72,182.412V171.527H97.729v10.885A12.865,12.865,0,0,1,84.865,195.277Z" transform="translate(-71.01 -170.537)" fill="#fff"/>
        <path id="Trazado_875687-2" data-name="Trazado 875687" d="M81.854,193.256A13.87,13.87,0,0,1,68,179.4V168.517a.989.989,0,0,1,.99-.99H94.719a.989.989,0,0,1,.99.99V179.4A13.87,13.87,0,0,1,81.854,193.256Zm-11.875-23.75v9.9a11.875,11.875,0,0,0,23.75,0v-9.9Z" transform="translate(-68 -167.527)" fill="#4c241d"/>
      </g>
      <g id="Grupo_1100282-2" data-name="Grupo 1100282" transform="translate(43.917 62.875)">
        <path id="Trazado_875688-2" data-name="Trazado 875688" d="M72,171.527v8.411a1.484,1.484,0,0,0,2.969,0V176.97a1.484,1.484,0,0,0,2.969,0V183.9a1.484,1.484,0,0,0,2.969,0v-5.937a1.484,1.484,0,0,0,2.969,0v-6.432Z" transform="translate(-71.01 -170.537)" fill="#bf7e68"/>
        <path id="Trazado_875689-2" data-name="Trazado 875689" d="M76.411,183.36a2.476,2.476,0,0,1-2.474-2.474v-4.5a2.5,2.5,0,0,1-.99,0v.545a2.474,2.474,0,1,1-4.948,0v-8.411a.989.989,0,0,1,.99-.99H80.865a.989.989,0,0,1,.99.99v6.432a2.475,2.475,0,0,1-2.969,2.424v3.513A2.476,2.476,0,0,1,76.411,183.36Zm-.495-9.4v6.927a.495.495,0,0,0,.99,0v-5.938a.99.99,0,1,1,1.979,0,.495.495,0,1,0,.99,0v-5.443h-9.9v7.422a.495.495,0,0,0,.99,0v-2.969a.99.99,0,0,1,1.979,0,.495.495,0,1,0,.99,0,.99.99,0,0,1,1.979,0Z" transform="translate(-68 -167.527)" fill="#4c241d"/>
      </g>
      <g id="Grupo_1100283-2" data-name="Grupo 1100283" transform="translate(40.948 86.625)">
        <path id="Trazado_875690-2" data-name="Trazado 875690" d="M60,267.527h42.552" transform="translate(-59.01 -266.537)" fill="#bf7e68"/>
        <path id="Trazado_875691-2" data-name="Trazado 875691" d="M99.542,265.506H56.99a.99.99,0,0,1,0-1.979H99.542a.99.99,0,0,1,0,1.979Z" transform="translate(-56 -263.527)" fill="#4c241d"/>
      </g>
    </g>
  </g>
</svg>
