<svg xmlns="http://www.w3.org/2000/svg" width="91.542" height="91.541" viewBox="0 0 91.542 91.541">
  <g id="Grupo_1100276" data-name="Grupo 1100276" transform="translate(648 5294)">
    <g id="Grupo_1100275" data-name="Grupo 1100275">
      <g id="Grupo_1098742" data-name="Grupo 1098742" transform="translate(-648 -5294)">
        <rect id="Rect치ngulo_400898" data-name="Rect치ngulo 400898" width="91.541" height="91.541" rx="45.771" transform="translate(0.001 0)" fill="#769671" opacity="0.859"/>
        <rect id="Rect치ngulo_400907" data-name="Rect치ngulo 400907" width="91.541" height="91.541" rx="45.771" transform="translate(0 0)" fill="none"/>
      </g>
      <g id="filled_outline" data-name="filled outline" transform="translate(-645 -5321)">
        <path id="Trazado_875661" data-name="Trazado 875661" d="M189.676,81.18l-.9,7.194,1.28,8.963-15.179,2.64-2.288-8.006-3.189.8a3.6,3.6,0,0,1-4.449-3.1l-1.014-9.385-3.038.694-.9.206.9-2.248,2.084-5.211.614-1.533L161.8,60.5l4.167-2.083A22.846,22.846,0,0,1,176.187,56a13.49,13.49,0,0,1,13.489,13.489Z" transform="translate(-127.813 -7.101)" fill="#fec093"/>
        <path id="Trazado_875661_-_Contorno" data-name="Trazado 875661 - Contorno" d="M173.092,102.825l-2.241-7.842-.844.211a6.1,6.1,0,0,1-7.541-5.259l-.712-6.591-5.847,1.337,5.115-12.789-1.972-12.817,5.8-2.9A25.474,25.474,0,0,1,176.186,53.5a15.979,15.979,0,0,1,15.991,15.989V81.336l-.877,7.017,1.575,11.032Zm1.238-13.865,2.334,8.169,10.575-1.839-.984-6.893.921-7.372V69.489A10.99,10.99,0,0,0,176.187,58.5a20.451,20.451,0,0,0-9.1,2.149l-2.537,1.268,1.625,10.564-2.08,5.2,2.029-.463L167.437,89.4a1.1,1.1,0,0,0,1.357.946Z" transform="translate(-127.813 -7.101)" fill="#fff"/>
        <path id="Trazado_875662" data-name="Trazado 875662" d="M294.33,368.93l.5,3.493-15.288,3.6-1.071-3.75Z" transform="translate(-232.966 -284.854)" fill="#24447f"/>
        <path id="Trazado_875662_-_Contorno" data-name="Trazado 875662 - Contorno" d="M296.427,365.934l1.2,8.4L277.792,379l-2.463-8.623Z" transform="translate(-232.966 -284.854)" fill="#fff"/>
        <path id="Trazado_875663" data-name="Trazado 875663" d="M189.676,81.18l-4.125,1.547a2.7,2.7,0,0,1-3.608-2.083l-1.26-7.558h-4.5l-.9,6.295a3.6,3.6,0,0,1-3.6-3.6v-4.5l-2.7-5.845-4.138.621A4.228,4.228,0,0,1,160,61.882a.787.787,0,0,1,.435-.7l5.531-2.765A22.856,22.856,0,0,1,176.187,56a13.489,13.489,0,0,1,13.489,13.489Z" transform="translate(-127.813 -7.101)" fill="#bc6549"/>
        <path id="Trazado_875663_-_Contorno" data-name="Trazado 875663 - Contorno" d="M184.6,85.4a5.2,5.2,0,0,1-5.127-4.343l-.911-5.469h-.21l-.9,6.295h-2.168a6.1,6.1,0,0,1-6.1-6.1V71.837l-1.682-3.644-2.283.342a6.728,6.728,0,0,1-7.726-6.653,3.269,3.269,0,0,1,1.817-2.94l5.531-2.765A25.485,25.485,0,0,1,176.187,53.5a15.978,15.978,0,0,1,15.989,15.989V82.913l-5.747,2.155A5.18,5.18,0,0,1,184.6,85.4ZM174.12,70.586H182.8l1.608,9.647a.2.2,0,0,0,.265.153l2.5-.938V69.489A10.989,10.989,0,0,0,176.187,58.5a20.46,20.46,0,0,0-9.1,2.149l-4.316,2.158a1.728,1.728,0,0,0,1.716.784l5.993-.9Z" transform="translate(-127.813 -7.101)" fill="#fff"/>
        <path id="Trazado_875664" data-name="Trazado 875664" d="M297.071,208.094h-.182A.889.889,0,0,1,296,207.2V201.43a1.43,1.43,0,0,1,1.43-1.43h2.343a2.023,2.023,0,0,1,1.975,2.462l-.508,2.287A4.271,4.271,0,0,1,297.071,208.094Z" transform="translate(-248.525 -134.914)" fill="#f5af7d"/>
        <path id="Trazado_875664_-_Contorno" data-name="Trazado 875664 - Contorno" d="M297.071,210.594h-.182A3.393,3.393,0,0,1,293.5,207.2V201.43a3.934,3.934,0,0,1,3.93-3.93h2.343a4.523,4.523,0,0,1,4.416,5.5l-.508,2.287a6.771,6.771,0,0,1-6.609,5.3ZM298.5,202.5v2.372a1.781,1.781,0,0,0,.3-.665l.379-1.707Z" transform="translate(-248.525 -134.914)" fill="#fff"/>
        <path id="Trazado_875665" data-name="Trazado 875665" d="M123.171,253.538l.853,7.892-4.27,2.663-5.683-9.112,6.062-3.781v3.032Z" transform="translate(-87.046 -180.358)" fill="#e51c23"/>
        <path id="Trazado_875665_-_Contorno" data-name="Trazado 875665 - Contorno" d="M122.632,246.694v4.4l2.722-.621,1.324,12.246-7.723,4.816-8.329-13.354Zm-1.262,13.445-.383-3.538-2.592.592,2.156,3.457Z" transform="translate(-87.046 -180.358)" fill="#fff"/>
        <path id="Trazado_875666" data-name="Trazado 875666" d="M235.9,198.116V187.34a2.55,2.55,0,0,0-.519-1.558l4.748-2.962,5.685,9.113Z" transform="translate(-194.719 -119.665)" fill="#e51c23"/>
        <path id="Trazado_875666_-_Contorno" data-name="Trazado 875666 - Contorno" d="M233.4,202.621v-15.3a.05.05,0,0,0-.01-.031l-1.658-2.183,9.195-5.736,8.331,13.356Zm5-15.276v6.265l3.969-2.475-3.038-4.871-.953.594Q238.4,187.1,238.4,187.345Z" transform="translate(-194.719 -119.665)" fill="#fff"/>
        <path id="Trazado_875667" data-name="Trazado 875667" d="M175.574,201.049,168,205.774V204.3a2.7,2.7,0,0,1,1.387-2.358l.7-.388,2.168-1.2A2.585,2.585,0,0,1,175.574,201.049Z" transform="translate(-134.914 -134.932)" fill="#f5af7d"/>
        <path id="Trazado_875667_-_Contorno" data-name="Trazado 875667 - Contorno" d="M173.509,197.52a5.112,5.112,0,0,1,4.061,2.023l1.645,2.181L165.5,210.28V204.3a5.2,5.2,0,0,1,2.672-4.543l2.867-1.593A5.09,5.09,0,0,1,173.509,197.52Z" transform="translate(-134.914 -134.932)" fill="#fff"/>
        <path id="Trazado_875668" data-name="Trazado 875668" d="M212.594,313.116l-6.672,4.447-.606.758a3.593,3.593,0,0,1-2.536-3.056l-.161-1.493,4.2-2.621v1.017l2.69-1.613a2.7,2.7,0,0,1,3.3.4,1.4,1.4,0,0,1-.214,2.157Z" transform="translate(-165.642 -232.699)" fill="#f5af7d"/>
        <path id="Trazado_875668_-_Contorno" data-name="Trazado 875668 - Contorno" d="M209.322,306.643v1.271a5.2,5.2,0,0,1,5.252,1.275,3.9,3.9,0,0,1-.592,6.006l-6.35,4.233-1.419,1.774-1.618-.488a6.082,6.082,0,0,1-4.3-5.183l-.329-3.051Z" transform="translate(-165.642 -232.699)" fill="#fff"/>
        <path id="Trazado_875669" data-name="Trazado 875669" d="M176.094,210.728V221.5l-4.2,2.621-.853-7.892-3.038.694v-3.032l7.574-4.725A2.55,2.55,0,0,1,176.094,210.728Z" transform="translate(-134.914 -143.053)" fill="#c9191f"/>
        <path id="Trazado_875669_-_Contorno" data-name="Trazado 875669 - Contorno" d="M176.186,205.842l1.379,1.816a5.077,5.077,0,0,1,1.029,3.075v12.158l-8.759,5.464-.979-9.06-3.355.766v-7.554Zm-2.592,10.766v-3.256l-.33.206Z" transform="translate(-134.914 -143.053)" fill="#fff"/>
        <path id="Trazado_875670" data-name="Trazado 875670" d="M35.54,200.414l-2.865,1.592a2.7,2.7,0,0,0-1.388,2.358v12.8L16,233.352H27.691l10.791-13.489,6.672-4.448a1.4,1.4,0,0,0,.214-2.156,2.7,2.7,0,0,0-3.3-.406l-2.69,1.614V202.674a2.585,2.585,0,0,0-3.841-2.26Z" transform="translate(0 -134.992)" fill="#fec093"/>
        <path id="Trazado_875670_-_Contorno" data-name="Trazado 875670 - Contorno" d="M36.8,197.588h0a5.085,5.085,0,0,1,5.085,5.085v7.54a5.2,5.2,0,0,1,5.254,1.277,3.9,3.9,0,0,1-.595,6l-6.349,4.232-11.3,14.124H10.2l18.588-19.681V204.364a5.2,5.2,0,0,1,2.674-4.544l2.865-1.592A5.1,5.1,0,0,1,36.8,197.588Zm.085,20.337V202.674a.085.085,0,0,0-.127-.075l-2.865,1.592a.2.2,0,0,0-.1.173v13.8L21.8,230.852h4.689L36.772,218Z" transform="translate(0 -134.992)" fill="#fff"/>
        <path id="Trazado_875671" data-name="Trazado 875671" d="M147.166,404.251v5.174H104a3.347,3.347,0,0,1,2.636-3.271l18.047-3.923,15.288-3.6a5.79,5.79,0,0,1,7.194,5.617Z" transform="translate(-78.108 -311.066)" fill="#3f51b5"/>
        <path id="Trazado_875671_-_Contorno" data-name="Trazado 875671 - Contorno" d="M149.666,411.926H101.5v-2.5a5.847,5.847,0,0,1,4.605-5.714l18.027-3.919,15.252-3.589a8.29,8.29,0,0,1,10.282,8.047Zm-34.808-5h29.808v-2.674a3.269,3.269,0,0,0-1.265-2.593,3.289,3.289,0,0,0-2.823-.6l-.034.008-15.329,3.607Z" transform="translate(-78.108 -311.066)" fill="#fff"/>
        <path id="Trazado_875672" data-name="Trazado 875672" d="M69.314,87.913a6.64,6.64,0,0,0-4.761-1.387L63.8,81.265l.884-7.075h0a.912.912,0,0,0,.009-.111V62.389A14.389,14.389,0,0,0,50.3,48,23.868,23.868,0,0,0,39.68,50.508l-5.528,2.764a1.685,1.685,0,0,0-.935,1.51,5.128,5.128,0,0,0,2.7,4.513l.846,5.493-2.591,1.439a3.6,3.6,0,0,0-1.849,3.145v2.093l-3.84,2.4a.9.9,0,0,0-.287,1.239l4.127,6.617v.1L18.174,96.844l1.31,1.233L33.872,82.789a.9.9,0,0,0,.244-.616v-12.8a1.8,1.8,0,0,1,.924-1.572l2.869-1.594c.025-.014.051-.027.076-.039L38,66.16a1.686,1.686,0,0,1,2.412,1.522V79.475a.9.9,0,0,0,1.362.771l2.69-1.614a1.8,1.8,0,0,1,2.2.27.5.5,0,0,1-.077.772l-6.672,4.448a.9.9,0,0,0-.209.194l-7.43,9.458-2.007.436a4.272,4.272,0,0,0-3.344,4.15h1.8a2.463,2.463,0,0,1,1.928-2.392L48.7,92.044l.015,0h0L64,88.444l.012,0a4.891,4.891,0,0,1,6.077,4.744V98.36h1.8V93.186a6.648,6.648,0,0,0-2.573-5.273Zm-39.121-13,2.126-1.326v4.734ZM49.135,90.094l-.571-2L62.54,85.155l.247,1.727Zm-8.65-37.977A22.062,22.062,0,0,1,50.3,49.8a12.591,12.591,0,0,1,12.59,12.589V73.456l-3.541,1.328A1.8,1.8,0,0,1,56.947,73.4l-.931-5.589.014-.063a2.922,2.922,0,0,0-2.853-3.557H50.834a2.325,2.325,0,0,0-1.47.517L48.1,62.679a.9.9,0,0,0-1.239-.287l-.694.433-2.243-4.86a.9.9,0,0,0-.95-.513l-4.138.621a3.328,3.328,0,0,1-3.822-3.222ZM53.766,69.641a3.362,3.362,0,0,1-.552,1.233l-2.86-4.584a.527.527,0,0,1,.48-.3h2.343a1.123,1.123,0,0,1,1.1,1.367ZM40.579,64.731a3.475,3.475,0,0,0-2.091-.528l-.665-4.322a5.128,5.128,0,0,0,1.281-.029l3.471-.52,2.055,4.453-3.047,1.9a3.486,3.486,0,0,0-1-.955ZM42.21,77.887v-10.2c0-.088,0-.175-.011-.262l4.852-3.026,4.732,7.588Zm5.372,3.284a2.3,2.3,0,0,0,.351-3.54,3.608,3.608,0,0,0-.821-.615l5.344-3.333a5.158,5.158,0,0,0,2.382-2l.335,2.01a3.593,3.593,0,0,0,4.811,2.777l2.732-1.024L62,81.162a.9.9,0,0,0,0,.239l.281,1.969L48.068,86.363l-.5-1.74A.9.9,0,0,0,46.489,84l-3.189.8a2.69,2.69,0,0,1-1.195.028Zm-12.551,12,5.515-7.02a4.445,4.445,0,0,0,3.189.385l2.345-.586,1.3,4.537Z" transform="translate(-1.93)"/>
        <path id="Trazado_875672_-_Contorno" data-name="Trazado 875672 - Contorno" d="M19.591,101.611,14.64,96.951,29.215,81.465,26.07,76.422a3.4,3.4,0,0,1,1.085-4.683l2.663-1.661v-.706a6.1,6.1,0,0,1,3.134-5.329l1.07-.594-.414-2.687a7.617,7.617,0,0,1-2.891-5.979,4.16,4.16,0,0,1,2.319-3.747l5.526-2.762A26.509,26.509,0,0,1,50.3,45.5a16.877,16.877,0,0,1,16.89,16.889v9.3h.323l-.35,2.81-.843,6.743.411,2.879a9.177,9.177,0,0,1,7.652,9.067v7.67h-6.8V93.186a2.376,2.376,0,0,0-.919-1.884,2.39,2.39,0,0,0-2.051-.435l-.08.019L46.211,95.2v-.055L31.221,98.4l-.011,2.458h-6.8l.011-2.511a6.779,6.779,0,0,1,.423-2.321Zm14.62-15.534-5.748,6.107a6.741,6.741,0,0,1,1.261-.415l.012,0,1.127-.245,3.759-4.785Zm7.223,2.995-.145.184.566-.123Q41.644,89.109,41.434,89.072Zm-6.616-3.64v1.055l2.919-3.716a3.386,3.386,0,0,1,.789-.73l.327-.218a3.405,3.405,0,0,1-.942-2.348V69.065l-1.3.719V82.173a3.387,3.387,0,0,1-.924,2.33Zm14.64-2.554a3.379,3.379,0,0,1,.334.567L59.5,81.4a3.4,3.4,0,0,1,.024-.55l.217-1.739a6.1,6.1,0,0,1-6.356-3.062l-2.553,1.592a4.808,4.808,0,0,1-1.371,5.235ZM44.71,68.8v4.607l3.623-2.234-2.08-3.335Zm13.843-.979.72,4.322,1.121-.42V62.387A10.1,10.1,0,0,0,50.3,52.3a19.661,19.661,0,0,0-8.7,2.056l-2.218,1.109,3.223-.484a3.4,3.4,0,0,1,3.59,1.936l1.312,2.844a3.379,3.379,0,0,1,2.715,1.6l.216.347q.193-.016.387-.016h2.352a5.422,5.422,0,0,1,5.375,6.135Z" transform="translate(-1.93)" fill="#fff"/>
        <path id="Trazado_875673" data-name="Trazado 875673" d="M40,320h5.4v1.8H40Z" transform="translate(-21.302 -241.424)"/>
        <path id="Trazado_875673_-_Contorno" data-name="Trazado 875673 - Contorno" d="M37.5,317.5H47.9v6.8H37.5Z" transform="translate(-21.302 -241.424)" fill="#fff"/>
        <path id="Trazado_875674" data-name="Trazado 875674" d="M0,0H1.8V6.033H0Z" transform="translate(18.282 73.981) rotate(-63.435)"/>
        <path id="Trazado_875674_-_Contorno" data-name="Trazado 875674 - Contorno" d="M-2.5-2.5H4.3V8.533H-2.5Z" transform="translate(18.282 73.981) rotate(-63.435)" fill="#fff"/>
        <path id="Trazado_875675" data-name="Trazado 875675" d="M0,0H6.033V1.8H0Z" transform="translate(18.285 84.949) rotate(-26.565)"/>
        <path id="Trazado_875675_-_Contorno" data-name="Trazado 875675 - Contorno" d="M-2.5-2.5H8.533V4.3H-2.5Z" transform="translate(18.285 84.949) rotate(-26.565)" fill="#fff"/>
      </g>
    </g>
    <g id="filled_outline-2" data-name="filled outline" transform="translate(-645 -5321)">
      <path id="Trazado_875661-2" data-name="Trazado 875661" d="M189.676,81.18l-.9,7.194,1.28,8.963-15.179,2.64-2.288-8.006-3.189.8a3.6,3.6,0,0,1-4.449-3.1l-1.014-9.385-3.038.694-.9.206.9-2.248,2.084-5.211.614-1.533L161.8,60.5l4.167-2.083A22.846,22.846,0,0,1,176.187,56a13.49,13.49,0,0,1,13.489,13.489Z" transform="translate(-127.813 -7.101)" fill="#fec093"/>
      <path id="Trazado_875662-2" data-name="Trazado 875662" d="M294.33,368.93l.5,3.493-15.288,3.6-1.071-3.75Z" transform="translate(-232.966 -284.854)" fill="#24447f"/>
      <path id="Trazado_875663-2" data-name="Trazado 875663" d="M189.676,81.18l-4.125,1.547a2.7,2.7,0,0,1-3.608-2.083l-1.26-7.558h-4.5l-.9,6.295a3.6,3.6,0,0,1-3.6-3.6v-4.5l-2.7-5.845-4.138.621A4.228,4.228,0,0,1,160,61.882a.787.787,0,0,1,.435-.7l5.531-2.765A22.856,22.856,0,0,1,176.187,56a13.489,13.489,0,0,1,13.489,13.489Z" transform="translate(-127.813 -7.101)" fill="#bc6549"/>
      <path id="Trazado_875664-2" data-name="Trazado 875664" d="M297.071,208.094h-.182A.889.889,0,0,1,296,207.2V201.43a1.43,1.43,0,0,1,1.43-1.43h2.343a2.023,2.023,0,0,1,1.975,2.462l-.508,2.287A4.271,4.271,0,0,1,297.071,208.094Z" transform="translate(-248.525 -134.914)" fill="#f5af7d"/>
      <path id="Trazado_875665-2" data-name="Trazado 875665" d="M123.171,253.538l.853,7.892-4.27,2.663-5.683-9.112,6.062-3.781v3.032Z" transform="translate(-87.046 -180.358)" fill="#e51c23"/>
      <path id="Trazado_875666-2" data-name="Trazado 875666" d="M235.9,198.116V187.34a2.55,2.55,0,0,0-.519-1.558l4.748-2.962,5.685,9.113Z" transform="translate(-194.719 -119.665)" fill="#e51c23"/>
      <path id="Trazado_875667-2" data-name="Trazado 875667" d="M175.574,201.049,168,205.774V204.3a2.7,2.7,0,0,1,1.387-2.358l.7-.388,2.168-1.2A2.585,2.585,0,0,1,175.574,201.049Z" transform="translate(-134.914 -134.932)" fill="#f5af7d"/>
      <path id="Trazado_875668-2" data-name="Trazado 875668" d="M212.594,313.116l-6.672,4.447-.606.758a3.593,3.593,0,0,1-2.536-3.056l-.161-1.493,4.2-2.621v1.017l2.69-1.613a2.7,2.7,0,0,1,3.3.4,1.4,1.4,0,0,1-.214,2.157Z" transform="translate(-165.642 -232.699)" fill="#f5af7d"/>
      <path id="Trazado_875669-2" data-name="Trazado 875669" d="M176.094,210.728V221.5l-4.2,2.621-.853-7.892-3.038.694v-3.032l7.574-4.725A2.55,2.55,0,0,1,176.094,210.728Z" transform="translate(-134.914 -143.053)" fill="#c9191f"/>
      <path id="Trazado_875670-2" data-name="Trazado 875670" d="M35.54,200.414l-2.865,1.592a2.7,2.7,0,0,0-1.388,2.358v12.8L16,233.352H27.691l10.791-13.489,6.672-4.448a1.4,1.4,0,0,0,.214-2.156,2.7,2.7,0,0,0-3.3-.406l-2.69,1.614V202.674a2.585,2.585,0,0,0-3.841-2.26Z" transform="translate(0 -134.992)" fill="#fec093"/>
      <path id="Trazado_875671-2" data-name="Trazado 875671" d="M147.166,404.251v5.174H104a3.347,3.347,0,0,1,2.636-3.271l18.047-3.923,15.288-3.6a5.79,5.79,0,0,1,7.194,5.617Z" transform="translate(-78.108 -311.066)" fill="#3f51b5"/>
      <path id="Trazado_875672-2" data-name="Trazado 875672" d="M69.314,87.913a6.64,6.64,0,0,0-4.761-1.387L63.8,81.265l.884-7.075h0a.912.912,0,0,0,.009-.111V62.389A14.389,14.389,0,0,0,50.3,48,23.868,23.868,0,0,0,39.68,50.508l-5.528,2.764a1.685,1.685,0,0,0-.935,1.51,5.128,5.128,0,0,0,2.7,4.513l.846,5.493-2.591,1.439a3.6,3.6,0,0,0-1.849,3.145v2.093l-3.84,2.4a.9.9,0,0,0-.287,1.239l4.127,6.617v.1L18.174,96.844l1.31,1.233L33.872,82.789a.9.9,0,0,0,.244-.616v-12.8a1.8,1.8,0,0,1,.924-1.572l2.869-1.594c.025-.014.051-.027.076-.039L38,66.16a1.686,1.686,0,0,1,2.412,1.522V79.475a.9.9,0,0,0,1.362.771l2.69-1.614a1.8,1.8,0,0,1,2.2.27.5.5,0,0,1-.077.772l-6.672,4.448a.9.9,0,0,0-.209.194l-7.43,9.458-2.007.436a4.272,4.272,0,0,0-3.344,4.15h1.8a2.463,2.463,0,0,1,1.928-2.392L48.7,92.044l.015,0h0L64,88.444l.012,0a4.891,4.891,0,0,1,6.077,4.744V98.36h1.8V93.186a6.648,6.648,0,0,0-2.573-5.273Zm-39.121-13,2.126-1.326v4.734ZM49.135,90.094l-.571-2L62.54,85.155l.247,1.727Zm-8.65-37.977A22.062,22.062,0,0,1,50.3,49.8a12.591,12.591,0,0,1,12.59,12.589V73.456l-3.541,1.328A1.8,1.8,0,0,1,56.947,73.4l-.931-5.589.014-.063a2.922,2.922,0,0,0-2.853-3.557H50.834a2.325,2.325,0,0,0-1.47.517L48.1,62.679a.9.9,0,0,0-1.239-.287l-.694.433-2.243-4.86a.9.9,0,0,0-.95-.513l-4.138.621a3.328,3.328,0,0,1-3.822-3.222ZM53.766,69.641a3.362,3.362,0,0,1-.552,1.233l-2.86-4.584a.527.527,0,0,1,.48-.3h2.343a1.123,1.123,0,0,1,1.1,1.367ZM40.579,64.731a3.475,3.475,0,0,0-2.091-.528l-.665-4.322a5.128,5.128,0,0,0,1.281-.029l3.471-.52,2.055,4.453-3.047,1.9a3.486,3.486,0,0,0-1-.955ZM42.21,77.887v-10.2c0-.088,0-.175-.011-.262l4.852-3.026,4.732,7.588Zm5.372,3.284a2.3,2.3,0,0,0,.351-3.54,3.608,3.608,0,0,0-.821-.615l5.344-3.333a5.158,5.158,0,0,0,2.382-2l.335,2.01a3.593,3.593,0,0,0,4.811,2.777l2.732-1.024L62,81.162a.9.9,0,0,0,0,.239l.281,1.969L48.068,86.363l-.5-1.74A.9.9,0,0,0,46.489,84l-3.189.8a2.69,2.69,0,0,1-1.195.028Zm-12.551,12,5.515-7.02a4.445,4.445,0,0,0,3.189.385l2.345-.586,1.3,4.537Z" transform="translate(-1.93)"/>
      <path id="Trazado_875673-2" data-name="Trazado 875673" d="M40,320h5.4v1.8H40Z" transform="translate(-21.302 -241.424)"/>
      <path id="Trazado_875674-2" data-name="Trazado 875674" d="M0,0H1.8V6.033H0Z" transform="translate(18.282 73.981) rotate(-63.435)"/>
      <path id="Trazado_875675-2" data-name="Trazado 875675" d="M0,0H6.033V1.8H0Z" transform="translate(18.285 84.949) rotate(-26.565)"/>
    </g>
  </g>
</svg>
