<svg xmlns="http://www.w3.org/2000/svg" width="91.542" height="91.541" viewBox="0 0 91.542 91.541">
  <g id="Grupo_1100270" data-name="Grupo 1100270" transform="translate(-12 5294)">
    <g id="Grupo_1098742" data-name="Grupo 1098742" transform="translate(12 -5294)">
      <rect id="Rect치ngulo_400898" data-name="Rect치ngulo 400898" width="91.541" height="91.541" rx="45.771" transform="translate(0.001 0)" fill="#769671" opacity="0.859"/>
      <rect id="Rect치ngulo_400907" data-name="Rect치ngulo 400907" width="91.541" height="91.541" rx="45.771" transform="translate(0 0)" fill="none"/>
    </g>
    <g id="hospital" transform="translate(29.304 -5306.928)">
      <g id="Grupo_1100239" data-name="Grupo 1100239" transform="translate(4.092 34.848)">
        <g id="Grupo_1100233" data-name="Grupo 1100233" transform="translate(18.583 1.003)">
          <g id="Grupo_1100229" data-name="Grupo 1100229" transform="translate(4.344 7.491)">
            <g id="Grupo_1100225" data-name="Grupo 1100225">
              <path id="Trazado_875533" data-name="Trazado 875533" d="M242.978,117.9h3.379v4.566h-3.379Z" transform="translate(-242.978 -117.897)" fill="#b9acac"/>
              <path id="Trazado_875533_-_Contorno" data-name="Trazado 875533 - Contorno" d="M240.478,115.4h8.379v9.566h-8.379Z" transform="translate(-242.978 -117.897)" fill="#fff"/>
            </g>
            <g id="Grupo_1100226" data-name="Grupo 1100226" transform="translate(1.627)">
              <path id="Trazado_875534" data-name="Trazado 875534" d="M257.611,117.9h1.751v4.566h-1.751Z" transform="translate(-257.611 -117.897)" fill="#9e9797"/>
              <path id="Trazado_875534_-_Contorno" data-name="Trazado 875534 - Contorno" d="M255.111,115.4h6.751v9.566h-6.751Z" transform="translate(-257.611 -117.897)" fill="#fff"/>
            </g>
            <g id="Grupo_1100227" data-name="Grupo 1100227" transform="translate(18.1)">
              <path id="Trazado_875535" data-name="Trazado 875535" d="M405.751,117.9h3.379v4.566h-3.379Z" transform="translate(-405.751 -117.897)" fill="#b9acac"/>
              <path id="Trazado_875535_-_Contorno" data-name="Trazado 875535 - Contorno" d="M403.251,115.4h8.379v9.566h-8.379Z" transform="translate(-405.751 -117.897)" fill="#fff"/>
            </g>
            <g id="Grupo_1100228" data-name="Grupo 1100228" transform="translate(19.727)">
              <path id="Trazado_875536" data-name="Trazado 875536" d="M420.384,117.9h1.751v4.566h-1.751Z" transform="translate(-420.384 -117.897)" fill="#9e9797"/>
              <path id="Trazado_875536_-_Contorno" data-name="Trazado 875536 - Contorno" d="M417.884,115.4h6.751v9.566h-6.751Z" transform="translate(-420.384 -117.897)" fill="#fff"/>
            </g>
          </g>
          <g id="Grupo_1100232" data-name="Grupo 1100232">
            <g id="Grupo_1100230" data-name="Grupo 1100230" transform="translate(0 0)">
              <path id="Trazado_875537" data-name="Trazado 875537" d="M230.279,58.135H207.714a3.8,3.8,0,1,1,0-7.6h22.565a3.8,3.8,0,1,1,0,7.6Z" transform="translate(-203.913 -50.533)" fill="#05e39c"/>
              <path id="Trazado_875537_-_Contorno" data-name="Trazado 875537 - Contorno" d="M230.279,60.635H207.714a6.3,6.3,0,1,1,0-12.6h22.565a6.3,6.3,0,1,1,0,12.6Zm-22.565-7.6a1.3,1.3,0,1,0,0,2.6h22.565a1.3,1.3,0,1,0,0-2.6Z" transform="translate(-203.913 -50.533)" fill="#fff"/>
            </g>
            <g id="Grupo_1100231" data-name="Grupo 1100231" transform="translate(21.705)">
              <path id="Trazado_875538" data-name="Trazado 875538" d="M403.767,50.532h-4.661a3.8,3.8,0,1,1,0,7.6h4.661a3.8,3.8,0,0,0,0-7.6Z" transform="translate(-399.106 -50.532)" fill="#0ed290"/>
              <path id="Trazado_875538_-_Contorno" data-name="Trazado 875538 - Contorno" d="M399.106,48.032h4.661a6.3,6.3,0,0,1,0,12.6h-4.661v-5a1.3,1.3,0,1,0,0-2.6Z" transform="translate(-399.106 -50.532)" fill="#fff"/>
            </g>
          </g>
        </g>
        <path id="Trazado_875539" data-name="Trazado 875539" d="M84.437,157.963H37.911a1.112,1.112,0,0,0-1.112,1.112V188.9a3.862,3.862,0,0,1,4.465,3.814H85.548v-33.64a1.112,1.112,0,0,0-1.112-1.112Z" transform="translate(-36.799 -145.014)" fill="#e1d3ce"/>
        <path id="Trazado_875539_-_Contorno" data-name="Trazado 875539 - Contorno" d="M37.911,155.463H84.437a3.616,3.616,0,0,1,3.612,3.612v36.14H38.764v-2.5a1.363,1.363,0,0,0-1.361-1.361,1.389,1.389,0,0,0-.215.017l-2.888.454v-32.75A3.616,3.616,0,0,1,37.911,155.463Zm45.138,5H39.3v26.179a6.393,6.393,0,0,1,3.953,3.573h39.8Z" transform="translate(-36.799 -145.014)" fill="#fff"/>
        <path id="Trazado_875540" data-name="Trazado 875540" d="M419.112,159.075v28.179a4.7,4.7,0,0,1,2.468,2.272,3.843,3.843,0,0,1,2.178-.673,3.883,3.883,0,0,1,.6.047V159.075a1.112,1.112,0,0,0-1.112-1.112H418A1.112,1.112,0,0,1,419.112,159.075Z" transform="translate(-375.611 -145.014)" fill="#cdbfba"/>
        <path id="Trazado_875540_-_Contorno" data-name="Trazado 875540 - Contorno" d="M418,155.463h5.249a3.616,3.616,0,0,1,3.612,3.612v32.75l-2.888-.454a1.391,1.391,0,0,0-.215-.017,1.35,1.35,0,0,0-.766.236l-2.371,1.623-1.279-2.573a2.19,2.19,0,0,0-1.153-1.062l-1.576-.627V159.075A1.39,1.39,0,0,0,418,160.463Zm3.861,5h-.249V185.8q.127.092.249.189Z" transform="translate(-375.611 -145.014)" fill="#fff"/>
        <g id="Grupo_1100238" data-name="Grupo 1100238" transform="translate(0 0)">
          <g id="Grupo_1100235" data-name="Grupo 1100235">
            <g id="Grupo_1100234" data-name="Grupo 1100234">
              <path id="Trazado_875541" data-name="Trazado 875541" d="M45.934,44.612H43.391V42.069a.556.556,0,0,0-.556-.556H40.454a.556.556,0,0,0-.556.556v2.543H37.355a.556.556,0,0,0-.556.556v2.381a.556.556,0,0,0,.556.556H39.9v2.543a.556.556,0,0,0,.556.556h2.381a.556.556,0,0,0,.556-.556V48.105h2.543a.556.556,0,0,0,.556-.556V45.168A.556.556,0,0,0,45.934,44.612Z" transform="translate(-36.799 -41.513)" fill="#05e39c"/>
              <path id="Trazado_875541_-_Contorno" data-name="Trazado 875541 - Contorno" d="M40.454,39.013h2.381a3.059,3.059,0,0,1,3.056,3.056v.043h.043a3.06,3.06,0,0,1,3.056,3.055v2.382a3.059,3.059,0,0,1-3.056,3.056h-.043v.043A3.059,3.059,0,0,1,42.835,53.7H40.454A3.059,3.059,0,0,1,37.4,50.648v-.043h-.043A3.059,3.059,0,0,1,34.3,47.549V45.168a3.059,3.059,0,0,1,3.056-3.056H37.4v-.043A3.059,3.059,0,0,1,40.454,39.013Z" transform="translate(-36.799 -41.513)" fill="#fff"/>
            </g>
          </g>
          <g id="Grupo_1100237" data-name="Grupo 1100237" transform="translate(3.099 3.099)">
            <g id="Grupo_1100236" data-name="Grupo 1100236">
              <path id="Trazado_875542" data-name="Trazado 875542" d="M70.7,69.381H69.558v1.268A.556.556,0,0,1,69,71.2H67.571a1.112,1.112,0,0,0-1.112,1.112v1.431a.556.556,0,0,1-.556.556H64.667v1.113a.556.556,0,0,0,.556.556H67.6a.556.556,0,0,0,.556-.556V72.874H70.7a.556.556,0,0,0,.556-.556V69.937a.556.556,0,0,0-.556-.556Z" transform="translate(-64.667 -69.381)" fill="#0ed290"/>
              <path id="Trazado_875542_-_Contorno" data-name="Trazado 875542 - Contorno" d="M67.058,66.881H70.7a3.059,3.059,0,0,1,3.056,3.056v2.381A3.059,3.059,0,0,1,70.7,75.374H70.66v.043A3.059,3.059,0,0,1,67.6,78.473H65.223a3.059,3.059,0,0,1-3.056-3.056V71.8H64a3.621,3.621,0,0,1,3.063-3.063Z" transform="translate(-64.667 -69.381)" fill="#fff"/>
            </g>
          </g>
        </g>
      </g>
      <g id="Grupo_1100247" data-name="Grupo 1100247" transform="translate(0.834 76.757)">
        <g id="Grupo_1100242" data-name="Grupo 1100242" transform="translate(40.342 0)">
          <path id="Trazado_875543" data-name="Trazado 875543" d="M379.181,421a4.686,4.686,0,0,0-8.884,2.083v1.106h7.2A3.856,3.856,0,0,1,379.181,421Z" transform="translate(-370.297 -418.399)" fill="#05e39c"/>
          <path id="Trazado_875543_-_Contorno" data-name="Trazado 875543 - Contorno" d="M374.983,415.9a7.185,7.185,0,0,1,6.437,3.991l.968,1.948-1.8,1.228a1.364,1.364,0,0,0-.6,1.125v2.5H367.8v-3.606A7.194,7.194,0,0,1,374.983,415.9Zm.836,5.165a2.191,2.191,0,0,0-2.519.627h2.209A6.362,6.362,0,0,1,375.819,421.064Z" transform="translate(-370.297 -418.399)" fill="#fff"/>
          <path id="Trazado_875544" data-name="Trazado 875544" d="M402.73,421a4.686,4.686,0,0,0-5.938-2.268,4.687,4.687,0,0,1,2.946,4.351v1.106h1.308A3.857,3.857,0,0,1,402.73,421Z" transform="translate(-393.846 -418.399)" fill="#0ed290"/>
          <path id="Trazado_875544_-_Contorno" data-name="Trazado 875544 - Contorno" d="M398.532,415.9a7.185,7.185,0,0,1,6.437,3.991l.968,1.948-1.8,1.228a1.364,1.364,0,0,0-.6,1.125v2.5h-6.308v-3.606a2.177,2.177,0,0,0-1.375-2.03l-5.8-2.321,5.8-2.321A7.152,7.152,0,0,1,398.532,415.9Z" transform="translate(-393.846 -418.399)" fill="#fff"/>
          <g id="Grupo_1100240" data-name="Grupo 1100240" transform="translate(7.2 1.931)">
            <path id="Trazado_875545" data-name="Trazado 875545" d="M438.911,435.762a3.861,3.861,0,0,0-3.861,3.861h7.723A3.861,3.861,0,0,0,438.911,435.762Z" transform="translate(-435.05 -435.762)" fill="#05e39c"/>
            <path id="Trazado_875545_-_Contorno" data-name="Trazado 875545 - Contorno" d="M438.911,433.262a6.369,6.369,0,0,1,6.361,6.361v2.5H432.55v-2.5A6.369,6.369,0,0,1,438.911,433.262Z" transform="translate(-435.05 -435.762)" fill="#fff"/>
          </g>
          <g id="Grupo_1100241" data-name="Grupo 1100241" transform="translate(9.588 1.931)">
            <path id="Trazado_875546" data-name="Trazado 875546" d="M458,435.762a3.848,3.848,0,0,0-1.473.292,3.862,3.862,0,0,1,2.388,3.57h2.947A3.861,3.861,0,0,0,458,435.762Z" transform="translate(-456.525 -435.762)" fill="#0ed290"/>
            <path id="Trazado_875546_-_Contorno" data-name="Trazado 875546 - Contorno" d="M458,433.262a6.369,6.369,0,0,1,6.361,6.361v2.5h-7.947v-2.5a1.358,1.358,0,0,0-.843-1.259l-5.591-2.31,5.59-2.311A6.326,6.326,0,0,1,458,433.262Z" transform="translate(-456.525 -435.762)" fill="#fff"/>
          </g>
        </g>
        <g id="Grupo_1100246" data-name="Grupo 1100246" transform="translate(0 0)">
          <path id="Trazado_875547" data-name="Trazado 875547" d="M66.006,418.4a4.685,4.685,0,0,0-4.2,2.6,3.857,3.857,0,0,1,1.684,3.189h7.2v-1.106a4.686,4.686,0,0,0-4.686-4.686Z" transform="translate(-55.769 -418.399)" fill="#05e39c"/>
          <path id="Trazado_875547_-_Contorno" data-name="Trazado 875547 - Contorno" d="M66.006,415.9a7.186,7.186,0,0,1,7.186,7.186v3.606h-12.2v-2.5a1.364,1.364,0,0,0-.6-1.125l-1.8-1.228.968-1.948a7.185,7.185,0,0,1,6.437-3.991Zm1.684,5.792q-.065-.079-.138-.152a2.193,2.193,0,0,0-2.382-.476,6.364,6.364,0,0,1,.31.628Z" transform="translate(-55.769 -418.399)" fill="#fff"/>
          <g id="Grupo_1100243" data-name="Grupo 1100243" transform="translate(8.49)">
            <path id="Trazado_875548" data-name="Trazado 875548" d="M85.6,418.4a4.67,4.67,0,0,0-1.747.338,4.687,4.687,0,0,1,2.94,4.349v1.106h3.494v-1.106A4.686,4.686,0,0,0,85.6,418.4Z" transform="translate(-83.852 -418.399)" fill="#0ed290"/>
            <path id="Trazado_875548_-_Contorno" data-name="Trazado 875548 - Contorno" d="M85.6,415.9a7.194,7.194,0,0,1,7.186,7.186v3.606H84.292v-3.606a2.178,2.178,0,0,0-1.372-2.029l-5.768-2.319,5.767-2.32a7.148,7.148,0,0,1,2.68-.518Z" transform="translate(-83.852 -418.399)" fill="#fff"/>
          </g>
          <g id="Grupo_1100244" data-name="Grupo 1100244" transform="translate(0 1.931)">
            <path id="Trazado_875549" data-name="Trazado 875549" d="M11.361,435.762a3.861,3.861,0,0,1,3.861,3.861H7.5A3.861,3.861,0,0,1,11.361,435.762Z" transform="translate(-7.5 -435.762)" fill="#05e39c"/>
            <path id="Trazado_875549_-_Contorno" data-name="Trazado 875549 - Contorno" d="M11.361,433.262a6.369,6.369,0,0,1,6.361,6.361v2.5H5v-2.5A6.369,6.369,0,0,1,11.361,433.262Z" transform="translate(-7.5 -435.762)" fill="#fff"/>
          </g>
          <g id="Grupo_1100245" data-name="Grupo 1100245" transform="translate(2.444 1.931)">
            <path id="Trazado_875550" data-name="Trazado 875550" d="M30.893,435.762a3.847,3.847,0,0,0-1.418.27,3.862,3.862,0,0,1,2.444,3.591h2.836A3.861,3.861,0,0,0,30.893,435.762Z" transform="translate(-29.475 -435.762)" fill="#0ed290"/>
            <path id="Trazado_875550_-_Contorno" data-name="Trazado 875550 - Contorno" d="M30.893,433.262a6.369,6.369,0,0,1,6.361,6.361v2.5H29.419v-2.5a1.355,1.355,0,0,0-.862-1.266l-5.883-2.325,5.883-2.325A6.33,6.33,0,0,1,30.893,433.262Z" transform="translate(-29.475 -435.762)" fill="#fff"/>
          </g>
        </g>
      </g>
      <g id="Grupo_1100248" data-name="Grupo 1100248" transform="translate(18.929 69.768)">
        <path id="Trazado_875551" data-name="Trazado 875551" d="M170.229,355.546H189.3v12.781H170.229Z" transform="translate(-170.229 -355.546)" fill="#d8ecfe"/>
        <path id="Trazado_875551_-_Contorno" data-name="Trazado 875551 - Contorno" d="M167.729,353.046H191.8v17.781H167.729Zm19.075,5H172.729v7.781H186.8Z" transform="translate(-170.229 -355.546)" fill="#fff"/>
      </g>
      <g id="Grupo_1100249" data-name="Grupo 1100249" transform="translate(35.695 69.768)">
        <path id="Trazado_875552" data-name="Trazado 875552" d="M321,355.546h2.31v12.781H321Z" transform="translate(-321 -355.546)" fill="#c4e2ff"/>
        <path id="Trazado_875552_-_Contorno" data-name="Trazado 875552 - Contorno" d="M318.5,353.046h7.31v17.781H318.5Z" transform="translate(-321 -355.546)" fill="#fff"/>
      </g>
      <g id="Grupo_1100250" data-name="Grupo 1100250" transform="translate(29.406 69.768)">
        <path id="Trazado_875553" data-name="Trazado 875553" d="M264.448,355.546h2.31v12.781h-2.31Z" transform="translate(-264.448 -355.546)" fill="#c4e2ff"/>
        <path id="Trazado_875553_-_Contorno" data-name="Trazado 875553 - Contorno" d="M261.948,353.046h7.31v17.781h-7.31Z" transform="translate(-264.448 -355.546)" fill="#fff"/>
      </g>
      <g id="Grupo_1100251" data-name="Grupo 1100251" transform="translate(22.684 69.768)">
        <path id="Trazado_875554" data-name="Trazado 875554" d="M204,355.546h2.533v12.781H204Z" transform="translate(-204 -355.546)" fill="#c4e2ff"/>
        <path id="Trazado_875554_-_Contorno" data-name="Trazado 875554 - Contorno" d="M201.5,353.046h7.533v17.781H201.5Z" transform="translate(-204 -355.546)" fill="#fff"/>
      </g>
      <g id="Grupo_1100252" data-name="Grupo 1100252" transform="translate(17.462 66.259)">
        <path id="Trazado_875555" data-name="Trazado 875555" d="M178.71,327.611H157.368a.334.334,0,0,1-.334-.334v-2.953a.334.334,0,0,1,.334-.334H178.71a.334.334,0,0,1,.334.334v2.953A.334.334,0,0,1,178.71,327.611Z" transform="translate(-157.034 -323.991)" fill="#26a6fe"/>
        <path id="Trazado_875555_-_Contorno" data-name="Trazado 875555 - Contorno" d="M178.71,330.111H157.368a2.837,2.837,0,0,1-2.834-2.834v-2.953a2.837,2.837,0,0,1,2.834-2.834H178.71a2.837,2.837,0,0,1,2.834,2.834v2.953A2.837,2.837,0,0,1,178.71,330.111Z" transform="translate(-157.034 -323.991)" fill="#fff"/>
      </g>
      <g id="Grupo_1100253" data-name="Grupo 1100253" transform="translate(17.462 66.259)">
        <path id="Trazado_875556" data-name="Trazado 875556" d="M178.71,323.991h-2.561v1.78a.334.334,0,0,1-.334.334H157.034v1.173a.334.334,0,0,0,.334.334H178.71a.334.334,0,0,0,.334-.334v-2.953A.334.334,0,0,0,178.71,323.991Z" transform="translate(-157.034 -323.991)" fill="#0593fc"/>
        <path id="Trazado_875556_-_Contorno" data-name="Trazado 875556 - Contorno" d="M173.649,321.491h5.061a2.837,2.837,0,0,1,2.834,2.834v2.953a2.837,2.837,0,0,1-2.834,2.834H157.368a2.837,2.837,0,0,1-2.834-2.834V323.6h19.115Z" transform="translate(-157.034 -323.991)" fill="#fff"/>
      </g>
      <g id="Grupo_1100259" data-name="Grupo 1100259" transform="translate(8.75 52.262)">
        <g id="Grupo_1100254" data-name="Grupo 1100254">
          <path id="Trazado_875557" data-name="Trazado 875557" d="M82.938,201.733H79.02a.334.334,0,0,1-.334-.334v-2.953a.334.334,0,0,1,.334-.334h3.918a.334.334,0,0,1,.334.334V201.4A.334.334,0,0,1,82.938,201.733Z" transform="translate(-78.686 -198.113)" fill="#fff"/>
          <path id="Trazado_875557_-_Contorno" data-name="Trazado 875557 - Contorno" d="M82.938,204.233H79.02a2.837,2.837,0,0,1-2.834-2.834v-2.953a2.837,2.837,0,0,1,2.834-2.834h3.918a2.837,2.837,0,0,1,2.834,2.834V201.4A2.837,2.837,0,0,1,82.938,204.233Z" transform="translate(-78.686 -198.113)" fill="#fff"/>
        </g>
        <g id="Grupo_1100255" data-name="Grupo 1100255" transform="translate(8.712)">
          <path id="Trazado_875558" data-name="Trazado 875558" d="M161.286,201.733h-3.918a.334.334,0,0,1-.334-.334v-2.953a.334.334,0,0,1,.334-.334h3.918a.334.334,0,0,1,.334.334V201.4a.334.334,0,0,1-.334.334Z" transform="translate(-157.034 -198.113)" fill="#fff"/>
          <path id="Trazado_875558_-_Contorno" data-name="Trazado 875558 - Contorno" d="M161.286,204.233h-3.918a2.837,2.837,0,0,1-2.834-2.834v-2.953a2.837,2.837,0,0,1,2.834-2.834h3.918a2.837,2.837,0,0,1,2.834,2.834V201.4A2.837,2.837,0,0,1,161.286,204.233Z" transform="translate(-157.034 -198.113)" fill="#fff"/>
        </g>
        <g id="Grupo_1100256" data-name="Grupo 1100256" transform="translate(17.424)">
          <path id="Trazado_875559" data-name="Trazado 875559" d="M239.634,201.733h-3.918a.334.334,0,0,1-.334-.334v-2.953a.334.334,0,0,1,.334-.334h3.918a.334.334,0,0,1,.334.334V201.4A.334.334,0,0,1,239.634,201.733Z" transform="translate(-235.382 -198.113)" fill="#fff"/>
          <path id="Trazado_875559_-_Contorno" data-name="Trazado 875559 - Contorno" d="M239.634,204.233h-3.918a2.837,2.837,0,0,1-2.834-2.834v-2.953a2.837,2.837,0,0,1,2.834-2.834h3.918a2.837,2.837,0,0,1,2.834,2.834V201.4A2.837,2.837,0,0,1,239.634,204.233Z" transform="translate(-235.382 -198.113)" fill="#fff"/>
        </g>
        <g id="Grupo_1100257" data-name="Grupo 1100257" transform="translate(26.136)">
          <path id="Trazado_875560" data-name="Trazado 875560" d="M317.982,201.733h-3.918a.334.334,0,0,1-.334-.334v-2.953a.334.334,0,0,1,.334-.334h3.918a.334.334,0,0,1,.334.334V201.4A.334.334,0,0,1,317.982,201.733Z" transform="translate(-313.73 -198.113)" fill="#fff"/>
          <path id="Trazado_875560_-_Contorno" data-name="Trazado 875560 - Contorno" d="M317.982,204.233h-3.918a2.837,2.837,0,0,1-2.834-2.834v-2.953a2.837,2.837,0,0,1,2.834-2.834h3.918a2.837,2.837,0,0,1,2.834,2.834V201.4A2.837,2.837,0,0,1,317.982,204.233Z" transform="translate(-313.73 -198.113)" fill="#fff"/>
        </g>
        <g id="Grupo_1100258" data-name="Grupo 1100258" transform="translate(34.849)">
          <path id="Trazado_875561" data-name="Trazado 875561" d="M396.33,201.733h-3.918a.334.334,0,0,1-.334-.334v-2.953a.334.334,0,0,1,.334-.334h3.918a.334.334,0,0,1,.334.334V201.4A.334.334,0,0,1,396.33,201.733Z" transform="translate(-392.078 -198.113)" fill="#fff"/>
          <path id="Trazado_875561_-_Contorno" data-name="Trazado 875561 - Contorno" d="M396.33,204.233h-3.918a2.837,2.837,0,0,1-2.834-2.834v-2.953a2.837,2.837,0,0,1,2.834-2.834h3.918a2.837,2.837,0,0,1,2.834,2.834V201.4A2.837,2.837,0,0,1,396.33,204.233Z" transform="translate(-392.078 -198.113)" fill="#fff"/>
        </g>
      </g>
      <g id="Grupo_1100265" data-name="Grupo 1100265" transform="translate(8.75 59.26)">
        <g id="Grupo_1100260" data-name="Grupo 1100260">
          <path id="Trazado_875562" data-name="Trazado 875562" d="M82.938,264.672H79.02a.334.334,0,0,1-.334-.334v-2.953a.334.334,0,0,1,.334-.334h3.918a.334.334,0,0,1,.334.334v2.953A.334.334,0,0,1,82.938,264.672Z" transform="translate(-78.686 -261.052)" fill="#fff"/>
          <path id="Trazado_875562_-_Contorno" data-name="Trazado 875562 - Contorno" d="M82.938,267.172H79.02a2.837,2.837,0,0,1-2.834-2.834v-2.953a2.837,2.837,0,0,1,2.834-2.834h3.918a2.837,2.837,0,0,1,2.834,2.834v2.953A2.837,2.837,0,0,1,82.938,267.172Z" transform="translate(-78.686 -261.052)" fill="#fff"/>
        </g>
        <g id="Grupo_1100261" data-name="Grupo 1100261" transform="translate(8.712)">
          <path id="Trazado_875563" data-name="Trazado 875563" d="M161.286,264.672h-3.918a.334.334,0,0,1-.334-.334v-2.953a.334.334,0,0,1,.334-.334h3.918a.334.334,0,0,1,.334.334v2.953a.334.334,0,0,1-.334.334Z" transform="translate(-157.034 -261.052)" fill="#fff"/>
          <path id="Trazado_875563_-_Contorno" data-name="Trazado 875563 - Contorno" d="M161.286,267.172h-3.918a2.837,2.837,0,0,1-2.834-2.834v-2.953a2.837,2.837,0,0,1,2.834-2.834h3.918a2.837,2.837,0,0,1,2.834,2.834v2.953A2.837,2.837,0,0,1,161.286,267.172Z" transform="translate(-157.034 -261.052)" fill="#fff"/>
        </g>
        <g id="Grupo_1100262" data-name="Grupo 1100262" transform="translate(17.424)">
          <path id="Trazado_875564" data-name="Trazado 875564" d="M239.634,264.672h-3.918a.334.334,0,0,1-.334-.334v-2.953a.334.334,0,0,1,.334-.334h3.918a.334.334,0,0,1,.334.334v2.953A.334.334,0,0,1,239.634,264.672Z" transform="translate(-235.382 -261.052)" fill="#fff"/>
          <path id="Trazado_875564_-_Contorno" data-name="Trazado 875564 - Contorno" d="M239.634,267.172h-3.918a2.837,2.837,0,0,1-2.834-2.834v-2.953a2.837,2.837,0,0,1,2.834-2.834h3.918a2.837,2.837,0,0,1,2.834,2.834v2.953A2.837,2.837,0,0,1,239.634,267.172Z" transform="translate(-235.382 -261.052)" fill="#fff"/>
        </g>
        <g id="Grupo_1100263" data-name="Grupo 1100263" transform="translate(26.136)">
          <path id="Trazado_875565" data-name="Trazado 875565" d="M317.982,264.672h-3.918a.334.334,0,0,1-.334-.334v-2.953a.334.334,0,0,1,.334-.334h3.918a.334.334,0,0,1,.334.334v2.953A.334.334,0,0,1,317.982,264.672Z" transform="translate(-313.73 -261.052)" fill="#fff"/>
          <path id="Trazado_875565_-_Contorno" data-name="Trazado 875565 - Contorno" d="M317.982,267.172h-3.918a2.837,2.837,0,0,1-2.834-2.834v-2.953a2.837,2.837,0,0,1,2.834-2.834h3.918a2.837,2.837,0,0,1,2.834,2.834v2.953A2.837,2.837,0,0,1,317.982,267.172Z" transform="translate(-313.73 -261.052)" fill="#fff"/>
        </g>
        <g id="Grupo_1100264" data-name="Grupo 1100264" transform="translate(34.849)">
          <path id="Trazado_875566" data-name="Trazado 875566" d="M396.33,264.672h-3.918a.334.334,0,0,1-.334-.334v-2.953a.334.334,0,0,1,.334-.334h3.918a.334.334,0,0,1,.334.334v2.953A.334.334,0,0,1,396.33,264.672Z" transform="translate(-392.078 -261.052)" fill="#fff"/>
          <path id="Trazado_875566_-_Contorno" data-name="Trazado 875566 - Contorno" d="M396.33,267.172h-3.918a2.837,2.837,0,0,1-2.834-2.834v-2.953a2.837,2.837,0,0,1,2.834-2.834h3.918a2.837,2.837,0,0,1,2.834,2.834v2.953A2.837,2.837,0,0,1,396.33,267.172Z" transform="translate(-392.078 -261.052)" fill="#fff"/>
        </g>
      </g>
      <g id="Grupo_1100268" data-name="Grupo 1100268" transform="translate(8.75 66.259)">
        <g id="Grupo_1100266" data-name="Grupo 1100266">
          <path id="Trazado_875567" data-name="Trazado 875567" d="M82.938,327.611H79.02a.334.334,0,0,1-.334-.334v-2.953a.334.334,0,0,1,.334-.334h3.918a.334.334,0,0,1,.334.334v2.953A.334.334,0,0,1,82.938,327.611Z" transform="translate(-78.686 -323.991)" fill="#fff"/>
          <path id="Trazado_875567_-_Contorno" data-name="Trazado 875567 - Contorno" d="M82.938,330.111H79.02a2.837,2.837,0,0,1-2.834-2.834v-2.953a2.837,2.837,0,0,1,2.834-2.834h3.918a2.837,2.837,0,0,1,2.834,2.834v2.953A2.837,2.837,0,0,1,82.938,330.111Z" transform="translate(-78.686 -323.991)" fill="#fff"/>
        </g>
        <g id="Grupo_1100267" data-name="Grupo 1100267" transform="translate(34.849)">
          <path id="Trazado_875568" data-name="Trazado 875568" d="M396.33,327.611h-3.918a.334.334,0,0,1-.334-.334v-2.953a.334.334,0,0,1,.334-.334h3.918a.334.334,0,0,1,.334.334v2.953A.334.334,0,0,1,396.33,327.611Z" transform="translate(-392.078 -323.991)" fill="#fff"/>
          <path id="Trazado_875568_-_Contorno" data-name="Trazado 875568 - Contorno" d="M396.33,330.111h-3.918a2.837,2.837,0,0,1-2.834-2.834v-2.953a2.837,2.837,0,0,1,2.834-2.834h3.918a2.837,2.837,0,0,1,2.834,2.834v2.953A2.837,2.837,0,0,1,396.33,330.111Z" transform="translate(-392.078 -323.991)" fill="#fff"/>
        </g>
      </g>
      <g id="Grupo_1100269" data-name="Grupo 1100269" transform="translate(0 34.014)">
        <path id="Trazado_875569" data-name="Trazado 875569" d="M235.478,78.049a.834.834,0,0,0,.834.834h21.479a.834.834,0,0,0,0-1.668H236.312A.834.834,0,0,0,235.478,78.049Z" transform="translate(-209.293 -72.411)"/>
        <path id="Trazado_875569_-_Contorno" data-name="Trazado 875569 - Contorno" d="M236.312,74.715h21.479a3.334,3.334,0,0,1,0,6.668H236.312a3.334,3.334,0,1,1,0-6.668Z" transform="translate(-209.293 -72.411)" fill="#fff"/>
        <path id="Trazado_875570" data-name="Trazado 875570" d="M53.676,78.08V48.909a1.948,1.948,0,0,0-1.946-1.946h-2.4V44.277a4.635,4.635,0,0,0-.291-9.26H33.971a.834.834,0,1,0,0,1.668H49.041a2.967,2.967,0,1,1,0,5.934H26.476a2.967,2.967,0,0,1,0-5.934h3.6a.834.834,0,1,0,0-1.668h-3.6a4.635,4.635,0,0,0-.291,9.26v2.686H9.771v-1.59h.357a1.391,1.391,0,0,0,1.39-1.39V42.274h1.709a1.391,1.391,0,0,0,1.39-1.39V38.5a1.391,1.391,0,0,0-1.39-1.39H11.518V35.4a1.391,1.391,0,0,0-1.39-1.39H7.747a1.391,1.391,0,0,0-1.39,1.39v1.709H4.648a1.391,1.391,0,0,0-1.39,1.39v2.381a1.391,1.391,0,0,0,1.39,1.39H6.357v1.709a1.391,1.391,0,0,0,1.39,1.39H8.1v1.59H5.2a1.948,1.948,0,0,0-1.946,1.946v3.34a.834.834,0,0,0,1.668,0v-3.34a.278.278,0,0,1,.278-.278H51.73a.278.278,0,0,1,.278.278V77.86a4.664,4.664,0,0,0-1.649.388,5.517,5.517,0,0,0-10.017,3.2v.272h-1.5v-11h.3a1.169,1.169,0,0,0,1.168-1.168V66.593a1.169,1.169,0,0,0-1.168-1.168H26.465a.834.834,0,0,0,0,1.668H38.638v1.952H18.3V67.093h4.277a.834.834,0,1,0,0-1.668H17.8a1.169,1.169,0,0,0-1.168,1.168v2.953A1.169,1.169,0,0,0,17.8,70.713h.3v11h-1.5v-.272a5.517,5.517,0,0,0-10.016-3.2,4.664,4.664,0,0,0-1.649-.388V56.141a.834.834,0,1,0-1.668,0V78.08A4.7,4.7,0,0,0,0,82.549a.834.834,0,0,0,.834.834H56.1a.834.834,0,0,0,.834-.834,4.7,4.7,0,0,0-3.258-4.469ZM8.025,43.7V41.44a.834.834,0,0,0-.834-.834H4.926V38.781H7.191a.834.834,0,0,0,.834-.834V35.682H9.85v2.265a.834.834,0,0,0,.834.834h2.265v1.825H10.684a.834.834,0,0,0-.834.834V43.7Zm21.539,3.258H27.853V44.287h1.711Zm14.721,0H31.231V44.287H44.285Zm3.379,0H45.953V44.287h1.711ZM1.785,81.715a3.028,3.028,0,0,1,5.821,0Zm13.139,0H9.315a4.689,4.689,0,0,0-1.356-2.537,3.85,3.85,0,0,1,6.965,2.266v.272Zm9.46,0H19.763v-11h4.621Zm6.5,0h-4.83v-11h4.83Zm6.288,0H32.55v-11H37.17Zm10.448,0H42.01v-.272a3.85,3.85,0,0,1,6.965-2.266,4.689,4.689,0,0,0-1.357,2.537Zm1.709,0a3.028,3.028,0,0,1,5.821,0Z" transform="translate(0 -34.014)"/>
        <path id="Trazado_875570_-_Contorno" data-name="Trazado 875570 - Contorno" d="M56.1,85.883H.834A3.338,3.338,0,0,1-2.5,82.549a7.134,7.134,0,0,1,1.413-4.278A7.207,7.207,0,0,1,.758,76.526V56.141a3.316,3.316,0,0,1,.628-1.946,3.316,3.316,0,0,1-.628-1.946v-3.34a4.454,4.454,0,0,1,3.058-4.224,3.9,3.9,0,0,1-3.058-3.8V38.5A3.9,3.9,0,0,1,3.924,34.68a3.9,3.9,0,0,1,3.822-3.166h2.381a3.9,3.9,0,0,1,3.822,3.166A3.9,3.9,0,0,1,17.117,38.5v2.381a3.9,3.9,0,0,1-2.366,3.579h6.462a7.13,7.13,0,0,1,5.263-11.946h3.6a3.316,3.316,0,0,1,1.946.628,3.316,3.316,0,0,1,1.946-.628H49.04a7.131,7.131,0,0,1,4.75,12.453,4.45,4.45,0,0,1,2.385,3.939V76.526a7.206,7.206,0,0,1,1.845,1.744,7.134,7.134,0,0,1,1.413,4.278A3.338,3.338,0,0,1,56.1,85.883ZM11.071,73.423a7.976,7.976,0,0,1,4.524,1.4V72.478a3.665,3.665,0,0,1-1.467-2.933V66.593A3.672,3.672,0,0,1,17.8,62.925h4.778a3.316,3.316,0,0,1,1.946.628,3.316,3.316,0,0,1,1.946-.628H39.138a3.672,3.672,0,0,1,3.668,3.668v2.953a3.665,3.665,0,0,1-1.467,2.933v2.346a7.994,7.994,0,0,1,8.169-.52V51.131H7.426v1.118A3.316,3.316,0,0,1,6.8,54.195a3.316,3.316,0,0,1,.628,1.946V74.3A8,8,0,0,1,11.071,73.423Zm15.4-34.238a.467.467,0,0,0,0,.934H49.041a.467.467,0,1,0,0-.934H33.971a3.316,3.316,0,0,1-1.946-.628,3.316,3.316,0,0,1-1.946.628Z" transform="translate(0 -34.014)" fill="#fff"/>
        <path id="Trazado_875571" data-name="Trazado 875571" d="M72.354,195.9h3.918a1.169,1.169,0,0,0,1.168-1.168v-2.953a1.169,1.169,0,0,0-1.168-1.168H72.354a1.169,1.169,0,0,0-1.168,1.168v2.953A1.169,1.169,0,0,0,72.354,195.9Zm.5-3.62h2.917v1.952H72.854Z" transform="translate(-63.27 -173.199)"/>
        <path id="Trazado_875571_-_Contorno" data-name="Trazado 875571 - Contorno" d="M76.272,198.4H72.354a3.672,3.672,0,0,1-3.668-3.668v-2.953a3.672,3.672,0,0,1,3.668-3.668h3.918a3.672,3.672,0,0,1,3.668,3.668v2.953A3.672,3.672,0,0,1,76.272,198.4Z" transform="translate(-63.27 -173.199)" fill="#fff"/>
        <path id="Trazado_875572" data-name="Trazado 875572" d="M150.7,195.9h3.918a1.169,1.169,0,0,0,1.168-1.168v-2.953a1.169,1.169,0,0,0-1.168-1.168H150.7a1.169,1.169,0,0,0-1.168,1.168v2.953A1.169,1.169,0,0,0,150.7,195.9Zm.5-3.62h2.917v1.952H151.2Z" transform="translate(-132.906 -173.199)"/>
        <path id="Trazado_875572_-_Contorno" data-name="Trazado 875572 - Contorno" d="M154.62,198.4H150.7a3.672,3.672,0,0,1-3.668-3.668v-2.953a3.672,3.672,0,0,1,3.668-3.668h3.918a3.672,3.672,0,0,1,3.668,3.668v2.953A3.672,3.672,0,0,1,154.62,198.4Z" transform="translate(-132.906 -173.199)" fill="#fff"/>
        <path id="Trazado_875573" data-name="Trazado 875573" d="M229.05,195.9h3.918a1.169,1.169,0,0,0,1.168-1.168v-2.953a1.169,1.169,0,0,0-1.168-1.168H229.05a1.169,1.169,0,0,0-1.168,1.168v2.953A1.169,1.169,0,0,0,229.05,195.9Zm.5-3.62h2.917v1.952H229.55Z" transform="translate(-202.542 -173.199)"/>
        <path id="Trazado_875573_-_Contorno" data-name="Trazado 875573 - Contorno" d="M232.968,198.4H229.05a3.672,3.672,0,0,1-3.668-3.668v-2.953a3.672,3.672,0,0,1,3.668-3.668h3.918a3.672,3.672,0,0,1,3.668,3.668v2.953A3.672,3.672,0,0,1,232.968,198.4Z" transform="translate(-202.542 -173.199)" fill="#fff"/>
        <path id="Trazado_875574" data-name="Trazado 875574" d="M307.4,195.9h3.918a1.169,1.169,0,0,0,1.168-1.168v-2.953a1.169,1.169,0,0,0-1.168-1.168H307.4a1.169,1.169,0,0,0-1.168,1.168v2.953A1.169,1.169,0,0,0,307.4,195.9Zm.5-3.62h2.917v1.952H307.9Z" transform="translate(-272.178 -173.199)"/>
        <path id="Trazado_875574_-_Contorno" data-name="Trazado 875574 - Contorno" d="M311.316,198.4H307.4a3.672,3.672,0,0,1-3.668-3.668v-2.953a3.672,3.672,0,0,1,3.668-3.668h3.918a3.672,3.672,0,0,1,3.668,3.668v2.953A3.672,3.672,0,0,1,311.316,198.4Z" transform="translate(-272.178 -173.199)" fill="#fff"/>
        <path id="Trazado_875575" data-name="Trazado 875575" d="M71.186,257.671a1.169,1.169,0,0,0,1.168,1.168h3.918a1.169,1.169,0,0,0,1.168-1.168v-2.953a1.169,1.169,0,0,0-1.168-1.168H72.354a1.169,1.169,0,0,0-1.168,1.168Zm1.668-2.452h2.917v1.952H72.854Z" transform="translate(-63.27 -229.139)"/>
        <path id="Trazado_875575_-_Contorno" data-name="Trazado 875575 - Contorno" d="M76.272,261.339H72.354a3.672,3.672,0,0,1-3.668-3.668v-2.953a3.672,3.672,0,0,1,3.668-3.668h3.918a3.672,3.672,0,0,1,3.668,3.668v2.953A3.672,3.672,0,0,1,76.272,261.339Z" transform="translate(-63.27 -229.139)" fill="#fff"/>
        <path id="Trazado_875576" data-name="Trazado 875576" d="M149.534,257.671a1.169,1.169,0,0,0,1.168,1.168h3.918a1.169,1.169,0,0,0,1.168-1.168v-2.953a1.169,1.169,0,0,0-1.168-1.168H150.7a1.169,1.169,0,0,0-1.168,1.168Zm1.668-2.452h2.917v1.952H151.2Z" transform="translate(-132.906 -229.139)"/>
        <path id="Trazado_875576_-_Contorno" data-name="Trazado 875576 - Contorno" d="M154.62,261.339H150.7a3.672,3.672,0,0,1-3.668-3.668v-2.953a3.672,3.672,0,0,1,3.668-3.668h3.918a3.672,3.672,0,0,1,3.668,3.668v2.953A3.672,3.672,0,0,1,154.62,261.339Z" transform="translate(-132.906 -229.139)" fill="#fff"/>
        <path id="Trazado_875577" data-name="Trazado 875577" d="M227.882,257.671a1.169,1.169,0,0,0,1.168,1.168h3.918a1.169,1.169,0,0,0,1.168-1.168v-2.953a1.169,1.169,0,0,0-1.168-1.168H229.05a1.169,1.169,0,0,0-1.168,1.168Zm1.668-2.452h2.917v1.952H229.55Z" transform="translate(-202.542 -229.139)"/>
        <path id="Trazado_875577_-_Contorno" data-name="Trazado 875577 - Contorno" d="M232.968,261.339H229.05a3.672,3.672,0,0,1-3.668-3.668v-2.953a3.672,3.672,0,0,1,3.668-3.668h3.918a3.672,3.672,0,0,1,3.668,3.668v2.953A3.672,3.672,0,0,1,232.968,261.339Z" transform="translate(-202.542 -229.139)" fill="#fff"/>
        <path id="Trazado_875578" data-name="Trazado 875578" d="M306.23,257.671a1.169,1.169,0,0,0,1.168,1.168h3.918a1.169,1.169,0,0,0,1.168-1.168v-2.953a1.169,1.169,0,0,0-1.168-1.168H307.4a1.169,1.169,0,0,0-1.168,1.168Zm1.668-2.452h2.917v1.952H307.9Z" transform="translate(-272.178 -229.139)"/>
        <path id="Trazado_875578_-_Contorno" data-name="Trazado 875578 - Contorno" d="M311.316,261.339H307.4a3.672,3.672,0,0,1-3.668-3.668v-2.953a3.672,3.672,0,0,1,3.668-3.668h3.918a3.672,3.672,0,0,1,3.668,3.668v2.953A3.672,3.672,0,0,1,311.316,261.339Z" transform="translate(-272.178 -229.139)" fill="#fff"/>
        <path id="Trazado_875579" data-name="Trazado 875579" d="M71.186,320.611a1.169,1.169,0,0,0,1.168,1.168h3.918a1.169,1.169,0,0,0,1.168-1.168v-2.953a1.169,1.169,0,0,0-1.168-1.168H72.354a1.169,1.169,0,0,0-1.168,1.168Zm1.668-2.452h2.917v1.952H72.854Z" transform="translate(-63.27 -285.08)"/>
        <path id="Trazado_875579_-_Contorno" data-name="Trazado 875579 - Contorno" d="M76.272,324.279H72.354a3.672,3.672,0,0,1-3.668-3.668v-2.953a3.672,3.672,0,0,1,3.668-3.668h3.918a3.672,3.672,0,0,1,3.668,3.668v2.953A3.672,3.672,0,0,1,76.272,324.279Z" transform="translate(-63.27 -285.08)" fill="#fff"/>
        <path id="Trazado_875580" data-name="Trazado 875580" d="M385.746,195.9h3.918a1.169,1.169,0,0,0,1.168-1.168v-2.953a1.169,1.169,0,0,0-1.168-1.168h-3.918a1.169,1.169,0,0,0-1.168,1.168v2.953A1.169,1.169,0,0,0,385.746,195.9Zm.5-3.62h2.917v1.952h-2.917Z" transform="translate(-341.814 -173.199)"/>
        <path id="Trazado_875580_-_Contorno" data-name="Trazado 875580 - Contorno" d="M389.664,198.4h-3.918a3.672,3.672,0,0,1-3.668-3.668v-2.953a3.672,3.672,0,0,1,3.668-3.668h3.918a3.672,3.672,0,0,1,3.668,3.668v2.953A3.672,3.672,0,0,1,389.664,198.4Z" transform="translate(-341.814 -173.199)" fill="#fff"/>
        <path id="Trazado_875581" data-name="Trazado 875581" d="M384.578,257.671a1.169,1.169,0,0,0,1.168,1.168h3.918a1.169,1.169,0,0,0,1.168-1.168v-2.953a1.169,1.169,0,0,0-1.168-1.168h-3.918a1.169,1.169,0,0,0-1.168,1.168Zm1.668-2.452h2.917v1.952h-2.917Z" transform="translate(-341.814 -229.139)"/>
        <path id="Trazado_875581_-_Contorno" data-name="Trazado 875581 - Contorno" d="M389.664,261.339h-3.918a3.672,3.672,0,0,1-3.668-3.668v-2.953a3.672,3.672,0,0,1,3.668-3.668h3.918a3.672,3.672,0,0,1,3.668,3.668v2.953A3.672,3.672,0,0,1,389.664,261.339Z" transform="translate(-341.814 -229.139)" fill="#fff"/>
        <path id="Trazado_875582" data-name="Trazado 875582" d="M384.578,320.611a1.169,1.169,0,0,0,1.168,1.168h3.918a1.169,1.169,0,0,0,1.168-1.168v-2.953a1.169,1.169,0,0,0-1.168-1.168h-3.918a1.169,1.169,0,0,0-1.168,1.168Zm1.668-2.452h2.917v1.952h-2.917Z" transform="translate(-341.814 -285.08)"/>
        <path id="Trazado_875582_-_Contorno" data-name="Trazado 875582 - Contorno" d="M389.664,324.279h-3.918a3.672,3.672,0,0,1-3.668-3.668v-2.953a3.672,3.672,0,0,1,3.668-3.668h3.918a3.672,3.672,0,0,1,3.668,3.668v2.953A3.672,3.672,0,0,1,389.664,324.279Z" transform="translate(-341.814 -285.08)" fill="#fff"/>
      </g>
    </g>
    <g id="hospital-2" data-name="hospital" transform="translate(29.304 -5306.928)">
      <g id="Grupo_1100239-2" data-name="Grupo 1100239" transform="translate(4.092 34.848)">
        <g id="Grupo_1100233-2" data-name="Grupo 1100233" transform="translate(18.583 1.003)">
          <g id="Grupo_1100229-2" data-name="Grupo 1100229" transform="translate(4.344 7.491)">
            <g id="Grupo_1100225-2" data-name="Grupo 1100225">
              <path id="Trazado_875533-2" data-name="Trazado 875533" d="M242.978,117.9h3.379v4.566h-3.379Z" transform="translate(-242.978 -117.897)" fill="#b9acac"/>
            </g>
            <g id="Grupo_1100226-2" data-name="Grupo 1100226" transform="translate(1.627)">
              <path id="Trazado_875534-2" data-name="Trazado 875534" d="M257.611,117.9h1.751v4.566h-1.751Z" transform="translate(-257.611 -117.897)" fill="#9e9797"/>
            </g>
            <g id="Grupo_1100227-2" data-name="Grupo 1100227" transform="translate(18.1)">
              <path id="Trazado_875535-2" data-name="Trazado 875535" d="M405.751,117.9h3.379v4.566h-3.379Z" transform="translate(-405.751 -117.897)" fill="#b9acac"/>
            </g>
            <g id="Grupo_1100228-2" data-name="Grupo 1100228" transform="translate(19.727)">
              <path id="Trazado_875536-2" data-name="Trazado 875536" d="M420.384,117.9h1.751v4.566h-1.751Z" transform="translate(-420.384 -117.897)" fill="#9e9797"/>
            </g>
          </g>
          <g id="Grupo_1100232-2" data-name="Grupo 1100232">
            <g id="Grupo_1100230-2" data-name="Grupo 1100230" transform="translate(0 0)">
              <path id="Trazado_875537-2" data-name="Trazado 875537" d="M230.279,58.135H207.714a3.8,3.8,0,1,1,0-7.6h22.565a3.8,3.8,0,1,1,0,7.6Z" transform="translate(-203.913 -50.533)" fill="#05e39c"/>
            </g>
            <g id="Grupo_1100231-2" data-name="Grupo 1100231" transform="translate(21.705)">
              <path id="Trazado_875538-2" data-name="Trazado 875538" d="M403.767,50.532h-4.661a3.8,3.8,0,1,1,0,7.6h4.661a3.8,3.8,0,0,0,0-7.6Z" transform="translate(-399.106 -50.532)" fill="#0ed290"/>
            </g>
          </g>
        </g>
        <path id="Trazado_875539-2" data-name="Trazado 875539" d="M84.437,157.963H37.911a1.112,1.112,0,0,0-1.112,1.112V188.9a3.862,3.862,0,0,1,4.465,3.814H85.548v-33.64a1.112,1.112,0,0,0-1.112-1.112Z" transform="translate(-36.799 -145.014)" fill="#e1d3ce"/>
        <path id="Trazado_875540-2" data-name="Trazado 875540" d="M419.112,159.075v28.179a4.7,4.7,0,0,1,2.468,2.272,3.843,3.843,0,0,1,2.178-.673,3.883,3.883,0,0,1,.6.047V159.075a1.112,1.112,0,0,0-1.112-1.112H418A1.112,1.112,0,0,1,419.112,159.075Z" transform="translate(-375.611 -145.014)" fill="#cdbfba"/>
        <g id="Grupo_1100238-2" data-name="Grupo 1100238" transform="translate(0 0)">
          <g id="Grupo_1100235-2" data-name="Grupo 1100235">
            <g id="Grupo_1100234-2" data-name="Grupo 1100234">
              <path id="Trazado_875541-2" data-name="Trazado 875541" d="M45.934,44.612H43.391V42.069a.556.556,0,0,0-.556-.556H40.454a.556.556,0,0,0-.556.556v2.543H37.355a.556.556,0,0,0-.556.556v2.381a.556.556,0,0,0,.556.556H39.9v2.543a.556.556,0,0,0,.556.556h2.381a.556.556,0,0,0,.556-.556V48.105h2.543a.556.556,0,0,0,.556-.556V45.168A.556.556,0,0,0,45.934,44.612Z" transform="translate(-36.799 -41.513)" fill="#05e39c"/>
            </g>
          </g>
          <g id="Grupo_1100237-2" data-name="Grupo 1100237" transform="translate(3.099 3.099)">
            <g id="Grupo_1100236-2" data-name="Grupo 1100236">
              <path id="Trazado_875542-2" data-name="Trazado 875542" d="M70.7,69.381H69.558v1.268A.556.556,0,0,1,69,71.2H67.571a1.112,1.112,0,0,0-1.112,1.112v1.431a.556.556,0,0,1-.556.556H64.667v1.113a.556.556,0,0,0,.556.556H67.6a.556.556,0,0,0,.556-.556V72.874H70.7a.556.556,0,0,0,.556-.556V69.937a.556.556,0,0,0-.556-.556Z" transform="translate(-64.667 -69.381)" fill="#0ed290"/>
            </g>
          </g>
        </g>
      </g>
      <g id="Grupo_1100247-2" data-name="Grupo 1100247" transform="translate(0.834 76.757)">
        <g id="Grupo_1100242-2" data-name="Grupo 1100242" transform="translate(40.342 0)">
          <path id="Trazado_875543-2" data-name="Trazado 875543" d="M379.181,421a4.686,4.686,0,0,0-8.884,2.083v1.106h7.2A3.856,3.856,0,0,1,379.181,421Z" transform="translate(-370.297 -418.399)" fill="#05e39c"/>
          <path id="Trazado_875544-2" data-name="Trazado 875544" d="M402.73,421a4.686,4.686,0,0,0-5.938-2.268,4.687,4.687,0,0,1,2.946,4.351v1.106h1.308A3.857,3.857,0,0,1,402.73,421Z" transform="translate(-393.846 -418.399)" fill="#0ed290"/>
          <g id="Grupo_1100240-2" data-name="Grupo 1100240" transform="translate(7.2 1.931)">
            <path id="Trazado_875545-2" data-name="Trazado 875545" d="M438.911,435.762a3.861,3.861,0,0,0-3.861,3.861h7.723A3.861,3.861,0,0,0,438.911,435.762Z" transform="translate(-435.05 -435.762)" fill="#05e39c"/>
          </g>
          <g id="Grupo_1100241-2" data-name="Grupo 1100241" transform="translate(9.588 1.931)">
            <path id="Trazado_875546-2" data-name="Trazado 875546" d="M458,435.762a3.848,3.848,0,0,0-1.473.292,3.862,3.862,0,0,1,2.388,3.57h2.947A3.861,3.861,0,0,0,458,435.762Z" transform="translate(-456.525 -435.762)" fill="#0ed290"/>
          </g>
        </g>
        <g id="Grupo_1100246-2" data-name="Grupo 1100246" transform="translate(0 0)">
          <path id="Trazado_875547-2" data-name="Trazado 875547" d="M66.006,418.4a4.685,4.685,0,0,0-4.2,2.6,3.857,3.857,0,0,1,1.684,3.189h7.2v-1.106a4.686,4.686,0,0,0-4.686-4.686Z" transform="translate(-55.769 -418.399)" fill="#05e39c"/>
          <g id="Grupo_1100243-2" data-name="Grupo 1100243" transform="translate(8.49)">
            <path id="Trazado_875548-2" data-name="Trazado 875548" d="M85.6,418.4a4.67,4.67,0,0,0-1.747.338,4.687,4.687,0,0,1,2.94,4.349v1.106h3.494v-1.106A4.686,4.686,0,0,0,85.6,418.4Z" transform="translate(-83.852 -418.399)" fill="#0ed290"/>
          </g>
          <g id="Grupo_1100244-2" data-name="Grupo 1100244" transform="translate(0 1.931)">
            <path id="Trazado_875549-2" data-name="Trazado 875549" d="M11.361,435.762a3.861,3.861,0,0,1,3.861,3.861H7.5A3.861,3.861,0,0,1,11.361,435.762Z" transform="translate(-7.5 -435.762)" fill="#05e39c"/>
          </g>
          <g id="Grupo_1100245-2" data-name="Grupo 1100245" transform="translate(2.444 1.931)">
            <path id="Trazado_875550-2" data-name="Trazado 875550" d="M30.893,435.762a3.847,3.847,0,0,0-1.418.27,3.862,3.862,0,0,1,2.444,3.591h2.836A3.861,3.861,0,0,0,30.893,435.762Z" transform="translate(-29.475 -435.762)" fill="#0ed290"/>
          </g>
        </g>
      </g>
      <g id="Grupo_1100248-2" data-name="Grupo 1100248" transform="translate(18.929 69.768)">
        <path id="Trazado_875551-2" data-name="Trazado 875551" d="M170.229,355.546H189.3v12.781H170.229Z" transform="translate(-170.229 -355.546)" fill="#d8ecfe"/>
      </g>
      <g id="Grupo_1100249-2" data-name="Grupo 1100249" transform="translate(35.695 69.768)">
        <path id="Trazado_875552-2" data-name="Trazado 875552" d="M321,355.546h2.31v12.781H321Z" transform="translate(-321 -355.546)" fill="#c4e2ff"/>
      </g>
      <g id="Grupo_1100250-2" data-name="Grupo 1100250" transform="translate(29.406 69.768)">
        <path id="Trazado_875553-2" data-name="Trazado 875553" d="M264.448,355.546h2.31v12.781h-2.31Z" transform="translate(-264.448 -355.546)" fill="#c4e2ff"/>
      </g>
      <g id="Grupo_1100251-2" data-name="Grupo 1100251" transform="translate(22.684 69.768)">
        <path id="Trazado_875554-2" data-name="Trazado 875554" d="M204,355.546h2.533v12.781H204Z" transform="translate(-204 -355.546)" fill="#c4e2ff"/>
      </g>
      <g id="Grupo_1100252-2" data-name="Grupo 1100252" transform="translate(17.462 66.259)">
        <path id="Trazado_875555-2" data-name="Trazado 875555" d="M178.71,327.611H157.368a.334.334,0,0,1-.334-.334v-2.953a.334.334,0,0,1,.334-.334H178.71a.334.334,0,0,1,.334.334v2.953A.334.334,0,0,1,178.71,327.611Z" transform="translate(-157.034 -323.991)" fill="#26a6fe"/>
      </g>
      <g id="Grupo_1100253-2" data-name="Grupo 1100253" transform="translate(17.462 66.259)">
        <path id="Trazado_875556-2" data-name="Trazado 875556" d="M178.71,323.991h-2.561v1.78a.334.334,0,0,1-.334.334H157.034v1.173a.334.334,0,0,0,.334.334H178.71a.334.334,0,0,0,.334-.334v-2.953A.334.334,0,0,0,178.71,323.991Z" transform="translate(-157.034 -323.991)" fill="#0593fc"/>
      </g>
      <g id="Grupo_1100259-2" data-name="Grupo 1100259" transform="translate(8.75 52.262)">
        <g id="Grupo_1100254-2" data-name="Grupo 1100254">
          <path id="Trazado_875557-2" data-name="Trazado 875557" d="M82.938,201.733H79.02a.334.334,0,0,1-.334-.334v-2.953a.334.334,0,0,1,.334-.334h3.918a.334.334,0,0,1,.334.334V201.4A.334.334,0,0,1,82.938,201.733Z" transform="translate(-78.686 -198.113)" fill="#fff"/>
        </g>
        <g id="Grupo_1100255-2" data-name="Grupo 1100255" transform="translate(8.712)">
          <path id="Trazado_875558-2" data-name="Trazado 875558" d="M161.286,201.733h-3.918a.334.334,0,0,1-.334-.334v-2.953a.334.334,0,0,1,.334-.334h3.918a.334.334,0,0,1,.334.334V201.4a.334.334,0,0,1-.334.334Z" transform="translate(-157.034 -198.113)" fill="#fff"/>
        </g>
        <g id="Grupo_1100256-2" data-name="Grupo 1100256" transform="translate(17.424)">
          <path id="Trazado_875559-2" data-name="Trazado 875559" d="M239.634,201.733h-3.918a.334.334,0,0,1-.334-.334v-2.953a.334.334,0,0,1,.334-.334h3.918a.334.334,0,0,1,.334.334V201.4A.334.334,0,0,1,239.634,201.733Z" transform="translate(-235.382 -198.113)" fill="#fff"/>
        </g>
        <g id="Grupo_1100257-2" data-name="Grupo 1100257" transform="translate(26.136)">
          <path id="Trazado_875560-2" data-name="Trazado 875560" d="M317.982,201.733h-3.918a.334.334,0,0,1-.334-.334v-2.953a.334.334,0,0,1,.334-.334h3.918a.334.334,0,0,1,.334.334V201.4A.334.334,0,0,1,317.982,201.733Z" transform="translate(-313.73 -198.113)" fill="#fff"/>
        </g>
        <g id="Grupo_1100258-2" data-name="Grupo 1100258" transform="translate(34.849)">
          <path id="Trazado_875561-2" data-name="Trazado 875561" d="M396.33,201.733h-3.918a.334.334,0,0,1-.334-.334v-2.953a.334.334,0,0,1,.334-.334h3.918a.334.334,0,0,1,.334.334V201.4A.334.334,0,0,1,396.33,201.733Z" transform="translate(-392.078 -198.113)" fill="#fff"/>
        </g>
      </g>
      <g id="Grupo_1100265-2" data-name="Grupo 1100265" transform="translate(8.75 59.26)">
        <g id="Grupo_1100260-2" data-name="Grupo 1100260">
          <path id="Trazado_875562-2" data-name="Trazado 875562" d="M82.938,264.672H79.02a.334.334,0,0,1-.334-.334v-2.953a.334.334,0,0,1,.334-.334h3.918a.334.334,0,0,1,.334.334v2.953A.334.334,0,0,1,82.938,264.672Z" transform="translate(-78.686 -261.052)" fill="#fff"/>
        </g>
        <g id="Grupo_1100261-2" data-name="Grupo 1100261" transform="translate(8.712)">
          <path id="Trazado_875563-2" data-name="Trazado 875563" d="M161.286,264.672h-3.918a.334.334,0,0,1-.334-.334v-2.953a.334.334,0,0,1,.334-.334h3.918a.334.334,0,0,1,.334.334v2.953a.334.334,0,0,1-.334.334Z" transform="translate(-157.034 -261.052)" fill="#fff"/>
        </g>
        <g id="Grupo_1100262-2" data-name="Grupo 1100262" transform="translate(17.424)">
          <path id="Trazado_875564-2" data-name="Trazado 875564" d="M239.634,264.672h-3.918a.334.334,0,0,1-.334-.334v-2.953a.334.334,0,0,1,.334-.334h3.918a.334.334,0,0,1,.334.334v2.953A.334.334,0,0,1,239.634,264.672Z" transform="translate(-235.382 -261.052)" fill="#fff"/>
        </g>
        <g id="Grupo_1100263-2" data-name="Grupo 1100263" transform="translate(26.136)">
          <path id="Trazado_875565-2" data-name="Trazado 875565" d="M317.982,264.672h-3.918a.334.334,0,0,1-.334-.334v-2.953a.334.334,0,0,1,.334-.334h3.918a.334.334,0,0,1,.334.334v2.953A.334.334,0,0,1,317.982,264.672Z" transform="translate(-313.73 -261.052)" fill="#fff"/>
        </g>
        <g id="Grupo_1100264-2" data-name="Grupo 1100264" transform="translate(34.849)">
          <path id="Trazado_875566-2" data-name="Trazado 875566" d="M396.33,264.672h-3.918a.334.334,0,0,1-.334-.334v-2.953a.334.334,0,0,1,.334-.334h3.918a.334.334,0,0,1,.334.334v2.953A.334.334,0,0,1,396.33,264.672Z" transform="translate(-392.078 -261.052)" fill="#fff"/>
        </g>
      </g>
      <g id="Grupo_1100268-2" data-name="Grupo 1100268" transform="translate(8.75 66.259)">
        <g id="Grupo_1100266-2" data-name="Grupo 1100266">
          <path id="Trazado_875567-2" data-name="Trazado 875567" d="M82.938,327.611H79.02a.334.334,0,0,1-.334-.334v-2.953a.334.334,0,0,1,.334-.334h3.918a.334.334,0,0,1,.334.334v2.953A.334.334,0,0,1,82.938,327.611Z" transform="translate(-78.686 -323.991)" fill="#fff"/>
        </g>
        <g id="Grupo_1100267-2" data-name="Grupo 1100267" transform="translate(34.849)">
          <path id="Trazado_875568-2" data-name="Trazado 875568" d="M396.33,327.611h-3.918a.334.334,0,0,1-.334-.334v-2.953a.334.334,0,0,1,.334-.334h3.918a.334.334,0,0,1,.334.334v2.953A.334.334,0,0,1,396.33,327.611Z" transform="translate(-392.078 -323.991)" fill="#fff"/>
        </g>
      </g>
      <g id="Grupo_1100269-2" data-name="Grupo 1100269" transform="translate(0 34.014)">
        <path id="Trazado_875582-2" data-name="Trazado 875582" d="M384.578,320.611a1.169,1.169,0,0,0,1.168,1.168h3.918a1.169,1.169,0,0,0,1.168-1.168v-2.953a1.169,1.169,0,0,0-1.168-1.168h-3.918a1.169,1.169,0,0,0-1.168,1.168Zm1.668-2.452h2.917v1.952h-2.917Z" transform="translate(-341.814 -285.08)"/>
        <path id="Trazado_875569-2" data-name="Trazado 875569" d="M235.478,78.049a.834.834,0,0,0,.834.834h21.479a.834.834,0,0,0,0-1.668H236.312A.834.834,0,0,0,235.478,78.049Z" transform="translate(-209.293 -72.411)"/>
        <path id="Trazado_875570-2" data-name="Trazado 875570" d="M53.676,78.08V48.909a1.948,1.948,0,0,0-1.946-1.946h-2.4V44.277a4.635,4.635,0,0,0-.291-9.26H33.971a.834.834,0,1,0,0,1.668H49.041a2.967,2.967,0,1,1,0,5.934H26.476a2.967,2.967,0,0,1,0-5.934h3.6a.834.834,0,1,0,0-1.668h-3.6a4.635,4.635,0,0,0-.291,9.26v2.686H9.771v-1.59h.357a1.391,1.391,0,0,0,1.39-1.39V42.274h1.709a1.391,1.391,0,0,0,1.39-1.39V38.5a1.391,1.391,0,0,0-1.39-1.39H11.518V35.4a1.391,1.391,0,0,0-1.39-1.39H7.747a1.391,1.391,0,0,0-1.39,1.39v1.709H4.648a1.391,1.391,0,0,0-1.39,1.39v2.381a1.391,1.391,0,0,0,1.39,1.39H6.357v1.709a1.391,1.391,0,0,0,1.39,1.39H8.1v1.59H5.2a1.948,1.948,0,0,0-1.946,1.946v3.34a.834.834,0,0,0,1.668,0v-3.34a.278.278,0,0,1,.278-.278H51.73a.278.278,0,0,1,.278.278V77.86a4.664,4.664,0,0,0-1.649.388,5.517,5.517,0,0,0-10.017,3.2v.272h-1.5v-11h.3a1.169,1.169,0,0,0,1.168-1.168V66.593a1.169,1.169,0,0,0-1.168-1.168H26.465a.834.834,0,0,0,0,1.668H38.638v1.952H18.3V67.093h4.277a.834.834,0,1,0,0-1.668H17.8a1.169,1.169,0,0,0-1.168,1.168v2.953A1.169,1.169,0,0,0,17.8,70.713h.3v11h-1.5v-.272a5.517,5.517,0,0,0-10.016-3.2,4.664,4.664,0,0,0-1.649-.388V56.141a.834.834,0,1,0-1.668,0V78.08A4.7,4.7,0,0,0,0,82.549a.834.834,0,0,0,.834.834H56.1a.834.834,0,0,0,.834-.834,4.7,4.7,0,0,0-3.258-4.469ZM8.025,43.7V41.44a.834.834,0,0,0-.834-.834H4.926V38.781H7.191a.834.834,0,0,0,.834-.834V35.682H9.85v2.265a.834.834,0,0,0,.834.834h2.265v1.825H10.684a.834.834,0,0,0-.834.834V43.7Zm21.539,3.258H27.853V44.287h1.711Zm14.721,0H31.231V44.287H44.285Zm3.379,0H45.953V44.287h1.711ZM1.785,81.715a3.028,3.028,0,0,1,5.821,0Zm13.139,0H9.315a4.689,4.689,0,0,0-1.356-2.537,3.85,3.85,0,0,1,6.965,2.266v.272Zm9.46,0H19.763v-11h4.621Zm6.5,0h-4.83v-11h4.83Zm6.288,0H32.55v-11H37.17Zm10.448,0H42.01v-.272a3.85,3.85,0,0,1,6.965-2.266,4.689,4.689,0,0,0-1.357,2.537Zm1.709,0a3.028,3.028,0,0,1,5.821,0Z" transform="translate(0 -34.014)"/>
        <path id="Trazado_875571-2" data-name="Trazado 875571" d="M72.354,195.9h3.918a1.169,1.169,0,0,0,1.168-1.168v-2.953a1.169,1.169,0,0,0-1.168-1.168H72.354a1.169,1.169,0,0,0-1.168,1.168v2.953A1.169,1.169,0,0,0,72.354,195.9Zm.5-3.62h2.917v1.952H72.854Z" transform="translate(-63.27 -173.199)"/>
        <path id="Trazado_875572-2" data-name="Trazado 875572" d="M150.7,195.9h3.918a1.169,1.169,0,0,0,1.168-1.168v-2.953a1.169,1.169,0,0,0-1.168-1.168H150.7a1.169,1.169,0,0,0-1.168,1.168v2.953A1.169,1.169,0,0,0,150.7,195.9Zm.5-3.62h2.917v1.952H151.2Z" transform="translate(-132.906 -173.199)"/>
        <path id="Trazado_875573-2" data-name="Trazado 875573" d="M229.05,195.9h3.918a1.169,1.169,0,0,0,1.168-1.168v-2.953a1.169,1.169,0,0,0-1.168-1.168H229.05a1.169,1.169,0,0,0-1.168,1.168v2.953A1.169,1.169,0,0,0,229.05,195.9Zm.5-3.62h2.917v1.952H229.55Z" transform="translate(-202.542 -173.199)"/>
        <path id="Trazado_875574-2" data-name="Trazado 875574" d="M307.4,195.9h3.918a1.169,1.169,0,0,0,1.168-1.168v-2.953a1.169,1.169,0,0,0-1.168-1.168H307.4a1.169,1.169,0,0,0-1.168,1.168v2.953A1.169,1.169,0,0,0,307.4,195.9Zm.5-3.62h2.917v1.952H307.9Z" transform="translate(-272.178 -173.199)"/>
        <path id="Trazado_875575-2" data-name="Trazado 875575" d="M71.186,257.671a1.169,1.169,0,0,0,1.168,1.168h3.918a1.169,1.169,0,0,0,1.168-1.168v-2.953a1.169,1.169,0,0,0-1.168-1.168H72.354a1.169,1.169,0,0,0-1.168,1.168Zm1.668-2.452h2.917v1.952H72.854Z" transform="translate(-63.27 -229.139)"/>
        <path id="Trazado_875576-2" data-name="Trazado 875576" d="M149.534,257.671a1.169,1.169,0,0,0,1.168,1.168h3.918a1.169,1.169,0,0,0,1.168-1.168v-2.953a1.169,1.169,0,0,0-1.168-1.168H150.7a1.169,1.169,0,0,0-1.168,1.168Zm1.668-2.452h2.917v1.952H151.2Z" transform="translate(-132.906 -229.139)"/>
        <path id="Trazado_875577-2" data-name="Trazado 875577" d="M227.882,257.671a1.169,1.169,0,0,0,1.168,1.168h3.918a1.169,1.169,0,0,0,1.168-1.168v-2.953a1.169,1.169,0,0,0-1.168-1.168H229.05a1.169,1.169,0,0,0-1.168,1.168Zm1.668-2.452h2.917v1.952H229.55Z" transform="translate(-202.542 -229.139)"/>
        <path id="Trazado_875578-2" data-name="Trazado 875578" d="M306.23,257.671a1.169,1.169,0,0,0,1.168,1.168h3.918a1.169,1.169,0,0,0,1.168-1.168v-2.953a1.169,1.169,0,0,0-1.168-1.168H307.4a1.169,1.169,0,0,0-1.168,1.168Zm1.668-2.452h2.917v1.952H307.9Z" transform="translate(-272.178 -229.139)"/>
        <path id="Trazado_875579-2" data-name="Trazado 875579" d="M71.186,320.611a1.169,1.169,0,0,0,1.168,1.168h3.918a1.169,1.169,0,0,0,1.168-1.168v-2.953a1.169,1.169,0,0,0-1.168-1.168H72.354a1.169,1.169,0,0,0-1.168,1.168Zm1.668-2.452h2.917v1.952H72.854Z" transform="translate(-63.27 -285.08)"/>
        <path id="Trazado_875580-2" data-name="Trazado 875580" d="M385.746,195.9h3.918a1.169,1.169,0,0,0,1.168-1.168v-2.953a1.169,1.169,0,0,0-1.168-1.168h-3.918a1.169,1.169,0,0,0-1.168,1.168v2.953A1.169,1.169,0,0,0,385.746,195.9Zm.5-3.62h2.917v1.952h-2.917Z" transform="translate(-341.814 -173.199)"/>
        <path id="Trazado_875581-2" data-name="Trazado 875581" d="M384.578,257.671a1.169,1.169,0,0,0,1.168,1.168h3.918a1.169,1.169,0,0,0,1.168-1.168v-2.953a1.169,1.169,0,0,0-1.168-1.168h-3.918a1.169,1.169,0,0,0-1.168,1.168Zm1.668-2.452h2.917v1.952h-2.917Z" transform="translate(-341.814 -229.139)"/>
      </g>
    </g>
  </g>
</svg>
