<svg xmlns="http://www.w3.org/2000/svg" width="91.542" height="91.541" viewBox="0 0 91.542 91.541">
  <g id="Grupo_1100222" data-name="Grupo 1100222" transform="translate(-321 5294)">
    <g id="Grupo_1098742" data-name="Grupo 1098742" transform="translate(321 -5294)">
      <rect id="Rect치ngulo_400898" data-name="Rect치ngulo 400898" width="91.541" height="91.541" rx="45.771" transform="translate(0.001 0)" fill="#769671" opacity="0.859"/>
      <rect id="Rect치ngulo_400907" data-name="Rect치ngulo 400907" width="91.541" height="91.541" rx="45.771" transform="translate(0 0)" fill="none"/>
    </g>
    <g id="banco" transform="translate(342 -5273)">
      <path id="Trazado_875498" data-name="Trazado 875498" d="M5,12H47.215V27.635H5Z" transform="translate(-0.873 -2.401)" fill="#c0dafc"/>
      <path id="Trazado_875498_-_Contorno" data-name="Trazado 875498 - Contorno" d="M2.5,9.5H49.715V30.135H2.5Zm42.215,5H7.5V25.135H44.715Z" transform="translate(-0.873 -2.401)" fill="#fff"/>
      <path id="Trazado_875499" data-name="Trazado 875499" d="M19,16h4.691v9.381H19Z" transform="translate(-3.928 -3.274)" fill="#f2f2f2"/>
      <path id="Trazado_875499_-_Contorno" data-name="Trazado 875499 - Contorno" d="M16.5,13.5h9.691V27.881H16.5Z" transform="translate(-3.928 -3.274)" fill="#fff"/>
      <path id="Trazado_875500" data-name="Trazado 875500" d="M2,32H48.905v7.818H2Z" transform="translate(-0.218 -6.766)" fill="#5e87ca"/>
      <path id="Trazado_875500_-_Contorno" data-name="Trazado 875500 - Contorno" d="M-.5,29.5H51.405V42.318H-.5Zm46.905,5H4.5v2.818H46.405Z" transform="translate(-0.218 -6.766)" fill="#fff"/>
      <path id="Trazado_875501" data-name="Trazado 875501" d="M46.56,35.909V32H2v5.472H45A1.564,1.564,0,0,0,46.56,35.909Z" transform="translate(-0.218 -6.766)" fill="#78a0d4"/>
      <path id="Trazado_875501_-_Contorno" data-name="Trazado 875501 - Contorno" d="M45,39.972H-.5V29.5H49.06v6.409A4.068,4.068,0,0,1,45,39.972Zm-40.5-5H44.06V34.5H4.5Z" transform="translate(-0.218 -6.766)" fill="#fff"/>
      <path id="Trazado_875502" data-name="Trazado 875502" d="M2,6H48.905v4.691H2Z" transform="translate(-0.218 -1.091)" fill="#5e87ca"/>
      <path id="Trazado_875502_-_Contorno" data-name="Trazado 875502 - Contorno" d="M-.5,3.5H51.405v9.691H-.5Z" transform="translate(-0.218 -1.091)" fill="#fff"/>
      <path id="Trazado_875503" data-name="Trazado 875503" d="M46.56,7.564V6H2V8.345H45.778A.782.782,0,0,0,46.56,7.564Z" transform="translate(-0.218 -1.091)" fill="#78a0d4"/>
      <path id="Trazado_875503_-_Contorno" data-name="Trazado 875503 - Contorno" d="M45.778,10.845H-.5V3.5H49.06V7.564A3.285,3.285,0,0,1,45.778,10.845Z" transform="translate(-0.218 -1.091)" fill="#fff"/>
      <path id="Trazado_875504" data-name="Trazado 875504" d="M29,16h4.691v9.381H29Z" transform="translate(-6.111 -3.274)" fill="#f2f2f2"/>
      <path id="Trazado_875504_-_Contorno" data-name="Trazado 875504 - Contorno" d="M26.5,13.5h9.691V27.881H26.5Z" transform="translate(-6.111 -3.274)" fill="#fff"/>
      <path id="Trazado_875505" data-name="Trazado 875505" d="M39,16h4.691v9.381H39Z" transform="translate(-8.293 -3.274)" fill="#f2f2f2"/>
      <path id="Trazado_875505_-_Contorno" data-name="Trazado 875505 - Contorno" d="M36.5,13.5h9.691V27.881H36.5Z" transform="translate(-8.293 -3.274)" fill="#fff"/>
      <path id="Trazado_875506" data-name="Trazado 875506" d="M49,16h4.691v9.381H49Z" transform="translate(-10.476 -3.274)" fill="#f2f2f2"/>
      <path id="Trazado_875506_-_Contorno" data-name="Trazado 875506 - Contorno" d="M46.5,13.5h9.691V27.881H46.5Z" transform="translate(-10.476 -3.274)" fill="#fff"/>
      <g id="Grupo_1100221" data-name="Grupo 1100221" transform="translate(15.072 12.726)">
        <path id="Trazado_875507" data-name="Trazado 875507" d="M49,16h3.127v7.818H49Z" transform="translate(-25.547 -16)" fill="#fff"/>
        <path id="Trazado_875507_-_Contorno" data-name="Trazado 875507 - Contorno" d="M46.5,13.5h8.127V26.318H46.5Z" transform="translate(-25.547 -16)" fill="#fff"/>
        <path id="Trazado_875508" data-name="Trazado 875508" d="M39,16h3.127v7.818H39Z" transform="translate(-23.365 -16)" fill="#fff"/>
        <path id="Trazado_875508_-_Contorno" data-name="Trazado 875508 - Contorno" d="M36.5,13.5h8.127V26.318H36.5Z" transform="translate(-23.365 -16)" fill="#fff"/>
        <path id="Trazado_875509" data-name="Trazado 875509" d="M29,16h3.127v7.818H29Z" transform="translate(-21.182 -16)" fill="#fff"/>
        <path id="Trazado_875509_-_Contorno" data-name="Trazado 875509 - Contorno" d="M26.5,13.5h8.127V26.318H26.5Z" transform="translate(-21.182 -16)" fill="#fff"/>
        <path id="Trazado_875510" data-name="Trazado 875510" d="M19,16h3.127v7.818H19Z" transform="translate(-19 -16)" fill="#fff"/>
        <path id="Trazado_875510_-_Contorno" data-name="Trazado 875510 - Contorno" d="M16.5,13.5h8.127V26.318H16.5Z" transform="translate(-19 -16)" fill="#fff"/>
      </g>
      <path id="Trazado_875511" data-name="Trazado 875511" d="M4,42V57.635H47.778V42" transform="translate(-0.655 -8.948)" fill="#c0dafc"/>
      <path id="Trazado_875511_-_Contorno" data-name="Trazado 875511 - Contorno" d="M50.278,60.135H1.5V42h5V55.135H45.278V42h5Z" transform="translate(-0.655 -8.948)" fill="#fff"/>
      <path id="Trazado_875512" data-name="Trazado 875512" d="M20,54.508V43.228L21.72,42h1.407V54.508Z" transform="translate(-4.147 -8.948)" fill="#5e87ca"/>
      <path id="Trazado_875512_-_Contorno" data-name="Trazado 875512 - Contorno" d="M25.627,57.008H17.5V41.941L20.919,39.5h4.708Z" transform="translate(-4.147 -8.948)" fill="#fff"/>
      <path id="Trazado_875513" data-name="Trazado 875513" d="M43.127,54.508V43.228L41.407,42H40V54.508Z" transform="translate(-8.512 -8.948)" fill="#5e87ca"/>
      <path id="Trazado_875513_-_Contorno" data-name="Trazado 875513 - Contorno" d="M45.627,57.008H37.5V39.5h4.708l3.419,2.441Z" transform="translate(-8.512 -8.948)" fill="#fff"/>
      <path id="Trazado_875514" data-name="Trazado 875514" d="M37.522,40.472H22.2L29.861,35Z" transform="translate(-4.627 -7.42)" fill="#3b5892"/>
      <path id="Trazado_875514_-_Contorno" data-name="Trazado 875514 - Contorno" d="M45.324,42.972H14.4L29.861,31.928Z" transform="translate(-4.627 -7.42)" fill="#fff"/>
      <path id="Trazado_875515" data-name="Trazado 875515" d="M28.29,33.909l10.945,7.818,2.345-2.345L28.29,30,15,39.381l2.345,2.345Z" transform="translate(-3.055 -6.329)" fill="#4c6cb5"/>
      <path id="Trazado_875515_-_Contorno" data-name="Trazado 875515 - Contorno" d="M28.29,26.94,45.446,39.05,39.5,44.992,28.29,36.981,17.075,44.992,11.134,39.05Z" transform="translate(-3.055 -6.329)" fill="#fff"/>
      <circle id="Elipse_11525" data-name="Elipse 11525" cx="7" cy="7" r="7" transform="translate(18.234 2.234)" fill="#f0ae42"/>
      <path id="Elipse_11525_-_Contorno" data-name="Elipse 11525 - Contorno" d="M7-2.5A9.5,9.5,0,1,1-2.5,7,9.511,9.511,0,0,1,7-2.5Zm0,14A4.5,4.5,0,1,0,2.5,7,4.505,4.505,0,0,0,7,11.5Z" transform="translate(18.234 2.234)" fill="#fff"/>
      <path id="Trazado_875516" data-name="Trazado 875516" d="M35.513,8.257A7.029,7.029,0,0,0,32.4,2.418a7.036,7.036,0,0,0-6.29,12.46,7.021,7.021,0,0,0,9.4-6.621Z" transform="translate(-4.806 -0.221)" fill="#f9d266"/>
      <path id="Trazado_875516_-_Contorno" data-name="Trazado 875516 - Contorno" d="M30.058-.486h0a9.51,9.51,0,0,1,3.179.547l.3.105L33.8.343A9.531,9.531,0,0,1,25.267,17.23l-.295-.106-.26-.176A9.537,9.537,0,0,1,30.058-.486ZM31.267,4.68a4.536,4.536,0,0,0-4.006,7.943,4.521,4.521,0,0,0,5.752-4.36V8.256A4.521,4.521,0,0,0,31.267,4.68Z" transform="translate(-4.806 -0.221)" fill="#fff"/>
      <path id="Trazado_875517" data-name="Trazado 875517" d="M34.254,7.909V7.127a2.345,2.345,0,0,0-2.345-2.345V4H30.345v.782A2.345,2.345,0,0,0,28,7.127v.782a2.345,2.345,0,0,0,2.345,2.345V12.6a.782.782,0,0,1-.782-.782v-.782H28v.782a2.345,2.345,0,0,0,2.345,2.345v.782h1.564v-.782a2.345,2.345,0,0,0,2.345-2.345v-.782a2.345,2.345,0,0,0-2.345-2.345V6.345a.782.782,0,0,1,.782.782v.782Zm-1.564,3.127v.782a.782.782,0,0,1-.782.782V10.254A.782.782,0,0,1,32.691,11.036ZM30.345,8.691a.782.782,0,0,1-.782-.782V7.127a.782.782,0,0,1,.782-.782Z" transform="translate(-5.893 -0.655)" fill="#d5883e"/>
      <path id="Trazado_875517_-_Contorno" data-name="Trazado 875517 - Contorno" d="M27.845,1.5h6.564V2.978a4.847,4.847,0,0,1,2.345,4.149v3.282h-.04a4.869,4.869,0,0,1,.04.627v.782a4.847,4.847,0,0,1-2.345,4.149v1.478H27.845V15.967A4.847,4.847,0,0,1,25.5,11.818V8.536h.04a4.868,4.868,0,0,1-.04-.627V7.127a4.847,4.847,0,0,1,2.345-4.149Z" transform="translate(-5.893 -0.655)" fill="#fff"/>
      <path id="Trazado_875518" data-name="Trazado 875518" d="M9,16h4.691v9.381H9Z" transform="translate(-1.746 -3.274)" fill="#f2f2f2"/>
      <path id="Trazado_875518_-_Contorno" data-name="Trazado 875518 - Contorno" d="M6.5,13.5h9.691V27.881H6.5Z" transform="translate(-1.746 -3.274)" fill="#fff"/>
      <path id="Trazado_875519" data-name="Trazado 875519" d="M18,61.127V58h6.254v3.127" transform="translate(-3.71 -12.44)" fill="#4c6cb5"/>
      <path id="Trazado_875519_-_Contorno" data-name="Trazado 875519 - Contorno" d="M26.754,61.127h-5V60.5H20.5v.627h-5V55.5H26.754Z" transform="translate(-3.71 -12.44)" fill="#fff"/>
      <path id="Trazado_875520" data-name="Trazado 875520" d="M38,61.127V58h6.254v3.127" transform="translate(-8.075 -12.44)" fill="#4c6cb5"/>
      <path id="Trazado_875520_-_Contorno" data-name="Trazado 875520 - Contorno" d="M46.754,61.127h-5V60.5H40.5v.627h-5V55.5H46.754Z" transform="translate(-8.075 -12.44)" fill="#fff"/>
      <path id="Trazado_875521" data-name="Trazado 875521" d="M29,59.163V51.345a2.345,2.345,0,0,1,4.691,0v7.818" transform="translate(-6.111 -10.476)" fill="#4c6cb5"/>
      <path id="Trazado_875521_-_Contorno" data-name="Trazado 875521 - Contorno" d="M36.191,59.163H26.5V51.345a4.845,4.845,0,1,1,9.691,0Z" transform="translate(-6.111 -10.476)" fill="#fff"/>
      <path id="Trazado_875522" data-name="Trazado 875522" d="M48,47h6.254v7.036H48Z" transform="translate(-10.258 -10.039)" fill="#f2f2f2"/>
      <path id="Trazado_875522_-_Contorno" data-name="Trazado 875522 - Contorno" d="M45.5,44.5H56.754V56.536H45.5Zm6.254,5H50.5v2.036h1.254Z" transform="translate(-10.258 -10.039)" fill="#fff"/>
      <path id="Trazado_875523" data-name="Trazado 875523" d="M48,47h4.691v5.472H48Z" transform="translate(-10.258 -10.039)" fill="#fff"/>
      <path id="Trazado_875523_-_Contorno" data-name="Trazado 875523 - Contorno" d="M45.5,44.5h9.691V54.972H45.5Z" transform="translate(-10.258 -10.039)" fill="#fff"/>
      <path id="Trazado_875524" data-name="Trazado 875524" d="M8,47h6.254v7.036H8Z" transform="translate(-1.528 -10.039)" fill="#f2f2f2"/>
      <path id="Trazado_875524_-_Contorno" data-name="Trazado 875524 - Contorno" d="M5.5,44.5H16.754V56.536H5.5Zm6.254,5H10.5v2.036h1.254Z" transform="translate(-1.528 -10.039)" fill="#fff"/>
      <path id="Trazado_875525" data-name="Trazado 875525" d="M8,47h4.691v5.472H8Z" transform="translate(-1.528 -10.039)" fill="#fff"/>
      <path id="Trazado_875525_-_Contorno" data-name="Trazado 875525 - Contorno" d="M5.5,44.5h9.691V54.972H5.5Z" transform="translate(-1.528 -10.039)" fill="#fff"/>
      <path id="Trazado_875526" data-name="Trazado 875526" d="M9,16h3.127v7.818H9Z" transform="translate(-1.746 -3.274)" fill="#fff"/>
      <path id="Trazado_875526_-_Contorno" data-name="Trazado 875526 - Contorno" d="M6.5,13.5h8.127V26.318H6.5Z" transform="translate(-1.746 -3.274)" fill="#fff"/>
      <path id="Trazado_875527" data-name="Trazado 875527" d="M30.345,14.163v.782h1.564v-.782a2.345,2.345,0,0,0,2.345-2.345v-.782a2.345,2.345,0,0,0-2.345-2.345V6.345a.782.782,0,0,1,.782.782v.782h1.564V7.127a2.345,2.345,0,0,0-2.345-2.345V4H30.345v.782A2.345,2.345,0,0,0,28,7.127v.782a2.345,2.345,0,0,0,2.345,2.345V12.6a.782.782,0,0,1-.782-.782v-.782H28v.782a2.345,2.345,0,0,0,2.345,2.345Zm-.782-6.254V7.127a.782.782,0,0,1,.782-.782V8.691A.782.782,0,0,1,29.564,7.909Zm2.345,2.345a.782.782,0,0,1,.782.782v.782a.782.782,0,0,1-.782.782Z" transform="translate(-5.893 -0.655)"/>
      <path id="Trazado_875527_-_Contorno" data-name="Trazado 875527 - Contorno" d="M34.409,17.445H27.845V15.967A4.847,4.847,0,0,1,25.5,11.818V8.536h.04a4.869,4.869,0,0,1-.04-.627V7.127a4.847,4.847,0,0,1,2.345-4.149V1.5h6.564V2.978a4.847,4.847,0,0,1,2.345,4.149v3.282h-.04a4.868,4.868,0,0,1,.04.627v.782a4.847,4.847,0,0,1-2.345,4.149Z" transform="translate(-5.893 -0.655)" fill="#fff"/>
      <path id="Trazado_875528" data-name="Trazado 875528" d="M48.687,10.381a.782.782,0,0,0,.782-.782V4.909a.782.782,0,0,0-.782-.782H31.474A7.788,7.788,0,0,0,19,4.127H1.782A.782.782,0,0,0,1,4.909V9.6a.782.782,0,0,0,.782.782H3.345V24.453H1.782A.782.782,0,0,0,1,25.234v7.818a.782.782,0,0,0,.782.782h.782V48.687a.782.782,0,0,0,.782.782H47.123a.782.782,0,0,0,.782-.782V33.834h.782a.782.782,0,0,0,.782-.782V25.234a.782.782,0,0,0-.782-.782H47.123V10.381Zm-.782-4.691V8.818H33.052a7.763,7.763,0,0,0-.658-3.128ZM31.488,13.508h3.127v7.818H31.488ZM25.234,2.564A6.254,6.254,0,1,1,18.98,8.818a6.254,6.254,0,0,1,6.254-6.254ZM23.671,16.479a7.818,7.818,0,0,0,3.127,0v4.847H23.671ZM2.564,5.691H18.074a7.762,7.762,0,0,0-.657,3.127H2.564Zm0,20.326H20.556L11.7,32.27H2.564ZM26.8,47.905H23.671V40.869a1.564,1.564,0,0,1,3.127,0ZM25.234,37.742a3.127,3.127,0,0,0-3.127,3.127v7.036h-.782V45.56a.782.782,0,0,0-.782-.782h-.782V33.834H30.707V44.778h-.782a.782.782,0,0,0-.782.782v2.345h-.782V40.869A3.127,3.127,0,0,0,25.234,37.742Zm-7.41-3.909H18.2V44.778H16.635v-10.1Zm1.938,12.508v1.564H15.072V46.342Zm.251-14.072,5.221-3.73,5.221,3.73ZM30.707,46.342H35.4v1.564H30.707Zm1.564-1.564V33.834h.374l1.189.849v10.1ZM25.689,26.943a.782.782,0,0,0-.908,0L14.374,34.376l-1.22-1.221,12.08-8.527,12.08,8.527-1.22,1.221ZM4.127,33.834h7.494l2.116,2.116a.782.782,0,0,0,1.007.084l.328-.235v8.979H14.29a.782.782,0,0,0-.782.782v2.345H4.127ZM46.342,47.905H36.961V45.56a.782.782,0,0,0-.782-.782H35.4V35.8l.328.235a.782.782,0,0,0,1.007-.084l2.116-2.117h7.494ZM47.905,32.27H38.773l-8.86-6.254H47.905ZM45.56,24.453H27.7l-2.012-1.42a.782.782,0,0,0-.9,0l-2.012,1.42H4.909V10.381H17.573a7.739,7.739,0,0,0,.5,1.564h-3a.782.782,0,0,0-.782.782v9.381a.782.782,0,0,0,.782.782h4.691a.782.782,0,0,0,.782-.782V15.057a7.811,7.811,0,0,0,1.564.921v6.13a.782.782,0,0,0,.782.782H27.58a.782.782,0,0,0,.782-.782v-6.13a7.811,7.811,0,0,0,1.564-.921v7.051a.782.782,0,0,0,.782.782H35.4a.782.782,0,0,0,.782-.782V12.726a.782.782,0,0,0-.782-.782h-3a7.739,7.739,0,0,0,.5-1.564H45.56ZM18.98,13.508v7.818H15.853V13.508Z"/>
      <path id="Trazado_875528_-_Contorno" data-name="Trazado 875528 - Contorno" d="M25.234-1.5A10.281,10.281,0,0,1,32.62,1.627H48.687a3.285,3.285,0,0,1,3.282,3.282V9.6a3.288,3.288,0,0,1-2.345,3.146v9.344a3.288,3.288,0,0,1,2.345,3.146v7.818a3.283,3.283,0,0,1-1.564,2.8v12.84a3.285,3.285,0,0,1-3.282,3.282H3.345A3.285,3.285,0,0,1,.064,48.687V35.847a3.283,3.283,0,0,1-1.563-2.8V25.234A3.288,3.288,0,0,1,.845,22.089V12.745A3.288,3.288,0,0,1-1.5,9.6V4.909A3.285,3.285,0,0,1,1.782,1.627H17.849A10.281,10.281,0,0,1,25.234-1.5Zm0,14.072A3.754,3.754,0,1,0,21.48,8.82,3.758,3.758,0,0,0,25.234,12.572Zm-13.445.309H7.409v9.072H11.79Zm31.27,0H38.679v9.072H43.06ZM12.679,28.516H5.064V29.77H10.9Zm32.726,0H37.79l1.777,1.254h5.839Zm-34.82,7.818H6.627v9.072h4.385a3.285,3.285,0,0,1,1.56-2.64v-4.57a3.306,3.306,0,0,1-.6-.477Zm33.256,0H39.884L38.5,37.718a3.308,3.308,0,0,1-.6.477v4.57a3.285,3.285,0,0,1,1.56,2.64h4.385Z" fill="#fff"/>
      <path id="Trazado_875529" data-name="Trazado 875529" d="M13.472,15H8.782A.782.782,0,0,0,8,15.782v9.381a.782.782,0,0,0,.782.782h4.691a.782.782,0,0,0,.782-.782V15.782A.782.782,0,0,0,13.472,15Zm-.782,9.381H9.564V16.564h3.127Z" transform="translate(-1.528 -3.055)"/>
      <path id="Trazado_875529_-_Contorno" data-name="Trazado 875529 - Contorno" d="M8.782,12.5h4.691a3.285,3.285,0,0,1,3.282,3.282v9.381a3.285,3.285,0,0,1-3.282,3.282H8.782A3.285,3.285,0,0,1,5.5,25.163V15.782A3.285,3.285,0,0,1,8.782,12.5Z" transform="translate(-1.528 -3.055)" fill="#fff"/>
      <path id="Trazado_875530" data-name="Trazado 875530" d="M48.782,25.945h4.691a.782.782,0,0,0,.782-.782V15.782A.782.782,0,0,0,53.472,15H48.782a.782.782,0,0,0-.782.782v9.381A.782.782,0,0,0,48.782,25.945Zm.782-9.381h3.127v7.818H49.564Z" transform="translate(-10.258 -3.055)"/>
      <path id="Trazado_875530_-_Contorno" data-name="Trazado 875530 - Contorno" d="M53.472,28.445H48.782A3.285,3.285,0,0,1,45.5,25.163V15.782A3.285,3.285,0,0,1,48.782,12.5h4.691a3.285,3.285,0,0,1,3.282,3.282v9.381A3.285,3.285,0,0,1,53.472,28.445Z" transform="translate(-10.258 -3.055)" fill="#fff"/>
      <path id="Trazado_875531" data-name="Trazado 875531" d="M47.782,46a.782.782,0,0,0-.782.782v7.036a.782.782,0,0,0,.782.782h6.254a.782.782,0,0,0,.782-.782V46.782A.782.782,0,0,0,54.036,46Zm5.472,7.036H48.564V47.564h4.691Z" transform="translate(-10.039 -9.821)"/>
      <path id="Trazado_875531_-_Contorno" data-name="Trazado 875531 - Contorno" d="M47.782,43.5h6.254a3.285,3.285,0,0,1,3.282,3.282v7.036A3.285,3.285,0,0,1,54.036,57.1H47.782A3.285,3.285,0,0,1,44.5,53.818V46.782A3.285,3.285,0,0,1,47.782,43.5Z" transform="translate(-10.039 -9.821)" fill="#fff"/>
      <path id="Trazado_875532" data-name="Trazado 875532" d="M14.818,53.818V46.782A.782.782,0,0,0,14.036,46H7.782A.782.782,0,0,0,7,46.782v7.036a.782.782,0,0,0,.782.782h6.254A.782.782,0,0,0,14.818,53.818Zm-1.564-.782H8.564V47.564h4.691Z" transform="translate(-1.309 -9.821)"/>
      <path id="Trazado_875532_-_Contorno" data-name="Trazado 875532 - Contorno" d="M14.036,57.1H7.782A3.285,3.285,0,0,1,4.5,53.818V46.782A3.285,3.285,0,0,1,7.782,43.5h6.254a3.285,3.285,0,0,1,3.282,3.282v7.036A3.285,3.285,0,0,1,14.036,57.1Z" transform="translate(-1.309 -9.821)" fill="#fff"/>
    </g>
    <g id="banco-2" data-name="banco" transform="translate(342 -5273)">
      <path id="Trazado_875498-2" data-name="Trazado 875498" d="M5,12H47.215V27.635H5Z" transform="translate(-0.873 -2.401)" fill="#c0dafc"/>
      <path id="Trazado_875499-2" data-name="Trazado 875499" d="M19,16h4.691v9.381H19Z" transform="translate(-3.928 -3.274)" fill="#f2f2f2"/>
      <path id="Trazado_875500-2" data-name="Trazado 875500" d="M2,32H48.905v7.818H2Z" transform="translate(-0.218 -6.766)" fill="#5e87ca"/>
      <path id="Trazado_875501-2" data-name="Trazado 875501" d="M46.56,35.909V32H2v5.472H45A1.564,1.564,0,0,0,46.56,35.909Z" transform="translate(-0.218 -6.766)" fill="#78a0d4"/>
      <path id="Trazado_875502-2" data-name="Trazado 875502" d="M2,6H48.905v4.691H2Z" transform="translate(-0.218 -1.091)" fill="#5e87ca"/>
      <path id="Trazado_875503-2" data-name="Trazado 875503" d="M46.56,7.564V6H2V8.345H45.778A.782.782,0,0,0,46.56,7.564Z" transform="translate(-0.218 -1.091)" fill="#78a0d4"/>
      <path id="Trazado_875504-2" data-name="Trazado 875504" d="M29,16h4.691v9.381H29Z" transform="translate(-6.111 -3.274)" fill="#f2f2f2"/>
      <path id="Trazado_875505-2" data-name="Trazado 875505" d="M39,16h4.691v9.381H39Z" transform="translate(-8.293 -3.274)" fill="#f2f2f2"/>
      <path id="Trazado_875506-2" data-name="Trazado 875506" d="M49,16h4.691v9.381H49Z" transform="translate(-10.476 -3.274)" fill="#f2f2f2"/>
      <g id="Grupo_1100221-2" data-name="Grupo 1100221" transform="translate(15.072 12.726)">
        <path id="Trazado_875507-2" data-name="Trazado 875507" d="M49,16h3.127v7.818H49Z" transform="translate(-25.547 -16)" fill="#fff"/>
        <path id="Trazado_875508-2" data-name="Trazado 875508" d="M39,16h3.127v7.818H39Z" transform="translate(-23.365 -16)" fill="#fff"/>
        <path id="Trazado_875509-2" data-name="Trazado 875509" d="M29,16h3.127v7.818H29Z" transform="translate(-21.182 -16)" fill="#fff"/>
        <path id="Trazado_875510-2" data-name="Trazado 875510" d="M19,16h3.127v7.818H19Z" transform="translate(-19 -16)" fill="#fff"/>
      </g>
      <path id="Trazado_875511-2" data-name="Trazado 875511" d="M4,42V57.635H47.778V42" transform="translate(-0.655 -8.948)" fill="#c0dafc"/>
      <path id="Trazado_875512-2" data-name="Trazado 875512" d="M20,54.508V43.228L21.72,42h1.407V54.508Z" transform="translate(-4.147 -8.948)" fill="#5e87ca"/>
      <path id="Trazado_875513-2" data-name="Trazado 875513" d="M43.127,54.508V43.228L41.407,42H40V54.508Z" transform="translate(-8.512 -8.948)" fill="#5e87ca"/>
      <path id="Trazado_875514-2" data-name="Trazado 875514" d="M37.522,40.472H22.2L29.861,35Z" transform="translate(-4.627 -7.42)" fill="#3b5892"/>
      <path id="Trazado_875515-2" data-name="Trazado 875515" d="M28.29,33.909l10.945,7.818,2.345-2.345L28.29,30,15,39.381l2.345,2.345Z" transform="translate(-3.055 -6.329)" fill="#4c6cb5"/>
      <circle id="Elipse_11525-2" data-name="Elipse 11525" cx="7" cy="7" r="7" transform="translate(18.234 2.234)" fill="#f0ae42"/>
      <path id="Trazado_875516-2" data-name="Trazado 875516" d="M35.513,8.257A7.029,7.029,0,0,0,32.4,2.418a7.036,7.036,0,0,0-6.29,12.46,7.021,7.021,0,0,0,9.4-6.621Z" transform="translate(-4.806 -0.221)" fill="#f9d266"/>
      <path id="Trazado_875517-2" data-name="Trazado 875517" d="M34.254,7.909V7.127a2.345,2.345,0,0,0-2.345-2.345V4H30.345v.782A2.345,2.345,0,0,0,28,7.127v.782a2.345,2.345,0,0,0,2.345,2.345V12.6a.782.782,0,0,1-.782-.782v-.782H28v.782a2.345,2.345,0,0,0,2.345,2.345v.782h1.564v-.782a2.345,2.345,0,0,0,2.345-2.345v-.782a2.345,2.345,0,0,0-2.345-2.345V6.345a.782.782,0,0,1,.782.782v.782Zm-1.564,3.127v.782a.782.782,0,0,1-.782.782V10.254A.782.782,0,0,1,32.691,11.036ZM30.345,8.691a.782.782,0,0,1-.782-.782V7.127a.782.782,0,0,1,.782-.782Z" transform="translate(-5.893 -0.655)" fill="#d5883e"/>
      <path id="Trazado_875518-2" data-name="Trazado 875518" d="M9,16h4.691v9.381H9Z" transform="translate(-1.746 -3.274)" fill="#f2f2f2"/>
      <path id="Trazado_875519-2" data-name="Trazado 875519" d="M18,61.127V58h6.254v3.127" transform="translate(-3.71 -12.44)" fill="#4c6cb5"/>
      <path id="Trazado_875520-2" data-name="Trazado 875520" d="M38,61.127V58h6.254v3.127" transform="translate(-8.075 -12.44)" fill="#4c6cb5"/>
      <path id="Trazado_875521-2" data-name="Trazado 875521" d="M29,59.163V51.345a2.345,2.345,0,0,1,4.691,0v7.818" transform="translate(-6.111 -10.476)" fill="#4c6cb5"/>
      <path id="Trazado_875522-2" data-name="Trazado 875522" d="M48,47h6.254v7.036H48Z" transform="translate(-10.258 -10.039)" fill="#f2f2f2"/>
      <path id="Trazado_875523-2" data-name="Trazado 875523" d="M48,47h4.691v5.472H48Z" transform="translate(-10.258 -10.039)" fill="#fff"/>
      <path id="Trazado_875524-2" data-name="Trazado 875524" d="M8,47h6.254v7.036H8Z" transform="translate(-1.528 -10.039)" fill="#f2f2f2"/>
      <path id="Trazado_875525-2" data-name="Trazado 875525" d="M8,47h4.691v5.472H8Z" transform="translate(-1.528 -10.039)" fill="#fff"/>
      <path id="Trazado_875526-2" data-name="Trazado 875526" d="M9,16h3.127v7.818H9Z" transform="translate(-1.746 -3.274)" fill="#fff"/>
      <path id="Trazado_875527-2" data-name="Trazado 875527" d="M30.345,14.163v.782h1.564v-.782a2.345,2.345,0,0,0,2.345-2.345v-.782a2.345,2.345,0,0,0-2.345-2.345V6.345a.782.782,0,0,1,.782.782v.782h1.564V7.127a2.345,2.345,0,0,0-2.345-2.345V4H30.345v.782A2.345,2.345,0,0,0,28,7.127v.782a2.345,2.345,0,0,0,2.345,2.345V12.6a.782.782,0,0,1-.782-.782v-.782H28v.782a2.345,2.345,0,0,0,2.345,2.345Zm-.782-6.254V7.127a.782.782,0,0,1,.782-.782V8.691A.782.782,0,0,1,29.564,7.909Zm2.345,2.345a.782.782,0,0,1,.782.782v.782a.782.782,0,0,1-.782.782Z" transform="translate(-5.893 -0.655)"/>
      <path id="Trazado_875528-2" data-name="Trazado 875528" d="M48.687,10.381a.782.782,0,0,0,.782-.782V4.909a.782.782,0,0,0-.782-.782H31.474A7.788,7.788,0,0,0,19,4.127H1.782A.782.782,0,0,0,1,4.909V9.6a.782.782,0,0,0,.782.782H3.345V24.453H1.782A.782.782,0,0,0,1,25.234v7.818a.782.782,0,0,0,.782.782h.782V48.687a.782.782,0,0,0,.782.782H47.123a.782.782,0,0,0,.782-.782V33.834h.782a.782.782,0,0,0,.782-.782V25.234a.782.782,0,0,0-.782-.782H47.123V10.381Zm-.782-4.691V8.818H33.052a7.763,7.763,0,0,0-.658-3.128ZM31.488,13.508h3.127v7.818H31.488ZM25.234,2.564A6.254,6.254,0,1,1,18.98,8.818a6.254,6.254,0,0,1,6.254-6.254ZM23.671,16.479a7.818,7.818,0,0,0,3.127,0v4.847H23.671ZM2.564,5.691H18.074a7.762,7.762,0,0,0-.657,3.127H2.564Zm0,20.326H20.556L11.7,32.27H2.564ZM26.8,47.905H23.671V40.869a1.564,1.564,0,0,1,3.127,0ZM25.234,37.742a3.127,3.127,0,0,0-3.127,3.127v7.036h-.782V45.56a.782.782,0,0,0-.782-.782h-.782V33.834H30.707V44.778h-.782a.782.782,0,0,0-.782.782v2.345h-.782V40.869A3.127,3.127,0,0,0,25.234,37.742Zm-7.41-3.909H18.2V44.778H16.635v-10.1Zm1.938,12.508v1.564H15.072V46.342Zm.251-14.072,5.221-3.73,5.221,3.73ZM30.707,46.342H35.4v1.564H30.707Zm1.564-1.564V33.834h.374l1.189.849v10.1ZM25.689,26.943a.782.782,0,0,0-.908,0L14.374,34.376l-1.22-1.221,12.08-8.527,12.08,8.527-1.22,1.221ZM4.127,33.834h7.494l2.116,2.116a.782.782,0,0,0,1.007.084l.328-.235v8.979H14.29a.782.782,0,0,0-.782.782v2.345H4.127ZM46.342,47.905H36.961V45.56a.782.782,0,0,0-.782-.782H35.4V35.8l.328.235a.782.782,0,0,0,1.007-.084l2.116-2.117h7.494ZM47.905,32.27H38.773l-8.86-6.254H47.905ZM45.56,24.453H27.7l-2.012-1.42a.782.782,0,0,0-.9,0l-2.012,1.42H4.909V10.381H17.573a7.739,7.739,0,0,0,.5,1.564h-3a.782.782,0,0,0-.782.782v9.381a.782.782,0,0,0,.782.782h4.691a.782.782,0,0,0,.782-.782V15.057a7.811,7.811,0,0,0,1.564.921v6.13a.782.782,0,0,0,.782.782H27.58a.782.782,0,0,0,.782-.782v-6.13a7.811,7.811,0,0,0,1.564-.921v7.051a.782.782,0,0,0,.782.782H35.4a.782.782,0,0,0,.782-.782V12.726a.782.782,0,0,0-.782-.782h-3a7.739,7.739,0,0,0,.5-1.564H45.56ZM18.98,13.508v7.818H15.853V13.508Z"/>
      <path id="Trazado_875529-2" data-name="Trazado 875529" d="M13.472,15H8.782A.782.782,0,0,0,8,15.782v9.381a.782.782,0,0,0,.782.782h4.691a.782.782,0,0,0,.782-.782V15.782A.782.782,0,0,0,13.472,15Zm-.782,9.381H9.564V16.564h3.127Z" transform="translate(-1.528 -3.055)"/>
      <path id="Trazado_875530-2" data-name="Trazado 875530" d="M48.782,25.945h4.691a.782.782,0,0,0,.782-.782V15.782A.782.782,0,0,0,53.472,15H48.782a.782.782,0,0,0-.782.782v9.381A.782.782,0,0,0,48.782,25.945Zm.782-9.381h3.127v7.818H49.564Z" transform="translate(-10.258 -3.055)"/>
      <path id="Trazado_875531-2" data-name="Trazado 875531" d="M47.782,46a.782.782,0,0,0-.782.782v7.036a.782.782,0,0,0,.782.782h6.254a.782.782,0,0,0,.782-.782V46.782A.782.782,0,0,0,54.036,46Zm5.472,7.036H48.564V47.564h4.691Z" transform="translate(-10.039 -9.821)"/>
      <path id="Trazado_875532-2" data-name="Trazado 875532" d="M14.818,53.818V46.782A.782.782,0,0,0,14.036,46H7.782A.782.782,0,0,0,7,46.782v7.036a.782.782,0,0,0,.782.782h6.254A.782.782,0,0,0,14.818,53.818Zm-1.564-.782H8.564V47.564h4.691Z" transform="translate(-1.309 -9.821)"/>
    </g>
  </g>
</svg>
