<svg xmlns="http://www.w3.org/2000/svg" xmlns:xlink="http://www.w3.org/1999/xlink" width="295" height="246" viewBox="0 0 295 246">
  <defs>
    <clipPath id="clip-path">
      <rect id="Rectángulo_401634" data-name="Rectángulo 401634" width="275.005" height="246" fill="none"/>
    </clipPath>
  </defs>
  <g id="Grupo_1100323" data-name="Grupo 1100323" transform="translate(-705.051 -6425)">
    <g id="Grupo_1099083" data-name="Grupo 1099083" transform="translate(-1.68 3332)">
      <g id="Grupo_133939" data-name="Grupo 133939" transform="translate(106.475 2689)">
        <rect id="Rectángulo_35929" data-name="Rectángulo 35929" width="295" height="246" transform="translate(600.256 404)" fill="#694d7e"/>
      </g>
    </g>
    <g id="Grupo_1100322" data-name="Grupo 1100322" transform="translate(705.051 6425)">
      <g id="Grupo_1100321" data-name="Grupo 1100321" clip-path="url(#clip-path)">
        <path id="Trazado_875777" data-name="Trazado 875777" d="M137.758,93.087c15.914-26.161,46-42.488,75.964-41.228s58.656,20.057,72.444,47.466c10.416,20.706,15.859,44.248,12.8,67.351S284.4,211.807,266.616,226.25s-41.805,20.837-63.952,15.916c-18.491-4.109-38.25-3.933-55.635,3.743-12.99,5.735-27.845,6.978-41.9,5.4s-28.071-8.359-35.96-20.428c-9.221-14.105-12.457-34.349-6.847-50.338a56.258,56.258,0,0,1,34.347-34.323c21.813-7.368,28.9-33.109,41.085-53.134" transform="translate(-24.807 -21.572)" fill="#946cb1"/>
        <path id="Trazado_875778" data-name="Trazado 875778" d="M55.234,263.214a12.978,12.978,0,0,0,23.814-10.325Z" transform="translate(-23.006 -105.333)" fill="#fa101d"/>
        <path id="Trazado_875779" data-name="Trazado 875779" d="M58.491,263.418a10.134,10.134,0,1,0,18.6-8.063Z" transform="translate(-24.362 -106.36)" fill="#fff"/>
        <path id="Trazado_875780" data-name="Trazado 875780" d="M352.86,380.579A12.978,12.978,0,0,0,366.766,402.5Z" transform="translate(-144.462 -158.518)" fill="#fa101d"/>
        <path id="Trazado_875781" data-name="Trazado 875781" d="M355.7,383.576a10.134,10.134,0,0,0,10.859,17.114Z" transform="translate(-146.197 -159.766)" fill="#fff"/>
        <path id="Trazado_875782" data-name="Trazado 875782" d="M364.957,93.75a12.978,12.978,0,1,0,23.529,10.96Z" transform="translate(-151.504 -39.048)" fill="#fa101d"/>
        <path id="Trazado_875783" data-name="Trazado 875783" d="M368.366,95.249a10.134,10.134,0,0,0,18.373,8.559Z" transform="translate(-153.035 -39.673)" fill="#fff"/>
        <path id="Trazado_875784" data-name="Trazado 875784" d="M391.432,137.794a12.978,12.978,0,0,0,25.957,0Z" transform="translate(-163.038 -57.394)" fill="#fa101d"/>
        <path id="Trazado_875785" data-name="Trazado 875785" d="M394.982,137.794a10.134,10.134,0,1,0,20.267,0Z" transform="translate(-164.517 -57.394)" fill="#fff"/>
        <path id="Trazado_875786" data-name="Trazado 875786" d="M38.4,298.292a2.164,2.164,0,1,0-2.164,2.164,2.164,2.164,0,0,0,2.164-2.164" transform="translate(-14.191 -123.342)" fill="#ff6400"/>
        <path id="Trazado_875787" data-name="Trazado 875787" d="M49.625,190.171a2.164,2.164,0,1,0-2.164,2.164,2.164,2.164,0,0,0,2.164-2.164" transform="translate(-18.867 -78.308)" fill="#ffbe00"/>
        <path id="Trazado_875788" data-name="Trazado 875788" d="M278.066,97.546A2.164,2.164,0,1,0,275.9,99.71a2.164,2.164,0,0,0,2.164-2.164" transform="translate(-114.016 -39.728)" fill="#ff6400"/>
        <path id="Trazado_875789" data-name="Trazado 875789" d="M281.693,25.935a2.164,2.164,0,1,0-2.164,2.164,2.164,2.164,0,0,0,2.164-2.164" transform="translate(-115.527 -9.901)" fill="#ff6400"/>
        <path id="Trazado_875790" data-name="Trazado 875790" d="M423.193,240.263a2.164,2.164,0,1,0-2.164,2.164,2.164,2.164,0,0,0,2.164-2.164" transform="translate(-174.464 -99.172)" fill="#fff"/>
        <path id="Trazado_875791" data-name="Trazado 875791" d="M463.862,172.37a2.164,2.164,0,1,0-2.164,2.164,2.164,2.164,0,0,0,2.164-2.164" transform="translate(-191.404 -70.894)" fill="#ff9a7d"/>
        <path id="Trazado_875792" data-name="Trazado 875792" d="M363.121,304.475a2.164,2.164,0,1,0-2.164,2.164,2.164,2.164,0,0,0,2.164-2.164" transform="translate(-149.443 -125.918)" fill="#ff6400"/>
        <path id="Trazado_875793" data-name="Trazado 875793" d="M195.427,375.651a2.164,2.164,0,1,0-2.164,2.164,2.164,2.164,0,0,0,2.164-2.164" transform="translate(-79.596 -155.564)" fill="#ffbe00"/>
        <path id="Trazado_875794" data-name="Trazado 875794" d="M83.206,350.959a1.311,1.311,0,1,0-1.31,1.311,1.31,1.31,0,0,0,1.31-1.311" transform="translate(-33.565 -145.634)" fill="#fff"/>
        <path id="Trazado_875795" data-name="Trazado 875795" d="M85.452,165.234a1.311,1.311,0,1,0-1.311,1.31,1.31,1.31,0,0,0,1.311-1.31" transform="translate(-34.5 -68.277)" fill="#ff6400"/>
        <path id="Trazado_875796" data-name="Trazado 875796" d="M66.819,212.98a1.311,1.311,0,1,0-1.311,1.311,1.31,1.31,0,0,0,1.311-1.311" transform="translate(-26.739 -88.164)" fill="#fff"/>
        <path id="Trazado_875797" data-name="Trazado 875797" d="M250.886,97.143a1.311,1.311,0,1,0-1.311,1.311,1.31,1.31,0,0,0,1.311-1.311" transform="translate(-103.406 -39.916)" fill="#ffbe00"/>
        <path id="Trazado_875798" data-name="Trazado 875798" d="M274.93,78.786a1.311,1.311,0,1,0-1.311,1.311,1.31,1.31,0,0,0,1.311-1.311" transform="translate(-113.421 -32.27)" fill="#ff9a7d"/>
        <path id="Trazado_875799" data-name="Trazado 875799" d="M446.037,224.7a1.311,1.311,0,1,0-1.311,1.311,1.31,1.31,0,0,0,1.311-1.311" transform="translate(-184.69 -93.047)" fill="#ff6400"/>
        <path id="Trazado_875800" data-name="Trazado 875800" d="M399.229,45.117a1.311,1.311,0,1,0-1.311,1.311,1.31,1.31,0,0,0,1.311-1.311" transform="translate(-165.193 -18.246)" fill="#ff9a7d"/>
        <path id="Trazado_875801" data-name="Trazado 875801" d="M394.054,302.839a1.311,1.311,0,1,0-1.31,1.31,1.31,1.31,0,0,0,1.31-1.31" transform="translate(-163.038 -125.591)" fill="#ff9a7d"/>
        <path id="Trazado_875802" data-name="Trazado 875802" d="M443.791,274.37a1.311,1.311,0,1,0-1.31,1.311,1.31,1.31,0,0,0,1.31-1.311" transform="translate(-183.754 -113.734)" fill="#ffbe00"/>
        <path id="Trazado_875803" data-name="Trazado 875803" d="M426.658,197.4a1.311,1.311,0,1,0-1.31,1.311,1.31,1.31,0,0,0,1.31-1.311" transform="translate(-176.618 -81.676)" fill="#ff9a7d"/>
        <path id="Trazado_875804" data-name="Trazado 875804" d="M238.824,57.94a1.311,1.311,0,1,0-1.311,1.31,1.31,1.31,0,0,0,1.311-1.31" transform="translate(-98.382 -23.587)" fill="#fff"/>
        <path id="Trazado_875805" data-name="Trazado 875805" d="M195.183,57.94a1.311,1.311,0,1,0-1.311,1.31,1.31,1.31,0,0,0,1.311-1.31" transform="translate(-80.205 -23.587)" fill="#ff9a7d"/>
        <path id="Trazado_875806" data-name="Trazado 875806" d="M310.9,10.817a1.311,1.311,0,1,0-1.311,1.311,1.31,1.31,0,0,0,1.311-1.311" transform="translate(-128.403 -3.959)" fill="#ffbe00"/>
        <path id="Trazado_875807" data-name="Trazado 875807" d="M77.254,311.759l-6.5,3.755,6.5,3.755Z" transform="translate(-29.468 -129.853)" fill="#ffbe00"/>
        <path id="Trazado_875808" data-name="Trazado 875808" d="M324.4,75.532l-6.5,3.755,6.5,3.755Z" transform="translate(-132.41 -31.46)" fill="#fff"/>
        <path id="Trazado_875809" data-name="Trazado 875809" d="M215.238,33a17.948,17.948,0,0,1-6.4-19.043c.793,1.616,1.867,2.538,2.659,4.154a30.762,30.762,0,0,1,5.534-13.984c.4,2.658.866,5.227,1.265,7.885A36.418,36.418,0,0,1,227.287,0a55.166,55.166,0,0,1-2.832,14.907l6.847-5.75a23.863,23.863,0,0,1-6.051,15.495l4.82-2.448c-2.428,5.921-8.5,9.91-14.834,10.791" transform="translate(-86.706)" fill="#bad734"/>
        <path id="Trazado_875810" data-name="Trazado 875810" d="M216.877,48.6l8.248-21.69" transform="translate(-90.333 -11.21)" fill="none" stroke="#000" stroke-linecap="round" stroke-linejoin="round" stroke-width="2"/>
        <path id="Trazado_875811" data-name="Trazado 875811" d="M380.957,348.456a17.95,17.95,0,0,1,12.288-15.892c-.9,1.557-1.075,2.961-1.979,4.518a30.752,30.752,0,0,1,14.7-3.161c-1.989,1.807-3.867,3.623-5.856,5.43a36.419,36.419,0,0,1,14.977.808,55.172,55.172,0,0,1-13.971,5.921l8.584,2.5a23.867,23.867,0,0,1-16.247,3.57l4.712,2.65c-6.273,1.268-12.959-1.564-17.212-6.347" transform="translate(-158.675 -138.518)" fill="#ffdc00"/>
        <path id="Trazado_875812" data-name="Trazado 875812" d="M369.191,358.074l21.741-8.068" transform="translate(-153.774 -145.783)" fill="none" stroke="#000" stroke-linecap="round" stroke-linejoin="round" stroke-width="2"/>
        <path id="Trazado_875813" data-name="Trazado 875813" d="M264.139,147.73l-26.169-16.9L190.7,121.082l-57.024,10.85-29.3,31.791,6.191,32.891,26.5,30.8h0c9.368,11.438,29.388,19.341,52.577,19.341s43.208-7.9,52.576-19.341h0l26.5-30.8,7.178-27.044Z" transform="translate(-43.472 -50.433)" fill="#e6e9f1"/>
        <path id="Trazado_875814" data-name="Trazado 875814" d="M270.533,196.519c0-22.531-31.325-40.795-69.968-40.795S130.6,173.988,130.6,196.519s31.325,40.795,69.968,40.795,69.968-18.264,69.968-40.795" transform="translate(-54.396 -64.862)" fill="#ff6400"/>
        <path id="Trazado_875815" data-name="Trazado 875815" d="M197.535,238.3A12.978,12.978,0,0,0,220.76,249.9Z" transform="translate(-81.706 -99.258)" fill="#fa101d"/>
        <path id="Trazado_875816" data-name="Trazado 875816" d="M200.925,239.889a10.134,10.134,0,0,0,18.135,9.051Z" transform="translate(-83.243 -99.918)" fill="#fff"/>
        <path id="Trazado_875817" data-name="Trazado 875817" d="M241.154,240.814a12.978,12.978,0,0,0,25.266-5.947Z" transform="translate(-100.445 -97.826)" fill="#fa101d"/>
        <path id="Trazado_875818" data-name="Trazado 875818" d="M244.61,240.93a10.134,10.134,0,1,0,19.729-4.643Z" transform="translate(-101.884 -98.417)" fill="#fff"/>
        <path id="Trazado_875819" data-name="Trazado 875819" d="M311.536,221.025a4.439,4.439,0,1,0-4.439,4.439,4.439,4.439,0,0,0,4.439-4.439" transform="translate(-126.062 -90.212)" fill="#ffa000"/>
        <path id="Trazado_875820" data-name="Trazado 875820" d="M335.953,236.179a4.439,4.439,0,1,0-4.439,4.439,4.438,4.438,0,0,0,4.439-4.439" transform="translate(-136.232 -96.524)" fill="#ffa000"/>
        <path id="Trazado_875821" data-name="Trazado 875821" d="M332.205,220.392a3.479,3.479,0,1,0-3.479,3.479,3.479,3.479,0,0,0,3.479-3.479" transform="translate(-135.471 -90.348)" fill="#ffa000"/>
        <path id="Trazado_875822" data-name="Trazado 875822" d="M152.152,197.138a9.205,9.205,0,0,0-5.684-5.963,15.373,15.373,0,0,0-8.753-12.965c.288,1.332-.021,2.716.267,4.048l-6.3-10.633a34.526,34.526,0,0,0,2.9,15.708,21.086,21.086,0,0,1-4.466-8.4A27.044,27.044,0,0,0,135.4,199.5c3.588,4.58,12.362,1.458,16.754-2.36" transform="translate(-54.076 -71.485)" fill="#bad734"/>
        <path id="Trazado_875823" data-name="Trazado 875823" d="M138.2,189.045l8.765,15.3" transform="translate(-57.561 -78.74)" fill="none" stroke="#000" stroke-linecap="round" stroke-linejoin="round" stroke-width="2"/>
        <path id="Trazado_875824" data-name="Trazado 875824" d="M148.009,191.5l3.536,8.249" transform="translate(-61.648 -79.765)" fill="none" stroke="#000" stroke-linecap="round" stroke-linejoin="round" stroke-width="2"/>
        <path id="Trazado_875825" data-name="Trazado 875825" d="M134.757,202.731l6.17,7.41" transform="translate(-56.129 -84.441)" fill="none" stroke="#000" stroke-linecap="round" stroke-linejoin="round" stroke-width="2"/>
        <path id="Trazado_875826" data-name="Trazado 875826" d="M197.436,185.006A4.439,4.439,0,1,0,193,189.444a4.439,4.439,0,0,0,4.439-4.439" transform="translate(-78.538 -75.209)" fill="#ffa000"/>
        <path id="Trazado_875827" data-name="Trazado 875827" d="M171.815,229.2a4.439,4.439,0,1,0-4.439,4.439,4.439,4.439,0,0,0,4.439-4.439" transform="translate(-67.866 -93.615)" fill="#ffa000"/>
        <path id="Trazado_875828" data-name="Trazado 875828" d="M170.282,247.021a4.439,4.439,0,1,0-4.439,4.439,4.439,4.439,0,0,0,4.439-4.439" transform="translate(-67.227 -101.039)" fill="#ffa000"/>
        <path id="Trazado_875829" data-name="Trazado 875829" d="M164.207,181.066a4.439,4.439,0,1,0-4.439,4.439,4.438,4.438,0,0,0,4.439-4.439" transform="translate(-64.697 -73.568)" fill="#ffa000"/>
        <path id="Trazado_875830" data-name="Trazado 875830" d="M164.207,213.417a4.439,4.439,0,1,0-4.439,4.439,4.439,4.439,0,0,0,4.439-4.439" transform="translate(-64.697 -87.043)" fill="#ffa000"/>
        <path id="Trazado_875831" data-name="Trazado 875831" d="M182.567,176.645a4.439,4.439,0,1,0-4.439,4.439,4.439,4.439,0,0,0,4.439-4.439" transform="translate(-72.344 -71.727)" fill="#ffa000"/>
        <path id="Trazado_875832" data-name="Trazado 875832" d="M180.2,193.837a3.479,3.479,0,1,0-3.479,3.479,3.479,3.479,0,0,0,3.479-3.479" transform="translate(-72.159 -79.287)" fill="#ffa000"/>
        <path id="Trazado_875833" data-name="Trazado 875833" d="M137.262,232.8a3.479,3.479,0,1,0-3.479,3.479,3.479,3.479,0,0,0,3.479-3.479" transform="translate(-54.274 -95.515)" fill="#ffa000"/>
        <path id="Trazado_875834" data-name="Trazado 875834" d="M156.324,235.821a3.479,3.479,0,1,0-3.479,3.479,3.479,3.479,0,0,0,3.479-3.479" transform="translate(-62.214 -96.774)" fill="#ffa000"/>
        <path id="Trazado_875835" data-name="Trazado 875835" d="M182.291,217.195a3.479,3.479,0,1,0-3.479,3.479,3.479,3.479,0,0,0,3.479-3.479" transform="translate(-73.03 -89.016)" fill="#ffa000"/>
        <path id="Trazado_875836" data-name="Trazado 875836" d="M150.193,223.157a3.479,3.479,0,1,0-3.479,3.479,3.479,3.479,0,0,0,3.479-3.479" transform="translate(-59.66 -91.5)" fill="#ffa000"/>
        <path id="Trazado_875837" data-name="Trazado 875837" d="M188.253,203.321a3.479,3.479,0,1,0-3.479,3.479,3.479,3.479,0,0,0,3.479-3.479" transform="translate(-75.513 -83.238)" fill="#ffa000"/>
        <path id="Trazado_875838" data-name="Trazado 875838" d="M203.323,201.7a3.479,3.479,0,1,0-3.479,3.479,3.479,3.479,0,0,0,3.479-3.479" transform="translate(-81.79 -82.562)" fill="#ffa000"/>
        <path id="Trazado_875839" data-name="Trazado 875839" d="M145.8,244.471a3.479,3.479,0,1,0-3.479,3.479,3.479,3.479,0,0,0,3.479-3.479" transform="translate(-57.831 -100.377)" fill="#ffa000"/>
        <path id="Trazado_875840" data-name="Trazado 875840" d="M314.989,141.131a14.46,14.46,0,0,0-7.4,11.055q-.892-4-1.784-7.991a14.118,14.118,0,0,0-.776,14.689L312.2,157.5a37.476,37.476,0,0,0,2.787-16.367" transform="translate(-126.342 -58.783)" fill="#bad734"/>
        <path id="Trazado_875841" data-name="Trazado 875841" d="M307.566,156.734q.509,3.722,1.019,7.444" transform="translate(-128.106 -65.282)" fill="none" stroke="#000" stroke-linecap="round" stroke-linejoin="round" stroke-width="2"/>
        <path id="Trazado_875842" data-name="Trazado 875842" d="M316.261,153.615q-.662,3.559-1.324,7.117" transform="translate(-131.177 -63.983)" fill="none" stroke="#000" stroke-linecap="round" stroke-linejoin="round" stroke-width="2"/>
        <path id="Trazado_875843" data-name="Trazado 875843" d="M286.324,172.329a4.439,4.439,0,1,0-4.439,4.439,4.439,4.439,0,0,0,4.439-4.439" transform="translate(-115.561 -69.929)" fill="#ffa000"/>
        <path id="Trazado_875844" data-name="Trazado 875844" d="M302.116,165.406a3.479,3.479,0,1,0-3.479,3.479,3.479,3.479,0,0,0,3.479-3.479" transform="translate(-122.939 -67.445)" fill="#ffa000"/>
        <path id="Trazado_875845" data-name="Trazado 875845" d="M205.124,219.526a5.244,5.244,0,0,0-6.271,2.354l9.4,3.567a5.244,5.244,0,0,0-3.131-5.921" transform="translate(-82.826 -91.311)" fill="#bad734"/>
        <path id="Trazado_875846" data-name="Trazado 875846" d="M186.426,255.835l-6.781,3.739a3.913,3.913,0,0,0,6.781-3.739" transform="translate(-74.825 -106.56)" fill="#bad734"/>
        <path id="Trazado_875847" data-name="Trazado 875847" d="M264.63,177.412a3.891,3.891,0,0,0,5.614,5.083Z" transform="translate(-110.032 -73.895)" fill="#bad734"/>
        <path id="Trazado_875848" data-name="Trazado 875848" d="M351.271,204.625a4,4,0,0,0-3.422-3.458l.777,7.54a4,4,0,0,0,2.644-4.083" transform="translate(-144.885 -83.789)" fill="#bad734"/>
        <path id="Trazado_875849" data-name="Trazado 875849" d="M340.193,207.3l-4.058.614a2.1,2.1,0,1,0,4.058-.614" transform="translate(-140.005 -86.345)" fill="#bad734"/>
        <path id="Trazado_875850" data-name="Trazado 875850" d="M292.014,234.8a2.774,2.774,0,0,0,5.535-.342Z" transform="translate(-121.629 -97.656)" fill="#bad734"/>
        <path id="Trazado_875851" data-name="Trazado 875851" d="M244.518,270.3l-6.069,2.3a3.245,3.245,0,0,0,6.069-2.3" transform="translate(-99.318 -112.583)" fill="#bad734"/>
        <path id="Trazado_875852" data-name="Trazado 875852" d="M257.853,270.376a3.32,3.32,0,0,0-2.926,3.525l6.361-.495a3.32,3.32,0,0,0-3.436-3.03" transform="translate(-106.175 -112.613)" fill="#bad734"/>
        <path id="Trazado_875853" data-name="Trazado 875853" d="M266.426,211.626a17.385,17.385,0,1,0-34.275-5.544,26.805,26.805,0,0,0,16.192,9.787c6.326,1.093,12.65-.823,18.083-4.243" transform="translate(-96.695 -79.392)" fill="#a92a23"/>
        <path id="Trazado_875854" data-name="Trazado 875854" d="M251.27,195.345l3.336,12.572" transform="translate(-104.658 -81.364)" fill="none" stroke="#000" stroke-linecap="round" stroke-linejoin="round" stroke-width="2"/>
        <path id="Trazado_875855" data-name="Trazado 875855" d="M260.635,195.279l2.274,11.23" transform="translate(-108.559 -81.337)" fill="none" stroke="#000" stroke-linecap="round" stroke-linejoin="round" stroke-width="2"/>
        <path id="Trazado_875856" data-name="Trazado 875856" d="M269.09,194.715l2.855,10.416" transform="translate(-112.081 -81.102)" fill="none" stroke="#000" stroke-linecap="round" stroke-linejoin="round" stroke-width="2"/>
        <path id="Trazado_875857" data-name="Trazado 875857" d="M325.574,180.809a17.385,17.385,0,1,0-34.595,2.949,26.8,26.8,0,0,0,18.085,5.56c6.4-.477,12.071-3.872,16.51-8.509" transform="translate(-121.133 -68.324)" fill="#a92a23"/>
        <path id="Trazado_875858" data-name="Trazado 875858" d="M310.036,168.318l-3.085,9.4" transform="translate(-127.85 -70.107)" fill="none" stroke="#000" stroke-linecap="round" stroke-linejoin="round" stroke-width="2"/>
        <path id="Trazado_875859" data-name="Trazado 875859" d="M318.7,168.024l-3.195,10.743" transform="translate(-131.414 -69.985)" fill="none" stroke="#000" stroke-linecap="round" stroke-linejoin="round" stroke-width="2"/>
        <path id="Trazado_875860" data-name="Trazado 875860" d="M327.39,168.936l-1.659,10.592" transform="translate(-135.672 -70.365)" fill="none" stroke="#000" stroke-linecap="round" stroke-linejoin="round" stroke-width="2"/>
        <path id="Trazado_875861" data-name="Trazado 875861" d="M225.083,188a4.439,4.439,0,1,0-4.439,4.439A4.439,4.439,0,0,0,225.083,188" transform="translate(-90.053 -76.458)" fill="#ffa000"/>
        <path id="Trazado_875862" data-name="Trazado 875862" d="M227.721,203.321a3.479,3.479,0,1,0-3.479,3.479,3.479,3.479,0,0,0,3.479-3.479" transform="translate(-91.952 -83.238)" fill="#ffa000"/>
        <path id="Trazado_875863" data-name="Trazado 875863" d="M234.451,171.368a3.479,3.479,0,1,0-3.479,3.479,3.478,3.478,0,0,0,3.479-3.479" transform="translate(-94.755 -69.929)" fill="#ffa000"/>
        <path id="Trazado_875864" data-name="Trazado 875864" d="M237.372,223.157a3.479,3.479,0,1,0-3.479,3.479,3.479,3.479,0,0,0,3.479-3.479" transform="translate(-95.972 -91.5)" fill="#ffa000"/>
        <path id="Trazado_875865" data-name="Trazado 875865" d="M250.944,229.174a4.439,4.439,0,1,0-4.439,4.439,4.439,4.439,0,0,0,4.439-4.439" transform="translate(-100.825 -93.606)" fill="#ffa000"/>
        <path id="Trazado_875866" data-name="Trazado 875866" d="M268.236,133.706a19.709,19.709,0,0,0-12.547,9.354c.375-1.837.681-3.767,1.055-5.6a19.074,19.074,0,0,0-9.79,24.278l9.374-4.243a20.946,20.946,0,0,0,11.7-17.276l-4.89,3.555c1.858-3.311,3.24-6.752,5.1-10.063" transform="translate(-102.321 -55.691)" fill="#bad734"/>
        <path id="Trazado_875867" data-name="Trazado 875867" d="M257.761,152.43l-12.027,19.729" transform="translate(-102.352 -63.49)" fill="none" stroke="#000" stroke-linecap="round" stroke-linejoin="round" stroke-width="2"/>
        <path id="Trazado_875868" data-name="Trazado 875868" d="M374.838,216.248a13.8,13.8,0,0,0-12.632,7.169c.191-3.911.386-7.952.578-11.862a26.42,26.42,0,0,0-10.537,19.506l-1.6-6.464a43.841,43.841,0,0,0-3.091,18.856,52.688,52.688,0,0,0,27.281-27.2" transform="translate(-144.733 -88.116)" fill="#bad734"/>
        <path id="Trazado_875869" data-name="Trazado 875869" d="M352.5,245.517q.063,4.552.125,9.1" transform="translate(-146.821 -102.262)" fill="none" stroke="#000" stroke-linecap="round" stroke-linejoin="round" stroke-width="2"/>
        <path id="Trazado_875870" data-name="Trazado 875870" d="M364.013,229.374l-2.936,15.1" transform="translate(-150.395 -95.538)" fill="none" stroke="#000" stroke-linecap="round" stroke-linejoin="round" stroke-width="2"/>
        <path id="Trazado_875871" data-name="Trazado 875871" d="M310.669,258.876a17.385,17.385,0,1,0-34.595,2.949,26.8,26.8,0,0,0,18.084,5.56c6.4-.477,12.071-3.872,16.51-8.509" transform="translate(-114.925 -100.84)" fill="#a92a23"/>
        <path id="Trazado_875872" data-name="Trazado 875872" d="M297.362,246.1q-1.046,5.286-2.091,10.572" transform="translate(-122.985 -102.506)" fill="none" stroke="#000" stroke-linecap="round" stroke-linejoin="round" stroke-width="2"/>
        <path id="Trazado_875873" data-name="Trazado 875873" d="M307.479,247.264q-1,4.963-2,9.928" transform="translate(-127.237 -102.99)" fill="none" stroke="#000" stroke-linecap="round" stroke-linejoin="round" stroke-width="2"/>
        <path id="Trazado_875874" data-name="Trazado 875874" d="M315.667,248.656l-1.521,10.588" transform="translate(-130.847 -103.569)" fill="none" stroke="#000" stroke-linecap="round" stroke-linejoin="round" stroke-width="2"/>
        <path id="Trazado_875875" data-name="Trazado 875875" d="M189.486,227.484l2.485,1.486" transform="translate(-78.924 -94.751)" fill="none" stroke="#000" stroke-linecap="round" stroke-linejoin="round" stroke-width="2"/>
        <path id="Trazado_875876" data-name="Trazado 875876" d="M186.295,240.258l2.3-1.682" transform="translate(-77.595 -99.371)" fill="none" stroke="#000" stroke-linecap="round" stroke-linejoin="round" stroke-width="2"/>
        <path id="Trazado_875877" data-name="Trazado 875877" d="M181.074,249.169l1.159.827" transform="translate(-75.42 -103.783)" fill="none" stroke="#000" stroke-linecap="round" stroke-linejoin="round" stroke-width="2"/>
        <line id="Línea_674" data-name="Línea 674" y2="1.655" transform="translate(91.073 146.566)" fill="none" stroke="#000" stroke-linecap="round" stroke-linejoin="round" stroke-width="2"/>
        <line id="Línea_675" data-name="Línea 675" x2="1.82" transform="translate(115.072 157.325)" fill="none" stroke="#000" stroke-linecap="round" stroke-linejoin="round" stroke-width="2"/>
        <path id="Trazado_875878" data-name="Trazado 875878" d="M170.552,261.971q.082,1.159.166,2.317" transform="translate(-71.038 -109.115)" fill="none" stroke="#000" stroke-linecap="round" stroke-linejoin="round" stroke-width="2"/>
        <path id="Trazado_875879" data-name="Trazado 875879" d="M219.13,237.795l3.954-1.217" transform="translate(-91.271 -98.539)" fill="none" stroke="#000" stroke-linecap="round" stroke-linejoin="round" stroke-width="2"/>
        <line id="Línea_676" data-name="Línea 676" y2="2.483" transform="translate(134.768 139.615)" fill="none" stroke="#000" stroke-linecap="round" stroke-linejoin="round" stroke-width="2"/>
        <path id="Trazado_875880" data-name="Trazado 875880" d="M203.456,233.606l1.159,2.152" transform="translate(-84.743 -97.301)" fill="none" stroke="#000" stroke-linecap="round" stroke-linejoin="round" stroke-width="2"/>
        <path id="Trazado_875881" data-name="Trazado 875881" d="M213.384,212.261l1.986-.5" transform="translate(-88.878 -88.203)" fill="none" stroke="#000" stroke-linecap="round" stroke-linejoin="round" stroke-width="2"/>
        <line id="Línea_677" data-name="Línea 677" y2="1.655" transform="translate(130.299 126.871)" fill="none" stroke="#000" stroke-linecap="round" stroke-linejoin="round" stroke-width="2"/>
        <path id="Trazado_875882" data-name="Trazado 875882" d="M202.315,175.3l2.318-.99" transform="translate(-84.268 -72.603)" fill="none" stroke="#000" stroke-linecap="round" stroke-linejoin="round" stroke-width="2"/>
        <path id="Trazado_875883" data-name="Trazado 875883" d="M213.041,174.913l1,2.479" transform="translate(-88.735 -72.854)" fill="none" stroke="#000" stroke-linecap="round" stroke-linejoin="round" stroke-width="2"/>
        <path id="Trazado_875884" data-name="Trazado 875884" d="M193.5,169.592l1.318-1" transform="translate(-80.594 -70.221)" fill="none" stroke="#000" stroke-linecap="round" stroke-linejoin="round" stroke-width="2"/>
        <path id="Trazado_875885" data-name="Trazado 875885" d="M253.68,185.058l1.66.649" transform="translate(-105.662 -77.08)" fill="none" stroke="#000" stroke-linecap="round" stroke-linejoin="round" stroke-width="2"/>
        <path id="Trazado_875886" data-name="Trazado 875886" d="M239.173,191.908l-.827,1.82" transform="translate(-99.275 -79.933)" fill="none" stroke="#000" stroke-linecap="round" stroke-linejoin="round" stroke-width="2"/>
        <path id="Trazado_875887" data-name="Trazado 875887" d="M280.895,191.506l2.152-.166" transform="translate(-116.997 -79.696)" fill="none" stroke="#000" stroke-linecap="round" stroke-linejoin="round" stroke-width="2"/>
        <path id="Trazado_875888" data-name="Trazado 875888" d="M284.866,161.841l2.317,1.49" transform="translate(-118.651 -67.41)" fill="none" stroke="#000" stroke-linecap="round" stroke-linejoin="round" stroke-width="2"/>
        <path id="Trazado_875889" data-name="Trazado 875889" d="M295.928,210.724l2.648-.662" transform="translate(-123.259 -87.494)" fill="none" stroke="#000" stroke-linecap="round" stroke-linejoin="round" stroke-width="2"/>
        <path id="Trazado_875890" data-name="Trazado 875890" d="M296.414,217.079l.925,2.508" transform="translate(-123.461 -90.417)" fill="none" stroke="#000" stroke-linecap="round" stroke-linejoin="round" stroke-width="2"/>
        <path id="Trazado_875891" data-name="Trazado 875891" d="M319.472,212.308l2.814-.827" transform="translate(-133.065 -88.085)" fill="none" stroke="#000" stroke-linecap="round" stroke-linejoin="round" stroke-width="2"/>
        <path id="Trazado_875892" data-name="Trazado 875892" d="M345.319,219.388l1.336,1.311" transform="translate(-143.831 -91.379)" fill="none" stroke="#000" stroke-linecap="round" stroke-linejoin="round" stroke-width="2"/>
        <path id="Trazado_875893" data-name="Trazado 875893" d="M355.212,218.146l1.655-.993" transform="translate(-147.952 -90.448)" fill="none" stroke="#000" stroke-linecap="round" stroke-linejoin="round" stroke-width="2"/>
        <line id="Línea_678" data-name="Línea 678" y2="2.152" transform="translate(208.585 116.94)" fill="none" stroke="#000" stroke-linecap="round" stroke-linejoin="round" stroke-width="2"/>
        <path id="Trazado_875894" data-name="Trazado 875894" d="M341.008,254l2.312-1.166" transform="translate(-142.036 -105.311)" fill="none" stroke="#000" stroke-linecap="round" stroke-linejoin="round" stroke-width="2"/>
        <path id="Trazado_875895" data-name="Trazado 875895" d="M338,259.349l1.022,1.3" transform="translate(-140.782 -108.023)" fill="none" stroke="#000" stroke-linecap="round" stroke-linejoin="round" stroke-width="2"/>
        <path id="Trazado_875896" data-name="Trazado 875896" d="M320.252,234.457q-.249.91-.5,1.82" transform="translate(-133.183 -97.655)" fill="none" stroke="#000" stroke-linecap="round" stroke-linejoin="round" stroke-width="2"/>
        <path id="Trazado_875897" data-name="Trazado 875897" d="M309.544,236.442l.993,1.159" transform="translate(-128.93 -98.482)" fill="none" stroke="#000" stroke-linecap="round" stroke-linejoin="round" stroke-width="2"/>
        <path id="Trazado_875898" data-name="Trazado 875898" d="M243.456,262.489l1.986.173" transform="translate(-101.404 -109.331)" fill="none" stroke="#000" stroke-linecap="round" stroke-linejoin="round" stroke-width="2"/>
        <path id="Trazado_875899" data-name="Trazado 875899" d="M228.668,275.3l.17,2.482" transform="translate(-95.244 -114.669)" fill="none" stroke="#000" stroke-linecap="round" stroke-linejoin="round" stroke-width="2"/>
        <path id="Trazado_875900" data-name="Trazado 875900" d="M212.25,278.37l2.317.008" transform="translate(-88.406 -115.946)" fill="none" stroke="#000" stroke-linecap="round" stroke-linejoin="round" stroke-width="2"/>
        <path id="Trazado_875901" data-name="Trazado 875901" d="M270.683,277.572l.827,1.82" transform="translate(-112.744 -115.613)" fill="none" stroke="#000" stroke-linecap="round" stroke-linejoin="round" stroke-width="2"/>
        <path id="Trazado_875902" data-name="Trazado 875902" d="M252.175,281.26l-2.483.662" transform="translate(-104.001 -117.149)" fill="none" stroke="#000" stroke-linecap="round" stroke-linejoin="round" stroke-width="2"/>
        <path id="Trazado_875903" data-name="Trazado 875903" d="M186.953,223.21c-23.391,0-45.444-5.348-62.1-15.059-17.37-10.128-26.937-23.841-26.937-38.614s9.566-28.486,26.937-38.614c16.656-9.71,38.709-15.058,62.1-15.058s45.444,5.348,62.1,15.058c17.37,10.128,26.937,23.841,26.937,38.614s-9.566,28.486-26.937,38.614c-16.656,9.71-38.709,15.059-62.1,15.059m0-98.9c-21.92,0-42.464,4.94-57.848,13.91-14.669,8.553-22.747,19.676-22.747,31.322s8.078,22.769,22.747,31.321c15.384,8.97,35.928,13.91,57.848,13.91s42.464-4.94,57.848-13.91c14.669-8.553,22.747-19.676,22.747-31.321s-8.078-22.769-22.747-31.322c-15.384-8.969-35.928-13.91-57.848-13.91" transform="translate(-40.784 -48.26)" fill="#fff"/>
        <path id="Trazado_875904" data-name="Trazado 875904" d="M97.85,73.9a139.772,139.772,0,0,1-15.123-24.88,94.322,94.322,0,0,0-64.274,6.333A83.7,83.7,0,0,1,0,61.487v68.351c10.84-9.983,22.076-19.4,34.93-26.67,9.552-5.4,19.944-11.5,29.5-16.9l2.588,6.111a4.922,4.922,0,0,0,1.355,2.1c.67.512,2.166.682,2.69.021.181-1.571,1.134-2.887,1.315-4.457a4.976,4.976,0,0,0,1.71,4.462c1.28,1.064,3.58.782,5.154.242,0-2.483.764-4.373.764-6.855a14.313,14.313,0,0,0,2.957,5.059,4.531,4.531,0,0,0,5.251.8c-.689-6.791-1.014-13.892-1.7-20.684A9.9,9.9,0,0,0,97.85,73.9" transform="translate(0 -19.182)" fill="#ff9a7d"/>
        <path id="Trazado_875905" data-name="Trazado 875905" d="M110.675,111.937l-.56,2.468" transform="translate(-45.865 -46.624)" fill="none" stroke="#000" stroke-linecap="round" stroke-linejoin="round" stroke-width="2"/>
        <path id="Trazado_875906" data-name="Trazado 875906" d="M104.355,85.276l-2.3,11.589" transform="translate(-42.508 -35.519)" fill="none" stroke="#000" stroke-linecap="round" stroke-linejoin="round" stroke-width="2"/>
        <path id="Trazado_875907" data-name="Trazado 875907" d="M118.585,110.857a28.836,28.836,0,0,0-7.151-16.989" transform="translate(-46.414 -39.098)" fill="none" stroke="#000" stroke-linecap="round" stroke-linejoin="round" stroke-width="2"/>
        <path id="Trazado_875908" data-name="Trazado 875908" d="M117.283,79.775a36.606,36.606,0,0,1,11.52,22.73" transform="translate(-48.85 -33.228)" fill="none" stroke="#000" stroke-linecap="round" stroke-linejoin="round" stroke-width="2"/>
        <path id="Trazado_875909" data-name="Trazado 875909" d="M168.154,88.426c-6.53-5.44-16.806-7.294-24.7-4.87L88.514,40.6a3.517,3.517,0,0,0-4.332,5.542l52.6,41.126c-5.064,4.8-4.423,12.063,2.118,17.512,7.616,6.346,25.549,15.706,36.168,9.772,11.052-6.177.7-19.776-6.912-26.122" transform="translate(-34.5 -16.598)"/>
        <path id="Trazado_875910" data-name="Trazado 875910" d="M207.217,130.053c-5.785-4.82-15.451-5.947-21.588-2.518-4.566,2.552-5.887,6.908-3.882,10.957,5.216,4.265,16.68,10.83,26.1,10.83a13.549,13.549,0,0,0,6.669-1.534c.285-.159.54-.322.779-.485,3.144-5.216-3.2-13.188-8.077-17.25" transform="translate(-75.322 -52.294)" fill="#ff6400"/>
        <path id="Trazado_875911" data-name="Trazado 875911" d="M223.512,130.164a4.439,4.439,0,1,0-4.439,4.439,4.439,4.439,0,0,0,4.439-4.439" transform="translate(-89.399 -52.367)" fill="#ffa000"/>
        <path id="Trazado_875912" data-name="Trazado 875912" d="M235.181,151.709a4.439,4.439,0,1,0-4.439,4.439,4.438,4.438,0,0,0,4.439-4.439" transform="translate(-94.259 -61.34)" fill="#ffa000"/>
        <path id="Trazado_875913" data-name="Trazado 875913" d="M200.244,127.848a3.479,3.479,0,1,0-3.479,3.479,3.479,3.479,0,0,0,3.479-3.479" transform="translate(-80.507 -51.802)" fill="#ffa000"/>
        <path id="Trazado_875914" data-name="Trazado 875914" d="M220.342,146.432a3.479,3.479,0,1,0-3.479,3.479,3.479,3.479,0,0,0,3.479-3.479" transform="translate(-88.878 -59.542)" fill="#ffa000"/>
        <path id="Trazado_875915" data-name="Trazado 875915" d="M208.751,125.728a3.479,3.479,0,1,0-3.479,3.479,3.479,3.479,0,0,0,3.479-3.479" transform="translate(-84.051 -50.919)" fill="#ffa000"/>
        <path id="Trazado_875916" data-name="Trazado 875916" d="M215.716,155.1a3.844,3.844,0,0,0-4.6,1.5l6.792,2.816a3.846,3.846,0,0,0-2.189-4.321" transform="translate(-87.932 -64.494)" fill="#bad734"/>
        <path id="Trazado_875917" data-name="Trazado 875917" d="M229.885,138.274l-4.756,2.372a2.662,2.662,0,1,0,4.756-2.372" transform="translate(-93.77 -57.593)" fill="#bad734"/>
        <path id="Trazado_875918" data-name="Trazado 875918" d="M197.436,142.059a8.582,8.582,0,1,0-15.679-6.085c3.171,4.811,10.031,7.228,15.679,6.085" transform="translate(-75.705 -53.667)" fill="#a92a23"/>
        <path id="Trazado_875919" data-name="Trazado 875919" d="M195.2,131.487q-.082,2.934-.164,5.868" transform="translate(-81.234 -54.767)" fill="none" stroke="#000" stroke-linecap="round" stroke-linejoin="round" stroke-width="2"/>
        <path id="Trazado_875920" data-name="Trazado 875920" d="M201.99,132.731l.625,6.075" transform="translate(-84.132 -55.285)" fill="none" stroke="#000" stroke-linecap="round" stroke-linejoin="round" stroke-width="2"/>
        <path id="Trazado_875921" data-name="Trazado 875921" d="M203.647,155.841l2.162.515" transform="translate(-84.822 -64.91)" fill="none" stroke="#000" stroke-linecap="round" stroke-linejoin="round" stroke-width="2"/>
        <path id="Trazado_875922" data-name="Trazado 875922" d="M213.2,135.547q-.1.927-.206,1.853" transform="translate(-88.717 -56.458)" fill="none" stroke="#000" stroke-linecap="round" stroke-linejoin="round" stroke-width="2"/>
        <path id="Trazado_875923" data-name="Trazado 875923" d="M213.707,141.677l1.957-.093" transform="translate(-89.013 -58.972)" fill="none" stroke="#000" stroke-linecap="round" stroke-linejoin="round" stroke-width="2"/>
        <path id="Trazado_875924" data-name="Trazado 875924" d="M225.882,160.606l.412,1.133" transform="translate(-94.084 -66.895)" fill="none" stroke="#000" stroke-linecap="round" stroke-linejoin="round" stroke-width="2"/>
        <path id="Trazado_875925" data-name="Trazado 875925" d="M192.529,152.135l1.03.824" transform="translate(-80.192 -63.367)" fill="none" stroke="#000" stroke-linecap="round" stroke-linejoin="round" stroke-width="2"/>
        <path id="Trazado_875926" data-name="Trazado 875926" d="M105.629,58.787,65.183,56.438,53.215,84.732a20.328,20.328,0,0,0,15.465.181c4.907-1.98,9.357-5.478,11.4-10.359,7.287-3.3,15.609-6.512,22.853-9.9a5.2,5.2,0,0,0,2.693-5.864" transform="translate(-22.165 -23.507)" fill="#ff9a7d"/>
        <path id="Trazado_875927" data-name="Trazado 875927" d="M80.54,83.381a14.582,14.582,0,0,0,8.156-8.65l13.047-5.554c5.231-2.227,14.327-4.506,12.939-10.371L74.958,56.354" transform="translate(-31.221 -23.472)" fill="none" stroke="#000" stroke-linecap="round" stroke-linejoin="round" stroke-width="2"/>
        <path id="Trazado_875928" data-name="Trazado 875928" d="M105.064,295.78a24.9,24.9,0,0,0,43.133,24.9Z" transform="translate(-42.37 -123.197)" fill="#ffa000"/>
        <path id="Trazado_875929" data-name="Trazado 875929" d="M123.614,311.763l-14.5,2.462a1.659,1.659,0,0,1-1.938-1.47,21.688,21.688,0,0,1,1.322-9.577,1.663,1.663,0,0,1,2.269-.893l13.284,6.305a1.654,1.654,0,0,1,.934,1.725l0,.023a1.667,1.667,0,0,1-1.37,1.425" transform="translate(-44.607 -125.839)" fill="#ffdc00"/>
        <path id="Trazado_875930" data-name="Trazado 875930" d="M126.45,322.014l-9.958,11.469a1.4,1.4,0,0,1-2.036.085,21.684,21.684,0,0,1-5-7.711,1.4,1.4,0,0,1,.909-1.822l14.535-4.406a1.432,1.432,0,0,1,1.614.635l.015.023a1.425,1.425,0,0,1-.081,1.728" transform="translate(-45.554 -133.106)" fill="#ffdc00"/>
        <path id="Trazado_875931" data-name="Trazado 875931" d="M138.295,341.582a21.632,21.632,0,0,1-10.114-1.916,1.927,1.927,0,0,1-.889-2.713c1.9-3.3,5.488-9.55,7.116-12.348a1.9,1.9,0,0,1,2-.916l.026,0a1.923,1.923,0,0,1,1.55,1.6l2.113,14.086a1.925,1.925,0,0,1-1.806,2.205" transform="translate(-52.913 -134.807)" fill="#ffdc00"/>
        <path id="Trazado_875932" data-name="Trazado 875932" d="M161.952,333.386a21.721,21.721,0,0,1-8.221,5.9,1.856,1.856,0,0,1-2.482-1.173l-4.171-13.75a1.846,1.846,0,0,1,.7-2.04l.02-.015a1.836,1.836,0,0,1,2.141,0l11.7,8.344a1.857,1.857,0,0,1,.313,2.732" transform="translate(-61.227 -134.104)" fill="#ffdc00"/>
        <path id="Trazado_875933" data-name="Trazado 875933" d="M302.709,340.1a97.607,97.607,0,0,1,.527-11.713,14.755,14.755,0,0,0-26.311-10.405,97.525,97.525,0,0,1-7.626,8.906c-3.872,3.881-8.61,9.13-10.1,12.9a22.613,22.613,0,0,0,42.056,16.632c1.492-3.773,1.626-10.844,1.456-16.323" transform="translate(-107.297 -130.087)" fill="#bad734"/>
        <path id="Trazado_875934" data-name="Trazado 875934" d="M293.225,398.845a19.962,19.962,0,0,0,20.584-12.627" transform="translate(-122.133 -160.866)" fill="none" stroke="#000" stroke-linecap="round" stroke-linejoin="round" stroke-width="2"/>
        <path id="Trazado_875935" data-name="Trazado 875935" d="M301.024,364.224a11.742,11.742,0,1,0-15.238,6.6,11.742,11.742,0,0,0,15.238-6.6" transform="translate(-115.941 -145.015)" fill="#a92a23"/>
        <path id="Trazado_875936" data-name="Trazado 875936" d="M284.159,360.554a8.413,8.413,0,0,1,10.248-6.886" transform="translate(-118.357 -147.217)" fill="none" stroke="#fff" stroke-linecap="round" stroke-linejoin="round" stroke-width="2"/>
      </g>
    </g>
  </g>
</svg>
