<svg xmlns="http://www.w3.org/2000/svg" width="80" height="80" viewBox="0 0 80 80">
  <g id="Grupo_1100320" data-name="Grupo 1100320" transform="translate(-1177.051 -7980)">
    <rect id="Rectángulo_400898" data-name="Rectángulo 400898" width="80" height="80" rx="40" transform="translate(1177.051 7980)" fill="#769671"/>
    <g id="Grupo_1100319" data-name="Grupo 1100319" transform="translate(-3.337 -0.337)">
      <g id="_-" data-name="-" transform="translate(1195.888 7994.837)">
        <g id="Grupo_1100317" data-name="Grupo 1100317" transform="translate(1.779 1.779)">
          <g id="Grupo_1100305" data-name="Grupo 1100305" transform="translate(1.559 23.384)">
            <path id="Trazado_875764" data-name="Trazado 875764" d="M19.589,50.707v3.617A1.063,1.063,0,0,1,17.711,55l-3.578-4.295H5.559A1.563,1.563,0,0,1,4,49.148V33.559A1.563,1.563,0,0,1,5.559,32h8.052l.982,1.177a1.063,1.063,0,0,0,1.878-.678V32h6.236v1.559a1.563,1.563,0,0,0,1.559,1.559H30.5v14.03a1.563,1.563,0,0,1-1.559,1.559Z" transform="translate(-4 -32)" fill="#e6e9ed"/>
            <path id="Trazado_875764_-_Contorno" data-name="Trazado 875764 - Contorno" d="M18.529,57.884A3.56,3.56,0,0,1,15.8,56.608L15.79,56.6l-2.828-3.395h-7.4A4.063,4.063,0,0,1,1.5,49.148V33.559A4.063,4.063,0,0,1,5.559,29.5H25.207v3.118H33v16.53a4.064,4.064,0,0,1-4.059,4.059H22.089v1.117A3.564,3.564,0,0,1,18.529,57.884ZM6.5,48.207h8.8l1.785,2.143V48.207H28V37.618H24.266A4.066,4.066,0,0,1,20.317,34.5H18.354a3.562,3.562,0,0,1-5.677.284l-.237-.284H6.5Z" transform="translate(-4 -32)" fill="#fff"/>
          </g>
          <g id="Grupo_1100306" data-name="Grupo 1100306" transform="translate(20.266 6.236)">
            <path id="Trazado_875765" data-name="Trazado 875765" d="M29.559,24.03a1.563,1.563,0,0,0,1.559-1.559V10H52.943A1.563,1.563,0,0,1,54.5,11.559V28.707a1.563,1.563,0,0,1-1.559,1.559H44.369l-3.578,4.295a1.063,1.063,0,0,1-1.878-.678V30.266H29.559A1.563,1.563,0,0,1,28,28.707V24.03Z" transform="translate(-28 -10)" fill="#ffeaa7"/>
            <path id="Trazado_875765_-_Contorno" data-name="Trazado 875765 - Contorno" d="M39.972,37.443a3.564,3.564,0,0,1-3.56-3.56V32.766H29.559A4.064,4.064,0,0,1,25.5,28.707V21.53h3.118V7.5H52.943A4.064,4.064,0,0,1,57,11.559V28.707a4.064,4.064,0,0,1-4.059,4.059h-7.4l-2.833,3.4A3.56,3.56,0,0,1,39.972,37.443ZM30.5,27.766H41.412v2.143L43.2,27.766H52V12.5H33.618v9.971A4.066,4.066,0,0,1,30.5,26.42Z" transform="translate(-28 -10)" fill="#fff"/>
          </g>
          <g id="Grupo_1100307" data-name="Grupo 1100307" transform="translate(0)">
            <path id="Trazado_875766" data-name="Trazado 875766" d="M25.384,8.236V20.707a1.563,1.563,0,0,1-1.559,1.559H16.03v3.617a1.063,1.063,0,0,1-1.878.678l-.982-1.177-2.6-3.118H3.559A1.563,1.563,0,0,1,2,20.707V3.559A1.563,1.563,0,0,1,3.559,2H23.825a1.563,1.563,0,0,1,1.559,1.559Z" transform="translate(-2 -2)" fill="#f0d0b4"/>
            <path id="Trazado_875766_-_Contorno" data-name="Trazado 875766 - Contorno" d="M3.559-.5H23.825a4.064,4.064,0,0,1,4.059,4.059V20.707a4.064,4.064,0,0,1-4.059,4.059H18.53v1.117a3.563,3.563,0,0,1-6.294,2.285l0,0-.982-1.177L9.4,24.766H3.559A4.063,4.063,0,0,1-.5,20.707V3.559A4.064,4.064,0,0,1,3.559-.5Zm19.325,5H4.5V19.766h7.246l1.784,2.144V19.766h9.353Z" transform="translate(-2 -2)" fill="#fff"/>
          </g>
          <g id="Grupo_1100308" data-name="Grupo 1100308" transform="translate(4.677 34.296)">
            <path id="Trazado_875767" data-name="Trazado 875767" d="M14.259,46.8a4.314,4.314,0,0,0-.452,1.512l-.351,3.141H8V49.9A3.9,3.9,0,0,1,11.9,46a3.84,3.84,0,0,1,2.362.8Z" transform="translate(-8 -46)" fill="#b4dd7f"/>
            <path id="Trazado_875767_-_Contorno" data-name="Trazado 875767 - Contorno" d="M11.9,43.5a6.3,6.3,0,0,1,3.892,1.326l1.636,1.266-.938,1.844a1.822,1.822,0,0,0-.193.631l0,.025-.6,5.364H5.5V49.9A6.4,6.4,0,0,1,11.9,43.5Z" transform="translate(-8 -46)" fill="#fff"/>
          </g>
          <g id="Grupo_1100309" data-name="Grupo 1100309" transform="translate(18.684 34.296)">
            <path id="Trazado_875768" data-name="Trazado 875768" d="M32.229,49.9v1.559H26.773l-.351-3.141A4.314,4.314,0,0,0,25.97,46.8a3.841,3.841,0,0,1,2.362-.8,3.885,3.885,0,0,1,3.9,3.9Z" transform="translate(-25.97 -46)" fill="#b4dd7f"/>
            <path id="Trazado_875768_-_Contorno" data-name="Trazado 875768 - Contorno" d="M34.729,53.956H24.536l-.6-5.389a1.822,1.822,0,0,0-.193-.631L22.8,46.092l1.636-1.266A6.3,6.3,0,0,1,28.332,43.5a6.387,6.387,0,0,1,4.517,1.86l.02.02a6.387,6.387,0,0,1,1.86,4.517Z" transform="translate(-25.97 -46)" fill="#fff"/>
          </g>
          <g id="Grupo_1100310" data-name="Grupo 1100310" transform="translate(10.133 32.737)">
            <path id="Trazado_875769" data-name="Trazado 875769" d="M24,47.874l.351,3.141H15l.351-3.141A4.34,4.34,0,0,1,19.677,44a4.385,4.385,0,0,1,2.907,1.107,4.617,4.617,0,0,1,.967,1.255A4.314,4.314,0,0,1,24,47.874Z" transform="translate(-15 -44)" fill="#fcd770"/>
            <path id="Trazado_875769_-_Contorno" data-name="Trazado 875769 - Contorno" d="M27.148,53.515H12.205l.66-5.908a6.775,6.775,0,0,1,.709-2.378l0-.009a6.863,6.863,0,0,1,10.666-1.981l.032.029A7.109,7.109,0,0,1,25.764,45.2l.015.028a6.775,6.775,0,0,1,.709,2.378Zm-9.353-5h3.764l-.043-.389a1.815,1.815,0,0,0-.186-.617,2.122,2.122,0,0,0-.422-.547,1.875,1.875,0,0,0-1.231-.461,1.846,1.846,0,0,0-1.648,1,1.819,1.819,0,0,0-.191.626l0,.025Z" transform="translate(-15 -44)" fill="#fff"/>
          </g>
          <g id="Grupo_1100311" data-name="Grupo 1100311" transform="translate(18.707 29.619)">
            <circle id="Elipse_11532" data-name="Elipse 11532" cx="2.5" cy="2.5" r="2.5" transform="translate(-0.323 -0.236)" fill="#f0d0b4"/>
            <path id="Elipse_11532_-_Contorno" data-name="Elipse 11532 - Contorno" d="M2.5-2.5a5,5,0,1,1-5,5A5.006,5.006,0,0,1,2.5-2.5Z" transform="translate(-0.323 -0.236)" fill="#fff"/>
          </g>
          <g id="Grupo_1100312" data-name="Grupo 1100312" transform="translate(12.471 28.06)">
            <ellipse id="Elipse_11533" data-name="Elipse 11533" cx="2.5" cy="2" rx="2.5" ry="2" transform="translate(-0.088 0.323)" fill="#f0d0b4"/>
            <path id="Elipse_11533_-_Contorno" data-name="Elipse 11533 - Contorno" d="M2.5-2.5A5.335,5.335,0,0,1,5.83-1.366,4.319,4.319,0,0,1,7.5,2,4.319,4.319,0,0,1,5.83,5.366,5.335,5.335,0,0,1,2.5,6.5,5.335,5.335,0,0,1-.83,5.366,4.319,4.319,0,0,1-2.5,2,4.319,4.319,0,0,1-.83-1.366,5.335,5.335,0,0,1,2.5-2.5Z" transform="translate(-0.088 0.323)" fill="#fff"/>
          </g>
          <g id="Grupo_1100313" data-name="Grupo 1100313" transform="translate(6.236 29.619)">
            <circle id="Elipse_11534" data-name="Elipse 11534" cx="2.5" cy="2.5" r="2.5" transform="translate(0.148 -0.236)" fill="#f0d0b4"/>
            <path id="Elipse_11534_-_Contorno" data-name="Elipse 11534 - Contorno" d="M2.5-2.5a5,5,0,1,1-5,5A5.006,5.006,0,0,1,2.5-2.5Z" transform="translate(0.148 -0.236)" fill="#fff"/>
          </g>
          <g id="Grupo_1100314" data-name="Grupo 1100314" transform="translate(4.677 4.677)">
            <path id="Trazado_875770" data-name="Trazado 875770" d="M22.03,12.084v.125a4.538,4.538,0,0,1-1.512,3.375l-5.5,4.887-5.5-4.887A4.538,4.538,0,0,1,8,12.209v-.125A4.225,4.225,0,0,1,9.239,9.1a3.764,3.764,0,0,1,5.316,0l.46.46.46-.46a3.764,3.764,0,0,1,5.316,0A4.225,4.225,0,0,1,22.03,12.084Z" transform="translate(-8 -8)" fill="#ff826e"/>
            <path id="Trazado_875770_-_Contorno" data-name="Trazado 875770 - Contorno" d="M11.9,5.5a6.3,6.3,0,0,1,3.118.834,6.257,6.257,0,0,1,7.544,1,6.77,6.77,0,0,1,1.972,4.753v.125a7.037,7.037,0,0,1-2.346,5.239l-.006.006-7.163,6.361L7.846,17.448A7.037,7.037,0,0,1,5.5,12.209v-.125A6.77,6.77,0,0,1,7.472,7.331,6.3,6.3,0,0,1,11.9,5.5Zm3.118,7.594-2.228-2.228a1.264,1.264,0,0,0-1.78,0,1.735,1.735,0,0,0-.507,1.218v.125a2.032,2.032,0,0,0,.675,1.508l3.84,3.41,3.84-3.41a2.032,2.032,0,0,0,.675-1.508v-.125a1.735,1.735,0,0,0-.507-1.218,1.264,1.264,0,0,0-1.78,0Z" transform="translate(-8 -8)" fill="#fff"/>
          </g>
          <g id="Grupo_1100315" data-name="Grupo 1100315" transform="translate(26.501 14.03)">
            <path id="Trazado_875771" data-name="Trazado 875771" d="M40.677,27.795v.779a.782.782,0,0,1-.779.779H36.779A.782.782,0,0,1,36,28.574V20.779A.782.782,0,0,1,36.779,20H39.9a.782.782,0,0,1,.779.779Z" transform="translate(-36 -20)" fill="#b4dd7f"/>
            <path id="Trazado_875771_-_Contorno" data-name="Trazado 875771 - Contorno" d="M39.9,31.853H36.779A3.283,3.283,0,0,1,33.5,28.574V20.779A3.283,3.283,0,0,1,36.779,17.5H39.9a3.283,3.283,0,0,1,3.279,3.279v7.795A3.283,3.283,0,0,1,39.9,31.853Z" transform="translate(-36 -20)" fill="#fff"/>
          </g>
          <g id="Grupo_1100316" data-name="Grupo 1100316" transform="translate(31.178 9.353)">
            <path id="Trazado_875772" data-name="Trazado 875772" d="M52.912,21.015v4.677a2.335,2.335,0,0,1-2.338,2.338H47.152A9.309,9.309,0,0,1,42,26.471V19.456l.928-.928a7.238,7.238,0,0,0,1.894-3.352A1.552,1.552,0,0,1,46.334,14a2.268,2.268,0,0,1,2.237,2.642l-.335,2.034h2.338a2.335,2.335,0,0,1,2.338,2.338Z" transform="translate(-42 -14)" fill="#f0d0b4"/>
            <path id="Trazado_875772_-_Contorno" data-name="Trazado 875772 - Contorno" d="M46.334,11.5A4.77,4.77,0,0,1,51.1,16.205a4.846,4.846,0,0,1,4.31,4.81v4.677a4.844,4.844,0,0,1-4.838,4.838H47.152a11.789,11.789,0,0,1-6.534-1.976L39.5,27.813V18.421l1.66-1.66A4.732,4.732,0,0,0,42.4,14.569,4.046,4.046,0,0,1,46.334,11.5Zm4.079,9.677H45.29l.319-1.938A9.635,9.635,0,0,1,44.7,20.3l-.2.2v4.5a6.775,6.775,0,0,0,2.652.54h3.26Z" transform="translate(-42 -14)" fill="#fff"/>
          </g>
        </g>
        <g id="Grupo_1100318" data-name="Grupo 1100318" transform="translate(1 1)">
          <path id="Trazado_875773" data-name="Trazado 875773" d="M22.589,11.988v-.122a4.966,4.966,0,0,0-1.465-3.535,4.543,4.543,0,0,0-6.33-.092,4.543,4.543,0,0,0-6.33.092A4.966,4.966,0,0,0,7,11.865v.122a5.3,5.3,0,0,0,1.776,3.956l6.018,5.35,6.017-5.349a5.3,5.3,0,0,0,1.777-3.957Zm-7.795,7.22L9.812,14.779a3.736,3.736,0,0,1-1.253-2.791v-.122A3.417,3.417,0,0,1,9.567,9.433a2.984,2.984,0,0,1,4.22,0l1.008,1.008L15.8,9.433a3.058,3.058,0,0,1,4.22,0,3.417,3.417,0,0,1,1.008,2.433v.122a3.737,3.737,0,0,1-1.253,2.791Z" transform="translate(-2.323 -2.323)"/>
          <path id="Trazado_875773_-_Contorno" data-name="Trazado 875773 - Contorno" d="M11.677,4.5a7.026,7.026,0,0,1,3.118.725,7.051,7.051,0,0,1,8.1,1.338,7.449,7.449,0,0,1,2.2,5.3v.122a7.8,7.8,0,0,1-2.617,5.826l-7.678,6.825L7.115,17.812A7.8,7.8,0,0,1,4.5,11.988v-.122a7.45,7.45,0,0,1,2.2-5.3A6.993,6.993,0,0,1,11.677,4.5Zm3.118,9.476L12.019,11.2a.484.484,0,0,0-.684,0,.922.922,0,0,0-.276.665v.122a1.234,1.234,0,0,0,.414.922l3.322,2.953,3.321-2.952a1.235,1.235,0,0,0,.414-.923v-.122a.922.922,0,0,0-.276-.665.576.576,0,0,0-.685,0Z" transform="translate(-2.323 -2.323)" fill="#fff"/>
          <path id="Trazado_875774" data-name="Trazado 875774" d="M46.988,7.236H25.943v-3.9A2.341,2.341,0,0,0,23.6,1H3.338A2.341,2.341,0,0,0,1,3.338V20.486a2.341,2.341,0,0,0,2.338,2.338h6.65l1.3,1.559H4.9a2.341,2.341,0,0,0-2.338,2.338V42.311A2.341,2.341,0,0,0,4.9,44.649h8.209l3.345,4.014a1.841,1.841,0,0,0,3.255-1.179V44.649h8.574a2.341,2.341,0,0,0,2.338-2.338V29.06h1.559V31.9a1.841,1.841,0,0,0,3.255,1.179l3.345-4.014h8.209a2.341,2.341,0,0,0,2.338-2.338V9.574a2.341,2.341,0,0,0-2.338-2.338Zm-36.27,14.03H3.338a.78.78,0,0,1-.779-.779V3.338a.78.78,0,0,1,.779-.779H23.6a.78.78,0,0,1,.779.779V20.486a.78.78,0,0,1-.779.779H15.03V25.66a.292.292,0,0,1-.5.18Zm10.548,1.559v1.559H16.589V22.825ZM29.06,42.311a.78.78,0,0,1-.779.779H18.148v4.395a.292.292,0,0,1-.5.18l-3.813-4.575H4.9a.78.78,0,0,1-.779-.779V26.722a.78.78,0,0,1,.779-.779h7.689l.747.9a1.835,1.835,0,0,0,3.226-.9h4.706v.779A2.341,2.341,0,0,0,23.6,29.06H29.06ZM47.767,26.722a.78.78,0,0,1-.779.779H38.049l-3.813,4.575a.292.292,0,0,1-.5-.18V27.5H23.6a.78.78,0,0,1-.779-.779v-3.9H23.6a2.341,2.341,0,0,0,2.338-2.338V8.795H46.988a.78.78,0,0,1,.779.779Z" transform="translate(-1 -1)"/>
          <path id="Trazado_875774_-_Contorno" data-name="Trazado 875774 - Contorno" d="M3.338-1.5H23.6a4.844,4.844,0,0,1,4.838,4.838v1.4H46.988a4.844,4.844,0,0,1,4.838,4.838V26.722a4.844,4.844,0,0,1-4.838,4.838H39.949l-2.6,3.115a4.344,4.344,0,0,1-4.234,1.468v6.168a4.844,4.844,0,0,1-4.838,4.838H22.207v.336a4.341,4.341,0,0,1-7.676,2.779l-2.6-3.115H4.9A4.844,4.844,0,0,1,.059,42.311V26.722A4.808,4.808,0,0,1,.61,24.48,4.837,4.837,0,0,1-1.5,20.486V3.338A4.844,4.844,0,0,1,3.338-1.5ZM21.884,5.059H5.059V18.766h6.83l.641.769v-.769h9.353Zm23.384,6.236H28.443v9.192A4.846,4.846,0,0,1,25.344,25H36.237v.769L36.878,25h8.389ZM11.416,28.443h-4.8V40.591h8.389l.641.769v-.769H26.56V31.56H23.6a4.847,4.847,0,0,1-4.522-3.118H18.073a4.333,4.333,0,0,1-6.657,0Z" transform="translate(-1 -1)" fill="#fff"/>
          <path id="Trazado_875775" data-name="Trazado 875775" d="M21.03,41.677a3.087,3.087,0,0,0,.288,1.292,5.143,5.143,0,0,0-1.115-.754,3.118,3.118,0,1,0-4.583,0,5.143,5.143,0,0,0-1.115.754,3.087,3.087,0,0,0,.288-1.292,3.118,3.118,0,1,0-5.373,2.141A4.679,4.679,0,0,0,7,47.912v1.559H8.559V47.912a3.111,3.111,0,0,1,4.508-2.787,5.185,5.185,0,0,0-.257,1.118l-.349,3.141,1.549.172.349-3.141a3.575,3.575,0,0,1,7.107,0l.349,3.141,1.549-.172-.349-3.141a5.139,5.139,0,0,0-.257-1.118,3.111,3.111,0,0,1,4.508,2.787v1.559h1.559V47.912A4.679,4.679,0,0,0,26.4,43.818a3.114,3.114,0,1,0-5.373-2.141Zm-9.353,1.559a1.559,1.559,0,1,1,1.559-1.559A1.56,1.56,0,0,1,11.677,43.236Zm6.236-1.559a1.559,1.559,0,1,1,1.559-1.559A1.56,1.56,0,0,1,17.912,41.677Zm7.795,0a1.559,1.559,0,1,1-1.559-1.559A1.56,1.56,0,0,1,25.707,41.677Z" transform="translate(-2.323 -8.94)"/>
          <path id="Trazado_875775_-_Contorno" data-name="Trazado 875775 - Contorno" d="M17.912,34.5a5.606,5.606,0,0,1,4.233,1.928,5.616,5.616,0,0,1,7.41,6.77,7.172,7.172,0,0,1,1.77,4.714v4.059H24.766v-.227l-5.159.574-.625-5.626a1.075,1.075,0,0,0-2.138,0l-.625,5.626-5.159-.574v.227H4.5V47.912A7.172,7.172,0,0,1,6.27,43.2a5.618,5.618,0,0,1,7.41-6.77A5.606,5.606,0,0,1,17.912,34.5Zm.251,6.241.2-.215a.6.6,0,0,0,.17-.408.618.618,0,0,0-1.236,0,.6.6,0,0,0,.17.408l.2.215C17.828,40.734,18,40.734,18.164,40.741ZM12.5,42.126l-.27-.2a.6.6,0,0,0,.061-.25.618.618,0,1,0-1.236,0,.607.607,0,0,0,.175.419l.194.2a5.665,5.665,0,0,1,.921.035A.947.947,0,0,0,12.5,42.126ZM24.4,42.3l.194-.2a.607.607,0,0,0,.175-.419.618.618,0,1,0-1.236,0,.6.6,0,0,0,.061.25l-.27.2a.947.947,0,0,0,.154.208A5.667,5.667,0,0,1,24.4,42.3Z" transform="translate(-2.323 -8.94)" fill="#fff"/>
          <path id="Trazado_875776" data-name="Trazado 875776" d="M49.03,17.677H47.612l.188-1.126A3.05,3.05,0,0,0,44.792,13a2.336,2.336,0,0,0-2.269,1.771,6.43,6.43,0,0,1-1.691,2.987l-.23.23a1.547,1.547,0,0,0-.925-.311H36.559A1.56,1.56,0,0,0,35,19.236V27.03a1.56,1.56,0,0,0,1.559,1.559h3.118a1.556,1.556,0,0,0,1.466-1.049A10.02,10.02,0,0,0,45.6,28.589H49.03a3.121,3.121,0,0,0,3.118-3.118V20.795a3.121,3.121,0,0,0-3.118-3.118ZM36.559,27.03V19.236h3.118V27.03Zm14.03-1.559A1.56,1.56,0,0,1,49.03,27.03H45.6a8.469,8.469,0,0,1-4.369-1.214V19.558l.7-.7a7.99,7.99,0,0,0,2.1-3.711.778.778,0,0,1,.756-.59,1.491,1.491,0,0,1,1.47,1.737l-.489,2.94H49.03a1.56,1.56,0,0,1,1.559,1.559Z" transform="translate(-8.499 -3.647)"/>
          <path id="Trazado_875776_-_Contorno" data-name="Trazado 875776 - Contorno" d="M44.792,10.5a5.552,5.552,0,0,1,5.5,4.82,5.628,5.628,0,0,1,4.355,5.475v4.677a5.624,5.624,0,0,1-5.618,5.618H45.6a12.415,12.415,0,0,1-3.819-.6,4.034,4.034,0,0,1-2.109.6H36.559A4.064,4.064,0,0,1,32.5,27.03V19.236a4.064,4.064,0,0,1,4.059-4.059h3.129a3.923,3.923,0,0,0,.409-1.011A4.833,4.833,0,0,1,44.792,10.5Zm3.3,11.236H43.736v2.493a5.959,5.959,0,0,0,1.869.3h2.485Z" transform="translate(-8.499 -3.647)" fill="#fff"/>
        </g>
      </g>
      <g id="_--2" data-name="-" transform="translate(1195.888 7994.837)">
        <g id="Grupo_1100317-2" data-name="Grupo 1100317" transform="translate(1.779 1.779)">
          <g id="Grupo_1100305-2" data-name="Grupo 1100305" transform="translate(1.559 23.384)">
            <path id="Trazado_875764-2" data-name="Trazado 875764" d="M19.589,50.707v3.617A1.063,1.063,0,0,1,17.711,55l-3.578-4.295H5.559A1.563,1.563,0,0,1,4,49.148V33.559A1.563,1.563,0,0,1,5.559,32h8.052l.982,1.177a1.063,1.063,0,0,0,1.878-.678V32h6.236v1.559a1.563,1.563,0,0,0,1.559,1.559H30.5v14.03a1.563,1.563,0,0,1-1.559,1.559Z" transform="translate(-4 -32)" fill="#e6e9ed"/>
          </g>
          <g id="Grupo_1100306-2" data-name="Grupo 1100306" transform="translate(20.266 6.236)">
            <path id="Trazado_875765-2" data-name="Trazado 875765" d="M29.559,24.03a1.563,1.563,0,0,0,1.559-1.559V10H52.943A1.563,1.563,0,0,1,54.5,11.559V28.707a1.563,1.563,0,0,1-1.559,1.559H44.369l-3.578,4.295a1.063,1.063,0,0,1-1.878-.678V30.266H29.559A1.563,1.563,0,0,1,28,28.707V24.03Z" transform="translate(-28 -10)" fill="#ffeaa7"/>
          </g>
          <g id="Grupo_1100307-2" data-name="Grupo 1100307" transform="translate(0)">
            <path id="Trazado_875766-2" data-name="Trazado 875766" d="M25.384,8.236V20.707a1.563,1.563,0,0,1-1.559,1.559H16.03v3.617a1.063,1.063,0,0,1-1.878.678l-.982-1.177-2.6-3.118H3.559A1.563,1.563,0,0,1,2,20.707V3.559A1.563,1.563,0,0,1,3.559,2H23.825a1.563,1.563,0,0,1,1.559,1.559Z" transform="translate(-2 -2)" fill="#f0d0b4"/>
          </g>
          <g id="Grupo_1100308-2" data-name="Grupo 1100308" transform="translate(4.677 34.296)">
            <path id="Trazado_875767-2" data-name="Trazado 875767" d="M14.259,46.8a4.314,4.314,0,0,0-.452,1.512l-.351,3.141H8V49.9A3.9,3.9,0,0,1,11.9,46a3.84,3.84,0,0,1,2.362.8Z" transform="translate(-8 -46)" fill="#b4dd7f"/>
          </g>
          <g id="Grupo_1100309-2" data-name="Grupo 1100309" transform="translate(18.684 34.296)">
            <path id="Trazado_875768-2" data-name="Trazado 875768" d="M32.229,49.9v1.559H26.773l-.351-3.141A4.314,4.314,0,0,0,25.97,46.8a3.841,3.841,0,0,1,2.362-.8,3.885,3.885,0,0,1,3.9,3.9Z" transform="translate(-25.97 -46)" fill="#b4dd7f"/>
          </g>
          <g id="Grupo_1100310-2" data-name="Grupo 1100310" transform="translate(10.133 32.737)">
            <path id="Trazado_875769-2" data-name="Trazado 875769" d="M24,47.874l.351,3.141H15l.351-3.141A4.34,4.34,0,0,1,19.677,44a4.385,4.385,0,0,1,2.907,1.107,4.617,4.617,0,0,1,.967,1.255A4.314,4.314,0,0,1,24,47.874Z" transform="translate(-15 -44)" fill="#fcd770"/>
          </g>
          <g id="Grupo_1100311-2" data-name="Grupo 1100311" transform="translate(18.707 29.619)">
            <circle id="Elipse_11532-2" data-name="Elipse 11532" cx="2.5" cy="2.5" r="2.5" transform="translate(-0.323 -0.236)" fill="#f0d0b4"/>
          </g>
          <g id="Grupo_1100312-2" data-name="Grupo 1100312" transform="translate(12.471 28.06)">
            <ellipse id="Elipse_11533-2" data-name="Elipse 11533" cx="2.5" cy="2" rx="2.5" ry="2" transform="translate(-0.088 0.323)" fill="#f0d0b4"/>
          </g>
          <g id="Grupo_1100313-2" data-name="Grupo 1100313" transform="translate(6.236 29.619)">
            <circle id="Elipse_11534-2" data-name="Elipse 11534" cx="2.5" cy="2.5" r="2.5" transform="translate(0.148 -0.236)" fill="#f0d0b4"/>
          </g>
          <g id="Grupo_1100314-2" data-name="Grupo 1100314" transform="translate(4.677 4.677)">
            <path id="Trazado_875770-2" data-name="Trazado 875770" d="M22.03,12.084v.125a4.538,4.538,0,0,1-1.512,3.375l-5.5,4.887-5.5-4.887A4.538,4.538,0,0,1,8,12.209v-.125A4.225,4.225,0,0,1,9.239,9.1a3.764,3.764,0,0,1,5.316,0l.46.46.46-.46a3.764,3.764,0,0,1,5.316,0A4.225,4.225,0,0,1,22.03,12.084Z" transform="translate(-8 -8)" fill="#ff826e"/>
          </g>
          <g id="Grupo_1100315-2" data-name="Grupo 1100315" transform="translate(26.501 14.03)">
            <path id="Trazado_875771-2" data-name="Trazado 875771" d="M40.677,27.795v.779a.782.782,0,0,1-.779.779H36.779A.782.782,0,0,1,36,28.574V20.779A.782.782,0,0,1,36.779,20H39.9a.782.782,0,0,1,.779.779Z" transform="translate(-36 -20)" fill="#b4dd7f"/>
          </g>
          <g id="Grupo_1100316-2" data-name="Grupo 1100316" transform="translate(31.178 9.353)">
            <path id="Trazado_875772-2" data-name="Trazado 875772" d="M52.912,21.015v4.677a2.335,2.335,0,0,1-2.338,2.338H47.152A9.309,9.309,0,0,1,42,26.471V19.456l.928-.928a7.238,7.238,0,0,0,1.894-3.352A1.552,1.552,0,0,1,46.334,14a2.268,2.268,0,0,1,2.237,2.642l-.335,2.034h2.338a2.335,2.335,0,0,1,2.338,2.338Z" transform="translate(-42 -14)" fill="#f0d0b4"/>
          </g>
        </g>
        <g id="Grupo_1100318-2" data-name="Grupo 1100318" transform="translate(1 1)">
          <path id="Trazado_875773-2" data-name="Trazado 875773" d="M22.589,11.988v-.122a4.966,4.966,0,0,0-1.465-3.535,4.543,4.543,0,0,0-6.33-.092,4.543,4.543,0,0,0-6.33.092A4.966,4.966,0,0,0,7,11.865v.122a5.3,5.3,0,0,0,1.776,3.956l6.018,5.35,6.017-5.349a5.3,5.3,0,0,0,1.777-3.957Zm-7.795,7.22L9.812,14.779a3.736,3.736,0,0,1-1.253-2.791v-.122A3.417,3.417,0,0,1,9.567,9.433a2.984,2.984,0,0,1,4.22,0l1.008,1.008L15.8,9.433a3.058,3.058,0,0,1,4.22,0,3.417,3.417,0,0,1,1.008,2.433v.122a3.737,3.737,0,0,1-1.253,2.791Z" transform="translate(-2.323 -2.323)"/>
          <path id="Trazado_875774-2" data-name="Trazado 875774" d="M46.988,7.236H25.943v-3.9A2.341,2.341,0,0,0,23.6,1H3.338A2.341,2.341,0,0,0,1,3.338V20.486a2.341,2.341,0,0,0,2.338,2.338h6.65l1.3,1.559H4.9a2.341,2.341,0,0,0-2.338,2.338V42.311A2.341,2.341,0,0,0,4.9,44.649h8.209l3.345,4.014a1.841,1.841,0,0,0,3.255-1.179V44.649h8.574a2.341,2.341,0,0,0,2.338-2.338V29.06h1.559V31.9a1.841,1.841,0,0,0,3.255,1.179l3.345-4.014h8.209a2.341,2.341,0,0,0,2.338-2.338V9.574a2.341,2.341,0,0,0-2.338-2.338Zm-36.27,14.03H3.338a.78.78,0,0,1-.779-.779V3.338a.78.78,0,0,1,.779-.779H23.6a.78.78,0,0,1,.779.779V20.486a.78.78,0,0,1-.779.779H15.03V25.66a.292.292,0,0,1-.5.18Zm10.548,1.559v1.559H16.589V22.825ZM29.06,42.311a.78.78,0,0,1-.779.779H18.148v4.395a.292.292,0,0,1-.5.18l-3.813-4.575H4.9a.78.78,0,0,1-.779-.779V26.722a.78.78,0,0,1,.779-.779h7.689l.747.9a1.835,1.835,0,0,0,3.226-.9h4.706v.779A2.341,2.341,0,0,0,23.6,29.06H29.06ZM47.767,26.722a.78.78,0,0,1-.779.779H38.049l-3.813,4.575a.292.292,0,0,1-.5-.18V27.5H23.6a.78.78,0,0,1-.779-.779v-3.9H23.6a2.341,2.341,0,0,0,2.338-2.338V8.795H46.988a.78.78,0,0,1,.779.779Z" transform="translate(-1 -1)"/>
          <path id="Trazado_875775-2" data-name="Trazado 875775" d="M21.03,41.677a3.087,3.087,0,0,0,.288,1.292,5.143,5.143,0,0,0-1.115-.754,3.118,3.118,0,1,0-4.583,0,5.143,5.143,0,0,0-1.115.754,3.087,3.087,0,0,0,.288-1.292,3.118,3.118,0,1,0-5.373,2.141A4.679,4.679,0,0,0,7,47.912v1.559H8.559V47.912a3.111,3.111,0,0,1,4.508-2.787,5.185,5.185,0,0,0-.257,1.118l-.349,3.141,1.549.172.349-3.141a3.575,3.575,0,0,1,7.107,0l.349,3.141,1.549-.172-.349-3.141a5.139,5.139,0,0,0-.257-1.118,3.111,3.111,0,0,1,4.508,2.787v1.559h1.559V47.912A4.679,4.679,0,0,0,26.4,43.818a3.114,3.114,0,1,0-5.373-2.141Zm-9.353,1.559a1.559,1.559,0,1,1,1.559-1.559A1.56,1.56,0,0,1,11.677,43.236Zm6.236-1.559a1.559,1.559,0,1,1,1.559-1.559A1.56,1.56,0,0,1,17.912,41.677Zm7.795,0a1.559,1.559,0,1,1-1.559-1.559A1.56,1.56,0,0,1,25.707,41.677Z" transform="translate(-2.323 -8.94)"/>
          <path id="Trazado_875776-2" data-name="Trazado 875776" d="M49.03,17.677H47.612l.188-1.126A3.05,3.05,0,0,0,44.792,13a2.336,2.336,0,0,0-2.269,1.771,6.43,6.43,0,0,1-1.691,2.987l-.23.23a1.547,1.547,0,0,0-.925-.311H36.559A1.56,1.56,0,0,0,35,19.236V27.03a1.56,1.56,0,0,0,1.559,1.559h3.118a1.556,1.556,0,0,0,1.466-1.049A10.02,10.02,0,0,0,45.6,28.589H49.03a3.121,3.121,0,0,0,3.118-3.118V20.795a3.121,3.121,0,0,0-3.118-3.118ZM36.559,27.03V19.236h3.118V27.03Zm14.03-1.559A1.56,1.56,0,0,1,49.03,27.03H45.6a8.469,8.469,0,0,1-4.369-1.214V19.558l.7-.7a7.99,7.99,0,0,0,2.1-3.711.778.778,0,0,1,.756-.59,1.491,1.491,0,0,1,1.47,1.737l-.489,2.94H49.03a1.56,1.56,0,0,1,1.559,1.559Z" transform="translate(-8.499 -3.647)"/>
        </g>
      </g>
    </g>
  </g>
</svg>
