<svg xmlns="http://www.w3.org/2000/svg" xmlns:xlink="http://www.w3.org/1999/xlink" width="420" height="328" viewBox="0 0 420 328">
  <defs>
    <clipPath id="clip-path">
      <rect id="Rectángulo_401454" data-name="Rectángulo 401454" width="420" height="328" transform="translate(285.051 1862)" fill="#faf4ff"/>
    </clipPath>
    <clipPath id="clip-path-2">
      <rect id="Rectángulo_401208" data-name="Rectángulo 401208" width="197.501" height="289.219" fill="#eed7fe"/>
    </clipPath>
    <clipPath id="clip-path-5">
      <rect id="Rectángulo_401490" data-name="Rectángulo 401490" width="344.736" height="319.239" fill="none"/>
    </clipPath>
    <clipPath id="clip-path-7">
      <rect id="Rectángulo_401473" data-name="Rectángulo 401473" width="300.439" height="282.82" fill="none"/>
    </clipPath>
    <clipPath id="clip-path-8">
      <rect id="Rectángulo_401474" data-name="Rectángulo 401474" width="5.031" height="4.616" fill="none"/>
    </clipPath>
    <clipPath id="clip-path-9">
      <rect id="Rectángulo_401475" data-name="Rectángulo 401475" width="4.96" height="4.723" fill="none"/>
    </clipPath>
    <clipPath id="clip-path-10">
      <path id="Trazado_874568" data-name="Trazado 874568" d="M199.623,179.643a2.542,2.542,0,0,1,4.125,1.809,3.843,3.843,0,0,1-.111,1.506,6.848,6.848,0,0,1,.913,3.086,6.362,6.362,0,1,1-8.484-5.748,8.993,8.993,0,0,1,3.044-.373c.171-.093.349-.175.513-.281m-2.882-2.074a8.817,8.817,0,1,0,1.467-.123,8.844,8.844,0,0,0-1.467.123" transform="translate(-189.369 -177.446)" fill="none"/>
    </clipPath>
    <linearGradient id="linear-gradient" x1="-7.475" y1="7.764" x2="-7.435" y2="7.764" gradientUnits="objectBoundingBox">
      <stop offset="0" stop-color="#2e365e"/>
      <stop offset="1" stop-color="#2e363d"/>
    </linearGradient>
    <clipPath id="clip-path-12">
      <rect id="Rectángulo_401479" data-name="Rectángulo 401479" width="41.808" height="36.284" fill="none"/>
    </clipPath>
    <clipPath id="clip-path-13">
      <rect id="Rectángulo_401480" data-name="Rectángulo 401480" width="11.791" height="12.108" fill="none"/>
    </clipPath>
    <clipPath id="clip-path-14">
      <rect id="Rectángulo_401481" data-name="Rectángulo 401481" width="19.074" height="19.587" fill="none"/>
    </clipPath>
    <clipPath id="clip-path-15">
      <rect id="Rectángulo_401482" data-name="Rectángulo 401482" width="25.407" height="26.09" fill="none"/>
    </clipPath>
    <clipPath id="clip-path-16">
      <rect id="Rectángulo_401483" data-name="Rectángulo 401483" width="41.727" height="36.213" fill="none"/>
    </clipPath>
    <clipPath id="clip-path-17">
      <rect id="Rectángulo_401484" data-name="Rectángulo 401484" width="21.004" height="18.229" fill="none"/>
    </clipPath>
    <clipPath id="clip-path-18">
      <rect id="Rectángulo_401485" data-name="Rectángulo 401485" width="10.007" height="8.684" fill="none"/>
    </clipPath>
    <clipPath id="clip-path-19">
      <rect id="Rectángulo_401486" data-name="Rectángulo 401486" width="10.006" height="8.684" fill="none"/>
    </clipPath>
    <clipPath id="clip-path-20">
      <rect id="Rectángulo_401487" data-name="Rectángulo 401487" width="21.18" height="21.75" fill="none"/>
    </clipPath>
    <clipPath id="clip-path-21">
      <rect id="Rectángulo_401488" data-name="Rectángulo 401488" width="12.703" height="13.045" fill="none"/>
    </clipPath>
  </defs>
  <g id="Grupo_1098700" data-name="Grupo 1098700" transform="translate(-285.051 -1862)" clip-path="url(#clip-path)">
    <g id="Grupo_1099856" data-name="Grupo 1099856" transform="translate(305.699 1889.5)">
      <g id="Grupo_1099075" data-name="Grupo 1099075" transform="translate(192.214)">
        <g id="Grupo_1099075-2" data-name="Grupo 1099075" clip-path="url(#clip-path-2)">
          <path id="Trazado_873148" data-name="Trazado 873148" d="M11.348,283.667a51.535,51.535,0,0,1-1.208-8.642q-.051-.947-.066-1.9c-.006-.379,0-.759-.006-1.138,0-.246-.061-.931,0,.148a28.369,28.369,0,0,1,.316-4.544,60.7,60.7,0,0,1,1.569-8.208c.318-1.249-.32.989.067-.242.076-.242.148-.485.225-.727q.344-1.089.735-2.163.714-1.968,1.58-3.88t1.874-3.749c.124-.226,1.154-1.977.488-.887.4-.651.8-1.3,1.228-1.931a51.771,51.771,0,0,1,5.471-6.872q.677-.714,1.38-1.4c-.89.873.625-.565.816-.738q1.78-1.609,3.68-3.086c2.33-1.817,4.77-3.494,7.27-5.076q3.786-2.4,7.726-4.556c-1.151.632.067-.034.253-.137l.9-.493q.989-.541,1.982-1.077,1.984-1.072,3.971-2.139c5.622-3.031,11.263-6.079,16.557-9.643,9.888-6.656,18.007-15.37,22.369-26.45,3.923-9.968,5.133-20.659,6.418-31.19.641-5.261,1.31-10.527,2.392-15.721q.356-1.706.775-3.4c.167-.673.35-1.343.53-2.013.07-.262.165-.89-.067.224.093-.444.266-.889.4-1.322a56.209,56.209,0,0,1,2.746-7.061c.543-1.149,1.144-2.265,1.762-3.376.428-.77-.066.079-.124.195a10.307,10.307,0,0,1,.554-.891q.672-1.052,1.4-2.067c.883-1.23,1.829-2.416,2.823-3.56q.675-.778,1.381-1.53.423-.452.856-.894c.1-.1,1.179-1.163.706-.71-.557.532.429-.4.432-.4q.453-.424.915-.84.771-.694,1.561-1.368,1.905-1.626,3.9-3.145c2.459-1.882,5-3.664,7.559-5.411,5.158-3.516,10.423-6.888,15.415-10.635a92.758,92.758,0,0,0,13.651-12.5,90.252,90.252,0,0,0,22.4-63.87,79.677,79.677,0,0,0-.853-8.221,5.122,5.122,0,0,0-5.6-4.376C169.839.463,167.574,2.8,168,5.548a79.544,79.544,0,0,1,.872,8.6q.086,1.875.084,3.753c0,.375,0,.751-.009,1.126.042-1.292-.006-.01-.013.213q-.037,1.126-.107,2.25a84.139,84.139,0,0,1-2.638,16.3c-.1.364-.2.726-.3,1.09-.319,1.191.216-.7-.01.045-.2.66-.4,1.322-.609,1.979q-.634,1.972-1.362,3.914a86.394,86.394,0,0,1-3.446,7.956q-.835,1.69-1.745,3.345-.5.91-1.022,1.807c-.142.245-.583,1.02-.018.042-.252.435-.524.86-.791,1.287q-2.206,3.518-4.752,6.815a82.508,82.508,0,0,1-5.413,6.317q-.717.756-1.454,1.493c-.206.207-.841.847-.014.024-.268.267-.547.526-.823.786q-1.52,1.431-3.115,2.783a169.712,169.712,0,0,1-15.413,11.189c-10.4,6.973-21.308,14.275-28.086,24.982-11.82,18.672-9.36,41.253-14.946,61.779-.315,1.157.321-1.041-.033.1-.067.22-.134.44-.2.659q-.308.984-.648,1.96-.623,1.783-1.363,3.524t-1.617,3.421q-.4.767-.827,1.518c-.148.261-.556,1.276-.05.1a7.6,7.6,0,0,1-.652,1.034,46.625,46.625,0,0,1-5.477,6.868q-.27.282-.546.559c-.156.158-1.014,1.132-.185.189a16.406,16.406,0,0,1-1.439,1.326c-1.172,1.044-2.387,2.041-3.633,3-2.311,1.776-4.73,3.411-7.2,4.957q-1.881,1.175-3.8,2.286-.876.51-1.758,1.01-.531.3-1.063.6c-1.2.677.969-.53-.244.135-5.658,3.108-11.393,6.08-16.974,9.322C24.81,224,15.183,231.387,8.924,241.648A59.979,59.979,0,0,0,.107,276.522a51.534,51.534,0,0,0,1.186,8.263c.571,2.526,2.7,4.828,5.6,4.377,2.471-.386,5.071-2.783,4.458-5.5" transform="translate(0 0)" fill="#eed7fe"/>
          <path id="Trazado_873149" data-name="Trazado 873149" d="M50.994,316.154a18.948,18.948,0,0,1-.1-2.143q-.011.645-.023,1.288a17.732,17.732,0,0,1,.194-2.284q.086-.56.209-1.114c.1-.452.563-1.759-.016-.07a25.146,25.146,0,0,1,1.8-4.184c.1-.187.461-.785-.01,0s-.111.185,0,0q.341-.543.708-1.071c.455-.655.937-1.291,1.44-1.91a42.73,42.73,0,0,1,3.339-3.621l-.931.906a89.9,89.9,0,0,1,10.937-8.746c5.22-3.669,10.392-7.39,15.448-11.274a354.206,354.206,0,0,0,29.3-24.956c8.673-8.307,16.648-17.548,20.034-29.209a98.5,98.5,0,0,0,3.072-17.237,149.38,149.38,0,0,1,2.274-16.469q.2-.9.426-1.8.127-.5.263-1c.046-.167.092-.333.138-.5.183-.661-.15.375-.137.475a3.572,3.572,0,0,1,.3-.992q.137-.433.279-.864.327-.985.686-1.959a61.813,61.813,0,0,1,3.217-7.232q.422-.806.867-1.6.255-.454.517-.9a2.807,2.807,0,0,1,.264-.449c-.082.088-.608,1-.252.426.708-1.144,1.439-2.272,2.214-3.374a63.522,63.522,0,0,1,4.969-6.206q1.317-1.449,2.725-2.815l-.931.906a63.242,63.242,0,0,1,8.09-6.627,4.948,4.948,0,0,0,.96-6.961,5.233,5.233,0,0,0-7.091-.943,67.273,67.273,0,0,0-25.933,35.069c-2.26,7.359-3.061,14.886-3.87,22.5-.388,3.646-.816,7.291-1.52,10.893q-.258,1.324-.571,2.638-.157.656-.328,1.308-.07.26-.141.521c-.25.932.32-1.045.056-.185a47.272,47.272,0,0,1-1.97,5.365q-.616,1.389-1.329,2.733-.387.732-.8,1.45c-.092.159-.188.317-.278.477.72-1.291.27-.45.084-.15a58.953,58.953,0,0,1-3.654,5.219,95.72,95.72,0,0,1-8.682,9.523l.931-.906a346.57,346.57,0,0,1-33.125,28.075c-5.27,3.973-10.753,7.657-16.049,11.594A62.34,62.34,0,0,0,46.726,299.18c-4.042,5.212-6.472,11.479-5.788,18.092a5.059,5.059,0,0,0,10.055-1.118" transform="translate(-13.289 -50.906)" fill="#eed7fe"/>
          <path id="Trazado_873150" data-name="Trazado 873150" d="M238.575,97.251a135.883,135.883,0,0,0,11.2-12.928c3.383-4.361,6.706-8.788,9.844-13.323,6.3-9.1,11.868-19.293,12.516-30.5.366-6.323-.536-12.824-3.629-18.461a5.453,5.453,0,0,0-2.708-2.717,5.228,5.228,0,0,0-3.871-.041,5.066,5.066,0,0,0-2.767,2.658,4.719,4.719,0,0,0-.042,3.8,27.053,27.053,0,0,1,2.421,6.088q-.167-.646-.333-1.291a32.043,32.043,0,0,1,.95,8.414l.023-1.288a38.5,38.5,0,0,1-.62,6.061q-.251,1.367-.594,2.715c-.068.269-.142.537-.213.806-.205.779.109-.362.124-.422-.129.534-.326,1.061-.5,1.583a52.674,52.674,0,0,1-2.411,5.865c-.878,1.833-1.984,3.548-2.881,5.365.706-1.43-.115.183-.326.522q-.423.68-.857,1.355-.869,1.35-1.777,2.676c-1.154,1.69-2.347,3.354-3.556,5.007-2.591,3.541-5.216,7.062-7.935,10.509A129.554,129.554,0,0,1,230.581,91.16a4.907,4.907,0,0,0-1.031,3.6,5.055,5.055,0,0,0,1.926,3.365,5.177,5.177,0,0,0,3.672,1.012,5.9,5.9,0,0,0,3.427-1.89" transform="translate(-74.714 -6.395)" fill="#eed7fe"/>
          <path id="Trazado_873151" data-name="Trazado 873151" d="M94.456,339.092c.237-.5.483-.986.743-1.47.13-.242.262-.481.4-.72.09-.158.181-.317.275-.473-.123.209-.249.417-.373.627a20.493,20.493,0,0,1,1.922-2.829,43.738,43.738,0,0,1,4.464-5.043l-.931.906A68.433,68.433,0,0,1,115.273,319.8l-1.181.657c5.609-3.113,11.466-5.754,17.216-8.6,3.076-1.52,6.122-3.107,9.088-4.828a36.279,36.279,0,0,0,6.746-4.832,26.633,26.633,0,0,0,6.1-8.236,53.769,53.769,0,0,0,2.877-8.667q2.5-9.172,4.984-18.351,2.85-10.5,5.7-20.989a4.93,4.93,0,0,0-.98-3.738,5.123,5.123,0,0,0-7.091-.942A5.76,5.76,0,0,0,156.8,244.5q-2.981,10.972-5.96,21.943-1.47,5.407-2.938,10.813-.734,2.7-1.468,5.406c-.205.755-.409,1.51-.62,2.263-.051.181-.107.361-.152.542.338-1.335.173-.6.075-.275-.121.405-.246.808-.377,1.21a29.046,29.046,0,0,1-2.046,4.91c-.068.126-.545.942-.09.181.435-.728-.014.007-.119.166q-.39.589-.826,1.149a21.733,21.733,0,0,1-1.891,2.1l.931-.906a39.149,39.149,0,0,1-8.179,5.765l1.18-.656c-7.357,4.086-15.149,7.346-22.556,11.338-7.128,3.841-13.775,8.228-19.325,14.12a42.108,42.108,0,0,0-7.287,10.623,4.973,4.973,0,0,0,2.666,6.517,5.2,5.2,0,0,0,6.64-2.617" transform="translate(-27.584 -81.181)" fill="#eed7fe"/>
          <path id="Trazado_873152" data-name="Trazado 873152" d="M217.637,199.384c.988-2.075,2.069-4.1,3.225-6.09.53-.912-.617,1.008-.065.108.15-.245.3-.491.452-.735q.455-.732.927-1.455.944-1.445,1.951-2.848a79.909,79.909,0,0,1,9.006-10.485l-.931.907.415-.4a5.46,5.46,0,0,0,1.94-3.223,5,5,0,0,0-.979-3.738,5.135,5.135,0,0,0-3.284-1.9,4.939,4.939,0,0,0-3.807.961,86.279,86.279,0,0,0-18.154,25A4.974,4.974,0,0,0,211,202a5.2,5.2,0,0,0,6.639-2.617" transform="translate(-67.683 -57.261)" fill="#eed7fe"/>
        </g>
      </g>
      <g id="Grupo_1099856-2" data-name="Grupo 1099856" transform="translate(93.463)">
        <g id="Grupo_1099075-3" data-name="Grupo 1099075" clip-path="url(#clip-path-2)">
          <path id="Trazado_873148-2" data-name="Trazado 873148" d="M11.348,283.667a51.535,51.535,0,0,1-1.208-8.642q-.051-.947-.066-1.9c-.006-.379,0-.759-.006-1.138,0-.246-.061-.931,0,.148a28.369,28.369,0,0,1,.316-4.544,60.7,60.7,0,0,1,1.569-8.208c.318-1.249-.32.989.067-.242.076-.242.148-.485.225-.727q.344-1.089.735-2.163.714-1.968,1.58-3.88t1.874-3.749c.124-.226,1.154-1.977.488-.887.4-.651.8-1.3,1.228-1.931a51.771,51.771,0,0,1,5.471-6.872q.677-.714,1.38-1.4c-.89.873.625-.565.816-.738q1.78-1.609,3.68-3.086c2.33-1.817,4.77-3.494,7.27-5.076q3.786-2.4,7.726-4.556c-1.151.632.067-.034.253-.137l.9-.493q.989-.541,1.982-1.077,1.984-1.072,3.971-2.139c5.622-3.031,11.263-6.079,16.557-9.643,9.888-6.656,18.007-15.37,22.369-26.45,3.923-9.968,5.133-20.659,6.418-31.19.641-5.261,1.31-10.527,2.392-15.721q.356-1.706.775-3.4c.167-.673.35-1.343.53-2.013.07-.262.165-.89-.067.224.093-.444.266-.889.4-1.322a56.209,56.209,0,0,1,2.746-7.061c.543-1.149,1.144-2.265,1.762-3.376.428-.77-.066.079-.124.195a10.307,10.307,0,0,1,.554-.891q.672-1.052,1.4-2.067c.883-1.23,1.829-2.416,2.823-3.56q.675-.778,1.381-1.53.423-.452.856-.894c.1-.1,1.179-1.163.706-.71-.557.532.429-.4.432-.4q.453-.424.915-.84.771-.694,1.561-1.368,1.905-1.626,3.9-3.145c2.459-1.882,5-3.664,7.559-5.411,5.158-3.516,10.423-6.888,15.415-10.635a92.758,92.758,0,0,0,13.651-12.5,90.252,90.252,0,0,0,22.4-63.87,79.677,79.677,0,0,0-.853-8.221,5.122,5.122,0,0,0-5.6-4.376C169.839.463,167.574,2.8,168,5.548a79.544,79.544,0,0,1,.872,8.6q.086,1.875.084,3.753c0,.375,0,.751-.009,1.126.042-1.292-.006-.01-.013.213q-.037,1.126-.107,2.25a84.139,84.139,0,0,1-2.638,16.3c-.1.364-.2.726-.3,1.09-.319,1.191.216-.7-.01.045-.2.66-.4,1.322-.609,1.979q-.634,1.972-1.362,3.914a86.394,86.394,0,0,1-3.446,7.956q-.835,1.69-1.745,3.345-.5.91-1.022,1.807c-.142.245-.583,1.02-.018.042-.252.435-.524.86-.791,1.287q-2.206,3.518-4.752,6.815a82.508,82.508,0,0,1-5.413,6.317q-.717.756-1.454,1.493c-.206.207-.841.847-.014.024-.268.267-.547.526-.823.786q-1.52,1.431-3.115,2.783a169.712,169.712,0,0,1-15.413,11.189c-10.4,6.973-21.308,14.275-28.086,24.982-11.82,18.672-9.36,41.253-14.946,61.779-.315,1.157.321-1.041-.033.1-.067.22-.134.44-.2.659q-.308.984-.648,1.96-.623,1.783-1.363,3.524t-1.617,3.421q-.4.767-.827,1.518c-.148.261-.556,1.276-.05.1a7.6,7.6,0,0,1-.652,1.034,46.625,46.625,0,0,1-5.477,6.868q-.27.282-.546.559c-.156.158-1.014,1.132-.185.189a16.406,16.406,0,0,1-1.439,1.326c-1.172,1.044-2.387,2.041-3.633,3-2.311,1.776-4.73,3.411-7.2,4.957q-1.881,1.175-3.8,2.286-.876.51-1.758,1.01-.531.3-1.063.6c-1.2.677.969-.53-.244.135-5.658,3.108-11.393,6.08-16.974,9.322C24.81,224,15.183,231.387,8.924,241.648A59.979,59.979,0,0,0,.107,276.522a51.534,51.534,0,0,0,1.186,8.263c.571,2.526,2.7,4.828,5.6,4.377,2.471-.386,5.071-2.783,4.458-5.5" transform="translate(0 0)" fill="#eed7fe"/>
          <path id="Trazado_873149-2" data-name="Trazado 873149" d="M50.994,316.154a18.948,18.948,0,0,1-.1-2.143q-.011.645-.023,1.288a17.732,17.732,0,0,1,.194-2.284q.086-.56.209-1.114c.1-.452.563-1.759-.016-.07a25.146,25.146,0,0,1,1.8-4.184c.1-.187.461-.785-.01,0s-.111.185,0,0q.341-.543.708-1.071c.455-.655.937-1.291,1.44-1.91a42.73,42.73,0,0,1,3.339-3.621l-.931.906a89.9,89.9,0,0,1,10.937-8.746c5.22-3.669,10.392-7.39,15.448-11.274a354.206,354.206,0,0,0,29.3-24.956c8.673-8.307,16.648-17.548,20.034-29.209a98.5,98.5,0,0,0,3.072-17.237,149.38,149.38,0,0,1,2.274-16.469q.2-.9.426-1.8.127-.5.263-1c.046-.167.092-.333.138-.5.183-.661-.15.375-.137.475a3.572,3.572,0,0,1,.3-.992q.137-.433.279-.864.327-.985.686-1.959a61.813,61.813,0,0,1,3.217-7.232q.422-.806.867-1.6.255-.454.517-.9a2.807,2.807,0,0,1,.264-.449c-.082.088-.608,1-.252.426.708-1.144,1.439-2.272,2.214-3.374a63.522,63.522,0,0,1,4.969-6.206q1.317-1.449,2.725-2.815l-.931.906a63.242,63.242,0,0,1,8.09-6.627,4.948,4.948,0,0,0,.96-6.961,5.233,5.233,0,0,0-7.091-.943,67.273,67.273,0,0,0-25.933,35.069c-2.26,7.359-3.061,14.886-3.87,22.5-.388,3.646-.816,7.291-1.52,10.893q-.258,1.324-.571,2.638-.157.656-.328,1.308-.07.26-.141.521c-.25.932.32-1.045.056-.185a47.272,47.272,0,0,1-1.97,5.365q-.616,1.389-1.329,2.733-.387.732-.8,1.45c-.092.159-.188.317-.278.477.72-1.291.27-.45.084-.15a58.953,58.953,0,0,1-3.654,5.219,95.72,95.72,0,0,1-8.682,9.523l.931-.906a346.57,346.57,0,0,1-33.125,28.075c-5.27,3.973-10.753,7.657-16.049,11.594A62.34,62.34,0,0,0,46.726,299.18c-4.042,5.212-6.472,11.479-5.788,18.092a5.059,5.059,0,0,0,10.055-1.118" transform="translate(-13.289 -50.906)" fill="#eed7fe"/>
          <path id="Trazado_873150-2" data-name="Trazado 873150" d="M238.575,97.251a135.883,135.883,0,0,0,11.2-12.928c3.383-4.361,6.706-8.788,9.844-13.323,6.3-9.1,11.868-19.293,12.516-30.5.366-6.323-.536-12.824-3.629-18.461a5.453,5.453,0,0,0-2.708-2.717,5.228,5.228,0,0,0-3.871-.041,5.066,5.066,0,0,0-2.767,2.658,4.719,4.719,0,0,0-.042,3.8,27.053,27.053,0,0,1,2.421,6.088q-.167-.646-.333-1.291a32.043,32.043,0,0,1,.95,8.414l.023-1.288a38.5,38.5,0,0,1-.62,6.061q-.251,1.367-.594,2.715c-.068.269-.142.537-.213.806-.205.779.109-.362.124-.422-.129.534-.326,1.061-.5,1.583a52.674,52.674,0,0,1-2.411,5.865c-.878,1.833-1.984,3.548-2.881,5.365.706-1.43-.115.183-.326.522q-.423.68-.857,1.355-.869,1.35-1.777,2.676c-1.154,1.69-2.347,3.354-3.556,5.007-2.591,3.541-5.216,7.062-7.935,10.509A129.554,129.554,0,0,1,230.581,91.16a4.907,4.907,0,0,0-1.031,3.6,5.055,5.055,0,0,0,1.926,3.365,5.177,5.177,0,0,0,3.672,1.012,5.9,5.9,0,0,0,3.427-1.89" transform="translate(-74.714 -6.395)" fill="#eed7fe"/>
          <path id="Trazado_873151-2" data-name="Trazado 873151" d="M94.456,339.092c.237-.5.483-.986.743-1.47.13-.242.262-.481.4-.72.09-.158.181-.317.275-.473-.123.209-.249.417-.373.627a20.493,20.493,0,0,1,1.922-2.829,43.738,43.738,0,0,1,4.464-5.043l-.931.906A68.433,68.433,0,0,1,115.273,319.8l-1.181.657c5.609-3.113,11.466-5.754,17.216-8.6,3.076-1.52,6.122-3.107,9.088-4.828a36.279,36.279,0,0,0,6.746-4.832,26.633,26.633,0,0,0,6.1-8.236,53.769,53.769,0,0,0,2.877-8.667q2.5-9.172,4.984-18.351,2.85-10.5,5.7-20.989a4.93,4.93,0,0,0-.98-3.738,5.123,5.123,0,0,0-7.091-.942A5.76,5.76,0,0,0,156.8,244.5q-2.981,10.972-5.96,21.943-1.47,5.407-2.938,10.813-.734,2.7-1.468,5.406c-.205.755-.409,1.51-.62,2.263-.051.181-.107.361-.152.542.338-1.335.173-.6.075-.275-.121.405-.246.808-.377,1.21a29.046,29.046,0,0,1-2.046,4.91c-.068.126-.545.942-.09.181.435-.728-.014.007-.119.166q-.39.589-.826,1.149a21.733,21.733,0,0,1-1.891,2.1l.931-.906a39.149,39.149,0,0,1-8.179,5.765l1.18-.656c-7.357,4.086-15.149,7.346-22.556,11.338-7.128,3.841-13.775,8.228-19.325,14.12a42.108,42.108,0,0,0-7.287,10.623,4.973,4.973,0,0,0,2.666,6.517,5.2,5.2,0,0,0,6.64-2.617" transform="translate(-27.584 -81.181)" fill="#eed7fe"/>
          <path id="Trazado_873152-2" data-name="Trazado 873152" d="M217.637,199.384c.988-2.075,2.069-4.1,3.225-6.09.53-.912-.617,1.008-.065.108.15-.245.3-.491.452-.735q.455-.732.927-1.455.944-1.445,1.951-2.848a79.909,79.909,0,0,1,9.006-10.485l-.931.907.415-.4a5.46,5.46,0,0,0,1.94-3.223,5,5,0,0,0-.979-3.738,5.135,5.135,0,0,0-3.284-1.9,4.939,4.939,0,0,0-3.807.961,86.279,86.279,0,0,0-18.154,25A4.974,4.974,0,0,0,211,202a5.2,5.2,0,0,0,6.639-2.617" transform="translate(-67.683 -57.261)" fill="#eed7fe"/>
        </g>
      </g>
      <g id="Grupo_1099857" data-name="Grupo 1099857" transform="translate(0)">
        <g id="Grupo_1099075-4" data-name="Grupo 1099075" clip-path="url(#clip-path-2)">
          <path id="Trazado_873148-3" data-name="Trazado 873148" d="M11.348,283.667a51.535,51.535,0,0,1-1.208-8.642q-.051-.947-.066-1.9c-.006-.379,0-.759-.006-1.138,0-.246-.061-.931,0,.148a28.369,28.369,0,0,1,.316-4.544,60.7,60.7,0,0,1,1.569-8.208c.318-1.249-.32.989.067-.242.076-.242.148-.485.225-.727q.344-1.089.735-2.163.714-1.968,1.58-3.88t1.874-3.749c.124-.226,1.154-1.977.488-.887.4-.651.8-1.3,1.228-1.931a51.771,51.771,0,0,1,5.471-6.872q.677-.714,1.38-1.4c-.89.873.625-.565.816-.738q1.78-1.609,3.68-3.086c2.33-1.817,4.77-3.494,7.27-5.076q3.786-2.4,7.726-4.556c-1.151.632.067-.034.253-.137l.9-.493q.989-.541,1.982-1.077,1.984-1.072,3.971-2.139c5.622-3.031,11.263-6.079,16.557-9.643,9.888-6.656,18.007-15.37,22.369-26.45,3.923-9.968,5.133-20.659,6.418-31.19.641-5.261,1.31-10.527,2.392-15.721q.356-1.706.775-3.4c.167-.673.35-1.343.53-2.013.07-.262.165-.89-.067.224.093-.444.266-.889.4-1.322a56.209,56.209,0,0,1,2.746-7.061c.543-1.149,1.144-2.265,1.762-3.376.428-.77-.066.079-.124.195a10.307,10.307,0,0,1,.554-.891q.672-1.052,1.4-2.067c.883-1.23,1.829-2.416,2.823-3.56q.675-.778,1.381-1.53.423-.452.856-.894c.1-.1,1.179-1.163.706-.71-.557.532.429-.4.432-.4q.453-.424.915-.84.771-.694,1.561-1.368,1.905-1.626,3.9-3.145c2.459-1.882,5-3.664,7.559-5.411,5.158-3.516,10.423-6.888,15.415-10.635a92.758,92.758,0,0,0,13.651-12.5,90.252,90.252,0,0,0,22.4-63.87,79.677,79.677,0,0,0-.853-8.221,5.122,5.122,0,0,0-5.6-4.376C169.839.463,167.574,2.8,168,5.548a79.544,79.544,0,0,1,.872,8.6q.086,1.875.084,3.753c0,.375,0,.751-.009,1.126.042-1.292-.006-.01-.013.213q-.037,1.126-.107,2.25a84.139,84.139,0,0,1-2.638,16.3c-.1.364-.2.726-.3,1.09-.319,1.191.216-.7-.01.045-.2.66-.4,1.322-.609,1.979q-.634,1.972-1.362,3.914a86.394,86.394,0,0,1-3.446,7.956q-.835,1.69-1.745,3.345-.5.91-1.022,1.807c-.142.245-.583,1.02-.018.042-.252.435-.524.86-.791,1.287q-2.206,3.518-4.752,6.815a82.508,82.508,0,0,1-5.413,6.317q-.717.756-1.454,1.493c-.206.207-.841.847-.014.024-.268.267-.547.526-.823.786q-1.52,1.431-3.115,2.783a169.712,169.712,0,0,1-15.413,11.189c-10.4,6.973-21.308,14.275-28.086,24.982-11.82,18.672-9.36,41.253-14.946,61.779-.315,1.157.321-1.041-.033.1-.067.22-.134.44-.2.659q-.308.984-.648,1.96-.623,1.783-1.363,3.524t-1.617,3.421q-.4.767-.827,1.518c-.148.261-.556,1.276-.05.1a7.6,7.6,0,0,1-.652,1.034,46.625,46.625,0,0,1-5.477,6.868q-.27.282-.546.559c-.156.158-1.014,1.132-.185.189a16.406,16.406,0,0,1-1.439,1.326c-1.172,1.044-2.387,2.041-3.633,3-2.311,1.776-4.73,3.411-7.2,4.957q-1.881,1.175-3.8,2.286-.876.51-1.758,1.01-.531.3-1.063.6c-1.2.677.969-.53-.244.135-5.658,3.108-11.393,6.08-16.974,9.322C24.81,224,15.183,231.387,8.924,241.648A59.979,59.979,0,0,0,.107,276.522a51.534,51.534,0,0,0,1.186,8.263c.571,2.526,2.7,4.828,5.6,4.377,2.471-.386,5.071-2.783,4.458-5.5" transform="translate(0 0)" fill="#eed7fe"/>
          <path id="Trazado_873149-3" data-name="Trazado 873149" d="M50.994,316.154a18.948,18.948,0,0,1-.1-2.143q-.011.645-.023,1.288a17.732,17.732,0,0,1,.194-2.284q.086-.56.209-1.114c.1-.452.563-1.759-.016-.07a25.146,25.146,0,0,1,1.8-4.184c.1-.187.461-.785-.01,0s-.111.185,0,0q.341-.543.708-1.071c.455-.655.937-1.291,1.44-1.91a42.73,42.73,0,0,1,3.339-3.621l-.931.906a89.9,89.9,0,0,1,10.937-8.746c5.22-3.669,10.392-7.39,15.448-11.274a354.206,354.206,0,0,0,29.3-24.956c8.673-8.307,16.648-17.548,20.034-29.209a98.5,98.5,0,0,0,3.072-17.237,149.38,149.38,0,0,1,2.274-16.469q.2-.9.426-1.8.127-.5.263-1c.046-.167.092-.333.138-.5.183-.661-.15.375-.137.475a3.572,3.572,0,0,1,.3-.992q.137-.433.279-.864.327-.985.686-1.959a61.813,61.813,0,0,1,3.217-7.232q.422-.806.867-1.6.255-.454.517-.9a2.807,2.807,0,0,1,.264-.449c-.082.088-.608,1-.252.426.708-1.144,1.439-2.272,2.214-3.374a63.522,63.522,0,0,1,4.969-6.206q1.317-1.449,2.725-2.815l-.931.906a63.242,63.242,0,0,1,8.09-6.627,4.948,4.948,0,0,0,.96-6.961,5.233,5.233,0,0,0-7.091-.943,67.273,67.273,0,0,0-25.933,35.069c-2.26,7.359-3.061,14.886-3.87,22.5-.388,3.646-.816,7.291-1.52,10.893q-.258,1.324-.571,2.638-.157.656-.328,1.308-.07.26-.141.521c-.25.932.32-1.045.056-.185a47.272,47.272,0,0,1-1.97,5.365q-.616,1.389-1.329,2.733-.387.732-.8,1.45c-.092.159-.188.317-.278.477.72-1.291.27-.45.084-.15a58.953,58.953,0,0,1-3.654,5.219,95.72,95.72,0,0,1-8.682,9.523l.931-.906a346.57,346.57,0,0,1-33.125,28.075c-5.27,3.973-10.753,7.657-16.049,11.594A62.34,62.34,0,0,0,46.726,299.18c-4.042,5.212-6.472,11.479-5.788,18.092a5.059,5.059,0,0,0,10.055-1.118" transform="translate(-13.289 -50.906)" fill="#eed7fe"/>
          <path id="Trazado_873150-3" data-name="Trazado 873150" d="M238.575,97.251a135.883,135.883,0,0,0,11.2-12.928c3.383-4.361,6.706-8.788,9.844-13.323,6.3-9.1,11.868-19.293,12.516-30.5.366-6.323-.536-12.824-3.629-18.461a5.453,5.453,0,0,0-2.708-2.717,5.228,5.228,0,0,0-3.871-.041,5.066,5.066,0,0,0-2.767,2.658,4.719,4.719,0,0,0-.042,3.8,27.053,27.053,0,0,1,2.421,6.088q-.167-.646-.333-1.291a32.043,32.043,0,0,1,.95,8.414l.023-1.288a38.5,38.5,0,0,1-.62,6.061q-.251,1.367-.594,2.715c-.068.269-.142.537-.213.806-.205.779.109-.362.124-.422-.129.534-.326,1.061-.5,1.583a52.674,52.674,0,0,1-2.411,5.865c-.878,1.833-1.984,3.548-2.881,5.365.706-1.43-.115.183-.326.522q-.423.68-.857,1.355-.869,1.35-1.777,2.676c-1.154,1.69-2.347,3.354-3.556,5.007-2.591,3.541-5.216,7.062-7.935,10.509A129.554,129.554,0,0,1,230.581,91.16a4.907,4.907,0,0,0-1.031,3.6,5.055,5.055,0,0,0,1.926,3.365,5.177,5.177,0,0,0,3.672,1.012,5.9,5.9,0,0,0,3.427-1.89" transform="translate(-74.714 -6.395)" fill="#eed7fe"/>
          <path id="Trazado_873151-3" data-name="Trazado 873151" d="M94.456,339.092c.237-.5.483-.986.743-1.47.13-.242.262-.481.4-.72.09-.158.181-.317.275-.473-.123.209-.249.417-.373.627a20.493,20.493,0,0,1,1.922-2.829,43.738,43.738,0,0,1,4.464-5.043l-.931.906A68.433,68.433,0,0,1,115.273,319.8l-1.181.657c5.609-3.113,11.466-5.754,17.216-8.6,3.076-1.52,6.122-3.107,9.088-4.828a36.279,36.279,0,0,0,6.746-4.832,26.633,26.633,0,0,0,6.1-8.236,53.769,53.769,0,0,0,2.877-8.667q2.5-9.172,4.984-18.351,2.85-10.5,5.7-20.989a4.93,4.93,0,0,0-.98-3.738,5.123,5.123,0,0,0-7.091-.942A5.76,5.76,0,0,0,156.8,244.5q-2.981,10.972-5.96,21.943-1.47,5.407-2.938,10.813-.734,2.7-1.468,5.406c-.205.755-.409,1.51-.62,2.263-.051.181-.107.361-.152.542.338-1.335.173-.6.075-.275-.121.405-.246.808-.377,1.21a29.046,29.046,0,0,1-2.046,4.91c-.068.126-.545.942-.09.181.435-.728-.014.007-.119.166q-.39.589-.826,1.149a21.733,21.733,0,0,1-1.891,2.1l.931-.906a39.149,39.149,0,0,1-8.179,5.765l1.18-.656c-7.357,4.086-15.149,7.346-22.556,11.338-7.128,3.841-13.775,8.228-19.325,14.12a42.108,42.108,0,0,0-7.287,10.623,4.973,4.973,0,0,0,2.666,6.517,5.2,5.2,0,0,0,6.64-2.617" transform="translate(-27.584 -81.181)" fill="#eed7fe"/>
          <path id="Trazado_873152-3" data-name="Trazado 873152" d="M217.637,199.384c.988-2.075,2.069-4.1,3.225-6.09.53-.912-.617,1.008-.065.108.15-.245.3-.491.452-.735q.455-.732.927-1.455.944-1.445,1.951-2.848a79.909,79.909,0,0,1,9.006-10.485l-.931.907.415-.4a5.46,5.46,0,0,0,1.94-3.223,5,5,0,0,0-.979-3.738,5.135,5.135,0,0,0-3.284-1.9,4.939,4.939,0,0,0-3.807.961,86.279,86.279,0,0,0-18.154,25A4.974,4.974,0,0,0,211,202a5.2,5.2,0,0,0,6.639-2.617" transform="translate(-67.683 -57.261)" fill="#eed7fe"/>
        </g>
      </g>
    </g>
    <g id="Grupo_1099951" data-name="Grupo 1099951" transform="translate(316.051 1866.38)">
      <g id="Grupo_1099950" data-name="Grupo 1099950" clip-path="url(#clip-path-5)">
        <g id="Grupo_1099915" data-name="Grupo 1099915">
          <g id="Grupo_1099914" data-name="Grupo 1099914" clip-path="url(#clip-path-5)">
            <g id="Grupo_1099907" data-name="Grupo 1099907" transform="translate(25.102 23.675)" style="mix-blend-mode: multiply;isolation: isolate">
              <g id="Grupo_1099906" data-name="Grupo 1099906">
                <g id="Grupo_1099905" data-name="Grupo 1099905" clip-path="url(#clip-path-7)">
                  <path id="Trazado_874491" data-name="Trazado 874491" d="M73.034,267.3c73.037,62.716,169.989,58.109,231.1-26.9S305.273,46.282,221.64,31.822,56.522,33.247,35.771,115.816,43.686,242.1,73.034,267.3" transform="translate(-28.695 -27.064)" fill="#efefef"/>
                </g>
              </g>
            </g>
            <path id="Trazado_874492" data-name="Trazado 874492" d="M80.036,260.966c73.037,62.716,169.989,58.109,231.1-26.9s1.142-194.126-82.493-208.586S63.524,26.909,42.773,109.478s7.915,126.289,37.263,151.488" transform="translate(-4.47 -2.595)" fill="#f7e3c7"/>
            <path id="Trazado_874493" data-name="Trazado 874493" d="M234.956,67.1c5.229,4.49,12.17,4.16,16.545-1.925s.082-13.9-5.906-14.933-11.821.1-13.307,6.013.567,9.042,2.668,10.845" transform="translate(-29.025 -6.248)" fill="#fbb244"/>
            <path id="Trazado_874494" data-name="Trazado 874494" d="M144.532,54.763h40.6s-5.639-4.322-12.123-4.94-7.584-9.222-12.687-7.41c-10.431,3.706-10.008-7.873-19.453,0-5.12,4.269-16.07,6.175-16.07,12.35Z" transform="translate(-15.628 -4.96)" fill="#fff"/>
            <path id="Trazado_874495" data-name="Trazado 874495" d="M230.427,99.865c.948.321,98.258,0,98.258,0s-13.9-8.48-33.49-4.176-15.481-8.353-29.7-8.353-13.671,7.853-24.528,6.336-10.542,6.193-10.542,6.193" transform="translate(-28.855 -10.937)" fill="#fff"/>
            <path id="Trazado_874496" data-name="Trazado 874496" d="M145.971,101.249H24.013s17.945-11.67,33.232-10.5,20.27-20.423,34.56-11.67,52.837,1.75,54.167,22.175" transform="translate(-3.007 -9.64)" fill="#fff"/>
            <path id="Trazado_874497" data-name="Trazado 874497" d="M332.9,136.318h39.47s-5.263-4.528-10.9-4.528-4.135-6.587-11.278-6.587-8.645,5.557-8.645,5.557-8.646,1.03-8.646,5.557" transform="translate(-41.688 -15.679)" fill="#fff"/>
            <path id="Trazado_874498" data-name="Trazado 874498" d="M47.8,144.733H99.393s-6.766-3.294-12.405-3.808-5.639-7.307-13.392-6.689-8.316,7.2-12.263,6.689S47.8,144.733,47.8,144.733" transform="translate(-5.986 -16.805)" fill="#fff"/>
            <path id="Trazado_874499" data-name="Trazado 874499" d="M224.984,123.8a174.562,174.562,0,0,0-2.654-26.032c-2.651-14.046-16.57-23.533-31.348-21.3-30.336,4.593-69.2,13.346-69.2,13.346s14.023,4.459,12.648,36.714,0,140.038,0,140.038L213.1,243.559a18.1,18.1,0,0,0,13.33-17.248c-.074-23.327-.358-71.949-1.441-102.507" transform="translate(-15.25 -9.536)" fill="#fcc467"/>
            <path id="Trazado_874500" data-name="Trazado 874500" d="M118.455,91.78C95.083,98.6,92.884,135.312,96.733,207.954S131.1,268.533,131.1,268.533s-1.375-107.783,0-140.038S118.455,91.78,118.455,91.78" transform="translate(-11.923 -11.493)" fill="#ee7e3c"/>
            <line id="Línea_587" data-name="Línea 587" x2="32.93" y2="0.958" transform="translate(86.304 108.981)" fill="none" stroke="#302e2e" stroke-miterlimit="10" stroke-width="0.5"/>
            <line id="Línea_588" data-name="Línea 588" x2="31.658" y2="1.016" transform="translate(87.321 104.553)" fill="none" stroke="#302e2e" stroke-miterlimit="10" stroke-width="0.5"/>
            <path id="Trazado_874501" data-name="Trazado 874501" d="M143.444,87.127s11.3,1.142,11.3,32.764V262.8" transform="translate(-17.963 -10.911)" fill="none" stroke="#302e2e" stroke-miterlimit="10" stroke-width="0.5"/>
            <path id="Trazado_874502" data-name="Trazado 874502" d="M159.36,83.906s10.571,1.4,12.4,31.155,1.412,142.525,1.412,142.525" transform="translate(-19.956 -10.507)" fill="none" stroke="#302e2e" stroke-miterlimit="10" stroke-width="0.5"/>
            <path id="Trazado_874503" data-name="Trazado 874503" d="M231.8,234.583H139.4s-8.005,24.43-8.764,43.063c-.245,6.013-.928,19.6-1.742,35.245,37.332,19.1,77.816,22.77,115.209,9.659-1.307-30.225-3.226-61.2-5.781-68.919-5.343-16.149-6.526-19.047-6.526-19.047" transform="translate(-16.141 -29.376)" fill="#ffb674"/>
            <path id="Trazado_874504" data-name="Trazado 874504" d="M327.43,155.293s-15.873-65.7-19.254-79.777c-.775-3.224,1.518-24.084,2.208-30.779s-3.244-7.936-3.244-7.936a6.212,6.212,0,0,0-4.969-4.9c-.483-3.934-4.761-3.727-4.761-3.727,0-1.863-1.725-14.975-10.973-10.214s-11.663,16.908-11.663,16.908c4.693,5.935,10.007-2.071,10.007-2.071L278.157,50.81l-2.071-1.863s.414-2.071,1.656-7.66-3.727-5.59-3.727-5.59l-3.933,7.66c-3.934,7.66-1.864,15.32,3.727,26.086s17.183,73.7,17.183,73.7l-13.255-10.671L254.9,170.332c6.4,5.272,15.412,12.372,20.909,15.326,9.248,4.969,24.706,11.732,41.269,1.38s10.351-31.745,10.351-31.745" transform="translate(-31.92 -2.12)" fill="#f47365"/>
            <path id="Trazado_874505" data-name="Trazado 874505" d="M254.9,186.873l32.71-29.908-9.873-7.948Z" transform="translate(-31.92 -18.661)" fill="#222"/>
            <path id="Trazado_874506" data-name="Trazado 874506" d="M221.845,95.895l21.393,77.982s3.155,2.748,7.523,6.344l27.72-38.165Z" transform="translate(-27.781 -12.009)" fill="#fffcee"/>
            <line id="Línea_589" data-name="Línea 589" x2="4.417" y2="25.81" transform="translate(259.073 141.027)" fill="none" stroke="#302e2e" stroke-miterlimit="10" stroke-width="1"/>
            <path id="Trazado_874507" data-name="Trazado 874507" d="M279.629,31.334s5.623-.232,1.174,7.419" transform="translate(-35.017 -3.924)" fill="none" stroke="#302e2e" stroke-miterlimit="10" stroke-width="0.75"/>
            <path id="Trazado_874508" data-name="Trazado 874508" d="M272.563,45.8s3.59,4.488,7.147-5.189" transform="translate(-34.132 -5.086)" fill="none" stroke="#302e2e" stroke-miterlimit="10" stroke-width="0.75"/>
            <line id="Línea_590" data-name="Línea 590" y1="9.937" x2="5.659" transform="translate(252.862 20.741)" fill="none" stroke="#302e2e" stroke-miterlimit="10" stroke-width="0.75"/>
            <path id="Trazado_874509" data-name="Trazado 874509" d="M302.215,29.785s-5.866-.451-8.005,9.47-.483,13.165,3.381,10.888" transform="translate(-36.724 -3.729)" fill="none" stroke="#302e2e" stroke-miterlimit="10" stroke-width="0.75"/>
            <path id="Trazado_874510" data-name="Trazado 874510" d="M307.616,34.041s-5.107-.9-7.246,7.867-4.141,12.146,2.9,11.042" transform="translate(-37.363 -4.26)" fill="none" stroke="#302e2e" stroke-miterlimit="10" stroke-width="0.75"/>
            <path id="Trazado_874511" data-name="Trazado 874511" d="M313.292,39.646s-12.629,12.56-8.42,15.942c1.912,1.535,5.2-.886,8.229-3.986" transform="translate(-38.07 -4.965)" fill="none" stroke="#302e2e" stroke-miterlimit="10" stroke-width="0.75"/>
            <line id="Línea_591" data-name="Línea 591" x2="14.354" y2="13.527" transform="translate(246.237 48.691)" fill="none" stroke="#302e2e" stroke-miterlimit="10" stroke-width="0.75"/>
            <path id="Trazado_874512" data-name="Trazado 874512" d="M291.4,63.959s6.1-6.444,11.036-7.273" transform="translate(-36.49 -7.099)" fill="none" stroke="#302e2e" stroke-miterlimit="10" stroke-width="0.75"/>
            <line id="Línea_592" data-name="Línea 592" x1="1.45" y2="7.971" transform="translate(273.772 76.123)" fill="none" stroke="#302e2e" stroke-linecap="round" stroke-linejoin="round" stroke-width="0.5"/>
            <path id="Trazado_874513" data-name="Trazado 874513" d="M294.42,16.974a7.214,7.214,0,0,1,1.659,3.753" transform="translate(-36.869 -2.126)" fill="none" stroke="#302e2e" stroke-linecap="round" stroke-linejoin="round" stroke-width="0.5"/>
            <path id="Trazado_874514" data-name="Trazado 874514" d="M295.972,16.974a7.442,7.442,0,0,1,1.372,3.063" transform="translate(-37.063 -2.126)" fill="none" stroke="#302e2e" stroke-miterlimit="10" stroke-width="0.5"/>
            <path id="Trazado_874515" data-name="Trazado 874515" d="M300.045,32.156a7.1,7.1,0,0,1,3.036,2.347" transform="translate(-37.573 -4.027)" fill="none" stroke="#302e2e" stroke-linecap="round" stroke-linejoin="round" stroke-width="0.5"/>
            <path id="Trazado_874516" data-name="Trazado 874516" d="M301.978,31.673a6.784,6.784,0,0,1,2.312,2.1" transform="translate(-37.815 -3.966)" fill="none" stroke="#302e2e" stroke-linecap="round" stroke-linejoin="round" stroke-width="0.5"/>
            <path id="Trazado_874517" data-name="Trazado 874517" d="M305.942,37.26a7.1,7.1,0,0,1,3.036,2.346" transform="translate(-38.312 -4.666)" fill="none" stroke="#302e2e" stroke-linecap="round" stroke-linejoin="round" stroke-width="0.5"/>
            <path id="Trazado_874518" data-name="Trazado 874518" d="M307.875,36.777a6.784,6.784,0,0,1,2.312,2.1" transform="translate(-38.554 -4.605)" fill="none" stroke="#302e2e" stroke-linecap="round" stroke-linejoin="round" stroke-width="0.5"/>
            <path id="Trazado_874519" data-name="Trazado 874519" d="M309.933,46.347a7.1,7.1,0,0,1,3.036,2.346" transform="translate(-38.812 -5.804)" fill="none" stroke="#302e2e" stroke-linecap="round" stroke-linejoin="round" stroke-width="0.5"/>
            <path id="Trazado_874520" data-name="Trazado 874520" d="M311.865,45.864a6.784,6.784,0,0,1,2.312,2.1" transform="translate(-39.054 -5.743)" fill="none" stroke="#302e2e" stroke-linecap="round" stroke-linejoin="round" stroke-width="0.5"/>
            <path id="Trazado_874521" data-name="Trazado 874521" d="M293.49,45.247s4.482-.12,2.474,7.492" transform="translate(-36.752 -5.666)" fill="none" stroke="#302e2e" stroke-miterlimit="10" stroke-width="0.75"/>
            <path id="Trazado_874522" data-name="Trazado 874522" d="M299.455,47.688s5.123.5,2.207,7.177" transform="translate(-37.499 -5.972)" fill="none" stroke="#302e2e" stroke-miterlimit="10" stroke-width="0.75"/>
            <path id="Trazado_874523" data-name="Trazado 874523" d="M305.908,50.378s5.131,1.549-.238,6.89" transform="translate(-38.278 -6.309)" fill="none" stroke="#302e2e" stroke-miterlimit="10" stroke-width="0.75"/>
            <line id="Línea_593" data-name="Línea 593" x2="3.053" transform="translate(256.542 42.225)" fill="none" stroke="#302e2e" stroke-miterlimit="10" stroke-width="0.75"/>
            <line id="Línea_594" data-name="Línea 594" x2="3.962" y2="1.308" transform="translate(243.537 29.812)" fill="none" stroke="#302e2e" stroke-miterlimit="10" stroke-width="0.75"/>
            <line id="Línea_595" data-name="Línea 595" x2="2.566" y2="2.869" transform="translate(239.992 37.674)" fill="none" stroke="#302e2e" stroke-miterlimit="10" stroke-width="0.75"/>
            <line id="Línea_596" data-name="Línea 596" x2="3.561" y2="0.147" transform="translate(261.368 44.069)" fill="none" stroke="#302e2e" stroke-miterlimit="10" stroke-width="0.75"/>
            <line id="Línea_597" data-name="Línea 597" x2="3.25" y2="1.151" transform="translate(266.474 46.363)" fill="none" stroke="#302e2e" stroke-miterlimit="10" stroke-width="0.75"/>
            <path id="Trazado_874524" data-name="Trazado 874524" d="M211.709,95.163c-14.33-12.878-65.56,2.623-65.56,2.623l-5.245,118.7h92.4l-.2-43.339Z" transform="translate(-17.645 -11.276)" fill="#fffcee"/>
            <path id="Trazado_874525" data-name="Trazado 874525" d="M161.168,94.579c-5.243,1.15-9.576,2.288-12.183,3.008,0,0,7.435,52.641-5.964,75.183l-.841,19.011c29.2-14.39,21.036-82.9,18.988-97.2" transform="translate(-17.805 -11.844)" fill="#893e29"/>
            <path id="Trazado_874526" data-name="Trazado 874526" d="M220.329,95.263c-2.536-2.28-6.232-3.667-10.592-4.411,2.78,16.13,15.606,85.324,32.028,91.866l-.043-9.473Z" transform="translate(-26.264 -11.377)" fill="#893e29"/>
            <path id="Trazado_874527" data-name="Trazado 874527" d="M219.649,250.2l-11.593,7.453-3.748,74.626" transform="translate(-25.585 -31.332)" fill="none" stroke="#302e2e" stroke-miterlimit="10" stroke-width="1"/>
            <path id="Trazado_874528" data-name="Trazado 874528" d="M130.385,287.165s36.943-17.18,46.881-52.582" transform="translate(-16.328 -29.376)" fill="none" stroke="#302e2e" stroke-miterlimit="10" stroke-width="1"/>
            <path id="Trazado_874529" data-name="Trazado 874529" d="M155.024,42.582a18.308,18.308,0,0,1,10.318-7.515c1.256-6.94,4.313-19.849,10.076-22.825,7.97-4.118,3.7,11.823,3.7,11.823s14.228-18.284,18.625-9.377a6.316,6.316,0,0,1,.618,3.7,6.7,6.7,0,0,1,6.937.988c2.8,2.354,2.728,4.673,1.472,6.708,4.856-.882,6.9,2.4,5.523,6.214-2.844,7.862-7,9.112-7,9.112s11.428,30.942-18.6,35.162-45.4-13.255-31.672-33.989" transform="translate(-18.779 -1.448)" fill="#222"/>
            <path id="Trazado_874530" data-name="Trazado 874530" d="M169.5,53.908c-.811,9.2,1.555,18.76,4.7,22.849a19.4,19.4,0,0,0,1.839,2.038c7.041,6.877,16.624,5.643,16.624,5.643a10.909,10.909,0,0,0,1.065-.261c3.582-1.033,14.925-5.647,13.934-22.491a38.924,38.924,0,0,0-8.186-21.929,5.787,5.787,0,0,0-9.721.884c-2.443,4.577-7.633,9.963-18.634,13.016Z" transform="translate(-21.206 -4.697)" fill="#f47365"/>
            <path id="Trazado_874531" data-name="Trazado 874531" d="M177.018,99.589,177,84.706c7.04,6.876,16.623,5.644,16.623,5.644s.4-.069,1.065-.262l-.025,18.613s-12.157,1.2-17.647-9.113" transform="translate(-22.165 -10.607)" fill="#f47365"/>
            <path id="Trazado_874532" data-name="Trazado 874532" d="M193.718,90.433a10.91,10.91,0,0,0,1.065-.261l-.007,5.376c-4.09-.162-13.164-1.559-17.027-10.177,6.966,6.2,15.968,5.061,15.968,5.061" transform="translate(-22.259 -10.691)" fill="#222"/>
            <path id="Trazado_874533" data-name="Trazado 874533" d="M167.571,72.114s-7.95.85-9.418-7.331c-1.479-8.246,6.744-7.82,6.744-7.82s-.466,6.114,2.674,15.151" transform="translate(-19.783 -7.133)" fill="#f47365"/>
            <path id="Trazado_874534" data-name="Trazado 874534" d="M163.45,60.6a3.9,3.9,0,0,0-3.628,3.685" transform="translate(-20.014 -7.589)" fill="none" stroke="#222" stroke-linecap="round" stroke-linejoin="round" stroke-width="0.5"/>
            <path id="Trazado_874535" data-name="Trazado 874535" d="M161.939,61.685a7.56,7.56,0,0,0,2.613,5.916" transform="translate(-20.278 -7.725)" fill="none" stroke="#222" stroke-linecap="round" stroke-linejoin="round" stroke-width="0.5"/>
            <path id="Trazado_874536" data-name="Trazado 874536" d="M214.665,66.131s6.329-.481,6.3-7.08c-.033-6.65-6.391-5.133-6.391-5.133s1.244,4.705.094,12.214" transform="translate(-26.87 -6.733)" fill="#f47365"/>
            <path id="Trazado_874537" data-name="Trazado 874537" d="M216.594,56.5a3.1,3.1,0,0,1,3.363,2.355" transform="translate(-27.123 -7.073)" fill="none" stroke="#222" stroke-linecap="round" stroke-linejoin="round" stroke-width="0.5"/>
            <path id="Trazado_874538" data-name="Trazado 874538" d="M218.163,57.056a6,6,0,0,1-1.188,4.995" transform="translate(-27.171 -7.145)" fill="none" stroke="#222" stroke-linecap="round" stroke-linejoin="round" stroke-width="0.5"/>
            <path id="Trazado_874539" data-name="Trazado 874539" d="M188.7,52.356a11.233,11.233,0,0,0-5.41,3.494" transform="translate(-22.953 -6.556)" fill="none" stroke="#222" stroke-linecap="round" stroke-linejoin="round" stroke-width="0.5"/>
            <path id="Trazado_874540" data-name="Trazado 874540" d="M206.825,52.812a9.078,9.078,0,0,0-4.946-1.6" transform="translate(-25.28 -6.413)" fill="none" stroke="#222" stroke-linecap="round" stroke-linejoin="round" stroke-width="0.5"/>
            <path id="Trazado_874541" data-name="Trazado 874541" d="M196.281,56.666a8.314,8.314,0,0,0,3.095,5.718c3.682,3.045,2.58,4.447-.372,5.911" transform="translate(-24.579 -7.096)" fill="none" stroke="#222" stroke-linecap="round" stroke-linejoin="round" stroke-width="0.5"/>
            <g id="Grupo_1099910" data-name="Grupo 1099910" transform="translate(161.255 57.532)" opacity="0.5" style="mix-blend-mode: multiply;isolation: isolate">
              <g id="Grupo_1099909" data-name="Grupo 1099909">
                <g id="Grupo_1099908" data-name="Grupo 1099908" clip-path="url(#clip-path-8)">
                  <path id="Trazado_874542" data-name="Trazado 874542" d="M184.495,66.861c1-1.361,2.3.286,2.3.286s.893-2.138,2.184-1.089c1.12.908-.426,4.109-1.451,4.314s-3.886-2.349-3.034-3.511" transform="translate(-184.339 -65.768)" fill="#f43d4f"/>
                </g>
              </g>
            </g>
            <g id="Grupo_1099913" data-name="Grupo 1099913" transform="translate(178.966 58.844)" opacity="0.5" style="mix-blend-mode: multiply;isolation: isolate">
              <g id="Grupo_1099912" data-name="Grupo 1099912">
                <g id="Grupo_1099911" data-name="Grupo 1099911" clip-path="url(#clip-path-9)">
                  <path id="Trazado_874543" data-name="Trazado 874543" d="M209.463,69.014c-.744-1.513-2.316-.118-2.316-.118s-.507-2.261-1.962-1.454c-1.26.7-.295,4.121.679,4.5s4.236-1.636,3.6-2.93" transform="translate(-204.585 -67.268)" fill="#f43d4f"/>
                </g>
              </g>
            </g>
            <path id="Trazado_874544" data-name="Trazado 874544" d="M197.628,75.563a6.534,6.534,0,0,1-5.672-2.927" transform="translate(-24.038 -9.096)" fill="none" stroke="#222" stroke-linecap="round" stroke-linejoin="round" stroke-width="0.5"/>
            <path id="Trazado_874545" data-name="Trazado 874545" d="M187.6,60.88A1.779,1.779,0,1,0,189.279,59,1.78,1.78,0,0,0,187.6,60.88" transform="translate(-23.493 -7.388)" fill="#222"/>
            <path id="Trazado_874546" data-name="Trazado 874546" d="M201.746,59.283a1.779,1.779,0,1,0,1.674-1.877,1.777,1.777,0,0,0-1.674,1.877" transform="translate(-25.263 -7.188)" fill="#222"/>
            <path id="Trazado_874547" data-name="Trazado 874547" d="M167.569,40.707s-3.448-4.768-12.356-3.242" transform="translate(-19.437 -4.654)" fill="#222"/>
            <path id="Trazado_874548" data-name="Trazado 874548" d="M166.814,39.839s.623-5.85-7.021-10.672" transform="translate(-20.01 -3.652)" fill="#222"/>
            <line id="Línea_598" data-name="Línea 598" x2="10.189" y2="70.225" transform="translate(149.744 81.431)" fill="none" stroke="#222" stroke-linejoin="round" stroke-width="5"/>
            <line id="Línea_599" data-name="Línea 599" x2="7.777" y2="68.439" transform="translate(175.321 78.771)" fill="none" stroke="#222" stroke-linejoin="round" stroke-width="5"/>
            <path id="Trazado_874549" data-name="Trazado 874549" d="M161.491,126.288a1.968,1.968,0,1,1-2.092-2.3,2.233,2.233,0,0,1,2.092,2.3" transform="translate(-19.745 -15.526)" fill="#ffb674"/>
            <path id="Trazado_874550" data-name="Trazado 874550" d="M155.458,164.915a6.048,6.048,0,0,1-3.928-1.681c-1.671-1.806-1.59-5.015-1.293-9.35.274-4.006,1.232-6.668,2.927-8.134a6.8,6.8,0,0,1,5.271-1.371c6.325.448,6.115,5.665,5.978,9.448l-.043,1.613c-.073,3.851-.18,9.671-6.652,9.609a19.956,19.956,0,0,1-2.261-.135m2.889-19.367a5.729,5.729,0,0,0-4.415,1.088c-1.448,1.252-2.274,3.649-2.525,7.328-.32,4.675-.255,7.136.984,8.473.9.97,2.541,1.415,5.34,1.44,5.308.05,5.4-4.667,5.466-8.458l.045-1.633c.138-3.857.244-7.833-4.9-8.238m.045-.584.011,0Z" transform="translate(-18.792 -18.075)" fill="#ffb674"/>
            <path id="Trazado_874551" data-name="Trazado 874551" d="M158.859,154.217a.585.585,0,0,1-.51-.535,68.987,68.987,0,0,1,.493-8.779.585.585,0,0,1,.648-.517h.007a.586.586,0,0,1,.51.647,70.074,70.074,0,0,0-.49,8.555.585.585,0,0,1-.538.63.5.5,0,0,1-.12,0" transform="translate(-19.824 -18.08)" fill="#ffb674"/>
            <path id="Trazado_874552" data-name="Trazado 874552" d="M148.969,161.632l15.437.868-.748,4.956-14.953-.574Z" transform="translate(-18.622 -20.24)" fill="#ee7e3c"/>
            <path id="Trazado_874553" data-name="Trazado 874553" d="M230.138,158.817c-6.152,1.138-7.227-4.385-7.939-8.041l-.311-1.527c-.762-3.581-1.833-8.513,4.116-10a6.567,6.567,0,0,1,5.248.425c1.86,1.114,3.216,3.487,4.146,7.256,1.007,4.079,1.62,7.122.33,9.12a5.853,5.853,0,0,1-3.459,2.257,19.645,19.645,0,0,1-2.131.506m-3.853-18.466c-4.827,1.244-4.062,5.012-3.287,8.662l.315,1.548c.7,3.6,1.571,8.074,6.618,7.14,2.661-.491,4.153-1.188,4.844-2.261.956-1.481.608-3.834-.478-8.232-.853-3.461-2.04-5.607-3.627-6.557a5.538,5.538,0,0,0-4.386-.3m-.15-.546.01,0Z" transform="translate(-27.711 -17.396)" fill="#ffb674"/>
            <path id="Trazado_874554" data-name="Trazado 874554" d="M228.841,148.56a.565.565,0,0,0,.4-.6,66.911,66.911,0,0,0-1.934-8.277.567.567,0,0,0-.7-.384l-.006,0a.567.567,0,0,0-.378.7,67.633,67.633,0,0,1,1.895,8.065.566.566,0,0,0,.618.51.494.494,0,0,0,.114-.022" transform="translate(-28.325 -17.441)" fill="#ffb674"/>
            <path id="Trazado_874555" data-name="Trazado 874555" d="M237.595,153.951l-14.555,3.4,1.54,4.6,14.142-3.043Z" transform="translate(-27.93 -19.279)" fill="#ee7e3c"/>
            <path id="Trazado_874556" data-name="Trazado 874556" d="M160.909,115.65a1.968,1.968,0,1,1-2.092-2.3,2.233,2.233,0,0,1,2.092,2.3" transform="translate(-19.673 -14.194)" fill="#ffb674"/>
            <path id="Trazado_874557" data-name="Trazado 874557" d="M222.934,119.3a1.968,1.968,0,1,1-2.413-1.957,2.231,2.231,0,0,1,2.413,1.957" transform="translate(-27.442 -14.69)" fill="#ffb674"/>
            <path id="Trazado_874558" data-name="Trazado 874558" d="M220.764,108.872a1.967,1.967,0,1,1-2.412-1.957,2.231,2.231,0,0,1,2.412,1.957" transform="translate(-27.17 -13.384)" fill="#ffb674"/>
            <path id="Trazado_874559" data-name="Trazado 874559" d="M175.738,165.873h0a1.628,1.628,0,0,1,1.876,1.325l.484,2.818a1.624,1.624,0,1,1-3.2.551l-.485-2.819a1.628,1.628,0,0,1,1.325-1.876" transform="translate(-21.838 -20.769)" fill="#333"/>
            <path id="Trazado_874560" data-name="Trazado 874560" d="M219.2,165.752l-3.713.638a3.054,3.054,0,0,1-1.034-6.019l3.713-.638a3.054,3.054,0,0,1,1.034,6.019" transform="translate(-26.537 -19.997)" fill="#333"/>
            <path id="Trazado_874561" data-name="Trazado 874561" d="M194.308,162.211c1.63-.293,3.256-.6,4.887-.874.564-.1,1.037-.258.913-.956s-.61-.706-1.18-.606c-1.631.285-3.266.544-4.9.813-1.65.295-3.3.6-4.949.877-.585.1-1.017.316-.907.967s.595.709,1.177.6c1.648-.3,3.3-.553,4.957-.825" transform="translate(-23.562 -20.002)" fill="#fafafa"/>
            <path id="Trazado_874562" data-name="Trazado 874562" d="M194.9,166.5l-.032-.047,8.253-1.406c-.558-2.032-1.113-4.066-1.678-6.1a1.222,1.222,0,0,0-1.525-1.009q-3.157.555-6.314,1.116-3.242.542-6.486,1.084a1.223,1.223,0,0,0-1.093,1.465c.142,2.1.3,4.2.449,6.3L194.9,166.5m-5.755-3.7c-.582.1-1.065.052-1.177-.6s.322-.872.907-.968c1.653-.272,3.3-.582,4.949-.877,1.632-.269,3.267-.528,4.9-.812.571-.1,1.059-.078,1.18.606s-.349.859-.912.955c-1.631.278-3.259.581-4.887.874-1.653.273-3.309.53-4.958.825" transform="translate(-23.295 -19.775)" fill="#333"/>
            <path id="Trazado_874563" data-name="Trazado 874563" d="M166.792,171.162l50.81-8.731a1.491,1.491,0,0,1,1.716,1.213l5.4,31.413a1.491,1.491,0,0,1-1.212,1.716l-50.81,8.73a1.491,1.491,0,0,1-1.717-1.212l-5.4-31.413a1.491,1.491,0,0,1,1.213-1.716" transform="translate(-20.732 -20.338)" fill="#5e5e5e"/>
            <rect id="Rectángulo_401476" data-name="Rectángulo 401476" width="54.527" height="18.304" transform="translate(145.99 159.193) rotate(-9.749)" fill="#333"/>
            <path id="Trazado_874564" data-name="Trazado 874564" d="M192.37,199.567a17.107,17.107,0,0,1-5.638-3.461c-.2-.239-.4-.483-.605-.716a14.783,14.783,0,0,1-3.58-7.363,15.168,15.168,0,0,1,1.719-10.08,15.347,15.347,0,0,1,10.589-7.382,17.442,17.442,0,0,1,5.612.167,16.827,16.827,0,0,1,6.7,3.274c.213.23.416.469.638.688a14.807,14.807,0,0,1,4.515,11.474,18.686,18.686,0,0,1-1.4,5.776,1.645,1.645,0,0,0-.217.26,15.083,15.083,0,0,1-10.75,7.99,15.527,15.527,0,0,1-7.579-.626m2.916-25.785a11.822,11.822,0,1,0,13.652,9.592,11.71,11.71,0,0,0-13.652-9.592" transform="translate(-22.83 -21.34)" fill="#333"/>
            <path id="Trazado_874565" data-name="Trazado 874565" d="M177.392,192.8a2.1,2.1,0,1,1-1.693,2.4,2.128,2.128,0,0,1,1.693-2.4m.526,3.28a1.256,1.256,0,0,0,1.065-1.42,1.235,1.235,0,1,0-1.065,1.42" transform="translate(-21.999 -24.139)" fill="#fafafa"/>
            <path id="Trazado_874566" data-name="Trazado 874566" d="M199.9,197.514A11.822,11.822,0,1,1,209.4,183.83a11.813,11.813,0,0,1-9.495,13.684m6.584-13.115a8.829,8.829,0,1,0-7.25,10.154,8.842,8.842,0,0,0,7.25-10.154" transform="translate(-23.289 -21.796)" fill="#464e4d"/>
            <path id="Trazado_874567" data-name="Trazado 874567" d="M176.668,195.173a1.275,1.275,0,0,0,1.373,1.025,1.256,1.256,0,0,0,1.065-1.42,1.235,1.235,0,0,0-2.438.395" transform="translate(-22.122 -24.262)" fill="#333"/>
          </g>
        </g>
        <g id="Grupo_1099917" data-name="Grupo 1099917" transform="translate(165.655 155.225)">
          <g id="Grupo_1099916" data-name="Grupo 1099916" clip-path="url(#clip-path-10)">
            <rect id="Rectángulo_401478" data-name="Rectángulo 401478" width="21.879" height="21.312" transform="matrix(0.986, -0.169, 0.169, 0.986, -3.754, 0.526)" fill="url(#linear-gradient)"/>
          </g>
        </g>
        <g id="Grupo_1099949" data-name="Grupo 1099949">
          <g id="Grupo_1099948" data-name="Grupo 1099948" clip-path="url(#clip-path-5)">
            <path id="Trazado_874569" data-name="Trazado 874569" d="M199.459,180.278a9.014,9.014,0,0,0-3.043.374A6.362,6.362,0,1,0,204.9,186.4a6.861,6.861,0,0,0-.912-3.086c-.111.124-.227.245-.332.374a2.628,2.628,0,0,1-4.391-2.868c.088-.172.253-.316.2-.541" transform="translate(-24.063 -22.575)" fill="#222"/>
            <path id="Trazado_874570" data-name="Trazado 874570" d="M201.917,178.986a3.007,3.007,0,1,1-2.455,3.473,3.007,3.007,0,0,1,2.455-3.473" transform="translate(-24.972 -22.408)" fill="#fafafa"/>
            <path id="Trazado_874571" data-name="Trazado 874571" d="M214.466,198.056a7.92,7.92,0,0,0-.124-8.119,5.385,5.385,0,0,0-.037-4.883c-1.256-2.63-4.928-1.375-7.807.154a25.817,25.817,0,0,0,3.045-3.517c2.416-3.292,1.743-5.138.764-6.106a2.338,2.338,0,0,0-2.685-.367L134.2,212.252l.668-13.223H88.522c-1.552,13.039-1.713,26.225.684,38.026,7.178,35.333,38.095,22.083,56.866,12.422s61.088-34.108,61.088-34.108,4.143-2.415,5.541-5.469c1.328-2.9,1.062-4.428.364-5.23,2.351-2.94,2.147-5.156,1.4-6.612" transform="translate(-10.942 -21.909)" fill="#f47365"/>
            <line id="Línea_600" data-name="Línea 600" x1="15.691" y2="9.732" transform="translate(179.865 163.299)" fill="none" stroke="#302e2e" stroke-miterlimit="10" stroke-width="0.75"/>
            <line id="Línea_601" data-name="Línea 601" x1="13.115" y2="9.903" transform="translate(190.285 168.028)" fill="none" stroke="#302e2e" stroke-miterlimit="10" stroke-width="0.75"/>
            <line id="Línea_602" data-name="Línea 602" x1="10.133" y2="7.581" transform="translate(193.39 176.147)" fill="none" stroke="#302e2e" stroke-miterlimit="10" stroke-width="0.75"/>
            <line id="Línea_603" data-name="Línea 603" x1="7.213" y2="6.075" transform="translate(194.909 182.76)" fill="none" stroke="#302e2e" stroke-miterlimit="10" stroke-width="0.75"/>
            <path id="Trazado_874572" data-name="Trazado 874572" d="M219.407,177.978s.293,6.439,8.226.986" transform="translate(-27.475 -22.287)" fill="none" stroke="#302e2e" stroke-miterlimit="10" stroke-width="0.75"/>
            <line id="Línea_604" data-name="Línea 604" x1="17.529" y2="9.205" transform="translate(105.731 190.343)" fill="none" stroke="#302e2e" stroke-miterlimit="10" stroke-width="1"/>
            <line id="Línea_605" data-name="Línea 605" x2="1.41" y2="4.289" transform="translate(194.146 154.58)" fill="none" stroke="#302e2e" stroke-miterlimit="10" stroke-width="0.75"/>
            <path id="Trazado_874573" data-name="Trazado 874573" d="M138.645,98.892s-26.776,7.453-34.229,26.5C99.451,138.078,84.071,163.5,80.976,189.5h53.665Z" transform="translate(-10.14 -12.384)" fill="#fffcee"/>
            <line id="Línea_606" data-name="Línea 606" y1="45.305" x2="2.575" transform="translate(124.489 132.023)" fill="none" stroke="#302e2e" stroke-miterlimit="10" stroke-width="1"/>
            <path id="Trazado_874574" data-name="Trazado 874574" d="M228.18,16.592s25.135,4.9,38.885,15.106c7.946,5.9,18.052,14.6,18.052,14.6" transform="translate(-28.574 -2.078)" fill="none" stroke="#302e2e" stroke-miterlimit="10" stroke-width="0.5"/>
            <path id="Trazado_874575" data-name="Trazado 874575" d="M241.476,22.736s-17.241-.01-14.383-6.829C230.17,8.57,242.4,18.788,242.4,18.788s-3.336-4.893.688-7.158c5.635-3.174,10.944,10.714,10.944,10.714s-1.642-6.037,2.947-7.436c5.69-1.736,9.907,16.108,9.907,16.108s-15.732,8.4-18.781,3.962c-2.12-3.091,3.346-6.142,3.346-6.142s-13.386,4.308-15.546.206,5.57-6.306,5.57-6.306" transform="translate(-28.398 -1.397)" fill="#005c4f"/>
            <path id="Trazado_874576" data-name="Trazado 874576" d="M237.212,30.248s10.475-2.145,14.174-4.956" transform="translate(-29.705 -3.167)" fill="none" stroke="#302e2e" stroke-miterlimit="10" stroke-width="0.5"/>
            <path id="Trazado_874577" data-name="Trazado 874577" d="M244.985,12.147s6.095,6.035,7.374,11.5" transform="translate(-30.678 -1.521)" fill="none" stroke="#302e2e" stroke-miterlimit="10" stroke-width="0.5"/>
            <path id="Trazado_874578" data-name="Trazado 874578" d="M250.926,37.042s9.131-2.367,12.949-6.579" transform="translate(-31.422 -3.815)" fill="none" stroke="#302e2e" stroke-miterlimit="10" stroke-width="0.5"/>
            <path id="Trazado_874579" data-name="Trazado 874579" d="M260.162,15.939s5.2,5.3,4.87,12.706" transform="translate(-32.579 -1.996)" fill="none" stroke="#302e2e" stroke-miterlimit="10" stroke-width="0.5"/>
            <path id="Trazado_874580" data-name="Trazado 874580" d="M227.14,16.586S259.2,25.674,266.934,31.7" transform="translate(-28.444 -2.077)" fill="none" stroke="#302e2e" stroke-miterlimit="10" stroke-width="0.5"/>
            <path id="Trazado_874581" data-name="Trazado 874581" d="M260.079,21.811c-5.3-7.456-5.405-12.923-4.588-17.317s7.786-3.378,7.878,2.557.071,14.189.071,14.189a14.692,14.692,0,0,1,6.584-.045A3.225,3.225,0,0,1,269,27.526c-2.581-.107-5.831-1.363-8.923-5.715" transform="translate(-31.947 -0.223)" fill="#ee7e3c"/>
            <path id="Trazado_874582" data-name="Trazado 874582" d="M249.432,8.441s4.912,2.135,7.328,9.921" transform="translate(-31.235 -1.057)" fill="none" stroke="#0d1f21" stroke-miterlimit="10" stroke-width="0.25"/>
            <path id="Trazado_874583" data-name="Trazado 874583" d="M275.68,27.23c-.367,1.38-2.407,2.035-3.8,1.723C266.8,27.819,253.557,22.966,259.8,3.777a5.489,5.489,0,0,1,6.29-3.66c4.818.9-.441,21.575-.441,21.575s11.829-1.2,10.034,5.538" transform="translate(-32.328 0)" fill="#fcc467"/>
            <path id="Trazado_874584" data-name="Trazado 874584" d="M257.809,19.782A20.078,20.078,0,0,0,272.529,31.5" transform="translate(-32.284 -2.477)" fill="none" stroke="#0d1f21" stroke-linecap="round" stroke-linejoin="round" stroke-width="1"/>
            <path id="Trazado_874585" data-name="Trazado 874585" d="M258.378,19.808a.678.678,0,1,1-.543-.792.678.678,0,0,1,.543.792" transform="translate(-32.187 -2.38)" fill="#222"/>
            <path id="Trazado_874586" data-name="Trazado 874586" d="M247.508,10.23s5.218,1.207,9.011,8.422" transform="translate(-30.994 -1.281)" fill="none" stroke="#0d1f21" stroke-miterlimit="10" stroke-width="0.25"/>
            <path id="Trazado_874587" data-name="Trazado 874587" d="M266.578,24.8a8.682,8.682,0,0,1-.981,2.217" transform="translate(-33.26 -3.105)" fill="none" stroke="#0d1f21" stroke-linecap="round" stroke-linejoin="round" stroke-width="0.5"/>
            <path id="Trazado_874588" data-name="Trazado 874588" d="M11.561,297.592l5.268,16.72s19.327-17.53,27.266-21.268c0,0-3.755-20.965,5.315-23.875s2.733,17.615,2.733,17.615,12.85-6.5,15.491-9.419.347-24.106,10.566-27.7,8.624,15.7,8.624,15.7,20.772-8.736,15.659-31.994-29.37-16.489-29.37-16.489-6.915-36.509-49.358-19.4c0,0,23.565,11.376,16.54,16.976s-15.814-9.071-25.111-7.629-11.7,34.387-11.7,34.387,13.532-16.131,20.88-10.757-18.83,23.968-18.83,23.968-.025,9.525,4.4,28.38c0,0,4.961-6.783,9.972-3.552s-8.347,18.333-8.347,18.333M52.1,211.628c2.235-4.356,12.276-3.157,8.43,2.2-1.536,2.14-10.665,2.156-8.43-2.2M20.353,264.91c-6.418-4.767-2.413-21.76,7.758-16.738,4.577,2.26-1.339,21.5-7.758,16.738" transform="translate(-0.436 -24.159)" fill="#99ca8a"/>
            <path id="Trazado_874589" data-name="Trazado 874589" d="M75.023,220.317s-30.106,20.707-36.931,41.309-19.353,56.119-19.353,56.119" transform="translate(-2.347 -27.589)" fill="none" stroke="#162c29" stroke-miterlimit="10" stroke-width="1"/>
            <path id="Trazado_874590" data-name="Trazado 874590" d="M69.626,246.639c-6.37,1.991-4.011,14.4,1.236,14.089S76,244.648,69.626,246.639Z" transform="translate(-8.238 -30.864)" fill="none" stroke="#162c29" stroke-miterlimit="10" stroke-width="1"/>
            <path id="Trazado_874591" data-name="Trazado 874591" d="M79.93,202.438s2.741.666,2.718,1.688-7.09,1.681-6.918,1.575,7.509,2.809,6.494,5.429-11.318-3.178-11.318-3.178-6.727,9.718-9.347,8.707,2.527-7.5,2.527-7.5-5.026,4.024-6.16,2.8.751-3.291.751-3.291" transform="translate(-7.208 -25.35)" fill="none" stroke="#162c29" stroke-miterlimit="10" stroke-width="1"/>
            <path id="Trazado_874592" data-name="Trazado 874592" d="M37.045,183.876A24.127,24.127,0,0,0,84.4,174.6c-2.469-12.61-15.071-20.757-28.148-18.2s-21.675,14.858-19.207,27.468" transform="translate(-4.586 -19.527)" fill="#fcc467"/>
            <path id="Trazado_874593" data-name="Trazado 874593" d="M68.238,190.192a24.553,24.553,0,0,1,16.413,2.447,24.235,24.235,0,0,1-17.558,14.494,23.849,23.849,0,0,1-16.588-2.86,24.343,24.343,0,0,1,17.733-14.081" transform="translate(-6.325 -23.758)" fill="#ee7e3c"/>
            <path id="Trazado_874594" data-name="Trazado 874594" d="M80.173,166.545s-5.019,1.892-5.744,11.5c0,0-3.565-7.479-11.126-4.956s-4.646,11.069-4.646,11.069-10.308-9.936-21.974-1.765" transform="translate(-4.594 -20.856)" fill="none" stroke="#162c29" stroke-miterlimit="10" stroke-width="1"/>
            <line id="Línea_607" data-name="Línea 607" x2="6.705" y2="20.073" transform="translate(54.063 163.302)" fill="none" stroke="#162c29" stroke-miterlimit="10" stroke-width="1"/>
            <line id="Línea_608" data-name="Línea 608" x1="0.136" y2="22.393" transform="translate(69.701 157.187)" fill="none" stroke="#162c29" stroke-miterlimit="10" stroke-width="1"/>
            <line id="Línea_609" data-name="Línea 609" x1="0.094" y2="6.27" transform="translate(63.547 145.651)" fill="none" stroke="#15302b" stroke-linecap="round" stroke-linejoin="round" stroke-width="0.5"/>
            <line id="Línea_610" data-name="Línea 610" x2="1.959" y2="6.947" transform="translate(56.434 145.397)" fill="none" stroke="#15302b" stroke-linecap="round" stroke-linejoin="round" stroke-width="0.5"/>
            <line id="Línea_611" data-name="Línea 611" x2="4.287" y2="12.116" transform="translate(49.776 151.186)" fill="none" stroke="#15302b" stroke-linecap="round" stroke-linejoin="round" stroke-width="0.5"/>
            <path id="Trazado_874595" data-name="Trazado 874595" d="M70.5,165.034a2.059,2.059,0,1,0,2.609-1.294,2.059,2.059,0,0,0-2.609,1.294" transform="translate(-8.815 -20.491)" fill="#e55f78"/>
            <path id="Trazado_874596" data-name="Trazado 874596" d="M62.265,165.258a2.059,2.059,0,1,0,2.609-1.294,2.059,2.059,0,0,0-2.609,1.294" transform="translate(-7.784 -20.519)" fill="#e55f78"/>
            <path id="Trazado_874597" data-name="Trazado 874597" d="M54.282,171.718a2.4,2.4,0,1,0,3.042-1.509,2.4,2.4,0,0,0-3.042,1.509" transform="translate(-6.782 -21.299)" fill="#e55f78"/>
            <path id="Trazado_874598" data-name="Trazado 874598" d="M72.817,208.741s6.909,20.16,9.177,50.621" transform="translate(-9.119 -26.14)" fill="none" stroke="#162c29" stroke-miterlimit="10" stroke-width="1"/>
            <path id="Trazado_874599" data-name="Trazado 874599" d="M171.3,327.917a41.743,41.743,0,0,1-4.259-9.407c-7.569-24.761-25.585-37.454-44.3-45.592A138.864,138.864,0,0,1,99.8,260.195c1.085,5.53,1.282,9.93-1.934,10.946-5.6,1.769-8.011-11.762-8.954-19.06-9.409-7.6-17.065-15.256-23.819-21.414-13.426-12.242-35.217-18.557-21.323,44.62,10.464,47.582,57.256,56.861,57.256,56.861s11.846-24.877,21.323-22.507S112.079,336.1,112.079,336.1a82.982,82.982,0,0,0,35.8-4.006,66.618,66.618,0,0,1,23.34-4.174Z" transform="translate(-4.922 -27.889)" fill="#5d9969"/>
            <path id="Trazado_874600" data-name="Trazado 874600" d="M42.033,228.92c2.273,14.764,9.972,40.43,32.085,46.749s60.414,17.215,72.854,26.456c13.82,10.266,23.247,26.456,23.247,26.456" transform="translate(-5.264 -28.667)" fill="none" stroke="#162c29" stroke-linecap="round" stroke-linejoin="round" stroke-width="1"/>
            <path id="Trazado_874601" data-name="Trazado 874601" d="M74.857,237.45s2.066,26.478,8.247,40.681" transform="translate(-9.374 -29.735)" fill="none" stroke="#162c29" stroke-linecap="round" stroke-linejoin="round" stroke-width="1"/>
            <line id="Línea_612" data-name="Línea 612" y1="33.002" x2="38.212" transform="translate(67.61 258.11)" fill="none" stroke="#162c29" stroke-linecap="round" stroke-linejoin="round" stroke-width="1"/>
            <path id="Trazado_874602" data-name="Trazado 874602" d="M155.649,309.069s1.791,23.929-4.615,36.709" transform="translate(-18.913 -38.703)" fill="none" stroke="#162c29" stroke-linecap="round" stroke-linejoin="round" stroke-width="1"/>
            <path id="Trazado_874603" data-name="Trazado 874603" d="M78.494,309.489c2.665,3.258,18.065-10.81,14.659-13.178S75.828,306.232,78.494,309.489Z" transform="translate(-9.787 -37.068)" fill="none" stroke="#162c29" stroke-linecap="round" stroke-linejoin="round" stroke-width="1"/>
            <path id="Trazado_874604" data-name="Trazado 874604" d="M132.263,283.945c-3.049.961,4,13.215,6.663,12.18S135.668,282.872,132.263,283.945Z" transform="translate(-16.469 -35.549)" fill="none" stroke="#162c29" stroke-linecap="round" stroke-linejoin="round" stroke-width="1"/>
            <path id="Trazado_874605" data-name="Trazado 874605" d="M100.9,266.457s-1.764.429-1.75,1.087,4.565,1.082,4.454,1.014-4.835,1.809-4.181,3.5,7.288-2.046,7.288-2.046,4.332,6.257,6.019,5.606-1.628-4.832-1.628-4.832,3.236,2.59,3.966,1.806-.483-2.119-.483-2.119" transform="translate(-12.417 -33.367)" fill="none" stroke="#162c29" stroke-miterlimit="10" stroke-width="1"/>
            <path id="Trazado_874606" data-name="Trazado 874606" d="M126.388,254.5a15.536,15.536,0,0,1-30.493-5.97c1.59-8.12,9.7-13.366,18.125-11.717s13.958,9.567,12.368,17.687" transform="translate(-11.974 -29.618)" fill="#fcc467"/>
            <path id="Trazado_874607" data-name="Trazado 874607" d="M107.6,258.572a15.813,15.813,0,0,0-10.569,1.575,15.606,15.606,0,0,0,11.306,9.333,15.355,15.355,0,0,0,10.682-1.841,15.678,15.678,0,0,0-11.419-9.067" transform="translate(-12.151 -32.342)" fill="#ee7e3c"/>
            <path id="Trazado_874608" data-name="Trazado 874608" d="M99.052,243.345s3.231,1.219,3.7,7.4c0,0,2.3-4.817,7.164-3.191s2.992,7.129,2.992,7.129,6.638-6.4,14.149-1.137" transform="translate(-12.404 -30.473)" fill="none" stroke="#162c29" stroke-miterlimit="10" stroke-width="1"/>
            <line id="Línea_613" data-name="Línea 613" x1="4.318" y2="12.926" transform="translate(96.185 224.213)" fill="none" stroke="#162c29" stroke-miterlimit="10" stroke-width="1"/>
            <line id="Línea_614" data-name="Línea 614" x2="0.087" y2="14.42" transform="translate(90.346 220.276)" fill="none" stroke="#162c29" stroke-miterlimit="10" stroke-width="1"/>
            <line id="Línea_615" data-name="Línea 615" x2="0.06" y2="4.037" transform="translate(94.336 212.847)" fill="none" stroke="#162c29" stroke-miterlimit="10" stroke-width="1"/>
            <line id="Línea_616" data-name="Línea 616" x1="1.261" y2="4.473" transform="translate(97.715 212.683)" fill="none" stroke="#162c29" stroke-miterlimit="10" stroke-width="1"/>
            <line id="Línea_617" data-name="Línea 617" x1="2.761" y2="7.802" transform="translate(100.503 216.411)" fill="none" stroke="#162c29" stroke-miterlimit="10" stroke-width="1"/>
            <path id="Trazado_874609" data-name="Trazado 874609" d="M108.909,242.372a1.326,1.326,0,1,1-1.68-.834,1.326,1.326,0,0,1,1.68.834" transform="translate(-13.315 -30.238)" fill="#e55f78"/>
            <path id="Trazado_874610" data-name="Trazado 874610" d="M114.212,242.516a1.326,1.326,0,1,1-1.68-.833,1.325,1.325,0,0,1,1.68.833" transform="translate(-13.979 -30.256)" fill="#e55f78"/>
            <path id="Trazado_874611" data-name="Trazado 874611" d="M119.29,246.675a1.546,1.546,0,1,1-1.959-.972,1.547,1.547,0,0,1,1.959.972" transform="translate(-14.561 -30.758)" fill="#e55f78"/>
            <path id="Trazado_874612" data-name="Trazado 874612" d="M107.6,270.516a20.706,20.706,0,0,0-1.358,6.61" transform="translate(-13.305 -33.876)" fill="none" stroke="#162c29" stroke-linecap="round" stroke-linejoin="round" stroke-width="1"/>
            <path id="Trazado_874613" data-name="Trazado 874613" d="M348.416,173.732s-1.079.262-1.07.665,2.791.662,2.723.62-2.957,1.106-2.557,2.137,4.456-1.251,4.456-1.251,2.649,3.826,3.681,3.427-1-2.954-1-2.954,1.979,1.584,2.425,1.1-.3-1.3-.3-1.3" transform="translate(-43.497 -21.756)" fill="none" stroke="#162c29" stroke-miterlimit="10" stroke-width="1"/>
            <path id="Trazado_874614" data-name="Trazado 874614" d="M364,166.423a9.5,9.5,0,0,1-18.645-3.65A9.506,9.506,0,0,1,364,166.423" transform="translate(-43.226 -19.463)" fill="#fcc467"/>
            <path id="Trazado_874615" data-name="Trazado 874615" d="M352.509,168.91a9.676,9.676,0,0,0-6.462.964,9.54,9.54,0,0,0,6.912,5.706,9.393,9.393,0,0,0,6.532-1.125,9.586,9.586,0,0,0-6.982-5.545" transform="translate(-43.334 -21.129)" fill="#ee7e3c"/>
            <path id="Trazado_874616" data-name="Trazado 874616" d="M347.283,159.6s1.976.745,2.261,4.527c0,0,1.4-2.944,4.381-1.951s1.829,4.358,1.829,4.358,4.059-3.912,8.652-.7" transform="translate(-43.489 -19.986)" fill="none" stroke="#162c29" stroke-miterlimit="10" stroke-width="1"/>
            <line id="Línea_618" data-name="Línea 618" x1="2.64" y2="7.904" transform="translate(309.626 146.548)" fill="none" stroke="#162c29" stroke-miterlimit="10" stroke-width="1"/>
            <line id="Línea_619" data-name="Línea 619" x2="0.053" y2="8.817" transform="translate(306.056 144.141)" fill="none" stroke="#162c29" stroke-miterlimit="10" stroke-width="1"/>
            <line id="Línea_620" data-name="Línea 620" x2="0.037" y2="2.469" transform="translate(308.495 139.599)" fill="none" stroke="#162c29" stroke-miterlimit="10" stroke-width="1"/>
            <line id="Línea_621" data-name="Línea 621" x1="0.772" y2="2.735" transform="translate(310.561 139.498)" fill="none" stroke="#162c29" stroke-miterlimit="10" stroke-width="1"/>
            <line id="Línea_622" data-name="Línea 622" x1="1.688" y2="4.771" transform="translate(312.266 141.778)" fill="none" stroke="#162c29" stroke-miterlimit="10" stroke-width="1"/>
            <path id="Trazado_874617" data-name="Trazado 874617" d="M353.31,159a.811.811,0,1,1-1.027-.51.811.811,0,0,1,1.027.51" transform="translate(-44.046 -19.842)" fill="#e55f78"/>
            <path id="Trazado_874618" data-name="Trazado 874618" d="M356.553,159.093a.811.811,0,1,1-1.027-.509.811.811,0,0,1,1.027.509" transform="translate(-44.452 -19.853)" fill="#e55f78"/>
            <path id="Trazado_874619" data-name="Trazado 874619" d="M359.658,161.636a.946.946,0,1,1-1.2-.594.946.946,0,0,1,1.2.594" transform="translate(-44.808 -20.16)" fill="#e55f78"/>
            <path id="Trazado_874620" data-name="Trazado 874620" d="M352.11,176.214a81.962,81.962,0,0,0-3.637,21.758" transform="translate(-43.638 -22.067)" fill="none" stroke="#162c29" stroke-linecap="round" stroke-linejoin="round" stroke-width="1"/>
            <path id="Trazado_874621" data-name="Trazado 874621" d="M204.608,314.7s-5.237-37.814,30.139-68.036,84.489-66.266,115.316-60.268c20.248,3.94,3.21,58.265-10.867,95.085a52.192,52.192,0,0,1-48.958,33.556Z" transform="translate(-25.588 -23.259)" fill="#99ca8a"/>
            <path id="Trazado_874622" data-name="Trazado 874622" d="M359.047,188.717S291.4,244.629,270.084,269.03,242.152,315.2,242.152,315.2" transform="translate(-30.324 -23.632)" fill="none" stroke="#162c29" stroke-linecap="round" stroke-linejoin="round" stroke-width="1"/>
            <line id="Línea_623" data-name="Línea 623" y1="36.851" x2="5.434" transform="translate(278.018 171.752)" fill="none" stroke="#162c29" stroke-linecap="round" stroke-linejoin="round" stroke-width="1"/>
            <line id="Línea_624" data-name="Línea 624" x1="8.094" y1="42.113" transform="translate(227.375 208.403)" fill="none" stroke="#162c29" stroke-linecap="round" stroke-linejoin="round" stroke-width="1"/>
            <path id="Trazado_874623" data-name="Trazado 874623" d="M349.056,290.384c-3.863,4.788-18.018,8.976-34.27,3.689s-40.7-13.546-40.7-13.546" transform="translate(-34.322 -35.129)" fill="none" stroke="#162c29" stroke-linecap="round" stroke-linejoin="round" stroke-width="1"/>
            <path id="Trazado_874624" data-name="Trazado 874624" d="M300.611,268.649s-2.742.666-2.719,1.688,7.09,1.681,6.919,1.575-7.51,2.809-6.5,5.429,11.318-3.178,11.318-3.178,6.727,9.718,9.348,8.707-2.527-7.5-2.527-7.5,5.025,4.024,6.159,2.8-.751-3.291-.751-3.291" transform="translate(-37.304 -33.642)" fill="none" stroke="#162c29" stroke-miterlimit="10" stroke-width="1"/>
            <path id="Trazado_874625" data-name="Trazado 874625" d="M340.187,250.088a24.127,24.127,0,0,1-47.354-9.272c2.469-12.61,15.071-20.757,28.148-18.2s21.676,14.858,19.207,27.468" transform="translate(-36.616 -27.819)" fill="#fcc467"/>
            <path id="Trazado_874626" data-name="Trazado 874626" d="M311.006,256.4a24.553,24.553,0,0,0-16.413,2.447,24.235,24.235,0,0,0,17.558,14.494,23.849,23.849,0,0,0,16.588-2.86A24.343,24.343,0,0,0,311.006,256.4" transform="translate(-36.891 -32.049)" fill="#ee7e3c"/>
            <path id="Trazado_874627" data-name="Trazado 874627" d="M297.733,232.756s5.019,1.892,5.744,11.5c0,0,3.565-7.479,11.126-4.956s4.646,11.069,4.646,11.069,10.308-9.936,21.974-1.765" transform="translate(-37.284 -29.147)" fill="none" stroke="#162c29" stroke-miterlimit="10" stroke-width="1"/>
            <line id="Línea_625" data-name="Línea 625" x1="6.705" y2="20.073" transform="translate(275.26 221.221)" fill="none" stroke="#162c29" stroke-miterlimit="10" stroke-width="1"/>
            <line id="Línea_626" data-name="Línea 626" x2="0.136" y2="22.393" transform="translate(266.192 215.107)" fill="none" stroke="#162c29" stroke-miterlimit="10" stroke-width="1"/>
            <line id="Línea_627" data-name="Línea 627" x2="0.094" y2="6.27" transform="translate(272.388 203.571)" fill="none" stroke="#15302b" stroke-linecap="round" stroke-linejoin="round" stroke-width="0.5"/>
            <line id="Línea_628" data-name="Línea 628" x1="1.96" y2="6.947" transform="translate(277.636 203.316)" fill="none" stroke="#15302b" stroke-linecap="round" stroke-linejoin="round" stroke-width="0.5"/>
            <line id="Línea_629" data-name="Línea 629" x1="4.287" y2="12.116" transform="translate(281.965 209.105)" fill="none" stroke="#15302b" stroke-linecap="round" stroke-linejoin="round" stroke-width="0.5"/>
            <path id="Trazado_874628" data-name="Trazado 874628" d="M313.041,231.245a2.059,2.059,0,1,1-2.609-1.294,2.059,2.059,0,0,1,2.609,1.294" transform="translate(-38.699 -28.782)" fill="#e55f78"/>
            <path id="Trazado_874629" data-name="Trazado 874629" d="M321.276,231.469a2.059,2.059,0,1,1-2.609-1.294,2.059,2.059,0,0,1,2.609,1.294" transform="translate(-39.73 -28.81)" fill="#e55f78"/>
            <path id="Trazado_874630" data-name="Trazado 874630" d="M329.162,237.929a2.4,2.4,0,1,1-3.042-1.509,2.4,2.4,0,0,1,3.042,1.509" transform="translate(-40.634 -29.59)" fill="#e55f78"/>
            <path id="Trazado_874631" data-name="Trazado 874631" d="M310,274.952s-6.908,20.16-9.177,50.621" transform="translate(-37.671 -34.431)" fill="none" stroke="#162c29" stroke-miterlimit="10" stroke-width="1"/>
            <path id="Trazado_874632" data-name="Trazado 874632" d="M280.981,241.786s1.764.43,1.75,1.088-4.565,1.082-4.454,1.013,4.835,1.81,4.181,3.5-7.288-2.046-7.288-2.046-4.332,6.257-6.019,5.606,1.628-4.833,1.628-4.833-3.236,2.591-3.967,1.806.484-2.119.484-2.119" transform="translate(-33.383 -30.278)" fill="none" stroke="#162c29" stroke-miterlimit="10" stroke-width="1"/>
            <path id="Trazado_874633" data-name="Trazado 874633" d="M253.366,229.835a15.536,15.536,0,0,0,30.493-5.97c-1.59-8.12-9.7-13.366-18.125-11.717s-13.957,9.567-12.368,17.687" transform="translate(-31.694 -26.528)" fill="#fcc467"/>
            <path id="Trazado_874634" data-name="Trazado 874634" d="M273.452,233.9a15.813,15.813,0,0,1,10.569,1.575,15.606,15.606,0,0,1-11.307,9.333,15.355,15.355,0,0,1-10.682-1.841,15.678,15.678,0,0,1,11.419-9.067" transform="translate(-32.813 -29.253)" fill="#ee7e3c"/>
            <path id="Trazado_874635" data-name="Trazado 874635" d="M281.138,218.674s-3.231,1.219-3.7,7.4c0,0-2.3-4.816-7.164-3.191s-2.991,7.129-2.991,7.129-6.639-6.4-14.149-1.137" transform="translate(-31.699 -27.384)" fill="none" stroke="#162c29" stroke-miterlimit="10" stroke-width="1"/>
            <line id="Línea_630" data-name="Línea 630" x2="4.318" y2="12.926" transform="translate(235.584 202.632)" fill="none" stroke="#162c29" stroke-miterlimit="10" stroke-width="1"/>
            <line id="Línea_631" data-name="Línea 631" x1="0.087" y2="14.42" transform="translate(245.653 198.694)" fill="none" stroke="#162c29" stroke-miterlimit="10" stroke-width="1"/>
            <line id="Línea_632" data-name="Línea 632" x1="0.06" y2="4.037" transform="translate(241.69 191.266)" fill="none" stroke="#162c29" stroke-miterlimit="10" stroke-width="1"/>
            <line id="Línea_633" data-name="Línea 633" x2="1.261" y2="4.473" transform="translate(237.11 191.102)" fill="none" stroke="#162c29" stroke-miterlimit="10" stroke-width="1"/>
            <line id="Línea_634" data-name="Línea 634" x2="2.761" y2="7.802" transform="translate(232.823 194.83)" fill="none" stroke="#162c29" stroke-miterlimit="10" stroke-width="1"/>
            <path id="Trazado_874636" data-name="Trazado 874636" d="M274.909,217.7a1.326,1.326,0,1,0,1.68-.834,1.326,1.326,0,0,0-1.68.834" transform="translate(-34.417 -27.149)" fill="#e55f78"/>
            <path id="Trazado_874637" data-name="Trazado 874637" d="M269.606,217.846a1.326,1.326,0,1,0,1.68-.834,1.326,1.326,0,0,0-1.68.834" transform="translate(-33.753 -27.167)" fill="#e55f78"/>
            <path id="Trazado_874638" data-name="Trazado 874638" d="M264.465,222.005a1.547,1.547,0,1,0,1.96-.972,1.547,1.547,0,0,0-1.96.972" transform="translate(-33.108 -27.669)" fill="#e55f78"/>
            <path id="Trazado_874639" data-name="Trazado 874639" d="M276.4,245.845a134.041,134.041,0,0,1,5.948,35.585" transform="translate(-34.613 -30.786)" fill="none" stroke="#162c29" stroke-linecap="round" stroke-linejoin="round" stroke-width="1"/>
            <path id="Trazado_874640" data-name="Trazado 874640" d="M295.52,323.468s1.971-8.472-5.494-16.193-19.107-17.345-18.477-19.429,12.228,8.034,15.556,13.2c0,0,1.3-11.425-14.872-20.45s-21.34-1.67-23.282,2.338c0,0-14.319-8.018-23.057,13.4s4.56,25.168,4.56,25.168-1.743-22.136,3.107-20.717-1.576,19.708,1.151,27.755,16.207,19.971,21.8,19.118-4.8-24.832-1.522-27.285-.888,18.543,13.59,29.248c5.322,3.936,14.34,4.661,23.618,4,0,0,7.232-17.828-.107-28.318s-25.717-22.693-23.768-27.347,27.195,25.508,27.195,25.508M242.484,305.1c-7.052.338-2.459-19.066,2.317-17.95,4.094.955,4.735,17.614-2.317,17.95m11.322,12.933c-6.03.463-4.3-15.906-.638-15.407s6.667,14.944.638,15.407m25.276,1.363c3.214-2.056,12.055,10.008,8.67,12.7s-11.818-10.681-8.67-12.7M265.5,295.573c-2.813,3.733-10-5.057-7.249-8.1,2.422-2.672,10.063,4.362,7.249,8.1" transform="translate(-27.915 -34.599)" fill="#005c4f"/>
            <path id="Trazado_874641" data-name="Trazado 874641" d="M252.677,283.884c-.1,2.279,6.148,11.58,14.605,24.058s25.544,36.572,28.644,46.633" transform="translate(-31.641 -35.55)" fill="none" stroke="#162c29" stroke-miterlimit="10" stroke-width="0.5"/>
            <path id="Trazado_874642" data-name="Trazado 874642" d="M237.98,311.419c5.288-1.195,1.54,19.1-2.525,34.806,0,0,14.881-6.7,24.3-16.44,0,0,12.9-42.041-25.543-35.8,0,0-3.252-16.6-17.206-16.619s-25.464,11.758-25.464,11.758l-1.663,3.71s22.138-12.951,25.325-6.474-17.5,4.929-29.407,18.9l-1.423,6.491s20.706-12.405,22.3-6.346-19.226,10.1-23.489,18.286-1.338,5.637-1.338,5.637,13.49-10.885,15.273-8.9-14.359,16.14-14.359,16.14-.578,9.245,3.631,14.1c0,0,14.282,4.914,19.8.555s10.887-23.636,13.061-23.849-8.055,24.607-8.055,24.607,11.42.364,14.788-3.175c0,0,6.714-36.2,12-37.393m-29.414-6.273c-1.747-2.565,10.143-9.712,11.289-6.3s-9.542,8.868-11.289,6.3M207,338.971c-4.868-1.067,4.9-17.405,7.314-16.325s-2.446,17.392-7.314,16.325m31.094-30.62c-3.722,2.342-6.807-8.174-3.354-10.413s7.076,8.072,3.354,10.413" transform="translate(-22.648 -34.734)" fill="#76c479"/>
            <path id="Trazado_874643" data-name="Trazado 874643" d="M183,344.566s14.818-6.521,20.425-8.761" transform="translate(-22.916 -42.051)" fill="none" stroke="#162c29" stroke-linecap="round" stroke-linejoin="round" stroke-width="1"/>
            <line id="Línea_635" data-name="Línea 635" y1="6.353" x2="14.327" transform="translate(160.367 300.888)" fill="none" stroke="#162c29" stroke-linecap="round" stroke-linejoin="round" stroke-width="1"/>
            <path id="Trazado_874644" data-name="Trazado 874644" d="M232.394,306.378s5.687,10.335,6.057,20.572" transform="translate(-29.102 -38.366)" fill="none" stroke="#162c29" stroke-linecap="round" stroke-linejoin="round" stroke-width="1"/>
            <path id="Trazado_874645" data-name="Trazado 874645" d="M228.441,310.664s4.785,21.212,3.5,42.317" transform="translate(-28.607 -38.903)" fill="none" stroke="#162c29" stroke-linecap="round" stroke-linejoin="round" stroke-width="1"/>
            <path id="Trazado_874646" data-name="Trazado 874646" d="M235,296.366s-34.287,35.427-47.822,56.687" transform="translate(-23.439 -37.113)" fill="none" stroke="#162c29" stroke-linecap="round" stroke-linejoin="round" stroke-width="1"/>
            <g id="Grupo_1099920" data-name="Grupo 1099920" transform="translate(221.755 227.256)" opacity="0.3" style="mix-blend-mode: overlay;isolation: isolate">
              <g id="Grupo_1099919" data-name="Grupo 1099919">
                <g id="Grupo_1099918" data-name="Grupo 1099918" clip-path="url(#clip-path-12)">
                  <path id="Trazado_874647" data-name="Trazado 874647" d="M288.609,262.015c12.306,10.433,8.2,38.8-16.83,33.373s-21.329-28.374-6.968-33.379,23.8.006,23.8.006" transform="translate(-253.5 -259.788)" fill="#fff"/>
                </g>
              </g>
            </g>
            <g id="Grupo_1099923" data-name="Grupo 1099923" transform="translate(131.213 251.86)" opacity="0.3" style="mix-blend-mode: overlay;isolation: isolate">
              <g id="Grupo_1099922" data-name="Grupo 1099922">
                <g id="Grupo_1099921" data-name="Grupo 1099921" clip-path="url(#clip-path-13)">
                  <path id="Trazado_874648" data-name="Trazado 874648" d="M153.6,289.179c5.072-4.447,10.852,3.875,6.853,8.908s-16.566-.391-6.853-8.908" transform="translate(-149.996 -287.914)" fill="#fff"/>
                </g>
              </g>
            </g>
            <g id="Grupo_1099926" data-name="Grupo 1099926" transform="translate(242.564 82.299)" opacity="0.3" style="mix-blend-mode: overlay;isolation: isolate">
              <g id="Grupo_1099925" data-name="Grupo 1099925">
                <g id="Grupo_1099924" data-name="Grupo 1099924" clip-path="url(#clip-path-14)">
                  <path id="Trazado_874649" data-name="Trazado 874649" d="M283.115,96.125c8.2-7.194,17.557,6.269,11.086,14.411s-26.8-.632-11.086-14.411" transform="translate(-277.287 -94.08)" fill="#fff"/>
                </g>
              </g>
            </g>
            <g id="Grupo_1099929" data-name="Grupo 1099929" transform="translate(255.137 175.789)" opacity="0.3" style="mix-blend-mode: overlay;isolation: isolate">
              <g id="Grupo_1099928" data-name="Grupo 1099928">
                <g id="Grupo_1099927" data-name="Grupo 1099927" clip-path="url(#clip-path-15)">
                  <path id="Trazado_874650" data-name="Trazado 874650" d="M299.423,203.679c10.929-9.582,23.385,8.35,14.766,19.2s-35.7-.843-14.766-19.2" transform="translate(-291.66 -200.954)" fill="#fff"/>
                </g>
              </g>
            </g>
            <g id="Grupo_1099932" data-name="Grupo 1099932" transform="translate(80.204 194.693)" opacity="0.3" style="mix-blend-mode: overlay;isolation: isolate">
              <g id="Grupo_1099931" data-name="Grupo 1099931">
                <g id="Grupo_1099930" data-name="Grupo 1099930" clip-path="url(#clip-path-16)">
                  <path id="Trazado_874651" data-name="Trazado 874651" d="M126.727,224.787c12.283,10.412,8.181,38.727-16.8,33.308s-21.287-28.32-6.954-33.312,23.75,0,23.75,0" transform="translate(-91.686 -222.564)" fill="#fff"/>
                </g>
              </g>
            </g>
            <g id="Grupo_1099935" data-name="Grupo 1099935" transform="translate(105.941 78.556)" opacity="0.3" style="mix-blend-mode: overlay;isolation: isolate">
              <g id="Grupo_1099934" data-name="Grupo 1099934">
                <g id="Grupo_1099933" data-name="Grupo 1099933" clip-path="url(#clip-path-17)">
                  <path id="Trazado_874652" data-name="Trazado 874652" d="M138.746,90.922c6.183,5.242,4.118,19.493-8.455,16.766s-10.716-14.255-3.5-16.769,11.956,0,11.956,0" transform="translate(-121.107 -89.802)" fill="#fff"/>
                </g>
              </g>
            </g>
            <g id="Grupo_1099938" data-name="Grupo 1099938" transform="translate(94.163 89.068)" opacity="0.3" style="mix-blend-mode: overlay;isolation: isolate">
              <g id="Grupo_1099937" data-name="Grupo 1099937">
                <g id="Grupo_1099936" data-name="Grupo 1099936" clip-path="url(#clip-path-18)">
                  <path id="Trazado_874653" data-name="Trazado 874653" d="M116.046,102.352c2.945,2.5,1.962,9.287-4.028,7.988s-5.1-6.792-1.667-7.988a7.513,7.513,0,0,1,5.7,0" transform="translate(-107.643 -101.818)" fill="#fff"/>
                </g>
              </g>
            </g>
            <g id="Grupo_1099941" data-name="Grupo 1099941" transform="translate(47.176 213.689)" opacity="0.3" style="mix-blend-mode: overlay;isolation: isolate">
              <g id="Grupo_1099940" data-name="Grupo 1099940">
                <g id="Grupo_1099939" data-name="Grupo 1099939" clip-path="url(#clip-path-19)">
                  <path id="Trazado_874654" data-name="Trazado 874654" d="M62.332,244.813c2.945,2.5,1.962,9.287-4.028,7.988s-5.1-6.792-1.667-7.988a7.512,7.512,0,0,1,5.7,0" transform="translate(-53.929 -244.279)" fill="#fff"/>
                </g>
              </g>
            </g>
            <g id="Grupo_1099944" data-name="Grupo 1099944" transform="translate(121.861 258.054)" opacity="0.3" style="mix-blend-mode: overlay;isolation: isolate">
              <g id="Grupo_1099943" data-name="Grupo 1099943">
                <g id="Grupo_1099942" data-name="Grupo 1099942" clip-path="url(#clip-path-20)">
                  <path id="Trazado_874655" data-name="Trazado 874655" d="M145.777,297.267c9.111-7.989,19.494,6.961,12.31,16s-29.757-.7-12.31-16" transform="translate(-139.306 -294.995)" fill="#fff"/>
                </g>
              </g>
            </g>
            <g id="Grupo_1099947" data-name="Grupo 1099947" transform="translate(295.607 189.116)" opacity="0.3" style="mix-blend-mode: overlay;isolation: isolate">
              <g id="Grupo_1099946" data-name="Grupo 1099946">
                <g id="Grupo_1099945" data-name="Grupo 1099945" clip-path="url(#clip-path-21)">
                  <path id="Trazado_874656" data-name="Trazado 874656" d="M341.805,217.55c5.464-4.791,11.692,4.174,7.383,9.6s-17.847-.422-7.383-9.6" transform="translate(-337.924 -216.188)" fill="#fff"/>
                </g>
              </g>
            </g>
            <path id="Trazado_874657" data-name="Trazado 874657" d="M11.936,124.565c.247.777-.788,1.8-2.31,2.281s-2.957.243-3.2-.534.788-1.8,2.311-2.281,2.957-.243,3.2.533" transform="translate(-0.8 -15.501)" fill="#0d1f21"/>
            <path id="Trazado_874658" data-name="Trazado 874658" d="M35.028,113.5c.247.777-.788,1.8-2.31,2.281s-2.957.244-3.2-.533.789-1.8,2.311-2.281,2.957-.244,3.2.533" transform="translate(-3.691 -14.115)" fill="#0d1f21"/>
            <path id="Trazado_874659" data-name="Trazado 874659" d="M5.55,178.374c.247.777-.788,1.8-2.31,2.281s-2.957.244-3.2-.533.788-1.8,2.311-2.281,2.957-.244,3.2.533" transform="translate(0 -22.239)" fill="#0d1f21"/>
            <path id="Trazado_874660" data-name="Trazado 874660" d="M55.351,130.445c.247.777-.788,1.8-2.311,2.281s-2.956.244-3.2-.533.788-1.8,2.311-2.281,2.956-.244,3.2.533" transform="translate(-6.236 -16.237)" fill="#0d1f21"/>
            <path id="Trazado_874661" data-name="Trazado 874661" d="M9.746,154.307c.415,1.075-1.011,2.625-3.184,3.463s-4.27.646-4.684-.43,1.011-2.625,3.183-3.463,4.271-.646,4.685.43" transform="translate(-0.226 -19.204)" fill="#0d1f21"/>
            <path id="Trazado_874662" data-name="Trazado 874662" d="M29.717,152.081c.415,1.075-1.011,2.625-3.184,3.463s-4.27.646-4.684-.43,1.011-2.625,3.183-3.463,4.271-.646,4.685.43" transform="translate(-2.727 -18.925)" fill="#0d1f21"/>
            <path id="Trazado_874663" data-name="Trazado 874663" d="M34.567,135.885c.239.524-1.284,1.733-3.4,2.7s-4.029,1.326-4.269.8,1.284-1.733,3.4-2.7,4.03-1.326,4.269-.8" transform="translate(-3.365 -16.986)" fill="#0d1f21"/>
            <path id="Trazado_874664" data-name="Trazado 874664" d="M392.03,253.743c.247.777-.788,1.8-2.31,2.281s-2.957.244-3.2-.533.789-1.8,2.311-2.281,2.957-.244,3.2.533" transform="translate(-48.397 -31.677)" fill="#0d1f21"/>
            <path id="Trazado_874665" data-name="Trazado 874665" d="M392.03,208.514c.247.777-.788,1.8-2.311,2.281s-2.956.244-3.2-.533.789-1.8,2.311-2.281,2.957-.244,3.2.533" transform="translate(-48.397 -26.013)" fill="#0d1f21"/>
            <path id="Trazado_874666" data-name="Trazado 874666" d="M355.348,265.5c.247.777-.788,1.8-2.311,2.281s-2.956.244-3.2-.533.789-1.8,2.311-2.281,2.957-.244,3.2.533" transform="translate(-43.804 -33.149)" fill="#0d1f21"/>
            <path id="Trazado_874667" data-name="Trazado 874667" d="M373.725,269.4c.247.777-.788,1.8-2.311,2.281s-2.956.244-3.2-.533.788-1.8,2.311-2.281,2.956-.244,3.2.533" transform="translate(-46.105 -33.638)" fill="#0d1f21"/>
            <path id="Trazado_874668" data-name="Trazado 874668" d="M364.777,226.244c.415,1.075-1.011,2.625-3.185,3.463s-4.27.646-4.684-.43,1.011-2.625,3.183-3.463,4.271-.646,4.686.43" transform="translate(-44.685 -28.212)" fill="#0d1f21"/>
            <path id="Trazado_874669" data-name="Trazado 874669" d="M363.149,246.721c.415,1.075-1.011,2.625-3.184,3.463s-4.27.646-4.684-.43,1.011-2.625,3.184-3.463,4.27-.646,4.684.43" transform="translate(-44.481 -30.777)" fill="#0d1f21"/>
            <path id="Trazado_874670" data-name="Trazado 874670" d="M392.956,229.6c.239.524-1.284,1.733-3.4,2.7s-4.029,1.326-4.269.8,1.284-1.733,3.4-2.7,4.03-1.326,4.269-.8" transform="translate(-48.244 -28.722)" fill="#0d1f21"/>
          </g>
        </g>
      </g>
    </g>
  </g>
</svg>
