<svg xmlns="http://www.w3.org/2000/svg" width="85.156" height="85.156" viewBox="0 0 85.156 85.156">
  <g id="campo-" transform="translate(0 -0.501)">
    <path id="Trazado_874671" data-name="Trazado 874671" d="M105,216.164h37.644v18.39H105Zm0,0" transform="translate(-87.536 -179.794)" fill="#fea02c"/>
    <path id="Trazado_874672" data-name="Trazado 874672" d="M146.318,255.615V250H139v3.224Zm0,0" transform="translate(-115.881 -207.999)" fill="#ff5d5d"/>
    <path id="Trazado_874673" data-name="Trazado 874673" d="M26.311,293.367A76.693,76.693,0,0,1,50.3,268.8l.368-.516A76.729,76.729,0,0,0,10,256.625v40.894H23.777Zm0,0" transform="translate(-8.337 -213.525)" fill="#62cd4d"/>
    <path id="Trazado_874674" data-name="Trazado 874674" d="M92.832,297.379l2.534-4.152a76.757,76.757,0,0,1,65.519-36.77v40.922Zm0,0" transform="translate(-77.392 -213.385)" fill="#a0e557"/>
    <path id="Trazado_874675" data-name="Trazado 874675" d="M105,169.2l9.314-9.369,9.314,9.369Zm0,0" transform="translate(-87.536 -132.831)" fill="#fe8f8d"/>
    <path id="Trazado_874676" data-name="Trazado 874676" d="M189.33,169.2l-9.314-9.369H161l9.314,9.369Zm0,0" transform="translate(-134.222 -132.831)" fill="#ff5d5d"/>
    <g id="Grupo_1099952" data-name="Grupo 1099952" transform="translate(1.663 2.164)">
      <path id="Trazado_874677" data-name="Trazado 874677" d="M360.724,46.651c-12.416-9.983-12.416-26.169,0-36.151C373.139,20.483,373.139,36.668,360.724,46.651Zm0,0" transform="translate(-294.628 -10.5)" fill="#a0e557"/>
      <path id="Trazado_874678" data-name="Trazado 874678" d="M28.712,73.664c-9.387-7.547-9.387-19.784,0-27.332C38.1,53.88,38.1,66.116,28.712,73.664Zm0,0" transform="translate(-19.731 -40.372)" fill="#a0e557"/>
      <path id="Trazado_874679" data-name="Trazado 874679" d="M39.976,338.6A64.324,64.324,0,0,0,10,331.125v13.389a50.811,50.811,0,0,1,20.766,4.468" transform="translate(-10 -277.798)" fill="#a0e557"/>
    </g>
    <path id="Trazado_874680" data-name="Trazado 874680" d="M180.547,359.488a64.788,64.788,0,0,1,53.464-28.531v13.389a51.323,51.323,0,0,0-36.225,15.142Zm0,0" transform="translate(-150.518 -275.494)" fill="#62cd4d"/>
    <path id="Trazado_874681" data-name="Trazado 874681" d="M312.086,401.457a53.146,53.146,0,0,0-37.4,15.632,1.663,1.663,0,0,0,2.358,2.346,49.8,49.8,0,0,1,35.046-14.652,1.663,1.663,0,1,0,0-3.326Zm0,0" transform="translate(-228.592 -334.269)"/>
    <path id="Trazado_874682" data-name="Trazado 874682" d="M190.988,388.524a1.662,1.662,0,0,0-2.309-.447,65.648,65.648,0,0,0-17.854,17.865,1.663,1.663,0,1,0,2.762,1.855,62.321,62.321,0,0,1,16.954-16.964A1.663,1.663,0,0,0,190.988,388.524Zm0,0" transform="translate(-142.178 -322.876)"/>
    <path id="Trazado_874683" data-name="Trazado 874683" d="M386.8,320.957a65.41,65.41,0,0,0-21.874,3.775,1.663,1.663,0,1,0,1.11,3.135,62.1,62.1,0,0,1,20.765-3.584,1.663,1.663,0,1,0,0-3.326Zm0,0" transform="translate(-303.304 -267.157)"/>
    <path id="Trazado_874684" data-name="Trazado 874684" d="M23.83,74.244A75.807,75.807,0,0,1,68.09,46.359l.009,0a74.129,74.129,0,0,1,15.394-1.622,1.663,1.663,0,1,0,0-3.326,78.267,78.267,0,0,0-14.071,1.279V39.1c6.012-5.089,9.311-11.757,9.311-18.859C78.734,12.9,75.206,6.018,68.8.868a1.664,1.664,0,0,0-2.085,0c-6.4,5.15-9.932,12.03-9.932,19.372,0,7.1,3.3,13.77,9.311,18.859v4.27a78.754,78.754,0,0,0-9.324,2.74V36.37a1.657,1.657,0,0,0-.483-1.172h0l-9.314-9.369a1.665,1.665,0,0,0-1.18-.491H26.778a1.663,1.663,0,0,0-1.179.491L16.285,35.2h0a1.658,1.658,0,0,0-.484,1.173v6.351q-1.739-.319-3.493-.559V36.234a18.982,18.982,0,0,0,7.04-14.444c0-5.676-2.721-10.99-7.661-14.962a1.663,1.663,0,0,0-2.084,0C4.662,10.8,1.941,16.114,1.941,21.79a18.982,18.982,0,0,0,7.04,14.443V41.78q-3.638-.34-7.318-.344a1.663,1.663,0,0,0,0,3.326A75.016,75.016,0,0,1,39.438,54.957a78.513,78.513,0,0,0-7.856,6.1A66.169,66.169,0,0,0,1.663,53.828a1.663,1.663,0,1,0,0,3.326,62.789,62.789,0,0,1,27.305,6.321A78.6,78.6,0,0,0,21.9,71.3,52.027,52.027,0,0,0,1.663,67.216a1.663,1.663,0,0,0,0,3.326,48.676,48.676,0,0,1,18.16,3.511q-1.724,2.4-3.269,4.921L14.02,83.127A1.663,1.663,0,1,0,16.86,84.86l2.534-4.152a73.841,73.841,0,0,1,4.272-6.249A1.573,1.573,0,0,0,23.83,74.244Zm36.281-54c0-5.912,2.7-11.511,7.648-15.9,4.944,4.388,7.648,9.988,7.648,15.9a20.7,20.7,0,0,1-5.985,14.287V21.79a1.663,1.663,0,1,0-3.326,0V34.526A20.7,20.7,0,0,1,60.111,20.24ZM5.268,21.79a15.564,15.564,0,0,1,5.377-11.474A15.563,15.563,0,0,1,16.021,21.79a15.037,15.037,0,0,1-3.714,9.737V20.459a1.663,1.663,0,0,0-3.326,0V31.527A15.037,15.037,0,0,1,5.268,21.79ZM51.109,34.707H36.784l-6.007-6.043H45.1ZM26.778,29.36l5.316,5.347H21.463Zm-7.651,8.673h15.3V48.61q-1.157-.532-2.328-1.027V42a1.664,1.664,0,0,0-1.663-1.663H23.119A1.664,1.664,0,0,0,21.455,42v1.978q-1.16-.3-2.328-.57Zm9.647,8.237q-1.978-.729-3.992-1.351V43.66h3.992Zm8.981,3.967v-12.2h15.69V47.4a78.06,78.06,0,0,0-8.332,4.043q-1.294.726-2.558,1.5Q40.2,51.5,37.755,50.238Zm0,0" transform="translate(0)"/>
    <path id="Trazado_874685" data-name="Trazado 874685" d="M399.062,83.826a1.666,1.666,0,1,0-1.175-.488A1.674,1.674,0,0,0,399.062,83.826Zm0,0" transform="translate(-331.303 -66.693)"/>
    <path id="Trazado_874686" data-name="Trazado 874686" d="M318.155,363.324a1.661,1.661,0,1,0,1.176-.488A1.678,1.678,0,0,0,318.155,363.324Zm0,0" transform="translate(-264.833 -302.071)"/>
  </g>
</svg>
