<svg xmlns="http://www.w3.org/2000/svg" width="43.362" height="74.679" viewBox="0 0 43.362 74.679">
  <g id="caminar" transform="translate(-14 -1)">
    <path id="Trazado_874687" data-name="Trazado 874687" d="M41.5,36l4.818,10.84,4.818,14.454a4.629,4.629,0,0,1,4.49,3.505l.328,1.313-9.637,1.2L40.294,49.249l-6.022-8.431L31.863,52.863,22.227,62.5a4.358,4.358,0,0,1,2.409,3.9v.92h-.912A12.337,12.337,0,0,1,15,63.7L25.84,49.249,28.249,36" transform="translate(0.205 7.157)" fill="#19529d"/>
    <path id="Trazado_874688" data-name="Trazado 874688" d="M17,63.7a12.335,12.335,0,0,0,7.227,3.512V66.4a4.358,4.358,0,0,0-2.409-3.9l9.636-9.636,2.409-12.045,6.022,8.431,6.021,18.067,9.637-1.2L55.216,64.8a4.629,4.629,0,0,0-4.49-3.505L45.908,46.84,41.09,36H30.249L27.84,49.249Z" transform="translate(0.614 7.157)" fill="#2769b3"/>
    <path id="Trazado_874689" data-name="Trazado 874689" d="M35.148,19.876l.5-3.517-4.7-2.2-1.649,3.779Z" transform="translate(3.13 2.691)" fill="#d69475"/>
    <path id="Trazado_874690" data-name="Trazado 874690" d="M30.6,14.83l-1.3,2.97,5.841,1.938.332-2.328A7.212,7.212,0,0,1,30.6,14.83Z" transform="translate(3.13 2.828)" fill="#e8a885"/>
    <path id="Trazado_874691" data-name="Trazado 874691" d="M37,27l3.613,3.613,1.7.566a2.8,2.8,0,0,1-.887,5.456,2.679,2.679,0,0,1-1.49-.452L37,34.227" transform="translate(4.703 5.317)" fill="#e8a885"/>
    <path id="Trazado_874692" data-name="Trazado 874692" d="M27.024,22.009A5.558,5.558,0,0,1,30.818,17l1.483.424a9.58,9.58,0,0,1,6.949,9.212V39.885H26Z" transform="translate(2.454 3.272)" fill="#4fa04b"/>
    <path id="Trazado_874693" data-name="Trazado 874693" d="M31.892,17.352l-.007,0a5.552,5.552,0,0,0-2.861,4.588L28,39.814H38.84V26.564a9.579,9.579,0,0,0-6.949-9.212Z" transform="translate(2.863 3.343)" fill="#6bb566"/>
    <path id="Trazado_874694" data-name="Trazado 874694" d="M29.431,29.636l-4.2,8.4a2.234,2.234,0,0,1-4.231-1,6.741,6.741,0,0,1,.543-2.649l3.07-7.163,5.047-6.056A3.252,3.252,0,0,1,32.16,20H32.2a3.254,3.254,0,0,1,2.033,5.794Z" transform="translate(1.431 3.885)" fill="#f6ba91"/>
    <path id="Trazado_874695" data-name="Trazado 874695" d="M34.376,23.253A3.253,3.253,0,0,0,31.122,20h-.041a3.252,3.252,0,0,0-2.5,1.171l-2.309,2.772,4.088,4.088,2.794-2.237A3.257,3.257,0,0,0,34.376,23.253Z" transform="translate(2.51 3.885)" fill="#3d8738"/>
    <path id="Trazado_874696" data-name="Trazado 874696" d="M36.227,2A7.227,7.227,0,0,0,29,9.227v2.409a7.227,7.227,0,1,0,14.454,0V9.227A7.227,7.227,0,0,0,36.227,2Z" transform="translate(3.067 0.204)" fill="#e8a885"/>
    <path id="Trazado_874697" data-name="Trazado 874697" d="M36.022,2a7.2,7.2,0,0,0-4.469,1.554A7.2,7.2,0,0,0,30,8.022v2.409A7.221,7.221,0,0,0,41.7,16.1a7.2,7.2,0,0,0,1.554-4.469V9.227A7.227,7.227,0,0,0,36.022,2Z" transform="translate(3.272 0.204)" fill="#f6ba91"/>
    <path id="Trazado_874698" data-name="Trazado 874698" d="M22.78,42.754A10.732,10.732,0,0,1,16,32.741V32h2.409v.741a8.337,8.337,0,0,0,5.265,7.777Z" transform="translate(0.409 6.339)" fill="#8edff8"/>
    <path id="Trazado_874699" data-name="Trazado 874699" d="M16,28h2.409v2.409H16Z" transform="translate(0.409 5.521)" fill="#8edff8"/>
    <path id="Trazado_874700" data-name="Trazado 874700" d="M35.022,9.227h8.431A7.227,7.227,0,1,0,29,9.227v2.409a7.219,7.219,0,0,0,3.288,6.055l2.734-3.646Z" transform="translate(3.067 0.204)" fill="#3f4042"/>
    <path id="Trazado_874701" data-name="Trazado 874701" d="M36.022,2a7.2,7.2,0,0,0-4.469,1.554A7.2,7.2,0,0,0,30,8.022v2.409a7.212,7.212,0,0,0,3.088,5.919l1.73-2.305V9.227h8.431A7.227,7.227,0,0,0,36.022,2Z" transform="translate(3.272 0.204)" fill="#5a5b5d"/>
    <path id="Trazado_874702" data-name="Trazado 874702" d="M15,59.595a12.337,12.337,0,0,0,8.724,3.613h.912v-.92a4.358,4.358,0,0,0-2.409-3.9l-4.6-2.3Z" transform="translate(0.205 11.266)" fill="#959595"/>
    <path id="Trazado_874703" data-name="Trazado 874703" d="M50.888,61.818l-.328-1.313A4.629,4.629,0,0,0,46.07,57l-6.3,1.575,1.483,4.447Z" transform="translate(5.269 11.452)" fill="#959595"/>
    <path id="Trazado_874704" data-name="Trazado 874704" d="M19.934,61.728A12.391,12.391,0,0,0,24,62.957v-.818a4.358,4.358,0,0,0-2.409-3.9l-2.847-1.424A3.288,3.288,0,0,0,19.934,61.728Z" transform="translate(0.837 11.414)" fill="#b4b4b4"/>
    <path id="Trazado_874705" data-name="Trazado 874705" d="M50.3,60.505A4.629,4.629,0,0,0,45.805,57l-4.743,1.186a5.712,5.712,0,0,0,5.78,3.051l3.526-.441Z" transform="translate(5.534 11.452)" fill="#b4b4b4"/>
    <path id="Trazado_874706" data-name="Trazado 874706" d="M23.927,75.679h.913a1.2,1.2,0,0,0,1.2-1.2v-.92A5.529,5.529,0,0,0,24.294,69.5l8.625-8.625a1.2,1.2,0,0,0,.329-.615l1.865-9.319,4.3,6.022,5.965,17.9a1.2,1.2,0,0,0,1.142.824,1.054,1.054,0,0,0,.151-.01l9.637-1.2a1.2,1.2,0,0,0,1.019-1.488L57,71.665a5.823,5.823,0,0,0-4.767-4.351L47.624,53.509,42.908,42.9V41.794l1.065.709a3.877,3.877,0,0,0,2.158.654,4,4,0,0,0,1.266-7.8l-1.43-.477-3.059-3.058v-1.91a10.812,10.812,0,0,0-3.348-7.8l.266-1.867a8.436,8.436,0,0,0,7.9-8.4V9.431a8.431,8.431,0,1,0-16.863,0V11.84a8.388,8.388,0,0,0,1.819,5.214l-1.206,2.762a6.791,6.791,0,0,0-3.2,5.395l-.083,1.443-3.073,3.687a1.184,1.184,0,0,0-.181.3L21.868,37.8a7.881,7.881,0,0,0-.641,3.123,3.434,3.434,0,0,0,5.991,2.3L24.91,55.912,14.241,70.138a1.2,1.2,0,0,0,.112,1.574,13.447,13.447,0,0,0,9.575,3.966Zm30.731-3.436-7.308.914-.759-2.276,4.858-1.215A3.415,3.415,0,0,1,54.659,72.242ZM44.465,36.782a1.2,1.2,0,0,0,.471.291l1.7.566a1.6,1.6,0,0,1-.5,3.109,1.475,1.475,0,0,1-.823-.249l-2.4-1.6V35.225ZM40.5,29.908V41.953H29.73l.224-3.919L31.822,34.3l4.6-3.677a4.455,4.455,0,0,0-5.131-7.267,4.381,4.381,0,0,1,2.038-1.814l1.1.314A8.412,8.412,0,0,1,40.5,29.908Zm-8.481-4.082a2.077,2.077,0,0,1,3.663,1.313,2.034,2.034,0,0,1-.77,1.6L32.959,30.3l-2.548-2.548Zm3.067-6.289-.762-.218.225-.517a8.381,8.381,0,0,0,2.872,1.251l-.061.434a10.679,10.679,0,0,0-2.273-.95Zm4.21-1.674a5.951,5.951,0,0,1-2.108-.4l1.867-2.49a1.2,1.2,0,0,0,.241-.723V10.636h6.022v1.2a6.029,6.029,0,0,1-6.022,6.022ZM33.272,9.431A6.022,6.022,0,0,1,45.2,8.227H38.09a1.2,1.2,0,0,0-1.2,1.2v4.417l-1.749,2.331a5.994,5.994,0,0,1-1.865-4.339ZM25.585,41.383a1.028,1.028,0,0,1-1.949-.459,5.5,5.5,0,0,1,.446-2.174l3-7,1.78-2.137,2.2,2.2-.956.766a1.222,1.222,0,0,0-.325.4Zm1.424,15.746a1.2,1.2,0,0,0,.222-.507l2.228-12.261H40.92L45.38,54.378,49.786,67.6l-3.958.99L41.641,56.025a1.158,1.158,0,0,0-.163-.319l-6.022-8.431a1.2,1.2,0,0,0-2.161.464L30.958,59.425l-8.764,8.764-2.532-1.266ZM18.193,68.884l3.7,1.85a3.139,3.139,0,0,1,1.731,2.532,11.04,11.04,0,0,1-6.8-2.556Z"/>
    <path id="Trazado_874707" data-name="Trazado 874707" d="M22.78,42.754l.894-2.236a8.338,8.338,0,0,1-5.265-7.777V32H16v.741A10.732,10.732,0,0,0,22.78,42.754Z" transform="translate(0.409 6.339)"/>
    <path id="Trazado_874708" data-name="Trazado 874708" d="M16,28h2.409v2.409H16Z" transform="translate(0.409 5.521)"/>
  </g>
</svg>
