<svg xmlns="http://www.w3.org/2000/svg" xmlns:xlink="http://www.w3.org/1999/xlink" width="295" height="246" viewBox="0 0 295 246">
  <defs>
    <clipPath id="clip-path">
      <rect id="Rectángulo_401608" data-name="Rectángulo 401608" width="232.901" height="196.04" fill="none"/>
    </clipPath>
    <clipPath id="clip-path-3">
      <rect id="Rectángulo_401598" data-name="Rectángulo 401598" width="52.654" height="9.028" fill="none"/>
    </clipPath>
    <clipPath id="clip-path-4">
      <rect id="Rectángulo_401599" data-name="Rectángulo 401599" width="3.448" height="1.806" fill="none"/>
    </clipPath>
    <clipPath id="clip-path-5">
      <rect id="Rectángulo_401600" data-name="Rectángulo 401600" width="32.478" height="22.272" fill="none"/>
    </clipPath>
    <clipPath id="clip-path-6">
      <rect id="Rectángulo_401601" data-name="Rectángulo 401601" width="18.538" height="28.389" fill="none"/>
    </clipPath>
    <clipPath id="clip-path-7">
      <rect id="Rectángulo_401602" data-name="Rectángulo 401602" width="13.124" height="6.663" fill="none"/>
    </clipPath>
    <clipPath id="clip-path-8">
      <rect id="Rectángulo_401603" data-name="Rectángulo 401603" width="1.819" height="18.872" fill="none"/>
    </clipPath>
    <clipPath id="clip-path-9">
      <rect id="Rectángulo_401604" data-name="Rectángulo 401604" width="4.391" height="16.118" fill="none"/>
    </clipPath>
    <clipPath id="clip-path-10">
      <rect id="Rectángulo_401605" data-name="Rectángulo 401605" width="1.901" height="0.499" fill="none"/>
    </clipPath>
    <clipPath id="clip-path-11">
      <rect id="Rectángulo_401606" data-name="Rectángulo 401606" width="14.227" height="11.21" fill="none"/>
    </clipPath>
  </defs>
  <g id="Grupo_1100140" data-name="Grupo 1100140" transform="translate(-709.051 -4155)">
    <g id="Grupo_1099083" data-name="Grupo 1099083" transform="translate(2.32 1062)">
      <g id="Grupo_133939" data-name="Grupo 133939" transform="translate(106.475 2689)">
        <rect id="Rectángulo_35929" data-name="Rectángulo 35929" width="295" height="246" transform="translate(600.256 404)" fill="#769671"/>
      </g>
      <path id="Trazado_873158" data-name="Trazado 873158" d="M-17828.787-8785.94l-2.592,14.193,2.592,39.025,4.869,26.351-7.461,53.177,2.592,17.692v26.006l24.242,10.614,9.033,7.906,5.445,5.676,4.561-1.874h6.346l2.84,1.874,7.643-1.874s.027.081,1.316,0,10.51,2.19,12.217,1.874,7.191-1.874,7.191-1.874.453.7,5.492,0,13.82,0,13.82,0,4.572-4.809,7.971-3.8,11.107-.671,13.082,0,1.7-2.4,7.432,0a105.974,105.974,0,0,0,10.645,3.8l8.293-3.8s4.109-2.824,5.648,0,3.408,4.493,5.234,3.8,4.984,1.271,7.02,0,6.273-9.687,10.227-3.8,12.045,9.253,12.045,9.253l3.752-5.451,6.355-3.8s11.672,4.613,13.6,3.8,7.5-.28,10.109,0,7.514,1.433,9.779,0a79.184,79.184,0,0,1,7.879-3.8s5.133-2.639,7.109,0,1.457,3.708,3.289,3.8,5.648,2.22,6.344,0,.816-.442,2.023-3.8,5.338-7.906,5.338-7.906,2.2-16.43,0-19.463-2.49-5.853-3.455-8.978a92.716,92.716,0,0,1-1.883-10.754l1.883-27.959v-5.345s2.953-4.42,3.455-6.73-.064,1.652,0-7.781-.6-15.782,0-20.479-.268-9.376,0-11.406-4.127-4.819-3.455-7.355,0-7.589,0-7.589,3.42-.909,3.455-2.382-.627-6.189,0-10.611.158-13.992,0-15.511.291-3,0-5.7,0-9.9,0-9.9l-3.455-14.278s-5.66-7.8-7.211-9.78-13.437-10.387-13.437-10.387.637,5.033-7.879,5.072-11.77-1.306-13.379,0-19.512-1.783-20.113,0-14.422,2.147-14.422,2.147a59.964,59.964,0,0,0-7.73-2.147c-3.908-.764-17.246,0-17.246,0s-10.555.01-10.883,0-13.248-1.9-14.91-2.206-15.922-5.321-16.875-2.866-10.219,1.773-11.176,2.866-7.684,2.353-10.535,2.206-13.238,2.147-13.238,2.147h-18.145s-6.3-9.1-11.352-7.22-21.365,2.866-21.365,2.866-11.658,3.731-12.162,4.354-2.309,8.039-2.309,8.039-7.988,4.286-9.01,4.908S-17828.787-8785.94-17828.787-8785.94Z" transform="translate(18552.109 11912.937)" fill="#c8d5c6"/>
    </g>
    <g id="Grupo_1100139" data-name="Grupo 1100139" transform="translate(740.051 4180)">
      <g id="Grupo_1100138" data-name="Grupo 1100138" clip-path="url(#clip-path)">
        <g id="Grupo_1100137" data-name="Grupo 1100137">
          <g id="Grupo_1100136" data-name="Grupo 1100136" clip-path="url(#clip-path)">
            <path id="Trazado_875156" data-name="Trazado 875156" d="M76.314,11.875h0A10.133,10.133,0,0,0,66.1,21.865V64.7c-.648,15.986-17.7,16.8-17.7,45.514v59.265a13.058,13.058,0,0,0,13.161,12.875h29.5a13.059,13.059,0,0,0,13.163-12.875V61.38c0-15.1-3.537-16.112-10.779-20.2a13.607,13.607,0,0,1-6.921-11.447V21.865a10.133,10.133,0,0,0-10.212-9.99" transform="translate(-17.903 -4.392)" fill="#608f61" fill-rule="evenodd"/>
            <path id="Trazado_875157" data-name="Trazado 875157" d="M82.421,58.948a1.239,1.239,0,0,0-2.478,0V86.654L74.112,83.36a.749.749,0,0,0-1.011.267.716.716,0,0,0,.272.989l6.57,3.711v39.628L62.671,118.2a.748.748,0,0,0-1.009.268.711.711,0,0,0,.273.986l18.008,10.172v38l-17.272-9.754a.748.748,0,0,0-1.009.267.714.714,0,0,0,.273.989L79.943,169.3v43.687a1.239,1.239,0,0,0,2.478,0V179.413l14.79-8.354a.716.716,0,0,0,.273-.989.75.75,0,0,0-1.011-.267l-14.052,7.938V145.976l14.79-8.355a.716.716,0,0,0,.273-.989.75.75,0,0,0-1.011-.266L82.421,144.3V112.54l14.79-8.354a.717.717,0,0,0,.273-.989.75.75,0,0,0-1.011-.266l-14.052,7.936V79.1l14.79-8.353a.716.716,0,0,0,.273-.989.749.749,0,0,0-1.011-.267L82.421,77.43Z" transform="translate(-22.771 -21.355)" fill="#456c61" fill-rule="evenodd"/>
            <path id="Trazado_875158" data-name="Trazado 875158" d="M22.47,69.237h0a8.156,8.156,0,0,0-8.221,8.042v34.487C13.728,124.633,0,125.289,0,148.4v47.708a10.513,10.513,0,0,0,10.6,10.364H34.344a10.512,10.512,0,0,0,10.6-10.364V109.088c0-12.152-2.848-12.97-8.677-16.262a10.958,10.958,0,0,1-5.572-9.215V77.279a8.156,8.156,0,0,0-8.221-8.042" transform="translate(0 -25.609)" fill="#88ab7c" fill-rule="evenodd"/>
            <path id="Trazado_875159" data-name="Trazado 875159" d="M27.387,107.131a1,1,0,0,0-1.995,0v22.3L20.7,126.783a.6.6,0,0,0-.813.214.576.576,0,0,0,.219.8l5.289,2.987v31.9l-13.9-7.853a.6.6,0,0,0-.813.216.573.573,0,0,0,.22.794l14.5,8.188v30.59l-13.9-7.851a.6.6,0,0,0-.813.214.575.575,0,0,0,.22.8l14.5,8.188v35.168a1,1,0,0,0,1.995,0V204.1l11.906-6.725a.576.576,0,0,0,.22-.8.6.6,0,0,0-.813-.215l-11.313,6.39V177.189l11.906-6.725a.576.576,0,0,0,.22-.8.6.6,0,0,0-.813-.215l-11.313,6.389v-25.57l11.906-6.725a.576.576,0,0,0,.22-.8.6.6,0,0,0-.813-.214l-11.313,6.388v-25.57l11.906-6.724a.576.576,0,0,0,.22-.8.6.6,0,0,0-.813-.215l-11.313,6.389Z" transform="translate(-3.919 -39.264)" fill="#456c61" fill-rule="evenodd"/>
            <path id="Trazado_875160" data-name="Trazado 875160" d="M204.464,214.981S184.611,75.247,126.619,82.955,36.24,215.3,36.24,215.3Z" transform="translate(-13.404 -30.569)" fill="#dd9728"/>
            <path id="Trazado_875161" data-name="Trazado 875161" d="M202.128,284.783l2.674,16.332c-6.21,1.059-174.433-1.454-174.433-1.454l3.9-13.739Z" transform="translate(-11.232 -105.335)" fill="#396a93"/>
            <path id="Trazado_875162" data-name="Trazado 875162" d="M182.222,242.894a151.613,151.613,0,0,0-6.1-57.392c-2.537-8.261-6.322-16.939-13.9-21.1-10.285-5.645-23.736-.378-31.366,8.534s-10.995,20.577-14.847,31.659c-5.044,14.515-6.6,18.594-10.054,37.173" transform="translate(-39.192 -59.946)" fill="#396a93"/>
            <path id="Trazado_875163" data-name="Trazado 875163" d="M56.17,213.611a3.76,3.76,0,0,0,.25-.74l.618-2.2c.522-1.943,1.292-4.8,2.283-8.485,2.005-7.358,4.807-18.048,9.356-30.894,2.294-6.411,5.009-13.372,8.343-20.645,1.686-3.628,3.529-7.334,5.561-11.078,2.052-3.733,4.3-7.5,6.774-11.25a124.942,124.942,0,0,1,17.916-21.667,71.214,71.214,0,0,1,11.559-9.28,36.829,36.829,0,0,1,14.041-5.454,24.9,24.9,0,0,1,14.7,1.97,27.407,27.407,0,0,1,6.1,4.125,44.433,44.433,0,0,1,5.06,5.293c3.1,3.75,5.708,7.817,8.335,11.718,1.244,2,2.514,3.953,3.7,5.926,1.152,1.995,2.313,3.955,3.422,5.911a234.16,234.16,0,0,1,11.148,22.987c3.109,7.38,5.735,14.37,7.939,20.818s4.067,12.328,5.611,17.52l1.127,3.754,1.008,3.487c.647,2.228,1.234,4.265,1.743,6.1,1.032,3.67,1.833,6.52,2.377,8.457l.64,2.194a3.732,3.732,0,0,0,.258.737,3.84,3.84,0,0,0-.139-.768l-.525-2.224c-.471-1.953-1.19-4.828-2.162-8.519-.474-1.848-1.029-3.9-1.644-6.135q-.459-1.68-.96-3.5L199.53,188c-1.485-5.215-3.3-11.12-5.452-17.6s-4.745-13.507-7.826-20.93a230.967,230.967,0,0,0-11.1-23.136c-1.108-1.971-2.268-3.945-3.422-5.954-1.188-1.987-2.459-3.957-3.706-5.97-2.635-3.934-5.237-8.011-8.389-11.842a45.471,45.471,0,0,0-5.185-5.438,28.521,28.521,0,0,0-6.362-4.3,22.563,22.563,0,0,0-3.647-1.411,23.127,23.127,0,0,0-3.851-.8c-.651-.1-1.309-.129-1.967-.183-.658-.016-1.318-.051-1.979-.025a28.428,28.428,0,0,0-3.953.336,31.254,31.254,0,0,0-3.873.826,33.38,33.38,0,0,0-3.724,1.26,43.458,43.458,0,0,0-6.9,3.542,72.1,72.1,0,0,0-11.738,9.442,125.11,125.11,0,0,0-18.026,21.907c-2.48,3.787-4.728,7.587-6.776,11.354-2.03,3.776-3.865,7.511-5.539,11.167-3.314,7.331-5.989,14.326-8.241,20.778-4.461,12.923-7.141,23.66-9.009,31.057-.92,3.7-1.611,6.585-2.067,8.543l-.5,2.23a3.8,3.8,0,0,0-.132.77" transform="translate(-20.774 -33.434)" fill="#bb7d28"/>
            <path id="Trazado_875164" data-name="Trazado 875164" d="M97.34,285.6c0,.33,18.582.572,41.5.539s41.5-.325,41.5-.655-18.579-.571-41.5-.539-41.5.325-41.5.655" transform="translate(-36.004 -105.395)" fill="#111f26"/>
            <path id="Trazado_875165" data-name="Trazado 875165" d="M159.331,240.988c.326.054,3.461-17.379,7-38.933s6.151-39.076,5.825-39.13-3.46,17.376-7,38.936-6.149,39.073-5.824,39.126" transform="translate(-58.923 -60.263)" fill="#111f26"/>
            <path id="Trazado_875166" data-name="Trazado 875166" d="M112.767,243.817a9.257,9.257,0,0,0,.429-1.664c.233-1.1.6-2.716,1.067-4.8.968-4.152,2.48-10.139,4.879-17.371a260.461,260.461,0,0,1,9.866-24.867c1.047-2.283,2.188-4.588,3.509-6.846a42.849,42.849,0,0,1,4.587-6.512,27.171,27.171,0,0,1,6.173-5.342,21.564,21.564,0,0,1,3.742-1.832c.648-.27,1.327-.451,2-.664.34-.088.685-.162,1.028-.245a9.551,9.551,0,0,1,1.04-.2,17.9,17.9,0,0,1,4.191-.239,15.122,15.122,0,0,1,4.042.764,13.943,13.943,0,0,1,3.6,1.812,16.021,16.021,0,0,1,2.932,2.716,28.054,28.054,0,0,1,4.059,6.773c.529,1.194,1.022,2.394,1.464,3.6s.914,2.389,1.3,3.583a116.57,116.57,0,0,1,5.718,26.025c.365,3.786.528,7.226.58,10.25.006,1.512.006,2.919-.017,4.215-.049,1.294-.067,2.479-.125,3.543s-.117,2.008-.164,2.828c-.064.817-.117,1.509-.161,2.071a9.31,9.31,0,0,0-.067,1.717,9.251,9.251,0,0,0,.306-1.691c.077-.557.184-1.246.275-2.064s.171-1.766.275-2.829.147-2.254.231-3.554c.057-1.3.09-2.716.116-4.236.011-3.042-.094-6.507-.408-10.326a113.588,113.588,0,0,0-5.517-26.3c-.386-1.209-.846-2.408-1.3-3.626s-.934-2.443-1.471-3.667a29.01,29.01,0,0,0-4.209-7.065,17.151,17.151,0,0,0-3.142-2.923,15.086,15.086,0,0,0-3.909-1.975,16.308,16.308,0,0,0-4.35-.829,19.045,19.045,0,0,0-4.459.253,10.246,10.246,0,0,0-1.1.212c-.363.087-.727.166-1.086.26-.708.223-1.425.417-2.107.7a22.628,22.628,0,0,0-3.938,1.933A28.191,28.191,0,0,0,136.219,181a43.669,43.669,0,0,0-4.689,6.705,77.449,77.449,0,0,0-3.524,6.963,242.49,242.49,0,0,0-9.668,25.062,164.347,164.347,0,0,0-4.53,17.534c-.4,2.1-.693,3.734-.849,4.849a9.326,9.326,0,0,0-.192,1.708" transform="translate(-41.706 -63.625)" fill="#111f26"/>
            <path id="Trazado_875167" data-name="Trazado 875167" d="M186.5,89.162c.321.078.94-1.328,1.384-3.141s.544-3.347.223-3.425-.939,1.328-1.383,3.141-.544,3.347-.224,3.425" transform="translate(-68.915 -30.55)" fill="#c68f22"/>
            <path id="Trazado_875168" data-name="Trazado 875168" d="M278.455,201.318c-.156-.291-1.84.307-3.762,1.335s-3.355,2.1-3.2,2.388,1.84-.307,3.762-1.335,3.354-2.1,3.2-2.388" transform="translate(-100.416 -74.436)" fill="#bb7d28"/>
            <path id="Trazado_875169" data-name="Trazado 875169" d="M67.986,201.4c-.091.317,1.659,1.1,3.909,1.749s4.149.918,4.24.6-1.658-1.1-3.909-1.749-4.149-.918-4.24-.6" transform="translate(-25.145 -74.445)" fill="#bb7d28"/>
            <path id="Trazado_875170" data-name="Trazado 875170" d="M174.379,77.965l-1.8-1.336a19.144,19.144,0,0,1-3.071-2.184,5.494,5.494,0,0,1-1.2-1.429,8.411,8.411,0,0,1-.972-2.115A.722.722,0,0,0,166,70.612c-.279.589.048,2.539,1.393,4.416s-2.161.921-3.445.6-5.3-1.146-5.716-.831c-.606.463-.221,1.2,1.069,1.492,1.306.3,5.1,1.453,4.891,2.123s-6.715-1.086-6.715-1.086-1.332-.6-1.594.168c-.473,1.382,6.588,2.728,7.263,2.839.469.077.273.813-.226.7-.514-.113-6.457-1.893-6.952-.49-.379,1.076,5.8,1.161,6.825,2.216s-4.678-.541-5,.5c-.119.388-.154.694,3.255,1.137,3.492.454,13.15.143,13.15.143l.105-6.683" transform="translate(-57.648 -25.986)" fill="#f6b794"/>
            <path id="Trazado_875171" data-name="Trazado 875171" d="M237.793,52.535s-24.234,22.113-50.9,16.874l-6.838-1.148L177.75,80.23s44.145,7.4,62-13.587Z" transform="translate(-65.746 -19.432)" fill="#d26140"/>
            <g id="Grupo_1100111" data-name="Grupo 1100111" transform="translate(113.098 51.795)" opacity="0.4">
              <g id="Grupo_1100110" data-name="Grupo 1100110">
                <g id="Grupo_1100109" data-name="Grupo 1100109" clip-path="url(#clip-path-3)">
                  <path id="Trazado_875172" data-name="Trazado 875172" d="M179.486,90.232a2.312,2.312,0,0,0,.539.11l1.558.221,1.128.148c.413.047.864.082,1.347.127.968.081,2.068.2,3.29.245l1.917.094c.667.03,1.362.023,2.081.035,1.439.039,2.975-.018,4.592-.058a101.712,101.712,0,0,0,10.474-1,101.688,101.688,0,0,0,10.3-2.171c1.556-.444,3.039-.848,4.4-1.314.682-.227,1.348-.427,1.975-.655l1.8-.66c1.154-.405,2.168-.85,3.067-1.215.448-.187.867-.355,1.248-.523l1.033-.478,1.422-.675a2.3,2.3,0,0,0,.481-.266,2.317,2.317,0,0,0-.522.175l-1.456.59-1.047.437-1.26.483c-.907.34-1.926.761-3.084,1.144l-1.806.628c-.629.217-1.294.407-1.976.624-1.362.447-2.842.835-4.394,1.265-3.119.8-6.582,1.55-10.255,2.122-3.675.548-7.2.864-10.419,1.031-1.609.053-3.138.125-4.57.1-.716,0-1.408.013-2.072-.007l-1.911-.061c-1.219-.02-2.318-.118-3.284-.172l-1.347-.086-1.13-.1-1.566-.129a2.294,2.294,0,0,0-.551-.012" transform="translate(-179.486 -82.198)" fill="#a53d25"/>
                </g>
              </g>
            </g>
            <path id="Trazado_875173" data-name="Trazado 875173" d="M273.819,34.128a47.1,47.1,0,0,0-.613-5.96s-4.433-.213-4.951-4.567-.83-14.446-.83-14.446l7.8-4.384,9.212,6.181,2.185,4.733L284.2,27.137l.156,5.738Z" transform="translate(-98.915 -1.764)" fill="#f6b794"/>
            <path id="Trazado_875174" data-name="Trazado 875174" d="M269.486,22.956a.56.56,0,1,0,.527-.592.56.56,0,0,0-.527.592" transform="translate(-99.677 -8.272)" fill="#00143a"/>
            <path id="Trazado_875175" data-name="Trazado 875175" d="M268.565,21.948c.076.068.469-.307,1.069-.374s1.069.2,1.127.113c.029-.038-.054-.167-.26-.291a1.488,1.488,0,0,0-1.753.208c-.171.17-.221.314-.184.344" transform="translate(-99.332 -7.842)" fill="#00143a"/>
            <path id="Trazado_875176" data-name="Trazado 875176" d="M279.988,21.889a.56.56,0,1,0,.786.1.561.561,0,0,0-.786-.1" transform="translate(-103.481 -8.053)" fill="#00143a"/>
            <path id="Trazado_875177" data-name="Trazado 875177" d="M279.158,21.339c.076.068.469-.307,1.069-.374s1.069.2,1.127.113c.029-.038-.054-.167-.26-.291a1.487,1.487,0,0,0-1.753.209c-.171.169-.221.314-.184.343" transform="translate(-103.251 -7.617)" fill="#00143a"/>
            <path id="Trazado_875178" data-name="Trazado 875178" d="M275.26,26.96a3.964,3.964,0,0,0-.992-.067c-.154,0-.3-.014-.343-.124a.852.852,0,0,1,.057-.49q.163-.6.341-1.272a23.167,23.167,0,0,0,.733-3.3,23.317,23.317,0,0,0-.972,3.243q-.169.669-.322,1.277a.971.971,0,0,0-.023.634.376.376,0,0,0,.27.2,1.02,1.02,0,0,0,.263.008,3.99,3.99,0,0,0,.989-.106" transform="translate(-101.233 -8.027)" fill="#00143a"/>
            <g id="Grupo_1100114" data-name="Grupo 1100114" transform="translate(176.632 17.162)" opacity="0.33">
              <g id="Grupo_1100113" data-name="Grupo 1100113">
                <g id="Grupo_1100112" data-name="Grupo 1100112" clip-path="url(#clip-path-4)">
                  <path id="Trazado_875179" data-name="Trazado 875179" d="M280.317,28.261c.045.5.831.811,1.762.779s1.685-.4,1.684-.9-.793-.936-1.767-.9-1.723.529-1.679,1.023" transform="translate(-280.315 -27.236)" fill="#f29078"/>
                </g>
              </g>
            </g>
            <path id="Trazado_875180" data-name="Trazado 875180" d="M277.715,30.723c.586-.439-1.625,1.1-2.854,1.17a1.669,1.669,0,0,0,2.029.452c1.254-.617.825-1.621.825-1.621" transform="translate(-101.665 -11.335)" fill="#f3f0eb"/>
            <path id="Trazado_875181" data-name="Trazado 875181" d="M276.6,40.559a10.927,10.927,0,0,0,5.677-2.288s-1.128,3.284-5.52,3.355Z" transform="translate(-102.309 -14.156)" fill="#f29078"/>
            <path id="Trazado_875182" data-name="Trazado 875182" d="M274.109,8.288c-7.4,2.947-10.773-.447-12.338-4.954S278.341-.04,281.1.669s3.2,4.091,3.2,4.091l2.25-2.267a7.071,7.071,0,0,1,1.483,1.1c1.069.928-4.078,3.4-4.078,3.4a3.514,3.514,0,0,1,2.577,2.636c.637,3.016-1.35,7.28-2.189,9.3a35.89,35.89,0,0,0-1.749,6.577c-.621,1.226-.936-2.579-.936-2.579s-.651-3.648-.181-5.089c0,0,2.248.665,2.648-3.347a1.8,1.8,0,0,0-3.563-.442l-1.858.219s-.409-7.65-4.6-5.981" transform="translate(-96.788 0)" fill="#684a45"/>
            <path id="Trazado_875183" data-name="Trazado 875183" d="M292.558,24.259c-.013,0-.01.089.085.2a.7.7,0,0,0,.56.214,1.687,1.687,0,0,0,1.248-1.386,2.208,2.208,0,0,0-.011-1.062.91.91,0,0,0-.545-.7.489.489,0,0,0-.368.02.412.412,0,0,0-.19.2c-.061.144-.008.227,0,.221s.01-.079.08-.173a.334.334,0,0,1,.416-.1.755.755,0,0,1,.383.59,2.149,2.149,0,0,1-.009.951,1.61,1.61,0,0,1-1.026,1.268.649.649,0,0,1-.476-.11c-.1-.072-.133-.139-.151-.131" transform="translate(-108.209 -7.952)" fill="#f29078"/>
            <path id="Trazado_875184" data-name="Trazado 875184" d="M307.827,141.207s-3.087,23.06-1.844,35.966,7.841,18.12,12.418,23.672,20.53,19.691,20.53,19.691L329.323,231.6s-32.558-26.469-38.26-37.455-.972-29.3-.972-29.3Z" transform="translate(-106.618 -52.229)" fill="#172933"/>
            <path id="Trazado_875185" data-name="Trazado 875185" d="M295.446,112.719c.316-.08,6.9,8.978,5.708,16.731-.12.779-1.547,5.294-1.547,5.294-5.759,13.606-12.658,41.175-12.815,44.977-.456,11.026-3.18,54.565-3.18,54.565L269.6,232.856,269.37,178.3l1.871-48.785Z" transform="translate(-99.634 -41.692)" fill="#1d3343"/>
            <path id="Trazado_875186" data-name="Trazado 875186" d="M286.4,244.266a26.323,26.323,0,0,0,.04-4.115c-.071-2.653-.174-6.476-.3-11.2s-.258-10.351-.253-16.595.168-13.1.677-20.283a190.013,190.013,0,0,1,2.5-20.116c.549-3.068,1.192-5.958,1.827-8.655.665-2.689,1.334-5.183,2.022-7.438,1.367-4.511,2.679-8.1,3.648-10.554A30.347,30.347,0,0,0,298,141.462a3.518,3.518,0,0,0-.548.918c-.311.624-.8,1.532-1.331,2.747a101.158,101.158,0,0,0-4.039,10.479c-.746,2.253-1.468,4.752-2.182,7.451-.683,2.706-1.368,5.61-1.952,8.694a175.088,175.088,0,0,0-2.617,20.237c-.511,7.219-.641,14.114-.583,20.376s.279,11.9.519,16.624.491,8.548.692,11.187a26.011,26.011,0,0,0,.44,4.091" transform="translate(-105.316 -52.323)" fill="#172933"/>
            <path id="Trazado_875187" data-name="Trazado 875187" d="M282.664,151.1c-.16.111.683,1.492,2.284,2.626s3.175,1.489,3.227,1.3c.072-.2-1.306-.832-2.8-1.905s-2.546-2.156-2.714-2.023" transform="translate(-104.544 -55.886)" fill="#172933"/>
            <path id="Trazado_875188" data-name="Trazado 875188" d="M290.083,192.119s.456,4.561-.084,4.455c-1.525-.3-11.542-.842-11.542-.842l1.585-3.44Z" transform="translate(-102.995 -71.061)" fill="#172933"/>
            <path id="Trazado_875189" data-name="Trazado 875189" d="M288.9,198.423s.476,7.428-1.8,7.725-7.5-.558-7.5-.558l.592-7.664Z" transform="translate(-103.417 -73.209)" fill="#172933"/>
            <path id="Trazado_875190" data-name="Trazado 875190" d="M277.578,46.155s20.912-7.316,21.919-6.711,7.4,10.342,1.8,11.354-16.374-5.16-16.374-5.16Z" transform="translate(-102.67 -14.576)" fill="#d26140"/>
            <path id="Trazado_875191" data-name="Trazado 875191" d="M263.834,83.539,262.8,81.552a19.139,19.139,0,0,1-1.812-3.3,5.493,5.493,0,0,1-.459-1.81,8.386,8.386,0,0,1,.048-2.328c.185-.693-.569-1.25-1.076-.842s-1.064,2.306-.672,4.582-2.347-.113-3.36-.966-4.273-3.344-4.783-3.24c-.747.152-.721.98.311,1.808s3.952,3.529,3.476,4.043-5.57-3.905-5.57-3.905-.938-1.12-1.508-.544c-1.028,1.037,4.739,5.328,5.3,5.723.388.274-.109.851-.51.534s-4.986-4.519-6.043-3.473c-.81.8,4.712,3.573,5.177,4.97s-3.974-2.527-4.718-1.728c-.277.3-.442.558,2.433,2.442,2.945,1.931,11.773,5.863,11.773,5.863l3.008-5.968" transform="translate(-91.011 -27.049)" fill="#f6b794"/>
            <path id="Trazado_875192" data-name="Trazado 875192" d="M270.093,303.823s-9.5,1.376-7.425,2.234,17.561,1,17.561,1l.267-2.372Z" transform="translate(-97.046 -112.378)" fill="#d26140"/>
            <path id="Trazado_875193" data-name="Trazado 875193" d="M353.235,277.154s-5.19,8.071-3.183,7.07,12.155-12.759,12.155-12.759L360,269.337Z" transform="translate(-129.306 -99.622)" fill="#d26140"/>
            <path id="Trazado_875194" data-name="Trazado 875194" d="M294.873,132.663c-.149.032-.2.655.156,1.58a5.736,5.736,0,0,0,.877,1.488A6.756,6.756,0,0,0,299.428,138a5.729,5.729,0,0,0,1.717.186c.989-.055,1.537-.359,1.5-.508-.034-.182-.6-.2-1.447-.364a9.088,9.088,0,0,1-1.434-.4,8.342,8.342,0,0,1-3.013-1.945,9.035,9.035,0,0,1-.955-1.142c-.495-.7-.747-1.214-.927-1.169" transform="translate(-109.025 -49.068)" fill="#6a3e17"/>
            <path id="Trazado_875195" data-name="Trazado 875195" d="M290.111,50.156a9.442,9.442,0,0,1,8.723,4.1c3.49,4.926,4.912,53.531,4.912,53.531l-30.827-1.429s-4.02-52.386-.665-55.22,10.973-3.091,17.858-.984" transform="translate(-100.207 -18.038)" fill="#d26140"/>
            <path id="Trazado_875196" data-name="Trazado 875196" d="M272.758,125.316a6,6,0,0,0-.795,2.437,2.762,2.762,0,0,1-1.352,2.087c-.292.124-.654.183-.807.461-.253.457.322.951.836,1.043s1.123.066,1.454.47a5.87,5.87,0,0,0-3.252.955c-.306.2-.625.505-.567.866.06.377.487.562.856.659a11.152,11.152,0,0,0,3.79.328" transform="translate(-99.227 -46.352)" fill="#d26140"/>
            <path id="Trazado_875197" data-name="Trazado 875197" d="M289.164,198.423l-.038,1.9-8.8-.658.134-1.74Z" transform="translate(-103.685 -73.209)" fill="#0f1b21"/>
            <g id="Grupo_1100117" data-name="Grupo 1100117" transform="translate(171.317 65.942)" opacity="0.4">
              <g id="Grupo_1100116" data-name="Grupo 1100116">
                <g id="Grupo_1100115" data-name="Grupo 1100115" clip-path="url(#clip-path-5)">
                  <path id="Trazado_875198" data-name="Trazado 875198" d="M304.357,124.376l-32.478-19.728.157,4.732s20.742,22.265,31.987,16.626Z" transform="translate(-271.879 -104.649)" fill="#a53d25"/>
                </g>
              </g>
            </g>
            <g id="Grupo_1100120" data-name="Grupo 1100120" transform="translate(176.451 41.342)" opacity="0.4">
              <g id="Grupo_1100119" data-name="Grupo 1100119">
                <g id="Grupo_1100118" data-name="Grupo 1100118" clip-path="url(#clip-path-6)">
                  <path id="Trazado_875199" data-name="Trazado 875199" d="M292.3,66.423s8.093,26.783,5.89,27.541-18.158-11.223-18.158-11.223,13,7.6,13.512.313c.568-8.055-1.712-17.444-1.712-17.444" transform="translate(-280.027 -65.61)" fill="#a53d25"/>
                </g>
              </g>
            </g>
            <path id="Trazado_875200" data-name="Trazado 875200" d="M292.22,52.958c.781.05,7.96,3.616,9.1,13.814,1.295,11.567,5.313,27.327,2.357,34.8a6.367,6.367,0,0,1-3.244,3.681c-8.183,3.715-39.158-24.985-39.158-24.985l5.292-10.086s22.383,19.5,23.614,16.963c.72-1.485-2.693-13.168-3.323-22.471-.447-6.612.511-12.023,5.359-11.716" transform="translate(-96.641 -19.583)" fill="#d26140"/>
            <g id="Grupo_1100123" data-name="Grupo 1100123" transform="translate(186.522 29.262)" opacity="0.4">
              <g id="Grupo_1100122" data-name="Grupo 1100122">
                <g id="Grupo_1100121" data-name="Grupo 1100121" clip-path="url(#clip-path-7)">
                  <path id="Trazado_875201" data-name="Trazado 875201" d="M296.009,46.452a10.783,10.783,0,0,0,2.055.735,28.149,28.149,0,0,1,9.259,4.689,10.787,10.787,0,0,0,1.808,1.221,8.675,8.675,0,0,0-1.6-1.5,22.124,22.124,0,0,0-9.375-4.747,8.67,8.67,0,0,0-2.152-.4" transform="translate(-296.009 -46.438)" fill="#a53d25"/>
                </g>
              </g>
            </g>
            <g id="Grupo_1100126" data-name="Grupo 1100126" transform="translate(177.176 32.137)" opacity="0.4">
              <g id="Grupo_1100125" data-name="Grupo 1100125">
                <g id="Grupo_1100124" data-name="Grupo 1100124" clip-path="url(#clip-path-8)">
                  <path id="Trazado_875202" data-name="Trazado 875202" d="M281.19,69.873a11.753,11.753,0,0,0,.839-2.674,36.467,36.467,0,0,0,.607-13.46A11.768,11.768,0,0,0,282.042,51a23.715,23.715,0,0,0,.248,2.779,46.9,46.9,0,0,1-.6,13.346,23.656,23.656,0,0,0-.5,2.746" transform="translate(-281.178 -51.002)" fill="#1d3343"/>
                </g>
              </g>
            </g>
            <g id="Grupo_1100129" data-name="Grupo 1100129" transform="translate(173.598 32.571)" opacity="0.4">
              <g id="Grupo_1100128" data-name="Grupo 1100128">
                <g id="Grupo_1100127" data-name="Grupo 1100127" clip-path="url(#clip-path-9)">
                  <path id="Trazado_875203" data-name="Trazado 875203" d="M275.508,67.807a10.394,10.394,0,0,0,1.069-2.217,49.423,49.423,0,0,0,3.093-11.446,10.388,10.388,0,0,0,.193-2.454,14.653,14.653,0,0,0-.537,2.4c-.3,1.483-.735,3.522-1.335,5.747s-1.249,4.206-1.741,5.635a14.622,14.622,0,0,0-.742,2.34" transform="translate(-275.499 -51.69)" fill="#1d3343"/>
                </g>
              </g>
            </g>
            <g id="Grupo_1100132" data-name="Grupo 1100132" transform="translate(177.184 32.028)" opacity="0.4">
              <g id="Grupo_1100131" data-name="Grupo 1100131">
                <g id="Grupo_1100130" data-name="Grupo 1100130" clip-path="url(#clip-path-10)">
                  <path id="Trazado_875204" data-name="Trazado 875204" d="M281.19,51.042c-.006.136.416.263.941.284s.955-.073.96-.21-.416-.263-.941-.284-.955.073-.96.209" transform="translate(-281.19 -50.829)" fill="#a53d25"/>
                </g>
              </g>
            </g>
            <g id="Grupo_1100135" data-name="Grupo 1100135" transform="translate(169.734 50.554)" opacity="0.4">
              <g id="Grupo_1100134" data-name="Grupo 1100134">
                <g id="Grupo_1100133" data-name="Grupo 1100133" clip-path="url(#clip-path-11)">
                  <path id="Trazado_875205" data-name="Trazado 875205" d="M269.371,80.231a12.673,12.673,0,0,0,1.836,1.929c1.192,1.133,2.9,2.638,4.867,4.191s3.835,2.858,5.215,3.751a12.683,12.683,0,0,0,2.306,1.333,16.226,16.226,0,0,0-2.108-1.621c-1.325-.963-3.144-2.306-5.107-3.851s-3.692-3-4.94-4.062a16.242,16.242,0,0,0-2.069-1.669" transform="translate(-269.368 -80.229)" fill="#a53d25"/>
                </g>
              </g>
            </g>
            <path id="Trazado_875206" data-name="Trazado 875206" d="M274.014,76.059c-.039.13.587.432,1.4.672s1.5.33,1.538.2-.587-.432-1.4-.672-1.5-.33-1.537-.2" transform="translate(-101.351 -28.11)" fill="#fff"/>
            <path id="Trazado_875207" data-name="Trazado 875207" d="M272.949,77.971c-.05.127.676.534,1.623.908s1.755.575,1.805.449-.677-.534-1.623-.908-1.755-.575-1.8-.449" transform="translate(-100.957 -28.826)" fill="#fff"/>
          </g>
        </g>
      </g>
    </g>
  </g>
</svg>
