<svg xmlns="http://www.w3.org/2000/svg" width="63" height="63" viewBox="0 0 63 63">
  <g id="Grupo_1100145" data-name="Grupo 1100145" transform="translate(-1023.051 -4224)">
    <g id="Grupo_1098742" data-name="Grupo 1098742" transform="translate(1023.496 4224.445)">
      <rect id="Rect치ngulo_400898" data-name="Rect치ngulo 400898" width="63" height="63" rx="31.5" transform="translate(-0.445 -0.445)" fill="#e9bd68" opacity="0.859"/>
      <rect id="Rect치ngulo_400907" data-name="Rect치ngulo 400907" width="63" height="63" rx="31.5" transform="translate(-0.446 -0.445)" fill="none"/>
    </g>
    <g id="Grupo_1100144" data-name="Grupo 1100144" transform="translate(0.26 -1.004)">
      <g id="recurso" transform="translate(1035.791 4238.004)">
        <g id="Grupo_1100142" data-name="Grupo 1100142" transform="translate(0.594 0.594)">
          <path id="Trazado_875208" data-name="Trazado 875208" d="M43.228,464.637H9.577A1.577,1.577,0,0,1,8,463.06v0a1.577,1.577,0,0,1,1.577-1.577H43.229a1.577,1.577,0,0,1,1.577,1.577v0A1.577,1.577,0,0,1,43.228,464.637Z" transform="translate(-8 -427.832)" fill="#fff"/>
          <path id="Trazado_875208_-_Contorno" data-name="Trazado 875208 - Contorno" d="M43.228,466.637H9.577a3.578,3.578,0,0,1,0-7.155H43.229a3.578,3.578,0,0,1,0,7.155Z" transform="translate(-8 -427.832)" fill="#fff"/>
          <path id="Trazado_875209" data-name="Trazado 875209" d="M43.228,474.651H9.577a1.575,1.575,0,0,1-1.427-.91,1.568,1.568,0,0,0-.15.667v0a1.577,1.577,0,0,0,1.577,1.577H43.229a1.577,1.577,0,0,0,1.577-1.577v0a1.568,1.568,0,0,0-.15-.667A1.575,1.575,0,0,1,43.228,474.651Z" transform="translate(-8 -439.181)" fill="#fff"/>
          <path id="Trazado_875209_-_Contorno" data-name="Trazado 875209 - Contorno" d="M8.149,471.741a2,2,0,0,1,1.677.91H42.979a2,2,0,0,1,1.677-.91h0a2,2,0,0,1,1.811,1.152,3.575,3.575,0,0,1-3.238,5.093H9.577a3.575,3.575,0,0,1-3.238-5.093A2,2,0,0,1,8.149,471.741Z" transform="translate(-8 -439.181)" fill="#fff"/>
          <path id="Trazado_875210" data-name="Trazado 875210" d="M117.118,50.39h20.611v30.5H117.118Z" transform="translate(-109.021 -47.245)" fill="#fff"/>
          <path id="Trazado_875210_-_Contorno" data-name="Trazado 875210 - Contorno" d="M117.118,48.39h20.611a2,2,0,0,1,2,2v30.5a2,2,0,0,1-2,2H117.118a2,2,0,0,1-2-2V50.39A2,2,0,0,1,117.118,48.39Zm18.611,4H119.118v26.5h16.611Z" transform="translate(-109.021 -47.245)" fill="#fff"/>
          <path id="Trazado_875211" data-name="Trazado 875211" d="M117.118,443.482h20.611v1.336H117.118Z" transform="translate(-109.021 -411.168)" fill="#fff"/>
          <path id="Trazado_875211_-_Contorno" data-name="Trazado 875211 - Contorno" d="M117.118,441.482h20.611a2,2,0,0,1,2,2v1.336a2,2,0,0,1-2,2H117.118a2,2,0,0,1-2-2v-1.336A2,2,0,0,1,117.118,441.482Z" transform="translate(-109.021 -411.168)" fill="#fff"/>
          <path id="Trazado_875212" data-name="Trazado 875212" d="M117.118,50.39h20.611v1.336H117.118Z" transform="translate(-109.021 -47.245)" fill="#fff"/>
          <path id="Trazado_875212_-_Contorno" data-name="Trazado 875212 - Contorno" d="M117.118,48.39h20.611a2,2,0,0,1,2,2v1.336a2,2,0,0,1-2,2H117.118a2,2,0,0,1-2-2V50.39A2,2,0,0,1,117.118,48.39Z" transform="translate(-109.021 -47.245)" fill="#fff"/>
          <path id="Trazado_875213" data-name="Trazado 875213" d="M122.081,8H100.356a.742.742,0,0,0-.742.742V10.4a.742.742,0,0,0,.742.742h21.725a.742.742,0,0,0,.742-.742V8.742A.742.742,0,0,0,122.081,8Z" transform="translate(-92.816 -8)" fill="#fff"/>
          <path id="Trazado_875213_-_Contorno" data-name="Trazado 875213 - Contorno" d="M100.356,6h21.725a2.745,2.745,0,0,1,2.742,2.742V10.4a2.745,2.745,0,0,1-2.742,2.742H100.356A2.745,2.745,0,0,1,97.614,10.4V8.742A2.745,2.745,0,0,1,100.356,6Z" transform="translate(-92.816 -8)" fill="#fff"/>
          <path id="Trazado_875214" data-name="Trazado 875214" d="M122.081,23.132H100.356a.742.742,0,0,1-.742-.742v1.336a.742.742,0,0,0,.742.742h21.725a.742.742,0,0,0,.742-.742V22.39A.742.742,0,0,1,122.081,23.132Z" transform="translate(-92.816 -21.322)" fill="#fff"/>
          <path id="Trazado_875214_-_Contorno" data-name="Trazado 875214 - Contorno" d="M99.614,20.39a2,2,0,0,1,1.555.742h20.1a2,2,0,0,1,3.555,1.258v1.336a2.745,2.745,0,0,1-2.742,2.742H100.356a2.745,2.745,0,0,1-2.742-2.742V22.39A2,2,0,0,1,99.614,20.39Z" transform="translate(-92.816 -21.322)" fill="#fff"/>
          <g id="Grupo_1100141" data-name="Grupo 1100141" transform="translate(11.382 6.642)">
            <path id="Trazado_875215" data-name="Trazado 875215" d="M238.49,260.141h-2.245a.371.371,0,0,0-.371.371v2.245a.371.371,0,0,0,.371.371h2.245a.371.371,0,0,0,.371-.371v-2.245A.371.371,0,0,0,238.49,260.141Z" transform="translate(-230.347 -248.073)" fill="#fff"/>
            <path id="Trazado_875215_-_Contorno" data-name="Trazado 875215 - Contorno" d="M236.245,258.141h2.245a2.374,2.374,0,0,1,2.371,2.371v2.245a2.374,2.374,0,0,1-2.371,2.371h-2.245a2.374,2.374,0,0,1-2.371-2.371v-2.245A2.374,2.374,0,0,1,236.245,258.141Z" transform="translate(-230.347 -248.073)" fill="#fff"/>
            <path id="Trazado_875216" data-name="Trazado 875216" d="M164.009,260.141h-2.245a.371.371,0,0,0-.371.371v2.245a.371.371,0,0,0,.371.371h2.245a.371.371,0,0,0,.371-.371v-2.245A.371.371,0,0,0,164.009,260.141Z" transform="translate(-161.393 -248.073)" fill="#fff"/>
            <path id="Trazado_875216_-_Contorno" data-name="Trazado 875216 - Contorno" d="M161.764,258.141h2.245a2.374,2.374,0,0,1,2.371,2.371v2.245a2.374,2.374,0,0,1-2.371,2.371h-2.245a2.374,2.374,0,0,1-2.371-2.371v-2.245A2.374,2.374,0,0,1,161.764,258.141Z" transform="translate(-161.393 -248.073)" fill="#fff"/>
            <path id="Trazado_875217" data-name="Trazado 875217" d="M310.726,260.141h2.245a.371.371,0,0,1,.371.371v2.245a.371.371,0,0,1-.371.371h-2.245a.371.371,0,0,1-.371-.371v-2.245A.371.371,0,0,1,310.726,260.141Z" transform="translate(-299.301 -248.073)" fill="#fff"/>
            <path id="Trazado_875217_-_Contorno" data-name="Trazado 875217 - Contorno" d="M310.726,258.141h2.245a2.374,2.374,0,0,1,2.371,2.371v2.245a2.374,2.374,0,0,1-2.371,2.371h-2.245a2.374,2.374,0,0,1-2.371-2.371v-2.245A2.374,2.374,0,0,1,310.726,258.141Z" transform="translate(-299.301 -248.073)" fill="#fff"/>
            <path id="Trazado_875218" data-name="Trazado 875218" d="M238.49,178.824h-2.245a.371.371,0,0,0-.371.371v2.245a.371.371,0,0,0,.371.371h2.245a.371.371,0,0,0,.371-.371V179.2A.371.371,0,0,0,238.49,178.824Z" transform="translate(-230.347 -172.79)" fill="#fff"/>
            <path id="Trazado_875218_-_Contorno" data-name="Trazado 875218 - Contorno" d="M236.245,176.824h2.245a2.374,2.374,0,0,1,2.371,2.371v2.245a2.374,2.374,0,0,1-2.371,2.371h-2.245a2.374,2.374,0,0,1-2.371-2.371V179.2A2.374,2.374,0,0,1,236.245,176.824Z" transform="translate(-230.347 -172.79)" fill="#fff"/>
            <path id="Trazado_875219" data-name="Trazado 875219" d="M164.009,178.824h-2.245a.371.371,0,0,0-.371.371v2.245a.371.371,0,0,0,.371.371h2.245a.371.371,0,0,0,.371-.371V179.2A.371.371,0,0,0,164.009,178.824Z" transform="translate(-161.393 -172.79)" fill="#fff"/>
            <path id="Trazado_875219_-_Contorno" data-name="Trazado 875219 - Contorno" d="M161.764,176.824h2.245a2.374,2.374,0,0,1,2.371,2.371v2.245a2.374,2.374,0,0,1-2.371,2.371h-2.245a2.374,2.374,0,0,1-2.371-2.371V179.2A2.374,2.374,0,0,1,161.764,176.824Z" transform="translate(-161.393 -172.79)" fill="#fff"/>
            <path id="Trazado_875220" data-name="Trazado 875220" d="M310.726,178.824h2.245a.371.371,0,0,1,.371.371v2.245a.371.371,0,0,1-.371.371h-2.245a.371.371,0,0,1-.371-.371V179.2A.371.371,0,0,1,310.726,178.824Z" transform="translate(-299.301 -172.79)" fill="#fff"/>
            <path id="Trazado_875220_-_Contorno" data-name="Trazado 875220 - Contorno" d="M310.726,176.824h2.245a2.374,2.374,0,0,1,2.371,2.371v2.245a2.374,2.374,0,0,1-2.371,2.371h-2.245a2.374,2.374,0,0,1-2.371-2.371V179.2A2.374,2.374,0,0,1,310.726,176.824Z" transform="translate(-299.301 -172.79)" fill="#fff"/>
            <path id="Trazado_875221" data-name="Trazado 875221" d="M238.49,97.507h-2.245a.371.371,0,0,0-.371.371v2.245a.371.371,0,0,0,.371.371h2.245a.371.371,0,0,0,.371-.371V97.878A.371.371,0,0,0,238.49,97.507Z" transform="translate(-230.347 -97.507)" fill="#fff"/>
            <path id="Trazado_875221_-_Contorno" data-name="Trazado 875221 - Contorno" d="M236.245,95.507h2.245a2.374,2.374,0,0,1,2.371,2.371v2.245a2.374,2.374,0,0,1-2.371,2.371h-2.245a2.374,2.374,0,0,1-2.371-2.371V97.878A2.374,2.374,0,0,1,236.245,95.507Z" transform="translate(-230.347 -97.507)" fill="#fff"/>
            <path id="Trazado_875222" data-name="Trazado 875222" d="M164.009,97.507h-2.245a.371.371,0,0,0-.371.371v2.245a.371.371,0,0,0,.371.371h2.245a.371.371,0,0,0,.371-.371V97.878A.371.371,0,0,0,164.009,97.507Z" transform="translate(-161.393 -97.507)" fill="#fff"/>
            <path id="Trazado_875222_-_Contorno" data-name="Trazado 875222 - Contorno" d="M161.764,95.507h2.245a2.374,2.374,0,0,1,2.371,2.371v2.245a2.374,2.374,0,0,1-2.371,2.371h-2.245a2.374,2.374,0,0,1-2.371-2.371V97.878A2.374,2.374,0,0,1,161.764,95.507Z" transform="translate(-161.393 -97.507)" fill="#fff"/>
            <path id="Trazado_875223" data-name="Trazado 875223" d="M310.726,97.507h2.245a.371.371,0,0,1,.371.371v2.245a.371.371,0,0,1-.371.371h-2.245a.371.371,0,0,1-.371-.371V97.878A.371.371,0,0,1,310.726,97.507Z" transform="translate(-299.301 -97.507)" fill="#fff"/>
            <path id="Trazado_875223_-_Contorno" data-name="Trazado 875223 - Contorno" d="M310.726,95.507h2.245a2.374,2.374,0,0,1,2.371,2.371v2.245a2.374,2.374,0,0,1-2.371,2.371h-2.245a2.374,2.374,0,0,1-2.371-2.371V97.878A2.374,2.374,0,0,1,310.726,95.507Z" transform="translate(-299.301 -97.507)" fill="#fff"/>
          </g>
          <path id="Trazado_875224" data-name="Trazado 875224" d="M238.49,277.764h-2.245a.371.371,0,0,1-.371-.371v1.336a.371.371,0,0,0,.371.371h2.245a.371.371,0,0,0,.371-.371v-1.336A.371.371,0,0,1,238.49,277.764Z" transform="translate(-218.965 -257.403)" fill="#fff"/>
          <path id="Trazado_875224_-_Contorno" data-name="Trazado 875224 - Contorno" d="M235.874,275.393a1.991,1.991,0,0,1,1.161.371h.666a2,2,0,0,1,3.161,1.629v1.336a2.374,2.374,0,0,1-2.371,2.371h-2.245a2.374,2.374,0,0,1-2.371-2.371v-1.336A2,2,0,0,1,235.874,275.393Z" transform="translate(-218.965 -257.403)" fill="#fff"/>
          <path id="Trazado_875225" data-name="Trazado 875225" d="M164.009,277.764h-2.245a.371.371,0,0,1-.371-.371v1.336a.371.371,0,0,0,.371.371h2.245a.371.371,0,0,0,.371-.371v-1.336A.371.371,0,0,1,164.009,277.764Z" transform="translate(-150.011 -257.403)" fill="#fff"/>
          <path id="Trazado_875225_-_Contorno" data-name="Trazado 875225 - Contorno" d="M161.393,275.393a1.991,1.991,0,0,1,1.161.371h.666a2,2,0,0,1,3.161,1.629v1.336a2.374,2.374,0,0,1-2.371,2.371h-2.245a2.374,2.374,0,0,1-2.371-2.371v-1.336A2,2,0,0,1,161.393,275.393Z" transform="translate(-150.011 -257.403)" fill="#fff"/>
          <path id="Trazado_875226" data-name="Trazado 875226" d="M312.971,277.764h-2.245a.371.371,0,0,1-.371-.371v1.336a.371.371,0,0,0,.371.371h2.245a.371.371,0,0,0,.371-.371v-1.336A.371.371,0,0,1,312.971,277.764Z" transform="translate(-287.919 -257.403)" fill="#fff"/>
          <path id="Trazado_875226_-_Contorno" data-name="Trazado 875226 - Contorno" d="M310.355,275.393a1.991,1.991,0,0,1,1.161.371h.666a2,2,0,0,1,3.161,1.629v1.336a2.374,2.374,0,0,1-2.371,2.371h-2.245a2.374,2.374,0,0,1-2.371-2.371v-1.336A2,2,0,0,1,310.355,275.393Z" transform="translate(-287.919 -257.403)" fill="#fff"/>
          <path id="Trazado_875227" data-name="Trazado 875227" d="M238.49,196.446h-2.245a.371.371,0,0,1-.371-.371v1.336a.371.371,0,0,0,.371.371h2.245a.371.371,0,0,0,.371-.371v-1.336A.371.371,0,0,1,238.49,196.446Z" transform="translate(-218.965 -182.119)" fill="#fff"/>
          <path id="Trazado_875227_-_Contorno" data-name="Trazado 875227 - Contorno" d="M235.874,194.075a1.991,1.991,0,0,1,1.161.371h.666a2,2,0,0,1,3.161,1.629v1.336a2.374,2.374,0,0,1-2.371,2.371h-2.245a2.374,2.374,0,0,1-2.371-2.371v-1.336A2,2,0,0,1,235.874,194.075Z" transform="translate(-218.965 -182.119)" fill="#fff"/>
          <path id="Trazado_875228" data-name="Trazado 875228" d="M164.009,196.446h-2.245a.371.371,0,0,1-.371-.371v1.336a.371.371,0,0,0,.371.371h2.245a.371.371,0,0,0,.371-.371v-1.336A.371.371,0,0,1,164.009,196.446Z" transform="translate(-150.011 -182.119)" fill="#fff"/>
          <path id="Trazado_875228_-_Contorno" data-name="Trazado 875228 - Contorno" d="M161.393,194.075a1.991,1.991,0,0,1,1.161.371h.666a2,2,0,0,1,3.161,1.629v1.336a2.374,2.374,0,0,1-2.371,2.371h-2.245a2.374,2.374,0,0,1-2.371-2.371v-1.336A2,2,0,0,1,161.393,194.075Z" transform="translate(-150.011 -182.119)" fill="#fff"/>
          <path id="Trazado_875229" data-name="Trazado 875229" d="M312.971,196.446h-2.245a.371.371,0,0,1-.371-.371v1.336a.371.371,0,0,0,.371.371h2.245a.371.371,0,0,0,.371-.371v-1.336A.371.371,0,0,1,312.971,196.446Z" transform="translate(-287.919 -182.119)" fill="#fff"/>
          <path id="Trazado_875229_-_Contorno" data-name="Trazado 875229 - Contorno" d="M310.355,194.075a1.991,1.991,0,0,1,1.161.371h.666a2,2,0,0,1,3.161,1.629v1.336a2.374,2.374,0,0,1-2.371,2.371h-2.245a2.374,2.374,0,0,1-2.371-2.371v-1.336A2,2,0,0,1,310.355,194.075Z" transform="translate(-287.919 -182.119)" fill="#fff"/>
          <path id="Trazado_875230" data-name="Trazado 875230" d="M238.49,115.129h-2.245a.371.371,0,0,1-.371-.371v1.336a.371.371,0,0,0,.371.371h2.245a.371.371,0,0,0,.371-.371v-1.336A.371.371,0,0,1,238.49,115.129Z" transform="translate(-218.965 -106.836)" fill="#fff"/>
          <path id="Trazado_875230_-_Contorno" data-name="Trazado 875230 - Contorno" d="M235.874,112.758a1.991,1.991,0,0,1,1.161.371h.666a2,2,0,0,1,3.161,1.629v1.336a2.374,2.374,0,0,1-2.371,2.371h-2.245a2.374,2.374,0,0,1-2.371-2.371v-1.336A2,2,0,0,1,235.874,112.758Z" transform="translate(-218.965 -106.836)" fill="#fff"/>
          <path id="Trazado_875231" data-name="Trazado 875231" d="M164.009,115.129h-2.245a.371.371,0,0,1-.371-.371v1.336a.371.371,0,0,0,.371.371h2.245a.371.371,0,0,0,.371-.371v-1.336A.371.371,0,0,1,164.009,115.129Z" transform="translate(-150.011 -106.836)" fill="#fff"/>
          <path id="Trazado_875231_-_Contorno" data-name="Trazado 875231 - Contorno" d="M161.393,112.758a1.991,1.991,0,0,1,1.161.371h.666a2,2,0,0,1,3.161,1.629v1.336a2.374,2.374,0,0,1-2.371,2.371h-2.245a2.374,2.374,0,0,1-2.371-2.371v-1.336A2,2,0,0,1,161.393,112.758Z" transform="translate(-150.011 -106.836)" fill="#fff"/>
          <path id="Trazado_875232" data-name="Trazado 875232" d="M312.971,115.129h-2.245a.371.371,0,0,1-.371-.371v1.336a.371.371,0,0,0,.371.371h2.245a.371.371,0,0,0,.371-.371v-1.336A.371.371,0,0,1,312.971,115.129Z" transform="translate(-287.919 -106.836)" fill="#fff"/>
          <path id="Trazado_875232_-_Contorno" data-name="Trazado 875232 - Contorno" d="M310.355,112.758a1.991,1.991,0,0,1,1.161.371h.666a2,2,0,0,1,3.161,1.629v1.336a2.374,2.374,0,0,1-2.371,2.371h-2.245a2.374,2.374,0,0,1-2.371-2.371v-1.336A2,2,0,0,1,310.355,112.758Z" transform="translate(-287.919 -106.836)" fill="#fff"/>
          <path id="Trazado_875233" data-name="Trazado 875233" d="M256,344.771h4.976v8.66H256Z" transform="translate(-237.598 -319.781)" fill="#fff"/>
          <path id="Trazado_875233_-_Contorno" data-name="Trazado 875233 - Contorno" d="M256,342.771h4.976a2,2,0,0,1,2,2v8.66a2,2,0,0,1-2,2H256a2,2,0,0,1-2-2v-8.66A2,2,0,0,1,256,342.771Zm2.976,4H258v4.66h.976Z" transform="translate(-237.598 -319.781)" fill="#fff"/>
          <path id="Trazado_875234" data-name="Trazado 875234" d="M188.937,344.771h4.976v8.66h-4.976Z" transform="translate(-175.511 -319.781)" fill="#fff"/>
          <path id="Trazado_875234_-_Contorno" data-name="Trazado 875234 - Contorno" d="M188.937,342.771h4.976a2,2,0,0,1,2,2v8.66a2,2,0,0,1-2,2h-4.976a2,2,0,0,1-2-2v-8.66A2,2,0,0,1,188.937,342.771Zm2.976,4h-.976v4.66h.976Z" transform="translate(-175.511 -319.781)" fill="#fff"/>
          <path id="Trazado_875235" data-name="Trazado 875235" d="M188.937,443.482h4.976v1.336h-4.976Z" transform="translate(-175.511 -411.168)" fill="#fff"/>
          <path id="Trazado_875235_-_Contorno" data-name="Trazado 875235 - Contorno" d="M188.937,441.482h4.976a2,2,0,0,1,2,2v1.336a2,2,0,0,1-2,2h-4.976a2,2,0,0,1-2-2v-1.336A2,2,0,0,1,188.937,441.482Z" transform="translate(-175.511 -411.168)" fill="#fff"/>
          <path id="Trazado_875236" data-name="Trazado 875236" d="M256,443.482h4.976v1.336H256Z" transform="translate(-237.598 -411.168)" fill="#fff"/>
          <path id="Trazado_875236_-_Contorno" data-name="Trazado 875236 - Contorno" d="M256,441.482h4.976a2,2,0,0,1,2,2v1.336a2,2,0,0,1-2,2H256a2,2,0,0,1-2-2v-1.336A2,2,0,0,1,256,441.482Z" transform="translate(-237.598 -411.168)" fill="#fff"/>
        </g>
        <g id="Grupo_1100143" data-name="Grupo 1100143" transform="translate(0 0)">
          <path id="Trazado_875237" data-name="Trazado 875237" d="M35.855,149.326H34.6V139.6a2.441,2.441,0,0,1,1.706,1.146.558.558,0,0,0,1-.5,3.539,3.539,0,0,0-2.236-1.684,3.8,3.8,0,0,1,1.959-.708.558.558,0,0,0-.049-1.114,5.083,5.083,0,0,0-2.284.715A3.541,3.541,0,0,0,33.3,135.13a.558.558,0,0,0-.622.925,2.408,2.408,0,0,1,.9,1.523,4.982,4.982,0,0,0-2.468-.843.558.558,0,0,0-.049,1.114,3.8,3.8,0,0,1,1.959.708,3.539,3.539,0,0,0-2.236,1.684.558.558,0,1,0,1,.5,2.44,2.44,0,0,1,1.706-1.147v9.726H29.879v-16.35a.558.558,0,1,0-1.115,0v16.35H24.54v-8.12a.558.558,0,0,0-.558-.558H14.01a.558.558,0,0,0-.558.558v3.223a.558.558,0,1,0,1.115,0v-2.666h3.871v7.562H14.568V146.66a.558.558,0,1,0-1.115,0v2.666H9.228V125.434a.558.558,0,0,0-1.115,0v23.892H4.5V139.6a2.441,2.441,0,0,1,1.706,1.146.558.558,0,0,0,1-.5,3.539,3.539,0,0,0-2.236-1.684,3.8,3.8,0,0,1,1.959-.708.558.558,0,0,0-.049-1.114,4.982,4.982,0,0,0-2.468.843,2.409,2.409,0,0,1,.9-1.523.558.558,0,0,0-.622-.926A3.541,3.541,0,0,0,3.3,137.452a5.083,5.083,0,0,0-2.284-.715.558.558,0,0,0-.049,1.114,3.8,3.8,0,0,1,1.959.708,3.539,3.539,0,0,0-2.236,1.684.558.558,0,1,0,1,.5,2.43,2.43,0,0,1,1.7-1.142v9.726H2.137a2.138,2.138,0,0,0,0,4.276H35.855a2.138,2.138,0,0,0,0-4.276Zm-16.3-7.562h3.871v7.562H19.554Zm16.3,10.723H2.137a1.023,1.023,0,0,1,0-2.046H35.855a1.023,1.023,0,0,1,0,2.046Z" transform="translate(0 -115.61)" fill="#fff"/>
          <path id="Trazado_875237_-_Contorno" data-name="Trazado 875237 - Contorno" d="M35.855,155.6H2.137a4.139,4.139,0,0,1-.749-8.209v-4.351q-.1.008-.2.008a2.57,2.57,0,0,1-1.143-.27A2.558,2.558,0,0,1-1.1,139.349a3.941,3.941,0,0,1,.194-.343A2.556,2.556,0,0,1,1.1,134.738a6.7,6.7,0,0,1,1.1.151,5.322,5.322,0,0,1,1.388-1.424,2.56,2.56,0,0,1,2.53-.175v-7.857a2.558,2.558,0,0,1,5.115,0v21.892h.224v-.666a2.542,2.542,0,0,1,.256-1.115,2.542,2.542,0,0,1-.256-1.115v-3.223a2.561,2.561,0,0,1,2.558-2.558h9.972a2.561,2.561,0,0,1,2.558,2.558v6.12h.224v-14.35a2.558,2.558,0,1,1,5.115,0v.313a2.564,2.564,0,0,1,2.531.177A5.313,5.313,0,0,1,35.8,134.89a6.7,6.7,0,0,1,1.1-.151l.112,0a2.556,2.556,0,0,1,1.893,4.271,3.919,3.919,0,0,1,.2.342,2.558,2.558,0,0,1-2.288,3.7q-.1,0-.2-.008v4.351a4.139,4.139,0,0,1-.749,8.209ZM16.312,145.545a2.54,2.54,0,0,1,.127.311v-.622A2.54,2.54,0,0,1,16.312,145.545Z" transform="translate(0 -115.61)" fill="#fff"/>
          <path id="Trazado_875238" data-name="Trazado 875238" d="M93.1,4.267h0V7.593a.558.558,0,1,0,1.115,0V4.267h19.536V15.136a.558.558,0,0,0,1.115,0V4.267h0a1.3,1.3,0,0,0,1.3-1.3V1.3a1.3,1.3,0,0,0-1.3-1.3H93.1a1.3,1.3,0,0,0-1.3,1.3V2.966a1.3,1.3,0,0,0,1.3,1.3ZM92.909,1.3a.186.186,0,0,1,.186-.186h21.767a.186.186,0,0,1,.186.186V2.966a.186.186,0,0,1-.186.186H93.1a.186.186,0,0,1-.186-.186Z" transform="translate(-84.983 0)" fill="#fff"/>
          <path id="Trazado_875238_-_Contorno" data-name="Trazado 875238 - Contorno" d="M93.1-2h21.767a3.3,3.3,0,0,1,3.3,3.3V2.966a3.3,3.3,0,0,1-1.3,2.625v9.545a2.558,2.558,0,1,1-5.115,0V6.267H96.211V7.593a2.558,2.558,0,1,1-5.115,0v-2a3.356,3.356,0,0,1-.334-.293,3.279,3.279,0,0,1-.967-2.334V1.3A3.3,3.3,0,0,1,93.1-2Z" transform="translate(-84.983 0)" fill="#fff"/>
          <path id="Trazado_875239" data-name="Trazado 875239" d="M231.5,252.634H229.25a.93.93,0,0,0-.929.929v2.249a.93.93,0,0,0,.929.929H231.5a.93.93,0,0,0,.929-.929v-2.249A.93.93,0,0,0,231.5,252.634Zm-.186,2.993h-1.877v-1.877h1.877Z" transform="translate(-211.379 -233.888)" fill="#fff"/>
          <path id="Trazado_875239_-_Contorno" data-name="Trazado 875239 - Contorno" d="M229.25,250.634H231.5a2.933,2.933,0,0,1,2.929,2.929v2.249a2.933,2.933,0,0,1-2.929,2.929H229.25a2.933,2.933,0,0,1-2.929-2.929v-2.249A2.933,2.933,0,0,1,229.25,250.634Z" transform="translate(-211.379 -233.888)" fill="#fff"/>
          <path id="Trazado_875240" data-name="Trazado 875240" d="M156.872,252.634h-2.249a.93.93,0,0,0-.929.929v2.249a.93.93,0,0,0,.929.929h2.249a.93.93,0,0,0,.929-.929v-2.249A.93.93,0,0,0,156.872,252.634Zm-.186,2.993h-1.877v-1.877h1.877Z" transform="translate(-142.288 -233.888)" fill="#fff"/>
          <path id="Trazado_875240_-_Contorno" data-name="Trazado 875240 - Contorno" d="M154.622,250.634h2.249a2.933,2.933,0,0,1,2.929,2.929v2.249a2.933,2.933,0,0,1-2.929,2.929h-2.249a2.933,2.933,0,0,1-2.929-2.929v-2.249A2.933,2.933,0,0,1,154.622,250.634Z" transform="translate(-142.288 -233.888)" fill="#fff"/>
          <path id="Trazado_875241" data-name="Trazado 875241" d="M306.126,252.634h-2.249a.93.93,0,0,0-.929.929v2.249a.93.93,0,0,0,.929.929h2.249a.93.93,0,0,0,.929-.929v-2.249A.93.93,0,0,0,306.126,252.634Zm-.186,2.993h-1.877v-1.877h1.877Z" transform="translate(-280.468 -233.888)" fill="#fff"/>
          <path id="Trazado_875241_-_Contorno" data-name="Trazado 875241 - Contorno" d="M303.877,250.634h2.249a2.933,2.933,0,0,1,2.929,2.929v2.249a2.933,2.933,0,0,1-2.929,2.929h-2.249a2.933,2.933,0,0,1-2.929-2.929v-2.249A2.933,2.933,0,0,1,303.877,250.634Z" transform="translate(-280.468 -233.888)" fill="#fff"/>
          <path id="Trazado_875242" data-name="Trazado 875242" d="M232.429,172.087a.93.93,0,0,0-.929-.929H229.25a.93.93,0,0,0-.929.929v2.249a.93.93,0,0,0,.929.929H231.5a.93.93,0,0,0,.929-.929Zm-1.115,2.063h-1.877v-1.877h1.877Z" transform="translate(-211.379 -158.457)" fill="#fff"/>
          <path id="Trazado_875242_-_Contorno" data-name="Trazado 875242 - Contorno" d="M229.25,169.158H231.5a2.933,2.933,0,0,1,2.929,2.929v2.249a2.933,2.933,0,0,1-2.929,2.929H229.25a2.933,2.933,0,0,1-2.929-2.929v-2.249A2.933,2.933,0,0,1,229.25,169.158Z" transform="translate(-211.379 -158.457)" fill="#fff"/>
          <path id="Trazado_875243" data-name="Trazado 875243" d="M157.8,172.087a.93.93,0,0,0-.929-.929h-2.249a.93.93,0,0,0-.929.929v2.249a.93.93,0,0,0,.929.929h2.249a.93.93,0,0,0,.929-.929Zm-1.115,2.063h-1.877v-1.877h1.877Z" transform="translate(-142.288 -158.457)" fill="#fff"/>
          <path id="Trazado_875243_-_Contorno" data-name="Trazado 875243 - Contorno" d="M154.622,169.158h2.249a2.933,2.933,0,0,1,2.929,2.929v2.249a2.933,2.933,0,0,1-2.929,2.929h-2.249a2.933,2.933,0,0,1-2.929-2.929v-2.249A2.933,2.933,0,0,1,154.622,169.158Z" transform="translate(-142.288 -158.457)" fill="#fff"/>
          <path id="Trazado_875244" data-name="Trazado 875244" d="M307.056,172.087a.93.93,0,0,0-.929-.929h-2.249a.93.93,0,0,0-.929.929v2.249a.93.93,0,0,0,.929.929h2.249a.93.93,0,0,0,.929-.929Zm-1.115,2.063h-1.877v-1.877h1.877Z" transform="translate(-280.468 -158.457)" fill="#fff"/>
          <path id="Trazado_875244_-_Contorno" data-name="Trazado 875244 - Contorno" d="M303.877,169.158h2.249a2.933,2.933,0,0,1,2.929,2.929v2.249a2.933,2.933,0,0,1-2.929,2.929h-2.249a2.933,2.933,0,0,1-2.929-2.929v-2.249A2.933,2.933,0,0,1,303.877,169.158Z" transform="translate(-280.468 -158.457)" fill="#fff"/>
          <path id="Trazado_875245" data-name="Trazado 875245" d="M232.429,90.611a.93.93,0,0,0-.929-.929H229.25a.93.93,0,0,0-.929.929V92.86a.93.93,0,0,0,.929.929H231.5a.93.93,0,0,0,.929-.929Zm-1.115,2.063h-1.877V90.8h1.877Z" transform="translate(-211.379 -83.027)" fill="#fff"/>
          <path id="Trazado_875245_-_Contorno" data-name="Trazado 875245 - Contorno" d="M229.25,87.682H231.5a2.933,2.933,0,0,1,2.929,2.929V92.86A2.933,2.933,0,0,1,231.5,95.79H229.25a2.933,2.933,0,0,1-2.929-2.929V90.611A2.933,2.933,0,0,1,229.25,87.682Z" transform="translate(-211.379 -83.027)" fill="#fff"/>
          <path id="Trazado_875246" data-name="Trazado 875246" d="M157.8,90.611a.93.93,0,0,0-.929-.929h-2.249a.93.93,0,0,0-.929.929V92.86a.93.93,0,0,0,.929.929h2.249a.93.93,0,0,0,.929-.929Zm-1.115,2.063h-1.877V90.8h1.877Z" transform="translate(-142.288 -83.027)" fill="#fff"/>
          <path id="Trazado_875246_-_Contorno" data-name="Trazado 875246 - Contorno" d="M154.622,87.682h2.249a2.933,2.933,0,0,1,2.929,2.929V92.86a2.933,2.933,0,0,1-2.929,2.929h-2.249a2.933,2.933,0,0,1-2.929-2.929V90.611A2.933,2.933,0,0,1,154.622,87.682Z" transform="translate(-142.288 -83.027)" fill="#fff"/>
          <path id="Trazado_875247" data-name="Trazado 875247" d="M307.056,90.611a.93.93,0,0,0-.929-.929h-2.249a.93.93,0,0,0-.929.929V92.86a.93.93,0,0,0,.929.929h2.249a.93.93,0,0,0,.929-.929Zm-1.115,2.063h-1.877V90.8h1.877Z" transform="translate(-280.468 -83.027)" fill="#fff"/>
          <path id="Trazado_875247_-_Contorno" data-name="Trazado 875247 - Contorno" d="M303.877,87.682h2.249a2.933,2.933,0,0,1,2.929,2.929V92.86a2.933,2.933,0,0,1-2.929,2.929h-2.249a2.933,2.933,0,0,1-2.929-2.929V90.611A2.933,2.933,0,0,1,303.877,87.682Z" transform="translate(-280.468 -83.027)" fill="#fff"/>
        </g>
      </g>
      <g id="recurso-2" data-name="recurso" transform="translate(1035.791 4238.004)">
        <g id="Grupo_1100142-2" data-name="Grupo 1100142" transform="translate(0.594 0.594)">
          <path id="Trazado_875208-2" data-name="Trazado 875208" d="M43.228,464.637H9.577A1.577,1.577,0,0,1,8,463.06v0a1.577,1.577,0,0,1,1.577-1.577H43.229a1.577,1.577,0,0,1,1.577,1.577v0A1.577,1.577,0,0,1,43.228,464.637Z" transform="translate(-8 -427.832)" fill="#025f80"/>
          <path id="Trazado_875209-2" data-name="Trazado 875209" d="M43.228,474.651H9.577a1.575,1.575,0,0,1-1.427-.91,1.568,1.568,0,0,0-.15.667v0a1.577,1.577,0,0,0,1.577,1.577H43.229a1.577,1.577,0,0,0,1.577-1.577v0a1.568,1.568,0,0,0-.15-.667A1.575,1.575,0,0,1,43.228,474.651Z" transform="translate(-8 -439.181)" fill="#024c67"/>
          <path id="Trazado_875210-2" data-name="Trazado 875210" d="M117.118,50.39h20.611v30.5H117.118Z" transform="translate(-109.021 -47.245)" fill="#faf7f7"/>
          <path id="Trazado_875211-2" data-name="Trazado 875211" d="M117.118,443.482h20.611v1.336H117.118Z" transform="translate(-109.021 -411.168)" fill="#dedbee"/>
          <path id="Trazado_875212-2" data-name="Trazado 875212" d="M117.118,50.39h20.611v1.336H117.118Z" transform="translate(-109.021 -47.245)" fill="#dedbee"/>
          <path id="Trazado_875213-2" data-name="Trazado 875213" d="M122.081,8H100.356a.742.742,0,0,0-.742.742V10.4a.742.742,0,0,0,.742.742h21.725a.742.742,0,0,0,.742-.742V8.742A.742.742,0,0,0,122.081,8Z" transform="translate(-92.816 -8)" fill="#e89d80"/>
          <path id="Trazado_875214-2" data-name="Trazado 875214" d="M122.081,23.132H100.356a.742.742,0,0,1-.742-.742v1.336a.742.742,0,0,0,.742.742h21.725a.742.742,0,0,0,.742-.742V22.39A.742.742,0,0,1,122.081,23.132Z" transform="translate(-92.816 -21.322)" fill="#d28b74"/>
          <g id="Grupo_1100141-2" data-name="Grupo 1100141" transform="translate(11.382 6.642)">
            <path id="Trazado_875215-2" data-name="Trazado 875215" d="M238.49,260.141h-2.245a.371.371,0,0,0-.371.371v2.245a.371.371,0,0,0,.371.371h2.245a.371.371,0,0,0,.371-.371v-2.245A.371.371,0,0,0,238.49,260.141Z" transform="translate(-230.347 -248.073)" fill="#62dbfb"/>
            <path id="Trazado_875216-2" data-name="Trazado 875216" d="M164.009,260.141h-2.245a.371.371,0,0,0-.371.371v2.245a.371.371,0,0,0,.371.371h2.245a.371.371,0,0,0,.371-.371v-2.245A.371.371,0,0,0,164.009,260.141Z" transform="translate(-161.393 -248.073)" fill="#62dbfb"/>
            <path id="Trazado_875217-2" data-name="Trazado 875217" d="M310.726,260.141h2.245a.371.371,0,0,1,.371.371v2.245a.371.371,0,0,1-.371.371h-2.245a.371.371,0,0,1-.371-.371v-2.245A.371.371,0,0,1,310.726,260.141Z" transform="translate(-299.301 -248.073)" fill="#62dbfb"/>
            <path id="Trazado_875218-2" data-name="Trazado 875218" d="M238.49,178.824h-2.245a.371.371,0,0,0-.371.371v2.245a.371.371,0,0,0,.371.371h2.245a.371.371,0,0,0,.371-.371V179.2A.371.371,0,0,0,238.49,178.824Z" transform="translate(-230.347 -172.79)" fill="#62dbfb"/>
            <path id="Trazado_875219-2" data-name="Trazado 875219" d="M164.009,178.824h-2.245a.371.371,0,0,0-.371.371v2.245a.371.371,0,0,0,.371.371h2.245a.371.371,0,0,0,.371-.371V179.2A.371.371,0,0,0,164.009,178.824Z" transform="translate(-161.393 -172.79)" fill="#62dbfb"/>
            <path id="Trazado_875220-2" data-name="Trazado 875220" d="M310.726,178.824h2.245a.371.371,0,0,1,.371.371v2.245a.371.371,0,0,1-.371.371h-2.245a.371.371,0,0,1-.371-.371V179.2A.371.371,0,0,1,310.726,178.824Z" transform="translate(-299.301 -172.79)" fill="#62dbfb"/>
            <path id="Trazado_875221-2" data-name="Trazado 875221" d="M238.49,97.507h-2.245a.371.371,0,0,0-.371.371v2.245a.371.371,0,0,0,.371.371h2.245a.371.371,0,0,0,.371-.371V97.878A.371.371,0,0,0,238.49,97.507Z" transform="translate(-230.347 -97.507)" fill="#62dbfb"/>
            <path id="Trazado_875222-2" data-name="Trazado 875222" d="M164.009,97.507h-2.245a.371.371,0,0,0-.371.371v2.245a.371.371,0,0,0,.371.371h2.245a.371.371,0,0,0,.371-.371V97.878A.371.371,0,0,0,164.009,97.507Z" transform="translate(-161.393 -97.507)" fill="#62dbfb"/>
            <path id="Trazado_875223-2" data-name="Trazado 875223" d="M310.726,97.507h2.245a.371.371,0,0,1,.371.371v2.245a.371.371,0,0,1-.371.371h-2.245a.371.371,0,0,1-.371-.371V97.878A.371.371,0,0,1,310.726,97.507Z" transform="translate(-299.301 -97.507)" fill="#62dbfb"/>
          </g>
          <path id="Trazado_875224-2" data-name="Trazado 875224" d="M238.49,277.764h-2.245a.371.371,0,0,1-.371-.371v1.336a.371.371,0,0,0,.371.371h2.245a.371.371,0,0,0,.371-.371v-1.336A.371.371,0,0,1,238.49,277.764Z" transform="translate(-218.965 -257.403)" fill="#01d0fb"/>
          <path id="Trazado_875225-2" data-name="Trazado 875225" d="M164.009,277.764h-2.245a.371.371,0,0,1-.371-.371v1.336a.371.371,0,0,0,.371.371h2.245a.371.371,0,0,0,.371-.371v-1.336A.371.371,0,0,1,164.009,277.764Z" transform="translate(-150.011 -257.403)" fill="#01d0fb"/>
          <path id="Trazado_875226-2" data-name="Trazado 875226" d="M312.971,277.764h-2.245a.371.371,0,0,1-.371-.371v1.336a.371.371,0,0,0,.371.371h2.245a.371.371,0,0,0,.371-.371v-1.336A.371.371,0,0,1,312.971,277.764Z" transform="translate(-287.919 -257.403)" fill="#01d0fb"/>
          <path id="Trazado_875227-2" data-name="Trazado 875227" d="M238.49,196.446h-2.245a.371.371,0,0,1-.371-.371v1.336a.371.371,0,0,0,.371.371h2.245a.371.371,0,0,0,.371-.371v-1.336A.371.371,0,0,1,238.49,196.446Z" transform="translate(-218.965 -182.119)" fill="#01d0fb"/>
          <path id="Trazado_875228-2" data-name="Trazado 875228" d="M164.009,196.446h-2.245a.371.371,0,0,1-.371-.371v1.336a.371.371,0,0,0,.371.371h2.245a.371.371,0,0,0,.371-.371v-1.336A.371.371,0,0,1,164.009,196.446Z" transform="translate(-150.011 -182.119)" fill="#01d0fb"/>
          <path id="Trazado_875229-2" data-name="Trazado 875229" d="M312.971,196.446h-2.245a.371.371,0,0,1-.371-.371v1.336a.371.371,0,0,0,.371.371h2.245a.371.371,0,0,0,.371-.371v-1.336A.371.371,0,0,1,312.971,196.446Z" transform="translate(-287.919 -182.119)" fill="#01d0fb"/>
          <path id="Trazado_875230-2" data-name="Trazado 875230" d="M238.49,115.129h-2.245a.371.371,0,0,1-.371-.371v1.336a.371.371,0,0,0,.371.371h2.245a.371.371,0,0,0,.371-.371v-1.336A.371.371,0,0,1,238.49,115.129Z" transform="translate(-218.965 -106.836)" fill="#01d0fb"/>
          <path id="Trazado_875231-2" data-name="Trazado 875231" d="M164.009,115.129h-2.245a.371.371,0,0,1-.371-.371v1.336a.371.371,0,0,0,.371.371h2.245a.371.371,0,0,0,.371-.371v-1.336A.371.371,0,0,1,164.009,115.129Z" transform="translate(-150.011 -106.836)" fill="#01d0fb"/>
          <path id="Trazado_875232-2" data-name="Trazado 875232" d="M312.971,115.129h-2.245a.371.371,0,0,1-.371-.371v1.336a.371.371,0,0,0,.371.371h2.245a.371.371,0,0,0,.371-.371v-1.336A.371.371,0,0,1,312.971,115.129Z" transform="translate(-287.919 -106.836)" fill="#01d0fb"/>
          <path id="Trazado_875233-2" data-name="Trazado 875233" d="M256,344.771h4.976v8.66H256Z" transform="translate(-237.598 -319.781)" fill="#62dbfb"/>
          <path id="Trazado_875234-2" data-name="Trazado 875234" d="M188.937,344.771h4.976v8.66h-4.976Z" transform="translate(-175.511 -319.781)" fill="#62dbfb"/>
          <path id="Trazado_875235-2" data-name="Trazado 875235" d="M188.937,443.482h4.976v1.336h-4.976Z" transform="translate(-175.511 -411.168)" fill="#01d0fb"/>
          <path id="Trazado_875236-2" data-name="Trazado 875236" d="M256,443.482h4.976v1.336H256Z" transform="translate(-237.598 -411.168)" fill="#01d0fb"/>
        </g>
        <g id="Grupo_1100143-2" data-name="Grupo 1100143" transform="translate(0 0)">
          <path id="Trazado_875237-2" data-name="Trazado 875237" d="M35.855,149.326H34.6V139.6a2.441,2.441,0,0,1,1.706,1.146.558.558,0,0,0,1-.5,3.539,3.539,0,0,0-2.236-1.684,3.8,3.8,0,0,1,1.959-.708.558.558,0,0,0-.049-1.114,5.083,5.083,0,0,0-2.284.715A3.541,3.541,0,0,0,33.3,135.13a.558.558,0,0,0-.622.925,2.408,2.408,0,0,1,.9,1.523,4.982,4.982,0,0,0-2.468-.843.558.558,0,0,0-.049,1.114,3.8,3.8,0,0,1,1.959.708,3.539,3.539,0,0,0-2.236,1.684.558.558,0,1,0,1,.5,2.44,2.44,0,0,1,1.706-1.147v9.726H29.879v-16.35a.558.558,0,1,0-1.115,0v16.35H24.54v-8.12a.558.558,0,0,0-.558-.558H14.01a.558.558,0,0,0-.558.558v3.223a.558.558,0,1,0,1.115,0v-2.666h3.871v7.562H14.568V146.66a.558.558,0,1,0-1.115,0v2.666H9.228V125.434a.558.558,0,0,0-1.115,0v23.892H4.5V139.6a2.441,2.441,0,0,1,1.706,1.146.558.558,0,0,0,1-.5,3.539,3.539,0,0,0-2.236-1.684,3.8,3.8,0,0,1,1.959-.708.558.558,0,0,0-.049-1.114,4.982,4.982,0,0,0-2.468.843,2.409,2.409,0,0,1,.9-1.523.558.558,0,0,0-.622-.926A3.541,3.541,0,0,0,3.3,137.452a5.083,5.083,0,0,0-2.284-.715.558.558,0,0,0-.049,1.114,3.8,3.8,0,0,1,1.959.708,3.539,3.539,0,0,0-2.236,1.684.558.558,0,1,0,1,.5,2.43,2.43,0,0,1,1.7-1.142v9.726H2.137a2.138,2.138,0,0,0,0,4.276H35.855a2.138,2.138,0,0,0,0-4.276Zm-16.3-7.562h3.871v7.562H19.554Zm16.3,10.723H2.137a1.023,1.023,0,0,1,0-2.046H35.855a1.023,1.023,0,0,1,0,2.046Z" transform="translate(0 -115.61)"/>
          <path id="Trazado_875238-2" data-name="Trazado 875238" d="M93.1,4.267h0V7.593a.558.558,0,1,0,1.115,0V4.267h19.536V15.136a.558.558,0,0,0,1.115,0V4.267h0a1.3,1.3,0,0,0,1.3-1.3V1.3a1.3,1.3,0,0,0-1.3-1.3H93.1a1.3,1.3,0,0,0-1.3,1.3V2.966a1.3,1.3,0,0,0,1.3,1.3ZM92.909,1.3a.186.186,0,0,1,.186-.186h21.767a.186.186,0,0,1,.186.186V2.966a.186.186,0,0,1-.186.186H93.1a.186.186,0,0,1-.186-.186Z" transform="translate(-84.983 0)"/>
          <path id="Trazado_875239-2" data-name="Trazado 875239" d="M231.5,252.634H229.25a.93.93,0,0,0-.929.929v2.249a.93.93,0,0,0,.929.929H231.5a.93.93,0,0,0,.929-.929v-2.249A.93.93,0,0,0,231.5,252.634Zm-.186,2.993h-1.877v-1.877h1.877Z" transform="translate(-211.379 -233.888)"/>
          <path id="Trazado_875240-2" data-name="Trazado 875240" d="M156.872,252.634h-2.249a.93.93,0,0,0-.929.929v2.249a.93.93,0,0,0,.929.929h2.249a.93.93,0,0,0,.929-.929v-2.249A.93.93,0,0,0,156.872,252.634Zm-.186,2.993h-1.877v-1.877h1.877Z" transform="translate(-142.288 -233.888)"/>
          <path id="Trazado_875241-2" data-name="Trazado 875241" d="M306.126,252.634h-2.249a.93.93,0,0,0-.929.929v2.249a.93.93,0,0,0,.929.929h2.249a.93.93,0,0,0,.929-.929v-2.249A.93.93,0,0,0,306.126,252.634Zm-.186,2.993h-1.877v-1.877h1.877Z" transform="translate(-280.468 -233.888)"/>
          <path id="Trazado_875242-2" data-name="Trazado 875242" d="M232.429,172.087a.93.93,0,0,0-.929-.929H229.25a.93.93,0,0,0-.929.929v2.249a.93.93,0,0,0,.929.929H231.5a.93.93,0,0,0,.929-.929Zm-1.115,2.063h-1.877v-1.877h1.877Z" transform="translate(-211.379 -158.457)"/>
          <path id="Trazado_875243-2" data-name="Trazado 875243" d="M157.8,172.087a.93.93,0,0,0-.929-.929h-2.249a.93.93,0,0,0-.929.929v2.249a.93.93,0,0,0,.929.929h2.249a.93.93,0,0,0,.929-.929Zm-1.115,2.063h-1.877v-1.877h1.877Z" transform="translate(-142.288 -158.457)"/>
          <path id="Trazado_875244-2" data-name="Trazado 875244" d="M307.056,172.087a.93.93,0,0,0-.929-.929h-2.249a.93.93,0,0,0-.929.929v2.249a.93.93,0,0,0,.929.929h2.249a.93.93,0,0,0,.929-.929Zm-1.115,2.063h-1.877v-1.877h1.877Z" transform="translate(-280.468 -158.457)"/>
          <path id="Trazado_875245-2" data-name="Trazado 875245" d="M232.429,90.611a.93.93,0,0,0-.929-.929H229.25a.93.93,0,0,0-.929.929V92.86a.93.93,0,0,0,.929.929H231.5a.93.93,0,0,0,.929-.929Zm-1.115,2.063h-1.877V90.8h1.877Z" transform="translate(-211.379 -83.027)"/>
          <path id="Trazado_875246-2" data-name="Trazado 875246" d="M157.8,90.611a.93.93,0,0,0-.929-.929h-2.249a.93.93,0,0,0-.929.929V92.86a.93.93,0,0,0,.929.929h2.249a.93.93,0,0,0,.929-.929Zm-1.115,2.063h-1.877V90.8h1.877Z" transform="translate(-142.288 -83.027)"/>
          <path id="Trazado_875247-2" data-name="Trazado 875247" d="M307.056,90.611a.93.93,0,0,0-.929-.929h-2.249a.93.93,0,0,0-.929.929V92.86a.93.93,0,0,0,.929.929h2.249a.93.93,0,0,0,.929-.929Zm-1.115,2.063h-1.877V90.8h1.877Z" transform="translate(-280.468 -83.027)"/>
        </g>
      </g>
    </g>
  </g>
</svg>
