<svg xmlns="http://www.w3.org/2000/svg" width="64.234" height="64.013" viewBox="0 0 64.234 64.013">
  <g id="_11-best_price" data-name="11-best price" transform="translate(0 0.001)">
    <circle id="Elipse_11509" data-name="Elipse 11509" cx="21" cy="21" r="21" transform="translate(21 1)" fill="#ebd557"/>
    <circle id="Elipse_11510" data-name="Elipse 11510" cx="17" cy="17" r="17" transform="translate(25 5)" fill="#fcea81"/>
    <path id="Trazado_874758" data-name="Trazado 874758" d="M43,19H41a3,3,0,0,1,0-6h7a2,2,0,0,0,0-4H44V5H40V9.08A7,7,0,0,0,41,23h2a3,3,0,0,1,0,6H36a2,2,0,0,0,0,4h4v4h4V32.92A7,7,0,0,0,43,19Z" fill="#d7986c"/>
    <path id="Trazado_874759" data-name="Trazado 874759" d="M38,45H37a3,3,0,0,1,0,6H36a3,3,0,0,1,0,6H35a3,3,0,0,1,0,6H18l-7-2V43c3,0,5-4,5-4l4-14s5,0,5,6l-1,8H38a3,3,0,0,1,0,6Z" fill="#e7cea0"/>
    <path id="Trazado_874760" data-name="Trazado 874760" d="M1,41H11V63H1Z" fill="#7bace6"/>
    <path id="Trazado_874761" data-name="Trazado 874761" d="M42,42a4,4,0,0,0-4-4H25.13L26,31.12A.49.49,0,0,0,26,31c0-5.54-3.92-7-6-7a1,1,0,0,0-1,.73L15,38.62a7.67,7.67,0,0,1-3,3.17V41a1,1,0,0,0-1-1H1a1,1,0,0,0-1,1V63a1,1,0,0,0,1,1H11a1,1,0,0,0,1-1v-.67L17.73,64A.8.8,0,0,0,18,64H35a4,4,0,0,0,3-6.58,4,4,0,0,0,1-6,4,4,0,0,0,1-6A4,4,0,0,0,42,42ZM10,62H2V42h8Zm25,0H18.14L12,60.25V43.88c3-.69,4.81-4.26,4.89-4.43a1.34,1.34,0,0,0,.07-.18l3.77-13.18c1.17.26,3.25,1.23,3.27,4.85l-1,7.94A1,1,0,0,0,24,40H38a2,2,0,0,1,0,4H33a1,1,0,0,0,0,2h4a2,2,0,0,1,0,4H32a1,1,0,0,0,0,2h4a2,2,0,0,1,0,4H31a1,1,0,0,0,0,2h4a2,2,0,0,1,0,4Z"/>
    <path id="Trazado_874762" data-name="Trazado 874762" d="M13,15h1v1a1,1,0,0,0,2,0V15h1a1,1,0,0,0,0-2H16V12a1,1,0,0,0-2,0v1H13a1,1,0,0,0,0,2Z"/>
    <path id="Trazado_874763" data-name="Trazado 874763" d="M54,50H53V49a1,1,0,0,0-2,0v1H50a1,1,0,0,0,0,2h1v1a1,1,0,0,0,2,0V52h1a1,1,0,0,0,0-2Z"/>
    <path id="Trazado_874764" data-name="Trazado 874764" d="M42,0A22,22,0,0,0,20,22a1,1,0,0,0,2,0A20,20,0,1,1,45.81,41.64a1,1,0,0,0,.19,2h.19A22,22,0,0,0,42,0Z"/>
    <path id="Trazado_874765" data-name="Trazado 874765" d="M51,26a8,8,0,0,0-8-8H41a2,2,0,0,1,0-4h7a3,3,0,1,0,0-6H45V5a1,1,0,0,0-1-1H40a1,1,0,0,0-1,1V8.26A8,8,0,0,0,41,24h2a2,2,0,0,1,0,4H36a3,3,0,1,0,0,6h3v3a1,1,0,0,0,1,1h4a1,1,0,0,0,1-1V33.74A8,8,0,0,0,51,26Zm-7.14,5.93a1,1,0,0,0-.86,1V36H41V33a1,1,0,0,0-1-1H36a1,1,0,0,1,0-2h7a4,4,0,0,0,0-8H41a6,6,0,0,1-.86-11.93,1,1,0,0,0,.86-1V6h2V9a1,1,0,0,0,1,1h4a1,1,0,0,1,0,2H41a4,4,0,0,0,0,8h2a6,6,0,0,1,.86,11.93Z"/>
  </g>
</svg>
