<svg xmlns="http://www.w3.org/2000/svg" xmlns:xlink="http://www.w3.org/1999/xlink" width="610.051" height="160.821" viewBox="0 0 610.051 160.821">
  <defs>
    <clipPath id="clip-path">
      <rect id="Rectángulo_401629" data-name="Rectángulo 401629" width="262.804" height="157.889" fill="none"/>
    </clipPath>
    <clipPath id="clip-path-2">
      <rect id="Rectángulo_401630" data-name="Rectángulo 401630" width="400.051" height="160.821" fill="#eed7fe"/>
    </clipPath>
    <clipPath id="clip-path-3">
      <rect id="Rectángulo_401628" data-name="Rectángulo 401628" width="383.157" height="597.916" fill="none"/>
    </clipPath>
    <clipPath id="clip-path-5">
      <rect id="Rectángulo_401625" data-name="Rectángulo 401625" width="6.783" height="6.187" fill="none"/>
    </clipPath>
    <clipPath id="clip-path-6">
      <rect id="Rectángulo_401626" data-name="Rectángulo 401626" width="6.513" height="6.491" fill="none"/>
    </clipPath>
  </defs>
  <g id="Grupo_1100191" data-name="Grupo 1100191" transform="translate(-600.051 -5572)">
    <rect id="Rectángulo_401379" data-name="Rectángulo 401379" width="610.051" height="160.821" rx="17" transform="translate(600.051 5572)" fill="#c8d5c6"/>
    <g id="Grupo_1100190" data-name="Grupo 1100190" transform="translate(600.051 5574.932)">
      <g id="Grupo_1100189" data-name="Grupo 1100189" clip-path="url(#clip-path)">
        <path id="Trazado_875370" data-name="Trazado 875370" d="M215.235,113.611c-29.13-28.025-38.1-21.057-38.1-21.057-22.073-10.891-37.979-12.93-49.084-11.513-.975-.4-2.04-.807-3.206-1.231C89.735,67.024,53.5,77.949,35.95,102.354s-24.278,58.572-24.278,58.572H263.355s-18.99-19.291-48.12-47.316" transform="translate(-0.551 -3.514)" fill="#004216"/>
        <path id="Trazado_875371" data-name="Trazado 875371" d="M9.5,32.363a46.414,46.414,0,0,1,4.286-19.546C17.91,4.016,25.44-4.45,38.115,3.962c22.18,14.72,19.962,105.471,0,153.473H0s9.142-23.82,9.5-125.073" transform="translate(0 -0.024)" fill="#29a079"/>
        <path id="Trazado_875372" data-name="Trazado 875372" d="M55.4,64.547S64.871,35.026,84.39,43.132,97.1,112.267,69.9,159.382H31.158S43.712,99.148,55.4,64.547" transform="translate(-1.471 -1.97)" fill="#045f5a"/>
        <path id="Trazado_875373" data-name="Trazado 875373" d="M29.153.5s19.517,50.526-9.17,156.936" transform="translate(-0.944 -0.024)" fill="none" stroke="#222" stroke-linecap="round" stroke-linejoin="round" stroke-width="1"/>
        <path id="Trazado_875374" data-name="Trazado 875374" d="M85.533,43.2S68.676,99.916,55.368,159.452" transform="translate(-2.615 -2.04)" fill="none" stroke="#222" stroke-linecap="round" stroke-linejoin="round" stroke-width="1"/>
        <path id="Trazado_875375" data-name="Trazado 875375" d="M90.753,161.325s6.21-78.071,31.052-78.469,31.5,29.579,25.285,78.469Z" transform="translate(-4.286 -3.912)" fill="#045f5a"/>
        <path id="Trazado_875376" data-name="Trazado 875376" d="M202.253,73.086c-24.545-6.21-39.48,22.435-61.217,87.738h51.9s42.092-79.445,9.315-87.738" transform="translate(-6.66 -3.412)" fill="#29a079"/>
        <path id="Trazado_875377" data-name="Trazado 875377" d="M123.344,82.856s11.09,11.834,0,78.469" transform="translate(-5.825 -3.913)" fill="none" stroke="#222" stroke-linecap="round" stroke-linejoin="round" stroke-width="1"/>
        <path id="Trazado_875378" data-name="Trazado 875378" d="M201.447,72.634s-12.869,29.115-30.613,88.208" transform="translate(-8.067 -3.43)" fill="none" stroke="#222" stroke-linecap="round" stroke-linejoin="round" stroke-width="1"/>
        <path id="Trazado_875379" data-name="Trazado 875379" d="M22.34,161.105S48.364,76.177,61.377,78.246s-20.7,82.859-20.7,82.859Z" transform="translate(-1.055 -3.693)" fill="#bdd19c"/>
        <path id="Trazado_875380" data-name="Trazado 875380" d="M92.37,112.934c-5.722-1.907-15.644,12.528-35.769,49.737H77.614s26.29-45.892,14.757-49.737" transform="translate(-2.673 -5.325)" fill="#bdd19c"/>
        <path id="Trazado_875381" data-name="Trazado 875381" d="M136.4,118.73c-7.69,1.05-7.1,23.34-2.366,44.283h17.113S157.1,115.9,136.4,118.73" transform="translate(-6.164 -5.601)" fill="#bdd19c"/>
        <path id="Trazado_875382" data-name="Trazado 875382" d="M175.571,97.8c-7.814-.26-16.936,26.723-23.4,64.228h13.347s27.8-63.636,10.055-64.228" transform="translate(-7.186 -4.618)" fill="#bdd19c"/>
        <path id="Trazado_875383" data-name="Trazado 875383" d="M38.029,52.165s5.619,26.32,26.912,23.363,21-25.781,17.744-33.592-13.308-2.916-13.308-2.916-8.871-11.748-18.039,2.916c0,0-13.308-5.149-13.308,10.229" transform="translate(-1.796 -1.632)" fill="#ff5d7a"/>
        <path id="Trazado_875384" data-name="Trazado 875384" d="M82.7,71.856s-5.028,26.32,15.969,32.235,29.278-19.519,29.278-23.955-2.957-10.351-11.83-8.281c0,0,.3-6.507-6.21-8.281S98.668,68.6,98.668,68.6,91.275,58.844,82.7,71.856" transform="translate(-3.88 -2.988)" fill="#ff5d7a"/>
        <path id="Trazado_875385" data-name="Trazado 875385" d="M38.029,52.593s10.745-4.929,15.477,4.337c0,0,6.9-16.48,18.927-1.34,0,0,.716-11.074,10.708-11.965" transform="translate(-1.796 -2.06)" fill="none" stroke="#222" stroke-linecap="round" stroke-linejoin="round" stroke-width="1"/>
        <path id="Trazado_875386" data-name="Trazado 875386" d="M82.725,72.276S94.258,70.3,94.85,83.317c0,0,13.8-14,18.138,4.337,0,0,6.7-10.646,14.984-7.1" transform="translate(-3.906 -3.408)" fill="none" stroke="#222" stroke-linecap="round" stroke-linejoin="round" stroke-width="1"/>
        <path id="Trazado_875387" data-name="Trazado 875387" d="M66.274,77.558s4.14,51.269,9.463,83.45" transform="translate(-3.13 -3.663)" fill="none" stroke="#222" stroke-linecap="round" stroke-linejoin="round" stroke-width="1"/>
        <path id="Trazado_875388" data-name="Trazado 875388" d="M98.668,106.114s-7.265,34.412-16.5,56.243" transform="translate(-3.88 -5.011)" fill="none" stroke="#222" stroke-linecap="round" stroke-linejoin="round" stroke-width="1"/>
      </g>
    </g>
    <g id="Enmascarar_grupo_1098725" data-name="Enmascarar grupo 1098725" transform="translate(810.051 5572)" clip-path="url(#clip-path-2)">
      <g id="Grupo_1100188" data-name="Grupo 1100188" transform="translate(0 -23.937)">
        <g id="Grupo_1100187" data-name="Grupo 1100187" clip-path="url(#clip-path-3)">
          <g id="Grupo_1100186" data-name="Grupo 1100186">
            <g id="Grupo_1100185" data-name="Grupo 1100185" clip-path="url(#clip-path-3)">
              <path id="Trazado_875299" data-name="Trazado 875299" d="M262.114,62.791s-60.561,7.892-78.93,10.037-22.339-2.708-29.973-2.787-23.4-1.952-28.153.436-21.972,18.179-21.972,18.179c3.744,4.872,19.208-5.8,19.208-5.8-1.928,2.686-.537,4.918.906,6.291-1,2.692,2.53,5.778,5.466,7.791.213,3.963,8.048,8.515,13.735,8.458,5.966-.059,8.373-2,8.373-2s12.47-.116,14.813-.568a4.228,4.228,0,0,0,3.075-1.989s59.085.255,84.357-.272c10.67-.221,18.468-1.149,24.238-2.794Z" transform="translate(-103.087 64.504)" fill="#fb7869"/>
              <path id="Trazado_875300" data-name="Trazado 875300" d="M180.489,66.631c-.446.034-17.836,3.225-21.449,4.673,0,0-.876,3.748,6.163,4.235s19.391,1.186,19.391,1.186,5.068,10.917,16.95,12.506" transform="translate(-140.736 68.448)" fill="none" stroke="#222" stroke-linecap="round" stroke-linejoin="round" stroke-width="0.75"/>
              <line id="Línea_668" data-name="Línea 668" x1="9.159" y2="9.23" transform="translate(45.309 155.758)" fill="none" stroke="#222" stroke-linecap="round" stroke-linejoin="round" stroke-width="0.75"/>
              <path id="Trazado_875301" data-name="Trazado 875301" d="M181.49,68.125s2.151,2.189,0,3.5a8.319,8.319,0,0,1-5.026.833" transform="translate(-157.027 69.983)" fill="none" stroke="#222" stroke-linecap="round" stroke-linejoin="round" stroke-width="0.75"/>
              <path id="Trazado_875302" data-name="Trazado 875302" d="M190.262,73.31s1.456.7-1.243,3.059l-2.7,2.358" transform="translate(-185.22 75.309)" fill="none" stroke="#222" stroke-linecap="round" stroke-linejoin="round" stroke-width="0.75"/>
              <line id="Línea_669" data-name="Línea 669" y1="3.371" x2="5.259" transform="translate(19.208 143.986)" fill="none" stroke="#222" stroke-linecap="round" stroke-linejoin="round" stroke-width="0.75"/>
              <path id="Trazado_875303" data-name="Trazado 875303" d="M174.712,72.822s13.528,6.579,14.509,7.085,3.669,1.6,1.4,5.324-23.642-6.39-23.642-6.39" transform="translate(-146.865 74.808)" fill="none" stroke="#222" stroke-linecap="round" stroke-linejoin="round" stroke-width="0.75"/>
              <path id="Trazado_875304" data-name="Trazado 875304" d="M167.916,81.324s-2.416-2.68.56-4.225c1.07-.555,4.444.43,6.139,1.508" transform="translate(-129.991 79.038)" fill="none" stroke="#222" stroke-linecap="round" stroke-linejoin="round" stroke-width="0.75"/>
              <path id="Trazado_875305" data-name="Trazado 875305" d="M166.931,80.345c.428.077,10.122,3.773,15.123,3.783,3.8.008,5.145-3.227,3.053-5.186" transform="translate(-141.351 81.095)" fill="none" stroke="#222" stroke-linecap="round" stroke-linejoin="round" stroke-width="0.75"/>
              <path id="Trazado_875306" data-name="Trazado 875306" d="M166.944,79.362a26.274,26.274,0,0,1,2.86.955" transform="translate(-125.089 81.526)" fill="none" stroke="#222" stroke-linecap="round" stroke-linejoin="round" stroke-width="0.75"/>
              <path id="Trazado_875307" data-name="Trazado 875307" d="M171.225,83.647a2.39,2.39,0,0,1-.5-3.953,1.673,1.673,0,0,1,.953-.48" transform="translate(-132.865 81.373)" fill="none" stroke="#222" stroke-linecap="round" stroke-linejoin="round" stroke-width="0.75"/>
              <path id="Trazado_875308" data-name="Trazado 875308" d="M165.478,81.364s5.032-.472,5.141,2.976" transform="translate(-122.932 83.561)" fill="none" stroke="#222" stroke-linecap="round" stroke-linejoin="round" stroke-width="0.75"/>
              <path id="Trazado_875309" data-name="Trazado 875309" d="M166.741,85.446s-1.956-1.636.2-2.755,4.681-.649,5.08,1.411" transform="translate(-125.253 84.339)" fill="none" stroke="#222" stroke-linecap="round" stroke-linejoin="round" stroke-width="0.75"/>
              <path id="Trazado_875310" data-name="Trazado 875310" d="M173.632,71.173s3.7.9,1.31,4.561" transform="translate(-144.587 73.114)" fill="none" stroke="#222" stroke-linecap="round" stroke-linejoin="round" stroke-width="0.75"/>
              <path id="Trazado_875311" data-name="Trazado 875311" d="M160.518,83.307h0c-4.618-.014-7.4-.026-7.4-.026s-.043.079-.114.189a7.691,7.691,0,0,0,.521-3.586Z" transform="translate(-87.536 82.062)" fill="#222"/>
              <path id="Trazado_875312" data-name="Trazado 875312" d="M148.694,32.191a24.519,24.519,0,0,0-16.21-5.9c-4.3-8.628-13.218-24.4-21.8-26.1-11.872-2.342-.219,16.944-.219,16.944S85.055-1.394,82.817,11.99a8.794,8.794,0,0,0,.628,5.1c-3.44-.182-6.53.825-8.569,3.963-2.706,4.168-1.717,7.185.687,9.374-6.6.71-7.985,5.8-4.732,10.282,6.7,9.228,12.541,9.273,12.541,9.273S80.559,95,120.934,88.992s53.465-34.855,27.759-56.8" transform="translate(81.063 0)" fill="#222"/>
              <path id="Trazado_875313" data-name="Trazado 875313" d="M127.46,29.516c4.594,11.768,5.226,25.229,2.741,31.806a26.176,26.176,0,0,1-1.587,3.384c-6.433,11.734-19.273,13.8-19.273,13.8a14.678,14.678,0,0,1-1.474.067C102.845,78.595,86.43,76.9,81.214,54.4a53.965,53.965,0,0,1,2.108-31.938,7.72,7.72,0,0,1,12.883-2.577c4.916,5.07,13.69,10.146,29.061,9.926Z" transform="translate(89.868 17.912)" fill="#f27364"/>
              <path id="Trazado_875314" data-name="Trazado 875314" d="M104.875,60.3,99.158,40.752c-6.433,11.736-19.271,13.8-19.271,13.8a14.748,14.748,0,0,1-1.476.067L85.62,79.049s16.149-3.1,19.255-18.748" transform="translate(119.321 41.863)" fill="#f27364"/>
              <path id="Trazado_875315" data-name="Trazado 875315" d="M83.013,54.038a14.754,14.754,0,0,1-1.476.067l2.082,7.057c5.216-1.786,16.384-7.108,18.045-19.908-6.6,10.815-18.651,12.784-18.651,12.784" transform="translate(116.195 42.379)" fill="#222"/>
              <path id="Trazado_875316" data-name="Trazado 875316" d="M76.22,44.407s10.586-1.94,9.325-13.246c-1.271-11.393-11.718-7.673-11.718-7.673s2.96,7.848,2.392,20.919" transform="translate(147.839 23.531)" fill="#f27364"/>
              <path id="Trazado_875317" data-name="Trazado 875317" d="M74.974,25a5.257,5.257,0,0,1,6.1,3.444" transform="translate(150.088 25.557)" fill="none" stroke="#222" stroke-linecap="round" stroke-linejoin="round" stroke-width="0.5"/>
              <path id="Trazado_875318" data-name="Trazado 875318" d="M77.513,25.212a10.486,10.486,0,0,1-1.089,8.774" transform="translate(150.202 25.9)" fill="none" stroke="#222" stroke-linecap="round" stroke-linejoin="round" stroke-width="0.5"/>
              <path id="Trazado_875319" data-name="Trazado 875319" d="M116.311,45.626s-8.35,1.8-10.852-6.874c-2.524-8.744,6.266-9.2,6.266-9.2s.209,6.658,4.586,16.072" transform="translate(53.973 30.36)" fill="#f27364"/>
              <path id="Trazado_875320" data-name="Trazado 875320" d="M111.4,31.343a4.183,4.183,0,0,0-3.432,4.385" transform="translate(52.885 32.198)" fill="none" stroke="#222" stroke-linecap="round" stroke-linejoin="round" stroke-width="0.5"/>
              <path id="Trazado_875321" data-name="Trazado 875321" d="M107.136,31.944a8.309,8.309,0,0,0,3.459,6.1" transform="translate(55.368 32.815)" fill="none" stroke="#222" stroke-linecap="round" stroke-linejoin="round" stroke-width="0.5"/>
              <path id="Trazado_875322" data-name="Trazado 875322" d="M89.451,24.5A15.03,15.03,0,0,1,97.779,27" transform="translate(104.036 25.163)" fill="none" stroke="#222" stroke-linecap="round" stroke-linejoin="round" stroke-width="0.5"/>
              <path id="Trazado_875323" data-name="Trazado 875323" d="M100.654,29.907a12.131,12.131,0,0,1,5.764-4" transform="translate(72.686 26.609)" fill="none" stroke="#222" stroke-linecap="round" stroke-linejoin="round" stroke-width="0.5"/>
              <path id="Trazado_875324" data-name="Trazado 875324" d="M99.8,28.065a11.5,11.5,0,0,1-1.79,8.695c-3.576,5.417-1.612,6.834,2.761,7.621" transform="translate(87.466 28.83)" fill="none" stroke="#222" stroke-linecap="round" stroke-linejoin="round" stroke-width="0.5"/>
              <g id="Grupo_1100181" data-name="Grupo 1100181" transform="translate(197.712 64.421)" opacity="0.5" style="mix-blend-mode: multiply;isolation: isolate">
                <g id="Grupo_1100180" data-name="Grupo 1100180" transform="translate(0)">
                  <g id="Grupo_1100179" data-name="Grupo 1100179" transform="translate(0)" clip-path="url(#clip-path-5)">
                    <path id="Trazado_875325" data-name="Trazado 875325" d="M94.449,32.186c-1.81-1.4-2.858,1.259-2.858,1.259s-1.977-2.463-3.24-.59c-1.093,1.624,2.135,5.23,3.538,5.107s4.107-4.578,2.56-5.776" transform="translate(-88.13 -31.777)" fill="#f23d4f"/>
                  </g>
                </g>
              </g>
              <g id="Grupo_1100184" data-name="Grupo 1100184" transform="translate(175.829 72.272)" opacity="0.5" style="mix-blend-mode: multiply;isolation: isolate">
                <g id="Grupo_1100183" data-name="Grupo 1100183" transform="translate(0)">
                  <g id="Grupo_1100182" data-name="Grupo 1100182" clip-path="url(#clip-path-6)">
                    <path id="Trazado_875326" data-name="Trazado 875326" d="M99.071,39.411c.377-2.273,2.942-1.046,2.942-1.046S101.8,35.2,103.985,35.7c1.9.436,1.968,5.3.86,6.171s-6.1-.519-5.774-2.463" transform="translate(-99.054 -35.651)" fill="#f23d4f"/>
                  </g>
                </g>
              </g>
              <path id="Trazado_875327" data-name="Trazado 875327" d="M91.565,42.419A8.77,8.77,0,0,0,97.754,36.4" transform="translate(99.775 37.389)" fill="none" stroke="#222" stroke-linecap="round" stroke-linejoin="round" stroke-width="0.5"/>
              <path id="Trazado_875328" data-name="Trazado 875328" d="M95.748,30.121a2.395,2.395,0,1,1-2.885-1.82,2.419,2.419,0,0,1,2.885,1.82" transform="translate(102.817 29.007)" fill="#222"/>
              <path id="Trazado_875329" data-name="Trazado 875329" d="M103.886,31.562A2.395,2.395,0,1,1,101,29.741a2.418,2.418,0,0,1,2.883,1.82" transform="translate(78.181 30.487)" fill="#222"/>
              <path id="Trazado_875330" data-name="Trazado 875330" d="M76.953,19.407s2.611-7.584,14.692-9.007" transform="translate(135.507 10.684)" fill="#222"/>
              <path id="Trazado_875331" data-name="Trazado 875331" d="M81.464,23.145S78.405,15.7,86.409,6.434" transform="translate(132.762 6.609)" fill="#222"/>
              <path id="Trazado_875332" data-name="Trazado 875332" d="M93.5,114.142,89.612,75.263l78.914-20.544v54.455Z" transform="translate(32.964 56.21)" fill="#fdb474"/>
              <path id="Trazado_875333" data-name="Trazado 875333" d="M83.029,49.021s25.99-.412,35.889,40.839,62.292,59.817,40.428,103.545c0,0-27.433,23.1-86.218,34.239,0,0-30.32-3.793-32.8-53.565S14.343,116.541,31.67,71.85Z" transform="translate(167.139 50.358)" fill="#fdb474"/>
              <path id="Trazado_875334" data-name="Trazado 875334" d="M148.265,119.3c20.5,13.514,24.21,35.962,23.293,60.7s15.45,71.113,15.45,71.113,24.759,11.043,6.949,48.146c0,0,19.981,11.484,1.3,41.519,0,0,25.25,22.087-9.984,39.755H138.932s-12.164-17.228-16.072-45.5-9.123-142.669-9.123-142.669L88.544,216.657s6.516,22.085-21.284,28.27c0,0,35.619,19.875,13.9,53,0,0,45.176,9.277,19.547,59.63l3.911,14.134L65.9,400.222S-5.7,339.23.364,259.061c5.095-67.391,54.6-105.572,54.6-105.572Z" transform="translate(179.135 122.553)" fill="#fdfaec"/>
              <line id="Línea_670" data-name="Línea 670" y1="50.38" x2="50.248" transform="translate(267.678 288.83)" fill="none" stroke="#222" stroke-linecap="round" stroke-linejoin="round" stroke-width="1"/>
              <path id="Trazado_875335" data-name="Trazado 875335" d="M56.387,312.616c7.4-9.658,9.759-12.162,5.038-16.962-5.881-5.978-21.171-23.52-21.171-23.52l40.58-29.9L98.747,274.54s-14.205,9.4-8.243,29.325L68.883,319.6Z" transform="translate(202.804 248.84)" fill="#fca84a"/>
              <path id="Trazado_875336" data-name="Trazado 875336" d="M45.411,258.169l9.216,16.622-17.457,12.7c-5.964-19.922,8.241-29.325,8.241-29.325" transform="translate(256.139 265.21)" fill="#302e2e"/>
              <path id="Trazado_875337" data-name="Trazado 875337" d="M62.81,285.5c2.4-3.386,4.513-6.177,6.331-8.553l12.5,6.982L54.985,303.328c.685-4.616,2.747-10.659,7.825-17.824" transform="translate(190.049 284.504)" fill="#302e2e"/>
              <line id="Línea_671" data-name="Línea 671" x1="38.93" y2="29.122" transform="translate(248.702 498.277)" fill="none" stroke="#302e2e" stroke-miterlimit="10" stroke-width="1"/>
              <path id="Trazado_875338" data-name="Trazado 875338" d="M34.771,324.283S33.05,320.63,34,314.2l65.73-47.831,4.04,7.284Z" transform="translate(211.03 273.633)" fill="#fdfaec"/>
              <path id="Trazado_875339" data-name="Trazado 875339" d="M56.234,271.033s6,1.214,4.044,7-5,12.827-5,12.827" transform="translate(210.42 278.425)" fill="none" stroke="#302e2e" stroke-miterlimit="10" stroke-width="1"/>
              <path id="Trazado_875340" data-name="Trazado 875340" d="M117.091,56.439,102.239,41.8S63.05,56.822,65.732,79.268Z" transform="translate(133.077 42.94)" fill="#fdb474"/>
              <path id="Trazado_875341" data-name="Trazado 875341" d="M125.433,94.794s-45.79,19.192-91.272.533" transform="translate(188.47 97.379)" fill="none" stroke="#222" stroke-miterlimit="10" stroke-width="8"/>
              <path id="Trazado_875342" data-name="Trazado 875342" d="M146.649,79.482S91.487,34.813,53.741,71.052c-7.748,7.44-10.017,26.211-3.757,35.905" transform="translate(142.503 58.425)" fill="none" stroke="#222" stroke-miterlimit="10" stroke-width="8"/>
              <path id="Trazado_875343" data-name="Trazado 875343" d="M51.7,53.762c5.565,2.944,15.949,8.531,28.132,15.553,18.254,10.52,34.034,36.8,9.591,63.107S36.517,147.8,36.517,147.8L10.432,91.909A109.04,109.04,0,0,0,51.7,53.762" transform="translate(260.061 55.228)" fill="#fac268"/>
              <path id="Trazado_875344" data-name="Trazado 875344" d="M82.137,37.13c18.193,6.12,20.117,22.341,17.968,36.116a109.04,109.04,0,0,1-41.267,38.147L34.871,60.045S48.1,25.682,82.137,37.13" transform="translate(211.655 35.744)" fill="#fac268"/>
              <path id="Trazado_875345" data-name="Trazado 875345" d="M64.313,39.3c13.743.815,26.012,19.012,17.145,34.048s-30.095,13.07-38.017,0C35.891,60.891,37.863,37.731,64.313,39.3" transform="translate(218.398 40.294)" fill="#893e29"/>
              <path id="Trazado_875346" data-name="Trazado 875346" d="M16.275,63.3a81.346,81.346,0,0,0,6.741-9.534c5.565,2.944,15.949,8.531,28.132,15.553a48.04,48.04,0,0,1,10.27,7.994l0,.006C47.238,98.619,16.275,63.3,16.275,63.3" transform="translate(288.744 55.228)" fill="#fca84a"/>
              <path id="Trazado_875347" data-name="Trazado 875347" d="M48.655,138.194,22.572,82.307A107.165,107.165,0,0,0,48.608,63.122c.787-.78,33.426,29.708,40.868,69.769a48.943,48.943,0,0,1-40.821,5.3" transform="translate(247.921 64.829)" fill="#ec7e3b"/>
              <path id="Trazado_875348" data-name="Trazado 875348" d="M23.443,69.853c7.091,12.389,7.9,28.643-6.627,44.991C2.532,91.531,15.583,76.267,23.443,69.853" transform="translate(333.617 71.758)" fill="#fca84a"/>
              <path id="Trazado_875349" data-name="Trazado 875349" d="M52.132,93.882C42.545,87.121,14.4,62.548,13.21,61.506l3.633-4.174c.292.253,29.116,25.418,38.459,32.009Z" transform="translate(301.074 58.896)" fill="#893e29"/>
              <path id="Trazado_875350" data-name="Trazado 875350" d="M33.311,59.65a1.949,1.949,0,0,1,.418,2.676,2.229,2.229,0,0,1-3.11-2.974,1.95,1.95,0,0,1,2.692.3" transform="translate(287.738 60.543)" fill="#fdb474"/>
              <path id="Trazado_875351" data-name="Trazado 875351" d="M31.023,61.616a1.949,1.949,0,0,1,.418,2.676,1.95,1.95,0,0,1-2.692-.3,1.951,1.951,0,0,1-.418-2.678,1.95,1.95,0,0,1,2.692.3" transform="translate(294.665 62.562)" fill="#fdb474"/>
              <path id="Trazado_875352" data-name="Trazado 875352" d="M25.911,75.517c1.938-2.567-.385-4.369-1.924-5.563l-.641-.5c-1.492-1.2-3.542-2.858-5.593-.466a3.344,3.344,0,0,0-1,2.52c.091,1.121.886,2.309,2.427,3.629,1.668,1.429,2.944,2.433,4.168,2.309a2.962,2.962,0,0,0,1.843-1.06,9.861,9.861,0,0,0,.724-.864M18.2,69.372c1.685-1.932,3.264-.687,4.784.533l.647.511c1.514,1.174,3.4,2.635,1.808,4.742-.837,1.111-1.5,1.634-2.161,1.7-.908.091-1.924-.626-3.722-2.167-1.415-1.212-2.143-2.269-2.222-3.225a2.829,2.829,0,0,1,.866-2.092m-.219-.2,0,0Z" transform="translate(322.571 69.612)" fill="#fdb474"/>
              <path id="Trazado_875353" data-name="Trazado 875353" d="M23.086,71.632a.291.291,0,0,1-.367.043,35.948,35.948,0,0,1-3.41-2.85.3.3,0,0,1-.018-.416l0,0a.3.3,0,0,1,.414-.01,35.772,35.772,0,0,0,3.319,2.783.3.3,0,0,1,.1.405.265.265,0,0,1-.036.047" transform="translate(321.04 70.18)" fill="#fdb474"/>
              <path id="Trazado_875354" data-name="Trazado 875354" d="M110.19,107.945c26.207,1.827,25.357,33.716,12.681,63.255s-8.135,32.449-1.046,51.637,12.559,36.319,12.559,36.319a4.5,4.5,0,0,1-2.512,4.2l3.351,5.579a3.829,3.829,0,0,1-2.477,5.735l-.1.018c.983,1.078,1.942,2.789.365,4.044-2.978,2.37-4.736.116-8.736-3.548a2.247,2.247,0,0,1-1.277,2c-3.9,2.139-12.289-5.7-20.611-18.481s-13.214-18.12-13.214-18.12,1.956,16.693-4.308,19.594-3.639-5.739-2.856-8.788-3.246-21.132-.217-32.615c1.916-7.258,3.493-22.766,5.812-36.412l14.98-75.613Z" transform="translate(83.891 109.662)" fill="#f97869"/>
              <path id="Trazado_875355" data-name="Trazado 875355" d="M107.423,203.257s-13.161-15.515-18.136-23.212a10.137,10.137,0,0,0-2.968-3.276" transform="translate(100.742 181.59)" fill="none" stroke="#222" stroke-linecap="round" stroke-linejoin="round" stroke-width="1"/>
              <path id="Trazado_875356" data-name="Trazado 875356" d="M104.35,204.417s-9.086-11.393-13.85-16.8a67.744,67.744,0,0,1-8.31-12.464" transform="translate(112.185 179.932)" fill="none" stroke="#222" stroke-linecap="round" stroke-linejoin="round" stroke-width="1"/>
              <path id="Trazado_875357" data-name="Trazado 875357" d="M97.238,195.947s-11.33-16.9-14.667-23.579" transform="translate(118.524 177.069)" fill="none" stroke="#222" stroke-linecap="round" stroke-linejoin="round" stroke-width="1"/>
              <path id="Trazado_875358" data-name="Trazado 875358" d="M87.921,192.7s-2.753-2.4-.918-3.53,3.1-.051,5.978,2.455" transform="translate(115.076 193.871)" fill="none" stroke="#222" stroke-linecap="round" stroke-linejoin="round" stroke-width="1"/>
              <path id="Trazado_875359" data-name="Trazado 875359" d="M83.837,194.369s-3.675-2.946-1.533-4.182,4.158.462,5.176,2.183" transform="translate(130.185 194.938)" fill="none" stroke="#222" stroke-linecap="round" stroke-linejoin="round" stroke-width="1"/>
              <path id="Trazado_875360" data-name="Trazado 875360" d="M80.894,188.689s-.288-.957,1.567-1.606,3.945,3.24,3.945,3.24" transform="translate(132.789 192.11)" fill="none" stroke="#222" stroke-linecap="round" stroke-linejoin="round" stroke-width="1"/>
              <path id="Trazado_875361" data-name="Trazado 875361" d="M81.583,182.706a1.7,1.7,0,0,1,2.867-.4c1.8,1.65,1.573,2.183,1.573,2.183" transform="translate(131.733 186.617)" fill="none" stroke="#222" stroke-linecap="round" stroke-linejoin="round" stroke-width="1"/>
              <path id="Trazado_875362" data-name="Trazado 875362" d="M93.562,152.436c.018.48.026,14.592.026,14.592" transform="translate(99.893 156.594)" fill="none" stroke="#222" stroke-linecap="round" stroke-linejoin="round" stroke-width="1"/>
              <path id="Trazado_875363" data-name="Trazado 875363" d="M136.71,89.137l-28.532,113.5-38.916-6.327L86.456,78.719a31.766,31.766,0,0,1,50.122,10.134Z" transform="translate(106.031 72.412)" fill="#fdb474"/>
              <line id="Línea_672" data-name="Línea 672" y1="117.588" x2="17.193" transform="translate(175.294 151.132)" fill="none" stroke="#222" stroke-linecap="round" stroke-linejoin="round" stroke-width="1"/>
              <path id="Trazado_875364" data-name="Trazado 875364" d="M97.663,79.548l.132.284-28.532,113.5" transform="translate(144.947 81.718)" fill="none" stroke="#222" stroke-linecap="round" stroke-linejoin="round" stroke-width="1"/>
              <path id="Trazado_875365" data-name="Trazado 875365" d="M9.246,312.609C17.118,297,43.067,291.5,43.067,291.5V248.156h46.4v71.607s-.012.087-.041.233c-12.255-4.62-34.634-12.435-46.358-12.642-16.668-.3-33.821,5.255-33.821,5.255" transform="translate(274.947 254.924)" fill="#fca84a"/>
              <path id="Trazado_875366" data-name="Trazado 875366" d="M58.7,289.774c-21.775-14.132-54.978,5.4-48.646-7.154,0,0,17.155-5.551,33.821-5.257,11.724.209,34.1,8.024,46.358,12.644-.41,2.088-4.409,17.372-31.532-.233" transform="translate(274.138 284.916)" fill="#fdfaec"/>
              <line id="Línea_673" data-name="Línea 673" x1="46.398" transform="translate(318.014 511.691)" fill="none" stroke="#302e2e" stroke-miterlimit="10" stroke-width="1"/>
              <path id="Trazado_875367" data-name="Trazado 875367" d="M34.767,271.627l.041.028v24.512s-.012.085-.041.231c-6.637-2.5-16.245-5.936-25.521-8.6v0c6.664-21.1,25.521-16.174,25.521-16.174" transform="translate(329.605 278.522)" fill="#302e2e"/>
              <path id="Trazado_875368" data-name="Trazado 875368" d="M60.687,271.128l-1.922,13.325a128.1,128.1,0,0,0-21.505,4.559c4.58-9.082,15.28-14.738,23.427-17.885" transform="translate(246.933 278.523)" fill="#302e2e"/>
              <path id="Trazado_875369" data-name="Trazado 875369" d="M49.756,269.536s1.853,3.349-2.264,5.443-15.563,7.329-15.563,7.329" transform="translate(268.259 276.887)" fill="none" stroke="#302e2e" stroke-miterlimit="10" stroke-width="1"/>
            </g>
          </g>
        </g>
      </g>
    </g>
  </g>
</svg>
