<svg xmlns="http://www.w3.org/2000/svg" width="91.542" height="91.541" viewBox="0 0 91.542 91.541">
  <g id="Grupo_1100205" data-name="Grupo 1100205" transform="translate(-441.051 -5969)">
    <g id="Grupo_1098742" data-name="Grupo 1098742" transform="translate(441.051 5969)">
      <rect id="Rect치ngulo_400898" data-name="Rect치ngulo 400898" width="91.541" height="91.541" rx="45.771" transform="translate(0.001 0)" fill="#769671" opacity="0.859"/>
      <rect id="Rect치ngulo_400907" data-name="Rect치ngulo 400907" width="91.541" height="91.541" rx="45.771" transform="translate(0 0)" fill="none"/>
    </g>
    <g id="Grupo_1100204" data-name="Grupo 1100204">
      <g id="cartel-de-la-calle" transform="translate(461.051 5989)">
        <g id="Grupo_1100202" data-name="Grupo 1100202" transform="translate(0.823 0.823)">
          <g id="Grupo_1100192" data-name="Grupo 1100192">
            <path id="Trazado_875389" data-name="Trazado 875389" d="M5.94,10.056V50.4H1V1H5.94v9.056Z" transform="translate(-1 -1)" fill="#fff"/>
            <path id="Trazado_875389_-_Contorno" data-name="Trazado 875389 - Contorno" d="M1-2H5.94a3,3,0,0,1,3,3V50.4a3,3,0,0,1-3,3H1a3,3,0,0,1-3-3V1A3,3,0,0,1,1-2Z" transform="translate(-1 -1)" fill="#fff"/>
          </g>
          <g id="Grupo_1100193" data-name="Grupo 1100193" transform="translate(4.94 4.116)">
            <path id="Trazado_875390" data-name="Trazado 875390" d="M7,6h6.586v4.94H7Z" transform="translate(-7 -6)" fill="#fff"/>
            <path id="Trazado_875390_-_Contorno" data-name="Trazado 875390 - Contorno" d="M7,3h6.586a3,3,0,0,1,3,3v4.94a3,3,0,0,1-3,3H7a3,3,0,0,1-3-3V6A3,3,0,0,1,7,3Z" transform="translate(-7 -6)" fill="#fff"/>
          </g>
          <g id="Grupo_1100194" data-name="Grupo 1100194" transform="translate(11.526)">
            <path id="Trazado_875391" data-name="Trazado 875391" d="M41.345,1V14.172H15V1Z" transform="translate(-15 -1)" fill="#fff"/>
            <path id="Trazado_875391_-_Contorno" data-name="Trazado 875391 - Contorno" d="M15-2H41.345a3,3,0,0,1,3,3V14.172a3,3,0,0,1-3,3H15a3,3,0,0,1-3-3V1A3,3,0,0,1,15-2ZM38.345,4H18v7.172H38.345Z" transform="translate(-15 -1)" fill="#fff"/>
          </g>
          <g id="Grupo_1100195" data-name="Grupo 1100195" transform="translate(14.819 3.293)">
            <path id="Trazado_875392" data-name="Trazado 875392" d="M19,5h6.586v6.586H19Z" transform="translate(-19 -5)" fill="#fff"/>
            <path id="Trazado_875392_-_Contorno" data-name="Trazado 875392 - Contorno" d="M19,2h6.586a3,3,0,0,1,3,3v6.586a3,3,0,0,1-3,3H19a3,3,0,0,1-3-3V5A3,3,0,0,1,19,2Zm3.586,6H22v.586h.586Z" transform="translate(-19 -5)" fill="#fff"/>
          </g>
          <g id="Grupo_1100196" data-name="Grupo 1100196" transform="translate(42.81 14.819)">
            <path id="Trazado_875393" data-name="Trazado 875393" d="M56.293,27.233A3.292,3.292,0,0,1,53,23.94C53,22.12,54.474,19,56.293,19s3.293,3.12,3.293,4.94A3.292,3.292,0,0,1,56.293,27.233Z" transform="translate(-53 -19)" fill="#fff"/>
            <path id="Trazado_875393_-_Contorno" data-name="Trazado 875393 - Contorno" d="M56.293,30.233A6.3,6.3,0,0,1,50,23.94C50,20.7,52.452,16,56.293,16s6.293,4.7,6.293,7.94A6.3,6.3,0,0,1,56.293,30.233Zm0-7.413A3.206,3.206,0,0,0,56,23.94l.293.293a.293.293,0,0,0,.293-.293A3.205,3.205,0,0,0,56.293,22.82Z" transform="translate(-53 -19)" fill="#fff"/>
          </g>
          <g id="Grupo_1100197" data-name="Grupo 1100197" transform="translate(8.249 16.465)">
            <path id="Trazado_875394" data-name="Trazado 875394" d="M14.313,29.233A3.292,3.292,0,0,1,11.02,25.94c0-1.819,1.474-4.94,3.293-4.94s3.293,3.12,3.293,4.94A3.292,3.292,0,0,1,14.313,29.233Z" transform="translate(-11.02 -21)" fill="#fff"/>
            <path id="Trazado_875394_-_Contorno" data-name="Trazado 875394 - Contorno" d="M14.313,32.233A6.3,6.3,0,0,1,8.02,25.94C8.02,22.7,10.472,18,14.313,18s6.293,4.7,6.293,7.94A6.3,6.3,0,0,1,14.313,32.233Zm0-7.413a3.206,3.206,0,0,0-.293,1.12l.293.293a.293.293,0,0,0,.293-.293A3.206,3.206,0,0,0,14.313,24.82Z" transform="translate(-11.02 -21)" fill="#fff"/>
          </g>
          <g id="Grupo_1100198" data-name="Grupo 1100198" transform="translate(10.694 15.642)">
            <path id="Trazado_875395" data-name="Trazado 875395" d="M41.166,20H23.054L13.99,53.754H50.23Z" transform="translate(-13.99 -20)" fill="#fff"/>
            <path id="Trazado_875395_-_Contorno" data-name="Trazado 875395 - Contorno" d="M23.054,17H41.166a3,3,0,0,1,2.9,2.222l9.064,33.754a3,3,0,0,1-2.9,3.778H13.99a3,3,0,0,1-2.9-3.778l9.064-33.754A3,3,0,0,1,23.054,17Zm15.811,6H25.355L17.9,50.754H46.318Z" transform="translate(-13.99 -20)" fill="#fff"/>
          </g>
          <g id="Grupo_1100199" data-name="Grupo 1100199" transform="translate(27.168 37.87)">
            <path id="Trazado_875396" data-name="Trazado 875396" d="M34,47h3.293v8.233H34Z" transform="translate(-34 -47)" fill="#fff"/>
            <path id="Trazado_875396_-_Contorno" data-name="Trazado 875396 - Contorno" d="M34,44h3.293a3,3,0,0,1,3,3v8.233a3,3,0,0,1-3,3H34a3,3,0,0,1-3-3V47A3,3,0,0,1,34,44Z" transform="translate(-34 -47)" fill="#fff"/>
          </g>
          <g id="Grupo_1100200" data-name="Grupo 1100200" transform="translate(27.168 26.345)">
            <path id="Trazado_875397" data-name="Trazado 875397" d="M34,33h3.293v8.233H34Z" transform="translate(-34 -33)" fill="#fff"/>
            <path id="Trazado_875397_-_Contorno" data-name="Trazado 875397 - Contorno" d="M34,30h3.293a3,3,0,0,1,3,3v8.233a3,3,0,0,1-3,3H34a3,3,0,0,1-3-3V33A3,3,0,0,1,34,30Z" transform="translate(-34 -33)" fill="#fff"/>
          </g>
          <g id="Grupo_1100201" data-name="Grupo 1100201" transform="translate(27.168 15.642)">
            <path id="Trazado_875398" data-name="Trazado 875398" d="M34,20h3.293v7.409H34Z" transform="translate(-34 -20)" fill="#fff"/>
            <path id="Trazado_875398_-_Contorno" data-name="Trazado 875398 - Contorno" d="M34,17h3.293a3,3,0,0,1,3,3v7.409a3,3,0,0,1-3,3H34a3,3,0,0,1-3-3V20A3,3,0,0,1,34,17Z" transform="translate(-34 -20)" fill="#fff"/>
          </g>
        </g>
        <g id="Grupo_1100203" data-name="Grupo 1100203">
          <path id="Trazado_875399" data-name="Trazado 875399" d="M11.526,10.7v4.116H39.517V0H11.526V4.116H6.586V0H0V51.042H6.586V10.7Zm1.647-9.056h24.7V13.172h-24.7ZM11.526,5.763V9.056H6.586V5.763ZM4.94,49.4H1.647V1.647H4.94Z" fill="#fff"/>
          <path id="Trazado_875399_-_Contorno" data-name="Trazado 875399 - Contorno" d="M0-3H6.586a3,3,0,0,1,2.47,1.3A3,3,0,0,1,11.526-3H39.517a3,3,0,0,1,3,3V14.819a3,3,0,0,1-3,3H11.526a2.988,2.988,0,0,1-1.94-.711V51.042a3,3,0,0,1-3,3H0a3,3,0,0,1-3-3V0A3,3,0,0,1,0-3ZM34.87,4.647h-18.7v5.526h18.7Z" fill="#fff"/>
          <path id="Trazado_875400" data-name="Trazado 875400" d="M35.293,7.461l1.164,1.164,1.888-1.888v5.422h1.647V6.737l1.888,1.888,1.164-1.164L39.168,3.586Z" transform="translate(-6.237 -0.634)" fill="#fff"/>
          <path id="Trazado_875400_-_Contorno" data-name="Trazado 875400 - Contorno" d="M39.168.586a3,3,0,0,1,2.121.879L45.165,5.34a3,3,0,0,1,0,4.243L44,10.747a3,3,0,0,1-1.009.665v.748a3,3,0,0,1-3,3H38.345a3,3,0,0,1-3-3v-.748a3,3,0,0,1-1.009-.665L33.172,9.582a3,3,0,0,1,0-4.243l3.875-3.875A3,3,0,0,1,39.168.586Z" transform="translate(-6.237 -0.634)" fill="#fff"/>
          <path id="Trazado_875401" data-name="Trazado 875401" d="M18,12.233h8.233V4H18Zm1.647-6.586h4.94v4.94h-4.94Z" transform="translate(-3.181 -0.707)" fill="#fff"/>
          <path id="Trazado_875401_-_Contorno" data-name="Trazado 875401 - Contorno" d="M26.233,15.233H18a3,3,0,0,1-3-3V4a3,3,0,0,1,3-3h8.233a3,3,0,0,1,3,3v8.233A3,3,0,0,1,26.233,15.233Z" transform="translate(-3.181 -0.707)" fill="#fff"/>
          <path id="Trazado_875402" data-name="Trazado 875402" d="M30,4h3.293V5.647H30Z" transform="translate(-5.302 -0.707)" fill="#fff"/>
          <path id="Trazado_875402_-_Contorno" data-name="Trazado 875402 - Contorno" d="M30,1h3.293a3,3,0,0,1,3,3V5.647a3,3,0,0,1-3,3H30a3,3,0,0,1-3-3V4A3,3,0,0,1,30,1Z" transform="translate(-5.302 -0.707)" fill="#fff"/>
          <path id="Trazado_875403" data-name="Trazado 875403" d="M30,8h3.293V9.647H30Z" transform="translate(-5.302 -1.414)" fill="#fff"/>
          <path id="Trazado_875403_-_Contorno" data-name="Trazado 875403 - Contorno" d="M30,5h3.293a3,3,0,0,1,3,3V9.647a3,3,0,0,1-3,3H30a3,3,0,0,1-3-3V8A3,3,0,0,1,30,5Z" transform="translate(-5.302 -1.414)" fill="#fff"/>
          <path id="Trazado_875404" data-name="Trazado 875404" d="M30,12h3.293v1.647H30Z" transform="translate(-5.302 -2.121)" fill="#fff"/>
          <path id="Trazado_875404_-_Contorno" data-name="Trazado 875404 - Contorno" d="M30,9h3.293a3,3,0,0,1,3,3v1.647a3,3,0,0,1-3,3H30a3,3,0,0,1-3-3V12A3,3,0,0,1,30,9Z" transform="translate(-5.302 -2.121)" fill="#fff"/>
          <path id="Trazado_875405" data-name="Trazado 875405" d="M55.293,27.8v3.376H56.94V27.8a4.123,4.123,0,0,0,3.293-4.033c0-1.978-1.6-5.763-4.116-5.763S52,21.785,52,23.763A4.124,4.124,0,0,0,55.293,27.8Zm.823-8.15c1.145,0,2.47,2.49,2.47,4.116a2.466,2.466,0,0,1-1.647,2.318V22.94H55.293v3.142a2.466,2.466,0,0,1-1.647-2.318C53.647,22.137,54.971,19.647,56.116,19.647Z" transform="translate(-9.19 -3.181)" fill="#fff"/>
          <path id="Trazado_875405_-_Contorno" data-name="Trazado 875405 - Contorno" d="M56.94,34.172H55.293a3,3,0,0,1-3-3V29.761a7.143,7.143,0,0,1-3.293-6C49,20.618,51.378,15,56.116,15s7.116,5.618,7.116,8.763a7.143,7.143,0,0,1-3.293,6v1.411A3,3,0,0,1,56.94,34.172Z" transform="translate(-9.19 -3.181)" fill="#fff"/>
          <path id="Trazado_875406" data-name="Trazado 875406" d="M14.96,33.172V29.8a4.123,4.123,0,0,0,3.293-4.033c0-1.978-1.6-5.763-4.116-5.763s-4.116,3.785-4.116,5.763A4.124,4.124,0,0,0,13.313,29.8v3.376Zm-3.293-7.409c0-1.626,1.325-4.116,2.47-4.116s2.47,2.49,2.47,4.116a2.466,2.466,0,0,1-1.647,2.318V24.94H13.313v3.142A2.465,2.465,0,0,1,11.667,25.763Z" transform="translate(-1.771 -3.535)" fill="#fff"/>
          <path id="Trazado_875406_-_Contorno" data-name="Trazado 875406 - Contorno" d="M14.96,36.172H13.313a3,3,0,0,1-3-3V31.761a7.142,7.142,0,0,1-3.293-6C7.02,22.618,9.4,17,14.136,17s7.116,5.618,7.116,8.763a7.142,7.142,0,0,1-3.293,6v1.411A3,3,0,0,1,14.96,36.172Z" transform="translate(-1.771 -3.535)" fill="#fff"/>
          <path id="Trazado_875407" data-name="Trazado 875407" d="M41.256,19.74l-1.591.428,8.785,32.717H14.359l8.785-32.717-1.591-.428-8.9,33.145H10v1.647H52.81V52.885H50.156Z" transform="translate(-1.767 -3.489)" fill="#fff"/>
          <path id="Trazado_875407_-_Contorno" data-name="Trazado 875407 - Contorno" d="M21.554,16.74a3,3,0,0,1,.78.1l1.591.428a3,3,0,0,1,2.118,3.675L18.271,49.885H44.539L36.768,20.946a3,3,0,0,1,2.118-3.675l1.591-.428a3,3,0,0,1,3.677,2.119l8.3,30.923h.353a3,3,0,0,1,3,3v1.647a3,3,0,0,1-3,3H10a3,3,0,0,1-3-3V52.885a3,3,0,0,1,3-3h.353l8.3-30.923a3,3,0,0,1,2.9-2.222Z" transform="translate(-1.767 -3.489)" fill="#fff"/>
          <path id="Trazado_875408" data-name="Trazado 875408" d="M33,55.879h4.94V46H33Zm1.647-8.233h1.647v6.586H34.647Z" transform="translate(-5.832 -8.13)" fill="#fff"/>
          <path id="Trazado_875408_-_Contorno" data-name="Trazado 875408 - Contorno" d="M37.94,58.879H33a3,3,0,0,1-3-3V46a3,3,0,0,1,3-3h4.94a3,3,0,0,1,3,3v9.879A3,3,0,0,1,37.94,58.879Z" transform="translate(-5.832 -8.13)" fill="#fff"/>
          <path id="Trazado_875409" data-name="Trazado 875409" d="M37.94,32H33v9.879h4.94Zm-1.647,8.233H34.647V33.647h1.647Z" transform="translate(-5.832 -5.655)" fill="#fff"/>
          <path id="Trazado_875409_-_Contorno" data-name="Trazado 875409 - Contorno" d="M33,29h4.94a3,3,0,0,1,3,3v9.879a3,3,0,0,1-3,3H33a3,3,0,0,1-3-3V32A3,3,0,0,1,33,29Z" transform="translate(-5.832 -5.655)" fill="#fff"/>
          <path id="Trazado_875410" data-name="Trazado 875410" d="M37.94,20H36.293v6.586H34.647V20H33v8.233h4.94Z" transform="translate(-5.832 -3.535)" fill="#fff"/>
          <path id="Trazado_875410_-_Contorno" data-name="Trazado 875410 - Contorno" d="M33,17h1.647a3,3,0,0,1,.823.114A3,3,0,0,1,36.293,17H37.94a3,3,0,0,1,3,3v8.233a3,3,0,0,1-3,3H33a3,3,0,0,1-3-3V20A3,3,0,0,1,33,17Z" transform="translate(-5.832 -3.535)" fill="#fff"/>
        </g>
      </g>
      <g id="cartel-de-la-calle-2" data-name="cartel-de-la-calle" transform="translate(461.051 5989)">
        <g id="Grupo_1100202-2" data-name="Grupo 1100202" transform="translate(0.823 0.823)">
          <g id="Grupo_1100192-2" data-name="Grupo 1100192">
            <path id="Trazado_875389-2" data-name="Trazado 875389" d="M5.94,10.056V50.4H1V1H5.94v9.056Z" transform="translate(-1 -1)" fill="#aab2bd"/>
          </g>
          <g id="Grupo_1100193-2" data-name="Grupo 1100193" transform="translate(4.94 4.116)">
            <path id="Trazado_875390-2" data-name="Trazado 875390" d="M7,6h6.586v4.94H7Z" transform="translate(-7 -6)" fill="#ccd1d9"/>
          </g>
          <g id="Grupo_1100194-2" data-name="Grupo 1100194" transform="translate(11.526)">
            <path id="Trazado_875391-2" data-name="Trazado 875391" d="M41.345,1V14.172H15V1Z" transform="translate(-15 -1)" fill="#ff826e"/>
          </g>
          <g id="Grupo_1100195-2" data-name="Grupo 1100195" transform="translate(14.819 3.293)">
            <path id="Trazado_875392-2" data-name="Trazado 875392" d="M19,5h6.586v6.586H19Z" transform="translate(-19 -5)" fill="#ffeaa7"/>
          </g>
          <g id="Grupo_1100196-2" data-name="Grupo 1100196" transform="translate(42.81 14.819)">
            <path id="Trazado_875393-2" data-name="Trazado 875393" d="M56.293,27.233A3.292,3.292,0,0,1,53,23.94C53,22.12,54.474,19,56.293,19s3.293,3.12,3.293,4.94A3.292,3.292,0,0,1,56.293,27.233Z" transform="translate(-53 -19)" fill="#b4dd7f"/>
          </g>
          <g id="Grupo_1100197-2" data-name="Grupo 1100197" transform="translate(8.249 16.465)">
            <path id="Trazado_875394-2" data-name="Trazado 875394" d="M14.313,29.233A3.292,3.292,0,0,1,11.02,25.94c0-1.819,1.474-4.94,3.293-4.94s3.293,3.12,3.293,4.94A3.292,3.292,0,0,1,14.313,29.233Z" transform="translate(-11.02 -21)" fill="#b4dd7f"/>
          </g>
          <g id="Grupo_1100198-2" data-name="Grupo 1100198" transform="translate(10.694 15.642)">
            <path id="Trazado_875395-2" data-name="Trazado 875395" d="M41.166,20H23.054L13.99,53.754H50.23Z" transform="translate(-13.99 -20)" fill="#969faa"/>
          </g>
          <g id="Grupo_1100199-2" data-name="Grupo 1100199" transform="translate(27.168 37.87)">
            <path id="Trazado_875396-2" data-name="Trazado 875396" d="M34,47h3.293v8.233H34Z" transform="translate(-34 -47)" fill="#e6e9ed"/>
          </g>
          <g id="Grupo_1100200-2" data-name="Grupo 1100200" transform="translate(27.168 26.345)">
            <path id="Trazado_875397-2" data-name="Trazado 875397" d="M34,33h3.293v8.233H34Z" transform="translate(-34 -33)" fill="#e6e9ed"/>
          </g>
          <g id="Grupo_1100201-2" data-name="Grupo 1100201" transform="translate(27.168 15.642)">
            <path id="Trazado_875398-2" data-name="Trazado 875398" d="M34,20h3.293v7.409H34Z" transform="translate(-34 -20)" fill="#e6e9ed"/>
          </g>
        </g>
        <g id="Grupo_1100203-2" data-name="Grupo 1100203">
          <path id="Trazado_875399-2" data-name="Trazado 875399" d="M11.526,10.7v4.116H39.517V0H11.526V4.116H6.586V0H0V51.042H6.586V10.7Zm1.647-9.056h24.7V13.172h-24.7ZM11.526,5.763V9.056H6.586V5.763ZM4.94,49.4H1.647V1.647H4.94Z"/>
          <path id="Trazado_875400-2" data-name="Trazado 875400" d="M35.293,7.461l1.164,1.164,1.888-1.888v5.422h1.647V6.737l1.888,1.888,1.164-1.164L39.168,3.586Z" transform="translate(-6.237 -0.634)"/>
          <path id="Trazado_875401-2" data-name="Trazado 875401" d="M18,12.233h8.233V4H18Zm1.647-6.586h4.94v4.94h-4.94Z" transform="translate(-3.181 -0.707)"/>
          <path id="Trazado_875402-2" data-name="Trazado 875402" d="M30,4h3.293V5.647H30Z" transform="translate(-5.302 -0.707)"/>
          <path id="Trazado_875403-2" data-name="Trazado 875403" d="M30,8h3.293V9.647H30Z" transform="translate(-5.302 -1.414)"/>
          <path id="Trazado_875404-2" data-name="Trazado 875404" d="M30,12h3.293v1.647H30Z" transform="translate(-5.302 -2.121)"/>
          <path id="Trazado_875405-2" data-name="Trazado 875405" d="M55.293,27.8v3.376H56.94V27.8a4.123,4.123,0,0,0,3.293-4.033c0-1.978-1.6-5.763-4.116-5.763S52,21.785,52,23.763A4.124,4.124,0,0,0,55.293,27.8Zm.823-8.15c1.145,0,2.47,2.49,2.47,4.116a2.466,2.466,0,0,1-1.647,2.318V22.94H55.293v3.142a2.466,2.466,0,0,1-1.647-2.318C53.647,22.137,54.971,19.647,56.116,19.647Z" transform="translate(-9.19 -3.181)"/>
          <path id="Trazado_875406-2" data-name="Trazado 875406" d="M14.96,33.172V29.8a4.123,4.123,0,0,0,3.293-4.033c0-1.978-1.6-5.763-4.116-5.763s-4.116,3.785-4.116,5.763A4.124,4.124,0,0,0,13.313,29.8v3.376Zm-3.293-7.409c0-1.626,1.325-4.116,2.47-4.116s2.47,2.49,2.47,4.116a2.466,2.466,0,0,1-1.647,2.318V24.94H13.313v3.142A2.465,2.465,0,0,1,11.667,25.763Z" transform="translate(-1.771 -3.535)"/>
          <path id="Trazado_875407-2" data-name="Trazado 875407" d="M41.256,19.74l-1.591.428,8.785,32.717H14.359l8.785-32.717-1.591-.428-8.9,33.145H10v1.647H52.81V52.885H50.156Z" transform="translate(-1.767 -3.489)"/>
          <path id="Trazado_875408-2" data-name="Trazado 875408" d="M33,55.879h4.94V46H33Zm1.647-8.233h1.647v6.586H34.647Z" transform="translate(-5.832 -8.13)"/>
          <path id="Trazado_875409-2" data-name="Trazado 875409" d="M37.94,32H33v9.879h4.94Zm-1.647,8.233H34.647V33.647h1.647Z" transform="translate(-5.832 -5.655)"/>
          <path id="Trazado_875410-2" data-name="Trazado 875410" d="M37.94,20H36.293v6.586H34.647V20H33v8.233h4.94Z" transform="translate(-5.832 -3.535)"/>
        </g>
      </g>
    </g>
  </g>
</svg>
