<svg xmlns="http://www.w3.org/2000/svg" width="91.542" height="91.541" viewBox="0 0 91.542 91.541">
  <g id="Grupo_1100206" data-name="Grupo 1100206" transform="translate(-754.051 -5969)">
    <g id="Grupo_1098742" data-name="Grupo 1098742" transform="translate(754.051 5969)">
      <rect id="Rect치ngulo_400898" data-name="Rect치ngulo 400898" width="91.541" height="91.541" rx="45.771" transform="translate(0.001 0)" fill="#769671" opacity="0.859"/>
      <rect id="Rect치ngulo_400907" data-name="Rect치ngulo 400907" width="91.541" height="91.541" rx="45.771" transform="translate(0 0)" fill="none"/>
    </g>
    <g id="destello" transform="translate(671.369 5983)">
      <path id="Trazado_875411" data-name="Trazado 875411" d="M154.032,29.027H139.309L152.958,7.533h-17.2L119.642,39.774h12.681L119.642,69.866Z" transform="translate(-7.832 -7.458)" fill="#fff"/>
      <path id="Trazado_875411_-_Contorno" data-name="Trazado 875411 - Contorno" d="M135.763,5.033h17.2a2.5,2.5,0,0,1,2.11,3.84l-11.21,17.654h10.174a2.5,2.5,0,0,1,1.912,4.11l-34.39,40.839a2.5,2.5,0,0,1-4.216-2.581l11.219-26.621h-8.915a2.5,2.5,0,0,1-2.236-3.618L133.526,6.415A2.5,2.5,0,0,1,135.763,5.033Zm12.646,5h-11.1L123.687,37.274h8.636a2.5,2.5,0,0,1,2.3,3.471l-6.28,14.9,20.312-24.12h-9.35a2.5,2.5,0,0,1-2.11-3.84Z" transform="translate(-7.832 -7.458)" fill="#fff"/>
      <path id="Trazado_875412" data-name="Trazado 875412" d="M140.061,7.533h-4.3L119.642,39.774h4.3Z" transform="translate(-7.832 -7.458)" fill="#fff"/>
      <path id="Trazado_875412_-_Contorno" data-name="Trazado 875412 - Contorno" d="M135.763,5.033h4.3A2.5,2.5,0,0,1,142.3,8.651L126.177,40.892a2.5,2.5,0,0,1-2.236,1.382h-4.3a2.5,2.5,0,0,1-2.236-3.618L133.526,6.415A2.5,2.5,0,0,1,135.763,5.033Z" transform="translate(-7.832 -7.458)" fill="#fff"/>
      <path id="Trazado_875413" data-name="Trazado 875413" d="M141.2,178.2l-25.793,30.629-4.3,10.21L145.5,178.2Z" transform="translate(-0.373 -156.631)" fill="#fff"/>
      <path id="Trazado_875413_-_Contorno" data-name="Trazado 875413 - Contorno" d="M141.2,175.7h4.3a2.5,2.5,0,0,1,1.912,4.11l-34.39,40.839a2.5,2.5,0,0,1-4.216-2.58l4.3-10.21a2.5,2.5,0,0,1,.392-.64l25.793-30.629A2.5,2.5,0,0,1,141.2,175.7Z" transform="translate(-0.373 -156.631)" fill="#fff"/>
      <path id="Trazado_875414" data-name="Trazado 875414" d="M111.81,63.482a.806.806,0,0,1-.537-.107,1.073,1.073,0,0,1-.43-1.29L122.88,33.391H111.81a1.282,1.282,0,0,1-.967-.537.976.976,0,0,1,0-1.075L126.964-.463A1.129,1.129,0,0,1,127.931-1h17.2a1.129,1.129,0,0,1,.967.537.976.976,0,0,1,0,1.075L133.519,20.494H146.2a1.033,1.033,0,0,1,.967.645,1.153,1.153,0,0,1-.107,1.182L112.67,63.16A1.22,1.22,0,0,1,111.81,63.482Zm1.719-32.241h10.962a1.327,1.327,0,0,1,.86.43,1.044,1.044,0,0,1,.107.967l-9.887,23.643,28.372-33.638H131.477a1.129,1.129,0,0,1-.967-.537.976.976,0,0,1,0-1.075L143.191,1.149H128.576Z" transform="translate(0)" fill="#fff"/>
      <path id="Trazado_875414_-_Contorno" data-name="Trazado 875414 - Contorno" d="M111.81,65.982a3.143,3.143,0,0,1-2.141-.688,3.558,3.558,0,0,1-1.11-4.226L119.12,35.891h-7.31a3.765,3.765,0,0,1-3.047-1.65,3.458,3.458,0,0,1-.107-3.677L124.727-1.581a2.5,2.5,0,0,1,.156-.269A3.618,3.618,0,0,1,127.931-3.5h17.2a3.618,3.618,0,0,1,3.047,1.65,3.459,3.459,0,0,1,.022,3.816L138.058,17.994H146.2a3.541,3.541,0,0,1,3.2,2.027,3.644,3.644,0,0,1-.263,3.687,2.5,2.5,0,0,1-.168.224L114.582,64.77q-.069.082-.144.157A3.727,3.727,0,0,1,111.81,65.982Zm5.765-37.241h6.917a3.74,3.74,0,0,1,2.627,1.162,2.5,2.5,0,0,1,.313.381,3.538,3.538,0,0,1,.4,3.145q-.029.088-.065.173l-3.6,8.616,14.4-17.076h-7.087a3.618,3.618,0,0,1-3.047-1.65,3.459,3.459,0,0,1-.018-3.821l10.22-16.023h-8.511Z" transform="translate(0)" fill="#fff"/>
    </g>
    <g id="destello-2" data-name="destello" transform="translate(671.369 5983)">
      <path id="Trazado_875411-2" data-name="Trazado 875411" d="M154.032,29.027H139.309L152.958,7.533h-17.2L119.642,39.774h12.681L119.642,69.866Z" transform="translate(-7.832 -7.458)" fill="#ffdd09"/>
      <path id="Trazado_875412-2" data-name="Trazado 875412" d="M140.061,7.533h-4.3L119.642,39.774h4.3Z" transform="translate(-7.832 -7.458)" fill="#fff"/>
      <path id="Trazado_875413-2" data-name="Trazado 875413" d="M141.2,178.2l-25.793,30.629-4.3,10.21L145.5,178.2Z" transform="translate(-0.373 -156.631)" fill="#fd9808"/>
      <path id="Trazado_875414-2" data-name="Trazado 875414" d="M111.81,63.482a.806.806,0,0,1-.537-.107,1.073,1.073,0,0,1-.43-1.29L122.88,33.391H111.81a1.282,1.282,0,0,1-.967-.537.976.976,0,0,1,0-1.075L126.964-.463A1.129,1.129,0,0,1,127.931-1h17.2a1.129,1.129,0,0,1,.967.537.976.976,0,0,1,0,1.075L133.519,20.494H146.2a1.033,1.033,0,0,1,.967.645,1.153,1.153,0,0,1-.107,1.182L112.67,63.16A1.22,1.22,0,0,1,111.81,63.482Zm1.719-32.241h10.962a1.327,1.327,0,0,1,.86.43,1.044,1.044,0,0,1,.107.967l-9.887,23.643,28.372-33.638H131.477a1.129,1.129,0,0,1-.967-.537.976.976,0,0,1,0-1.075L143.191,1.149H128.576Z" transform="translate(0)"/>
    </g>
  </g>
</svg>
