<svg xmlns="http://www.w3.org/2000/svg" width="91.542" height="91.541" viewBox="0 0 91.542 91.541">
  <g id="Grupo_1100208" data-name="Grupo 1100208" transform="translate(-1074.051 -5969)">
    <g id="Grupo_1098742" data-name="Grupo 1098742" transform="translate(1074.051 5969)">
      <rect id="Rectángulo_400898" data-name="Rectángulo 400898" width="91.541" height="91.541" rx="45.771" transform="translate(0.001 0)" fill="#769671" opacity="0.859"/>
      <rect id="Rectángulo_400907" data-name="Rectángulo 400907" width="91.541" height="91.541" rx="45.771" transform="translate(0 0)" fill="none"/>
    </g>
    <g id="_5-hotel" data-name="5-hotel" transform="translate(1095.05 5990)">
      <path id="Trazado_875415" data-name="Trazado 875415" d="M3,23H47.653V53.8H3Z" transform="translate(-0.69 -5.293)" fill="#fff"/>
      <path id="Trazado_875415_-_Contorno" data-name="Trazado 875415 - Contorno" d="M3,20.5H47.653a2.5,2.5,0,0,1,2.5,2.5V53.8a2.5,2.5,0,0,1-2.5,2.5H3A2.5,2.5,0,0,1,.5,53.8V23A2.5,2.5,0,0,1,3,20.5Zm42.153,5H5.5V51.3H45.153Z" transform="translate(-0.69 -5.293)" fill="#fff"/>
      <path id="Trazado_875416" data-name="Trazado 875416" d="M48.732,21.619H1L2.54,17H47.193Z" transform="translate(-0.23 -3.912)" fill="#fff"/>
      <path id="Trazado_875416_-_Contorno" data-name="Trazado 875416 - Contorno" d="M48.732,24.119H1a2.5,2.5,0,0,1-2.372-3.291l1.54-4.619A2.5,2.5,0,0,1,2.54,14.5H47.193a2.5,2.5,0,0,1,2.372,1.709l1.54,4.619a2.5,2.5,0,0,1-2.372,3.291Z" transform="translate(-0.23 -3.912)" fill="#fff"/>
      <path id="Trazado_875417" data-name="Trazado 875417" d="M6,1H46.034V13.318H6Z" transform="translate(-1.381 -0.23)" fill="#fff"/>
      <path id="Trazado_875417_-_Contorno" data-name="Trazado 875417 - Contorno" d="M6-1.5H46.034a2.5,2.5,0,0,1,2.5,2.5V13.318a2.5,2.5,0,0,1-2.5,2.5H6a2.5,2.5,0,0,1-2.5-2.5V1A2.5,2.5,0,0,1,6-1.5Zm37.534,5H8.5v7.318H43.534Z" transform="translate(-1.381 -0.23)" fill="#fff"/>
      <path id="Trazado_875418" data-name="Trazado 875418" d="M3,23H16.858V53.8H3Z" transform="translate(-0.69 -5.293)" fill="#fff"/>
      <path id="Trazado_875418_-_Contorno" data-name="Trazado 875418 - Contorno" d="M3,20.5H16.858a2.5,2.5,0,0,1,2.5,2.5V53.8a2.5,2.5,0,0,1-2.5,2.5H3A2.5,2.5,0,0,1,.5,53.8V23A2.5,2.5,0,0,1,3,20.5Zm11.358,5H5.5V51.3h8.858Z" transform="translate(-0.69 -5.293)" fill="#fff"/>
      <path id="Trazado_875419" data-name="Trazado 875419" d="M43,23H56.858V53.8H43Z" transform="translate(-9.895 -5.293)" fill="#fff"/>
      <path id="Trazado_875419_-_Contorno" data-name="Trazado 875419 - Contorno" d="M43,20.5H56.858a2.5,2.5,0,0,1,2.5,2.5V53.8a2.5,2.5,0,0,1-2.5,2.5H43a2.5,2.5,0,0,1-2.5-2.5V23A2.5,2.5,0,0,1,43,20.5Zm11.358,5H45.5V51.3h8.858Z" transform="translate(-9.895 -5.293)" fill="#fff"/>
      <g id="Grupo_1100207" data-name="Grupo 1100207" transform="translate(6.159 20.787)">
        <path id="Trazado_875420" data-name="Trazado 875420" d="M26,27h3.08v3.08H26Z" transform="translate(-12.142 -27)" fill="#fff"/>
        <path id="Trazado_875420_-_Contorno" data-name="Trazado 875420 - Contorno" d="M26,24.5h3.079a2.5,2.5,0,0,1,2.5,2.5v3.079a2.5,2.5,0,0,1-2.5,2.5H26a2.5,2.5,0,0,1-2.5-2.5V27A2.5,2.5,0,0,1,26,24.5Z" transform="translate(-12.142 -27)" fill="#fff"/>
        <path id="Trazado_875421" data-name="Trazado 875421" d="M34,27h3.079v3.08H34Z" transform="translate(-13.983 -27)" fill="#fff"/>
        <path id="Trazado_875421_-_Contorno" data-name="Trazado 875421 - Contorno" d="M34,24.5h3.079a2.5,2.5,0,0,1,2.5,2.5v3.079a2.5,2.5,0,0,1-2.5,2.5H34a2.5,2.5,0,0,1-2.5-2.5V27A2.5,2.5,0,0,1,34,24.5Z" transform="translate(-13.983 -27)" fill="#fff"/>
        <path id="Trazado_875422" data-name="Trazado 875422" d="M10,27h3.08v3.08H10Z" transform="translate(-8.46 -27)" fill="#fff"/>
        <path id="Trazado_875422_-_Contorno" data-name="Trazado 875422 - Contorno" d="M10,24.5h3.08a2.5,2.5,0,0,1,2.5,2.5v3.079a2.5,2.5,0,0,1-2.5,2.5H10a2.5,2.5,0,0,1-2.5-2.5V27A2.5,2.5,0,0,1,10,24.5Z" transform="translate(-8.46 -27)" fill="#fff"/>
        <path id="Trazado_875423" data-name="Trazado 875423" d="M10,35h3.08v3.079H10Z" transform="translate(-8.46 -28.841)" fill="#fff"/>
        <path id="Trazado_875423_-_Contorno" data-name="Trazado 875423 - Contorno" d="M10,32.5h3.08a2.5,2.5,0,0,1,2.5,2.5v3.079a2.5,2.5,0,0,1-2.5,2.5H10a2.5,2.5,0,0,1-2.5-2.5V35A2.5,2.5,0,0,1,10,32.5Z" transform="translate(-8.46 -28.841)" fill="#fff"/>
        <path id="Trazado_875424" data-name="Trazado 875424" d="M8,54h3.08v3.08H8Z" transform="translate(-8 -33.213)" fill="#fff"/>
        <path id="Trazado_875424_-_Contorno" data-name="Trazado 875424 - Contorno" d="M8,51.5h3.08a2.5,2.5,0,0,1,2.5,2.5v3.079a2.5,2.5,0,0,1-2.5,2.5H8a2.5,2.5,0,0,1-2.5-2.5V54A2.5,2.5,0,0,1,8,51.5Z" transform="translate(-8 -33.213)" fill="#fff"/>
        <path id="Trazado_875425" data-name="Trazado 875425" d="M12,54h3.08v3.08H12Z" transform="translate(-8.92 -33.213)" fill="#fff"/>
        <path id="Trazado_875425_-_Contorno" data-name="Trazado 875425 - Contorno" d="M12,51.5h3.08a2.5,2.5,0,0,1,2.5,2.5v3.079a2.5,2.5,0,0,1-2.5,2.5H12a2.5,2.5,0,0,1-2.5-2.5V54A2.5,2.5,0,0,1,12,51.5Z" transform="translate(-8.92 -33.213)" fill="#fff"/>
      </g>
      <path id="Trazado_875426" data-name="Trazado 875426" d="M3,45H16.858v3.08H3Z" transform="translate(-0.69 -10.356)" fill="#fff"/>
      <path id="Trazado_875426_-_Contorno" data-name="Trazado 875426 - Contorno" d="M3,42.5H16.858a2.5,2.5,0,0,1,2.5,2.5v3.079a2.5,2.5,0,0,1-2.5,2.5H3a2.5,2.5,0,0,1-2.5-2.5V45A2.5,2.5,0,0,1,3,42.5Z" transform="translate(-0.69 -10.356)" fill="#fff"/>
      <path id="Trazado_875427" data-name="Trazado 875427" d="M50,27h3.079v3.08H50Z" transform="translate(-11.506 -6.213)" fill="#fff"/>
      <path id="Trazado_875427_-_Contorno" data-name="Trazado 875427 - Contorno" d="M50,24.5h3.079a2.5,2.5,0,0,1,2.5,2.5v3.079a2.5,2.5,0,0,1-2.5,2.5H50a2.5,2.5,0,0,1-2.5-2.5V27A2.5,2.5,0,0,1,50,24.5Z" transform="translate(-11.506 -6.213)" fill="#fff"/>
      <path id="Trazado_875428" data-name="Trazado 875428" d="M50,35h3.079v3.079H50Z" transform="translate(-11.506 -8.054)" fill="#fff"/>
      <path id="Trazado_875428_-_Contorno" data-name="Trazado 875428 - Contorno" d="M50,32.5h3.079a2.5,2.5,0,0,1,2.5,2.5v3.079a2.5,2.5,0,0,1-2.5,2.5H50a2.5,2.5,0,0,1-2.5-2.5V35A2.5,2.5,0,0,1,50,32.5Z" transform="translate(-11.506 -8.054)" fill="#fff"/>
      <path id="Trazado_875429" data-name="Trazado 875429" d="M48,54h3.079v3.08H48Z" transform="translate(-11.046 -12.427)" fill="#fff"/>
      <path id="Trazado_875429_-_Contorno" data-name="Trazado 875429 - Contorno" d="M48,51.5h3.079a2.5,2.5,0,0,1,2.5,2.5v3.079a2.5,2.5,0,0,1-2.5,2.5H48a2.5,2.5,0,0,1-2.5-2.5V54A2.5,2.5,0,0,1,48,51.5Z" transform="translate(-11.046 -12.427)" fill="#fff"/>
      <path id="Trazado_875430" data-name="Trazado 875430" d="M52,54h3.08v3.08H52Z" transform="translate(-11.966 -12.427)" fill="#fff"/>
      <path id="Trazado_875430_-_Contorno" data-name="Trazado 875430 - Contorno" d="M52,51.5h3.079a2.5,2.5,0,0,1,2.5,2.5v3.079a2.5,2.5,0,0,1-2.5,2.5H52a2.5,2.5,0,0,1-2.5-2.5V54A2.5,2.5,0,0,1,52,51.5Z" transform="translate(-11.966 -12.427)" fill="#fff"/>
      <path id="Trazado_875431" data-name="Trazado 875431" d="M43,45H56.858v3.08H43Z" transform="translate(-9.895 -10.356)" fill="#fff"/>
      <path id="Trazado_875431_-_Contorno" data-name="Trazado 875431 - Contorno" d="M43,42.5H56.858a2.5,2.5,0,0,1,2.5,2.5v3.079a2.5,2.5,0,0,1-2.5,2.5H43a2.5,2.5,0,0,1-2.5-2.5V45A2.5,2.5,0,0,1,43,42.5Z" transform="translate(-9.895 -10.356)" fill="#fff"/>
      <rect id="Rectángulo_401631" data-name="Rectángulo 401631" width="26.176" height="3.08" rx="1" transform="translate(11.548 34.644)" fill="#fff"/>
      <path id="Rectángulo_401631_-_Contorno" data-name="Rectángulo 401631 - Contorno" d="M1-2.5H25.176a3.5,3.5,0,0,1,3.5,3.5V2.08a3.5,3.5,0,0,1-3.5,3.5H1a3.5,3.5,0,0,1-3.5-3.5V1A3.5,3.5,0,0,1,1-2.5Z" transform="translate(11.548 34.644)" fill="#fff"/>
      <path id="Trazado_875432" data-name="Trazado 875432" d="M24,49H36.318V59.778H24Z" transform="translate(-5.523 -11.276)" fill="#fff"/>
      <path id="Trazado_875432_-_Contorno" data-name="Trazado 875432 - Contorno" d="M24,46.5H36.318a2.5,2.5,0,0,1,2.5,2.5V59.778a2.5,2.5,0,0,1-2.5,2.5H24a2.5,2.5,0,0,1-2.5-2.5V49A2.5,2.5,0,0,1,24,46.5Zm9.818,5H26.5v5.778h7.318Z" transform="translate(-5.523 -11.276)" fill="#fff"/>
      <path id="Trazado_875433" data-name="Trazado 875433" d="M20,49h3.08V59.778H20Z" transform="translate(-4.602 -11.276)" fill="#fff"/>
      <path id="Trazado_875433_-_Contorno" data-name="Trazado 875433 - Contorno" d="M20,46.5H23.08a2.5,2.5,0,0,1,2.5,2.5V59.778a2.5,2.5,0,0,1-2.5,2.5H20a2.5,2.5,0,0,1-2.5-2.5V49A2.5,2.5,0,0,1,20,46.5Z" transform="translate(-4.602 -11.276)" fill="#fff"/>
      <path id="Trazado_875434" data-name="Trazado 875434" d="M40,49h3.079V59.778H40Z" transform="translate(-9.205 -11.276)" fill="#fff"/>
      <path id="Trazado_875434_-_Contorno" data-name="Trazado 875434 - Contorno" d="M40,46.5h3.079a2.5,2.5,0,0,1,2.5,2.5V59.778a2.5,2.5,0,0,1-2.5,2.5H40a2.5,2.5,0,0,1-2.5-2.5V49A2.5,2.5,0,0,1,40,46.5Z" transform="translate(-9.205 -11.276)" fill="#fff"/>
      <path id="Trazado_875435" data-name="Trazado 875435" d="M32,49h6.159V59.778H32Z" transform="translate(-7.364 -11.276)" fill="#fff"/>
      <path id="Trazado_875435_-_Contorno" data-name="Trazado 875435 - Contorno" d="M32,46.5h6.159a2.5,2.5,0,0,1,2.5,2.5V59.778a2.5,2.5,0,0,1-2.5,2.5H32a2.5,2.5,0,0,1-2.5-2.5V49A2.5,2.5,0,0,1,32,46.5Zm3.659,5H34.5v5.778h1.159Z" transform="translate(-7.364 -11.276)" fill="#fff"/>
      <path id="Trazado_875436" data-name="Trazado 875436" d="M17,42.7,28.548,35,40.1,42.7Z" transform="translate(-3.912 -8.054)" fill="#fff"/>
      <path id="Trazado_875436_-_Contorno" data-name="Trazado 875436 - Contorno" d="M40.1,45.2H17a2.5,2.5,0,0,1-1.387-4.58l11.548-7.7a2.5,2.5,0,0,1,2.773,0l11.548,7.7A2.5,2.5,0,0,1,40.1,45.2Zm-14.839-5h6.582L28.548,38Z" transform="translate(-3.912 -8.054)" fill="#fff"/>
      <path id="Trazado_875437" data-name="Trazado 875437" d="M49.232,17.464l-1.54-4.619a.77.77,0,0,0-.73-.527h-1.54V.77a.77.77,0,0,0-.77-.77H4.619a.77.77,0,0,0-.77.77V12.318H2.31a.77.77,0,0,0-.73.527L.04,17.464a.77.77,0,0,0,.73,1.013h.77V48.5a.77.77,0,0,0,.77.77H46.963a.77.77,0,0,0,.77-.77V18.477h.77a.77.77,0,0,0,.73-1.013ZM5.389,1.54H43.883V12.318H5.389ZM2.865,13.858H46.407l1.026,3.08H1.839ZM36.954,35.414v1.54H12.318v-1.54Zm-21.326-1.54,9.008-6.005,9.008,6.005Zm.539,4.619h1.54v9.239h-1.54Zm3.08,0h4.619v9.239H19.247Zm6.159,0h4.619v9.239H25.406Zm6.159,9.239V38.494H33.1v9.239ZM46.193,33.875H40.8a.77.77,0,0,0,0,1.54h5.389v1.54H40.8a.77.77,0,0,0,0,1.54h5.389v9.239H34.645V38.494h2.31a1.54,1.54,0,0,0,1.54-1.54v-1.54a1.54,1.54,0,0,0-1.54-1.54h-.539L25.063,26.305a.77.77,0,0,0-.855,0L12.857,33.875h-.539a1.54,1.54,0,0,0-1.54,1.54v1.54a1.54,1.54,0,0,0,1.54,1.54h2.31v9.239H3.08V38.494H8.469a.77.77,0,1,0,0-1.54H3.08v-1.54H8.469a.77.77,0,1,0,0-1.54H3.08v-15.4H15.4V29.255a.77.77,0,0,0,1.54,0V18.477h15.4V29.255a.77.77,0,1,0,1.54,0V18.477H46.193Z" transform="translate(0)" fill="#fff"/>
      <path id="Trazado_875437_-_Contorno" data-name="Trazado 875437 - Contorno" d="M4.619-2.5H44.653A3.274,3.274,0,0,1,47.923.77V9.962a3.265,3.265,0,0,1,2.141,2.093l1.54,4.619a3.266,3.266,0,0,1-1.371,3.807V48.5a3.274,3.274,0,0,1-3.27,3.27H2.31A3.274,3.274,0,0,1-.96,48.5V20.48a3.264,3.264,0,0,1-.922-.862,3.278,3.278,0,0,1-.449-2.945l1.54-4.62A3.266,3.266,0,0,1,1.35,9.962V.77A3.274,3.274,0,0,1,4.619-2.5ZM41.383,4.04H7.889V9.818H41.383ZM12.9,20.977H5.58v10.4H8.469a3.252,3.252,0,0,1,1.815.551,4.012,4.012,0,0,1,1.807-.545l1.114-.743a3.25,3.25,0,0,1-.307-1.383Zm16.937,0h-10.4v5.5l3.385-2.257a3.27,3.27,0,0,1,3.629,0l3.384,2.256Zm13.858,0H36.375v8.278a3.25,3.25,0,0,1-.307,1.383l1.114.743a4.012,4.012,0,0,1,1.807.545,3.252,3.252,0,0,1,1.815-.551h2.889Zm-18.306,10.4-.751-.5-.751.5ZM12.128,40.989a4.011,4.011,0,0,1-1.844-.546,3.252,3.252,0,0,1-1.815.551H5.58v4.239h6.548Zm31.565,0H40.8a3.251,3.251,0,0,1-1.815-.551,4.011,4.011,0,0,1-1.844.546v4.243h6.548Z" transform="translate(0)" fill="#fff"/>
      <path id="Trazado_875438" data-name="Trazado 875438" d="M16.389,4a.77.77,0,0,0-.77.77V7.08H12.54V4.77a.77.77,0,1,0-1.54,0v6.159a.77.77,0,1,0,1.54,0V8.619h3.08v2.31a.77.77,0,1,0,1.54,0V4.77A.77.77,0,0,0,16.389,4Z" transform="translate(-2.531 -0.92)" fill="#fff"/>
      <path id="Trazado_875438_-_Contorno" data-name="Trazado 875438 - Contorno" d="M11.77,1.5a3.26,3.26,0,0,1,2.31.957,3.268,3.268,0,0,1,5.58,2.313v6.159a3.268,3.268,0,0,1-5.58,2.313A3.268,3.268,0,0,1,8.5,10.929V4.77A3.274,3.274,0,0,1,11.77,1.5Z" transform="translate(-2.531 -0.92)" fill="#fff"/>
      <path id="Trazado_875439" data-name="Trazado 875439" d="M24.619,4H21.54A1.54,1.54,0,0,0,20,5.54v4.619a1.54,1.54,0,0,0,1.54,1.54h3.08a1.54,1.54,0,0,0,1.54-1.54V5.54A1.54,1.54,0,0,0,24.619,4Zm-3.08,6.159V5.54h3.08v4.619Z" transform="translate(-4.602 -0.92)" fill="#fff"/>
      <path id="Trazado_875439_-_Contorno" data-name="Trazado 875439 - Contorno" d="M21.54,1.5h3.079a4.044,4.044,0,0,1,4.04,4.04v4.619a4.044,4.044,0,0,1-4.04,4.04H21.54a4.044,4.044,0,0,1-4.04-4.04V5.54A4.044,4.044,0,0,1,21.54,1.5Z" transform="translate(-4.602 -0.92)" fill="#fff"/>
      <path id="Trazado_875440" data-name="Trazado 875440" d="M34.389,4H29.77a.77.77,0,0,0,0,1.54h1.54v5.389a.77.77,0,1,0,1.54,0V5.54h1.54a.77.77,0,0,0,0-1.54Z" transform="translate(-6.673 -0.92)" fill="#fff"/>
      <path id="Trazado_875440_-_Contorno" data-name="Trazado 875440 - Contorno" d="M29.77,1.5h4.619a3.27,3.27,0,0,1,.96,6.4v3.033a3.27,3.27,0,1,1-6.54,0V7.9a3.27,3.27,0,0,1,.96-6.4Z" transform="translate(-6.673 -0.92)" fill="#fff"/>
      <path id="Trazado_875441" data-name="Trazado 875441" d="M43.389,5.54a.77.77,0,0,0,0-1.54H38.77a.77.77,0,0,0-.77.77v6.159a.77.77,0,0,0,.77.77h4.619a.77.77,0,0,0,0-1.54H39.54V8.619h3.849a.77.77,0,0,0,0-1.54H39.54V5.54Z" transform="translate(-8.745 -0.92)" fill="#fff"/>
      <path id="Trazado_875441_-_Contorno" data-name="Trazado 875441 - Contorno" d="M38.77,1.5h4.619a3.269,3.269,0,0,1,2.884,4.81,3.266,3.266,0,0,1,0,3.08,3.269,3.269,0,0,1-2.884,4.81H38.77a3.274,3.274,0,0,1-3.27-3.27V4.77A3.274,3.274,0,0,1,38.77,1.5Z" transform="translate(-8.745 -0.92)" fill="#fff"/>
      <path id="Trazado_875442" data-name="Trazado 875442" d="M50.849,10.159H48.54V4.77a.77.77,0,1,0-1.54,0v6.159a.77.77,0,0,0,.77.77h3.079a.77.77,0,0,0,0-1.54Z" transform="translate(-10.816 -0.92)" fill="#fff"/>
      <path id="Trazado_875442_-_Contorno" data-name="Trazado 875442 - Contorno" d="M50.849,14.2H47.77a3.274,3.274,0,0,1-3.27-3.27V4.77a3.27,3.27,0,1,1,6.54,0V7.664a3.27,3.27,0,0,1-.19,6.534Z" transform="translate(-10.816 -0.92)" fill="#fff"/>
      <path id="Trazado_875443" data-name="Trazado 875443" d="M28.849,26H25.77a.77.77,0,0,0-.77.77v3.08a.77.77,0,0,0,.77.77h3.08a.77.77,0,0,0,.77-.77V26.77A.77.77,0,0,0,28.849,26Zm-.77,3.08H26.54V27.54h1.54Z" transform="translate(-5.753 -5.983)" fill="#fff"/>
      <path id="Trazado_875443_-_Contorno" data-name="Trazado 875443 - Contorno" d="M25.77,23.5h3.079a3.274,3.274,0,0,1,3.27,3.27v3.079a3.274,3.274,0,0,1-3.27,3.27H25.77a3.274,3.274,0,0,1-3.27-3.27V26.77A3.274,3.274,0,0,1,25.77,23.5Z" transform="translate(-5.753 -5.983)" fill="#fff"/>
      <path id="Trazado_875444" data-name="Trazado 875444" d="M36.849,26H33.77a.77.77,0,0,0-.77.77v3.08a.77.77,0,0,0,.77.77h3.08a.77.77,0,0,0,.77-.77V26.77A.77.77,0,0,0,36.849,26Zm-.77,3.08H34.54V27.54h1.54Z" transform="translate(-7.594 -5.983)" fill="#fff"/>
      <path id="Trazado_875444_-_Contorno" data-name="Trazado 875444 - Contorno" d="M33.77,23.5h3.079a3.274,3.274,0,0,1,3.27,3.27v3.079a3.274,3.274,0,0,1-3.27,3.27H33.77a3.274,3.274,0,0,1-3.27-3.27V26.77A3.274,3.274,0,0,1,33.77,23.5Z" transform="translate(-7.594 -5.983)" fill="#fff"/>
      <path id="Trazado_875445" data-name="Trazado 875445" d="M12.849,26H9.77a.77.77,0,0,0-.77.77v3.08a.77.77,0,0,0,.77.77h3.08a.77.77,0,0,0,.77-.77V26.77A.77.77,0,0,0,12.849,26Zm-.77,3.08H10.54V27.54h1.54Z" transform="translate(-2.071 -5.983)" fill="#fff"/>
      <path id="Trazado_875445_-_Contorno" data-name="Trazado 875445 - Contorno" d="M9.77,23.5h3.08a3.274,3.274,0,0,1,3.27,3.27v3.079a3.274,3.274,0,0,1-3.27,3.27H9.77a3.274,3.274,0,0,1-3.27-3.27V26.77A3.274,3.274,0,0,1,9.77,23.5Z" transform="translate(-2.071 -5.983)" fill="#fff"/>
      <path id="Trazado_875446" data-name="Trazado 875446" d="M12.849,34H9.77a.77.77,0,0,0-.77.77v3.079a.77.77,0,0,0,.77.77h3.08a.77.77,0,0,0,.77-.77V34.77A.77.77,0,0,0,12.849,34Zm-.77,3.079H10.54V35.54h1.54Z" transform="translate(-2.071 -7.824)" fill="#fff"/>
      <path id="Trazado_875446_-_Contorno" data-name="Trazado 875446 - Contorno" d="M9.77,31.5h3.08a3.274,3.274,0,0,1,3.27,3.27v3.079a3.274,3.274,0,0,1-3.27,3.27H9.77a3.274,3.274,0,0,1-3.27-3.27V34.77A3.274,3.274,0,0,1,9.77,31.5Z" transform="translate(-2.071 -7.824)" fill="#fff"/>
      <path id="Trazado_875447" data-name="Trazado 875447" d="M7.77,53a.77.77,0,0,0-.77.77v3.079a.77.77,0,0,0,.77.77h6.159a.77.77,0,0,0,.77-.77V53.77a.77.77,0,0,0-.77-.77Zm.77,1.54h1.54v1.54H8.54Zm4.619,1.54h-1.54V54.54h1.54Z" transform="translate(-1.611 -12.197)" fill="#fff"/>
      <path id="Trazado_875447_-_Contorno" data-name="Trazado 875447 - Contorno" d="M7.77,50.5h6.159a3.274,3.274,0,0,1,3.27,3.27v3.079a3.274,3.274,0,0,1-3.27,3.27H7.77a3.274,3.274,0,0,1-3.27-3.27V53.77A3.274,3.274,0,0,1,7.77,50.5Z" transform="translate(-1.611 -12.197)" fill="#fff"/>
      <path id="Trazado_875448" data-name="Trazado 875448" d="M49.77,30.619h3.079a.77.77,0,0,0,.77-.77V26.77a.77.77,0,0,0-.77-.77H49.77a.77.77,0,0,0-.77.77v3.08A.77.77,0,0,0,49.77,30.619Zm.77-3.08h1.54v1.54H50.54Z" transform="translate(-11.276 -5.983)" fill="#fff"/>
      <path id="Trazado_875448_-_Contorno" data-name="Trazado 875448 - Contorno" d="M52.849,33.119H49.77a3.274,3.274,0,0,1-3.27-3.27V26.77a3.274,3.274,0,0,1,3.27-3.27h3.079a3.274,3.274,0,0,1,3.27,3.27v3.079A3.274,3.274,0,0,1,52.849,33.119Z" transform="translate(-11.276 -5.983)" fill="#fff"/>
      <path id="Trazado_875449" data-name="Trazado 875449" d="M49.77,38.619h3.079a.77.77,0,0,0,.77-.77V34.77a.77.77,0,0,0-.77-.77H49.77a.77.77,0,0,0-.77.77v3.079A.77.77,0,0,0,49.77,38.619Zm.77-3.079h1.54v1.54H50.54Z" transform="translate(-11.276 -7.824)" fill="#fff"/>
      <path id="Trazado_875449_-_Contorno" data-name="Trazado 875449 - Contorno" d="M52.849,41.119H49.77a3.274,3.274,0,0,1-3.27-3.27V34.77a3.274,3.274,0,0,1,3.27-3.27h3.079a3.274,3.274,0,0,1,3.27,3.27v3.079A3.274,3.274,0,0,1,52.849,41.119Z" transform="translate(-11.276 -7.824)" fill="#fff"/>
      <path id="Trazado_875450" data-name="Trazado 875450" d="M47.77,53a.77.77,0,0,0-.77.77v3.079a.77.77,0,0,0,.77.77h6.159a.77.77,0,0,0,.77-.77V53.77a.77.77,0,0,0-.77-.77Zm.77,1.54h1.54v1.54H48.54Zm4.619,1.54h-1.54V54.54h1.54Z" transform="translate(-10.816 -12.197)" fill="#fff"/>
      <path id="Trazado_875450_-_Contorno" data-name="Trazado 875450 - Contorno" d="M47.77,50.5h6.159a3.274,3.274,0,0,1,3.27,3.27v3.079a3.274,3.274,0,0,1-3.27,3.27H47.77a3.274,3.274,0,0,1-3.27-3.27V53.77A3.274,3.274,0,0,1,47.77,50.5Z" transform="translate(-10.816 -12.197)" fill="#fff"/>
    </g>
    <g id="_5-hotel-2" data-name="5-hotel" transform="translate(1095.05 5990)">
      <path id="Trazado_875415-2" data-name="Trazado 875415" d="M3,23H47.653V53.8H3Z" transform="translate(-0.69 -5.293)" fill="#f6f0e5"/>
      <path id="Trazado_875416-2" data-name="Trazado 875416" d="M48.732,21.619H1L2.54,17H47.193Z" transform="translate(-0.23 -3.912)" fill="#7bace6"/>
      <path id="Trazado_875417-2" data-name="Trazado 875417" d="M6,1H46.034V13.318H6Z" transform="translate(-1.381 -0.23)" fill="#a8d7e4"/>
      <path id="Trazado_875418-2" data-name="Trazado 875418" d="M3,23H16.858V53.8H3Z" transform="translate(-0.69 -5.293)" fill="#ebe5db"/>
      <path id="Trazado_875419-2" data-name="Trazado 875419" d="M43,23H56.858V53.8H43Z" transform="translate(-9.895 -5.293)" fill="#ebe5db"/>
      <g id="Grupo_1100207-2" data-name="Grupo 1100207" transform="translate(6.159 20.787)">
        <path id="Trazado_875420-2" data-name="Trazado 875420" d="M26,27h3.08v3.08H26Z" transform="translate(-12.142 -27)" fill="#a8d7e4"/>
        <path id="Trazado_875421-2" data-name="Trazado 875421" d="M34,27h3.079v3.08H34Z" transform="translate(-13.983 -27)" fill="#a8d7e4"/>
        <path id="Trazado_875422-2" data-name="Trazado 875422" d="M10,27h3.08v3.08H10Z" transform="translate(-8.46 -27)" fill="#a8d7e4"/>
        <path id="Trazado_875423-2" data-name="Trazado 875423" d="M10,35h3.08v3.079H10Z" transform="translate(-8.46 -28.841)" fill="#a8d7e4"/>
        <path id="Trazado_875424-2" data-name="Trazado 875424" d="M8,54h3.08v3.08H8Z" transform="translate(-8 -33.213)" fill="#a8d7e4"/>
        <path id="Trazado_875425-2" data-name="Trazado 875425" d="M12,54h3.08v3.08H12Z" transform="translate(-8.92 -33.213)" fill="#a8d7e4"/>
      </g>
      <path id="Trazado_875426-2" data-name="Trazado 875426" d="M3,45H16.858v3.08H3Z" transform="translate(-0.69 -10.356)" fill="#ccc7be"/>
      <path id="Trazado_875427-2" data-name="Trazado 875427" d="M50,27h3.079v3.08H50Z" transform="translate(-11.506 -6.213)" fill="#a8d7e4"/>
      <path id="Trazado_875428-2" data-name="Trazado 875428" d="M50,35h3.079v3.079H50Z" transform="translate(-11.506 -8.054)" fill="#a8d7e4"/>
      <path id="Trazado_875429-2" data-name="Trazado 875429" d="M48,54h3.079v3.08H48Z" transform="translate(-11.046 -12.427)" fill="#a8d7e4"/>
      <path id="Trazado_875430-2" data-name="Trazado 875430" d="M52,54h3.08v3.08H52Z" transform="translate(-11.966 -12.427)" fill="#a8d7e4"/>
      <path id="Trazado_875431-2" data-name="Trazado 875431" d="M43,45H56.858v3.08H43Z" transform="translate(-9.895 -10.356)" fill="#ccc7be"/>
      <rect id="Rectángulo_401631-2" data-name="Rectángulo 401631" width="26.176" height="3.08" rx="1" transform="translate(11.548 34.644)" fill="#ebe5db"/>
      <path id="Trazado_875432-2" data-name="Trazado 875432" d="M24,49H36.318V59.778H24Z" transform="translate(-5.523 -11.276)" fill="#a8d7e4"/>
      <path id="Trazado_875433-2" data-name="Trazado 875433" d="M20,49h3.08V59.778H20Z" transform="translate(-4.602 -11.276)" fill="#7bace6"/>
      <path id="Trazado_875434-2" data-name="Trazado 875434" d="M40,49h3.079V59.778H40Z" transform="translate(-9.205 -11.276)" fill="#7bace6"/>
      <path id="Trazado_875435-2" data-name="Trazado 875435" d="M32,49h6.159V59.778H32Z" transform="translate(-7.364 -11.276)" fill="#96c8d6"/>
      <path id="Trazado_875436-2" data-name="Trazado 875436" d="M17,42.7,28.548,35,40.1,42.7Z" transform="translate(-3.912 -8.054)" fill="#7bace6"/>
      <path id="Trazado_875437-2" data-name="Trazado 875437" d="M49.232,17.464l-1.54-4.619a.77.77,0,0,0-.73-.527h-1.54V.77a.77.77,0,0,0-.77-.77H4.619a.77.77,0,0,0-.77.77V12.318H2.31a.77.77,0,0,0-.73.527L.04,17.464a.77.77,0,0,0,.73,1.013h.77V48.5a.77.77,0,0,0,.77.77H46.963a.77.77,0,0,0,.77-.77V18.477h.77a.77.77,0,0,0,.73-1.013ZM5.389,1.54H43.883V12.318H5.389ZM2.865,13.858H46.407l1.026,3.08H1.839ZM36.954,35.414v1.54H12.318v-1.54Zm-21.326-1.54,9.008-6.005,9.008,6.005Zm.539,4.619h1.54v9.239h-1.54Zm3.08,0h4.619v9.239H19.247Zm6.159,0h4.619v9.239H25.406Zm6.159,9.239V38.494H33.1v9.239ZM46.193,33.875H40.8a.77.77,0,0,0,0,1.54h5.389v1.54H40.8a.77.77,0,0,0,0,1.54h5.389v9.239H34.645V38.494h2.31a1.54,1.54,0,0,0,1.54-1.54v-1.54a1.54,1.54,0,0,0-1.54-1.54h-.539L25.063,26.305a.77.77,0,0,0-.855,0L12.857,33.875h-.539a1.54,1.54,0,0,0-1.54,1.54v1.54a1.54,1.54,0,0,0,1.54,1.54h2.31v9.239H3.08V38.494H8.469a.77.77,0,1,0,0-1.54H3.08v-1.54H8.469a.77.77,0,1,0,0-1.54H3.08v-15.4H15.4V29.255a.77.77,0,0,0,1.54,0V18.477h15.4V29.255a.77.77,0,1,0,1.54,0V18.477H46.193Z" transform="translate(0)"/>
      <path id="Trazado_875438-2" data-name="Trazado 875438" d="M16.389,4a.77.77,0,0,0-.77.77V7.08H12.54V4.77a.77.77,0,1,0-1.54,0v6.159a.77.77,0,1,0,1.54,0V8.619h3.08v2.31a.77.77,0,1,0,1.54,0V4.77A.77.77,0,0,0,16.389,4Z" transform="translate(-2.531 -0.92)"/>
      <path id="Trazado_875439-2" data-name="Trazado 875439" d="M24.619,4H21.54A1.54,1.54,0,0,0,20,5.54v4.619a1.54,1.54,0,0,0,1.54,1.54h3.08a1.54,1.54,0,0,0,1.54-1.54V5.54A1.54,1.54,0,0,0,24.619,4Zm-3.08,6.159V5.54h3.08v4.619Z" transform="translate(-4.602 -0.92)"/>
      <path id="Trazado_875440-2" data-name="Trazado 875440" d="M34.389,4H29.77a.77.77,0,0,0,0,1.54h1.54v5.389a.77.77,0,1,0,1.54,0V5.54h1.54a.77.77,0,0,0,0-1.54Z" transform="translate(-6.673 -0.92)"/>
      <path id="Trazado_875441-2" data-name="Trazado 875441" d="M43.389,5.54a.77.77,0,0,0,0-1.54H38.77a.77.77,0,0,0-.77.77v6.159a.77.77,0,0,0,.77.77h4.619a.77.77,0,0,0,0-1.54H39.54V8.619h3.849a.77.77,0,0,0,0-1.54H39.54V5.54Z" transform="translate(-8.745 -0.92)"/>
      <path id="Trazado_875442-2" data-name="Trazado 875442" d="M50.849,10.159H48.54V4.77a.77.77,0,1,0-1.54,0v6.159a.77.77,0,0,0,.77.77h3.079a.77.77,0,0,0,0-1.54Z" transform="translate(-10.816 -0.92)"/>
      <path id="Trazado_875443-2" data-name="Trazado 875443" d="M28.849,26H25.77a.77.77,0,0,0-.77.77v3.08a.77.77,0,0,0,.77.77h3.08a.77.77,0,0,0,.77-.77V26.77A.77.77,0,0,0,28.849,26Zm-.77,3.08H26.54V27.54h1.54Z" transform="translate(-5.753 -5.983)"/>
      <path id="Trazado_875444-2" data-name="Trazado 875444" d="M36.849,26H33.77a.77.77,0,0,0-.77.77v3.08a.77.77,0,0,0,.77.77h3.08a.77.77,0,0,0,.77-.77V26.77A.77.77,0,0,0,36.849,26Zm-.77,3.08H34.54V27.54h1.54Z" transform="translate(-7.594 -5.983)"/>
      <path id="Trazado_875445-2" data-name="Trazado 875445" d="M12.849,26H9.77a.77.77,0,0,0-.77.77v3.08a.77.77,0,0,0,.77.77h3.08a.77.77,0,0,0,.77-.77V26.77A.77.77,0,0,0,12.849,26Zm-.77,3.08H10.54V27.54h1.54Z" transform="translate(-2.071 -5.983)"/>
      <path id="Trazado_875446-2" data-name="Trazado 875446" d="M12.849,34H9.77a.77.77,0,0,0-.77.77v3.079a.77.77,0,0,0,.77.77h3.08a.77.77,0,0,0,.77-.77V34.77A.77.77,0,0,0,12.849,34Zm-.77,3.079H10.54V35.54h1.54Z" transform="translate(-2.071 -7.824)"/>
      <path id="Trazado_875447-2" data-name="Trazado 875447" d="M7.77,53a.77.77,0,0,0-.77.77v3.079a.77.77,0,0,0,.77.77h6.159a.77.77,0,0,0,.77-.77V53.77a.77.77,0,0,0-.77-.77Zm.77,1.54h1.54v1.54H8.54Zm4.619,1.54h-1.54V54.54h1.54Z" transform="translate(-1.611 -12.197)"/>
      <path id="Trazado_875448-2" data-name="Trazado 875448" d="M49.77,30.619h3.079a.77.77,0,0,0,.77-.77V26.77a.77.77,0,0,0-.77-.77H49.77a.77.77,0,0,0-.77.77v3.08A.77.77,0,0,0,49.77,30.619Zm.77-3.08h1.54v1.54H50.54Z" transform="translate(-11.276 -5.983)"/>
      <path id="Trazado_875449-2" data-name="Trazado 875449" d="M49.77,38.619h3.079a.77.77,0,0,0,.77-.77V34.77a.77.77,0,0,0-.77-.77H49.77a.77.77,0,0,0-.77.77v3.079A.77.77,0,0,0,49.77,38.619Zm.77-3.079h1.54v1.54H50.54Z" transform="translate(-11.276 -7.824)"/>
      <path id="Trazado_875450-2" data-name="Trazado 875450" d="M47.77,53a.77.77,0,0,0-.77.77v3.079a.77.77,0,0,0,.77.77h6.159a.77.77,0,0,0,.77-.77V53.77a.77.77,0,0,0-.77-.77Zm.77,1.54h1.54v1.54H48.54Zm4.619,1.54h-1.54V54.54h1.54Z" transform="translate(-10.816 -12.197)"/>
    </g>
  </g>
</svg>
