<svg xmlns="http://www.w3.org/2000/svg" width="91.542" height="91.541" viewBox="0 0 91.542 91.541">
  <g id="Grupo_1100217" data-name="Grupo 1100217" transform="translate(963 5639)">
    <g id="Grupo_1098742" data-name="Grupo 1098742" transform="translate(-963 -5639)">
      <rect id="Rect치ngulo_400898" data-name="Rect치ngulo 400898" width="91.541" height="91.541" rx="45.771" transform="translate(0.001 0)" fill="#769671" opacity="0.859"/>
      <rect id="Rect치ngulo_400907" data-name="Rect치ngulo 400907" width="91.541" height="91.541" rx="45.771" transform="translate(0 0)" fill="none"/>
    </g>
    <g id="Grupo_1100216" data-name="Grupo 1100216" transform="translate(-5.177 0.456)">
      <path id="Trazado_875461_-_Contorno" data-name="Trazado 875461 - Contorno" d="M7.347,1.75h22.5a3.8,3.8,0,0,1,3.795,3.793V9.534l1.691,6.447.09,16.7.4-.037,1.056.335,1.188.493V30.38a20.5,20.5,0,0,1,.538-4.61l.546-2.31,2.928-.569-.662-.877-.616-1.079.252-1.8a12.483,12.483,0,0,0,.31-1.477,3.575,3.575,0,0,1-1.228-2.719V10.848a3.8,3.8,0,0,1,3.795-3.795H55.7a3.8,3.8,0,0,1,3.795,3.795v4.086a3.788,3.788,0,0,1-1.214,2.779,12.478,12.478,0,0,0,1.167,3.7,20.285,20.285,0,0,1,2.108,8.81l0,24.808a6.534,6.534,0,0,1-6.515,6.519H5.547a3.8,3.8,0,0,1-3.795-3.793V16.9L3.643,8.812,3.555,5.545A3.8,3.8,0,0,1,7.347,1.75Zm43.4,16.979h-1.87a19.81,19.81,0,0,1-.5,2.406l-.6,2.208-3.055.585q-.077,0-.155,0l.97.728.652,1.058-.083.782h7.24a12.613,12.613,0,0,0-.694-1.693A20.2,20.2,0,0,1,50.75,18.729ZM27.858,20.688H9.34v3.989H27.858Zm0,14.611V32.266H9.34V42.751H22.759C22.9,40.08,24.826,37.3,27.858,35.3Zm26.107-1.216h-8.3v2.539l2.945,1.222h5.357ZM31.532,46.861H30.339v3.747a3.772,3.772,0,0,1-.546,1.959,3.767,3.767,0,0,1,.5,1.4H47.5v-1.4a5.812,5.812,0,0,1-1.562-3.981,5.88,5.88,0,0,1,.258-1.727H38.527a5.171,5.171,0,0,1-6.995,0ZM22.75,50.339H9.34v3.626H22.792a3.772,3.772,0,0,1,.5-1.4,3.771,3.771,0,0,1-.546-1.959Z" transform="translate(-943.575 -5625.206)" fill="#fff"/>
      <g id="lecheria" transform="translate(-943.575 -5625.206)">
        <g id="Grupo_1100214" data-name="Grupo 1100214" transform="translate(5.546 9.631)">
          <g id="Grupo_1100210" data-name="Grupo 1100210" transform="translate(36.323 1.217)">
            <path id="Trazado_875451" data-name="Trazado 875451" d="M98.964,23.17V18.181H89.929V23.17a16.287,16.287,0,0,1-1.714,7.272A16.287,16.287,0,0,0,86.5,37.713V62.368a2.724,2.724,0,0,0,2.724,2.724H99.667a2.724,2.724,0,0,0,2.724-2.724V37.713a16.287,16.287,0,0,0-1.714-7.272A16.29,16.29,0,0,1,98.964,23.17Z" transform="translate(-86.5 -18.181)" fill="#eaeaf0"/>
            <g id="Grupo_1100209" data-name="Grupo 1100209">
              <path id="Trazado_875452" data-name="Trazado 875452" d="M91.048,18.181h11.761v4.086H91.048Z" transform="translate(-88.983 -18.181)" fill="#3ba9fd"/>
              <path id="Trazado_875453" data-name="Trazado 875453" d="M86.5,61h15.891V72.349H86.5Z" transform="translate(-86.5 -41.557)" fill="#3ba9fd"/>
            </g>
          </g>
          <g id="Grupo_1100211" data-name="Grupo 1100211" transform="translate(0)">
            <path id="Trazado_875454" data-name="Trazado 875454" d="M30.8,15.5H8.3L6.5,22.765V63.628H32.607V22.765Z" transform="translate(-6.5 -15.5)" fill="#3ba9fd"/>
            <path id="Trazado_875455" data-name="Trazado 875455" d="M30.8,15.5H8.3L6.5,22.765H32.607Z" transform="translate(-6.5 -15.5)" fill="#eaeaf0"/>
            <path id="Trazado_875456" data-name="Trazado 875456" d="M6.5,57H32.607V75.07H6.5Z" transform="translate(-6.5 -38.155)" fill="#eaeaf0"/>
            <path id="Trazado_875457" data-name="Trazado 875457" d="M34.7,73.393a2.724,2.724,0,0,1-5.448,0c0-2.6,2.724-5.013,2.724-5.013S34.7,70.791,34.7,73.393Z" transform="translate(-18.921 -44.37)" fill="#3ba9fd"/>
          </g>
          <g id="Grupo_1100213" data-name="Grupo 1100213" transform="translate(20.999 26.861)">
            <path id="Trazado_875458" data-name="Trazado 875458" d="M75.933,86.756A2.036,2.036,0,0,0,77.5,88.74v7.187H52.75V81.234c0-2.307,3.859-6.12,8.9-6.574L77.5,81.234v3.537A2.036,2.036,0,0,0,75.933,86.756Z" transform="translate(-52.75 -74.66)" fill="#ff9800"/>
            <path id="Trazado_875459" data-name="Trazado 875459" d="M75.933,94.661A2.036,2.036,0,0,0,77.5,96.645v7.187H52.75V89.14H77.5v3.537a2.036,2.036,0,0,0-1.562,1.984Z" transform="translate(-52.75 -82.566)" fill="#fdd82e"/>
            <circle id="Elipse_11516" data-name="Elipse 11516" cx="1.362" cy="1.362" r="1.362" transform="translate(7.123 5.212)" fill="#fdd82e"/>
            <g id="Grupo_1100212" data-name="Grupo 1100212" transform="translate(3.405 11.872)">
              <circle id="Elipse_11517" data-name="Elipse 11517" cx="1.362" cy="1.362" r="1.362" transform="translate(12.543 3.973)" fill="#ff9800"/>
              <circle id="Elipse_11518" data-name="Elipse 11518" cx="1.362" cy="1.362" r="1.362" fill="#ff9800"/>
            </g>
          </g>
        </g>
        <g id="Grupo_1100215" data-name="Grupo 1100215" transform="translate(4.752 4.75)">
          <path id="Trazado_875460" data-name="Trazado 875460" d="M87.912,45.766a.794.794,0,0,0,1.036-.435c.145-.356.306-.71.476-1.052q.068-.136.133-.272a.795.795,0,0,0-1.434-.684c-.039.083-.08.165-.121.247-.188.378-.363.769-.525,1.161A.8.8,0,0,0,87.912,45.766Z" transform="translate(-49.884 -25.562)" fill="#001d38"/>
          <path id="Trazado_875461" data-name="Trazado 875461" d="M58.555,30.29c0-.013,0-.025,0-.038a17.165,17.165,0,0,0-1.793-7.5,15.521,15.521,0,0,1-1.632-6.918v-.109H55.7a.8.8,0,0,0,.795-.795V10.848a.8.8,0,0,0-.795-.795H43.935a.8.8,0,0,0-.795.795v4.086a.8.8,0,0,0,.795.795H44.5v.109a15.483,15.483,0,0,1-.549,4.087.795.795,0,0,0,1.533.419,17.06,17.06,0,0,0,.605-4.506v-.109h7.446v.109a17.112,17.112,0,0,0,1.8,7.628,15.57,15.57,0,0,1,1.6,6.028H42.689a15.246,15.246,0,0,1,.389-2.667.795.795,0,0,0-1.546-.368,16.963,16.963,0,0,0-.454,3.792c0,.012,0,.024,0,.037v7.678l-5.32-2.208a.817.817,0,0,0-.376-.058,12.171,12.171,0,0,0-2.93.644V16.9a.8.8,0,0,0-.022-.179.123.123,0,0,0,0-.013l-1.78-7.17V5.545a.8.8,0,0,0-.795-.795H7.349a.8.8,0,0,0-.795.795V9.534L4.774,16.7a.123.123,0,0,0,0,.013.8.8,0,0,0-.022.179V57.759a.8.8,0,0,0,.795.795h49.49a3.523,3.523,0,0,0,3.519-3.519V30.31a.05.05,0,0,1,0-.02ZM44.729,11.643H54.9v2.5H44.729ZM42.663,31.083h14.3v9.762H48.011l-5.348-2.219ZM47.3,42.272H37.03a2.15,2.15,0,0,0-4,0H27.521c.738-1.848,3.74-4.529,7.809-4.969Zm-12.84.791a.568.568,0,1,1,0,.007Zm-8.713,0v2.685H6.34V29.266H27.822a.795.795,0,1,0,0-1.589H6.34V17.688H30.858V37.021C27.855,38.542,25.75,41.053,25.75,43.066ZM7.971,10.425H29.228L30.635,16.1H6.562ZM29.055,6.339v2.5H8.144v-2.5Zm-2.51,47.39a.8.8,0,0,0-.795.795v2.44H6.34V47.339H25.75v3.269a.795.795,0,1,0,1.589,0V43.861h5.69a2.15,2.15,0,0,0,4,0H50.5v2.19a2.84,2.84,0,0,0,0,5.073v5.841H27.339v-2.44a.8.8,0,0,0-.795-.795Zm28.491,3.235H52.085V50.572a.8.8,0,0,0-.611-.772,1.246,1.246,0,0,1,0-2.422.8.8,0,0,0,.611-.775V43.066a.79.79,0,0,0-.031-.208c0-.016-.01-.032-.015-.048a.78.78,0,0,0-.085-.179l0-.007a.8.8,0,0,0-.136-.151c-.013-.011-.025-.022-.039-.032l-.008-.007h5.2v12.6A1.932,1.932,0,0,1,55.036,56.964Z" transform="translate(-4.752 -4.75)" fill="#001d38"/>
          <path id="Trazado_875462" data-name="Trazado 875462" d="M11.545,70.375a.8.8,0,0,0-.795.795V74.31a.795.795,0,0,0,1.589,0V71.17A.8.8,0,0,0,11.545,70.375Z" transform="translate(-8.027 -40.579)" fill="#001d38"/>
          <path id="Trazado_875463" data-name="Trazado 875463" d="M31.545,66.829a.8.8,0,0,0-1.053,0c-.122.109-2.992,2.682-2.992,5.607a3.519,3.519,0,0,0,7.038,0C34.538,69.511,31.668,66.938,31.545,66.829Zm-.527,7.537a1.932,1.932,0,0,1-1.93-1.93,6.51,6.51,0,0,1,1.93-3.887,6.511,6.511,0,0,1,1.93,3.887,1.932,1.932,0,0,1-1.93,1.93Z" transform="translate(-17.172 -38.534)" fill="#001d38"/>
          <path id="Trazado_875464" data-name="Trazado 875464" d="M86.125,109.965a2.157,2.157,0,1,0,2.157-2.157A2.157,2.157,0,0,0,86.125,109.965Zm2.157-.568a.568.568,0,1,1-.568.568A.568.568,0,0,1,88.282,109.4Z" transform="translate(-49.179 -61.016)" fill="#001d38"/>
          <circle id="Elipse_11519" data-name="Elipse 11519" cx="0.681" cy="0.681" r="0.681" transform="translate(36.379 41.114)" fill="#001d38"/>
          <circle id="Elipse_11520" data-name="Elipse 11520" cx="0.681" cy="0.681" r="0.681" transform="translate(40.465 43.898)" fill="#001d38"/>
          <circle id="Elipse_11521" data-name="Elipse 11521" cx="0.681" cy="0.681" r="0.681" transform="translate(31.233 33.958)" fill="#001d38"/>
          <circle id="Elipse_11522" data-name="Elipse 11522" cx="0.681" cy="0.681" r="0.681" transform="translate(26.22 34.961)" fill="#001d38"/>
          <circle id="Elipse_11523" data-name="Elipse 11523" cx="0.681" cy="0.681" r="0.681" transform="translate(28.915 49.206)" fill="#001d38"/>
          <circle id="Elipse_11524" data-name="Elipse 11524" cx="0.681" cy="0.681" r="0.681" transform="translate(32.974 45.858)" fill="#001d38"/>
          <path id="Trazado_875465" data-name="Trazado 875465" d="M60.657,103.371a2.157,2.157,0,1,0-2.157-2.157,2.157,2.157,0,0,0,2.157,2.157Zm0-2.724a.568.568,0,1,1-.568.568A.568.568,0,0,1,60.657,100.647Z" transform="translate(-34.096 -56.239)" fill="#001d38"/>
        </g>
      </g>
    </g>
  </g>
</svg>
