<svg xmlns="http://www.w3.org/2000/svg" width="91.542" height="91.541" viewBox="0 0 91.542 91.541">
  <g id="Grupo_1100219" data-name="Grupo 1100219" transform="translate(648 5639)">
    <g id="Grupo_1098742" data-name="Grupo 1098742" transform="translate(-648 -5639)">
      <rect id="Rect치ngulo_400898" data-name="Rect치ngulo 400898" width="91.541" height="91.541" rx="45.771" transform="translate(0.001 0)" fill="#769671" opacity="0.859"/>
      <rect id="Rect치ngulo_400907" data-name="Rect치ngulo 400907" width="91.541" height="91.541" rx="45.771" transform="translate(0 0)" fill="none"/>
    </g>
    <g id="lista-de-verificacion_3_" data-name="lista-de-verificacion (3)" transform="translate(-672.074 -5627.041)">
      <path id="Trazado_875466" data-name="Trazado 875466" d="M88.242,8.972l12.164,47.1A3.559,3.559,0,0,1,97.858,60.4L65.006,68.889a3.553,3.553,0,0,1-4.331-2.548L48.511,19.228A3.553,3.553,0,0,1,51.059,14.9L83.911,6.411a3.551,3.551,0,0,1,4.331,2.561Z" transform="translate(-4.655 -4.597)" fill="#e77c6a"/>
      <path id="Trazado_875466_-_Contorno" data-name="Trazado 875466 - Contorno" d="M84.8,3.8a6.051,6.051,0,0,1,5.86,4.553l12.163,47.1a6.06,6.06,0,0,1-4.344,7.377L65.631,71.309a6.055,6.055,0,0,1-7.377-4.344L46.09,19.853a6.066,6.066,0,0,1,4.344-7.376L83.286,3.99A6.1,6.1,0,0,1,84.8,3.8ZM64.113,66.5a1.093,1.093,0,0,0,.271-.035l32.848-8.485a1.054,1.054,0,0,0,.753-1.285L85.821,9.6A1.054,1.054,0,0,0,84.8,8.8a1.091,1.091,0,0,0-.271.035L51.684,17.318a1.058,1.058,0,0,0-.752,1.289L63.1,65.716A1.05,1.05,0,0,0,64.113,66.5Z" transform="translate(-4.655 -4.597)" fill="#fff"/>
      <path id="Trazado_875467" data-name="Trazado 875467" d="M88.154,8.972l.226.879a7.449,7.449,0,0,1-1.218,6.289l-1.381,1.87a7.417,7.417,0,0,1-4.13,2.787L59.834,26.434a7.418,7.418,0,0,1-4.959-.439l-2.122-.967a7.472,7.472,0,0,1-4.117-4.908l-.226-.879a3.553,3.553,0,0,1,2.548-4.331l32.865-8.5a3.551,3.551,0,0,1,4.331,2.561Z" transform="translate(-4.568 -4.597)" fill="#f1b2a3"/>
      <path id="Trazado_875467_-_Contorno" data-name="Trazado 875467 - Contorno" d="M84.716,3.8a6.051,6.051,0,0,1,5.86,4.553l.224.872a9.907,9.907,0,0,1-1.624,8.4L87.793,19.5a9.954,9.954,0,0,1-5.518,3.723L60.459,28.854a9.995,9.995,0,0,1-2.492.317,9.834,9.834,0,0,1-4.131-.9L51.718,27.3a9.972,9.972,0,0,1-5.5-6.554l0-.007-.226-.879a6.065,6.065,0,0,1,4.344-7.374L83.2,3.991A6.1,6.1,0,0,1,84.716,3.8ZM57.967,24.171a4.988,4.988,0,0,0,1.243-.158l21.816-5.636a4.943,4.943,0,0,0,2.742-1.849l1.383-1.873a4.926,4.926,0,0,0,.809-4.175l0-.007-.226-.879a1.053,1.053,0,0,0-1.018-.8,1.09,1.09,0,0,0-.271.035l-32.86,8.5a1.058,1.058,0,0,0-.753,1.289l.225.874a5.006,5.006,0,0,0,2.736,3.26l2.119.966.008,0A4.869,4.869,0,0,0,57.967,24.171Z" transform="translate(-4.568 -4.597)" fill="#fff"/>
      <g id="Grupo_875468" data-name="Grupo 875468" opacity="0.1">
        <path id="Trazado_875468" data-name="Trazado 875468" d="M165.809,8.972l12.164,47.1a3.559,3.559,0,0,1-2.548,4.331l-32.852,8.486a3.553,3.553,0,0,1-4.331-2.548L137.1,61.934a41.035,41.035,0,0,0,25.885-48.9L161.3,6.461l.188-.05a3.544,3.544,0,0,1,4.318,2.561Z" transform="translate(-82.223 -4.597)"/>
        <path id="Trazado_875468_-_Contorno" data-name="Trazado 875468 - Contorno" d="M162.378,3.8a6.046,6.046,0,0,1,5.853,4.553l12.163,47.1a6.059,6.059,0,0,1-4.344,7.377L143.2,71.309a6.055,6.055,0,0,1-7.377-4.344l-1.142-4.4a2.5,2.5,0,0,1,1.578-2.981,38.493,38.493,0,0,0,24.306-45.916v-.006l-1.682-6.578a2.5,2.5,0,0,1,1.778-3.035l.188-.05.019-.005A6.052,6.052,0,0,1,162.378,3.8Zm-20.7,62.7a1.093,1.093,0,0,0,.271-.035L174.8,57.982a1.043,1.043,0,0,0,.639-.485,1.054,1.054,0,0,0,.114-.8L166.8,22.8a43.639,43.639,0,0,1-15.631,33.919,43.233,43.233,0,0,1-11.09,6.737l.584,2.252A1.051,1.051,0,0,0,141.681,66.5Z" transform="translate(-82.223 -4.597)" fill="#fff"/>
      </g>
      <path id="Trazado_875469" data-name="Trazado 875469" d="M134.885,37.088V86.661a3.086,3.086,0,0,1-3.088,3.088H97.388A3.086,3.086,0,0,1,94.3,86.661V37.088A3.086,3.086,0,0,1,97.388,34H131.8a3.086,3.086,0,0,1,3.088,3.088Z" transform="translate(-44.796 -28.822)" fill="#e8f1f8"/>
      <path id="Trazado_875469_-_Contorno" data-name="Trazado 875469 - Contorno" d="M97.388,31.5H131.8a5.594,5.594,0,0,1,5.588,5.588V86.661a5.594,5.594,0,0,1-5.588,5.588H97.388A5.594,5.594,0,0,1,91.8,86.661V37.088A5.594,5.594,0,0,1,97.388,31.5ZM131.8,87.249a.589.589,0,0,0,.588-.588V37.088a.589.589,0,0,0-.588-.588H97.388a.589.589,0,0,0-.588.588V86.661a.589.589,0,0,0,.588.588Z" transform="translate(-44.796 -28.822)" fill="#fff"/>
      <g id="Grupo_875470" data-name="Grupo 875470" opacity="0.1">
        <path id="Trazado_875470" data-name="Trazado 875470" d="M134.985,37V86.574a3.086,3.086,0,0,1-3.088,3.088H97.488A3.086,3.086,0,0,1,94.4,86.574V84.691a37.5,37.5,0,0,0,33.794-37.308V33.9h3.7A3.1,3.1,0,0,1,134.985,37Z" transform="translate(-44.883 -28.735)"/>
        <path id="Trazado_875470_-_Contorno" data-name="Trazado 875470 - Contorno" d="M128.194,31.4h3.7a5.6,5.6,0,0,1,5.588,5.6V86.574a5.594,5.594,0,0,1-5.588,5.588H97.488A5.594,5.594,0,0,1,91.9,86.574V84.691A2.5,2.5,0,0,1,94.156,82.2a35,35,0,0,0,31.537-34.82V33.9A2.5,2.5,0,0,1,128.194,31.4Zm3.7,55.762a.589.589,0,0,0,.588-.588V37a.6.6,0,0,0-.588-.6h-1.2V47.382a40,40,0,0,1-33.708,39.5.588.588,0,0,0,.5.282Z" transform="translate(-44.883 -28.735)" fill="#fff"/>
      </g>
      <path id="Trazado_875471" data-name="Trazado 875471" d="M145.949,93.175a5.775,5.775,0,1,1-5.775-5.775A5.775,5.775,0,0,1,145.949,93.175Z" transform="translate(-79.862 -75.519)" fill="#f14f4a"/>
      <path id="Trazado_875471_-_Contorno" data-name="Trazado 875471 - Contorno" d="M140.175,84.9a8.275,8.275,0,1,1-8.275,8.275A8.284,8.284,0,0,1,140.175,84.9Zm0,11.549a3.275,3.275,0,1,0-3.275-3.275A3.278,3.278,0,0,0,140.175,96.449Z" transform="translate(-79.862 -75.519)" fill="#fff"/>
      <path id="Trazado_875472" data-name="Trazado 875472" d="M145.949,215.775A5.775,5.775,0,1,1,140.175,210,5.775,5.775,0,0,1,145.949,215.775Z" transform="translate(-79.862 -182.728)" fill="#0e9c4a"/>
      <path id="Trazado_875472_-_Contorno" data-name="Trazado 875472 - Contorno" d="M140.175,207.5a8.275,8.275,0,1,1-8.275,8.275A8.284,8.284,0,0,1,140.175,207.5Zm0,11.549a3.275,3.275,0,1,0-3.275-3.275A3.278,3.278,0,0,0,140.175,219.049Z" transform="translate(-79.862 -182.728)" fill="#fff"/>
      <path id="Trazado_875473" data-name="Trazado 875473" d="M145.949,338.275a5.775,5.775,0,1,1-5.775-5.775A5.775,5.775,0,0,1,145.949,338.275Z" transform="translate(-79.862 -289.85)" fill="#f78721"/>
      <path id="Trazado_875473_-_Contorno" data-name="Trazado 875473 - Contorno" d="M140.175,330a8.275,8.275,0,1,1-8.275,8.275A8.284,8.284,0,0,1,140.175,330Zm0,11.549a3.275,3.275,0,1,0-3.275-3.275A3.278,3.278,0,0,0,140.175,341.549Z" transform="translate(-79.862 -289.85)" fill="#fff"/>
      <g id="Grupo_1100218" data-name="Grupo 1100218" transform="translate(43.074 1.04)">
        <path id="Trazado_875474" data-name="Trazado 875474" d="M96.4,51.3,90.767,29.481V8.266a3.756,3.756,0,0,0-3.753-3.753h-2.7l-.075-.3a4.228,4.228,0,0,0-5.147-3.038L66.162,4.513H52.6a3.758,3.758,0,0,0-3.766,3.753v.716l-2.6.678A4.25,4.25,0,0,0,43.2,14.806l5.636,21.805V57.839a3.756,3.756,0,0,0,3.753,3.753h2.7l.075.3a4.219,4.219,0,0,0,5.147,3.038l12.9-3.327H87a3.756,3.756,0,0,0,3.753-3.753v-.728l2.6-.678A4.258,4.258,0,0,0,96.4,51.3ZM82.934,4.513H71.5l7.934-2.046A2.887,2.887,0,0,1,82.934,4.513ZM44.5,14.467a2.913,2.913,0,0,1,2.084-3.527l2.26-.577v9.616l-.364-.176A7.24,7.24,0,0,1,44.5,14.467Zm1.343,5.172a7.781,7.781,0,0,0,2.084,1.368l.929.427v9.829ZM60.175,63.626a2.871,2.871,0,0,1-3.5-2.046H68.083Zm29.249-5.787A2.424,2.424,0,0,1,87,60.262H52.592a2.432,2.432,0,0,1-2.423-2.423V8.266a2.424,2.424,0,0,1,2.423-2.423c39.229.013,33.919.013,34.409,0a2.424,2.424,0,0,1,2.423,2.423Zm3.6-2.686-2.272.59V34.816L95.11,51.625A2.913,2.913,0,0,1,93.027,55.153Z" transform="translate(-43.074 -1.04)"/>
        <path id="Trazado_875474_-_Contorno" data-name="Trazado 875474 - Contorno" d="M59.455,67.565a6.714,6.714,0,0,1-5.887-3.473h-.975a6.261,6.261,0,0,1-6.253-6.253V36.929l-5.557-21.5,0-.016a6.75,6.75,0,0,1,4.831-8.175l.856-.223a6.273,6.273,0,0,1,6.141-5h13.24l12.622-3.26.006,0a6.734,6.734,0,0,1,7.563,3.261h.977a6.261,6.261,0,0,1,6.253,6.253v20.9l5.557,21.51,0,.016a6.758,6.758,0,0,1-4.843,8.175l-.853.222A6.264,6.264,0,0,1,87,64.105H73.735l-12.6,3.247h-.005A6.782,6.782,0,0,1,59.455,67.565Zm-6.785-9.8H86.924V8.35c-.218,0-.843,0-2.6,0l-19.46-.005-12.194,0Z" transform="translate(-43.074 -1.04)" fill="#fff"/>
        <path id="Trazado_875475" data-name="Trazado 875475" d="M161.223,119.63a.659.659,0,0,0,0,.941l.967.967a.659.659,0,0,0,.941,0l2.573-2.573a.666.666,0,0,0-.941-.942l-2.109,2.109-.49-.49A.649.649,0,0,0,161.223,119.63Z" transform="translate(-146.218 -103.165)"/>
        <path id="Trazado_875475_-_Contorno" data-name="Trazado 875475 - Contorno" d="M165.234,115.325a3.168,3.168,0,0,1,2.239,5.407l-2.573,2.573a3.159,3.159,0,0,1-4.477,0l-.967-.967a3.167,3.167,0,0,1,2.228-5.405h0a3.123,3.123,0,0,1,.579.054l.733-.733A3.146,3.146,0,0,1,165.234,115.325Z" transform="translate(-146.218 -103.165)" fill="#fff"/>
        <path id="Trazado_875476" data-name="Trazado 875476" d="M267.767,110.9h-15.1a.665.665,0,1,0,0,1.331h15.1a.67.67,0,0,0,.665-.665.662.662,0,0,0-.665-.665Z" transform="translate(-225.773 -97.109)"/>
        <path id="Trazado_875476_-_Contorno" data-name="Trazado 875476 - Contorno" d="M252.665,108.4h15.1a3.165,3.165,0,1,1,0,6.331h-15.1a3.165,3.165,0,0,1,0-6.331Z" transform="translate(-225.773 -97.109)" fill="#fff"/>
        <path id="Trazado_875477" data-name="Trazado 875477" d="M252.665,146.731h9.566a.665.665,0,0,0,0-1.331h-9.566a.665.665,0,1,0,0,1.331Z" transform="translate(-225.773 -127.278)"/>
        <path id="Trazado_875477_-_Contorno" data-name="Trazado 875477 - Contorno" d="M262.231,149.231h-9.566a3.165,3.165,0,1,1,0-6.331h9.566a3.165,3.165,0,0,1,0,6.331Z" transform="translate(-225.773 -127.278)" fill="#fff"/>
        <path id="Trazado_875478" data-name="Trazado 875478" d="M164.75,240.623l-2.1,2.1-.49-.49a.666.666,0,1,0-.941.941l.967.967a.659.659,0,0,0,.941,0l2.573-2.573a.659.659,0,0,0,0-.941A.674.674,0,0,0,164.75,240.623Z" transform="translate(-146.218 -210.374)"/>
        <path id="Trazado_875478_-_Contorno" data-name="Trazado 875478 - Contorno" d="M165.227,237.925a3.168,3.168,0,0,1,2.245,5.407l-2.574,2.574a3.159,3.159,0,0,1-4.477,0l-.967-.967a3.168,3.168,0,0,1,2.239-5.407,3.186,3.186,0,0,1,.562.05l.727-.727A3.154,3.154,0,0,1,165.227,237.925Z" transform="translate(-146.218 -210.374)" fill="#fff"/>
        <path id="Trazado_875479" data-name="Trazado 875479" d="M267.767,233.4h-15.1a.665.665,0,0,0,0,1.331h15.1a.67.67,0,0,0,.665-.665.662.662,0,0,0-.665-.665Z" transform="translate(-225.773 -204.231)"/>
        <path id="Trazado_875479_-_Contorno" data-name="Trazado 875479 - Contorno" d="M252.665,230.9h15.1a3.165,3.165,0,0,1,0,6.331h-15.1a3.165,3.165,0,0,1,0-6.331Z" transform="translate(-225.773 -204.231)" fill="#fff"/>
        <path id="Trazado_875480" data-name="Trazado 875480" d="M252.665,269.331h9.566a.665.665,0,0,0,0-1.331h-9.566a.665.665,0,1,0,0,1.331Z" transform="translate(-225.773 -234.488)"/>
        <path id="Trazado_875480_-_Contorno" data-name="Trazado 875480 - Contorno" d="M262.231,271.831h-9.566a3.165,3.165,0,1,1,0-6.331h9.566a3.165,3.165,0,0,1,0,6.331Z" transform="translate(-225.773 -234.488)" fill="#fff"/>
        <path id="Trazado_875481" data-name="Trazado 875481" d="M164.75,363.223l-2.1,2.1-.49-.49a.666.666,0,0,0-.941.941l.967.967a.659.659,0,0,0,.941,0l2.573-2.573a.659.659,0,0,0,0-.941.674.674,0,0,0-.954,0Z" transform="translate(-146.218 -317.584)"/>
        <path id="Trazado_875481_-_Contorno" data-name="Trazado 875481 - Contorno" d="M165.227,360.525a3.168,3.168,0,0,1,2.245,5.407l-2.574,2.574a3.159,3.159,0,0,1-4.477,0l-.967-.967a3.168,3.168,0,0,1,2.239-5.407,3.185,3.185,0,0,1,.562.05l.727-.727A3.154,3.154,0,0,1,165.227,360.525Z" transform="translate(-146.218 -317.584)" fill="#fff"/>
        <path id="Trazado_875482" data-name="Trazado 875482" d="M267.767,356h-15.1a.665.665,0,1,0,0,1.331h15.1a.67.67,0,0,0,.665-.665.662.662,0,0,0-.665-.665Z" transform="translate(-225.773 -311.441)"/>
        <path id="Trazado_875482_-_Contorno" data-name="Trazado 875482 - Contorno" d="M252.665,353.5h15.1a3.165,3.165,0,1,1,0,6.331h-15.1a3.165,3.165,0,0,1,0-6.331Z" transform="translate(-225.773 -311.441)" fill="#fff"/>
        <path id="Trazado_875483" data-name="Trazado 875483" d="M262.231,390.5h-9.566a.665.665,0,1,0,0,1.331h9.566a.665.665,0,0,0,0-1.331Z" transform="translate(-225.773 -341.61)"/>
        <path id="Trazado_875483_-_Contorno" data-name="Trazado 875483 - Contorno" d="M252.665,388h9.566a3.165,3.165,0,0,1,0,6.331h-9.566a3.165,3.165,0,0,1,0-6.331Z" transform="translate(-225.773 -341.61)" fill="#fff"/>
        <path id="Trazado_875484" data-name="Trazado 875484" d="M135.44,94.98A6.44,6.44,0,1,0,129,88.54h0A6.445,6.445,0,0,0,135.44,94.98Zm0-11.549a5.109,5.109,0,1,1-5.1,5.109A5.114,5.114,0,0,1,135.44,83.431Z" transform="translate(-118.213 -71.924)"/>
        <path id="Trazado_875484_-_Contorno" data-name="Trazado 875484 - Contorno" d="M135.44,97.48a8.858,8.858,0,0,1-6.344-2.644,8.96,8.96,0,0,1-2-3.094,2.49,2.49,0,0,1-.594-1.618V88.54a8.952,8.952,0,1,1,8.94,8.94Zm0-11.549a2.615,2.615,0,0,0-1.845,4.45,2.561,2.561,0,0,0,1.845.769,2.609,2.609,0,1,0,0-5.218Z" transform="translate(-118.213 -71.924)" fill="#fff"/>
        <path id="Trazado_875485" data-name="Trazado 875485" d="M135.54,204.7a6.446,6.446,0,1,0,6.452,6.44A6.445,6.445,0,0,0,135.54,204.7Zm0,11.549a5.109,5.109,0,1,1,5.109-5.109A5.122,5.122,0,0,1,135.54,216.249Z" transform="translate(-118.301 -179.134)"/>
        <path id="Trazado_875485_-_Contorno" data-name="Trazado 875485 - Contorno" d="M135.54,202.2a8.974,8.974,0,0,1,8.952,8.931s0,.006,0,.009a8.946,8.946,0,1,1-8.952-8.94Zm0,11.549a2.609,2.609,0,1,0-2.609-2.609A2.612,2.612,0,0,0,135.54,213.749Z" transform="translate(-118.301 -179.134)" fill="#fff"/>
        <path id="Trazado_875486" data-name="Trazado 875486" d="M135.54,327.2a6.446,6.446,0,1,0,6.452,6.44A6.445,6.445,0,0,0,135.54,327.2Zm0,11.562a5.109,5.109,0,1,1,5.109-5.109A5.122,5.122,0,0,1,135.54,338.762Z" transform="translate(-118.301 -286.256)"/>
        <path id="Trazado_875486_-_Contorno" data-name="Trazado 875486 - Contorno" d="M135.54,324.7a8.974,8.974,0,0,1,8.952,8.931s0,.006,0,.009a8.946,8.946,0,1,1-8.952-8.94Zm0,11.562a2.609,2.609,0,1,0-2.609-2.609A2.612,2.612,0,0,0,135.54,336.262Z" transform="translate(-118.301 -286.256)" fill="#fff"/>
      </g>
    </g>
    <g id="lista-de-verificacion_3_2" data-name="lista-de-verificacion (3)" transform="translate(-672.074 -5627.041)">
      <path id="Trazado_875466-2" data-name="Trazado 875466" d="M88.242,8.972l12.164,47.1A3.559,3.559,0,0,1,97.858,60.4L65.006,68.889a3.553,3.553,0,0,1-4.331-2.548L48.511,19.228A3.553,3.553,0,0,1,51.059,14.9L83.911,6.411a3.551,3.551,0,0,1,4.331,2.561Z" transform="translate(-4.655 -4.597)" fill="#e77c6a"/>
      <path id="Trazado_875467-2" data-name="Trazado 875467" d="M88.154,8.972l.226.879a7.449,7.449,0,0,1-1.218,6.289l-1.381,1.87a7.417,7.417,0,0,1-4.13,2.787L59.834,26.434a7.418,7.418,0,0,1-4.959-.439l-2.122-.967a7.472,7.472,0,0,1-4.117-4.908l-.226-.879a3.553,3.553,0,0,1,2.548-4.331l32.865-8.5a3.551,3.551,0,0,1,4.331,2.561Z" transform="translate(-4.568 -4.597)" fill="#f1b2a3"/>
      <path id="Trazado_875468-2" data-name="Trazado 875468" d="M165.809,8.972l12.164,47.1a3.559,3.559,0,0,1-2.548,4.331l-32.852,8.486a3.553,3.553,0,0,1-4.331-2.548L137.1,61.934a41.035,41.035,0,0,0,25.885-48.9L161.3,6.461l.188-.05a3.544,3.544,0,0,1,4.318,2.561Z" transform="translate(-82.223 -4.597)" opacity="0.1"/>
      <path id="Trazado_875469-2" data-name="Trazado 875469" d="M134.885,37.088V86.661a3.086,3.086,0,0,1-3.088,3.088H97.388A3.086,3.086,0,0,1,94.3,86.661V37.088A3.086,3.086,0,0,1,97.388,34H131.8a3.086,3.086,0,0,1,3.088,3.088Z" transform="translate(-44.796 -28.822)" fill="#e8f1f8"/>
      <path id="Trazado_875470-2" data-name="Trazado 875470" d="M134.985,37V86.574a3.086,3.086,0,0,1-3.088,3.088H97.488A3.086,3.086,0,0,1,94.4,86.574V84.691a37.5,37.5,0,0,0,33.794-37.308V33.9h3.7A3.1,3.1,0,0,1,134.985,37Z" transform="translate(-44.883 -28.735)" opacity="0.1"/>
      <path id="Trazado_875471-2" data-name="Trazado 875471" d="M145.949,93.175a5.775,5.775,0,1,1-5.775-5.775A5.775,5.775,0,0,1,145.949,93.175Z" transform="translate(-79.862 -75.519)" fill="#f14f4a"/>
      <path id="Trazado_875472-2" data-name="Trazado 875472" d="M145.949,215.775A5.775,5.775,0,1,1,140.175,210,5.775,5.775,0,0,1,145.949,215.775Z" transform="translate(-79.862 -182.728)" fill="#0e9c4a"/>
      <path id="Trazado_875473-2" data-name="Trazado 875473" d="M145.949,338.275a5.775,5.775,0,1,1-5.775-5.775A5.775,5.775,0,0,1,145.949,338.275Z" transform="translate(-79.862 -289.85)" fill="#f78721"/>
      <g id="Grupo_1100218-2" data-name="Grupo 1100218" transform="translate(43.074 1.04)">
        <path id="Trazado_875474-2" data-name="Trazado 875474" d="M96.4,51.3,90.767,29.481V8.266a3.756,3.756,0,0,0-3.753-3.753h-2.7l-.075-.3a4.228,4.228,0,0,0-5.147-3.038L66.162,4.513H52.6a3.758,3.758,0,0,0-3.766,3.753v.716l-2.6.678A4.25,4.25,0,0,0,43.2,14.806l5.636,21.805V57.839a3.756,3.756,0,0,0,3.753,3.753h2.7l.075.3a4.219,4.219,0,0,0,5.147,3.038l12.9-3.327H87a3.756,3.756,0,0,0,3.753-3.753v-.728l2.6-.678A4.258,4.258,0,0,0,96.4,51.3ZM82.934,4.513H71.5l7.934-2.046A2.887,2.887,0,0,1,82.934,4.513ZM44.5,14.467a2.913,2.913,0,0,1,2.084-3.527l2.26-.577v9.616l-.364-.176A7.24,7.24,0,0,1,44.5,14.467Zm1.343,5.172a7.781,7.781,0,0,0,2.084,1.368l.929.427v9.829ZM60.175,63.626a2.871,2.871,0,0,1-3.5-2.046H68.083Zm29.249-5.787A2.424,2.424,0,0,1,87,60.262H52.592a2.432,2.432,0,0,1-2.423-2.423V8.266a2.424,2.424,0,0,1,2.423-2.423c39.229.013,33.919.013,34.409,0a2.424,2.424,0,0,1,2.423,2.423Zm3.6-2.686-2.272.59V34.816L95.11,51.625A2.913,2.913,0,0,1,93.027,55.153Z" transform="translate(-43.074 -1.04)"/>
        <path id="Trazado_875475-2" data-name="Trazado 875475" d="M161.223,119.63a.659.659,0,0,0,0,.941l.967.967a.659.659,0,0,0,.941,0l2.573-2.573a.666.666,0,0,0-.941-.942l-2.109,2.109-.49-.49A.649.649,0,0,0,161.223,119.63Z" transform="translate(-146.218 -103.165)"/>
        <path id="Trazado_875476-2" data-name="Trazado 875476" d="M267.767,110.9h-15.1a.665.665,0,1,0,0,1.331h15.1a.67.67,0,0,0,.665-.665.662.662,0,0,0-.665-.665Z" transform="translate(-225.773 -97.109)"/>
        <path id="Trazado_875477-2" data-name="Trazado 875477" d="M252.665,146.731h9.566a.665.665,0,0,0,0-1.331h-9.566a.665.665,0,1,0,0,1.331Z" transform="translate(-225.773 -127.278)"/>
        <path id="Trazado_875478-2" data-name="Trazado 875478" d="M164.75,240.623l-2.1,2.1-.49-.49a.666.666,0,1,0-.941.941l.967.967a.659.659,0,0,0,.941,0l2.573-2.573a.659.659,0,0,0,0-.941A.674.674,0,0,0,164.75,240.623Z" transform="translate(-146.218 -210.374)"/>
        <path id="Trazado_875479-2" data-name="Trazado 875479" d="M267.767,233.4h-15.1a.665.665,0,0,0,0,1.331h15.1a.67.67,0,0,0,.665-.665.662.662,0,0,0-.665-.665Z" transform="translate(-225.773 -204.231)"/>
        <path id="Trazado_875480-2" data-name="Trazado 875480" d="M252.665,269.331h9.566a.665.665,0,0,0,0-1.331h-9.566a.665.665,0,1,0,0,1.331Z" transform="translate(-225.773 -234.488)"/>
        <path id="Trazado_875481-2" data-name="Trazado 875481" d="M164.75,363.223l-2.1,2.1-.49-.49a.666.666,0,0,0-.941.941l.967.967a.659.659,0,0,0,.941,0l2.573-2.573a.659.659,0,0,0,0-.941.674.674,0,0,0-.954,0Z" transform="translate(-146.218 -317.584)"/>
        <path id="Trazado_875482-2" data-name="Trazado 875482" d="M267.767,356h-15.1a.665.665,0,1,0,0,1.331h15.1a.67.67,0,0,0,.665-.665.662.662,0,0,0-.665-.665Z" transform="translate(-225.773 -311.441)"/>
        <path id="Trazado_875483-2" data-name="Trazado 875483" d="M262.231,390.5h-9.566a.665.665,0,1,0,0,1.331h9.566a.665.665,0,0,0,0-1.331Z" transform="translate(-225.773 -341.61)"/>
        <path id="Trazado_875484-2" data-name="Trazado 875484" d="M135.44,94.98A6.44,6.44,0,1,0,129,88.54h0A6.445,6.445,0,0,0,135.44,94.98Zm0-11.549a5.109,5.109,0,1,1-5.1,5.109A5.114,5.114,0,0,1,135.44,83.431Z" transform="translate(-118.213 -71.924)"/>
        <path id="Trazado_875485-2" data-name="Trazado 875485" d="M135.54,204.7a6.446,6.446,0,1,0,6.452,6.44A6.445,6.445,0,0,0,135.54,204.7Zm0,11.549a5.109,5.109,0,1,1,5.109-5.109A5.122,5.122,0,0,1,135.54,216.249Z" transform="translate(-118.301 -179.134)"/>
        <path id="Trazado_875486-2" data-name="Trazado 875486" d="M135.54,327.2a6.446,6.446,0,1,0,6.452,6.44A6.445,6.445,0,0,0,135.54,327.2Zm0,11.562a5.109,5.109,0,1,1,5.109-5.109A5.122,5.122,0,0,1,135.54,338.762Z" transform="translate(-118.301 -286.256)"/>
      </g>
    </g>
  </g>
</svg>
