<svg xmlns="http://www.w3.org/2000/svg" width="91.542" height="91.541" viewBox="0 0 91.542 91.541">
  <g id="Grupo_1100286" data-name="Grupo 1100286" transform="translate(-646 5639.324)">
    <g id="Grupo_1098742" data-name="Grupo 1098742" transform="translate(646 -5639.324)">
      <rect id="Rect치ngulo_400898" data-name="Rect치ngulo 400898" width="91.541" height="91.541" rx="45.771" transform="translate(0.001 0)" fill="#769671" opacity="0.859"/>
      <rect id="Rect치ngulo_400907" data-name="Rect치ngulo 400907" width="91.541" height="91.541" rx="45.771" transform="translate(0 0)" fill="none"/>
    </g>
    <g id="ubicacion" transform="translate(659.997 -5628.459)">
      <path id="Trazado_875692" data-name="Trazado 875692" d="M43.2,30h7.59a3,3,0,0,1,2.865,2.111l8.228,26.512A2.605,2.605,0,0,1,59.4,62H4.605a2.6,2.6,0,0,1-2.488-3.372l8.228-26.512A3,3,0,0,1,13.21,30H20.8" fill="#f9d266"/>
      <path id="Trazado_875692_-_Contorno" data-name="Trazado 875692 - Contorno" d="M4.594,65A5.6,5.6,0,0,1-1,59.4v-.456l.253-1.207L7.48,31.227A5.969,5.969,0,0,1,13.208,27H20.8v6H13.21L4.982,59.517,59.4,59,50.79,33H43.2V27h7.59a5.972,5.972,0,0,1,5.73,4.222l8.364,26.951L65,59.408A5.6,5.6,0,0,1,59.4,65H4.594Z" fill="#fff"/>
      <path id="Trazado_875693" data-name="Trazado 875693" d="M50.655,40.111A3,3,0,0,0,47.79,38H10.21a2.987,2.987,0,0,0-1.909.7L2.117,58.623A2.6,2.6,0,0,0,4.6,62H57.448Z" fill="#fce797"/>
      <path id="Trazado_875693_-_Contorno" data-name="Trazado 875693 - Contorno" d="M10.21,35H47.79a5.972,5.972,0,0,1,5.73,4.222L61.52,65H4.6A5.6,5.6,0,0,1-1,59.4v-.456l.253-1.212L5.7,36.97l.674-.567A6,6,0,0,1,10.2,35ZM53.388,59.04,47.79,41H10.728L4.982,59.512Z" fill="#fff"/>
      <g id="Grupo_1100284" data-name="Grupo 1100284">
        <path id="Trazado_875694" data-name="Trazado 875694" d="M14,34H26.8v2H14Z" fill="#f0ae42"/>
        <path id="Trazado_875694_-_Contorno" data-name="Trazado 875694 - Contorno" d="M11,31H29.8v8H11Z" fill="#fff"/>
        <path id="Trazado_875695" data-name="Trazado 875695" d="M37.2,34H50v2H37.2Z" fill="#f0ae42"/>
        <path id="Trazado_875695_-_Contorno" data-name="Trazado 875695 - Contorno" d="M34.2,31H53v8H34.2Z" fill="#fff"/>
        <path id="Trazado_875696" data-name="Trazado 875696" d="M9,57H55v2H9Z" fill="#f0ae42"/>
        <path id="Trazado_875696_-_Contorno" data-name="Trazado 875696 - Contorno" d="M6,54H58v8H6Z" fill="#fff"/>
        <path id="Trazado_875697" data-name="Trazado 875697" d="M15,53H49v2H15Z" fill="#f0ae42"/>
        <path id="Trazado_875697_-_Contorno" data-name="Trazado 875697 - Contorno" d="M12,50H52v8H12Z" fill="#fff"/>
      </g>
      <path id="Trazado_875698" data-name="Trazado 875698" d="M32,44,44.252,28.685A17.106,17.106,0,0,0,48,18a16,16,0,0,0-32,0,17.106,17.106,0,0,0,3.748,10.685Z" fill="#4d8c28"/>
      <path id="Trazado_875698_-_Contorno" data-name="Trazado 875698 - Contorno" d="M32,48.8,17.405,30.559A20.178,20.178,0,0,1,13,18a19,19,0,0,1,38,0,20.179,20.179,0,0,1-4.405,12.559ZM32,5A13,13,0,0,0,19,18a14.156,14.156,0,0,0,3.09,8.811L32,39.2l9.909-12.387A14.157,14.157,0,0,0,45,18,13.015,13.015,0,0,0,32,5Z" fill="#fff"/>
      <path id="Trazado_875699" data-name="Trazado 875699" d="M36.5,38.37c4.96.845,8.5,3.047,8.5,5.63,0,3.314-5.82,6-13,6s-13-2.686-13-6c0-2.583,3.536-4.785,8.5-5.63L32,44Z" fill="#d5883e"/>
      <path id="Trazado_875699_-_Contorno" data-name="Trazado 875699 - Contorno" d="M35.261,35.116l1.743.3C43.787,36.568,48,39.859,48,44c0,5.215-6.729,9-16,9s-16-3.785-16-9c0-4.142,4.214-7.433,11-8.587l1.743-.3L32,39.2ZM30.523,46.957l-4.21-5.267c-2.958.78-4.215,1.957-4.317,2.342C22.216,44.8,25.332,46.653,30.523,46.957Zm2.954,0c5.191-.305,8.307-2.159,8.526-2.99-.1-.329-1.361-1.5-4.317-2.277Z" fill="#fff"/>
      <circle id="Elipse_11527" data-name="Elipse 11527" cx="12" cy="12" r="12" transform="translate(20 6)" fill="#6bc13b"/>
      <path id="Elipse_11527_-_Contorno" data-name="Elipse 11527 - Contorno" d="M12-3A15,15,0,1,1-3,12,15.017,15.017,0,0,1,12-3Zm0,24a9,9,0,1,0-9-9A9.01,9.01,0,0,0,12,21Z" transform="translate(20 6)" fill="#fff"/>
      <path id="Trazado_875700" data-name="Trazado 875700" d="M20.378,21a12.03,12.03,0,0,1,1.874-10H25.5a2.5,2.5,0,0,1,0,5A1.5,1.5,0,0,0,24,17.5,3.5,3.5,0,0,1,20.5,21Z" fill="#3d54bd"/>
      <path id="Trazado_875700_-_Contorno" data-name="Trazado 875700 - Contorno" d="M20.5,24H18.051l-.579-2.254A15,15,0,0,1,19.814,9.252L20.711,8H25.5a5.5,5.5,0,0,1,1.363,10.829A6.511,6.511,0,0,1,20.5,24Z" fill="#fff"/>
      <path id="Trazado_875701" data-name="Trazado 875701" d="M40.943,26H38a2,2,0,0,1-2-2,2,2,0,0,0-2-2H31a2,2,0,0,1,0-4h3a2,2,0,0,0,0-4,2,2,0,0,1,0-4h6.944a12,12,0,0,1,0,16Z" fill="#3d54bd"/>
      <path id="Trazado_875701_-_Contorno" data-name="Trazado 875701 - Contorno" d="M42.286,29H38a5.009,5.009,0,0,1-4.9-4H31a5,5,0,0,1-.931-9.913A5,5,0,0,1,34,7h8.286l.894,1a14.986,14.986,0,0,1,0,20ZM38.9,23h.585a8.994,8.994,0,0,0,0-10H38a4.993,4.993,0,0,1-1,7A5.009,5.009,0,0,1,38.9,23Z" fill="#fff"/>
      <path id="Trazado_875702" data-name="Trazado 875702" d="M62.838,58.327,54.61,31.814A3.981,3.981,0,0,0,50.79,29H45.259A18.16,18.16,0,0,0,49,18a17,17,0,1,0-34,0,18.16,18.16,0,0,0,3.741,11H13.21a3.981,3.981,0,0,0-3.82,2.814L1.162,58.327A3.6,3.6,0,0,0,4.605,63H59.4a3.6,3.6,0,0,0,3.443-4.673ZM32,3A15.017,15.017,0,0,1,47,18a16.163,16.163,0,0,1-3.529,10.061L32,42.4,20.529,28.061A16.163,16.163,0,0,1,17,18,15.017,15.017,0,0,1,32,3Zm-.781,41.624a1,1,0,0,0,1.562,0l4.128-5.16C41.05,40.287,44,42.151,44,44c0,2.365-4.928,5-12,5s-12-2.635-12-5c0-1.849,2.95-3.713,7.091-4.536ZM59.4,61H4.605a1.606,1.606,0,0,1-1.533-2.081L11.3,32.407A1.99,1.99,0,0,1,13.21,31h7.11l2.4,3H14v2H24.32l1.38,1.725C20.974,38.877,18,41.252,18,44c0,3.925,6.149,7,14,7s14-3.075,14-7c0-2.748-2.974-5.123-7.7-6.275L39.68,36H50V34H41.28l2.4-3h7.11a1.99,1.99,0,0,1,1.91,1.407l8.228,26.512A1.606,1.606,0,0,1,59.4,61Z"/>
      <path id="Trazado_875702_-_Contorno" data-name="Trazado 875702 - Contorno" d="M59.407,66H4.6V64h0l0,2a6.6,6.6,0,0,1-6.3-8.567L6.525,30.925A6.942,6.942,0,0,1,13.2,26h.4A21.235,21.235,0,0,1,12,18.007,20,20,0,1,1,52,18a21.256,21.256,0,0,1-1.594,8h.384a6.954,6.954,0,0,1,6.688,4.935l8.225,26.5A6.594,6.594,0,0,1,59.407,66ZM6.5,58h51L51.6,39H46.959A7.309,7.309,0,0,1,49,44c0,5.794-7.15,10-17,10S15,49.794,15,44a7.309,7.309,0,0,1,2.041-5H12.4ZM23.03,44.432c.531,0,2.262.841,5.227,1.291l-2.3-2.88A6.641,6.641,0,0,0,22.9,44.464.219.219,0,0,1,23.03,44.432Zm15.024-1.6-2.3,2.872c3.125-.517,4.876-1.586,5.29-2.1C40.761,43.874,39.779,43.347,38.054,42.836ZM32,6A12.036,12.036,0,0,0,20,18a13.209,13.209,0,0,0,2.874,8.187L32,37.6l9.128-11.411A13.211,13.211,0,0,0,44,18,12.035,12.035,0,0,0,32,6Z" fill="#fff"/>
      <path id="Trazado_875703" data-name="Trazado 875703" d="M32,31A13,13,0,1,0,19,18,13,13,0,0,0,32,31ZM43,18a10.949,10.949,0,0,1-2.521,7H38a1,1,0,0,1-1-1,3,3,0,0,0-3-3H31a1,1,0,0,1,0-2h3a3,3,0,0,0,0-6,1,1,0,0,1,0-2h6.479A10.949,10.949,0,0,1,43,18ZM38.305,9H34a3,3,0,0,0,0,6,1,1,0,0,1,0,2H31a3,3,0,0,0,0,6h3a1,1,0,0,1,1,1,3,3,0,0,0,3,3h.3a10.968,10.968,0,0,1-16.6-5.182A4.494,4.494,0,0,0,25,17.5a.5.5,0,0,1,.5-.5,3.5,3.5,0,1,0,0-7H24.474A10.939,10.939,0,0,1,38.305,9ZM22.792,12H25.5a1.5,1.5,0,0,1,0,3A2.5,2.5,0,0,0,23,17.5a2.5,2.5,0,0,1-1.825,2.4A10.8,10.8,0,0,1,22.792,12Z"/>
      <path id="Trazado_875703_-_Contorno" data-name="Trazado 875703 - Contorno" d="M32,34h0A16,16,0,1,1,46.408,11.044L47.763,12h-.93a16,16,0,0,1,0,12h.651l-.954.7A16.022,16.022,0,0,1,32,34Zm6.468-14a6.026,6.026,0,0,1,.851,1.226,8,8,0,0,0,.609-4.3A5.982,5.982,0,0,1,38.468,20Z" fill="#fff"/>
      <path id="Trazado_875704" data-name="Trazado 875704" d="M9,57H55v2H9Z"/>
      <path id="Trazado_875704_-_Contorno" data-name="Trazado 875704 - Contorno" d="M6,54H58v8H6Z" fill="#fff"/>
      <path id="Trazado_875705" data-name="Trazado 875705" d="M15,53H49v2H15Z"/>
      <path id="Trazado_875705_-_Contorno" data-name="Trazado 875705 - Contorno" d="M12,50H52v8H12Z" fill="#fff"/>
    </g>
    <g id="ubicacion-2" data-name="ubicacion" transform="translate(659.997 -5628.459)">
      <path id="Trazado_875692-2" data-name="Trazado 875692" d="M43.2,30h7.59a3,3,0,0,1,2.865,2.111l8.228,26.512A2.605,2.605,0,0,1,59.4,62H4.605a2.6,2.6,0,0,1-2.488-3.372l8.228-26.512A3,3,0,0,1,13.21,30H20.8" fill="#f9d266"/>
      <path id="Trazado_875693-2" data-name="Trazado 875693" d="M50.655,40.111A3,3,0,0,0,47.79,38H10.21a2.987,2.987,0,0,0-1.909.7L2.117,58.623A2.6,2.6,0,0,0,4.6,62H57.448Z" fill="#fce797"/>
      <g id="Grupo_1100284-2" data-name="Grupo 1100284">
        <path id="Trazado_875694-2" data-name="Trazado 875694" d="M14,34H26.8v2H14Z" fill="#f0ae42"/>
        <path id="Trazado_875695-2" data-name="Trazado 875695" d="M37.2,34H50v2H37.2Z" fill="#f0ae42"/>
        <path id="Trazado_875696-2" data-name="Trazado 875696" d="M9,57H55v2H9Z" fill="#f0ae42"/>
        <path id="Trazado_875697-2" data-name="Trazado 875697" d="M15,53H49v2H15Z" fill="#f0ae42"/>
      </g>
      <path id="Trazado_875698-2" data-name="Trazado 875698" d="M32,44,44.252,28.685A17.106,17.106,0,0,0,48,18a16,16,0,0,0-32,0,17.106,17.106,0,0,0,3.748,10.685Z" fill="#4d8c28"/>
      <path id="Trazado_875699-2" data-name="Trazado 875699" d="M36.5,38.37c4.96.845,8.5,3.047,8.5,5.63,0,3.314-5.82,6-13,6s-13-2.686-13-6c0-2.583,3.536-4.785,8.5-5.63L32,44Z" fill="#d5883e"/>
      <circle id="Elipse_11527-2" data-name="Elipse 11527" cx="12" cy="12" r="12" transform="translate(20 6)" fill="#6bc13b"/>
      <path id="Trazado_875700-2" data-name="Trazado 875700" d="M20.378,21a12.03,12.03,0,0,1,1.874-10H25.5a2.5,2.5,0,0,1,0,5A1.5,1.5,0,0,0,24,17.5,3.5,3.5,0,0,1,20.5,21Z" fill="#3d54bd"/>
      <path id="Trazado_875701-2" data-name="Trazado 875701" d="M40.943,26H38a2,2,0,0,1-2-2,2,2,0,0,0-2-2H31a2,2,0,0,1,0-4h3a2,2,0,0,0,0-4,2,2,0,0,1,0-4h6.944a12,12,0,0,1,0,16Z" fill="#3d54bd"/>
      <path id="Trazado_875702-2" data-name="Trazado 875702" d="M62.838,58.327,54.61,31.814A3.981,3.981,0,0,0,50.79,29H45.259A18.16,18.16,0,0,0,49,18a17,17,0,1,0-34,0,18.16,18.16,0,0,0,3.741,11H13.21a3.981,3.981,0,0,0-3.82,2.814L1.162,58.327A3.6,3.6,0,0,0,4.605,63H59.4a3.6,3.6,0,0,0,3.443-4.673ZM32,3A15.017,15.017,0,0,1,47,18a16.163,16.163,0,0,1-3.529,10.061L32,42.4,20.529,28.061A16.163,16.163,0,0,1,17,18,15.017,15.017,0,0,1,32,3Zm-.781,41.624a1,1,0,0,0,1.562,0l4.128-5.16C41.05,40.287,44,42.151,44,44c0,2.365-4.928,5-12,5s-12-2.635-12-5c0-1.849,2.95-3.713,7.091-4.536ZM59.4,61H4.605a1.606,1.606,0,0,1-1.533-2.081L11.3,32.407A1.99,1.99,0,0,1,13.21,31h7.11l2.4,3H14v2H24.32l1.38,1.725C20.974,38.877,18,41.252,18,44c0,3.925,6.149,7,14,7s14-3.075,14-7c0-2.748-2.974-5.123-7.7-6.275L39.68,36H50V34H41.28l2.4-3h7.11a1.99,1.99,0,0,1,1.91,1.407l8.228,26.512A1.606,1.606,0,0,1,59.4,61Z"/>
      <path id="Trazado_875703-2" data-name="Trazado 875703" d="M32,31A13,13,0,1,0,19,18,13,13,0,0,0,32,31ZM43,18a10.949,10.949,0,0,1-2.521,7H38a1,1,0,0,1-1-1,3,3,0,0,0-3-3H31a1,1,0,0,1,0-2h3a3,3,0,0,0,0-6,1,1,0,0,1,0-2h6.479A10.949,10.949,0,0,1,43,18ZM38.305,9H34a3,3,0,0,0,0,6,1,1,0,0,1,0,2H31a3,3,0,0,0,0,6h3a1,1,0,0,1,1,1,3,3,0,0,0,3,3h.3a10.968,10.968,0,0,1-16.6-5.182A4.494,4.494,0,0,0,25,17.5a.5.5,0,0,1,.5-.5,3.5,3.5,0,1,0,0-7H24.474A10.939,10.939,0,0,1,38.305,9ZM22.792,12H25.5a1.5,1.5,0,0,1,0,3A2.5,2.5,0,0,0,23,17.5a2.5,2.5,0,0,1-1.825,2.4A10.8,10.8,0,0,1,22.792,12Z"/>
      <path id="Trazado_875704-2" data-name="Trazado 875704" d="M9,57H55v2H9Z"/>
      <path id="Trazado_875705-2" data-name="Trazado 875705" d="M15,53H49v2H15Z"/>
    </g>
  </g>
</svg>
