<svg xmlns="http://www.w3.org/2000/svg" width="91.542" height="91.541" viewBox="0 0 91.542 91.541">
  <g id="Grupo_1100277" data-name="Grupo 1100277" transform="translate(963 5294)">
    <g id="Grupo_1100274" data-name="Grupo 1100274">
      <g id="Grupo_1098742" data-name="Grupo 1098742" transform="translate(-963 -5294)">
        <rect id="Rectángulo_400898" data-name="Rectángulo 400898" width="91.541" height="91.541" rx="45.771" transform="translate(0.001 0)" fill="#769671" opacity="0.859"/>
        <rect id="Rectángulo_400907" data-name="Rectángulo 400907" width="91.541" height="91.541" rx="45.771" transform="translate(0 0)" fill="none"/>
      </g>
      <g id="FILLED_OUTLINE" transform="translate(-962 -5293)">
        <path id="Trazado_875619" data-name="Trazado 875619" d="M248,152h1.926v4.816H248Z" transform="translate(-204.068 -119.626)" fill="#5b7bc3"/>
        <path id="Trazado_875619_-_Contorno" data-name="Trazado 875619 - Contorno" d="M245.5,149.5h6.926v9.816H245.5Z" transform="translate(-204.068 -119.626)" fill="#fff"/>
        <path id="Trazado_875620" data-name="Trazado 875620" d="M241.926,176A1.926,1.926,0,0,0,240,177.926v2.89h3.853v-2.89A1.926,1.926,0,0,0,241.926,176Z" transform="translate(-197.031 -140.736)" fill="#486cbc"/>
        <path id="Trazado_875620_-_Contorno" data-name="Trazado 875620 - Contorno" d="M241.926,173.5a4.431,4.431,0,0,1,4.426,4.426v5.39H237.5v-5.39A4.431,4.431,0,0,1,241.926,173.5Z" transform="translate(-197.031 -140.736)" fill="#fff"/>
        <path id="Trazado_875621" data-name="Trazado 875621" d="M292.521,305.043a12.521,12.521,0,0,0,12.521-12.521h0A12.521,12.521,0,0,0,292.521,280H280v12.521A12.521,12.521,0,0,0,292.521,305.043Z" transform="translate(-232.215 -232.215)" fill="#aae5cf"/>
        <path id="Trazado_875621_-_Contorno" data-name="Trazado 875621 - Contorno" d="M292.521,307.543A15.021,15.021,0,0,1,277.5,292.521V277.5h15.021a15.021,15.021,0,1,1,0,30.043ZM282.5,282.5v10.021A10.021,10.021,0,1,0,292.521,282.5Z" transform="translate(-232.215 -232.215)" fill="#fff"/>
        <path id="Trazado_875622" data-name="Trazado 875622" d="M24.6,288.669A12.527,12.527,0,0,1,36.521,280H49.043v12.521a12.521,12.521,0,0,1-25.043,0h0a12.512,12.512,0,0,1,.6-3.853" transform="translate(-7.037 -232.215)" fill="#ffe7b1"/>
        <path id="Trazado_875622_-_Contorno" data-name="Trazado 875622 - Contorno" d="M36.521,307.543h0a15.031,15.031,0,0,1-14.3-19.641l2.378.767-2.377-.77a15.027,15.027,0,0,1,14.3-10.4H51.543v15.021a15.021,15.021,0,0,1-15.021,15.021Zm-9.538-18.107a10.023,10.023,0,1,0,19.559,3.085V282.5H36.521a10.027,10.027,0,0,0-9.538,6.936Z" transform="translate(-7.037 -232.215)" fill="#fff"/>
        <path id="Trazado_875623" data-name="Trazado 875623" d="M292.521,24a12.521,12.521,0,0,1,12.521,12.521h0a12.521,12.521,0,0,1-12.521,12.521H280V36.521A12.521,12.521,0,0,1,292.521,24Z" transform="translate(-232.215 -7.037)" fill="#ffe7b1"/>
        <path id="Trazado_875623_-_Contorno" data-name="Trazado 875623 - Contorno" d="M290.021,21.5h5v.206a15.026,15.026,0,0,1,0,29.631v.206H277.5V36.521a15.031,15.031,0,0,1,12.521-14.816Zm2.5,25.043A10.021,10.021,0,1,0,282.5,36.521V46.543Z" transform="translate(-232.215 -7.037)" fill="#fff"/>
        <path id="Trazado_875624" data-name="Trazado 875624" d="M36.521,24A12.521,12.521,0,0,0,24,36.521h0A12.521,12.521,0,0,0,36.521,49.043H49.043V36.521A12.521,12.521,0,0,0,36.521,24Z" transform="translate(-7.037 -7.037)" fill="#aae5cf"/>
        <path id="Trazado_875624_-_Contorno" data-name="Trazado 875624 - Contorno" d="M36.521,21.5A15.021,15.021,0,0,1,51.543,36.521V51.543H36.521a15.021,15.021,0,1,1,0-30.043ZM46.543,46.543V36.521A10.021,10.021,0,1,0,36.521,46.543Z" transform="translate(-7.037 -7.037)" fill="#fff"/>
        <path id="Trazado_875625" data-name="Trazado 875625" d="M64,424H79.411v1.926H64Z" transform="translate(-42.221 -358.878)" fill="#ffc542"/>
        <path id="Trazado_875625_-_Contorno" data-name="Trazado 875625 - Contorno" d="M61.5,421.5H81.911v6.926H61.5Z" transform="translate(-42.221 -358.878)" fill="#fff"/>
        <path id="Trazado_875626" data-name="Trazado 875626" d="M97.632,64H89.926L88,79.411H99.558Z" transform="translate(-63.331 -42.221)" fill="#31c292"/>
        <path id="Trazado_875626_-_Contorno" data-name="Trazado 875626 - Contorno" d="M87.719,61.5H99.839l2.551,20.411H85.168Zm7.705,5H92.133l-1.3,10.411h5.894Z" transform="translate(-63.331 -42.221)" fill="#fff"/>
        <path id="Trazado_875627" data-name="Trazado 875627" d="M128,160h1.926v3.853H128Z" transform="translate(-98.515 -126.663)" fill="#00b378"/>
        <path id="Trazado_875627_-_Contorno" data-name="Trazado 875627 - Contorno" d="M125.5,157.5h6.926v8.853H125.5Z" transform="translate(-98.515 -126.663)" fill="#fff"/>
        <path id="Trazado_875628" data-name="Trazado 875628" d="M128,112h1.926v3.853H128Z" transform="translate(-98.515 -84.442)" fill="#00b378"/>
        <path id="Trazado_875628_-_Contorno" data-name="Trazado 875628 - Contorno" d="M125.5,109.5h6.926v8.853H125.5Z" transform="translate(-98.515 -84.442)" fill="#fff"/>
        <path id="Trazado_875629" data-name="Trazado 875629" d="M128,64h1.926v3.853H128Z" transform="translate(-98.515 -42.221)" fill="#00b378"/>
        <path id="Trazado_875629_-_Contorno" data-name="Trazado 875629 - Contorno" d="M125.5,61.5h6.926v8.853H125.5Z" transform="translate(-98.515 -42.221)" fill="#fff"/>
        <path id="Trazado_875630" data-name="Trazado 875630" d="M376,48h1.926v1.926H376Z" transform="translate(-316.657 -28.147)" fill="#ffd168"/>
        <path id="Trazado_875630_-_Contorno" data-name="Trazado 875630 - Contorno" d="M373.5,45.5h6.926v6.926H373.5Z" transform="translate(-316.657 -28.147)" fill="#fff"/>
        <path id="Trazado_875631" data-name="Trazado 875631" d="M206.742,208,200,210.89l.963,1.926h11.558l.963-1.926Z" transform="translate(-161.847 -168.884)" fill="#5b7bc3"/>
        <path id="Trazado_875631_-_Contorno" data-name="Trazado 875631 - Contorno" d="M206.742,205.28l10.164,4.356-2.84,5.68H199.418l-2.84-5.68Z" transform="translate(-161.847 -168.884)" fill="#fff"/>
        <g id="Grupo_1100273" data-name="Grupo 1100273" transform="translate(38.153 43.932)">
          <path id="Trazado_875632" data-name="Trazado 875632" d="M200,248h1.926v6.742H200Z" transform="translate(-200 -248)" fill="#486cbc"/>
          <path id="Trazado_875632_-_Contorno" data-name="Trazado 875632 - Contorno" d="M197.5,245.5h6.926v11.742H197.5Z" transform="translate(-200 -248)" fill="#fff"/>
          <path id="Trazado_875633" data-name="Trazado 875633" d="M232,248h1.926v6.742H232Z" transform="translate(-228.147 -248)" fill="#486cbc"/>
          <path id="Trazado_875633_-_Contorno" data-name="Trazado 875633 - Contorno" d="M229.5,245.5h6.926v11.742H229.5Z" transform="translate(-228.147 -248)" fill="#fff"/>
          <path id="Trazado_875634" data-name="Trazado 875634" d="M264,248h1.926v6.742H264Z" transform="translate(-256.295 -248)" fill="#486cbc"/>
          <path id="Trazado_875634_-_Contorno" data-name="Trazado 875634 - Contorno" d="M261.5,245.5h6.926v11.742H261.5Z" transform="translate(-256.295 -248)" fill="#fff"/>
          <path id="Trazado_875635" data-name="Trazado 875635" d="M296,248h1.926v6.742H296Z" transform="translate(-284.442 -248)" fill="#486cbc"/>
          <path id="Trazado_875635_-_Contorno" data-name="Trazado 875635 - Contorno" d="M293.5,245.5h6.926v11.742H293.5Z" transform="translate(-284.442 -248)" fill="#fff"/>
        </g>
        <path id="Trazado_875636" data-name="Trazado 875636" d="M192,296h15.411v1.926H192Z" transform="translate(-154.81 -246.289)" fill="#5b7bc3"/>
        <path id="Trazado_875636_-_Contorno" data-name="Trazado 875636 - Contorno" d="M189.5,293.5h20.411v6.926H189.5Z" transform="translate(-154.81 -246.289)" fill="#fff"/>
        <path id="Trazado_875637" data-name="Trazado 875637" d="M80.374,336h-2.89l-1.394,2.788a1.926,1.926,0,0,1-1.723,1.065H65.926a1.926,1.926,0,0,0,0,3.853H76.944a1.926,1.926,0,0,0,1.869-1.459Z" transform="translate(-42.221 -281.473)" fill="#ffd168"/>
        <path id="Trazado_875637_-_Contorno" data-name="Trazado 875637 - Contorno" d="M75.939,333.5h7.637l-2.338,9.353a4.42,4.42,0,0,1-4.294,3.353H65.926a4.426,4.426,0,0,1,0-8.853h8.087Z" transform="translate(-42.221 -281.473)" fill="#fff"/>
        <path id="Trazado_875638" data-name="Trazado 875638" d="M98.89,320,96,325.779h4.816l.963-5.779Z" transform="translate(-70.368 -267.399)" fill="#ffc542"/>
        <path id="Trazado_875638_-_Contorno" data-name="Trazado 875638 - Contorno" d="M97.344,317.5h7.386l-1.8,10.779H91.955Z" transform="translate(-70.368 -267.399)" fill="#fff"/>
        <path id="Trazado_875639" data-name="Trazado 875639" d="M344,328h9.632v6.742H344Z" transform="translate(-288.509 -274.436)" fill="#00b378"/>
        <path id="Trazado_875639_-_Contorno" data-name="Trazado 875639 - Contorno" d="M341.5,325.5h14.632v11.742H341.5Zm9.632,5H346.5v1.742h4.632Z" transform="translate(-288.509 -274.436)" fill="#fff"/>
        <path id="Trazado_875640" data-name="Trazado 875640" d="M376,304h1.926v2.89H376Z" transform="translate(-316.657 -253.325)" fill="#00b378"/>
        <path id="Trazado_875640_-_Contorno" data-name="Trazado 875640 - Contorno" d="M373.5,301.5h6.926v7.89H373.5Z" transform="translate(-316.657 -253.325)" fill="#fff"/>
        <path id="Trazado_875641" data-name="Trazado 875641" d="M339.14,367.705a8.3,8.3,0,0,0,2.344-5.779L334.742,360,328,361.926a8.3,8.3,0,0,0,2.344,5.778Z" transform="translate(-274.436 -302.583)" fill="#31c292"/>
        <path id="Trazado_875641_-_Contorno" data-name="Trazado 875641 - Contorno" d="M340.2,370.206H329.286l-.736-.759a10.741,10.741,0,0,1-3.05-7.52v-1.886l9.242-2.641,9.243,2.641v1.886a10.743,10.743,0,0,1-3.051,7.52Zm-8.682-5h6.454a5.745,5.745,0,0,0,.73-1.475l-3.956-1.13-3.957,1.13A5.747,5.747,0,0,0,331.515,365.2Z" transform="translate(-274.436 -302.583)" fill="#fff"/>
        <path id="Trazado_875642" data-name="Trazado 875642" d="M334.742,367.705V360L328,361.926a8.3,8.3,0,0,0,2.344,5.778Z" transform="translate(-274.436 -302.583)" fill="#70d6b1"/>
        <path id="Trazado_875642_-_Contorno" data-name="Trazado 875642 - Contorno" d="M337.242,370.206h-7.956l-.736-.759a10.742,10.742,0,0,1-3.05-7.52v-1.886l11.742-3.355Zm-5.727-5h.727v-1.891l-1.457.416A5.749,5.749,0,0,0,331.515,365.2Z" transform="translate(-274.436 -302.583)" fill="#fff"/>
        <path id="Trazado_875643" data-name="Trazado 875643" d="M335.411,411.853a3.434,3.434,0,0,1-2.608-1.245c-.472-.472-.7-.681-1.246-.681s-.773.209-1.245.681a3.352,3.352,0,0,1-5.215,0c-.472-.472-.7-.681-1.245-.681s-.773.209-1.245.681A3.433,3.433,0,0,1,320,411.853v-1.926c.541,0,.773-.209,1.245-.681a3.352,3.352,0,0,1,5.215,0c.472.472.7.681,1.245.681s.773-.209,1.245-.681a3.353,3.353,0,0,1,5.215,0c.472.472.7.681,1.246.681Z" transform="translate(-267.399 -344.804)" fill="#00b378"/>
        <path id="Trazado_875643_-_Contorno" data-name="Trazado 875643 - Contorno" d="M337.911,414.353h-2.5a5.637,5.637,0,0,1-3.853-1.48,5.755,5.755,0,0,1-7.705,0,5.637,5.637,0,0,1-3.853,1.48h-2.5v-6.926h2.029a5.846,5.846,0,0,1,4.324-1.926,5.637,5.637,0,0,1,3.853,1.48,5.637,5.637,0,0,1,3.853-1.48,5.846,5.846,0,0,1,4.324,1.926h2.029Z" transform="translate(-267.399 -344.804)" fill="#fff"/>
        <path id="Trazado_875644" data-name="Trazado 875644" d="M336,320h11.558v1.926H336Z" transform="translate(-281.473 -267.399)" fill="#31c292"/>
        <path id="Trazado_875644_-_Contorno" data-name="Trazado 875644 - Contorno" d="M333.5,317.5h16.558v6.926H333.5Z" transform="translate(-281.473 -267.399)" fill="#fff"/>
        <path id="Trazado_875645" data-name="Trazado 875645" d="M345.94,122.86l1.852-.529L344.841,112h-2l1.926,6.742h-5.427L341.263,112h-2l-2.951,10.33,1.852.529.626-2.191h6.527Z" transform="translate(-281.744 -84.442)" fill="#ffc542"/>
        <path id="Trazado_875645_-_Contorno" data-name="Trazado 875645 - Contorno" d="M344.223,125.95l-.795-2.782h-2.756l-.795,2.782-6.66-1.9,4.156-14.547h9.353l4.156,14.547Z" transform="translate(-281.744 -84.442)" fill="#fff"/>
        <rect id="Rectángulo_401633" data-name="Rectángulo 401633" width="9.484" height="10.076" rx="4.742" transform="translate(55.713 21.63)" fill="#ffc542"/>
        <path id="Rectángulo_401633_-_Contorno" data-name="Rectángulo 401633 - Contorno" d="M4.742-2.5a7.25,7.25,0,0,1,7.242,7.242v.593a7.242,7.242,0,0,1-14.484,0V4.742A7.25,7.25,0,0,1,4.742-2.5Zm0,10.076A2.244,2.244,0,0,0,6.984,5.335V4.742a2.242,2.242,0,0,0-4.484,0v.593A2.244,2.244,0,0,0,4.742,7.576Z" transform="translate(55.713 21.63)" fill="#fff"/>
        <path id="Trazado_875646" data-name="Trazado 875646" d="M344,112h9.632v1.926a1.926,1.926,0,0,1-1.926,1.926h-5.779A1.926,1.926,0,0,1,344,113.926Z" transform="translate(-288.509 -84.442)" fill="#ffd168"/>
        <path id="Trazado_875646_-_Contorno" data-name="Trazado 875646 - Contorno" d="M341.5,109.5h14.632v4.426a4.431,4.431,0,0,1-4.426,4.426h-5.779a4.431,4.431,0,0,1-4.426-4.426Z" transform="translate(-288.509 -84.442)" fill="#fff"/>
        <path id="Trazado_875647" data-name="Trazado 875647" d="M285.485,272h-6.742v1.926h6.742a11.558,11.558,0,1,1-11.558,11.558v-6.742H272v6.742A13.485,13.485,0,1,0,285.485,272Z" transform="translate(-225.178 -225.178)"/>
        <path id="Trazado_875647_-_Contorno" data-name="Trazado 875647 - Contorno" d="M276.242,269.5h9.242A15.992,15.992,0,1,1,269.5,285.485v-9.242h6.742Zm9.242,25.043a9.058,9.058,0,0,0,0-18.116h-9.058v9.058A9.068,9.068,0,0,0,285.485,294.543Z" transform="translate(-225.178 -225.178)" fill="#fff"/>
        <path id="Trazado_875648" data-name="Trazado 875648" d="M41.043,285.485a11.558,11.558,0,1,1-11.558-11.558h6.742V272H29.485a13.485,13.485,0,1,0,13.485,13.485v-6.742H41.043Z" transform="translate(0 -225.178)"/>
        <path id="Trazado_875648_-_Contorno" data-name="Trazado 875648 - Contorno" d="M29.485,269.5h9.242v6.742h6.742v9.242A15.992,15.992,0,1,1,29.485,269.5Zm9.058,6.926H29.485a9.058,9.058,0,1,0,9.058,9.058Z" transform="translate(0 -225.178)" fill="#fff"/>
        <path id="Trazado_875649" data-name="Trazado 875649" d="M29.485,42.969h5.779V41.043H29.485A11.558,11.558,0,1,1,41.043,29.485v.963h1.926v-.963A13.485,13.485,0,1,0,29.485,42.969Z"/>
        <path id="Trazado_875649_-_Contorno" data-name="Trazado 875649 - Contorno" d="M37.764,45.469H29.485A15.992,15.992,0,1,1,45.469,29.485v3.463H38.543V29.485a9.058,9.058,0,1,0-9.058,9.058h8.279Z" fill="#fff"/>
        <path id="Trazado_875650" data-name="Trazado 875650" d="M273.926,29.485a11.558,11.558,0,1,1,11.558,11.558h-5.779v1.926h5.779A13.485,13.485,0,1,0,272,29.485v.963h1.926Z" transform="translate(-225.178)"/>
        <path id="Trazado_875650_-_Contorno" data-name="Trazado 875650 - Contorno" d="M285.485,13.5a15.985,15.985,0,1,1,0,31.969h-8.279V38.543h8.279a9.058,9.058,0,1,0-9.058-9.058v3.463H269.5V29.485A15.973,15.973,0,0,1,285.485,13.5Z" transform="translate(-225.178)" fill="#fff"/>
        <path id="Trazado_875651" data-name="Trazado 875651" d="M64,424H79.411v1.926H64Z" transform="translate(-42.221 -358.878)"/>
        <path id="Trazado_875651_-_Contorno" data-name="Trazado 875651 - Contorno" d="M61.5,421.5H81.911v6.926H61.5Z" transform="translate(-42.221 -358.878)" fill="#fff"/>
        <path id="Trazado_875652" data-name="Trazado 875652" d="M0,0H1.926V15.531H0Z" transform="translate(33.339 21.897) rotate(-7.125)"/>
        <path id="Trazado_875652_-_Contorno" data-name="Trazado 875652 - Contorno" d="M-2.5-2.5H4.426V18.031H-2.5Z" transform="translate(33.339 21.897) rotate(-7.125)" fill="#fff"/>
        <path id="Trazado_875653" data-name="Trazado 875653" d="M0,0H15.531V1.926H0Z" transform="translate(23.709 37.071) rotate(-82.875)"/>
        <path id="Trazado_875653_-_Contorno" data-name="Trazado 875653 - Contorno" d="M-2.5-2.5H18.031V4.426H-2.5Z" transform="translate(23.709 37.071) rotate(-82.875)" fill="#fff"/>
        <path id="Trazado_875654" data-name="Trazado 875654" d="M128,160h1.926v3.853H128Z" transform="translate(-98.515 -126.663)"/>
        <path id="Trazado_875654_-_Contorno" data-name="Trazado 875654 - Contorno" d="M125.5,157.5h6.926v8.853H125.5Z" transform="translate(-98.515 -126.663)" fill="#fff"/>
        <path id="Trazado_875655" data-name="Trazado 875655" d="M128,112h1.926v3.853H128Z" transform="translate(-98.515 -84.442)"/>
        <path id="Trazado_875655_-_Contorno" data-name="Trazado 875655 - Contorno" d="M125.5,109.5h6.926v8.853H125.5Z" transform="translate(-98.515 -84.442)" fill="#fff"/>
        <path id="Trazado_875656" data-name="Trazado 875656" d="M128,64h1.926v3.853H128Z" transform="translate(-98.515 -42.221)"/>
        <path id="Trazado_875656_-_Contorno" data-name="Trazado 875656 - Contorno" d="M125.5,61.5h6.926v8.853H125.5Z" transform="translate(-98.515 -42.221)" fill="#fff"/>
        <path id="Trazado_875657" data-name="Trazado 875657" d="M340.816,48v.963H338.89a2.893,2.893,0,0,0-2.89,2.89v5.779a2.893,2.893,0,0,0,1.688,2.627l-1.651,5.777,1.852.529.626-2.191h6.528l.626,2.191,1.852-.529-1.651-5.777a2.893,2.893,0,0,0,1.688-2.627V51.853a2.893,2.893,0,0,0-2.89-2.89h-1.926V48Zm3.853,10.6H338.89a.964.964,0,0,1-.963-.963v-.963h7.705v.963A.964.964,0,0,1,344.669,58.6Zm-5.6,3.853.55-1.926h4.326l.55,1.926Zm6.566-10.6v2.89h-7.705v-2.89a.964.964,0,0,1,.963-.963h5.779A.964.964,0,0,1,345.632,51.853Z" transform="translate(-281.473 -28.147)"/>
        <path id="Trazado_875657_-_Contorno" data-name="Trazado 875657 - Contorno" d="M338.316,45.5h6.926v.994a5.4,5.4,0,0,1,4.816,5.356v5.782a5.407,5.407,0,0,1-1.328,3.537l1.881,6.584-6.66,1.9-.795-2.782H340.4l-.795,2.782-6.66-1.9,1.881-6.584a5.4,5.4,0,0,1-1.328-3.534V51.853a5.4,5.4,0,0,1,4.816-5.359Z" transform="translate(-281.473 -28.147)" fill="#fff"/>
        <path id="Trazado_875658" data-name="Trazado 875658" d="M74.571,313.926H69.852l-1.66,3.32a.958.958,0,0,1-.861.532h-.562L67.732,312H63.11l-2.89,5.779H58.89a2.89,2.89,0,1,0,0,5.779H69.907a2.886,2.886,0,0,0,2.8-2.189Zm-10.27,0h1.157l-.642,3.853H62.374Zm6.541,6.976a.962.962,0,0,1-.934.73H58.89a.963.963,0,1,1,0-1.926h8.441a2.874,2.874,0,0,0,2.584-1.6l1.128-2.255H72.1Z" transform="translate(-35.184 -260.362)"/>
        <path id="Trazado_875658_-_Contorno" data-name="Trazado 875658 - Contorno" d="M61.565,309.5h9.118l-.321,1.926h7.411l-2.637,10.549a5.376,5.376,0,0,1-5.225,4.082H58.89a5.39,5.39,0,0,1-.216-10.775Z" transform="translate(-35.184 -260.362)" fill="#fff"/>
        <path id="Trazado_875659" data-name="Trazado 875659" d="M326.742,304v1.926h-5.779v1.926h.963v3.539l-1.926.55v.727a9.281,9.281,0,0,0,1.42,4.926l-.174.173c-.472.472-.7.681-1.245.681v1.926a3.433,3.433,0,0,0,2.607-1.245c.472-.472.7-.681,1.245-.681s.773.209,1.245.681a3.352,3.352,0,0,0,5.215,0c.472-.472.7-.681,1.245-.681s.773.209,1.246.681a3.434,3.434,0,0,0,2.608,1.245v-1.926c-.542,0-.773-.209-1.246-.681l-.174-.172a9.282,9.282,0,0,0,1.42-4.926v-.727l-1.926-.55v-3.539h.963v-1.926h-5.779V304Zm-2.89,12.521a3.36,3.36,0,0,0-.776.088,7.358,7.358,0,0,1-1.115-3.224l4.781-1.366v6.021c-.087-.079-.178-.169-.282-.273a3.433,3.433,0,0,0-2.607-1.245Zm7.705,0a3.434,3.434,0,0,0-2.607,1.245c-.1.1-.2.194-.282.273v-6.02l4.781,1.366a7.357,7.357,0,0,1-1.115,3.225,3.362,3.362,0,0,0-.776-.088Zm0-5.68-3.853-1.1-3.853,1.1v-2.989h7.705Z" transform="translate(-267.399 -253.325)"/>
        <path id="Trazado_875659_-_Contorno" data-name="Trazado 875659 - Contorno" d="M324.242,301.5h6.926v1.926h5.779v6.355l.963.275v2.612a11.787,11.787,0,0,1-.467,3.279h.467v6.926h-2.5a5.637,5.637,0,0,1-3.853-1.48,5.766,5.766,0,0,1-2.316,1.28v1.035l-.945-.863c-.19.018-.387.028-.592.028s-.4-.01-.59-.028l-.947.865v-1.037a5.765,5.765,0,0,1-2.316-1.28,5.637,5.637,0,0,1-3.853,1.48h-2.5v-6.926h.467a11.777,11.777,0,0,1-.467-3.277v-2.614l.963-.275v-6.355h5.779Z" transform="translate(-267.399 -253.325)" fill="#fff"/>
        <path id="Trazado_875660" data-name="Trazado 875660" d="M194.221,156.816v2.117l-5.171,2.216,1.318,2.637v5.552H189.4v1.926h15.411v-1.926h-.963v-5.552l1.318-2.637L200,158.933v-2.117a2.894,2.894,0,0,0-1.926-2.724V152h-1.926v2.092A2.894,2.894,0,0,0,194.221,156.816Zm-1.926,7.705h1.926v4.816h-1.926Zm5.779,0v4.816h-1.926v-4.816ZM200,169.337v-4.816h1.926v4.816Zm2.294-6.742H191.927l-.24-.48,5.424-2.324,5.424,2.324Zm-5.184-4.9-.963.413v-1.291a.963.963,0,0,1,1.926,0v1.291Z" transform="translate(-152.215 -119.626)"/>
        <path id="Trazado_875660_-_Contorno" data-name="Trazado 875660 - Contorno" d="M193.647,149.5h6.926v3.19a5.4,5.4,0,0,1,1.926,4.123v.471l6.093,2.611-2.24,4.48v2.461h.963v6.926H186.9v-6.926h.963v-2.461l-2.24-4.48,6.093-2.611v-.468a5.408,5.408,0,0,1,1.926-4.126Z" transform="translate(-152.215 -119.626)" fill="#fff"/>
      </g>
    </g>
    <g id="FILLED_OUTLINE-2" data-name="FILLED_OUTLINE" transform="translate(-962 -5293)">
      <path id="Trazado_875619-2" data-name="Trazado 875619" d="M248,152h1.926v4.816H248Z" transform="translate(-204.068 -119.626)" fill="#5b7bc3"/>
      <path id="Trazado_875620-2" data-name="Trazado 875620" d="M241.926,176A1.926,1.926,0,0,0,240,177.926v2.89h3.853v-2.89A1.926,1.926,0,0,0,241.926,176Z" transform="translate(-197.031 -140.736)" fill="#486cbc"/>
      <path id="Trazado_875621-2" data-name="Trazado 875621" d="M292.521,305.043a12.521,12.521,0,0,0,12.521-12.521h0A12.521,12.521,0,0,0,292.521,280H280v12.521A12.521,12.521,0,0,0,292.521,305.043Z" transform="translate(-232.215 -232.215)" fill="#aae5cf"/>
      <path id="Trazado_875622-2" data-name="Trazado 875622" d="M24.6,288.669A12.527,12.527,0,0,1,36.521,280H49.043v12.521a12.521,12.521,0,0,1-25.043,0h0a12.512,12.512,0,0,1,.6-3.853" transform="translate(-7.037 -232.215)" fill="#ffe7b1"/>
      <path id="Trazado_875623-2" data-name="Trazado 875623" d="M292.521,24a12.521,12.521,0,0,1,12.521,12.521h0a12.521,12.521,0,0,1-12.521,12.521H280V36.521A12.521,12.521,0,0,1,292.521,24Z" transform="translate(-232.215 -7.037)" fill="#ffe7b1"/>
      <path id="Trazado_875624-2" data-name="Trazado 875624" d="M36.521,24A12.521,12.521,0,0,0,24,36.521h0A12.521,12.521,0,0,0,36.521,49.043H49.043V36.521A12.521,12.521,0,0,0,36.521,24Z" transform="translate(-7.037 -7.037)" fill="#aae5cf"/>
      <path id="Trazado_875625-2" data-name="Trazado 875625" d="M64,424H79.411v1.926H64Z" transform="translate(-42.221 -358.878)" fill="#ffc542"/>
      <path id="Trazado_875626-2" data-name="Trazado 875626" d="M97.632,64H89.926L88,79.411H99.558Z" transform="translate(-63.331 -42.221)" fill="#31c292"/>
      <path id="Trazado_875627-2" data-name="Trazado 875627" d="M128,160h1.926v3.853H128Z" transform="translate(-98.515 -126.663)" fill="#00b378"/>
      <path id="Trazado_875628-2" data-name="Trazado 875628" d="M128,112h1.926v3.853H128Z" transform="translate(-98.515 -84.442)" fill="#00b378"/>
      <path id="Trazado_875629-2" data-name="Trazado 875629" d="M128,64h1.926v3.853H128Z" transform="translate(-98.515 -42.221)" fill="#00b378"/>
      <path id="Trazado_875630-2" data-name="Trazado 875630" d="M376,48h1.926v1.926H376Z" transform="translate(-316.657 -28.147)" fill="#ffd168"/>
      <path id="Trazado_875631-2" data-name="Trazado 875631" d="M206.742,208,200,210.89l.963,1.926h11.558l.963-1.926Z" transform="translate(-161.847 -168.884)" fill="#5b7bc3"/>
      <g id="Grupo_1100273-2" data-name="Grupo 1100273" transform="translate(38.153 43.932)">
        <path id="Trazado_875632-2" data-name="Trazado 875632" d="M200,248h1.926v6.742H200Z" transform="translate(-200 -248)" fill="#486cbc"/>
        <path id="Trazado_875633-2" data-name="Trazado 875633" d="M232,248h1.926v6.742H232Z" transform="translate(-228.147 -248)" fill="#486cbc"/>
        <path id="Trazado_875634-2" data-name="Trazado 875634" d="M264,248h1.926v6.742H264Z" transform="translate(-256.295 -248)" fill="#486cbc"/>
        <path id="Trazado_875635-2" data-name="Trazado 875635" d="M296,248h1.926v6.742H296Z" transform="translate(-284.442 -248)" fill="#486cbc"/>
      </g>
      <path id="Trazado_875636-2" data-name="Trazado 875636" d="M192,296h15.411v1.926H192Z" transform="translate(-154.81 -246.289)" fill="#5b7bc3"/>
      <path id="Trazado_875637-2" data-name="Trazado 875637" d="M80.374,336h-2.89l-1.394,2.788a1.926,1.926,0,0,1-1.723,1.065H65.926a1.926,1.926,0,0,0,0,3.853H76.944a1.926,1.926,0,0,0,1.869-1.459Z" transform="translate(-42.221 -281.473)" fill="#ffd168"/>
      <path id="Trazado_875638-2" data-name="Trazado 875638" d="M98.89,320,96,325.779h4.816l.963-5.779Z" transform="translate(-70.368 -267.399)" fill="#ffc542"/>
      <path id="Trazado_875639-2" data-name="Trazado 875639" d="M344,328h9.632v6.742H344Z" transform="translate(-288.509 -274.436)" fill="#00b378"/>
      <path id="Trazado_875640-2" data-name="Trazado 875640" d="M376,304h1.926v2.89H376Z" transform="translate(-316.657 -253.325)" fill="#00b378"/>
      <path id="Trazado_875641-2" data-name="Trazado 875641" d="M339.14,367.705a8.3,8.3,0,0,0,2.344-5.779L334.742,360,328,361.926a8.3,8.3,0,0,0,2.344,5.778Z" transform="translate(-274.436 -302.583)" fill="#31c292"/>
      <path id="Trazado_875642-2" data-name="Trazado 875642" d="M334.742,367.705V360L328,361.926a8.3,8.3,0,0,0,2.344,5.778Z" transform="translate(-274.436 -302.583)" fill="#70d6b1"/>
      <path id="Trazado_875643-2" data-name="Trazado 875643" d="M335.411,411.853a3.434,3.434,0,0,1-2.608-1.245c-.472-.472-.7-.681-1.246-.681s-.773.209-1.245.681a3.352,3.352,0,0,1-5.215,0c-.472-.472-.7-.681-1.245-.681s-.773.209-1.245.681A3.433,3.433,0,0,1,320,411.853v-1.926c.541,0,.773-.209,1.245-.681a3.352,3.352,0,0,1,5.215,0c.472.472.7.681,1.245.681s.773-.209,1.245-.681a3.353,3.353,0,0,1,5.215,0c.472.472.7.681,1.246.681Z" transform="translate(-267.399 -344.804)" fill="#00b378"/>
      <path id="Trazado_875644-2" data-name="Trazado 875644" d="M336,320h11.558v1.926H336Z" transform="translate(-281.473 -267.399)" fill="#31c292"/>
      <path id="Trazado_875645-2" data-name="Trazado 875645" d="M345.94,122.86l1.852-.529L344.841,112h-2l1.926,6.742h-5.427L341.263,112h-2l-2.951,10.33,1.852.529.626-2.191h6.527Z" transform="translate(-281.744 -84.442)" fill="#ffc542"/>
      <rect id="Rectángulo_401633-2" data-name="Rectángulo 401633" width="9.484" height="10.076" rx="4.742" transform="translate(55.713 21.63)" fill="#ffc542"/>
      <path id="Trazado_875646-2" data-name="Trazado 875646" d="M344,112h9.632v1.926a1.926,1.926,0,0,1-1.926,1.926h-5.779A1.926,1.926,0,0,1,344,113.926Z" transform="translate(-288.509 -84.442)" fill="#ffd168"/>
      <path id="Trazado_875647-2" data-name="Trazado 875647" d="M285.485,272h-6.742v1.926h6.742a11.558,11.558,0,1,1-11.558,11.558v-6.742H272v6.742A13.485,13.485,0,1,0,285.485,272Z" transform="translate(-225.178 -225.178)"/>
      <path id="Trazado_875648-2" data-name="Trazado 875648" d="M41.043,285.485a11.558,11.558,0,1,1-11.558-11.558h6.742V272H29.485a13.485,13.485,0,1,0,13.485,13.485v-6.742H41.043Z" transform="translate(0 -225.178)"/>
      <path id="Trazado_875649-2" data-name="Trazado 875649" d="M29.485,42.969h5.779V41.043H29.485A11.558,11.558,0,1,1,41.043,29.485v.963h1.926v-.963A13.485,13.485,0,1,0,29.485,42.969Z"/>
      <path id="Trazado_875650-2" data-name="Trazado 875650" d="M273.926,29.485a11.558,11.558,0,1,1,11.558,11.558h-5.779v1.926h5.779A13.485,13.485,0,1,0,272,29.485v.963h1.926Z" transform="translate(-225.178)"/>
      <path id="Trazado_875651-2" data-name="Trazado 875651" d="M64,424H79.411v1.926H64Z" transform="translate(-42.221 -358.878)"/>
      <path id="Trazado_875652-2" data-name="Trazado 875652" d="M0,0H1.926V15.531H0Z" transform="translate(33.339 21.897) rotate(-7.125)"/>
      <path id="Trazado_875653-2" data-name="Trazado 875653" d="M0,0H15.531V1.926H0Z" transform="translate(23.709 37.071) rotate(-82.875)"/>
      <path id="Trazado_875654-2" data-name="Trazado 875654" d="M128,160h1.926v3.853H128Z" transform="translate(-98.515 -126.663)"/>
      <path id="Trazado_875655-2" data-name="Trazado 875655" d="M128,112h1.926v3.853H128Z" transform="translate(-98.515 -84.442)"/>
      <path id="Trazado_875656-2" data-name="Trazado 875656" d="M128,64h1.926v3.853H128Z" transform="translate(-98.515 -42.221)"/>
      <path id="Trazado_875657-2" data-name="Trazado 875657" d="M340.816,48v.963H338.89a2.893,2.893,0,0,0-2.89,2.89v5.779a2.893,2.893,0,0,0,1.688,2.627l-1.651,5.777,1.852.529.626-2.191h6.528l.626,2.191,1.852-.529-1.651-5.777a2.893,2.893,0,0,0,1.688-2.627V51.853a2.893,2.893,0,0,0-2.89-2.89h-1.926V48Zm3.853,10.6H338.89a.964.964,0,0,1-.963-.963v-.963h7.705v.963A.964.964,0,0,1,344.669,58.6Zm-5.6,3.853.55-1.926h4.326l.55,1.926Zm6.566-10.6v2.89h-7.705v-2.89a.964.964,0,0,1,.963-.963h5.779A.964.964,0,0,1,345.632,51.853Z" transform="translate(-281.473 -28.147)"/>
      <path id="Trazado_875658-2" data-name="Trazado 875658" d="M74.571,313.926H69.852l-1.66,3.32a.958.958,0,0,1-.861.532h-.562L67.732,312H63.11l-2.89,5.779H58.89a2.89,2.89,0,1,0,0,5.779H69.907a2.886,2.886,0,0,0,2.8-2.189Zm-10.27,0h1.157l-.642,3.853H62.374Zm6.541,6.976a.962.962,0,0,1-.934.73H58.89a.963.963,0,1,1,0-1.926h8.441a2.874,2.874,0,0,0,2.584-1.6l1.128-2.255H72.1Z" transform="translate(-35.184 -260.362)"/>
      <path id="Trazado_875659-2" data-name="Trazado 875659" d="M326.742,304v1.926h-5.779v1.926h.963v3.539l-1.926.55v.727a9.281,9.281,0,0,0,1.42,4.926l-.174.173c-.472.472-.7.681-1.245.681v1.926a3.433,3.433,0,0,0,2.607-1.245c.472-.472.7-.681,1.245-.681s.773.209,1.245.681a3.352,3.352,0,0,0,5.215,0c.472-.472.7-.681,1.245-.681s.773.209,1.246.681a3.434,3.434,0,0,0,2.608,1.245v-1.926c-.542,0-.773-.209-1.246-.681l-.174-.172a9.282,9.282,0,0,0,1.42-4.926v-.727l-1.926-.55v-3.539h.963v-1.926h-5.779V304Zm-2.89,12.521a3.36,3.36,0,0,0-.776.088,7.358,7.358,0,0,1-1.115-3.224l4.781-1.366v6.021c-.087-.079-.178-.169-.282-.273a3.433,3.433,0,0,0-2.607-1.245Zm7.705,0a3.434,3.434,0,0,0-2.607,1.245c-.1.1-.2.194-.282.273v-6.02l4.781,1.366a7.357,7.357,0,0,1-1.115,3.225,3.362,3.362,0,0,0-.776-.088Zm0-5.68-3.853-1.1-3.853,1.1v-2.989h7.705Z" transform="translate(-267.399 -253.325)"/>
      <path id="Trazado_875660-2" data-name="Trazado 875660" d="M194.221,156.816v2.117l-5.171,2.216,1.318,2.637v5.552H189.4v1.926h15.411v-1.926h-.963v-5.552l1.318-2.637L200,158.933v-2.117a2.894,2.894,0,0,0-1.926-2.724V152h-1.926v2.092A2.894,2.894,0,0,0,194.221,156.816Zm-1.926,7.705h1.926v4.816h-1.926Zm5.779,0v4.816h-1.926v-4.816ZM200,169.337v-4.816h1.926v4.816Zm2.294-6.742H191.927l-.24-.48,5.424-2.324,5.424,2.324Zm-5.184-4.9-.963.413v-1.291a.963.963,0,0,1,1.926,0v1.291Z" transform="translate(-152.215 -119.626)"/>
    </g>
  </g>
</svg>
