<svg xmlns="http://www.w3.org/2000/svg" width="91.542" height="91.541" viewBox="0 0 91.542 91.541">
  <g id="Grupo_1100272" data-name="Grupo 1100272" transform="translate(325 5294)">
    <g id="Grupo_1098742" data-name="Grupo 1098742" transform="translate(-325 -5294)">
      <rect id="Rectángulo_400898" data-name="Rectángulo 400898" width="91.541" height="91.541" rx="45.771" transform="translate(0.001 0)" fill="#769671" opacity="0.859"/>
      <rect id="Rectángulo_400907" data-name="Rectángulo 400907" width="91.541" height="91.541" rx="45.771" transform="translate(0 0)" fill="none"/>
    </g>
    <g id="_5-hotel" data-name="5-hotel" transform="translate(-306.047 -5275.047)">
      <path id="Trazado_875583" data-name="Trazado 875583" d="M3,23H51.607V56.522H3Z" transform="translate(-0.486 -3.725)" fill="#fff"/>
      <path id="Trazado_875583_-_Contorno" data-name="Trazado 875583 - Contorno" d="M.5,20.5H54.107V59.022H.5Zm48.606,5H5.5V54.022H49.107Z" transform="translate(-0.486 -3.725)" fill="#fff"/>
      <path id="Trazado_875584" data-name="Trazado 875584" d="M52.959,22.028H1L2.676,17H51.283Z" transform="translate(-0.162 -2.753)" fill="#fff"/>
      <path id="Trazado_875584_-_Contorno" data-name="Trazado 875584 - Contorno" d="M56.427,24.528h-58.9L.874,14.5h52.21Zm-51.959-5H49.49l-.009-.028h-45Z" transform="translate(-0.162 -2.753)" fill="#fff"/>
      <path id="Trazado_875585" data-name="Trazado 875585" d="M6,1H49.578V14.409H6Z" transform="translate(-0.972 -0.162)" fill="#fff"/>
      <path id="Trazado_875585_-_Contorno" data-name="Trazado 875585 - Contorno" d="M3.5-1.5H52.078V16.909H3.5Zm43.578,5H8.5v8.409H47.078Z" transform="translate(-0.972 -0.162)" fill="#fff"/>
      <path id="Trazado_875586" data-name="Trazado 875586" d="M3,23H18.085V56.522H3Z" transform="translate(-0.486 -3.725)" fill="#fff"/>
      <path id="Trazado_875586_-_Contorno" data-name="Trazado 875586 - Contorno" d="M.5,20.5H20.585V59.022H.5Zm15.085,5H5.5V54.022H15.585Z" transform="translate(-0.486 -3.725)" fill="#fff"/>
      <path id="Trazado_875587" data-name="Trazado 875587" d="M43,23H58.085V56.522H43Z" transform="translate(-6.964 -3.725)" fill="#fff"/>
      <path id="Trazado_875587_-_Contorno" data-name="Trazado 875587 - Contorno" d="M40.5,20.5H60.585V59.022H40.5Zm15.085,5H45.5V54.022H55.585Z" transform="translate(-6.964 -3.725)" fill="#fff"/>
      <g id="Grupo_1100271" data-name="Grupo 1100271" transform="translate(6.704 22.627)">
        <path id="Trazado_875588" data-name="Trazado 875588" d="M26,27h3.352v3.352H26Z" transform="translate(-10.915 -27)" fill="#fff"/>
        <path id="Trazado_875588_-_Contorno" data-name="Trazado 875588 - Contorno" d="M23.5,24.5h8.352v8.352H23.5Z" transform="translate(-10.915 -27)" fill="#fff"/>
        <path id="Trazado_875589" data-name="Trazado 875589" d="M34,27h3.352v3.352H34Z" transform="translate(-12.211 -27)" fill="#fff"/>
        <path id="Trazado_875589_-_Contorno" data-name="Trazado 875589 - Contorno" d="M31.5,24.5h8.352v8.352H31.5Z" transform="translate(-12.211 -27)" fill="#fff"/>
        <path id="Trazado_875590" data-name="Trazado 875590" d="M10,27h3.352v3.352H10Z" transform="translate(-8.324 -27)" fill="#fff"/>
        <path id="Trazado_875590_-_Contorno" data-name="Trazado 875590 - Contorno" d="M7.5,24.5h8.352v8.352H7.5Z" transform="translate(-8.324 -27)" fill="#fff"/>
        <path id="Trazado_875591" data-name="Trazado 875591" d="M10,35h3.352v3.352H10Z" transform="translate(-8.324 -28.296)" fill="#fff"/>
        <path id="Trazado_875591_-_Contorno" data-name="Trazado 875591 - Contorno" d="M7.5,32.5h8.352v8.352H7.5Z" transform="translate(-8.324 -28.296)" fill="#fff"/>
        <path id="Trazado_875592" data-name="Trazado 875592" d="M8,54h3.352v3.352H8Z" transform="translate(-8 -31.373)" fill="#fff"/>
        <path id="Trazado_875592_-_Contorno" data-name="Trazado 875592 - Contorno" d="M5.5,51.5h8.352v8.352H5.5Z" transform="translate(-8 -31.373)" fill="#fff"/>
        <path id="Trazado_875593" data-name="Trazado 875593" d="M12,54h3.352v3.352H12Z" transform="translate(-8.648 -31.373)" fill="#fff"/>
        <path id="Trazado_875593_-_Contorno" data-name="Trazado 875593 - Contorno" d="M9.5,51.5h8.352v8.352H9.5Z" transform="translate(-8.648 -31.373)" fill="#fff"/>
      </g>
      <path id="Trazado_875594" data-name="Trazado 875594" d="M3,45H18.085v3.352H3Z" transform="translate(-0.486 -7.288)" fill="#fff"/>
      <path id="Trazado_875594_-_Contorno" data-name="Trazado 875594 - Contorno" d="M.5,42.5H20.585v8.352H.5Z" transform="translate(-0.486 -7.288)" fill="#fff"/>
      <path id="Trazado_875595" data-name="Trazado 875595" d="M50,27h3.352v3.352H50Z" transform="translate(-8.098 -4.373)" fill="#fff"/>
      <path id="Trazado_875595_-_Contorno" data-name="Trazado 875595 - Contorno" d="M47.5,24.5h8.352v8.352H47.5Z" transform="translate(-8.098 -4.373)" fill="#fff"/>
      <path id="Trazado_875596" data-name="Trazado 875596" d="M50,35h3.352v3.352H50Z" transform="translate(-8.098 -5.668)" fill="#fff"/>
      <path id="Trazado_875596_-_Contorno" data-name="Trazado 875596 - Contorno" d="M47.5,32.5h8.352v8.352H47.5Z" transform="translate(-8.098 -5.668)" fill="#fff"/>
      <path id="Trazado_875597" data-name="Trazado 875597" d="M48,54h3.352v3.352H48Z" transform="translate(-7.774 -8.746)" fill="#fff"/>
      <path id="Trazado_875597_-_Contorno" data-name="Trazado 875597 - Contorno" d="M45.5,51.5h8.352v8.352H45.5Z" transform="translate(-7.774 -8.746)" fill="#fff"/>
      <path id="Trazado_875598" data-name="Trazado 875598" d="M52,54h3.352v3.352H52Z" transform="translate(-8.422 -8.746)" fill="#fff"/>
      <path id="Trazado_875598_-_Contorno" data-name="Trazado 875598 - Contorno" d="M49.5,51.5h8.352v8.352H49.5Z" transform="translate(-8.422 -8.746)" fill="#fff"/>
      <path id="Trazado_875599" data-name="Trazado 875599" d="M43,45H58.085v3.352H43Z" transform="translate(-6.964 -7.288)" fill="#fff"/>
      <path id="Trazado_875599_-_Contorno" data-name="Trazado 875599 - Contorno" d="M40.5,42.5H60.585v8.352H40.5Z" transform="translate(-6.964 -7.288)" fill="#fff"/>
      <rect id="Rectángulo_401632" data-name="Rectángulo 401632" width="28.493" height="3.352" rx="1" transform="translate(12.571 37.712)" fill="#fff"/>
      <path id="Rectángulo_401632_-_Contorno" data-name="Rectángulo 401632 - Contorno" d="M1-2.5H27.493a3.5,3.5,0,0,1,3.5,3.5V2.352a3.5,3.5,0,0,1-3.5,3.5H1a3.5,3.5,0,0,1-3.5-3.5V1A3.5,3.5,0,0,1,1-2.5Z" transform="translate(12.571 37.712)" fill="#fff"/>
      <path id="Trazado_875600" data-name="Trazado 875600" d="M24,49H37.409V60.733H24Z" transform="translate(-3.887 -7.936)" fill="#fff"/>
      <path id="Trazado_875600_-_Contorno" data-name="Trazado 875600 - Contorno" d="M21.5,46.5H39.909V63.233H21.5Zm13.409,5H26.5v6.733h8.409Z" transform="translate(-3.887 -7.936)" fill="#fff"/>
      <path id="Trazado_875601" data-name="Trazado 875601" d="M20,49h3.352V60.733H20Z" transform="translate(-3.239 -7.936)" fill="#fff"/>
      <path id="Trazado_875601_-_Contorno" data-name="Trazado 875601 - Contorno" d="M17.5,46.5h8.352V63.233H17.5Z" transform="translate(-3.239 -7.936)" fill="#fff"/>
      <path id="Trazado_875602" data-name="Trazado 875602" d="M40,49h3.352V60.733H40Z" transform="translate(-6.478 -7.936)" fill="#fff"/>
      <path id="Trazado_875602_-_Contorno" data-name="Trazado 875602 - Contorno" d="M37.5,46.5h8.352V63.233H37.5Z" transform="translate(-6.478 -7.936)" fill="#fff"/>
      <path id="Trazado_875603" data-name="Trazado 875603" d="M32,49h6.7V60.733H32Z" transform="translate(-5.182 -7.936)" fill="#fff"/>
      <path id="Trazado_875603_-_Contorno" data-name="Trazado 875603 - Contorno" d="M29.5,46.5H41.2V63.233H29.5Zm6.7,5H34.5v6.733h1.7Z" transform="translate(-5.182 -7.936)" fill="#fff"/>
      <path id="Trazado_875604" data-name="Trazado 875604" d="M17,43.38,29.571,35l12.571,8.38Z" transform="translate(-2.753 -5.668)" fill="#fff"/>
      <path id="Trazado_875604_-_Contorno" data-name="Trazado 875604 - Contorno" d="M50.4,45.88H8.743L29.571,32Zm-25.141-5h8.627L29.571,38Z" transform="translate(-2.753 -5.668)" fill="#fff"/>
      <path id="Trazado_875605" data-name="Trazado 875605" d="M53.591,19.01l-1.676-5.028a.838.838,0,0,0-.794-.573H49.445V.838A.838.838,0,0,0,48.607,0H5.028A.838.838,0,0,0,4.19.838V13.409H2.514a.838.838,0,0,0-.794.573L.044,19.01a.838.838,0,0,0,.794,1.1h.838V52.8a.838.838,0,0,0,.838.838H51.121a.838.838,0,0,0,.838-.838V20.113H52.8a.838.838,0,0,0,.794-1.1ZM5.866,1.676h41.9V13.409H5.866ZM3.118,15.085h47.4l1.117,3.352H2ZM40.226,38.55v1.676H13.409V38.55ZM17.012,36.874l9.805-6.537,9.805,6.537ZM17.6,41.9h1.676V51.959H17.6Zm3.352,0h5.028V51.959H20.951Zm6.7,0h5.028V51.959H27.656Zm6.7,10.057V41.9h1.676V51.959ZM50.283,36.874H44.416a.838.838,0,1,0,0,1.676h5.866v1.676H44.416a.838.838,0,1,0,0,1.676h5.866V51.959H37.712V41.9h2.514A1.676,1.676,0,0,0,41.9,40.226V38.55a1.676,1.676,0,0,0-1.676-1.676H39.64l-12.357-8.24a.838.838,0,0,0-.93,0L14,36.874h-.587a1.676,1.676,0,0,0-1.676,1.676v1.676A1.676,1.676,0,0,0,13.409,41.9h2.514V51.959H3.352V41.9H9.219a.838.838,0,1,0,0-1.676H3.352V38.55H9.219a.838.838,0,1,0,0-1.676H3.352V20.113H16.761V31.846a.838.838,0,1,0,1.676,0V20.113H35.2V31.846a.838.838,0,1,0,1.676,0V20.113H50.283Z" transform="translate(0)" fill="#fff"/>
      <path id="Trazado_875605_-_Contorno" data-name="Trazado 875605 - Contorno" d="M5.028-2.5H48.607A3.342,3.342,0,0,1,51.945.838V11.012a3.334,3.334,0,0,1,2.342,2.18l1.676,5.028a3.335,3.335,0,0,1-1.5,3.949V52.8a3.342,3.342,0,0,1-3.338,3.338H2.514A3.342,3.342,0,0,1-.824,52.8V22.168a3.334,3.334,0,0,1-1.046-.942,3.347,3.347,0,0,1-.459-3.006l1.676-5.029a3.334,3.334,0,0,1,2.342-2.18V.838A3.342,3.342,0,0,1,5.028-2.5Zm40.24,6.676H8.366v6.733h36.9ZM14.261,22.613H5.852V34.374H9.219a3.32,3.32,0,0,1,1.967.642,4.149,4.149,0,0,1,2.048-.639l1.427-.951a3.318,3.318,0,0,1-.4-1.581Zm18.437,0H20.937V29.24l4.028-2.686a3.338,3.338,0,0,1,3.7,0L32.7,29.24Zm15.085,0H39.374v9.233a3.318,3.318,0,0,1-.4,1.581l1.427.951a4.149,4.149,0,0,1,2.048.639,3.32,3.32,0,0,1,1.967-.642h3.366ZM28.366,34.374l-1.548-1.032-1.548,1.032ZM13.423,44.4h-.014a4.152,4.152,0,0,1-2.223-.642,3.32,3.32,0,0,1-1.967.642H5.852v5.057h7.571Zm34.36,0H44.416a3.32,3.32,0,0,1-1.967-.642,4.152,4.152,0,0,1-2.223.642h-.014v5.057h7.571Zm-24.3,0h-.028v5.057h.028Zm6.7,0h-.028v5.057h.028Z" transform="translate(0)" fill="#fff"/>
      <path id="Trazado_875606" data-name="Trazado 875606" d="M16.866,4a.838.838,0,0,0-.838.838V7.352H12.676V4.838a.838.838,0,1,0-1.676,0v6.7a.838.838,0,1,0,1.676,0V9.028h3.352v2.514a.838.838,0,1,0,1.676,0v-6.7A.838.838,0,0,0,16.866,4Z" transform="translate(-1.781 -0.648)" fill="#fff"/>
      <path id="Trazado_875606_-_Contorno" data-name="Trazado 875606 - Contorno" d="M11.838,1.5a3.331,3.331,0,0,1,2.514,1.144A3.337,3.337,0,0,1,20.2,4.838v6.7a3.337,3.337,0,0,1-5.852,2.194A3.337,3.337,0,0,1,8.5,11.542v-6.7A3.342,3.342,0,0,1,11.838,1.5Z" transform="translate(-1.781 -0.648)" fill="#fff"/>
      <path id="Trazado_875607" data-name="Trazado 875607" d="M25.028,4H21.676A1.676,1.676,0,0,0,20,5.676V10.7a1.676,1.676,0,0,0,1.676,1.676h3.352A1.676,1.676,0,0,0,26.7,10.7V5.676A1.676,1.676,0,0,0,25.028,4Zm-3.352,6.7V5.676h3.352V10.7Z" transform="translate(-3.239 -0.648)" fill="#fff"/>
      <path id="Trazado_875607_-_Contorno" data-name="Trazado 875607 - Contorno" d="M21.676,1.5h3.352A4.181,4.181,0,0,1,29.2,5.676V10.7a4.181,4.181,0,0,1-4.176,4.176H21.676A4.181,4.181,0,0,1,17.5,10.7V5.676A4.181,4.181,0,0,1,21.676,1.5Z" transform="translate(-3.239 -0.648)" fill="#fff"/>
      <path id="Trazado_875608" data-name="Trazado 875608" d="M34.866,4H29.838a.838.838,0,0,0,0,1.676h1.676v5.866a.838.838,0,0,0,1.676,0V5.676h1.676a.838.838,0,0,0,0-1.676Z" transform="translate(-4.697 -0.648)" fill="#fff"/>
      <path id="Trazado_875608_-_Contorno" data-name="Trazado 875608 - Contorno" d="M29.838,1.5h5.028a3.338,3.338,0,0,1,.824,6.573v3.469a3.338,3.338,0,1,1-6.676,0V8.073A3.338,3.338,0,0,1,29.838,1.5Z" transform="translate(-4.697 -0.648)" fill="#fff"/>
      <path id="Trazado_875609" data-name="Trazado 875609" d="M43.866,5.676a.838.838,0,0,0,0-1.676H38.838A.838.838,0,0,0,38,4.838v6.7a.838.838,0,0,0,.838.838h5.028a.838.838,0,0,0,0-1.676h-4.19V9.028h4.19a.838.838,0,0,0,0-1.676h-4.19V5.676Z" transform="translate(-6.154 -0.648)" fill="#fff"/>
      <path id="Trazado_875609_-_Contorno" data-name="Trazado 875609 - Contorno" d="M38.838,1.5h5.028a3.337,3.337,0,0,1,2.886,5.014,3.333,3.333,0,0,1,0,3.352,3.337,3.337,0,0,1-2.886,5.014H38.838A3.342,3.342,0,0,1,35.5,11.542v-6.7A3.342,3.342,0,0,1,38.838,1.5Z" transform="translate(-6.154 -0.648)" fill="#fff"/>
      <path id="Trazado_875610" data-name="Trazado 875610" d="M51.19,10.7H48.676V4.838a.838.838,0,0,0-1.676,0v6.7a.838.838,0,0,0,.838.838H51.19a.838.838,0,1,0,0-1.676Z" transform="translate(-7.612 -0.648)" fill="#fff"/>
      <path id="Trazado_875610_-_Contorno" data-name="Trazado 875610 - Contorno" d="M51.19,14.88H47.838A3.342,3.342,0,0,1,44.5,11.542v-6.7a3.338,3.338,0,1,1,6.676,0V8.2h.014a3.338,3.338,0,0,1,0,6.676Z" transform="translate(-7.612 -0.648)" fill="#fff"/>
      <path id="Trazado_875611" data-name="Trazado 875611" d="M29.19,26H25.838a.838.838,0,0,0-.838.838V30.19a.838.838,0,0,0,.838.838H29.19a.838.838,0,0,0,.838-.838V26.838A.838.838,0,0,0,29.19,26Zm-.838,3.352H26.676V27.676h1.676Z" transform="translate(-4.049 -4.211)" fill="#fff"/>
      <path id="Trazado_875611_-_Contorno" data-name="Trazado 875611 - Contorno" d="M25.838,23.5H29.19a3.342,3.342,0,0,1,3.338,3.338V30.19a3.342,3.342,0,0,1-3.338,3.338H25.838A3.342,3.342,0,0,1,22.5,30.19V26.838A3.342,3.342,0,0,1,25.838,23.5Z" transform="translate(-4.049 -4.211)" fill="#fff"/>
      <path id="Trazado_875612" data-name="Trazado 875612" d="M37.19,26H33.838a.838.838,0,0,0-.838.838V30.19a.838.838,0,0,0,.838.838H37.19a.838.838,0,0,0,.838-.838V26.838A.838.838,0,0,0,37.19,26Zm-.838,3.352H34.676V27.676h1.676Z" transform="translate(-5.344 -4.211)" fill="#fff"/>
      <path id="Trazado_875612_-_Contorno" data-name="Trazado 875612 - Contorno" d="M33.838,23.5H37.19a3.342,3.342,0,0,1,3.338,3.338V30.19a3.342,3.342,0,0,1-3.338,3.338H33.838A3.342,3.342,0,0,1,30.5,30.19V26.838A3.342,3.342,0,0,1,33.838,23.5Z" transform="translate(-5.344 -4.211)" fill="#fff"/>
      <path id="Trazado_875613" data-name="Trazado 875613" d="M13.19,26H9.838A.838.838,0,0,0,9,26.838V30.19a.838.838,0,0,0,.838.838H13.19a.838.838,0,0,0,.838-.838V26.838A.838.838,0,0,0,13.19,26Zm-.838,3.352H10.676V27.676h1.676Z" transform="translate(-1.457 -4.211)" fill="#fff"/>
      <path id="Trazado_875613_-_Contorno" data-name="Trazado 875613 - Contorno" d="M9.838,23.5H13.19a3.342,3.342,0,0,1,3.338,3.338V30.19a3.342,3.342,0,0,1-3.338,3.338H9.838A3.342,3.342,0,0,1,6.5,30.19V26.838A3.342,3.342,0,0,1,9.838,23.5Z" transform="translate(-1.457 -4.211)" fill="#fff"/>
      <path id="Trazado_875614" data-name="Trazado 875614" d="M13.19,34H9.838A.838.838,0,0,0,9,34.838V38.19a.838.838,0,0,0,.838.838H13.19a.838.838,0,0,0,.838-.838V34.838A.838.838,0,0,0,13.19,34Zm-.838,3.352H10.676V35.676h1.676Z" transform="translate(-1.457 -5.507)" fill="#fff"/>
      <path id="Trazado_875614_-_Contorno" data-name="Trazado 875614 - Contorno" d="M9.838,31.5H13.19a3.342,3.342,0,0,1,3.338,3.338V38.19a3.342,3.342,0,0,1-3.338,3.338H9.838A3.342,3.342,0,0,1,6.5,38.19V34.838A3.342,3.342,0,0,1,9.838,31.5Z" transform="translate(-1.457 -5.507)" fill="#fff"/>
      <path id="Trazado_875615" data-name="Trazado 875615" d="M7.838,53A.838.838,0,0,0,7,53.838V57.19a.838.838,0,0,0,.838.838h6.7a.838.838,0,0,0,.838-.838V53.838A.838.838,0,0,0,14.542,53Zm.838,1.676h1.676v1.676H8.676ZM13.7,56.352H12.028V54.676H13.7Z" transform="translate(-1.134 -8.584)" fill="#fff"/>
      <path id="Trazado_875615_-_Contorno" data-name="Trazado 875615 - Contorno" d="M7.838,50.5h6.7a3.342,3.342,0,0,1,3.338,3.338V57.19a3.342,3.342,0,0,1-3.338,3.338h-6.7A3.342,3.342,0,0,1,4.5,57.19V53.838A3.342,3.342,0,0,1,7.838,50.5Z" transform="translate(-1.134 -8.584)" fill="#fff"/>
      <path id="Trazado_875616" data-name="Trazado 875616" d="M49.838,31.028H53.19a.838.838,0,0,0,.838-.838V26.838A.838.838,0,0,0,53.19,26H49.838a.838.838,0,0,0-.838.838V30.19A.838.838,0,0,0,49.838,31.028Zm.838-3.352h1.676v1.676H50.676Z" transform="translate(-7.936 -4.211)" fill="#fff"/>
      <path id="Trazado_875616_-_Contorno" data-name="Trazado 875616 - Contorno" d="M53.19,33.528H49.838A3.342,3.342,0,0,1,46.5,30.19V26.838A3.342,3.342,0,0,1,49.838,23.5H53.19a3.342,3.342,0,0,1,3.338,3.338V30.19A3.342,3.342,0,0,1,53.19,33.528Z" transform="translate(-7.936 -4.211)" fill="#fff"/>
      <path id="Trazado_875617" data-name="Trazado 875617" d="M49.838,39.028H53.19a.838.838,0,0,0,.838-.838V34.838A.838.838,0,0,0,53.19,34H49.838a.838.838,0,0,0-.838.838V38.19A.838.838,0,0,0,49.838,39.028Zm.838-3.352h1.676v1.676H50.676Z" transform="translate(-7.936 -5.507)" fill="#fff"/>
      <path id="Trazado_875617_-_Contorno" data-name="Trazado 875617 - Contorno" d="M53.19,41.528H49.838A3.342,3.342,0,0,1,46.5,38.19V34.838A3.342,3.342,0,0,1,49.838,31.5H53.19a3.342,3.342,0,0,1,3.338,3.338V38.19A3.342,3.342,0,0,1,53.19,41.528Z" transform="translate(-7.936 -5.507)" fill="#fff"/>
      <path id="Trazado_875618" data-name="Trazado 875618" d="M47.838,53a.838.838,0,0,0-.838.838V57.19a.838.838,0,0,0,.838.838h6.7a.838.838,0,0,0,.838-.838V53.838A.838.838,0,0,0,54.542,53Zm.838,1.676h1.676v1.676H48.676ZM53.7,56.352H52.028V54.676H53.7Z" transform="translate(-7.612 -8.584)" fill="#fff"/>
      <path id="Trazado_875618_-_Contorno" data-name="Trazado 875618 - Contorno" d="M47.838,50.5h6.7a3.342,3.342,0,0,1,3.338,3.338V57.19a3.342,3.342,0,0,1-3.338,3.338h-6.7A3.342,3.342,0,0,1,44.5,57.19V53.838A3.342,3.342,0,0,1,47.838,50.5Z" transform="translate(-7.612 -8.584)" fill="#fff"/>
    </g>
    <g id="_5-hotel-2" data-name="5-hotel" transform="translate(-306.047 -5275.047)">
      <path id="Trazado_875583-2" data-name="Trazado 875583" d="M3,23H51.607V56.522H3Z" transform="translate(-0.486 -3.725)" fill="#f6f0e5"/>
      <path id="Trazado_875584-2" data-name="Trazado 875584" d="M52.959,22.028H1L2.676,17H51.283Z" transform="translate(-0.162 -2.753)" fill="#7bace6"/>
      <path id="Trazado_875585-2" data-name="Trazado 875585" d="M6,1H49.578V14.409H6Z" transform="translate(-0.972 -0.162)" fill="#a8d7e4"/>
      <path id="Trazado_875586-2" data-name="Trazado 875586" d="M3,23H18.085V56.522H3Z" transform="translate(-0.486 -3.725)" fill="#ebe5db"/>
      <path id="Trazado_875587-2" data-name="Trazado 875587" d="M43,23H58.085V56.522H43Z" transform="translate(-6.964 -3.725)" fill="#ebe5db"/>
      <g id="Grupo_1100271-2" data-name="Grupo 1100271" transform="translate(6.704 22.627)">
        <path id="Trazado_875588-2" data-name="Trazado 875588" d="M26,27h3.352v3.352H26Z" transform="translate(-10.915 -27)" fill="#a8d7e4"/>
        <path id="Trazado_875589-2" data-name="Trazado 875589" d="M34,27h3.352v3.352H34Z" transform="translate(-12.211 -27)" fill="#a8d7e4"/>
        <path id="Trazado_875590-2" data-name="Trazado 875590" d="M10,27h3.352v3.352H10Z" transform="translate(-8.324 -27)" fill="#a8d7e4"/>
        <path id="Trazado_875591-2" data-name="Trazado 875591" d="M10,35h3.352v3.352H10Z" transform="translate(-8.324 -28.296)" fill="#a8d7e4"/>
        <path id="Trazado_875592-2" data-name="Trazado 875592" d="M8,54h3.352v3.352H8Z" transform="translate(-8 -31.373)" fill="#a8d7e4"/>
        <path id="Trazado_875593-2" data-name="Trazado 875593" d="M12,54h3.352v3.352H12Z" transform="translate(-8.648 -31.373)" fill="#a8d7e4"/>
      </g>
      <path id="Trazado_875594-2" data-name="Trazado 875594" d="M3,45H18.085v3.352H3Z" transform="translate(-0.486 -7.288)" fill="#ccc7be"/>
      <path id="Trazado_875595-2" data-name="Trazado 875595" d="M50,27h3.352v3.352H50Z" transform="translate(-8.098 -4.373)" fill="#a8d7e4"/>
      <path id="Trazado_875596-2" data-name="Trazado 875596" d="M50,35h3.352v3.352H50Z" transform="translate(-8.098 -5.668)" fill="#a8d7e4"/>
      <path id="Trazado_875597-2" data-name="Trazado 875597" d="M48,54h3.352v3.352H48Z" transform="translate(-7.774 -8.746)" fill="#a8d7e4"/>
      <path id="Trazado_875598-2" data-name="Trazado 875598" d="M52,54h3.352v3.352H52Z" transform="translate(-8.422 -8.746)" fill="#a8d7e4"/>
      <path id="Trazado_875599-2" data-name="Trazado 875599" d="M43,45H58.085v3.352H43Z" transform="translate(-6.964 -7.288)" fill="#ccc7be"/>
      <rect id="Rectángulo_401632-2" data-name="Rectángulo 401632" width="28.493" height="3.352" rx="1" transform="translate(12.571 37.712)" fill="#ebe5db"/>
      <path id="Trazado_875600-2" data-name="Trazado 875600" d="M24,49H37.409V60.733H24Z" transform="translate(-3.887 -7.936)" fill="#a8d7e4"/>
      <path id="Trazado_875601-2" data-name="Trazado 875601" d="M20,49h3.352V60.733H20Z" transform="translate(-3.239 -7.936)" fill="#7bace6"/>
      <path id="Trazado_875602-2" data-name="Trazado 875602" d="M40,49h3.352V60.733H40Z" transform="translate(-6.478 -7.936)" fill="#7bace6"/>
      <path id="Trazado_875603-2" data-name="Trazado 875603" d="M32,49h6.7V60.733H32Z" transform="translate(-5.182 -7.936)" fill="#96c8d6"/>
      <path id="Trazado_875604-2" data-name="Trazado 875604" d="M17,43.38,29.571,35l12.571,8.38Z" transform="translate(-2.753 -5.668)" fill="#7bace6"/>
      <path id="Trazado_875605-2" data-name="Trazado 875605" d="M53.591,19.01l-1.676-5.028a.838.838,0,0,0-.794-.573H49.445V.838A.838.838,0,0,0,48.607,0H5.028A.838.838,0,0,0,4.19.838V13.409H2.514a.838.838,0,0,0-.794.573L.044,19.01a.838.838,0,0,0,.794,1.1h.838V52.8a.838.838,0,0,0,.838.838H51.121a.838.838,0,0,0,.838-.838V20.113H52.8a.838.838,0,0,0,.794-1.1ZM5.866,1.676h41.9V13.409H5.866ZM3.118,15.085h47.4l1.117,3.352H2ZM40.226,38.55v1.676H13.409V38.55ZM17.012,36.874l9.805-6.537,9.805,6.537ZM17.6,41.9h1.676V51.959H17.6Zm3.352,0h5.028V51.959H20.951Zm6.7,0h5.028V51.959H27.656Zm6.7,10.057V41.9h1.676V51.959ZM50.283,36.874H44.416a.838.838,0,1,0,0,1.676h5.866v1.676H44.416a.838.838,0,1,0,0,1.676h5.866V51.959H37.712V41.9h2.514A1.676,1.676,0,0,0,41.9,40.226V38.55a1.676,1.676,0,0,0-1.676-1.676H39.64l-12.357-8.24a.838.838,0,0,0-.93,0L14,36.874h-.587a1.676,1.676,0,0,0-1.676,1.676v1.676A1.676,1.676,0,0,0,13.409,41.9h2.514V51.959H3.352V41.9H9.219a.838.838,0,1,0,0-1.676H3.352V38.55H9.219a.838.838,0,1,0,0-1.676H3.352V20.113H16.761V31.846a.838.838,0,1,0,1.676,0V20.113H35.2V31.846a.838.838,0,1,0,1.676,0V20.113H50.283Z" transform="translate(0)"/>
      <path id="Trazado_875606-2" data-name="Trazado 875606" d="M16.866,4a.838.838,0,0,0-.838.838V7.352H12.676V4.838a.838.838,0,1,0-1.676,0v6.7a.838.838,0,1,0,1.676,0V9.028h3.352v2.514a.838.838,0,1,0,1.676,0v-6.7A.838.838,0,0,0,16.866,4Z" transform="translate(-1.781 -0.648)"/>
      <path id="Trazado_875607-2" data-name="Trazado 875607" d="M25.028,4H21.676A1.676,1.676,0,0,0,20,5.676V10.7a1.676,1.676,0,0,0,1.676,1.676h3.352A1.676,1.676,0,0,0,26.7,10.7V5.676A1.676,1.676,0,0,0,25.028,4Zm-3.352,6.7V5.676h3.352V10.7Z" transform="translate(-3.239 -0.648)"/>
      <path id="Trazado_875608-2" data-name="Trazado 875608" d="M34.866,4H29.838a.838.838,0,0,0,0,1.676h1.676v5.866a.838.838,0,0,0,1.676,0V5.676h1.676a.838.838,0,0,0,0-1.676Z" transform="translate(-4.697 -0.648)"/>
      <path id="Trazado_875609-2" data-name="Trazado 875609" d="M43.866,5.676a.838.838,0,0,0,0-1.676H38.838A.838.838,0,0,0,38,4.838v6.7a.838.838,0,0,0,.838.838h5.028a.838.838,0,0,0,0-1.676h-4.19V9.028h4.19a.838.838,0,0,0,0-1.676h-4.19V5.676Z" transform="translate(-6.154 -0.648)"/>
      <path id="Trazado_875610-2" data-name="Trazado 875610" d="M51.19,10.7H48.676V4.838a.838.838,0,0,0-1.676,0v6.7a.838.838,0,0,0,.838.838H51.19a.838.838,0,1,0,0-1.676Z" transform="translate(-7.612 -0.648)"/>
      <path id="Trazado_875611-2" data-name="Trazado 875611" d="M29.19,26H25.838a.838.838,0,0,0-.838.838V30.19a.838.838,0,0,0,.838.838H29.19a.838.838,0,0,0,.838-.838V26.838A.838.838,0,0,0,29.19,26Zm-.838,3.352H26.676V27.676h1.676Z" transform="translate(-4.049 -4.211)"/>
      <path id="Trazado_875612-2" data-name="Trazado 875612" d="M37.19,26H33.838a.838.838,0,0,0-.838.838V30.19a.838.838,0,0,0,.838.838H37.19a.838.838,0,0,0,.838-.838V26.838A.838.838,0,0,0,37.19,26Zm-.838,3.352H34.676V27.676h1.676Z" transform="translate(-5.344 -4.211)"/>
      <path id="Trazado_875613-2" data-name="Trazado 875613" d="M13.19,26H9.838A.838.838,0,0,0,9,26.838V30.19a.838.838,0,0,0,.838.838H13.19a.838.838,0,0,0,.838-.838V26.838A.838.838,0,0,0,13.19,26Zm-.838,3.352H10.676V27.676h1.676Z" transform="translate(-1.457 -4.211)"/>
      <path id="Trazado_875614-2" data-name="Trazado 875614" d="M13.19,34H9.838A.838.838,0,0,0,9,34.838V38.19a.838.838,0,0,0,.838.838H13.19a.838.838,0,0,0,.838-.838V34.838A.838.838,0,0,0,13.19,34Zm-.838,3.352H10.676V35.676h1.676Z" transform="translate(-1.457 -5.507)"/>
      <path id="Trazado_875615-2" data-name="Trazado 875615" d="M7.838,53A.838.838,0,0,0,7,53.838V57.19a.838.838,0,0,0,.838.838h6.7a.838.838,0,0,0,.838-.838V53.838A.838.838,0,0,0,14.542,53Zm.838,1.676h1.676v1.676H8.676ZM13.7,56.352H12.028V54.676H13.7Z" transform="translate(-1.134 -8.584)"/>
      <path id="Trazado_875616-2" data-name="Trazado 875616" d="M49.838,31.028H53.19a.838.838,0,0,0,.838-.838V26.838A.838.838,0,0,0,53.19,26H49.838a.838.838,0,0,0-.838.838V30.19A.838.838,0,0,0,49.838,31.028Zm.838-3.352h1.676v1.676H50.676Z" transform="translate(-7.936 -4.211)"/>
      <path id="Trazado_875617-2" data-name="Trazado 875617" d="M49.838,39.028H53.19a.838.838,0,0,0,.838-.838V34.838A.838.838,0,0,0,53.19,34H49.838a.838.838,0,0,0-.838.838V38.19A.838.838,0,0,0,49.838,39.028Zm.838-3.352h1.676v1.676H50.676Z" transform="translate(-7.936 -5.507)"/>
      <path id="Trazado_875618-2" data-name="Trazado 875618" d="M47.838,53a.838.838,0,0,0-.838.838V57.19a.838.838,0,0,0,.838.838h6.7a.838.838,0,0,0,.838-.838V53.838A.838.838,0,0,0,54.542,53Zm.838,1.676h1.676v1.676H48.676ZM53.7,56.352H52.028V54.676H53.7Z" transform="translate(-7.612 -8.584)"/>
    </g>
  </g>
</svg>
