<svg xmlns="http://www.w3.org/2000/svg" width="63" height="63" viewBox="0 0 63 63">
  <g id="Grupo_1100298" data-name="Grupo 1100298" transform="translate(-1020.051 -6447)">
    <g id="Grupo_1098742" data-name="Grupo 1098742" transform="translate(1020.496 6447.445)">
      <rect id="Rect치ngulo_400898" data-name="Rect치ngulo 400898" width="63" height="63" rx="31.5" transform="translate(-0.445 -0.445)" fill="#769671" opacity="0.859"/>
      <rect id="Rect치ngulo_400907" data-name="Rect치ngulo 400907" width="63" height="63" rx="31.5" transform="translate(-0.446 -0.445)" fill="none"/>
    </g>
    <g id="tarro-de-leche" transform="translate(1011.267 6457)">
      <g id="Grupo_1100287" data-name="Grupo 1100287" transform="translate(30.431 0.634)">
        <path id="Trazado_875706" data-name="Trazado 875706" d="M138.126,13.312l.2.085h15.64l.237-.085,1.109-2.475a.423.423,0,0,0-.328-.592L135.413,7.5a.423.423,0,0,0-.482.419V9.942a.423.423,0,0,0,.124.3Z" transform="translate(-134.931 -7.501)" fill="#99e6fc"/>
        <path id="Trazado_875706_-_Contorno" data-name="Trazado 875706 - Contorno" d="M154.4,15.9H137.829l-1.121-.467-3.421-3.421a2.9,2.9,0,0,1-.856-2.067V7.924a2.923,2.923,0,0,1,3.329-2.895l19.574,2.74A2.923,2.923,0,0,1,157.6,11.86l-1.546,3.448Zm-15.156-5h2.365l-2.75-.385Z" transform="translate(-134.931 -7.501)" fill="#fff"/>
        <path id="Trazado_875707" data-name="Trazado 875707" d="M138.126,13.312h3.5l-3.071-3.071a.423.423,0,0,1-.124-.3V7.928L135.413,7.5a.423.423,0,0,0-.482.419V9.942a.423.423,0,0,0,.124.3Z" transform="translate(-134.931 -7.501)" fill="#62dbfb"/>
        <path id="Trazado_875707_-_Contorno" data-name="Trazado 875707 - Contorno" d="M137.091,15.813l-3.8-3.8a2.9,2.9,0,0,1-.856-2.067V7.924a2.923,2.923,0,0,1,3.329-2.895l5.174.724V9.082l6.731,6.731Z" transform="translate(-134.931 -7.501)" fill="#fff"/>
      </g>
      <path id="Trazado_875708" data-name="Trazado 875708" d="M368.044,122.606h-5.061V125.7h5.061a2.053,2.053,0,0,1,2.051,2.051v10.535a2.054,2.054,0,0,1-1.7,2.02,20.582,20.582,0,0,1,.153,2.5c0,.2,0,.4-.01.594a5.143,5.143,0,0,0,4.648-5.118V127.749A5.143,5.143,0,0,0,368.044,122.606Z" transform="translate(-313.277 -112.243)" fill="#99e6fc"/>
      <path id="Trazado_875708_-_Contorno" data-name="Trazado 875708 - Contorno" d="M360.483,120.106h7.561a7.652,7.652,0,0,1,7.643,7.643v10.535a7.643,7.643,0,0,1-6.91,7.607l-2.818.269.081-2.83c.006-.2.009-.368.009-.522a18.153,18.153,0,0,0-.134-2.2l-.289-2.36,1.969-.342V128.2h-7.112Z" transform="translate(-313.277 -112.243)" fill="#fff"/>
      <path id="Trazado_875709" data-name="Trazado 875709" d="M176.536,88.906a8.86,8.86,0,0,1-1.841-5.413V76.264H158.616v7.228a8.878,8.878,0,0,1-.831,3.749,1.8,1.8,0,0,1,2.3,2.738l-2.775,2.775H160a.515.515,0,0,1,.513.569l-2,19.133h17.54a19.484,19.484,0,0,0,.484-23.552Z" transform="translate(-124.989 -69.818)" fill="#c8effe"/>
      <path id="Trazado_875709_-_Contorno" data-name="Trazado 875709 - Contorno" d="M156.116,73.764h21.079v9.728a6.392,6.392,0,0,0,1.321,3.886,21.329,21.329,0,0,1,4.245,13,22.348,22.348,0,0,1-1.277,7.516,19.594,19.594,0,0,1-3.53,6.181l-.749.878H155.737l2.061-19.7h-6.522l1.243-1.243-.965.68,3.963-8.506a6.421,6.421,0,0,0,.6-2.693Zm16.079,5H161.116v4.728a11.29,11.29,0,0,1-.1,1.522,4.3,4.3,0,0,1,1.251,6.262A3.02,3.02,0,0,1,163,93.585l-1.713,16.373h13.55a14.978,14.978,0,0,0,1.936-3.735,17.362,17.362,0,0,0,.987-5.84,16.312,16.312,0,0,0-3.2-9.95,11.418,11.418,0,0,1-2.362-6.94Z" transform="translate(-124.989 -69.818)" fill="#fff"/>
      <g id="Grupo_1100288" data-name="Grupo 1100288" transform="translate(32.795 6.446)">
        <path id="Trazado_875710" data-name="Trazado 875710" d="M165.133,87.375a11.022,11.022,0,0,0,.712-3.883h1.366V76.264h-3.479v7.228a8.878,8.878,0,0,1-.831,3.749A1.794,1.794,0,0,1,165.133,87.375Z" transform="translate(-162.901 -76.264)" fill="#99e6fc"/>
        <path id="Trazado_875710_-_Contorno" data-name="Trazado 875710 - Contorno" d="M156.672,94.692l3.963-8.506a6.421,6.421,0,0,0,.6-2.694V73.764h8.479V85.992h-1.6a13.607,13.607,0,0,1-.638,2.265l-1.291,3.424-2.3-2.07Z" transform="translate(-162.901 -76.264)" fill="#fff"/>
      </g>
      <path id="Trazado_875711" data-name="Trazado 875711" d="M174.864,168.493a11.03,11.03,0,0,1-2.281-6.7H160.73a11.021,11.021,0,0,1-.712,3.883c.024.021.048.042.071.064a1.8,1.8,0,0,1,0,2.541l-2.775,2.775H160a.515.515,0,0,1,.513.569l-1.781,17.02h16.3a16.939,16.939,0,0,0,3.115-9.962A16.7,16.7,0,0,0,174.864,168.493Z" transform="translate(-124.99 -148.115)" fill="#fff3de"/>
      <path id="Trazado_875711_-_Contorno" data-name="Trazado 875711 - Contorno" d="M158.23,159.289h16.853v2.5a8.517,8.517,0,0,0,1.761,5.177,19.957,19.957,0,0,1,.2,23.16l-.749,1.015H155.959l1.84-17.589h-6.522l6.518-6.518-.719-.648.6-1.6a8.477,8.477,0,0,0,.552-3Zm12.089,5h-7.324q-.1.509-.233,1.012a4.31,4.31,0,0,1-.5,4.272,3.02,3.02,0,0,1,.737,2.309l-1.492,14.26h12.183a14.92,14.92,0,0,0,1.956-7.462,14.193,14.193,0,0,0-2.764-8.659A13.527,13.527,0,0,1,170.319,164.289Z" transform="translate(-124.99 -148.115)" fill="#fff"/>
      <g id="Grupo_1100289" data-name="Grupo 1100289" transform="translate(32.323 13.674)">
        <path id="Trazado_875712" data-name="Trazado 875712" d="M174.132,423.127h3.023a15.818,15.818,0,0,1-2.478-5.2Z" transform="translate(-172.71 -396.275)" fill="#ffe5c2"/>
        <path id="Trazado_875712_-_Contorno" data-name="Trazado 875712 - Contorno" d="M182.107,425.627h-10.75l.833-7.965,4.9-.4a13.4,13.4,0,0,0,2.079,4.381Z" transform="translate(-172.71 -396.275)" fill="#fff"/>
        <path id="Trazado_875713" data-name="Trazado 875713" d="M160.73,161.79a11.021,11.021,0,0,1-.712,3.883c.024.021.048.041.071.064a1.8,1.8,0,0,1,0,2.541l-2.775,2.775H160a.512.512,0,0,1,.3.1,14.826,14.826,0,0,1,1.626-2.654,11.029,11.029,0,0,0,2.282-6.7Z" transform="translate(-157.313 -161.79)" fill="#ffe5c2"/>
        <path id="Trazado_875713_-_Contorno" data-name="Trazado 875713 - Contorno" d="M158.23,159.29h8.479v2.5a13.542,13.542,0,0,1-2.8,8.231,12.352,12.352,0,0,0-1.351,2.207l-1.283,2.677-1.9-1.353h-8.092l6.517-6.517-.719-.648.6-1.6a8.477,8.477,0,0,0,.552-3Z" transform="translate(-157.313 -161.79)" fill="#fff"/>
      </g>
      <path id="Trazado_875714" data-name="Trazado 875714" d="M39.041,208.106h8.293l2.775-2.775a1.8,1.8,0,1,0-2.541-2.541l-2.64,2.64a2.462,2.462,0,0,1-3.482,0l-1.2-1.2a1.8,1.8,0,0,0-2.541,2.541Z" transform="translate(-15.011 -185.168)" fill="#fff3de"/>
      <path id="Trazado_875714_-_Contorno" data-name="Trazado 875714 - Contorno" d="M48.369,210.606H38.006l-2.067-2.067a4.3,4.3,0,1,1,6.076-6.076l1.172,1.172,2.614-2.614a4.3,4.3,0,1,1,6.076,6.076Z" transform="translate(-15.011 -185.168)" fill="#fff"/>
      <path id="Trazado_875715" data-name="Trazado 875715" d="M39.041,223.715h2.673l-1.334-1.334a1.8,1.8,0,0,1-.063-2.471l-.069-.069a1.8,1.8,0,0,0-2.541,2.541Z" transform="translate(-15.011 -200.778)" fill="#ffe5c2"/>
      <path id="Trazado_875715_-_Contorno" data-name="Trazado 875715 - Contorno" d="M47.749,226.215H38.005l-2.067-2.067a4.3,4.3,0,0,1,6.076-6.076l1.748,1.748-1.142,1.266Z" transform="translate(-15.011 -200.778)" fill="#fff"/>
      <g id="Grupo_1100290" data-name="Grupo 1100290" transform="translate(21.417 22.937)">
        <path id="Trazado_875716" data-name="Trazado 875716" d="M40.389,291.091H30.752a.515.515,0,0,1-.513-.462l-1.954-18.671a.515.515,0,0,1,.513-.569h13.08a.515.515,0,0,1,.513.569Z" transform="translate(-28.283 -271.389)" fill="#c8effe"/>
        <path id="Trazado_875716_-_Contorno" data-name="Trazado 875716 - Contorno" d="M42.641,293.591H30.752a3.009,3.009,0,0,1-3-2.7L25.8,272.218a3.015,3.015,0,0,1,3-3.329h13.08a3.015,3.015,0,0,1,3,3.329Zm-10.1-5h5.6l1.538-14.7H31Z" transform="translate(-28.283 -271.389)" fill="#fff"/>
      </g>
      <path id="Trazado_875717" data-name="Trazado 875717" d="M33.769,290.628l-.173-1.651H32.191L30.571,273.5h1.405l-.162-1.544a.515.515,0,0,1,.513-.569H28.8a.515.515,0,0,0-.513.569l1.954,18.671a.515.515,0,0,0,.513.462h3.53A.515.515,0,0,1,33.769,290.628Z" transform="translate(-6.865 -248.451)" fill="#99e6fc"/>
      <path id="Trazado_875717_-_Contorno" data-name="Trazado 875717 - Contorno" d="M34.281,293.59h-3.53a3.009,3.009,0,0,1-3-2.7L25.8,272.217a3.015,3.015,0,0,1,3-3.329h3.53v4.429l.73-.076.051.487A1.984,1.984,0,0,0,34.3,271.7l.45,4.3H33.346l1.1,10.476h1.405l.407,3.891a1.98,1.98,0,0,0-1.587-1.741l.009.09-.4.041v4.832Z" transform="translate(-6.865 -248.451)" fill="#fff"/>
      <g id="Grupo_1100291" data-name="Grupo 1100291" transform="translate(23.706 25.05)">
        <path id="Trazado_875718" data-name="Trazado 875718" d="M56.983,311.864l-1.619-15.476H64.9l-1.619,15.476Z" transform="translate(-55.364 -296.388)" fill="#fff3de"/>
        <path id="Trazado_875718_-_Contorno" data-name="Trazado 875718 - Contorno" d="M65.53,314.364h-10.8l-2.143-20.476H67.672Zm-6.294-5h1.79l1.1-10.476H58.139Z" transform="translate(-55.364 -296.388)" fill="#fff"/>
      </g>
      <g id="Grupo_1100292" data-name="Grupo 1100292" transform="translate(23.706 25.05)">
        <path id="Trazado_875719" data-name="Trazado 875719" d="M55.364,296.388l1.619,15.476h2.674l-1.619-15.476Z" transform="translate(-55.364 -296.388)" fill="#ffe5c2"/>
        <path id="Trazado_875719_-_Contorno" data-name="Trazado 875719 - Contorno" d="M52.589,293.888h7.7l2.142,20.476h-7.7Z" transform="translate(-55.364 -296.388)" fill="#fff"/>
      </g>
      <g id="Grupo_1100293" data-name="Grupo 1100293" transform="translate(26.803 14.976)">
        <circle id="Elipse_11528" data-name="Elipse 11528" cx="1.598" cy="1.598" r="1.598" transform="translate(0)" fill="#fff3de"/>
        <path id="Elipse_11528_-_Contorno" data-name="Elipse 11528 - Contorno" d="M1.6-2.5A4.1,4.1,0,1,1-2.5,1.6,4.1,4.1,0,0,1,1.6-2.5Z" transform="translate(0)" fill="#fff"/>
      </g>
      <g id="Grupo_1100294" data-name="Grupo 1100294" transform="translate(26.803 14.976)">
        <path id="Trazado_875720" data-name="Trazado 875720" d="M93.452,178.792a1.6,1.6,0,0,1,.871-1.422,1.6,1.6,0,1,0,0,2.843A1.6,1.6,0,0,1,93.452,178.792Z" transform="translate(-91.999 -177.194)" fill="#ffe5c2"/>
        <path id="Trazado_875720_-_Contorno" data-name="Trazado 875720 - Contorno" d="M93.6,174.694a4.113,4.113,0,0,1,1.866.451l4.344,2.225-2.775,1.421,2.774,1.421-4.342,2.226a4.1,4.1,0,1,1-1.867-7.744Z" transform="translate(-91.999 -177.194)" fill="#fff"/>
      </g>
      <g id="Grupo_1100295" data-name="Grupo 1100295" transform="translate(22.577 13.439)">
        <circle id="Elipse_11529" data-name="Elipse 11529" cx="1.056" cy="1.056" r="1.056" transform="translate(0)" fill="#fff3de"/>
        <path id="Elipse_11529_-_Contorno" data-name="Elipse 11529 - Contorno" d="M1.056-2.5A3.556,3.556,0,1,1-2.5,1.056,3.561,3.561,0,0,1,1.056-2.5Z" transform="translate(0)" fill="#fff"/>
      </g>
      <g id="Grupo_1100296" data-name="Grupo 1100296" transform="translate(22.577 13.439)">
        <path id="Trazado_875721" data-name="Trazado 875721" d="M42.929,160.056a1.056,1.056,0,0,1,.592-.948,1.056,1.056,0,1,0,0,1.9A1.055,1.055,0,0,1,42.929,160.056Z" transform="translate(-41.999 -159)" fill="#ffe5c2"/>
        <path id="Trazado_875721_-_Contorno" data-name="Trazado 875721 - Contorno" d="M43.055,156.5a3.573,3.573,0,0,1,1.568.365l4.563,2.244-1.927.947,1.926.947-4.562,2.244a3.556,3.556,0,1,1-1.568-6.747Z" transform="translate(-41.999 -159)" fill="#fff"/>
      </g>
      <g id="Grupo_1100297" data-name="Grupo 1100297" transform="translate(20.784 0)">
        <path id="Trazado_875722" data-name="Trazado 875722" d="M54.767,9.729H50.339V6.581L51.393,4.23a1.057,1.057,0,0,0-.818-1.479l-4.5-.63A.634.634,0,1,0,45.9,3.377l4.219.591-.827,1.844H33.889L31.065,2.988V1.3L42.957,2.965a.634.634,0,1,0,.176-1.256L31,.011a1.057,1.057,0,0,0-1.2,1.047V3.075a1.05,1.05,0,0,0,.31.747l2.886,2.886v6.966a8.279,8.279,0,0,1-.71,3.342c-.06.049-.118.1-.174.157l-2.64,2.64a1.828,1.828,0,0,1-2.586,0l-1.2-1.2a2.43,2.43,0,1,0-3.437,3.437l.252.252h-.567a1.149,1.149,0,0,0-1.143,1.269l1.954,18.671a1.147,1.147,0,0,0,1.143,1.03H51.063a.634.634,0,0,0,.482-.223,18.951,18.951,0,0,0,4.329-11.344,5.784,5.784,0,0,0,4.669-5.667V15.505a5.783,5.783,0,0,0-5.777-5.777ZM23.144,19.511a1.163,1.163,0,0,1,1.644,0l1.2,1.2a3.1,3.1,0,0,0,4.379,0l2.64-2.64a1.163,1.163,0,1,1,1.644,1.644L32.06,22.3H24.292l-1.149-1.149a1.164,1.164,0,0,1,0-1.644Zm12.609-2.1a11.663,11.663,0,0,0,.6-3.1H46.976a11.669,11.669,0,0,0,2.4,6.457h0a16.063,16.063,0,0,1,3.152,9.8,16.286,16.286,0,0,1-2.805,9.328H34.448l1.708-16.32A1.149,1.149,0,0,0,35.012,22.3h-1.16l1.693-1.693a2.433,2.433,0,0,0,.207-3.2Zm-11.76,24.6L22.064,23.571H34.881L32.952,42.006Zm26.774,0H34.227l.088-.845H50.044a.634.634,0,0,0,.51-.257,17.475,17.475,0,0,0,3.238-10.338,17.335,17.335,0,0,0-3.417-10.574h0a10.392,10.392,0,0,1-2.149-6.317.634.634,0,0,0-.634-.634H35.739a.634.634,0,0,0-.634.634,10.342,10.342,0,0,1-.431,2.94,2.439,2.439,0,0,0-.835-.152,9.52,9.52,0,0,0,.42-2.788V7.08H49.072v6.595a9.542,9.542,0,0,0,1.973,5.8,18.184,18.184,0,0,1,3.593,11.09A17.977,17.977,0,0,1,50.767,42.006ZM59.276,26.04A4.516,4.516,0,0,1,55.9,30.4q-.007-.952-.1-1.888a2.688,2.688,0,0,0,1.645-2.474V22.059a.634.634,0,0,0-1.268,0V26.04a1.412,1.412,0,0,1-.554,1.12,18.806,18.806,0,0,0-3.581-8.46,8.267,8.267,0,0,1-1.7-4.612h4.416a1.418,1.418,0,0,1,1.417,1.417v3.6a.634.634,0,1,0,1.268,0v-3.6a2.688,2.688,0,0,0-2.685-2.684H50.34V11h4.428a4.514,4.514,0,0,1,4.509,4.509V26.04Z" transform="translate(-20.784 0)"/>
        <path id="Trazado_875722_-_Contorno" data-name="Trazado 875722 - Contorno" d="M30.853-2.5a3.566,3.566,0,0,1,.5.035l12.129,1.7A3.115,3.115,0,0,1,44.9-.187a3.1,3.1,0,0,1,1.089-.2,3.149,3.149,0,0,1,.434.03l4.5.63a3.524,3.524,0,0,1,2.521,1.633l.322.045-.133.3a3.524,3.524,0,0,1,.043,3l-.835,1.862v.113h1.928a8.286,8.286,0,0,1,8.277,8.277V26.041a8.294,8.294,0,0,1-4.826,7.52,22.434,22.434,0,0,1-1.288,5.192,20.133,20.133,0,0,1-3.482,5.921,3.129,3.129,0,0,1-2.384,1.1H23.886A3.641,3.641,0,0,1,20.257,42.5L18.3,23.832a3.656,3.656,0,0,1,.8-2.686,4.929,4.929,0,0,1,8.347-4.3l.724.724,1.987-1.987a5.79,5.79,0,0,0,.329-1.909V7.744L28.339,5.591A3.534,3.534,0,0,1,27.3,3.075V1.058A3.557,3.557,0,0,1,30.853-2.5ZM46.572,9.58H36.76v.961h9.811Zm-1.756,7.228h-6.3q-.039.168-.081.336a4.958,4.958,0,0,1-.385,4.289,3.656,3.656,0,0,1,.59,2.4l-1.419,13.56H48.337a14.185,14.185,0,0,0,1.687-6.828,13.557,13.557,0,0,0-2.632-8.272A14.225,14.225,0,0,1,44.815,16.808Zm-12.71,9.263H24.84l1.406,13.434H30.7Z" transform="translate(-20.784 0)" fill="#fff"/>
        <path id="Trazado_875723" data-name="Trazado 875723" d="M57.136,298.079a.634.634,0,0,0,.7-.564l.829-7.926a.634.634,0,0,0-.63-.7H48.5a.634.634,0,0,0-.63.7l1.619,15.476a.634.634,0,0,0,.63.568h6.294a.634.634,0,0,0,.63-.568l.482-4.608a.634.634,0,1,0-1.261-.132l-.423,4.04H50.688L49.2,290.156h8.126l-.756,7.226A.634.634,0,0,0,57.136,298.079Z" transform="translate(-45.575 -264.472)"/>
        <path id="Trazado_875723_-_Contorno" data-name="Trazado 875723 - Contorno" d="M56.412,308.132H50.117A3.127,3.127,0,0,1,47,305.324l-1.619-15.476a3.134,3.134,0,0,1,3.117-3.46h9.533a3.134,3.134,0,0,1,3.117,3.461l-.829,7.925a3.152,3.152,0,0,0-.308,2.943l-.482,4.607A3.127,3.127,0,0,1,56.412,308.132Zm-3.471-6.268h.648l.188-1.8a3.152,3.152,0,0,0,.308-2.943l.467-4.465H51.977Z" transform="translate(-45.575 -264.472)" fill="#fff"/>
        <path id="Trazado_875724" data-name="Trazado 875724" d="M86.731,174.158a2.231,2.231,0,1,0-2.231-2.232A2.234,2.234,0,0,0,86.731,174.158Zm0-3.2a.964.964,0,1,1-.964.964A.965.965,0,0,1,86.731,170.963Z" transform="translate(-79.115 -155.353)"/>
        <path id="Trazado_875724_-_Contorno" data-name="Trazado 875724 - Contorno" d="M86.731,176.658a4.731,4.731,0,1,1,4.732-4.732A4.7,4.7,0,0,1,86.731,176.658Z" transform="translate(-79.115 -155.353)" fill="#fff"/>
        <path id="Trazado_875725" data-name="Trazado 875725" d="M36.189,154.881a1.69,1.69,0,1,0-1.69-1.69A1.692,1.692,0,0,0,36.189,154.881Zm0-2.113a.423.423,0,1,1-.423.423A.423.423,0,0,1,36.189,152.768Z" transform="translate(-33.34 -138.696)"/>
        <path id="Trazado_875725_-_Contorno" data-name="Trazado 875725 - Contorno" d="M36.189,157.381a4.19,4.19,0,1,1,4.19-4.19A4.2,4.2,0,0,1,36.189,157.381Z" transform="translate(-33.34 -138.696)" fill="#fff"/>
      </g>
    </g>
    <g id="tarro-de-leche-2" data-name="tarro-de-leche" transform="translate(1011.267 6457)">
      <g id="Grupo_1100287-2" data-name="Grupo 1100287" transform="translate(30.431 0.634)">
        <path id="Trazado_875706-2" data-name="Trazado 875706" d="M138.126,13.312l.2.085h15.64l.237-.085,1.109-2.475a.423.423,0,0,0-.328-.592L135.413,7.5a.423.423,0,0,0-.482.419V9.942a.423.423,0,0,0,.124.3Z" transform="translate(-134.931 -7.501)" fill="#99e6fc"/>
        <path id="Trazado_875707-2" data-name="Trazado 875707" d="M138.126,13.312h3.5l-3.071-3.071a.423.423,0,0,1-.124-.3V7.928L135.413,7.5a.423.423,0,0,0-.482.419V9.942a.423.423,0,0,0,.124.3Z" transform="translate(-134.931 -7.501)" fill="#62dbfb"/>
      </g>
      <path id="Trazado_875708-2" data-name="Trazado 875708" d="M368.044,122.606h-5.061V125.7h5.061a2.053,2.053,0,0,1,2.051,2.051v10.535a2.054,2.054,0,0,1-1.7,2.02,20.582,20.582,0,0,1,.153,2.5c0,.2,0,.4-.01.594a5.143,5.143,0,0,0,4.648-5.118V127.749A5.143,5.143,0,0,0,368.044,122.606Z" transform="translate(-313.277 -112.243)" fill="#99e6fc"/>
      <path id="Trazado_875709-2" data-name="Trazado 875709" d="M176.536,88.906a8.86,8.86,0,0,1-1.841-5.413V76.264H158.616v7.228a8.878,8.878,0,0,1-.831,3.749,1.8,1.8,0,0,1,2.3,2.738l-2.775,2.775H160a.515.515,0,0,1,.513.569l-2,19.133h17.54a19.484,19.484,0,0,0,.484-23.552Z" transform="translate(-124.989 -69.818)" fill="#c8effe"/>
      <g id="Grupo_1100288-2" data-name="Grupo 1100288" transform="translate(32.795 6.446)">
        <path id="Trazado_875710-2" data-name="Trazado 875710" d="M165.133,87.375a11.022,11.022,0,0,0,.712-3.883h1.366V76.264h-3.479v7.228a8.878,8.878,0,0,1-.831,3.749A1.794,1.794,0,0,1,165.133,87.375Z" transform="translate(-162.901 -76.264)" fill="#99e6fc"/>
      </g>
      <path id="Trazado_875711-2" data-name="Trazado 875711" d="M174.864,168.493a11.03,11.03,0,0,1-2.281-6.7H160.73a11.021,11.021,0,0,1-.712,3.883c.024.021.048.042.071.064a1.8,1.8,0,0,1,0,2.541l-2.775,2.775H160a.515.515,0,0,1,.513.569l-1.781,17.02h16.3a16.939,16.939,0,0,0,3.115-9.962A16.7,16.7,0,0,0,174.864,168.493Z" transform="translate(-124.99 -148.115)" fill="#fff3de"/>
      <g id="Grupo_1100289-2" data-name="Grupo 1100289" transform="translate(32.323 13.674)">
        <path id="Trazado_875712-2" data-name="Trazado 875712" d="M174.132,423.127h3.023a15.818,15.818,0,0,1-2.478-5.2Z" transform="translate(-172.71 -396.275)" fill="#ffe5c2"/>
        <path id="Trazado_875713-2" data-name="Trazado 875713" d="M160.73,161.79a11.021,11.021,0,0,1-.712,3.883c.024.021.048.041.071.064a1.8,1.8,0,0,1,0,2.541l-2.775,2.775H160a.512.512,0,0,1,.3.1,14.826,14.826,0,0,1,1.626-2.654,11.029,11.029,0,0,0,2.282-6.7Z" transform="translate(-157.313 -161.79)" fill="#ffe5c2"/>
      </g>
      <path id="Trazado_875714-2" data-name="Trazado 875714" d="M39.041,208.106h8.293l2.775-2.775a1.8,1.8,0,1,0-2.541-2.541l-2.64,2.64a2.462,2.462,0,0,1-3.482,0l-1.2-1.2a1.8,1.8,0,0,0-2.541,2.541Z" transform="translate(-15.011 -185.168)" fill="#fff3de"/>
      <path id="Trazado_875715-2" data-name="Trazado 875715" d="M39.041,223.715h2.673l-1.334-1.334a1.8,1.8,0,0,1-.063-2.471l-.069-.069a1.8,1.8,0,0,0-2.541,2.541Z" transform="translate(-15.011 -200.778)" fill="#ffe5c2"/>
      <g id="Grupo_1100290-2" data-name="Grupo 1100290" transform="translate(21.417 22.937)">
        <path id="Trazado_875716-2" data-name="Trazado 875716" d="M40.389,291.091H30.752a.515.515,0,0,1-.513-.462l-1.954-18.671a.515.515,0,0,1,.513-.569h13.08a.515.515,0,0,1,.513.569Z" transform="translate(-28.283 -271.389)" fill="#c8effe"/>
      </g>
      <path id="Trazado_875717-2" data-name="Trazado 875717" d="M33.769,290.628l-.173-1.651H32.191L30.571,273.5h1.405l-.162-1.544a.515.515,0,0,1,.513-.569H28.8a.515.515,0,0,0-.513.569l1.954,18.671a.515.515,0,0,0,.513.462h3.53A.515.515,0,0,1,33.769,290.628Z" transform="translate(-6.865 -248.451)" fill="#99e6fc"/>
      <g id="Grupo_1100291-2" data-name="Grupo 1100291" transform="translate(23.706 25.05)">
        <path id="Trazado_875718-2" data-name="Trazado 875718" d="M56.983,311.864l-1.619-15.476H64.9l-1.619,15.476Z" transform="translate(-55.364 -296.388)" fill="#fff3de"/>
      </g>
      <g id="Grupo_1100292-2" data-name="Grupo 1100292" transform="translate(23.706 25.05)">
        <path id="Trazado_875719-2" data-name="Trazado 875719" d="M55.364,296.388l1.619,15.476h2.674l-1.619-15.476Z" transform="translate(-55.364 -296.388)" fill="#ffe5c2"/>
      </g>
      <g id="Grupo_1100293-2" data-name="Grupo 1100293" transform="translate(26.803 14.976)">
        <circle id="Elipse_11528-2" data-name="Elipse 11528" cx="1.598" cy="1.598" r="1.598" transform="translate(0)" fill="#fff3de"/>
      </g>
      <g id="Grupo_1100294-2" data-name="Grupo 1100294" transform="translate(26.803 14.976)">
        <path id="Trazado_875720-2" data-name="Trazado 875720" d="M93.452,178.792a1.6,1.6,0,0,1,.871-1.422,1.6,1.6,0,1,0,0,2.843A1.6,1.6,0,0,1,93.452,178.792Z" transform="translate(-91.999 -177.194)" fill="#ffe5c2"/>
      </g>
      <g id="Grupo_1100295-2" data-name="Grupo 1100295" transform="translate(22.577 13.439)">
        <circle id="Elipse_11529-2" data-name="Elipse 11529" cx="1.056" cy="1.056" r="1.056" transform="translate(0)" fill="#fff3de"/>
      </g>
      <g id="Grupo_1100296-2" data-name="Grupo 1100296" transform="translate(22.577 13.439)">
        <path id="Trazado_875721-2" data-name="Trazado 875721" d="M42.929,160.056a1.056,1.056,0,0,1,.592-.948,1.056,1.056,0,1,0,0,1.9A1.055,1.055,0,0,1,42.929,160.056Z" transform="translate(-41.999 -159)" fill="#ffe5c2"/>
      </g>
      <g id="Grupo_1100297-2" data-name="Grupo 1100297" transform="translate(20.784 0)">
        <path id="Trazado_875722-2" data-name="Trazado 875722" d="M54.767,9.729H50.339V6.581L51.393,4.23a1.057,1.057,0,0,0-.818-1.479l-4.5-.63A.634.634,0,1,0,45.9,3.377l4.219.591-.827,1.844H33.889L31.065,2.988V1.3L42.957,2.965a.634.634,0,1,0,.176-1.256L31,.011a1.057,1.057,0,0,0-1.2,1.047V3.075a1.05,1.05,0,0,0,.31.747l2.886,2.886v6.966a8.279,8.279,0,0,1-.71,3.342c-.06.049-.118.1-.174.157l-2.64,2.64a1.828,1.828,0,0,1-2.586,0l-1.2-1.2a2.43,2.43,0,1,0-3.437,3.437l.252.252h-.567a1.149,1.149,0,0,0-1.143,1.269l1.954,18.671a1.147,1.147,0,0,0,1.143,1.03H51.063a.634.634,0,0,0,.482-.223,18.951,18.951,0,0,0,4.329-11.344,5.784,5.784,0,0,0,4.669-5.667V15.505a5.783,5.783,0,0,0-5.777-5.777ZM23.144,19.511a1.163,1.163,0,0,1,1.644,0l1.2,1.2a3.1,3.1,0,0,0,4.379,0l2.64-2.64a1.163,1.163,0,1,1,1.644,1.644L32.06,22.3H24.292l-1.149-1.149a1.164,1.164,0,0,1,0-1.644Zm12.609-2.1a11.663,11.663,0,0,0,.6-3.1H46.976a11.669,11.669,0,0,0,2.4,6.457h0a16.063,16.063,0,0,1,3.152,9.8,16.286,16.286,0,0,1-2.805,9.328H34.448l1.708-16.32A1.149,1.149,0,0,0,35.012,22.3h-1.16l1.693-1.693a2.433,2.433,0,0,0,.207-3.2Zm-11.76,24.6L22.064,23.571H34.881L32.952,42.006Zm26.774,0H34.227l.088-.845H50.044a.634.634,0,0,0,.51-.257,17.475,17.475,0,0,0,3.238-10.338,17.335,17.335,0,0,0-3.417-10.574h0a10.392,10.392,0,0,1-2.149-6.317.634.634,0,0,0-.634-.634H35.739a.634.634,0,0,0-.634.634,10.342,10.342,0,0,1-.431,2.94,2.439,2.439,0,0,0-.835-.152,9.52,9.52,0,0,0,.42-2.788V7.08H49.072v6.595a9.542,9.542,0,0,0,1.973,5.8,18.184,18.184,0,0,1,3.593,11.09A17.977,17.977,0,0,1,50.767,42.006ZM59.276,26.04A4.516,4.516,0,0,1,55.9,30.4q-.007-.952-.1-1.888a2.688,2.688,0,0,0,1.645-2.474V22.059a.634.634,0,0,0-1.268,0V26.04a1.412,1.412,0,0,1-.554,1.12,18.806,18.806,0,0,0-3.581-8.46,8.267,8.267,0,0,1-1.7-4.612h4.416a1.418,1.418,0,0,1,1.417,1.417v3.6a.634.634,0,1,0,1.268,0v-3.6a2.688,2.688,0,0,0-2.685-2.684H50.34V11h4.428a4.514,4.514,0,0,1,4.509,4.509V26.04Z" transform="translate(-20.784 0)"/>
        <path id="Trazado_875723-2" data-name="Trazado 875723" d="M57.136,298.079a.634.634,0,0,0,.7-.564l.829-7.926a.634.634,0,0,0-.63-.7H48.5a.634.634,0,0,0-.63.7l1.619,15.476a.634.634,0,0,0,.63.568h6.294a.634.634,0,0,0,.63-.568l.482-4.608a.634.634,0,1,0-1.261-.132l-.423,4.04H50.688L49.2,290.156h8.126l-.756,7.226A.634.634,0,0,0,57.136,298.079Z" transform="translate(-45.575 -264.472)"/>
        <path id="Trazado_875724-2" data-name="Trazado 875724" d="M86.731,174.158a2.231,2.231,0,1,0-2.231-2.232A2.234,2.234,0,0,0,86.731,174.158Zm0-3.2a.964.964,0,1,1-.964.964A.965.965,0,0,1,86.731,170.963Z" transform="translate(-79.115 -155.353)"/>
        <path id="Trazado_875725-2" data-name="Trazado 875725" d="M36.189,154.881a1.69,1.69,0,1,0-1.69-1.69A1.692,1.692,0,0,0,36.189,154.881Zm0-2.113a.423.423,0,1,1-.423.423A.423.423,0,0,1,36.189,152.768Z" transform="translate(-33.34 -138.696)"/>
      </g>
    </g>
  </g>
</svg>
