<svg xmlns="http://www.w3.org/2000/svg" xmlns:xlink="http://www.w3.org/1999/xlink" width="132" height="132" viewBox="0 0 132 132">
  <defs>
    <clipPath id="clip-path">
      <rect id="Rect치ngulo_401419" data-name="Rect치ngulo 401419" width="104" height="104" fill="none"/>
    </clipPath>
  </defs>
  <g id="Grupo_1099810" data-name="Grupo 1099810" transform="translate(-632.051 -789)">
    <rect id="Rect치ngulo_401228" data-name="Rect치ngulo 401228" width="132" height="132" rx="14" transform="translate(632.051 789)" fill="#d59cff"/>
    <g id="Grupo_1099809" data-name="Grupo 1099809" transform="translate(646.051 803)">
      <g id="Grupo_1099808" data-name="Grupo 1099808" clip-path="url(#clip-path)">
        <path id="Trazado_873733" data-name="Trazado 873733" d="M62.99,122.006a1.166,1.166,0,0,1-1-1.77l7.491-12.354H67.713a1.165,1.165,0,0,1-1-1.77L73.59,94.776H71.226a1.165,1.165,0,0,1-1-1.77L71.9,90.256l-6.454-9.433a4.769,4.769,0,0,0-8.02.232L45.979,100.046a5.306,5.306,0,0,1,3.4,2.4,1.024,1.024,0,0,0,.78.477,3.816,3.816,0,0,1,3.446,3.867,3.872,3.872,0,0,1-3.9,3.749H28.951a9.831,9.831,0,0,0-3.9,2.472l-6.671,6.909A5.88,5.88,0,0,0,16.735,124v9.43h11v-4.607a7.082,7.082,0,0,1,6.047-6.983h0a7.3,7.3,0,0,1,1.018-.082H53.068a7.348,7.348,0,0,1,1.018.082h0a6.658,6.658,0,0,1,2.342.773,7.084,7.084,0,0,1,3.7,6.209v1.621h0v2.986H74.91V122.005H62.99Z" transform="translate(-13.488 -63.468)" fill="#818182"/>
        <path id="Trazado_873734" data-name="Trazado 873734" d="M427.824,154.75l-5.093,8.4a.934.934,0,0,0,.8,1.418h10.187a.934.934,0,0,0,.8-1.418l-5.093-8.4a.934.934,0,0,0-1.6,0" transform="translate(-340.598 -124.362)" fill="#b2e26d"/>
        <path id="Trazado_873735" data-name="Trazado 873735" d="M413.709,271.218l-6-9.9H394.732l-6,9.9a.934.934,0,0,0,.8,1.418h23.381a.934.934,0,0,0,.8-1.418" transform="translate(-313.195 -210.617)" fill="#57af12"/>
        <path id="Trazado_873736" data-name="Trazado 873736" d="M425.64,216.3l-5.506-9.081h-6.4l-5.506,9.081a.934.934,0,0,0,.8,1.418h15.815A.934.934,0,0,0,425.64,216.3Z" transform="translate(-328.91 -167.009)" fill="#87d147"/>
        <path id="Trazado_873737" data-name="Trazado 873737" d="M298.084,95.866l-6.358,10.486a1.165,1.165,0,0,0,1,1.77h12.717a1.165,1.165,0,0,0,1-1.77l-6.358-10.486a1.165,1.165,0,0,0-1.993,0" transform="translate(-234.984 -76.813)" fill="#b2e26d"/>
        <path id="Trazado_873738" data-name="Trazado 873738" d="M295.359,172.7l-6.874-11.336H280.5L273.624,172.7a1.165,1.165,0,0,0,1,1.77h19.742A1.166,1.166,0,0,0,295.359,172.7Z" transform="translate(-220.395 -130.052)" fill="#87d147"/>
        <path id="Trazado_873739" data-name="Trazado 873739" d="M279.549,239.75,272.971,228.9h-16.2l-7.491,12.354a1.166,1.166,0,0,0,1,1.77h27.284Z" transform="translate(-200.776 -184.489)" fill="#57af12"/>
        <path id="Trazado_873740" data-name="Trazado 873740" d="M294.457,390.585a8.169,8.169,0,0,0-6.448,3.154l-.527.678a8.169,8.169,0,0,1-6.448,3.154H270.1a8.169,8.169,0,0,0-6.535,3.268l-.919,1.226a8.167,8.167,0,0,1-6.257,3.26v7.514a2.591,2.591,0,0,1-2.584,2.584h49.858a1.546,1.546,0,0,0,1.546-1.546v-23.29Z" transform="translate(-204.558 -314.8)" fill="#c18e6b"/>
        <path id="Trazado_873741" data-name="Trazado 873741" d="M446.642,333.4h.267V319.633h-4.284v14.823a8.168,8.168,0,0,1,4.017-1.056" transform="translate(-356.743 -257.615)" fill="#a57453"/>
        <path id="Trazado_873742" data-name="Trazado 873742" d="M320.679,325.927h1.229V301.7h-5.347v25.348A8.164,8.164,0,0,1,320.679,325.927Z" transform="translate(-255.139 -243.157)" fill="#a57453"/>
        <path id="Trazado_873743" data-name="Trazado 873743" d="M344.121,360.585v12.806h9.706a8.169,8.169,0,0,0,6.448-3.154l.527-.678a8.16,8.16,0,0,1,2.432-2.1v-6.877Z" transform="translate(-277.351 -290.621)" fill="#87d147"/>
        <path id="Trazado_873744" data-name="Trazado 873744" d="M240.4,360.585v17.267H243a2.591,2.591,0,0,1,2.584,2.584v.7a8.3,8.3,0,0,0,6.257-3.254l.919-1.226a8.154,8.154,0,0,1,2.417-2.152V360.585Z" transform="translate(-193.759 -290.621)" fill="#87d147"/>
        <path id="Trazado_873745" data-name="Trazado 873745" d="M252.578,357.525H238.705a.97.97,0,1,1,0-1.94h13.873a.97.97,0,1,1,0,1.94" transform="translate(-191.607 -286.591)"/>
        <path id="Trazado_873746" data-name="Trazado 873746" d="M16.735,360.585V389.7a1.546,1.546,0,0,0,1.546,1.546H25.14a2.591,2.591,0,0,1-2.584-2.584v-8.223a2.591,2.591,0,0,1,2.584-2.584h2.6V360.585Z" transform="translate(-13.488 -290.621)" fill="#87d147"/>
        <path id="Trazado_873747" data-name="Trazado 873747" d="M464.7,360.585v5.821h10.484v-4.274a1.546,1.546,0,0,0-1.546-1.546Z" transform="translate(-374.537 -290.621)" fill="#87d147"/>
        <path id="Trazado_873748" data-name="Trazado 873748" d="M100.276,342.758H79.016a5.584,5.584,0,0,1-5.567-5.568v-29.7a7.086,7.086,0,0,1,7.065-7.065H98.778a7.086,7.086,0,0,1,7.065,7.065v29.7a5.584,5.584,0,0,1-5.568,5.568" transform="translate(-59.198 -242.137)" fill="#f5c84c"/>
        <path id="Trazado_873749" data-name="Trazado 873749" d="M51.918,457.4v-7.822h-2.6a2.591,2.591,0,0,0-2.584,2.584v8.223a2.591,2.591,0,0,0,2.584,2.584h8.167A5.584,5.584,0,0,1,51.918,457.4Z" transform="translate(-37.667 -362.346)" fill="#fc657e"/>
        <path id="Trazado_873750" data-name="Trazado 873750" d="M219.878,449.577h-2.6V457.4a5.584,5.584,0,0,1-5.567,5.568h8.167a2.591,2.591,0,0,0,2.584-2.584V452.16a2.592,2.592,0,0,0-2.584-2.583" transform="translate(-170.633 -362.346)" fill="#fc657e"/>
        <path id="Trazado_873751" data-name="Trazado 873751" d="M363.232,305.176h-9.549a.934.934,0,0,1-.8-1.418l1.251-2.063H344.119v11.426h19.113v-7.946Z" transform="translate(-277.35 -243.157)" fill="#818182"/>
        <path id="Trazado_873752" data-name="Trazado 873752" d="M76.925,171.7a5.308,5.308,0,0,0-5.124-2.484,1.013,1.013,0,0,1-1.007-.539,7.559,7.559,0,0,0-13.834,1.153,1,1,0,0,1-1.034.661,4.663,4.663,0,0,0-5.009,4.587,4.742,4.742,0,0,0,4.754,4.716H77.25a3.872,3.872,0,0,0,3.9-3.749,3.816,3.816,0,0,0-3.446-3.867,1.025,1.025,0,0,1-.78-.477" transform="translate(-41.038 -132.725)" fill="#9be5f9"/>
        <path id="Trazado_873753" data-name="Trazado 873753" d="M98.778,300.429H80.514a7.086,7.086,0,0,0-7.065,7.065v1.621a5.584,5.584,0,0,0,5.567,5.567h21.259a5.584,5.584,0,0,0,5.567-5.567v-1.621a7.086,7.086,0,0,0-7.066-7.065" transform="translate(-59.198 -242.137)" fill="#fcdd86"/>
        <path id="Trazado_873754" data-name="Trazado 873754" d="M124.826,438.481H110.761a2.4,2.4,0,0,1-2.388-2.388v-8.613a2.4,2.4,0,0,1,2.388-2.388h14.066a2.4,2.4,0,0,1,2.388,2.388v8.613a2.4,2.4,0,0,1-2.388,2.388" transform="translate(-87.345 -342.611)" fill="#fc657e"/>
        <path id="Trazado_873755" data-name="Trazado 873755" d="M189.5,300.512a7.009,7.009,0,0,0-1.019-.083h-3.733v14.253H189.5V300.512Z" transform="translate(-148.904 -242.137)" fill="#fc657e"/>
        <path id="Trazado_873756" data-name="Trazado 873756" d="M104.613,300.513v14.171h4.751V300.431h-3.733A6.953,6.953,0,0,0,104.613,300.513Z" transform="translate(-84.315 -242.138)" fill="#fc657e"/>
        <path id="Trazado_873757" data-name="Trazado 873757" d="M124.826,425.089H110.761a2.4,2.4,0,0,0-2.388,2.388v2.363h18.842v-2.363a2.4,2.4,0,0,0-2.388-2.388" transform="translate(-87.345 -342.609)" fill="#f98fa6"/>
        <path id="Trazado_873758" data-name="Trazado 873758" d="M212.068,93.007l1.668-2.751-6.454-9.433a4.769,4.769,0,0,0-8.02.232L192.721,91.91h4.923a2.681,2.681,0,0,1,2.094,1.006l1.495,1.868a2.681,2.681,0,0,0,2.094,1.006h2.9a2.681,2.681,0,0,1,2.043.945l3.484,4.1,3.673-6.057h-2.364a1.166,1.166,0,0,1-1-1.77" transform="translate(-155.327 -63.468)" fill="#dae6f1"/>
        <path id="Trazado_873759" data-name="Trazado 873759" d="M283.168,13.981a3.025,3.025,0,0,1-2.406-2.367c0-.039-.116-.039-.116,0a3.025,3.025,0,0,1-2.406,2.367c-.039,0-.039.078,0,.116a3.025,3.025,0,0,1,2.406,2.367c0,.039.116.039.116,0a3.025,3.025,0,0,1,2.406-2.367c.039-.039.039-.116,0-.116" transform="translate(-224.23 -9.337)" fill="#fc657e"/>
        <path id="Trazado_873760" data-name="Trazado 873760" d="M426.595,73.4h.893V74.3a1.226,1.226,0,0,0,1.242,1.242,1.243,1.243,0,0,0,1.242-1.2V73.4h.893a1.226,1.226,0,0,0,1.242-1.242,1.243,1.243,0,0,0-1.2-1.242h-.931v-.893a1.226,1.226,0,0,0-1.242-1.242,1.243,1.243,0,0,0-1.242,1.2v.931h-.893a1.226,1.226,0,0,0-1.242,1.242,1.2,1.2,0,0,0,1.242,1.242Z" transform="translate(-342.82 -55.439)" fill="#70d6f9"/>
        <path id="Trazado_873761" data-name="Trazado 873761" d="M103.08,78.585a1.319,1.319,0,1,1-1.319,1.319,1.319,1.319,0,0,1,1.319-1.319" transform="translate(-82.016 -63.337)" fill="#87d147"/>
        <path id="Trazado_873762" data-name="Trazado 873762" d="M487.08,129.585a1.319,1.319,0,1,1-1.319,1.319,1.319,1.319,0,0,1,1.319-1.319" transform="translate(-391.509 -104.442)" fill="#f5c84c"/>
        <path id="Trazado_873763" data-name="Trazado 873763" d="M33.119,127.719a4.306,4.306,0,0,0,3.454-3.376c0-.078.155-.078.155,0a4.306,4.306,0,0,0,3.454,3.376c.078,0,.078.116,0,.155a4.306,4.306,0,0,0-3.454,3.376c0,.078-.155.078-.155,0a4.306,4.306,0,0,0-3.454-3.376c-.078-.039-.078-.155,0-.155" transform="translate(-26.646 -100.17)" fill="#f5c84c"/>
        <path id="Trazado_873764" data-name="Trazado 873764" d="M429.695,161.508H419.508a1.9,1.9,0,0,1-1.628-2.891l5.093-8.4a1.9,1.9,0,0,1,3.255,0l5.093,8.4a1.9,1.9,0,0,1-1.628,2.891m-10.122-1.94H429.63l-5.028-8.292Zm4.23-8.847h0Z" transform="translate(-336.577 -120.332)"/>
        <path id="Trazado_873765" data-name="Trazado 873765" d="M408.888,271.137H385.506a1.9,1.9,0,0,1-1.628-2.891l5.773-9.521a.97.97,0,0,1,1.659,1.006l-5.739,9.465h23.251l-5.725-9.441a.97.97,0,0,1,1.659-1.006l5.758,9.5a1.9,1.9,0,0,1-1.628,2.891" transform="translate(-309.173 -208.149)"/>
        <path id="Trazado_873766" data-name="Trazado 873766" d="M420.82,215.844H405.005a1.9,1.9,0,0,1-1.628-2.891l5.332-8.794a.97.97,0,0,1,1.659,1.006l-5.3,8.738h15.685l-5.288-8.72a.97.97,0,0,1,1.659-1.006l5.322,8.776a1.9,1.9,0,0,1-1.629,2.891Z" transform="translate(-324.888 -164.17)"/>
        <path id="Trazado_873767" data-name="Trazado 873767" d="M301.4,105.065H288.684a2.135,2.135,0,0,1-1.826-3.243l6.358-10.486a2.121,2.121,0,0,1,1.826-1.028h0a2.12,2.12,0,0,1,1.826,1.028l6.358,10.486a2.135,2.135,0,0,1-1.826,3.242Zm-6.526-12.723-6.358,10.486a.2.2,0,0,0,.167.3H301.4a.2.2,0,0,0,.167-.3l-6.358-10.486a.195.195,0,0,0-.334,0Z" transform="translate(-230.946 -72.786)"/>
        <path id="Trazado_873768" data-name="Trazado 873768" d="M290.321,172.788H270.579a2.136,2.136,0,0,1-1.826-3.243l6.672-11a.97.97,0,0,1,1.659,1.006l-6.672,11a.2.2,0,0,0,.167.3h19.742a.2.2,0,0,0,.167-.3l-6.637-10.946a.97.97,0,0,1,1.659-1.006l6.637,10.946a2.135,2.135,0,0,1-1.826,3.243Z" transform="translate(-216.354 -127.404)"/>
        <path id="Trazado_873769" data-name="Trazado 873769" d="M375.286,237.774a.97.97,0,0,1-.83-.467l-6.265-10.332a.97.97,0,0,1,1.659-1.006l6.265,10.332a.971.971,0,0,1-.829,1.473Z" transform="translate(-296.637 -181.748)"/>
        <path id="Trazado_873770" data-name="Trazado 873770" d="M273.262,241.284H246.238a2.135,2.135,0,0,1-1.826-3.243l7.3-12.038a.97.97,0,0,1,1.659,1.006l-7.3,12.038a.2.2,0,0,0,.167.3h27.024a.97.97,0,1,1,0,1.94Z" transform="translate(-196.736 -181.776)"/>
        <path id="Trazado_873771" data-name="Trazado 873771" d="M299.63,412.359H249.771a.97.97,0,1,1,0-1.94H299.63a.577.577,0,0,0,.576-.576V387.524h-9.781a7.152,7.152,0,0,0-5.683,2.779l-.527.678A9.081,9.081,0,0,1,277,394.509H266.066a7.233,7.233,0,0,0-5.759,2.88l-.919,1.226a9.127,9.127,0,0,1-6.713,3.633.97.97,0,1,1-.127-1.936,7.188,7.188,0,0,0,5.287-2.861l.919-1.226a9.183,9.183,0,0,1,7.311-3.656H277a7.152,7.152,0,0,0,5.683-2.779l.527-.678a9.08,9.08,0,0,1,7.214-3.529h10.751a.97.97,0,0,1,.97.97v23.289a2.519,2.519,0,0,1-2.516,2.517" transform="translate(-200.526 -310.768)"/>
        <path id="Trazado_873772" data-name="Trazado 873772" d="M438.6,333.359a.97.97,0,0,1-.97-.97V318.431a.97.97,0,1,1,1.94,0v13.958a.97.97,0,0,1-.97.97" transform="translate(-352.713 -255.864)"/>
        <path id="Trazado_873773" data-name="Trazado 873773" d="M460.671,332.256a.97.97,0,0,1-.97-.97V318.431a.97.97,0,0,1,1.94,0v12.854a.97.97,0,0,1-.97.97" transform="translate(-370.505 -255.864)"/>
        <path id="Trazado_873774" data-name="Trazado 873774" d="M340.091,324.774a.97.97,0,0,1-.97-.97V300.391a.97.97,0,0,1,1.94,0V323.8a.97.97,0,0,1-.97.97" transform="translate(-273.321 -241.324)"/>
        <path id="Trazado_873775" data-name="Trazado 873775" d="M312.531,325.683a.97.97,0,0,1-.97-.97V300.055a.97.97,0,0,1,1.94,0v24.658A.97.97,0,0,1,312.531,325.683Z" transform="translate(-251.109 -241.054)"/>
        <path id="Trazado_873776" data-name="Trazado 873776" d="M21.109,388.182H14.251a2.519,2.519,0,0,1-2.516-2.517v-29.11a.97.97,0,0,1,.97-.97H23.36a.97.97,0,1,1,0,1.94H13.675v28.14a.577.577,0,0,0,.576.576h6.858a.97.97,0,1,1,0,1.94" transform="translate(-9.458 -286.591)"/>
        <path id="Trazado_873777" data-name="Trazado 873777" d="M473.331,363.346a.97.97,0,0,1-.97-.97V358.1a.577.577,0,0,0-.576-.576h-8.414a.97.97,0,1,1,0-1.94h8.414A2.519,2.519,0,0,1,474.3,358.1v4.274a.97.97,0,0,1-.97.97" transform="translate(-372.681 -286.591)"/>
        <path id="Trazado_873778" data-name="Trazado 873778" d="M96.244,339.7H74.985a6.545,6.545,0,0,1-6.538-6.538v-29.7a8.045,8.045,0,0,1,8.036-8.036H94.746a8.045,8.045,0,0,1,8.036,8.036v29.7a6.545,6.545,0,0,1-6.538,6.538M76.483,297.369a6.1,6.1,0,0,0-6.1,6.1v29.7a4.6,4.6,0,0,0,4.6,4.6H96.244a4.6,4.6,0,0,0,4.6-4.6v-29.7a6.1,6.1,0,0,0-6.1-6.1Z" transform="translate(-55.166 -238.107)"/>
        <path id="Trazado_873779" data-name="Trazado 873779" d="M138.586,397.543h-9.075a.97.97,0,1,1,0-1.94h9.075a.97.97,0,1,1,0,1.94" transform="translate(-103.6 -318.844)"/>
        <path id="Trazado_873780" data-name="Trazado 873780" d="M53.456,459.905H45.288a3.558,3.558,0,0,1-3.553-3.554v-8.223a3.558,3.558,0,0,1,3.553-3.554H47.6a.97.97,0,0,1,0,1.94H45.288a1.615,1.615,0,0,0-1.613,1.614v8.223a1.615,1.615,0,0,0,1.613,1.614h8.167a.97.97,0,1,1,0,1.94" transform="translate(-33.637 -358.314)"/>
        <path id="Trazado_873781" data-name="Trazado 873781" d="M215.847,459.905h-8.167a.97.97,0,1,1,0-1.94h8.167a1.615,1.615,0,0,0,1.613-1.614v-8.223a1.615,1.615,0,0,0-1.613-1.614h-2.18a.97.97,0,0,1,0-1.94h2.18a3.558,3.558,0,0,1,3.553,3.554v8.223a3.558,3.558,0,0,1-3.553,3.554" transform="translate(-166.601 -358.314)"/>
        <path id="Trazado_873782" data-name="Trazado 873782" d="M135.691,275.839H124.78a.97.97,0,0,1-.969-1.021,6.433,6.433,0,0,1,12.849,0,.97.97,0,0,1-.969,1.021m-9.77-1.94h8.63a4.492,4.492,0,0,0-8.63,0" transform="translate(-99.787 -216.576)"/>
        <path id="Trazado_873783" data-name="Trazado 873783" d="M360.815,357.525h-18.11a.97.97,0,1,1,0-1.94h18.11a.97.97,0,0,1,0,1.94Z" transform="translate(-275.428 -286.591)"/>
        <path id="Trazado_873784" data-name="Trazado 873784" d="M12.705,262.581a.97.97,0,0,1-.97-.97v-9.43a6.818,6.818,0,0,1,1.922-4.758l6.671-6.909a10.861,10.861,0,0,1,4.157-2.674.97.97,0,0,1,.649,1.829,8.912,8.912,0,0,0-3.41,2.193l-6.671,6.91a4.886,4.886,0,0,0-1.378,3.41v9.43A.97.97,0,0,1,12.705,262.581Z" transform="translate(-9.458 -191.646)"/>
        <path id="Trazado_873785" data-name="Trazado 873785" d="M163.922,96.827a.97.97,0,0,1-.83-1.471l11.346-18.83a5.739,5.739,0,0,1,9.653-.279l6.3,9.213a.97.97,0,1,1-1.6,1.1l-6.3-9.213a3.8,3.8,0,0,0-6.389.184L164.754,96.358A.97.97,0,0,1,163.922,96.827Z" transform="translate(-131.335 -59.439)"/>
        <path id="Trazado_873786" data-name="Trazado 873786" d="M73.22,176.732H51.641a5.8,5.8,0,0,1-4.1-1.721,5.568,5.568,0,0,1,.2-8.058,5.644,5.644,0,0,1,4.225-1.463.066.066,0,0,0,.043-.009,8.528,8.528,0,0,1,15.605-1.3.063.063,0,0,0,.04.033,6.3,6.3,0,0,1,6.061,2.938.063.063,0,0,0,.047.021,4.788,4.788,0,0,1-.546,9.553Zm-21.677-9.317a3.7,3.7,0,0,0-2.488.971,3.646,3.646,0,0,0-1.2,2.672,3.6,3.6,0,0,0,1.065,2.59,3.848,3.848,0,0,0,2.718,1.144H73.22A2.9,2.9,0,0,0,76.15,172a2.858,2.858,0,0,0-2.568-2.884,1.98,1.98,0,0,1-1.513-.933h0a4.349,4.349,0,0,0-4.186-2.03,1.973,1.973,0,0,1-1.974-1.045,6.589,6.589,0,0,0-12.059,1,1.963,1.963,0,0,1-2.029,1.32C51.728,167.419,51.635,167.415,51.543,167.415Z" transform="translate(-37.008 -128.693)"/>
        <path id="Trazado_873787" data-name="Trazado 873787" d="M96.244,347.7H74.985a6.545,6.545,0,0,1-6.538-6.538.97.97,0,1,1,1.94,0,4.6,4.6,0,0,0,4.6,4.6H96.244a4.6,4.6,0,0,0,4.6-4.6.97.97,0,1,1,1.94,0A6.545,6.545,0,0,1,96.244,347.7Z" transform="translate(-55.166 -274.185)"/>
        <path id="Trazado_873788" data-name="Trazado 873788" d="M120.8,435.419H106.731a3.362,3.362,0,0,1-3.358-3.358v-8.613a3.362,3.362,0,0,1,3.358-3.358H120.8a3.362,3.362,0,0,1,3.358,3.358v8.613a3.362,3.362,0,0,1-3.358,3.358m-14.066-13.39a1.419,1.419,0,0,0-1.418,1.418v8.613a1.42,1.42,0,0,0,1.418,1.418H120.8a1.419,1.419,0,0,0,1.418-1.418v-8.613a1.419,1.419,0,0,0-1.418-1.418Z" transform="translate(-83.316 -338.579)"/>
        <path id="Trazado_873789" data-name="Trazado 873789" d="M205.209,313.482a.97.97,0,0,1-.97-.97V299.221a.97.97,0,1,1,1.94,0v13.291a.97.97,0,0,1-.97.97" transform="translate(-164.611 -240.381)"/>
        <path id="Trazado_873790" data-name="Trazado 873790" d="M180.723,313.482a.97.97,0,0,1-.97-.97V299.221a.97.97,0,1,1,1.94,0v13.291a.97.97,0,0,1-.97.97" transform="translate(-144.876 -240.381)"/>
        <path id="Trazado_873791" data-name="Trazado 873791" d="M125.071,313.618a.97.97,0,0,1-.97-.97V299.389a.97.97,0,1,1,1.94,0v13.258a.97.97,0,0,1-.97.97" transform="translate(-100.022 -240.517)"/>
        <path id="Trazado_873792" data-name="Trazado 873792" d="M100.583,313.482a.97.97,0,0,1-.97-.97V299.221a.97.97,0,1,1,1.94,0v13.291a.97.97,0,0,1-.97.97" transform="translate(-80.285 -240.381)"/>
        <path id="Trazado_873793" data-name="Trazado 873793" d="M124.688,446.517h-17.9a.97.97,0,1,1,0-1.94h17.9a.97.97,0,0,1,0,1.94" transform="translate(-85.287 -358.316)"/>
        <path id="Trazado_873794" data-name="Trazado 873794" d="M208.2,152.286a.968.968,0,0,1-.74-.342l-3.345-3.935a1.708,1.708,0,0,0-1.3-.6h-2.9a3.633,3.633,0,0,1-2.851-1.37l-1.495-1.868a1.7,1.7,0,0,0-1.336-.642h-4.775a.97.97,0,0,1,0-1.94h4.775a3.633,3.633,0,0,1,2.851,1.37l1.495,1.868a1.7,1.7,0,0,0,1.336.642h2.9a3.644,3.644,0,0,1,2.782,1.286l3.345,3.935a.971.971,0,0,1-.739,1.6Z" transform="translate(-151.913 -114.113)"/>
        <path id="Trazado_873795" data-name="Trazado 873795" d="M271.288,2.328c.029,0,.058.01.058.029a3.025,3.025,0,0,0,2.406,2.367c.039,0,.039.078,0,.116a3.025,3.025,0,0,0-2.406,2.367c0,.019-.029.029-.058.029s-.058-.01-.058-.029a3.025,3.025,0,0,0-2.406-2.367c-.039-.039-.039-.116,0-.116a3.025,3.025,0,0,0,2.406-2.367c0-.019.029-.029.058-.029m0-2.328a2.383,2.383,0,0,0-2.347,1.93.7.7,0,0,1-.531.5,2.349,2.349,0,0,0-1.762,1.419,2.412,2.412,0,0,0,.53,2.636l.5.5.7.135a.707.707,0,0,1,.559.509,2.392,2.392,0,0,0,4.694,0,.707.707,0,0,1,.559-.509l.7-.135.5-.5a2.412,2.412,0,0,0,.53-2.636,2.349,2.349,0,0,0-1.762-1.419.7.7,0,0,1-.53-.5A2.383,2.383,0,0,0,271.288,0" transform="translate(-214.762)" fill="#fff"/>
        <path id="Trazado_873796" data-name="Trazado 873796" d="M419.323,59.528a1.226,1.226,0,0,1,1.242,1.242v.893h.931a1.243,1.243,0,0,1,1.2,1.242,1.226,1.226,0,0,1-1.242,1.242h-.893v.931a1.243,1.243,0,0,1-1.242,1.2,1.226,1.226,0,0,1-1.242-1.242v-.893h-.893a1.2,1.2,0,0,1-1.242-1.242,1.226,1.226,0,0,1,1.242-1.242h.893v-.931a1.243,1.243,0,0,1,1.242-1.2m0-2.328a3.574,3.574,0,0,0-3.366,2.353,3.577,3.577,0,0,0-2.338,3.285,3.491,3.491,0,0,0,.948,2.516,3.566,3.566,0,0,0,1.4.911,3.577,3.577,0,0,0,6.719-.009,3.577,3.577,0,0,0-.015-6.717,3.576,3.576,0,0,0-3.351-2.339" transform="translate(-333.363 -46.101)" fill="#fff"/>
        <path id="Trazado_873797" data-name="Trazado 873797" d="M93.674,69.328a1.319,1.319,0,1,1-1.319,1.319,1.319,1.319,0,0,1,1.319-1.319m0-2.328a3.648,3.648,0,1,0,3.648,3.648A3.652,3.652,0,0,0,93.674,67" transform="translate(-72.558 -54)" fill="#fff"/>
        <path id="Trazado_873798" data-name="Trazado 873798" d="M477.674,120.328a1.319,1.319,0,1,1-1.319,1.319,1.319,1.319,0,0,1,1.319-1.319m0-2.328a3.648,3.648,0,1,0,3.648,3.648A3.652,3.652,0,0,0,477.674,118" transform="translate(-382.051 -95.104)" fill="#fff"/>
        <path id="Trazado_873799" data-name="Trazado 873799" d="M27.239,115.028c.039,0,.078.019.078.058a4.306,4.306,0,0,0,3.454,3.376c.078,0,.078.116,0,.155a4.306,4.306,0,0,0-3.454,3.376c0,.039-.039.058-.078.058s-.078-.019-.078-.058a4.306,4.306,0,0,0-3.454-3.376c-.078-.039-.078-.155,0-.155a4.306,4.306,0,0,0,3.454-3.376c0-.039.039-.058.078-.058m0-2.328a2.4,2.4,0,0,0-2.368,1.963,1.987,1.987,0,0,1-1.522,1.5,2.376,2.376,0,0,0-1.964,1.811,2.42,2.42,0,0,0,1.281,2.728l.3.151.332.059a1.985,1.985,0,0,1,1.571,1.508,2.41,2.41,0,0,0,4.736,0,1.985,1.985,0,0,1,1.571-1.508l.332-.059.3-.151a2.42,2.42,0,0,0,1.281-2.728,2.376,2.376,0,0,0-1.964-1.811,1.987,1.987,0,0,1-1.522-1.5,2.4,2.4,0,0,0-2.368-1.963" transform="translate(-17.183 -90.833)" fill="#fff"/>
        <path id="Trazado_873800" data-name="Trazado 873800" d="M48.07,64.492a5.737,5.737,0,0,1,4.737,2.5l5.6,8.191,3.91-6.448a2.121,2.121,0,0,1,1.826-1.028h0a2.12,2.12,0,0,1,1.826,1.028L72.332,79.22a2.135,2.135,0,0,1-1.826,3.242h-.642l5.98,9.862a2.136,2.136,0,0,1-1.826,3.243h-.049l4.855,8.006,1.055-1.74a1.9,1.9,0,0,1-1.339-2.867l4.613-7.608h-.171a1.9,1.9,0,0,1-1.628-2.891l5.093-8.4a1.9,1.9,0,0,1,3.255,0l5.093,8.4a1.9,1.9,0,0,1-1.628,2.891H93l4.613,7.608a1.9,1.9,0,0,1-1.339,2.866l5.123,8.447a1.9,1.9,0,0,1-1.628,2.891H91.187v6.006h7.968a2.519,2.519,0,0,1,2.516,2.517v4.274h0v23.289a2.519,2.519,0,0,1-2.516,2.517H4.845a2.519,2.519,0,0,1-2.516-2.517V110.717a6.818,6.818,0,0,1,1.922-4.758l6.671-6.909a10.713,10.713,0,0,1,1.512-1.294A5.812,5.812,0,0,1,10.586,96.5a5.568,5.568,0,0,1,.2-8.058,5.652,5.652,0,0,1,3.8-1.479q.212,0,.425.016h.008a.063.063,0,0,0,.035-.009,8.528,8.528,0,0,1,15.605-1.3.063.063,0,0,0,.04.033,6.218,6.218,0,0,1,1.346-.009L43.154,67.27a5.771,5.771,0,0,1,4.916-2.777m0-2.328a8.111,8.111,0,0,0-6.91,3.9l-9.9,16.423a10.859,10.859,0,0,0-17.774,2.221A7.964,7.964,0,0,0,6.633,92.5a7.837,7.837,0,0,0,2.116,5.452l-6.173,6.394A9.134,9.134,0,0,0,0,110.717v38.541A4.85,4.85,0,0,0,4.845,154.1H99.155A4.85,4.85,0,0,0,104,149.257V121.694a4.85,4.85,0,0,0-4.845-4.845h-5.64V115.5h6.251a4.232,4.232,0,0,0,3.619-6.427l-4-6.6A4.237,4.237,0,0,0,99.6,97.76L96.3,92.307a4.231,4.231,0,0,0,.491-5.046l-5.093-8.4a4.232,4.232,0,0,0-7.238,0l-5.093,8.4a4.232,4.232,0,0,0,.492,5.046l-1.7,2.8a4.405,4.405,0,0,0-.322-3.992l-4.463-7.359A4.5,4.5,0,0,0,74.4,82.517a4.414,4.414,0,0,0-.073-4.5L67.965,67.527a4.464,4.464,0,0,0-7.634,0l-2.038,3.36-3.565-5.21a8.064,8.064,0,0,0-6.658-3.512M77.261,96.505q.078-.083.152-.171l-.128.211Z" transform="translate(0 -50.102)" fill="#fff"/>
      </g>
    </g>
  </g>
</svg>
