<svg xmlns="http://www.w3.org/2000/svg" width="89" height="105.892" viewBox="0 0 89 105.892">
  <g id="Grupo_1100040" data-name="Grupo 1100040" transform="translate(-767.051 -834.108)">
    <rect id="Rectángulo_400898" data-name="Rectángulo 400898" width="89" height="89" rx="44.5" transform="translate(767.051 851)" fill="#e9bd68"/>
    <g id="Grupo_1100039" data-name="Grupo 1100039">
      <g id="Cow_udder" data-name="Cow udder" transform="translate(783.571 870)">
        <path id="Trazado_874851" data-name="Trazado 874851" d="M43.014,49.132l-2.5,8.511h-8.9c.33-1.9,1.42-8.4,1.511-9.043Z" transform="translate(-12.699 -22.749)" fill="#fff"/>
        <path id="Trazado_874851_-_Contorno" data-name="Trazado 874851 - Contorno" d="M30.533,45.457l16.428.883-4.2,14.3H28.046l.608-3.512c.326-1.884,1.406-8.311,1.5-8.948Zm8.535,6.468-3.42-.184c-.15.9-.321,1.926-.486,2.9h3.107Z" transform="translate(-12.699 -22.749)" fill="#fff"/>
        <path id="Trazado_874852" data-name="Trazado 874852" d="M48.382,21.272a11.771,11.771,0,0,1-5.218,9.761l.957,1.6a1.569,1.569,0,0,1-2.7,1.6c-1.16-2.011-1.064-1.814-1.011-1.835a11.633,11.633,0,0,1-5.208.532l-.271,1.553a1.564,1.564,0,1,1-3.08-.532l.309-1.814a11.782,11.782,0,0,1-4.622-3.41l-1.255.723a1.566,1.566,0,1,1-1.527-2.734l1.133-.633a11.766,11.766,0,1,1,22.495-4.84Z" transform="translate(-9.114 -4.437)" fill="#fff"/>
        <path id="Trazado_874852_-_Contorno" data-name="Trazado 874852 - Contorno" d="M36.618,6.478a14.776,14.776,0,0,1,10.4,25.262,4.567,4.567,0,0,1-1.922,5.621l-.706.417L42.771,38A4.59,4.59,0,0,1,38.89,35.84q-.63.1-1.267.14a4.592,4.592,0,0,1-2.614,2.55l-.518.2-1.113.1A4.564,4.564,0,0,1,28.84,33.79a14.879,14.879,0,0,1-1.829-1.338l-1.493.19a4.566,4.566,0,0,1-3.228-7.8A14.69,14.69,0,0,1,25.962,11.02,14.841,14.841,0,0,1,36.618,6.478ZM39.524,29.86l1.97-1.32a8.776,8.776,0,0,0-1.61-15.43,8.921,8.921,0,0,0-9.592,2.064,8.727,8.727,0,0,0-1.669,9.669l.472,1.049.757.919A8.811,8.811,0,0,0,33.3,29.353l1.072.44,1.206.152a8.626,8.626,0,0,0,3.844-.388Z" transform="translate(-9.114 -4.437)" fill="#fff"/>
        <path id="Trazado_874853" data-name="Trazado 874853" d="M50.808,20.3a11.7,11.7,0,0,1-2.793,8.633,12.686,12.686,0,0,1-12.8-.335,1.9,1.9,0,0,0-1.6-.144,1.112,1.112,0,0,1-1.457-1.064,2.5,2.5,0,0,0-.4-1.9,12.686,12.686,0,0,1-1.947-11.447A11.771,11.771,0,0,1,50.808,20.3Z" transform="translate(-11.583 -4.46)" fill="#fff"/>
        <path id="Trazado_874853_-_Contorno" data-name="Trazado 874853 - Contorno" d="M41.9,33.5a15.675,15.675,0,0,1-8.267-2.355,2.939,2.939,0,0,1-2.785-.429,4.122,4.122,0,0,1-1.687-3.348,16.5,16.5,0,0,1-2.206-14.238l.164-.518.335-.428a14.761,14.761,0,1,1,22.831,18.7l-.353.41-.474.261A15.728,15.728,0,0,1,41.9,33.5Zm-6.915-8.106a4.911,4.911,0,0,1,1.73.6,9.782,9.782,0,0,0,9.364.554A8.761,8.761,0,0,0,32.527,15.469a9.707,9.707,0,0,0,1.637,8.212A5.865,5.865,0,0,1,34.988,25.392Z" transform="translate(-11.583 -4.46)" fill="#fff"/>
        <path id="Trazado_874854" data-name="Trazado 874854" d="M5.48,0H33.358V17.037H5.48Z" transform="translate(-0.468 0)" fill="#fff"/>
        <path id="Trazado_874854_-_Contorno" data-name="Trazado 874854 - Contorno" d="M2.48-3H36.358V20.037H2.48ZM30.358,3H8.48V14.037H30.358Z" transform="translate(-0.468 0)" fill="#fff"/>
        <path id="Trazado_874855" data-name="Trazado 874855" d="M33.358,20.141V26.21H5.48v-2.5H19.533A10.3,10.3,0,0,0,26.814,20.7l1.065-1.065Z" transform="translate(-0.468 -9.188)" fill="#fff"/>
        <path id="Trazado_874855_-_Contorno" data-name="Trazado 874855 - Contorno" d="M26.754,16.512l9.6.9v11.8H2.48v-8.5H19.533a7.254,7.254,0,0,0,5.16-2.137Zm3.6,6.362L29,22.748l-.069.069q-.2.2-.411.393h1.833Z" transform="translate(-0.468 -9.188)" fill="#fff"/>
        <path id="Trazado_874856" data-name="Trazado 874856" d="M5.48,21.734h5.4a.479.479,0,0,0,.34-.787l-.372-.378a2.824,2.824,0,0,0-1.984-.819H5.48Z" transform="translate(-0.468 -9.245)" fill="#fff"/>
        <path id="Trazado_874856_-_Contorno" data-name="Trazado 874856 - Contorno" d="M10.963,24.734H2.48V16.75H8.868a5.793,5.793,0,0,1,4.1,1.689l1.453,1.442-.366,2.756a3.458,3.458,0,0,1-3.011,2.093Z" transform="translate(-0.468 -9.245)" fill="#fff"/>
        <path id="Trazado_874857" data-name="Trazado 874857" d="M69.344,0a8.324,8.324,0,0,1-.479,2.606c-2.3,6.075-2.176,5.708-2.34,6.271a7.585,7.585,0,0,0,.234,4.67c1.5,3.957,1.271,3.351,1.564,4.133A8.043,8.043,0,0,1,68.5,22.8C60.987,48.623,62.083,44.873,60.583,50H53.248c1.064-5.952,3.771-20.931,4.16-23.048a7.447,7.447,0,0,0-2.069-6.511l-6.383-6.383a12.894,12.894,0,0,1-3.755-9.1V0Z" transform="translate(-19.06 0)" fill="#fff"/>
        <path id="Trazado_874857_-_Contorno" data-name="Trazado 874857 - Contorno" d="M42.2-3H72.41L72.343.065a11.3,11.3,0,0,1-.651,3.546l-1.1,2.9c-1.058,2.786-1.064,2.783-1.17,3.146a4.554,4.554,0,0,0,.14,2.825l1.5,3.967a11.254,11.254,0,0,1,.308,7.212L62.956,52.574,60.583,53H49.664l.631-3.528c1.064-5.956,3.774-20.943,4.162-23.062a4.438,4.438,0,0,0-1.242-3.851L46.834,16.18A15.8,15.8,0,0,1,42.2,4.963ZM65.507,3H48.2V4.963a9.831,9.831,0,0,0,2.882,6.979L57.46,18.32a10.466,10.466,0,0,1,2.905,9.136c-.33,1.8-2.281,12.589-3.531,19.544h1.5l7.285-25.035a5.088,5.088,0,0,0-.1-3.232l-1.56-4.122A10.518,10.518,0,0,1,63.628,8.1c.154-.532.147-.534,1.355-3.717Z" transform="translate(-19.06 0)" fill="#fff"/>
        <path id="Trazado_874858" data-name="Trazado 874858" d="M61.064,86.39h7.782l-1.181,4.048H60.33Z" transform="translate(-26.142 -40.437)" fill="#fff"/>
        <path id="Trazado_874858_-_Contorno" data-name="Trazado 874858 - Contorno" d="M58.559,83.39H72.846L69.915,93.438H56.737Z" transform="translate(-26.142 -40.437)" fill="#fff"/>
        <path id="Trazado_874859" data-name="Trazado 874859" d="M76.2,30.625c-3.521,12.064-3.192,10.989-6.755,23.155-8.388,0-7.787,0-7.777-.043C65.068,35,65.03,35.482,64.982,35.482A4.33,4.33,0,0,0,69.1,32.487L74.227,16.71a7.585,7.585,0,0,0,.234,4.67c1.5,3.957,1.271,3.351,1.564,4.133a8.043,8.043,0,0,1,.176,5.112Z" transform="translate(-26.763 -7.822)" fill="#fff"/>
        <path id="Trazado_874859_-_Contorno" data-name="Trazado 874859 - Contorno" d="M71.374,15.784l5.75,1.707a4.557,4.557,0,0,0,.141,2.823l1.5,3.968a11.256,11.256,0,0,1,.309,7.2l-7.384,25.3H69.445c-9.912,0-9.912,0-10.623-2.041l-.259-.745.154-.792L61.8,36.3l-3.07-3.815,6.255-.008a1.327,1.327,0,0,0,1.263-.92Zm-4.178,35,6.125-21a5.1,5.1,0,0,0,.205-1.2l-1.568,4.829a7.31,7.31,0,0,1-4.367,4.593L65.258,50.78Z" transform="translate(-26.763 -7.822)" fill="#fff"/>
        <path id="Trazado_874860" data-name="Trazado 874860" d="M51.239,41.351a1.3,1.3,0,0,0-1.229-.931H47.75c.128.7.814,2.888.707,2.543a1.628,1.628,0,0,0,1.894,1.154,1.564,1.564,0,0,0,1.128-1.968Z" transform="translate(-20.254 -18.92)" fill="#fff"/>
        <path id="Trazado_874860_-_Contorno" data-name="Trazado 874860 - Contorno" d="M44.155,37.42h5.855a4.3,4.3,0,0,1,4.1,3.074,5.24,5.24,0,0,1-.174,4.372,4.583,4.583,0,0,1-2.879,2.165l-.35.085-.688.033a4.653,4.653,0,0,1-4.429-3.292c-.1-.316-.672-2.221-.8-2.9Z" transform="translate(-20.254 -18.92)" fill="#fff"/>
        <path id="Trazado_874861" data-name="Trazado 874861" d="M52.747,0V6.973A6.16,6.16,0,0,1,51.5,10.7l-2.537,3.346a12.894,12.894,0,0,1-3.755-9.1V0Z" transform="translate(-19.065 0)" fill="#fff"/>
        <path id="Trazado_874861_-_Contorno" data-name="Trazado 874861 - Contorno" d="M42.21-3H55.747V6.973A9.209,9.209,0,0,1,53.9,12.505l-4.624,6.1-2.433-2.444A15.793,15.793,0,0,1,42.21,4.947Zm7.537,6H48.21V4.947a9.869,9.869,0,0,0,.845,4.013l.057-.076a3.174,3.174,0,0,0,.635-1.905Z" transform="translate(-19.065 0)" fill="#fff"/>
        <path id="Trazado_874862" data-name="Trazado 874862" d="M22.9,70.89l1.888,12.293H38.156L40.044,70.89Z" transform="translate(-8.622 -33.182)" fill="#fff"/>
        <path id="Trazado_874862_-_Contorno" data-name="Trazado 874862 - Contorno" d="M19.4,67.89H43.54L40.73,86.183H22.214Zm17.144,6H26.4l.967,6.293h8.218Z" transform="translate(-8.622 -33.182)" fill="#fff"/>
        <path id="Trazado_874863" data-name="Trazado 874863" d="M25.76,89.48H39.845l-.351,2.4H26.127Z" transform="translate(-9.961 -41.884)" fill="#fff"/>
        <path id="Trazado_874863_-_Contorno" data-name="Trazado 874863 - Contorno" d="M22.267,86.48H43.315l-1.227,8.4H23.55Z" transform="translate(-9.961 -41.884)" fill="#fff"/>
        <rect id="Rectángulo_401502" data-name="Rectángulo 401502" width="19.782" height="2.83" rx="1.09" transform="translate(12.959 34.878)" fill="#fff"/>
        <path id="Rectángulo_401502_-_Contorno" data-name="Rectángulo 401502 - Contorno" d="M1.09-3h17.6a4.1,4.1,0,0,1,4.09,4.09c0,2.905-1.835,4.74-4.09,4.74H1.09A4.1,4.1,0,0,1-3,1.74C-3-1.165-1.165-3,1.09-3Z" transform="translate(12.959 34.878)" fill="#fff"/>
        <rect id="Rectángulo_401503" data-name="Rectángulo 401503" width="9.559" height="2.83" rx="1.09" transform="translate(18.071 34.878)" fill="#fff"/>
        <path id="Rectángulo_401503_-_Contorno" data-name="Rectángulo 401503 - Contorno" d="M1.09-3H8.469a4.1,4.1,0,0,1,4.09,4.09c0,2.905-1.835,4.74-4.09,4.74H1.09A4.1,4.1,0,0,1-3,1.74C-3-1.165-1.165-3,1.09-3Z" transform="translate(18.071 34.878)" fill="#fff"/>
        <path id="Trazado_874864" data-name="Trazado 874864" d="M70.877,68.23l-.761,2.005a8.553,8.553,0,0,1-7.979,5.537L61.76,77.9h7.755l2.527-8.66Z" transform="translate(-26.812 -31.937)" fill="#fff"/>
        <path id="Trazado_874864_-_Contorno" data-name="Trazado 874864 - Contorno" d="M69.6,63.147l5.864,5.088L71.765,80.9H58.181l1.441-8.12,2.507-.007a5.583,5.583,0,0,0,5.18-3.6Z" transform="translate(-26.812 -31.937)" fill="#fff"/>
        <path id="Trazado_874865" data-name="Trazado 874865" d="M83.422,37.862,78.954,53.25l-1.191-2.5a6.952,6.952,0,0,1-.473-4.676l2.128-8.7a7.075,7.075,0,0,1,1.6-3.005L83,32.17l.213.569a8.043,8.043,0,0,1,.207,5.122Z" transform="translate(-33.984 -15.058)" fill="#fff"/>
        <path id="Trazado_874865_-_Contorno" data-name="Trazado 874865 - Contorno" d="M84.086,26.5l1.938,5.185A11.091,11.091,0,0,1,86.3,38.7L79.637,61.656l-4.583-9.616a9.973,9.973,0,0,1-.676-6.691L76.5,36.66a10.128,10.128,0,0,1,2.276-4.3Z" transform="translate(-33.984 -15.058)" fill="#fff"/>
        <path id="Trazado_874866" data-name="Trazado 874866" d="M41.392,59.9,40.5,62.916H31.61c.117-.681.223-1.314.324-1.9C38.69,61.017,36.935,61.251,41.392,59.9Z" transform="translate(-12.699 -28.038)" fill="#fff"/>
        <path id="Trazado_874866_-_Contorno" data-name="Trazado 874866 - Contorno" d="M45.84,55.417l-3.092,10.5H28.05l1.031-6,2.853-1.9,3.775.015a7.449,7.449,0,0,0,3.328-.544Z" transform="translate(-12.699 -28.038)" fill="#fff"/>
        <path id="Trazado_874867" data-name="Trazado 874867" d="M40.986,70.89l-1.234,5.665A3.266,3.266,0,0,1,36.56,79.14H33.709a6.914,6.914,0,0,0-4.467,1.638H41.475l1.537-9.888Z" transform="translate(-11.59 -33.182)" fill="#fff"/>
        <path id="Trazado_874867_-_Contorno" data-name="Trazado 874867 - Contorno" d="M38.569,67.89h7.946l-2.47,15.889H21.056L27.3,78.488a9.925,9.925,0,0,1,6.406-2.348H36.56l1.494-5.889Z" transform="translate(-11.59 -33.182)" fill="#fff"/>
        <path id="Trazado_874868" data-name="Trazado 874868" d="M23.49,74.75h7.537a1.335,1.335,0,0,1,1.3,1.633l-.335,1.431a1.33,1.33,0,0,1-1.314,1.027H29.155a2.761,2.761,0,0,0-1.84.707L24.6,81.984Z" transform="translate(-8.898 -34.989)" fill="#fff"/>
        <path id="Trazado_874868_-_Contorno" data-name="Trazado 874868 - Contorno" d="M19.994,71.75H31.027a4.335,4.335,0,0,1,4.222,5.3L34.911,78.5A4.312,4.312,0,0,1,30.7,81.841H29.155l-2.549,2.376-4.127,3.706Z" transform="translate(-8.898 -34.989)" fill="#fff"/>
        <path id="Trazado_874869" data-name="Trazado 874869" d="M33.816,76.68h1.436a.585.585,0,0,1,.569.729l-.122.473a.564.564,0,0,1-.532.426h-.532a.856.856,0,0,1-.606-.25c-.484-.484-.564-.532-.569-.729V77.09a.4.4,0,0,1,.356-.41Z" transform="translate(-13.565 -35.892)" fill="#fff"/>
        <path id="Trazado_874869_-_Contorno" data-name="Trazado 874869 - Contorno" transform="translate(-13.565 -35.892)" fill="#fff"/>
        <path id="Trazado_874870" data-name="Trazado 874870" d="M71.672,23.013l-1.6,4.431a1.766,1.766,0,0,1-1.654,1.2h-.707a1.771,1.771,0,0,1-1.7-2.266l.4-1.372a4.293,4.293,0,0,1,1.936-2.5l1.548-.92a1.213,1.213,0,0,1,1.766,1.431Z" transform="translate(-28.772 -10.023)" fill="#fff"/>
        <path id="Trazado_874870_-_Contorno" data-name="Trazado 874870 - Contorno" d="M70.523,18.414h1.063l1.589.94a4.231,4.231,0,0,1,1.341,4.616L72.9,28.46a4.755,4.755,0,0,1-4.447,3.18A5.268,5.268,0,0,1,63.9,29.729a4.8,4.8,0,0,1-.762-4.192l.407-1.382a7.258,7.258,0,0,1,3.285-4.234l2.252-1.339Z" transform="translate(-28.772 -10.023)" fill="#fff"/>
        <path id="Trazado_874871" data-name="Trazado 874871" d="M75.981,0a8.415,8.415,0,0,1-.372,2.293H64.236A6.862,6.862,0,0,0,59.38,4.3V0Z" transform="translate(-25.698 0)" fill="#fff"/>
        <path id="Trazado_874871_-_Contorno" data-name="Trazado 874871 - Contorno" d="M56.38-3H79.05L78.981.068a11.413,11.413,0,0,1-.505,3.11l-.653,2.115H64.236A3.841,3.841,0,0,0,61.5,6.424L56.38,11.548Z" transform="translate(-25.698 0)" fill="#fff"/>
        <g id="Grupo_1100038" data-name="Grupo 1100038" transform="translate(4.48 0)">
          <path id="Trazado_874872" data-name="Trazado 874872" d="M48.193,13.888a7.043,7.043,0,0,1,0-5l2.128-5.564A8.936,8.936,0,0,0,50.853.532a.532.532,0,1,0-1.064,0,7.942,7.942,0,0,1-.441,2.415L47.2,8.511a8.128,8.128,0,0,0,0,5.755l1.239,3.287C46.7,19.468,45.5,20.511,44.943,22.74l-2.128,8.7a7.447,7.447,0,0,0,.532,5.032l1.1,2.319L42.3,45.958h-6.75l3.314-18.383a7.979,7.979,0,0,0-2.2-6.979L30.6,14.521l2.255-2.979a6.7,6.7,0,0,0,1.356-4.037V.532a.532.532,0,1,0-1.064,0V7.505A5.654,5.654,0,0,1,32.012,10.9l-2.128,2.835a12.271,12.271,0,0,1-3.192-8.261V.532a.532.532,0,1,0-1.064,0V5.473a13.33,13.33,0,0,0,3.91,9.468l2.069,2.08H5.012a.532.532,0,0,0,0,1.064h10.2a12.287,12.287,0,0,0,.8,3.931l-.612.362A2.1,2.1,0,0,0,16.422,26.3a3.3,3.3,0,0,0,1.761-.681,11.835,11.835,0,0,0,1.6,1.537c-.059.41.064-.351-1.309,7.718H13.539a1.117,1.117,0,0,0-1.112,1.112v1.665a1.117,1.117,0,0,0,1.112,1.117H13.8l.867,5.484L12.3,46.623a.532.532,0,0,0,.755.75l1.809-1.809L15.544,50h-9.1a.532.532,0,0,0,0,1.064H48.789a.532.532,0,0,0,0-1.064H42.23L49.97,23.484a8.617,8.617,0,0,0-.207-5.463Zm-10.372,13.5L33.746,50h-3.59l1.729-11.229h.282a1.117,1.117,0,0,0,1.112-1.117V35.99a1.117,1.117,0,0,0-1.112-1.112H28.523l1.6-5.378c.319-.069.633-.16.942-.255l.793,1.362a2.1,2.1,0,0,0,3.622-2.128l-.691-1.192a12.064,12.064,0,0,0,2.84-3.1,6.915,6.915,0,0,1,.2,3.2Zm-3.926.532.649,1.112a.984.984,0,0,1,.106.782,1.032,1.032,0,0,1-1.888.255l-.7-1.192a12.718,12.718,0,0,0,1.83-.957Zm-16.99-2.809a1.032,1.032,0,1,1-.979-1.8l.532-.3a11.963,11.963,0,0,0,1.064,1.771Zm-.633-7.027h1.6a7.065,7.065,0,0,0,.984,3.032.533.533,0,1,0,.878-.606,5.459,5.459,0,0,1-.777-2.426H32.677c3.394,3.4,3.771,3.644,4.431,4.888A11.1,11.1,0,0,1,33.826,26.7h-.037a11.1,11.1,0,0,1-7.106,2.027l.245-1.447a.54.54,0,1,0-1.064-.181l-.362,2.16a3.537,3.537,0,0,0-2.053-.245l.388-2.245a.54.54,0,1,0-1.064-.181l-.165,1.074a11.059,11.059,0,0,1-6.335-9.575Zm6.984,12.08a2.314,2.314,0,0,1,2.064.17v.181a1.034,1.034,0,1,1-2.037-.351Zm-2.543-2.314a12.5,12.5,0,0,0,1.686.91l-.213,1.223a2.1,2.1,0,0,0,4.133.713l.176-.91a11.389,11.389,0,0,0,2.442-.069l-1.521,5.16H19.539Zm-7.223,9.8c0-1.777,0-1.713.048-1.713H32.156c.069,0,.048-.043.048,1.713,0,.08.612.053-9.489.053l.505-.532a.532.532,0,1,0-.75-.755l-1.261,1.261C13.044,37.708,13.491,37.735,13.491,37.655Zm1.4,1.117H20.15L15.6,43.325Zm6.761,0h9.165L29.448,47.6h-13.2L15.8,44.628ZM16.624,50l-.207-1.34H29.284L29.076,50Zm18.2,0,.532-2.979h6.633L41.124,50ZM48.949,23.186l-4.1,14.048L44.257,36a6.468,6.468,0,0,1-.436-4.319l2.16-8.7c.463-1.883,1.442-2.739,2.872-4.319A7.575,7.575,0,0,1,48.949,23.186Z" transform="translate(-4.48 0)" fill="#fff"/>
          <path id="Trazado_874872_-_Contorno" data-name="Trazado 874872 - Contorno" d="M26.161-3h3L29.693.532V5.473a9.285,9.285,0,0,0,.383,2.646,2.639,2.639,0,0,0,.075-.619V-2.468L33.682-3A3.536,3.536,0,0,1,37.214.532V7.505a9.756,9.756,0,0,1-1.964,5.847l-.679.9,3.56,3.563.466-.731.531,1.746a11.01,11.01,0,0,1,2.527,4.726l.373-1.527a11.267,11.267,0,0,1,2.95-5.145l-.587-1.557a11.117,11.117,0,0,1,0-7.876l2.156-5.583A4.865,4.865,0,0,0,46.79.455l.075-2.923L50.321-3A3.536,3.536,0,0,1,53.853.532a12.02,12.02,0,0,1-.712,3.816L51,9.96a4.035,4.035,0,0,0,0,2.864l1.569,4.133a11.692,11.692,0,0,1,.282,7.371L46.231,47h5.558l.532,3.532a3.536,3.536,0,0,1-3.532,3.532H3.448l-.532-3.532A3.536,3.536,0,0,1,6.448,47h2.7a3.525,3.525,0,0,1,1.011-2.478l1.308-1.308L11.1,40.924a4.01,4.01,0,0,1-1.675-3.269V35.99a4.133,4.133,0,0,1,4.1-4.112h2.413l.439-2.575a5.1,5.1,0,0,1-3.987-8.218H2.012L1.48,17.553a3.536,3.536,0,0,1,3.532-3.532H25.029a16.439,16.439,0,0,1-2.4-8.556V-2.468Zm5.276,24.085H22.814a3.5,3.5,0,0,1-.39,1.364l-.46.881,1.34-.194a4.875,4.875,0,0,1,1.908.684l1.183-.173a4.193,4.193,0,0,1,3.039,1.8,7.616,7.616,0,0,0,2.619-1.2l.455-.323a8.146,8.146,0,0,0,.9-.87c-.294-.3-.689-.695-1.233-1.236Zm9.807,17.953-.606-1.277q-.218-.449-.391-.917l-1.1,6.115h.927ZM27.318,41.772H22.9L20.074,44.6h6.805Z" transform="translate(-4.48 0)" fill="#fff"/>
          <path id="Trazado_874873" data-name="Trazado 874873" d="M40.214,38.7l1.989.4a1.947,1.947,0,0,1,1.489,1.351l.564,1.888a2.1,2.1,0,1,0,4.016-1.207l-.995-3.314a.533.533,0,0,0-1.021.3l.569,1.915a2.66,2.66,0,0,0-1.968.617l-.16-.505a3,3,0,0,0-2.287-2.09l-1.968-.4a.534.534,0,0,0-.229,1.043Zm6.973,2.516.064.223a1.032,1.032,0,1,1-1.979.59l-.053-.181A1.6,1.6,0,0,1,47.188,41.214Z" transform="translate(-21.017 -17.522)" fill="#fff"/>
          <path id="Trazado_874873_-_Contorno" data-name="Trazado 874873 - Contorno" d="M46.768,34.433h2.239l1.148,2.528.992,3.305a5.1,5.1,0,0,1-3.414,6.347l-.423.127-1.046.089a5.091,5.091,0,0,1-3.031-1.01l-.13.11-.067-.264A5.086,5.086,0,0,1,41.384,43.2L41,41.915l-4.325-.867.206-3.57a3.533,3.533,0,0,1,3.461-2.832l2.665.468a6.01,6.01,0,0,1,1,.29l1.76-.825.418-.124Z" transform="translate(-21.017 -17.522)" fill="#fff"/>
        </g>
      </g>
      <g id="Cow_udder-2" data-name="Cow udder" transform="translate(783.571 870)">
        <path id="Trazado_874851-2" data-name="Trazado 874851" d="M43.014,49.132l-2.5,8.511h-8.9c.33-1.9,1.42-8.4,1.511-9.043Z" transform="translate(-12.699 -22.749)" fill="#b09482"/>
        <path id="Trazado_874852-2" data-name="Trazado 874852" d="M48.382,21.272a11.771,11.771,0,0,1-5.218,9.761l.957,1.6a1.569,1.569,0,0,1-2.7,1.6c-1.16-2.011-1.064-1.814-1.011-1.835a11.633,11.633,0,0,1-5.208.532l-.271,1.553a1.564,1.564,0,1,1-3.08-.532l.309-1.814a11.782,11.782,0,0,1-4.622-3.41l-1.255.723a1.566,1.566,0,1,1-1.527-2.734l1.133-.633a11.766,11.766,0,1,1,22.495-4.84Z" transform="translate(-9.114 -4.437)" fill="#d1384c"/>
        <path id="Trazado_874853-2" data-name="Trazado 874853" d="M50.808,20.3a11.7,11.7,0,0,1-2.793,8.633,12.686,12.686,0,0,1-12.8-.335,1.9,1.9,0,0,0-1.6-.144,1.112,1.112,0,0,1-1.457-1.064,2.5,2.5,0,0,0-.4-1.9,12.686,12.686,0,0,1-1.947-11.447A11.771,11.771,0,0,1,50.808,20.3Z" transform="translate(-11.583 -4.46)" fill="#ef6f83"/>
        <path id="Trazado_874854-2" data-name="Trazado 874854" d="M5.48,0H33.358V17.037H5.48Z" transform="translate(-0.468 0)" fill="#eddcd2"/>
        <path id="Trazado_874855-2" data-name="Trazado 874855" d="M33.358,20.141V26.21H5.48v-2.5H19.533A10.3,10.3,0,0,0,26.814,20.7l1.065-1.065Z" transform="translate(-0.468 -9.188)" fill="#ddbea9"/>
        <path id="Trazado_874856-2" data-name="Trazado 874856" d="M5.48,21.734h5.4a.479.479,0,0,0,.34-.787l-.372-.378a2.824,2.824,0,0,0-1.984-.819H5.48Z" transform="translate(-0.468 -9.245)" fill="#ddbea9"/>
        <path id="Trazado_874857-2" data-name="Trazado 874857" d="M69.344,0a8.324,8.324,0,0,1-.479,2.606c-2.3,6.075-2.176,5.708-2.34,6.271a7.585,7.585,0,0,0,.234,4.67c1.5,3.957,1.271,3.351,1.564,4.133A8.043,8.043,0,0,1,68.5,22.8C60.987,48.623,62.083,44.873,60.583,50H53.248c1.064-5.952,3.771-20.931,4.16-23.048a7.447,7.447,0,0,0-2.069-6.511l-6.383-6.383a12.894,12.894,0,0,1-3.755-9.1V0Z" transform="translate(-19.06 0)" fill="#eddcd2"/>
        <path id="Trazado_874858-2" data-name="Trazado 874858" d="M61.064,86.39h7.782l-1.181,4.048H60.33Z" transform="translate(-26.142 -40.437)" fill="#495a83"/>
        <path id="Trazado_874859-2" data-name="Trazado 874859" d="M76.2,30.625c-3.521,12.064-3.192,10.989-6.755,23.155-8.388,0-7.787,0-7.777-.043C65.068,35,65.03,35.482,64.982,35.482A4.33,4.33,0,0,0,69.1,32.487L74.227,16.71a7.585,7.585,0,0,0,.234,4.67c1.5,3.957,1.271,3.351,1.564,4.133a8.043,8.043,0,0,1,.176,5.112Z" transform="translate(-26.763 -7.822)" fill="#ddbea9"/>
        <path id="Trazado_874860-2" data-name="Trazado 874860" d="M51.239,41.351a1.3,1.3,0,0,0-1.229-.931H47.75c.128.7.814,2.888.707,2.543a1.628,1.628,0,0,0,1.894,1.154,1.564,1.564,0,0,0,1.128-1.968Z" transform="translate(-20.254 -18.92)" fill="#d1384c"/>
        <path id="Trazado_874861-2" data-name="Trazado 874861" d="M52.747,0V6.973A6.16,6.16,0,0,1,51.5,10.7l-2.537,3.346a12.894,12.894,0,0,1-3.755-9.1V0Z" transform="translate(-19.065 0)" fill="#cb997e"/>
        <path id="Trazado_874862-2" data-name="Trazado 874862" d="M22.9,70.89l1.888,12.293H38.156L40.044,70.89Z" transform="translate(-8.622 -33.182)" fill="#c2c2c2"/>
        <path id="Trazado_874863-2" data-name="Trazado 874863" d="M25.76,89.48H39.845l-.351,2.4H26.127Z" transform="translate(-9.961 -41.884)" fill="#d6d6d6"/>
        <rect id="Rectángulo_401502-2" data-name="Rectángulo 401502" width="19.782" height="2.83" rx="1.09" transform="translate(12.959 34.878)" fill="#d6d6d6"/>
        <rect id="Rectángulo_401503-2" data-name="Rectángulo 401503" width="9.559" height="2.83" rx="1.09" transform="translate(18.071 34.878)" fill="#ebebeb"/>
        <path id="Trazado_874864-2" data-name="Trazado 874864" d="M70.877,68.23l-.761,2.005a8.553,8.553,0,0,1-7.979,5.537L61.76,77.9h7.755l2.527-8.66Z" transform="translate(-26.812 -31.937)" fill="#c9a090"/>
        <path id="Trazado_874865-2" data-name="Trazado 874865" d="M83.422,37.862,78.954,53.25l-1.191-2.5a6.952,6.952,0,0,1-.473-4.676l2.128-8.7a7.075,7.075,0,0,1,1.6-3.005L83,32.17l.213.569a8.043,8.043,0,0,1,.207,5.122Z" transform="translate(-33.984 -15.058)" fill="#cb997e"/>
        <path id="Trazado_874866-2" data-name="Trazado 874866" d="M41.392,59.9,40.5,62.916H31.61c.117-.681.223-1.314.324-1.9C38.69,61.017,36.935,61.251,41.392,59.9Z" transform="translate(-12.699 -28.038)" fill="#a1856e"/>
        <path id="Trazado_874867-2" data-name="Trazado 874867" d="M40.986,70.89l-1.234,5.665A3.266,3.266,0,0,1,36.56,79.14H33.709a6.914,6.914,0,0,0-4.467,1.638H41.475l1.537-9.888Z" transform="translate(-11.59 -33.182)" fill="#a8a8a8"/>
        <path id="Trazado_874868-2" data-name="Trazado 874868" d="M23.49,74.75h7.537a1.335,1.335,0,0,1,1.3,1.633l-.335,1.431a1.33,1.33,0,0,1-1.314,1.027H29.155a2.761,2.761,0,0,0-1.84.707L24.6,81.984Z" transform="translate(-8.898 -34.989)" fill="#d6d6d6"/>
        <path id="Trazado_874869-2" data-name="Trazado 874869" d="M33.816,76.68h1.436a.585.585,0,0,1,.569.729l-.122.473a.564.564,0,0,1-.532.426h-.532a.856.856,0,0,1-.606-.25c-.484-.484-.564-.532-.569-.729V77.09a.4.4,0,0,1,.356-.41Z" transform="translate(-13.565 -35.892)" fill="#ebebeb"/>
        <path id="Trazado_874870-2" data-name="Trazado 874870" d="M71.672,23.013l-1.6,4.431a1.766,1.766,0,0,1-1.654,1.2h-.707a1.771,1.771,0,0,1-1.7-2.266l.4-1.372a4.293,4.293,0,0,1,1.936-2.5l1.548-.92a1.213,1.213,0,0,1,1.766,1.431Z" transform="translate(-28.772 -10.023)" fill="#ddbea9"/>
        <path id="Trazado_874871-2" data-name="Trazado 874871" d="M75.981,0a8.415,8.415,0,0,1-.372,2.293H64.236A6.862,6.862,0,0,0,59.38,4.3V0Z" transform="translate(-25.698 0)" fill="#fff1e6"/>
        <g id="Grupo_1100038-2" data-name="Grupo 1100038" transform="translate(4.48 0)">
          <path id="Trazado_874872-2" data-name="Trazado 874872" d="M48.193,13.888a7.043,7.043,0,0,1,0-5l2.128-5.564A8.936,8.936,0,0,0,50.853.532a.532.532,0,1,0-1.064,0,7.942,7.942,0,0,1-.441,2.415L47.2,8.511a8.128,8.128,0,0,0,0,5.755l1.239,3.287C46.7,19.468,45.5,20.511,44.943,22.74l-2.128,8.7a7.447,7.447,0,0,0,.532,5.032l1.1,2.319L42.3,45.958h-6.75l3.314-18.383a7.979,7.979,0,0,0-2.2-6.979L30.6,14.521l2.255-2.979a6.7,6.7,0,0,0,1.356-4.037V.532a.532.532,0,1,0-1.064,0V7.505A5.654,5.654,0,0,1,32.012,10.9l-2.128,2.835a12.271,12.271,0,0,1-3.192-8.261V.532a.532.532,0,1,0-1.064,0V5.473a13.33,13.33,0,0,0,3.91,9.468l2.069,2.08H5.012a.532.532,0,0,0,0,1.064h10.2a12.287,12.287,0,0,0,.8,3.931l-.612.362A2.1,2.1,0,0,0,16.422,26.3a3.3,3.3,0,0,0,1.761-.681,11.835,11.835,0,0,0,1.6,1.537c-.059.41.064-.351-1.309,7.718H13.539a1.117,1.117,0,0,0-1.112,1.112v1.665a1.117,1.117,0,0,0,1.112,1.117H13.8l.867,5.484L12.3,46.623a.532.532,0,0,0,.755.75l1.809-1.809L15.544,50h-9.1a.532.532,0,0,0,0,1.064H48.789a.532.532,0,0,0,0-1.064H42.23L49.97,23.484a8.617,8.617,0,0,0-.207-5.463Zm-10.372,13.5L33.746,50h-3.59l1.729-11.229h.282a1.117,1.117,0,0,0,1.112-1.117V35.99a1.117,1.117,0,0,0-1.112-1.112H28.523l1.6-5.378c.319-.069.633-.16.942-.255l.793,1.362a2.1,2.1,0,0,0,3.622-2.128l-.691-1.192a12.064,12.064,0,0,0,2.84-3.1,6.915,6.915,0,0,1,.2,3.2Zm-3.926.532.649,1.112a.984.984,0,0,1,.106.782,1.032,1.032,0,0,1-1.888.255l-.7-1.192a12.718,12.718,0,0,0,1.83-.957Zm-16.99-2.809a1.032,1.032,0,1,1-.979-1.8l.532-.3a11.963,11.963,0,0,0,1.064,1.771Zm-.633-7.027h1.6a7.065,7.065,0,0,0,.984,3.032.533.533,0,1,0,.878-.606,5.459,5.459,0,0,1-.777-2.426H32.677c3.394,3.4,3.771,3.644,4.431,4.888A11.1,11.1,0,0,1,33.826,26.7h-.037a11.1,11.1,0,0,1-7.106,2.027l.245-1.447a.54.54,0,1,0-1.064-.181l-.362,2.16a3.537,3.537,0,0,0-2.053-.245l.388-2.245a.54.54,0,1,0-1.064-.181l-.165,1.074a11.059,11.059,0,0,1-6.335-9.575Zm6.984,12.08a2.314,2.314,0,0,1,2.064.17v.181a1.034,1.034,0,1,1-2.037-.351Zm-2.543-2.314a12.5,12.5,0,0,0,1.686.91l-.213,1.223a2.1,2.1,0,0,0,4.133.713l.176-.91a11.389,11.389,0,0,0,2.442-.069l-1.521,5.16H19.539Zm-7.223,9.8c0-1.777,0-1.713.048-1.713H32.156c.069,0,.048-.043.048,1.713,0,.08.612.053-9.489.053l.505-.532a.532.532,0,1,0-.75-.755l-1.261,1.261C13.044,37.708,13.491,37.735,13.491,37.655Zm1.4,1.117H20.15L15.6,43.325Zm6.761,0h9.165L29.448,47.6h-13.2L15.8,44.628ZM16.624,50l-.207-1.34H29.284L29.076,50Zm18.2,0,.532-2.979h6.633L41.124,50ZM48.949,23.186l-4.1,14.048L44.257,36a6.468,6.468,0,0,1-.436-4.319l2.16-8.7c.463-1.883,1.442-2.739,2.872-4.319A7.575,7.575,0,0,1,48.949,23.186Z" transform="translate(-4.48 0)" fill="#231f20"/>
          <path id="Trazado_874873-2" data-name="Trazado 874873" d="M40.214,38.7l1.989.4a1.947,1.947,0,0,1,1.489,1.351l.564,1.888a2.1,2.1,0,1,0,4.016-1.207l-.995-3.314a.533.533,0,0,0-1.021.3l.569,1.915a2.66,2.66,0,0,0-1.968.617l-.16-.505a3,3,0,0,0-2.287-2.09l-1.968-.4a.534.534,0,0,0-.229,1.043Zm6.973,2.516.064.223a1.032,1.032,0,1,1-1.979.59l-.053-.181A1.6,1.6,0,0,1,47.188,41.214Z" transform="translate(-21.017 -17.522)" fill="#231f20"/>
        </g>
      </g>
    </g>
  </g>
</svg>
