<svg xmlns="http://www.w3.org/2000/svg" xmlns:xlink="http://www.w3.org/1999/xlink" width="59" height="59" viewBox="0 0 59 59">
  <defs>
    <clipPath id="clip-path">
      <rect id="Rect치ngulo_401398" data-name="Rect치ngulo 401398" width="59" height="59" transform="translate(704.449 2847.406)" fill="none"/>
    </clipPath>
    <clipPath id="clip-path-2">
      <rect id="Rect치ngulo_401397" data-name="Rect치ngulo 401397" width="49.505" height="54.499" fill="#e9bd68"/>
    </clipPath>
  </defs>
  <g id="Enmascarar_grupo_1098696" data-name="Enmascarar grupo 1098696" transform="translate(-704.449 -2847.406)" clip-path="url(#clip-path)">
    <g id="Grupo_1099720" data-name="Grupo 1099720" transform="translate(709.382 2850.429)">
      <g id="Grupo_1099719" data-name="Grupo 1099719" clip-path="url(#clip-path-2)">
        <path id="Trazado_873627" data-name="Trazado 873627" d="M8.293,51.4a274.616,274.616,0,0,1,.436-29.269,72.708,72.708,0,0,1,.718-7.506q-.072.412-.145.824a14.425,14.425,0,0,1,1.407-4.278l-.408.74a10.109,10.109,0,0,1,1.284-1.834c.168-.189.654-.588-.134.107.14-.123.269-.253.409-.375a10.777,10.777,0,0,1,1.019-.777c.112-.076.759-.472.186-.136-.6.35.19-.1.3-.16q.548-.29,1.127-.546a27.406,27.406,0,0,1,2.6-.979l-.966.313A31.288,31.288,0,0,1,22.357,6.2l-1.075.111a26.141,26.141,0,0,1,5.156-.025l-1.075-.111a19.542,19.542,0,0,1,3.7.75L28.1,6.611a15.859,15.859,0,0,1,1.536.58q.4.175.774.372c.113.059.223.12.334.18.616.331-.58-.38-.229-.134.466.326.938.638,1.368,1q.339.282.654.579c.088.083.429.416.028.021-.44-.433.021.033.082.1a26.882,26.882,0,0,1,3.735,5.422l-.408-.74a43.882,43.882,0,0,1,4.577,13.529q-.072-.412-.145-.824c1.248,7.248,1.1,14.576.891,21.867-.046,1.623,1.893,3.175,4.044,3.1,2.23-.076,4-1.362,4.044-3.1.213-7.582.293-15.16-1.035-22.691A45.673,45.673,0,0,0,45.22,15.276,31.1,31.1,0,0,0,38.183,4.732C31.5-1.475,19.492-.9,10.995,2.584a17.58,17.58,0,0,0-6.152,4.1,12.715,12.715,0,0,0-2.861,5.081A27.989,27.989,0,0,0,1,17.431C.822,19.44.679,21.451.551,23.462Q-.238,35.878.1,48.316q.044,1.54.1,3.081c.062,1.62,1.816,3.177,4.044,3.1,2.138-.074,4.111-1.363,4.044-3.1" transform="translate(0 0)" fill="#e9bd68"/>
        <path id="Trazado_873628" data-name="Trazado 873628" d="M29.994,68.722A111.947,111.947,0,0,1,29.216,56q-.011-3.161.158-6.319a52.391,52.391,0,0,1,.563-6.186q-.072.412-.145.824a10.752,10.752,0,0,1,1.094-3.226l-.408.741a7.754,7.754,0,0,1,.769-1.116c.109-.13.235-.252.342-.382-.676.818-.236.233.006.031q.27-.226.567-.433c.274-.19.773-.319-.2.1.462-.2.871-.434,1.359-.6l-.966.313a8.466,8.466,0,0,1,1.51-.333l-1.075.111a8.7,8.7,0,0,1,1.6-.012l-1.075-.111a9.345,9.345,0,0,1,1.731.355l-.966-.313a9.66,9.66,0,0,1,1.426.59c.028.015.327.187.334.182-.032.021-.773-.494-.335-.189.23.161.46.318.676.491.192.153.366.317.547.477.312.277-.507-.559-.259-.248.072.089.156.173.231.261a8.8,8.8,0,0,1,.888,1.3l-.408-.74a12.994,12.994,0,0,1,1.32,3.992q-.072-.412-.145-.824a102.679,102.679,0,0,1,1.152,11.553q.345,5.918.219,11.844c-.033,1.622,1.884,3.174,4.044,3.1,2.22-.076,4.009-1.362,4.044-3.1a150.218,150.218,0,0,0-.47-15.413c-.2-2.482-.428-4.974-.812-7.444-.407-2.617-1.02-5.37-3.02-7.59a13.04,13.04,0,0,0-8.047-4.26,13.624,13.624,0,0,0-6.227.658,10.6,10.6,0,0,0-3.625,2.138,11.635,11.635,0,0,0-2.791,3.749,14.13,14.13,0,0,0-1.048,4,66.165,66.165,0,0,0-.566,7.454,111.544,111.544,0,0,0,.7,17.313,2.99,2.99,0,0,0,1.185,2.192,4.818,4.818,0,0,0,2.86.908c2.028-.069,4.249-1.371,4.044-3.1" transform="translate(-9.734 -19.538)" fill="#e9bd68"/>
      </g>
    </g>
  </g>
</svg>
