<svg xmlns="http://www.w3.org/2000/svg" width="80" height="80" viewBox="0 0 80 80">
  <g id="Grupo_1100299" data-name="Grupo 1100299" transform="translate(-357.051 -7980)">
    <rect id="Rectángulo_400898" data-name="Rectángulo 400898" width="80" height="80" rx="40" transform="translate(357.051 7980)" fill="#769671"/>
    <g id="tarea" transform="translate(338.547 7995)">
      <path id="Trazado_875726" data-name="Trazado 875726" d="M44,108.389V68.677a1.62,1.62,0,0,1,1.619-1.619H78.366a1.62,1.62,0,0,1,1.619,1.619v39.712a1.62,1.62,0,0,1-1.619,1.619H45.624A1.619,1.619,0,0,1,44,108.389Z" transform="translate(-6.765 -60.474)" fill="#0e80ac"/>
      <path id="Trazado_875726_-_Contorno" data-name="Trazado 875726 - Contorno" d="M78.366,112.509H45.624a4.124,4.124,0,0,1-4.119-4.119V68.677a4.124,4.124,0,0,1,4.119-4.119H78.366a4.124,4.124,0,0,1,4.119,4.119v39.712A4.124,4.124,0,0,1,78.366,112.509Zm-31.861-5H77.486V69.558H46.5Z" transform="translate(-6.765 -60.474)" fill="#fff"/>
      <path id="Trazado_875727" data-name="Trazado 875727" d="M361.791,67.058h-1.884v41.331a1.619,1.619,0,0,1-1.619,1.619h3.5a1.619,1.619,0,0,0,1.619-1.619V68.677A1.62,1.62,0,0,0,361.791,67.058Z" transform="translate(-290.189 -60.474)" fill="#057195"/>
      <path id="Trazado_875727_-_Contorno" data-name="Trazado 875727 - Contorno" d="M357.408,64.558h4.384a4.124,4.124,0,0,1,4.119,4.119v39.712a4.124,4.124,0,0,1-4.119,4.119h-3.5v-5a.882.882,0,0,0-.881.881Z" transform="translate(-290.189 -60.474)" fill="#fff"/>
      <path id="Trazado_875728" data-name="Trazado 875728" d="M79.711,67.058V104.97a1.068,1.068,0,0,0,1.068,1.068h26.833a1.068,1.068,0,0,0,1.068-1.068V67.058Z" transform="translate(-38.965 -60.474)" fill="#f7f0f0"/>
      <path id="Trazado_875728_-_Contorno" data-name="Trazado 875728 - Contorno" d="M77.211,64.558H111.18V104.97a3.572,3.572,0,0,1-3.568,3.568H80.779a3.572,3.572,0,0,1-3.568-3.568Zm28.969,5H82.211v33.98H106.18Z" transform="translate(-38.965 -60.474)" fill="#fff"/>
      <path id="Trazado_875729" data-name="Trazado 875729" d="M155.581,9.822A2.322,2.322,0,0,0,153.259,7.5h-1.771a2.322,2.322,0,0,0-2.322,2.322A1.178,1.178,0,0,1,147.987,11H146.57a2.347,2.347,0,0,0-2.347,2.347v1.233a1.114,1.114,0,0,0,1.114,1.114H159.41a1.114,1.114,0,0,0,1.114-1.114V13.348A2.347,2.347,0,0,0,158.177,11H156.76A1.178,1.178,0,0,1,155.581,9.822Z" transform="translate(-97.143 -6.764)" fill="#fd7e42"/>
      <path id="Trazado_875729_-_Contorno" data-name="Trazado 875729 - Contorno" d="M151.488,5h1.771A4.831,4.831,0,0,1,157.9,8.5h.28a4.853,4.853,0,0,1,4.847,4.847v1.233a3.618,3.618,0,0,1-3.614,3.614H145.337a3.618,3.618,0,0,1-3.614-3.614V13.348A4.853,4.853,0,0,1,146.57,8.5h.279A4.831,4.831,0,0,1,151.488,5Zm1.6,5h-1.424a3.685,3.685,0,0,1-2.206,3.195h5.836A3.685,3.685,0,0,1,153.086,10Z" transform="translate(-97.143 -6.764)" fill="#fff"/>
      <path id="Trazado_875730" data-name="Trazado 875730" d="M230.16,11h-1.417a1.178,1.178,0,0,1-1.178-1.178A2.322,2.322,0,0,0,225.243,7.5h-1.2v3.55a1.178,1.178,0,0,0,1.178,1.178h1.417a2.347,2.347,0,0,1,2.347,2.347v1.12h2.407a1.114,1.114,0,0,0,1.114-1.114V13.348A2.347,2.347,0,0,0,230.16,11Z" transform="translate(-169.126 -6.764)" fill="#fa6931"/>
      <path id="Trazado_875730_-_Contorno" data-name="Trazado 875730 - Contorno" d="M221.544,5h3.7a4.831,4.831,0,0,1,4.638,3.5h.279a4.853,4.853,0,0,1,4.847,4.847v1.233a3.618,3.618,0,0,1-3.614,3.614h-4.907V14.728h-1.264a3.682,3.682,0,0,1-3.678-3.678Z" transform="translate(-169.126 -6.764)" fill="#fff"/>
      <path id="Trazado_875731" data-name="Trazado 875731" d="M224.463,194.5l-2.86-2.292-.985.532-16.707,20.845-2.656,5.333a1.028,1.028,0,0,0,1.568,1.257l4.627-3.753,16.707-20.845Z" transform="translate(-148.478 -173.336)" fill="#fa6931"/>
      <path id="Trazado_875731_-_Contorno" data-name="Trazado 875731 - Contorno" d="M221.873,189.22l5.447,4.366-.9,3.16-17.191,21.449-4.835,3.922a3.528,3.528,0,0,1-5.381-4.313l2.775-5.573,17.191-21.449Z" transform="translate(-148.478 -173.336)" fill="#fff"/>
      <path id="Trazado_875732" data-name="Trazado 875732" d="M204.006,409.641,201.336,415a1.034,1.034,0,0,0,1.577,1.264l4.652-3.774Z" transform="translate(-148.55 -369.42)" fill="#557981"/>
      <path id="Trazado_875732_-_Contorno" data-name="Trazado 875732 - Contorno" d="M203.15,405.751l8.4,6.73-7.06,5.727a3.534,3.534,0,0,1-5.39-4.32Z" transform="translate(-148.55 -369.42)" fill="#fff"/>
      <path id="Trazado_875733" data-name="Trazado 875733" d="M405.334,155.247a2.268,2.268,0,0,0-3.188.351l-2.694,3.361,3.539,2.837,2.694-3.361A2.268,2.268,0,0,0,405.334,155.247Z" transform="translate(-327.312 -139.555)" fill="#ffc3ab"/>
      <path id="Trazado_875733_-_Contorno" data-name="Trazado 875733 - Contorno" d="M403.917,152.249h0a4.768,4.768,0,0,1,3.719,7.75l-4.257,5.312-7.441-5.964,4.257-5.312A4.746,4.746,0,0,1,403.917,152.249Z" transform="translate(-327.312 -139.555)" fill="#fff"/>
      <path id="Trazado_875734" data-name="Trazado 875734" d="M125.891,137.535a.736.736,0,0,0-1.025.182l-2.34,3.347-1.517-1.348a.736.736,0,0,0-.978,1.1l1.614,1.435a1.357,1.357,0,0,0,2.013-.237l2.415-3.454A.737.737,0,0,0,125.891,137.535Z" transform="translate(-75.102 -123.911)"/>
      <path id="Trazado_875734_-_Contorno" data-name="Trazado 875734 - Contorno" d="M125.469,134.9h0a3.237,3.237,0,0,1,2.652,5.091l-2.415,3.454a3.857,3.857,0,0,1-5.723.672l-1.614-1.435a3.237,3.237,0,0,1,3.664-5.28l.784-1.121A3.239,3.239,0,0,1,125.469,134.9Z" transform="translate(-75.102 -123.911)" fill="#fff"/>
      <path id="Trazado_875735" data-name="Trazado 875735" d="M125.891,247.094a.736.736,0,0,0-1.025.182l-2.34,3.347-1.517-1.348a.736.736,0,1,0-.978,1.1l1.614,1.435a1.357,1.357,0,0,0,2.013-.237l2.415-3.454A.736.736,0,0,0,125.891,247.094Z" transform="translate(-75.103 -222.713)"/>
      <path id="Trazado_875735_-_Contorno" data-name="Trazado 875735 - Contorno" d="M125.47,244.461h0a3.237,3.237,0,0,1,2.652,5.09l-2.415,3.455a3.857,3.857,0,0,1-5.722.673l-1.615-1.436a3.237,3.237,0,0,1,3.664-5.28l.784-1.121A3.239,3.239,0,0,1,125.47,244.461Z" transform="translate(-75.103 -222.713)" fill="#fff"/>
      <path id="Trazado_875736" data-name="Trazado 875736" d="M125.891,355.183a.736.736,0,0,0-1.025.182l-2.34,3.347-1.517-1.348a.736.736,0,0,0-.978,1.1l1.614,1.435a1.357,1.357,0,0,0,2.013-.237l2.415-3.454A.737.737,0,0,0,125.891,355.183Z" transform="translate(-75.102 -320.189)"/>
      <path id="Trazado_875736_-_Contorno" data-name="Trazado 875736 - Contorno" d="M125.469,352.55h0a3.237,3.237,0,0,1,2.652,5.091l-2.415,3.454a3.857,3.857,0,0,1-5.723.672l-1.614-1.435a3.237,3.237,0,0,1,3.664-5.28l.784-1.121A3.239,3.239,0,0,1,125.469,352.55Z" transform="translate(-75.102 -320.189)" fill="#fff"/>
      <path id="Trazado_875737" data-name="Trazado 875737" d="M224.834,141.344H214.427a.736.736,0,0,0,0,1.473h10.407a.736.736,0,0,0,0-1.473Z" transform="translate(-159.79 -127.466)"/>
      <path id="Trazado_875737_-_Contorno" data-name="Trazado 875737 - Contorno" d="M214.427,138.844h10.407a3.236,3.236,0,0,1,0,6.473H214.427a3.236,3.236,0,0,1,0-6.473Z" transform="translate(-159.79 -127.466)" fill="#fff"/>
      <path id="Trazado_875738" data-name="Trazado 875738" d="M224.834,174.675H214.427a.736.736,0,0,0,0,1.473h10.407a.736.736,0,0,0,0-1.473Z" transform="translate(-159.79 -157.524)"/>
      <path id="Trazado_875738_-_Contorno" data-name="Trazado 875738 - Contorno" d="M214.427,172.175h10.407a3.236,3.236,0,0,1,0,6.473H214.427a3.236,3.236,0,0,1,0-6.473Z" transform="translate(-159.79 -157.524)" fill="#fff"/>
      <path id="Trazado_875739" data-name="Trazado 875739" d="M225.571,249.236a.736.736,0,0,0-.736-.736H214.427a.736.736,0,0,0,0,1.473h10.407A.736.736,0,0,0,225.571,249.236Z" transform="translate(-159.79 -224.101)"/>
      <path id="Trazado_875739_-_Contorno" data-name="Trazado 875739 - Contorno" d="M214.427,246h10.407a3.236,3.236,0,1,1,0,6.473H214.427a3.236,3.236,0,0,1,0-6.473Z" transform="translate(-159.79 -224.101)" fill="#fff"/>
      <path id="Trazado_875740" data-name="Trazado 875740" d="M214.427,281.831a.736.736,0,0,0,0,1.473h5.2a.736.736,0,1,0,0-1.473Z" transform="translate(-159.79 -254.159)"/>
      <path id="Trazado_875740_-_Contorno" data-name="Trazado 875740 - Contorno" d="M214.427,279.331h5.2a3.236,3.236,0,1,1,0,6.473h-5.2a3.236,3.236,0,0,1,0-6.473Z" transform="translate(-159.79 -254.159)" fill="#fff"/>
      <path id="Trazado_875741" data-name="Trazado 875741" d="M78.483,15.118a3,3,0,0,0-4.223.465l-19.4,24.206c-.093.116.048-.121-2.528,5.039H41.814a.332.332,0,0,1-.332-.332V7.321h4.861v.5a1.853,1.853,0,0,0,1.85,1.85H62.267a1.852,1.852,0,0,0,1.851-1.85v-.5h4.861V18.573a.736.736,0,0,0,1.473,0V7.321H71.6a.884.884,0,0,1,.883.883v5.984a.736.736,0,1,0,1.473,0V8.2A2.359,2.359,0,0,0,71.6,5.848H64.028A3.088,3.088,0,0,0,61.034,3.5H59.617a.442.442,0,0,1-.442-.442A3.062,3.062,0,0,0,56.116,0H54.345a3.062,3.062,0,0,0-3.059,3.059.442.442,0,0,1-.442.442H49.427a3.088,3.088,0,0,0-2.994,2.347H38.86A2.359,2.359,0,0,0,36.5,8.2V47.915a2.359,2.359,0,0,0,2.356,2.356H71.6a2.359,2.359,0,0,0,2.356-2.356V29.153a.736.736,0,0,0-1.473,0V47.915a.884.884,0,0,1-.883.883H38.86a.884.884,0,0,1-.883-.883V8.2a.884.884,0,0,1,.883-.883h1.15V44.5a1.807,1.807,0,0,0,1.8,1.8H51.956a1.76,1.76,0,0,0,2.854,1.11l1.369-1.11H68.647a1.807,1.807,0,0,0,1.8-1.8V33.518a.736.736,0,1,0-1.473,0V44.5a.332.332,0,0,1-.332.332H58a18.656,18.656,0,0,0,1.552-1.281l19.4-24.206a3.008,3.008,0,0,0-.465-4.223ZM47.817,6.584a1.612,1.612,0,0,1,1.611-1.611h1.417a1.917,1.917,0,0,0,1.915-1.915,1.588,1.588,0,0,1,1.586-1.586h1.771A1.588,1.588,0,0,1,57.7,3.059a1.917,1.917,0,0,0,1.915,1.915h1.417a1.612,1.612,0,0,1,1.611,1.611V7.817a.378.378,0,0,1-.378.378H48.194a.378.378,0,0,1-.378-.378Zm6.065,39.684a.292.292,0,0,1-.445-.357L55.7,41.362l2.127,1.7Zm5-4.245-2.39-1.916L72.254,20.44l2.39,1.916ZM77.8,18.42l-2.233,2.786-2.39-1.916L75.409,16.5A1.532,1.532,0,0,1,77.8,18.42Z" transform="translate(0 0)"/>
      <path id="Trazado_875741_-_Contorno" data-name="Trazado 875741 - Contorno" d="M54.345-2.5h1.771a5.568,5.568,0,0,1,5.166,3.506,5.57,5.57,0,0,1,4.3,2.342H71.6A4.861,4.861,0,0,1,76.458,8.2v3.755l.147,0A5.505,5.505,0,0,1,80.9,20.9l-5.073,6.33a3.219,3.219,0,0,1,.632,1.919V47.915A4.861,4.861,0,0,1,71.6,52.771H38.86A4.861,4.861,0,0,1,34,47.915V8.2A4.861,4.861,0,0,1,38.86,3.348h6.015a5.57,5.57,0,0,1,4.3-2.342A5.568,5.568,0,0,1,54.345-2.5ZM55.3,3.973h-.133a4.4,4.4,0,0,1-.78,1.722h1.694A4.4,4.4,0,0,1,55.3,3.973ZM44.333,9.821h-.351V42.328h6.8c.617-1.238,1.016-2.042,1.281-2.576a6.554,6.554,0,0,1,.848-1.532L67.116,20.5a3.22,3.22,0,0,1-.637-1.926V9.821h-.351a4.355,4.355,0,0,1-3.861,2.347H48.194A4.355,4.355,0,0,1,44.333,9.821ZM66.479,42.328V38.9l-1.03,1.285-1.722,2.148Z" transform="translate(0 0)" fill="#fff"/>
    </g>
    <g id="tarea-2" data-name="tarea" transform="translate(338.547 7995)">
      <path id="Trazado_875726-2" data-name="Trazado 875726" d="M44,108.389V68.677a1.62,1.62,0,0,1,1.619-1.619H78.366a1.62,1.62,0,0,1,1.619,1.619v39.712a1.62,1.62,0,0,1-1.619,1.619H45.624A1.619,1.619,0,0,1,44,108.389Z" transform="translate(-6.765 -60.474)" fill="#0e80ac"/>
      <path id="Trazado_875727-2" data-name="Trazado 875727" d="M361.791,67.058h-1.884v41.331a1.619,1.619,0,0,1-1.619,1.619h3.5a1.619,1.619,0,0,0,1.619-1.619V68.677A1.62,1.62,0,0,0,361.791,67.058Z" transform="translate(-290.189 -60.474)" fill="#057195"/>
      <path id="Trazado_875728-2" data-name="Trazado 875728" d="M79.711,67.058V104.97a1.068,1.068,0,0,0,1.068,1.068h26.833a1.068,1.068,0,0,0,1.068-1.068V67.058Z" transform="translate(-38.965 -60.474)" fill="#f7f0f0"/>
      <path id="Trazado_875729-2" data-name="Trazado 875729" d="M155.581,9.822A2.322,2.322,0,0,0,153.259,7.5h-1.771a2.322,2.322,0,0,0-2.322,2.322A1.178,1.178,0,0,1,147.987,11H146.57a2.347,2.347,0,0,0-2.347,2.347v1.233a1.114,1.114,0,0,0,1.114,1.114H159.41a1.114,1.114,0,0,0,1.114-1.114V13.348A2.347,2.347,0,0,0,158.177,11H156.76A1.178,1.178,0,0,1,155.581,9.822Z" transform="translate(-97.143 -6.764)" fill="#fd7e42"/>
      <path id="Trazado_875730-2" data-name="Trazado 875730" d="M230.16,11h-1.417a1.178,1.178,0,0,1-1.178-1.178A2.322,2.322,0,0,0,225.243,7.5h-1.2v3.55a1.178,1.178,0,0,0,1.178,1.178h1.417a2.347,2.347,0,0,1,2.347,2.347v1.12h2.407a1.114,1.114,0,0,0,1.114-1.114V13.348A2.347,2.347,0,0,0,230.16,11Z" transform="translate(-169.126 -6.764)" fill="#fa6931"/>
      <path id="Trazado_875731-2" data-name="Trazado 875731" d="M224.463,194.5l-2.86-2.292-.985.532-16.707,20.845-2.656,5.333a1.028,1.028,0,0,0,1.568,1.257l4.627-3.753,16.707-20.845Z" transform="translate(-148.478 -173.336)" fill="#fa6931"/>
      <path id="Trazado_875732-2" data-name="Trazado 875732" d="M204.006,409.641,201.336,415a1.034,1.034,0,0,0,1.577,1.264l4.652-3.774Z" transform="translate(-148.55 -369.42)" fill="#557981"/>
      <path id="Trazado_875733-2" data-name="Trazado 875733" d="M405.334,155.247a2.268,2.268,0,0,0-3.188.351l-2.694,3.361,3.539,2.837,2.694-3.361A2.268,2.268,0,0,0,405.334,155.247Z" transform="translate(-327.312 -139.555)" fill="#ffc3ab"/>
      <path id="Trazado_875734-2" data-name="Trazado 875734" d="M125.891,137.535a.736.736,0,0,0-1.025.182l-2.34,3.347-1.517-1.348a.736.736,0,0,0-.978,1.1l1.614,1.435a1.357,1.357,0,0,0,2.013-.237l2.415-3.454A.737.737,0,0,0,125.891,137.535Z" transform="translate(-75.102 -123.911)"/>
      <path id="Trazado_875735-2" data-name="Trazado 875735" d="M125.891,247.094a.736.736,0,0,0-1.025.182l-2.34,3.347-1.517-1.348a.736.736,0,1,0-.978,1.1l1.614,1.435a1.357,1.357,0,0,0,2.013-.237l2.415-3.454A.736.736,0,0,0,125.891,247.094Z" transform="translate(-75.103 -222.713)"/>
      <path id="Trazado_875736-2" data-name="Trazado 875736" d="M125.891,355.183a.736.736,0,0,0-1.025.182l-2.34,3.347-1.517-1.348a.736.736,0,0,0-.978,1.1l1.614,1.435a1.357,1.357,0,0,0,2.013-.237l2.415-3.454A.737.737,0,0,0,125.891,355.183Z" transform="translate(-75.102 -320.189)"/>
      <path id="Trazado_875737-2" data-name="Trazado 875737" d="M224.834,141.344H214.427a.736.736,0,0,0,0,1.473h10.407a.736.736,0,0,0,0-1.473Z" transform="translate(-159.79 -127.466)"/>
      <path id="Trazado_875738-2" data-name="Trazado 875738" d="M224.834,174.675H214.427a.736.736,0,0,0,0,1.473h10.407a.736.736,0,0,0,0-1.473Z" transform="translate(-159.79 -157.524)"/>
      <path id="Trazado_875739-2" data-name="Trazado 875739" d="M225.571,249.236a.736.736,0,0,0-.736-.736H214.427a.736.736,0,0,0,0,1.473h10.407A.736.736,0,0,0,225.571,249.236Z" transform="translate(-159.79 -224.101)"/>
      <path id="Trazado_875740-2" data-name="Trazado 875740" d="M214.427,281.831a.736.736,0,0,0,0,1.473h5.2a.736.736,0,1,0,0-1.473Z" transform="translate(-159.79 -254.159)"/>
      <path id="Trazado_875741-2" data-name="Trazado 875741" d="M78.483,15.118a3,3,0,0,0-4.223.465l-19.4,24.206c-.093.116.048-.121-2.528,5.039H41.814a.332.332,0,0,1-.332-.332V7.321h4.861v.5a1.853,1.853,0,0,0,1.85,1.85H62.267a1.852,1.852,0,0,0,1.851-1.85v-.5h4.861V18.573a.736.736,0,0,0,1.473,0V7.321H71.6a.884.884,0,0,1,.883.883v5.984a.736.736,0,1,0,1.473,0V8.2A2.359,2.359,0,0,0,71.6,5.848H64.028A3.088,3.088,0,0,0,61.034,3.5H59.617a.442.442,0,0,1-.442-.442A3.062,3.062,0,0,0,56.116,0H54.345a3.062,3.062,0,0,0-3.059,3.059.442.442,0,0,1-.442.442H49.427a3.088,3.088,0,0,0-2.994,2.347H38.86A2.359,2.359,0,0,0,36.5,8.2V47.915a2.359,2.359,0,0,0,2.356,2.356H71.6a2.359,2.359,0,0,0,2.356-2.356V29.153a.736.736,0,0,0-1.473,0V47.915a.884.884,0,0,1-.883.883H38.86a.884.884,0,0,1-.883-.883V8.2a.884.884,0,0,1,.883-.883h1.15V44.5a1.807,1.807,0,0,0,1.8,1.8H51.956a1.76,1.76,0,0,0,2.854,1.11l1.369-1.11H68.647a1.807,1.807,0,0,0,1.8-1.8V33.518a.736.736,0,1,0-1.473,0V44.5a.332.332,0,0,1-.332.332H58a18.656,18.656,0,0,0,1.552-1.281l19.4-24.206a3.008,3.008,0,0,0-.465-4.223ZM47.817,6.584a1.612,1.612,0,0,1,1.611-1.611h1.417a1.917,1.917,0,0,0,1.915-1.915,1.588,1.588,0,0,1,1.586-1.586h1.771A1.588,1.588,0,0,1,57.7,3.059a1.917,1.917,0,0,0,1.915,1.915h1.417a1.612,1.612,0,0,1,1.611,1.611V7.817a.378.378,0,0,1-.378.378H48.194a.378.378,0,0,1-.378-.378Zm6.065,39.684a.292.292,0,0,1-.445-.357L55.7,41.362l2.127,1.7Zm5-4.245-2.39-1.916L72.254,20.44l2.39,1.916ZM77.8,18.42l-2.233,2.786-2.39-1.916L75.409,16.5A1.532,1.532,0,0,1,77.8,18.42Z" transform="translate(0 0)"/>
    </g>
  </g>
</svg>
