<svg xmlns="http://www.w3.org/2000/svg" width="80" height="80" viewBox="0 0 80 80">
  <g id="Grupo_1100304" data-name="Grupo 1100304" transform="translate(-730.051 -7980)">
    <rect id="Rectángulo_400898" data-name="Rectángulo 400898" width="80" height="80" rx="40" transform="translate(730.051 7980)" fill="#769671"/>
    <g id="pregunta_1_" data-name="pregunta (1)" transform="translate(743.051 7992.996)">
      <g id="Grupo_1100302" data-name="Grupo 1100302" transform="translate(0.789 0.792)">
        <g id="Grupo_1100301" data-name="Grupo 1100301" transform="translate(5.748 16.118)">
          <path id="Trazado_875742" data-name="Trazado 875742" d="M102.929,181.463a20.38,20.38,0,1,0-40.756,0c0,11.406,9.124,12.267,20.378,12.267S102.929,192.87,102.929,181.463Z" transform="translate(-62.173 -160.81)" fill="#665e66"/>
          <path id="Trazado_875742_-_Contorno" data-name="Trazado 875742 - Contorno" d="M82.551,196.23c-5.449,0-11.129-.16-15.426-2.072a11.929,11.929,0,0,1-5.483-4.661,15.006,15.006,0,0,1-1.969-8.034,23.229,23.229,0,0,1,6.689-16.36,22.786,22.786,0,0,1,7.272-4.968,22.695,22.695,0,0,1,17.834,0A22.785,22.785,0,0,1,98.74,165.1a23.229,23.229,0,0,1,6.689,16.36,15.006,15.006,0,0,1-1.969,8.034,11.929,11.929,0,0,1-5.483,4.661C93.68,196.07,88,196.23,82.551,196.23Zm0-32.92a17.628,17.628,0,0,0-12.63,5.305,18.174,18.174,0,0,0-5.248,12.848,10.375,10.375,0,0,0,1.234,5.424,6.941,6.941,0,0,0,3.251,2.7c3.4,1.513,8.7,1.64,13.393,1.64,8.957,0,11.61-.847,13.393-1.64a6.941,6.941,0,0,0,3.251-2.7,10.375,10.375,0,0,0,1.234-5.424,18.174,18.174,0,0,0-5.248-12.848A17.627,17.627,0,0,0,82.551,163.31Z" transform="translate(-62.173 -160.81)" fill="#fff"/>
          <path id="Trazado_875743" data-name="Trazado 875743" d="M82.284,193.733c-11.131-.014-20.111-.95-20.111-12.266a20.517,20.517,0,0,1,20.379-20.653c-5.728,0-10.371,9.247-10.371,20.653,0,11.229,4.5,12.238,10.1,12.266Z" transform="translate(-62.173 -160.814)" fill="#454045"/>
          <path id="Trazado_875743_-_Contorno" data-name="Trazado 875743 - Contorno" d="M82.281,196.233a76.515,76.515,0,0,1-8.11-.346,23.51,23.51,0,0,1-7.149-1.772,11.882,11.882,0,0,1-5.41-4.665,15.047,15.047,0,0,1-1.938-7.983,23.228,23.228,0,0,1,6.689-16.359,22.787,22.787,0,0,1,7.272-4.968,22.5,22.5,0,0,1,8.917-1.825v5a3.813,3.813,0,0,0-2.427,1.035,11.547,11.547,0,0,0-2.673,3.636,24.814,24.814,0,0,0-2.011,5.962,36.285,36.285,0,0,0-.76,7.519c0,4.343.717,7.2,2.132,8.483,1.152,1.048,3.026,1.27,5.484,1.283ZM72.71,166.305a18.219,18.219,0,0,0-8.037,15.161,10.414,10.414,0,0,0,1.216,5.395,6.892,6.892,0,0,0,3.2,2.7,13.1,13.1,0,0,0,2.005.7,22.456,22.456,0,0,1-1.413-8.8A36.419,36.419,0,0,1,72.71,166.305Z" transform="translate(-62.173 -160.814)" fill="#fff"/>
          <path id="Trazado_875744" data-name="Trazado 875744" d="M145.518,249.023a8.192,8.192,0,0,1-7.8,7.766q-5.422.256-10.844.1h-.006q-1.375-.038-2.75-.1a8.191,8.191,0,0,1-7.8-7.766q-.239-4.639-.038-9.28h0q.06-1.445.165-2.891c.668-3.174,3.284-5.887,6.938-7.478.108-.047.217-.093.326-.138A18.464,18.464,0,0,1,128.567,228a20.079,20.079,0,0,1,7.4.511h0c4.931,1.311,8.616,4.489,9.421,8.349a0,0,0,0,0,0,0A98.808,98.808,0,0,1,145.518,249.023Z" transform="translate(-110.506 -220.815)" fill="#f1d0a5"/>
          <path id="Trazado_875744_-_Contorno" data-name="Trazado 875744 - Contorno" d="M130.928,259.449c-1.356,0-2.732-.019-4.09-.057H126.8c-.91-.025-1.852-.061-2.8-.105a10.691,10.691,0,0,1-10.181-10.135c-.162-3.148-.176-6.341-.04-9.49v-.023c.04-.966.1-1.964.17-2.966l.012-.169.035-.166c.826-3.921,3.882-7.294,8.386-9.255l.007,0c.109-.047.237-.1.372-.157a20.917,20.917,0,0,1,5.512-1.4,22.361,22.361,0,0,1,2.644-.155,22.139,22.139,0,0,1,5.7.732l1.856.495v.1c4.659,1.73,8.046,4.995,9.176,8.891l.172.171.056.773.017.083v.158a101.776,101.776,0,0,1,.124,12.388,10.692,10.692,0,0,1-10.182,10.135C135.546,259.395,133.222,259.449,130.928,259.449Zm-4.027-5.057h.041c1.323.037,2.664.056,3.985.056,2.216,0,4.46-.053,6.67-.157a5.678,5.678,0,0,0,5.424-5.4,96.778,96.778,0,0,0-.061-10.918l-.069-.068v-.762a7.157,7.157,0,0,0-2.315-3.537,13.014,13.014,0,0,0-5.249-2.68l-.175-.047a17.6,17.6,0,0,0-6.288-.4h-.008a15.926,15.926,0,0,0-4.2,1.064c-.094.038-.194.081-.28.118a11.4,11.4,0,0,0-3.759,2.561,6.66,6.66,0,0,0-1.693,2.987c-.061.872-.11,1.739-.146,2.579l0,.056c-.13,3-.117,6.043.037,9.043a5.691,5.691,0,0,0,5.422,5.4C125.135,254.334,126.033,254.368,126.9,254.392Z" transform="translate(-110.506 -220.815)" fill="#fff"/>
          <path id="Trazado_875745" data-name="Trazado 875745" d="M126.873,268.564h-.006q-1.375-.038-2.75-.1a8.191,8.191,0,0,1-7.8-7.766,98.679,98.679,0,0,1,.127-12.171c.668-3.174,3.284-5.887,6.938-7.478.108-.047.217-.093.326-.138-.25,6.108-.31,14.958-.182,19.96C123.623,264.713,125.028,267.848,126.873,268.564Z" transform="translate(-110.507 -232.487)" fill="#f1b986"/>
          <path id="Trazado_875745_-_Contorno" data-name="Trazado 875745 - Contorno" d="M126.873,271.064H126.8c-.905-.025-1.847-.061-2.8-.1a10.691,10.691,0,0,1-10.181-10.135,101.635,101.635,0,0,1,.13-12.479l.012-.169.035-.166c.826-3.921,3.882-7.294,8.386-9.255l.007,0c.11-.047.238-.1.372-.157l3.6-1.472-.159,3.889c-.233,5.691-.314,14.57-.181,19.793.092,3.6,1.395,5.276,1.755,5.43Zm-7.95-22.176a96.62,96.62,0,0,0-.111,11.679,5.692,5.692,0,0,0,2.837,4.64,17.277,17.277,0,0,1-.624-4.275c-.105-4.11-.084-10.206.038-15.476q-.235.218-.448.445A6.66,6.66,0,0,0,118.922,248.888Z" transform="translate(-110.507 -232.487)" fill="#fff"/>
          <path id="Trazado_875746" data-name="Trazado 875746" d="M136.747,228.513h0c-2.428,4.164-8.249,9.638-10.566,8.331-.847-.479-.737-1.465-.259-2.527a18.806,18.806,0,0,1-3.616,4.442c-1.558,1.313-3.435,2.128-5.253.984h0q.06-1.445.165-2.891c.668-3.174,3.284-5.887,6.938-7.478.108-.047.217-.093.326-.138A18.464,18.464,0,0,1,129.344,228a20.08,20.08,0,0,1,7.4.511Z" transform="translate(-111.283 -220.815)" fill="#665e66"/>
          <path id="Trazado_875746_-_Contorno" data-name="Trazado 875746 - Contorno" d="M131.693,225.365a22.139,22.139,0,0,1,5.7.732l1.856.495v2.6l-.34.585a28.327,28.327,0,0,1-5.173,6.256c-2.565,2.331-4.832,3.512-6.736,3.512a4.2,4.2,0,0,1-1.6-.3,15.66,15.66,0,0,1-1.479,1.435,7.871,7.871,0,0,1-5.039,2.117,5.846,5.846,0,0,1-3.156-.93l-1.168-.735,0-1.485c.04-.965.1-1.963.17-2.966l.012-.169.035-.166c.826-3.921,3.882-7.294,8.386-9.255l.007,0c.109-.047.238-.1.372-.157a20.916,20.916,0,0,1,5.512-1.4A22.359,22.359,0,0,1,131.693,225.365Zm.592,5.01q-.295-.01-.592-.01a17.344,17.344,0,0,0-2.052.119h-.008a15.926,15.926,0,0,0-4.2,1.064c-.094.038-.189.079-.279.118a11.406,11.406,0,0,0-3.761,2.562,6.659,6.659,0,0,0-1.693,2.987q-.012.166-.023.332a5.594,5.594,0,0,0,1.019-.7,16.43,16.43,0,0,0,3.058-3.772l4.156,2.119a1.286,1.286,0,0,0-.5-.527.888.888,0,0,0-.413-.127h-.01c.272-.018,1.5-.478,3.476-2.3A24.678,24.678,0,0,0,132.285,230.375Z" transform="translate(-111.283 -220.815)" fill="#fff"/>
          <path id="Trazado_875747" data-name="Trazado 875747" d="M122.307,238.76c-1.558,1.313-3.435,2.128-5.253.984h0q.06-1.445.165-2.891c.668-3.174,3.284-5.887,6.938-7.478.108-.047.217-.093.326-.138A18.464,18.464,0,0,1,129.345,228a19.774,19.774,0,0,1,2.349-.137c-5.088,1.775-15.594,10.895-9.387,10.895Z" transform="translate(-111.284 -220.815)" fill="#454045"/>
          <path id="Trazado_875747_-_Contorno" data-name="Trazado 875747 - Contorno" d="M118.878,242.789a5.846,5.846,0,0,1-3.156-.93l-1.168-.735,0-1.485c.04-.965.1-1.963.17-2.966l.012-.169.035-.166c.826-3.921,3.882-7.294,8.386-9.255l.007,0c.11-.047.238-.1.372-.157a20.916,20.916,0,0,1,5.512-1.4,22.36,22.36,0,0,1,2.644-.155l.824,4.86a23.331,23.331,0,0,0-5.938,3.683,23.583,23.583,0,0,0-2.539,2.351h5.112l-5.235,4.412A7.872,7.872,0,0,1,118.878,242.789Z" transform="translate(-111.284 -220.815)" fill="#fff"/>
          <g id="Grupo_1100300" data-name="Grupo 1100300" transform="translate(8.797 24.48)">
            <ellipse id="Elipse_11530" data-name="Elipse 11530" cx="2.493" cy="1.581" rx="2.493" ry="1.581" fill="#df9380"/>
            <path id="Elipse_11530_-_Contorno" data-name="Elipse 11530 - Contorno" d="M2.493-2.5a5.85,5.85,0,0,1,3.1.852A3.822,3.822,0,0,1,7.486,1.581,3.822,3.822,0,0,1,5.594,4.81a5.85,5.85,0,0,1-3.1.852,5.85,5.85,0,0,1-3.1-.852A3.822,3.822,0,0,1-2.5,1.581,3.822,3.822,0,0,1-.609-1.648,5.85,5.85,0,0,1,2.493-2.5Z" fill="#fff"/>
            <ellipse id="Elipse_11531" data-name="Elipse 11531" cx="2.493" cy="1.581" rx="2.493" ry="1.581" transform="translate(18.24)" fill="#f9a58e"/>
            <path id="Elipse_11531_-_Contorno" data-name="Elipse 11531 - Contorno" d="M2.493-2.5a5.85,5.85,0,0,1,3.1.852A3.822,3.822,0,0,1,7.486,1.581,3.822,3.822,0,0,1,5.594,4.81a5.85,5.85,0,0,1-3.1.852,5.85,5.85,0,0,1-3.1-.852A3.822,3.822,0,0,1-2.5,1.581,3.822,3.822,0,0,1-.609-1.648,5.85,5.85,0,0,1,2.493-2.5Z" transform="translate(18.24)" fill="#fff"/>
          </g>
          <path id="Trazado_875748" data-name="Trazado 875748" d="M146.336,210.372a7.818,7.818,0,0,1-.141,1.481c-.989-5.154-7.1-9.121-14.5-9.121a19.787,19.787,0,0,0-2.349.137,18.477,18.477,0,0,0-4.576,1.121q-.31.119-.612.251c-3.7,1.613-6.342,4.378-6.964,7.608a7.84,7.84,0,0,1-.139-1.476c0-3.856,2.847-7.231,7.1-9.083q.661-.288,1.366-.525a18.672,18.672,0,0,1,3.822-.849,19.758,19.758,0,0,1,2.349-.136c8.086,0,14.64,4.743,14.64,10.593Z" transform="translate(-111.286 -195.682)" fill="#80b4fb"/>
          <path id="Trazado_875748_-_Contorno" data-name="Trazado 875748 - Contorno" d="M148.65,212.327l-4.91,0a7.76,7.76,0,0,0-3.732-4.854,15.669,15.669,0,0,0-8.312-2.238,17.344,17.344,0,0,0-2.052.119h-.009a15.954,15.954,0,0,0-3.956.967l-.01,0c-.165.064-.337.134-.509.209-3,1.308-5.063,3.472-5.509,5.79l-4.91,0a10.37,10.37,0,0,1-.184-1.947,10.936,10.936,0,0,1,2.5-6.853,15.88,15.88,0,0,1,6.1-4.522c.5-.22,1.031-.422,1.563-.6a21.192,21.192,0,0,1,4.328-.963,22.336,22.336,0,0,1,2.644-.154,20.248,20.248,0,0,1,11.818,3.577,13.6,13.6,0,0,1,3.83,4.131,10.557,10.557,0,0,1,1.492,5.385A10.343,10.343,0,0,1,148.65,212.327Z" transform="translate(-111.286 -195.682)" fill="#fff"/>
          <path id="Trazado_875749" data-name="Trazado 875749" d="M125.524,209.154l-.754,3.225q-.31.119-.612.251c-3.7,1.613-6.342,4.378-6.964,7.608a7.84,7.84,0,0,1-.139-1.476c0-3.856,2.847-7.231,7.1-9.083Q124.819,209.391,125.524,209.154Z" transform="translate(-111.285 -204.071)" fill="#5490f9"/>
          <path id="Trazado_875749_-_Contorno" data-name="Trazado 875749 - Contorno" d="M128.978,205.36l-2.076,8.877-1.235.475c-.165.064-.337.134-.509.209-3,1.308-5.063,3.472-5.509,5.79l-4.91,0a10.37,10.37,0,0,1-.184-1.947,10.936,10.936,0,0,1,2.5-6.853,15.88,15.88,0,0,1,6.1-4.522c.508-.221,1.036-.424,1.569-.6Z" transform="translate(-111.285 -204.071)" fill="#fff"/>
        </g>
        <path id="Trazado_875750" data-name="Trazado 875750" d="M20.177,23.256h-9.6A3.075,3.075,0,0,1,7.5,20.18v-9.6A3.075,3.075,0,0,1,10.575,7.5h9.6a3.075,3.075,0,0,1,3.075,3.075v9.6a3.075,3.075,0,0,1-3.075,3.075Z" transform="translate(-7.5 -7.503)" fill="#da4a54"/>
        <path id="Trazado_875750_-_Contorno" data-name="Trazado 875750 - Contorno" d="M20.177,25.756h-9.6A5.582,5.582,0,0,1,5,20.18v-9.6A5.582,5.582,0,0,1,10.575,5h9.6a5.582,5.582,0,0,1,5.575,5.575v9.6A5.582,5.582,0,0,1,20.177,25.756ZM10.575,10a.576.576,0,0,0-.575.575v9.6a.576.576,0,0,0,.575.575h9.6a.576.576,0,0,0,.575-.575v-9.6A.576.576,0,0,0,20.177,10Z" transform="translate(-7.5 -7.503)" fill="#fff"/>
        <path id="Trazado_875751" data-name="Trazado 875751" d="M12.806,23.255H10.575A3.076,3.076,0,0,1,7.5,20.18v-9.6A3.076,3.076,0,0,1,10.575,7.5h2.231a3.075,3.075,0,0,0-3.075,3.075v9.6A3.075,3.075,0,0,0,12.806,23.255Z" transform="translate(-7.5 -7.503)" fill="#c32430"/>
        <path id="Trazado_875751_-_Contorno" data-name="Trazado 875751 - Contorno" d="M12.806,25.755H10.575A5.582,5.582,0,0,1,5,20.18v-9.6A5.582,5.582,0,0,1,10.575,5h2.231v5a.576.576,0,0,0-.575.575v9.6a.576.576,0,0,0,.575.575Z" transform="translate(-7.5 -7.503)" fill="#fff"/>
        <path id="Trazado_875752" data-name="Trazado 875752" d="M367.346,23.256h-9.6a3.075,3.075,0,0,1-3.075-3.075v-9.6A3.075,3.075,0,0,1,357.744,7.5h9.6a3.075,3.075,0,0,1,3.075,3.075v9.6a3.075,3.075,0,0,1-3.075,3.075Z" transform="translate(-318.169 -7.503)" fill="#6ec17d"/>
        <path id="Trazado_875752_-_Contorno" data-name="Trazado 875752 - Contorno" d="M367.346,25.756h-9.6a5.582,5.582,0,0,1-5.575-5.575v-9.6A5.582,5.582,0,0,1,357.744,5h9.6a5.582,5.582,0,0,1,5.575,5.575v9.6A5.582,5.582,0,0,1,367.346,25.756ZM357.744,10a.576.576,0,0,0-.575.575v9.6a.576.576,0,0,0,.575.575h9.6a.576.576,0,0,0,.575-.575v-9.6a.576.576,0,0,0-.575-.575Z" transform="translate(-318.169 -7.503)" fill="#fff"/>
        <path id="Trazado_875753" data-name="Trazado 875753" d="M359.976,23.256h-2.231a3.076,3.076,0,0,1-3.075-3.075v-9.6A3.076,3.076,0,0,1,357.745,7.5h2.231a3.075,3.075,0,0,0-3.075,3.075v9.6A3.075,3.075,0,0,0,359.976,23.256Z" transform="translate(-318.17 -7.504)" fill="#5ea570"/>
        <path id="Trazado_875753_-_Contorno" data-name="Trazado 875753 - Contorno" d="M359.976,25.756h-2.231a5.582,5.582,0,0,1-5.575-5.575v-9.6A5.582,5.582,0,0,1,357.745,5h2.231v5a.576.576,0,0,0-.575.575v9.6a.576.576,0,0,0,.575.575Z" transform="translate(-318.17 -7.504)" fill="#fff"/>
      </g>
      <g id="Grupo_1100303" data-name="Grupo 1100303" transform="translate(0 0.004)">
        <path id="Trazado_875754" data-name="Trazado 875754" d="M75.837,153.313A21.33,21.33,0,0,0,54.67,174.754c0,5.706,2.229,9.4,6.807,11.287a8.954,8.954,0,0,0,7.554,4.821c2.269.107,4.553.161,6.837.161s4.569-.054,6.837-.161a8.956,8.956,0,0,0,7.572-4.853,10.692,10.692,0,0,0,4.142-2.919.789.789,0,0,0-1.2-1.022,8.429,8.429,0,0,1-2.169,1.8,9.107,9.107,0,0,0,.209-1.519,100.057,100.057,0,0,0-.109-11.969,8.608,8.608,0,0,0,.148-1.589c0-3.089-1.639-5.976-4.614-8.129a18.529,18.529,0,0,0-10.815-3.252,20.631,20.631,0,0,0-2.441.142,19.06,19.06,0,0,0-5.411,1.434,14.17,14.17,0,0,0-5.449,4.021,9.244,9.244,0,0,0-2.128,5.785,8.665,8.665,0,0,0,.149,1.595,99.868,99.868,0,0,0-.109,11.963A9.112,9.112,0,0,0,60.7,183.9c-3.025-1.765-4.449-4.717-4.449-9.15a19.592,19.592,0,1,1,39.18,0,13.736,13.736,0,0,1-.784,4.883.788.788,0,1,0,1.473.563A15.286,15.286,0,0,0,97,174.754,21.329,21.329,0,0,0,75.837,153.313Zm6.795,35.975c-4.487.212-9.038.212-13.526,0a7.382,7.382,0,0,1-7.051-7.019c-.137-2.669-.161-5.363-.078-8.051a4,4,0,0,0,1.071.147,4.477,4.477,0,0,0,1.094-.14c2.068-.52,3.922-2.445,5.143-4.022a2.053,2.053,0,0,0,.685.614c1.746.986,4.3-.651,6.137-2.2a27.128,27.128,0,0,0,5.176-5.895c4.305,1.3,7.545,4.115,8.281,7.543a98.49,98.49,0,0,1,.121,12,7.384,7.384,0,0,1-7.052,7.019ZM63.8,163.99a12.6,12.6,0,0,1,4.846-3.559,17.493,17.493,0,0,1,4.967-1.313,19.071,19.071,0,0,1,2.256-.131c6.2,0,11.455,2.895,13.22,6.874a13.111,13.111,0,0,0-3.145-2.747,18.988,18.988,0,0,0-10.075-2.751,20.62,20.62,0,0,0-2.441.142,19.071,19.071,0,0,0-5.412,1.433,14.2,14.2,0,0,0-5.345,3.883A8.622,8.622,0,0,1,63.8,163.99Zm4.846-.607a17.5,17.5,0,0,1,4.967-1.313,19.317,19.317,0,0,1,6.051.247,26.177,26.177,0,0,1-4.574,5.1c-2.352,1.981-3.811,2.332-4.345,2.03-.324-.183-.3-.694.074-1.518a.789.789,0,0,0-1.4-.715c-.748,1.318-3.222,4.872-5.658,5.484a2.575,2.575,0,0,1-1.715-.124c.037-.774.081-1.548.136-2.319C62.8,167.406,65.143,164.909,68.646,163.383Z" transform="translate(-48.922 -137.195)"/>
        <path id="Trazado_875754_-_Contorno" data-name="Trazado 875754 - Contorno" d="M75.837,150.813a23.238,23.238,0,0,1,9.217,1.89,23.614,23.614,0,0,1,7.522,5.14,24.013,24.013,0,0,1,6.927,16.91,17.755,17.755,0,0,1-1.053,6.339,3.292,3.292,0,0,1-1.345,1.62,3.264,3.264,0,0,1-.782,2,12.774,12.774,0,0,1-4.276,3.243,11.456,11.456,0,0,1-9.224,5.406c-2.3.108-4.636.163-6.955.163s-4.658-.055-6.955-.163a11.454,11.454,0,0,1-9.2-5.367,12.6,12.6,0,0,1-5.5-4.871,16.01,16.01,0,0,1-2.046-8.367A23.832,23.832,0,0,1,75.837,150.813Zm-2.9,15.125c.168-.13.347-.274.539-.436.367-.309.741-.651,1.113-1.015q-.346.026-.682.066H73.9a16,16,0,0,0-1.928.343A3.273,3.273,0,0,1,72.94,165.938Zm14.142,4.7c-.492-1.966-2.285-3.751-4.852-4.9a30.291,30.291,0,0,1-4.514,4.792c-2.464,2.075-4.606,3.084-6.548,3.084a5.074,5.074,0,0,1-1.368-.183,10.871,10.871,0,0,1-5.049,3.215q-.16.04-.32.073c-.011,1.823.029,3.638.121,5.418a4.891,4.891,0,0,0,4.672,4.65c2.195.1,4.43.156,6.645.156s4.451-.053,6.645-.156a4.892,4.892,0,0,0,4.673-4.65A95.985,95.985,0,0,0,87.082,170.639Z" transform="translate(-48.922 -137.195)" fill="#fff"/>
        <path id="Trazado_875755" data-name="Trazado 875755" d="M306.96,347.532a6.993,6.993,0,0,0-1.385-.127,2.711,2.711,0,0,0,.2-1.051c0-1.091-.6-1.979-1.328-1.979s-1.328.888-1.328,1.979a2.532,2.532,0,0,0,.393,1.4,3.971,3.971,0,0,0-.631.278.79.79,0,0,0,.4,1.472.781.781,0,0,0,.4-.108,4.616,4.616,0,0,1,2.984-.319.789.789,0,0,0,.3-1.549Z" transform="translate(-270.691 -308.169)"/>
        <path id="Trazado_875755_-_Contorno" data-name="Trazado 875755 - Contorno" d="M303.282,352.008a3.3,3.3,0,0,1-2.837-1.627,3.3,3.3,0,0,1,.194-3.62q-.015-.2-.015-.406c0-2.511,1.681-4.479,3.828-4.479a3.958,3.958,0,0,1,3.729,3.441,3.289,3.289,0,0,1-1.368,6.279h0a3.3,3.3,0,0,1-.622-.059,3.027,3.027,0,0,0-.571-.057,2.072,2.072,0,0,0-.767.128A3.286,3.286,0,0,1,303.282,352.008Z" transform="translate(-270.691 -308.169)" fill="#fff"/>
        <path id="Trazado_875756" data-name="Trazado 875756" d="M166.265,348.037a3.986,3.986,0,0,0-.631-.278,2.532,2.532,0,0,0,.393-1.4c0-1.091-.6-1.979-1.328-1.979s-1.328.888-1.328,1.979a2.711,2.711,0,0,0,.2,1.051,6.988,6.988,0,0,0-1.385.127.788.788,0,1,0,.3,1.549,4.622,4.622,0,0,1,2.983.319.789.789,0,0,0,.793-1.363Z" transform="translate(-144.567 -308.17)"/>
        <path id="Trazado_875756_-_Contorno" data-name="Trazado 875756 - Contorno" d="M165.866,352.006a3.292,3.292,0,0,1-1.565-.4,2.069,2.069,0,0,0-.769-.129,3.023,3.023,0,0,0-.57.056,3.289,3.289,0,0,1-1.991-6.219,3.958,3.958,0,0,1,3.729-3.441c2.147,0,3.828,1.967,3.828,4.479q0,.2-.015.406a3.29,3.29,0,0,1-2.647,5.245Z" transform="translate(-144.567 -308.17)" fill="#fff"/>
        <path id="Trazado_875757" data-name="Trazado 875757" d="M216.638,428.971a.788.788,0,0,0,.009,1.577h0a4.215,4.215,0,0,1,2.554.759.788.788,0,1,0,1.115-1.115A5.724,5.724,0,0,0,216.638,428.971Z" transform="translate(-193.163 -383.871)"/>
        <path id="Trazado_875757_-_Contorno" data-name="Trazado 875757 - Contorno" d="M216.672,426.47a8.036,8.036,0,0,1,5.416,1.954,3.289,3.289,0,0,1-4.528,4.767,3.232,3.232,0,0,0-.88-.144h-.029a3.288,3.288,0,0,1-.037-6.577Z" transform="translate(-193.163 -383.871)" fill="#fff"/>
        <path id="Trazado_875758" data-name="Trazado 875758" d="M17.329,13.47v-9.6A3.868,3.868,0,0,0,13.466,0H7.672a.789.789,0,1,0,0,1.577h5.794a2.289,2.289,0,0,1,2.287,2.287v9.6a2.289,2.289,0,0,1-2.287,2.287h-9.6A2.289,2.289,0,0,1,1.577,13.47v-9.6A2.289,2.289,0,0,1,3.864,1.581h.654A.789.789,0,1,0,4.518,0H3.864A3.868,3.868,0,0,0,0,3.868v9.6a3.868,3.868,0,0,0,3.864,3.864h9.6A3.868,3.868,0,0,0,17.329,13.47Z" transform="translate(0 -0.004)"/>
        <path id="Trazado_875758_-_Contorno" data-name="Trazado 875758 - Contorno" d="M13.466,19.833h-9.6A6.371,6.371,0,0,1-2.5,13.47v-9.6A6.371,6.371,0,0,1,3.864-2.5h.654a3.268,3.268,0,0,1,1.577.4,3.268,3.268,0,0,1,1.577-.4h5.794a6.371,6.371,0,0,1,6.364,6.364v9.6A6.371,6.371,0,0,1,13.466,19.833ZM4.077,13.256h9.175V4.081H7.672a3.268,3.268,0,0,1-1.577-.4,3.268,3.268,0,0,1-1.577.4H4.077Z" transform="translate(0 -0.004)" fill="#fff"/>
        <path id="Trazado_875759" data-name="Trazado 875759" d="M360.636,0h-9.6a3.868,3.868,0,0,0-3.864,3.864v9.6a3.868,3.868,0,0,0,3.864,3.864h9.6A3.868,3.868,0,0,0,364.5,13.47v-9.6A3.868,3.868,0,0,0,360.636,0Zm2.287,13.466a2.289,2.289,0,0,1-2.287,2.287h-9.6a2.289,2.289,0,0,1-2.287-2.287v-9.6a2.289,2.289,0,0,1,2.287-2.287h9.6a2.289,2.289,0,0,1,2.287,2.287Z" transform="translate(-310.67 -0.004)"/>
        <path id="Trazado_875759_-_Contorno" data-name="Trazado 875759 - Contorno" d="M351.034-2.5h9.6A6.371,6.371,0,0,1,367,3.868v9.6a6.371,6.371,0,0,1-6.364,6.364h-9.6a6.371,6.371,0,0,1-6.364-6.364v-9.6A6.371,6.371,0,0,1,351.034-2.5Zm9.389,6.577h-9.175v9.175h9.175Z" transform="translate(-310.67 -0.004)" fill="#fff"/>
        <path id="Trazado_875760" data-name="Trazado 875760" d="M217.405,14.933a.789.789,0,0,0,.789-.789,2.6,2.6,0,0,1,.025-.359,2.563,2.563,0,1,1,2.539,2.922.789.789,0,0,0-.789.789V19.95a.789.789,0,1,0,1.577,0v-1.74a4.147,4.147,0,0,0,3.347-4.286,4.141,4.141,0,0,0-8.276.219A.788.788,0,0,0,217.405,14.933Z" transform="translate(-193.843 -8.952)"/>
        <path id="Trazado_875760_-_Contorno" data-name="Trazado 875760 - Contorno" d="M220.761,7.5h.131a6.662,6.662,0,0,1,6.5,6.291,6.586,6.586,0,0,1-1.816,4.921,6.67,6.67,0,0,1-1.527,1.2v.033a3.289,3.289,0,1,1-6.577,0V17.5c0-.021,0-.043,0-.064h-.064a3.288,3.288,0,0,1-3.288-3.29,6.643,6.643,0,0,1,6.644-6.64Z" transform="translate(-193.843 -8.952)" fill="#fff"/>
        <path id="Trazado_875761" data-name="Trazado 875761" d="M249.289,121.041a.789.789,0,0,0-.789.789v.053a.789.789,0,1,0,1.577,0v-.053A.788.788,0,0,0,249.289,121.041Z" transform="translate(-222.374 -108.316)"/>
        <path id="Trazado_875761_-_Contorno" data-name="Trazado 875761 - Contorno" d="M249.289,118.541a3.292,3.292,0,0,1,3.289,3.289v.053a3.289,3.289,0,0,1-6.577,0v-.053A3.292,3.292,0,0,1,249.289,118.541Z" transform="translate(-222.374 -108.316)" fill="#fff"/>
        <path id="Trazado_875762" data-name="Trazado 875762" d="M49.253,40.95a.788.788,0,0,0-1.115,0L45.1,43.988,42.062,40.95a.788.788,0,1,0-1.115,1.115L43.985,45.1l-3.038,3.038a.788.788,0,1,0,1.115,1.115L45.1,46.218l3.038,3.038a.788.788,0,1,0,1.115-1.115L46.215,45.1l3.038-3.038A.788.788,0,0,0,49.253,40.95Z" transform="translate(-36.436 -36.439)"/>
        <path id="Trazado_875762_-_Contorno" data-name="Trazado 875762 - Contorno" d="M41.5,38.219a3.267,3.267,0,0,1,2.325.963l1.27,1.27,1.27-1.27a3.288,3.288,0,1,1,4.65,4.651l-1.27,1.27,1.27,1.27a3.288,3.288,0,1,1-4.651,4.65l-1.27-1.27-1.27,1.27a3.288,3.288,0,1,1-4.651-4.651l1.27-1.27-1.27-1.27A3.288,3.288,0,0,1,41.5,38.219Z" transform="translate(-36.436 -36.439)" fill="#fff"/>
        <path id="Trazado_875763" data-name="Trazado 875763" d="M393.684,34.723a.788.788,0,0,0-1.065.329l-3.9,7.391-2.647-3.4a.788.788,0,1,0-1.245.968l3.4,4.369a.789.789,0,0,0,.622.3c.023,0,.046,0,.069,0a.789.789,0,0,0,.628-.417l4.473-8.471A.788.788,0,0,0,393.684,34.723Z" transform="translate(-344.216 -30.991)"/>
        <path id="Trazado_875763_-_Contorno" data-name="Trazado 875763 - Contorno" d="M393.316,32.131h0a3.3,3.3,0,0,1,1.535.381,3.288,3.288,0,0,1,1.373,4.443l-4.473,8.471a3.276,3.276,0,0,1-2.62,1.74c-.1.008-.193.013-.288.013a3.267,3.267,0,0,1-2.6-1.27l-3.4-4.369a3.288,3.288,0,0,1,.578-4.615,3.3,3.3,0,0,1,2.018-.692,3.268,3.268,0,0,1,2.6,1.27l.271.348,2.1-3.968A3.281,3.281,0,0,1,393.316,32.131Z" transform="translate(-344.216 -30.991)" fill="#fff"/>
      </g>
    </g>
    <g id="pregunta_1_2" data-name="pregunta (1)" transform="translate(743.051 7992.996)">
      <g id="Grupo_1100302-2" data-name="Grupo 1100302" transform="translate(0.789 0.792)">
        <g id="Grupo_1100301-2" data-name="Grupo 1100301" transform="translate(5.748 16.118)">
          <path id="Trazado_875742-2" data-name="Trazado 875742" d="M102.929,181.463a20.38,20.38,0,1,0-40.756,0c0,11.406,9.124,12.267,20.378,12.267S102.929,192.87,102.929,181.463Z" transform="translate(-62.173 -160.81)" fill="#665e66"/>
          <path id="Trazado_875743-2" data-name="Trazado 875743" d="M82.284,193.733c-11.131-.014-20.111-.95-20.111-12.266a20.517,20.517,0,0,1,20.379-20.653c-5.728,0-10.371,9.247-10.371,20.653,0,11.229,4.5,12.238,10.1,12.266Z" transform="translate(-62.173 -160.814)" fill="#454045"/>
          <path id="Trazado_875744-2" data-name="Trazado 875744" d="M145.518,249.023a8.192,8.192,0,0,1-7.8,7.766q-5.422.256-10.844.1h-.006q-1.375-.038-2.75-.1a8.191,8.191,0,0,1-7.8-7.766q-.239-4.639-.038-9.28h0q.06-1.445.165-2.891c.668-3.174,3.284-5.887,6.938-7.478.108-.047.217-.093.326-.138A18.464,18.464,0,0,1,128.567,228a20.079,20.079,0,0,1,7.4.511h0c4.931,1.311,8.616,4.489,9.421,8.349a0,0,0,0,0,0,0A98.808,98.808,0,0,1,145.518,249.023Z" transform="translate(-110.506 -220.815)" fill="#f1d0a5"/>
          <path id="Trazado_875745-2" data-name="Trazado 875745" d="M126.873,268.564h-.006q-1.375-.038-2.75-.1a8.191,8.191,0,0,1-7.8-7.766,98.679,98.679,0,0,1,.127-12.171c.668-3.174,3.284-5.887,6.938-7.478.108-.047.217-.093.326-.138-.25,6.108-.31,14.958-.182,19.96C123.623,264.713,125.028,267.848,126.873,268.564Z" transform="translate(-110.507 -232.487)" fill="#f1b986"/>
          <path id="Trazado_875746-2" data-name="Trazado 875746" d="M136.747,228.513h0c-2.428,4.164-8.249,9.638-10.566,8.331-.847-.479-.737-1.465-.259-2.527a18.806,18.806,0,0,1-3.616,4.442c-1.558,1.313-3.435,2.128-5.253.984h0q.06-1.445.165-2.891c.668-3.174,3.284-5.887,6.938-7.478.108-.047.217-.093.326-.138A18.464,18.464,0,0,1,129.344,228a20.08,20.08,0,0,1,7.4.511Z" transform="translate(-111.283 -220.815)" fill="#665e66"/>
          <path id="Trazado_875747-2" data-name="Trazado 875747" d="M122.307,238.76c-1.558,1.313-3.435,2.128-5.253.984h0q.06-1.445.165-2.891c.668-3.174,3.284-5.887,6.938-7.478.108-.047.217-.093.326-.138A18.464,18.464,0,0,1,129.345,228a19.774,19.774,0,0,1,2.349-.137c-5.088,1.775-15.594,10.895-9.387,10.895Z" transform="translate(-111.284 -220.815)" fill="#454045"/>
          <g id="Grupo_1100300-2" data-name="Grupo 1100300" transform="translate(8.797 24.48)">
            <ellipse id="Elipse_11530-2" data-name="Elipse 11530" cx="2.493" cy="1.581" rx="2.493" ry="1.581" fill="#df9380"/>
            <ellipse id="Elipse_11531-2" data-name="Elipse 11531" cx="2.493" cy="1.581" rx="2.493" ry="1.581" transform="translate(18.24)" fill="#f9a58e"/>
          </g>
          <path id="Trazado_875748-2" data-name="Trazado 875748" d="M146.336,210.372a7.818,7.818,0,0,1-.141,1.481c-.989-5.154-7.1-9.121-14.5-9.121a19.787,19.787,0,0,0-2.349.137,18.477,18.477,0,0,0-4.576,1.121q-.31.119-.612.251c-3.7,1.613-6.342,4.378-6.964,7.608a7.84,7.84,0,0,1-.139-1.476c0-3.856,2.847-7.231,7.1-9.083q.661-.288,1.366-.525a18.672,18.672,0,0,1,3.822-.849,19.758,19.758,0,0,1,2.349-.136c8.086,0,14.64,4.743,14.64,10.593Z" transform="translate(-111.286 -195.682)" fill="#80b4fb"/>
          <path id="Trazado_875749-2" data-name="Trazado 875749" d="M125.524,209.154l-.754,3.225q-.31.119-.612.251c-3.7,1.613-6.342,4.378-6.964,7.608a7.84,7.84,0,0,1-.139-1.476c0-3.856,2.847-7.231,7.1-9.083Q124.819,209.391,125.524,209.154Z" transform="translate(-111.285 -204.071)" fill="#5490f9"/>
        </g>
        <path id="Trazado_875750-2" data-name="Trazado 875750" d="M20.177,23.256h-9.6A3.075,3.075,0,0,1,7.5,20.18v-9.6A3.075,3.075,0,0,1,10.575,7.5h9.6a3.075,3.075,0,0,1,3.075,3.075v9.6a3.075,3.075,0,0,1-3.075,3.075Z" transform="translate(-7.5 -7.503)" fill="#da4a54"/>
        <path id="Trazado_875751-2" data-name="Trazado 875751" d="M12.806,23.255H10.575A3.076,3.076,0,0,1,7.5,20.18v-9.6A3.076,3.076,0,0,1,10.575,7.5h2.231a3.075,3.075,0,0,0-3.075,3.075v9.6A3.075,3.075,0,0,0,12.806,23.255Z" transform="translate(-7.5 -7.503)" fill="#c32430"/>
        <path id="Trazado_875752-2" data-name="Trazado 875752" d="M367.346,23.256h-9.6a3.075,3.075,0,0,1-3.075-3.075v-9.6A3.075,3.075,0,0,1,357.744,7.5h9.6a3.075,3.075,0,0,1,3.075,3.075v9.6a3.075,3.075,0,0,1-3.075,3.075Z" transform="translate(-318.169 -7.503)" fill="#6ec17d"/>
        <path id="Trazado_875753-2" data-name="Trazado 875753" d="M359.976,23.256h-2.231a3.076,3.076,0,0,1-3.075-3.075v-9.6A3.076,3.076,0,0,1,357.745,7.5h2.231a3.075,3.075,0,0,0-3.075,3.075v9.6A3.075,3.075,0,0,0,359.976,23.256Z" transform="translate(-318.17 -7.504)" fill="#5ea570"/>
      </g>
      <g id="Grupo_1100303-2" data-name="Grupo 1100303" transform="translate(0 0.004)">
        <path id="Trazado_875754-2" data-name="Trazado 875754" d="M75.837,153.313A21.33,21.33,0,0,0,54.67,174.754c0,5.706,2.229,9.4,6.807,11.287a8.954,8.954,0,0,0,7.554,4.821c2.269.107,4.553.161,6.837.161s4.569-.054,6.837-.161a8.956,8.956,0,0,0,7.572-4.853,10.692,10.692,0,0,0,4.142-2.919.789.789,0,0,0-1.2-1.022,8.429,8.429,0,0,1-2.169,1.8,9.107,9.107,0,0,0,.209-1.519,100.057,100.057,0,0,0-.109-11.969,8.608,8.608,0,0,0,.148-1.589c0-3.089-1.639-5.976-4.614-8.129a18.529,18.529,0,0,0-10.815-3.252,20.631,20.631,0,0,0-2.441.142,19.06,19.06,0,0,0-5.411,1.434,14.17,14.17,0,0,0-5.449,4.021,9.244,9.244,0,0,0-2.128,5.785,8.665,8.665,0,0,0,.149,1.595,99.868,99.868,0,0,0-.109,11.963A9.112,9.112,0,0,0,60.7,183.9c-3.025-1.765-4.449-4.717-4.449-9.15a19.592,19.592,0,1,1,39.18,0,13.736,13.736,0,0,1-.784,4.883.788.788,0,1,0,1.473.563A15.286,15.286,0,0,0,97,174.754,21.329,21.329,0,0,0,75.837,153.313Zm6.795,35.975c-4.487.212-9.038.212-13.526,0a7.382,7.382,0,0,1-7.051-7.019c-.137-2.669-.161-5.363-.078-8.051a4,4,0,0,0,1.071.147,4.477,4.477,0,0,0,1.094-.14c2.068-.52,3.922-2.445,5.143-4.022a2.053,2.053,0,0,0,.685.614c1.746.986,4.3-.651,6.137-2.2a27.128,27.128,0,0,0,5.176-5.895c4.305,1.3,7.545,4.115,8.281,7.543a98.49,98.49,0,0,1,.121,12,7.384,7.384,0,0,1-7.052,7.019ZM63.8,163.99a12.6,12.6,0,0,1,4.846-3.559,17.493,17.493,0,0,1,4.967-1.313,19.071,19.071,0,0,1,2.256-.131c6.2,0,11.455,2.895,13.22,6.874a13.111,13.111,0,0,0-3.145-2.747,18.988,18.988,0,0,0-10.075-2.751,20.62,20.62,0,0,0-2.441.142,19.071,19.071,0,0,0-5.412,1.433,14.2,14.2,0,0,0-5.345,3.883A8.622,8.622,0,0,1,63.8,163.99Zm4.846-.607a17.5,17.5,0,0,1,4.967-1.313,19.317,19.317,0,0,1,6.051.247,26.177,26.177,0,0,1-4.574,5.1c-2.352,1.981-3.811,2.332-4.345,2.03-.324-.183-.3-.694.074-1.518a.789.789,0,0,0-1.4-.715c-.748,1.318-3.222,4.872-5.658,5.484a2.575,2.575,0,0,1-1.715-.124c.037-.774.081-1.548.136-2.319C62.8,167.406,65.143,164.909,68.646,163.383Z" transform="translate(-48.922 -137.195)"/>
        <path id="Trazado_875755-2" data-name="Trazado 875755" d="M306.96,347.532a6.993,6.993,0,0,0-1.385-.127,2.711,2.711,0,0,0,.2-1.051c0-1.091-.6-1.979-1.328-1.979s-1.328.888-1.328,1.979a2.532,2.532,0,0,0,.393,1.4,3.971,3.971,0,0,0-.631.278.79.79,0,0,0,.4,1.472.781.781,0,0,0,.4-.108,4.616,4.616,0,0,1,2.984-.319.789.789,0,0,0,.3-1.549Z" transform="translate(-270.691 -308.169)"/>
        <path id="Trazado_875756-2" data-name="Trazado 875756" d="M166.265,348.037a3.986,3.986,0,0,0-.631-.278,2.532,2.532,0,0,0,.393-1.4c0-1.091-.6-1.979-1.328-1.979s-1.328.888-1.328,1.979a2.711,2.711,0,0,0,.2,1.051,6.988,6.988,0,0,0-1.385.127.788.788,0,1,0,.3,1.549,4.622,4.622,0,0,1,2.983.319.789.789,0,0,0,.793-1.363Z" transform="translate(-144.567 -308.17)"/>
        <path id="Trazado_875757-2" data-name="Trazado 875757" d="M216.638,428.971a.788.788,0,0,0,.009,1.577h0a4.215,4.215,0,0,1,2.554.759.788.788,0,1,0,1.115-1.115A5.724,5.724,0,0,0,216.638,428.971Z" transform="translate(-193.163 -383.871)"/>
        <path id="Trazado_875758-2" data-name="Trazado 875758" d="M17.329,13.47v-9.6A3.868,3.868,0,0,0,13.466,0H7.672a.789.789,0,1,0,0,1.577h5.794a2.289,2.289,0,0,1,2.287,2.287v9.6a2.289,2.289,0,0,1-2.287,2.287h-9.6A2.289,2.289,0,0,1,1.577,13.47v-9.6A2.289,2.289,0,0,1,3.864,1.581h.654A.789.789,0,1,0,4.518,0H3.864A3.868,3.868,0,0,0,0,3.868v9.6a3.868,3.868,0,0,0,3.864,3.864h9.6A3.868,3.868,0,0,0,17.329,13.47Z" transform="translate(0 -0.004)"/>
        <path id="Trazado_875759-2" data-name="Trazado 875759" d="M360.636,0h-9.6a3.868,3.868,0,0,0-3.864,3.864v9.6a3.868,3.868,0,0,0,3.864,3.864h9.6A3.868,3.868,0,0,0,364.5,13.47v-9.6A3.868,3.868,0,0,0,360.636,0Zm2.287,13.466a2.289,2.289,0,0,1-2.287,2.287h-9.6a2.289,2.289,0,0,1-2.287-2.287v-9.6a2.289,2.289,0,0,1,2.287-2.287h9.6a2.289,2.289,0,0,1,2.287,2.287Z" transform="translate(-310.67 -0.004)"/>
        <path id="Trazado_875760-2" data-name="Trazado 875760" d="M217.405,14.933a.789.789,0,0,0,.789-.789,2.6,2.6,0,0,1,.025-.359,2.563,2.563,0,1,1,2.539,2.922.789.789,0,0,0-.789.789V19.95a.789.789,0,1,0,1.577,0v-1.74a4.147,4.147,0,0,0,3.347-4.286,4.141,4.141,0,0,0-8.276.219A.788.788,0,0,0,217.405,14.933Z" transform="translate(-193.843 -8.952)"/>
        <path id="Trazado_875761-2" data-name="Trazado 875761" d="M249.289,121.041a.789.789,0,0,0-.789.789v.053a.789.789,0,1,0,1.577,0v-.053A.788.788,0,0,0,249.289,121.041Z" transform="translate(-222.374 -108.316)"/>
        <path id="Trazado_875762-2" data-name="Trazado 875762" d="M49.253,40.95a.788.788,0,0,0-1.115,0L45.1,43.988,42.062,40.95a.788.788,0,1,0-1.115,1.115L43.985,45.1l-3.038,3.038a.788.788,0,1,0,1.115,1.115L45.1,46.218l3.038,3.038a.788.788,0,1,0,1.115-1.115L46.215,45.1l3.038-3.038A.788.788,0,0,0,49.253,40.95Z" transform="translate(-36.436 -36.439)"/>
        <path id="Trazado_875763-2" data-name="Trazado 875763" d="M393.684,34.723a.788.788,0,0,0-1.065.329l-3.9,7.391-2.647-3.4a.788.788,0,1,0-1.245.968l3.4,4.369a.789.789,0,0,0,.622.3c.023,0,.046,0,.069,0a.789.789,0,0,0,.628-.417l4.473-8.471A.788.788,0,0,0,393.684,34.723Z" transform="translate(-344.216 -30.991)"/>
      </g>
    </g>
  </g>
</svg>
