<svg xmlns="http://www.w3.org/2000/svg" width="89" height="89" viewBox="0 0 89 89">
  <g id="Grupo_1100037" data-name="Grupo 1100037" transform="translate(-767.051 -859)">
    <rect id="Rectángulo_400898" data-name="Rectángulo 400898" width="89" height="89" rx="44.5" transform="translate(767.051 859)" fill="#e9bd68"/>
    <g id="Grupo_1100035" data-name="Grupo 1100035" transform="translate(0.19 2.246)">
      <g id="Grupo_1100034" data-name="Grupo 1100034">
        <g id="caminar-" transform="translate(765.47 874.753)">
          <path id="Trazado_874828" data-name="Trazado 874828" d="M149.713,30.079a4.627,4.627,0,0,1,4.532.242,5.645,5.645,0,1,0-4.532-.242Z" transform="translate(-111.363 -17.388)" fill="#fff"/>
          <path id="Trazado_874828_-_Contorno" data-name="Trazado 874828 - Contorno" d="M154.245,33.32a3,3,0,0,1-1.61-.468,1.6,1.6,0,0,0-.871-.253,4.744,4.744,0,0,1-3.4.157,8.643,8.643,0,1,1,6.943.371A3,3,0,0,1,154.245,33.32Zm-2.48-6.721a7.621,7.621,0,0,1,2.307.357,2.642,2.642,0,1,0-3.834-.2A7.643,7.643,0,0,1,151.765,26.6Z" transform="translate(-111.363 -17.388)" fill="#fff"/>
          <g id="Grupo_874829" data-name="Grupo 874829" opacity="0.1">
            <path id="Trazado_874829" data-name="Trazado 874829" d="M149.714,30.08a4.607,4.607,0,0,1,2.042-.479,5.645,5.645,0,0,1,1.911-10.026,5.645,5.645,0,0,0-3.953,10.505Z" transform="translate(-111.364 -17.389)" fill="#fff"/>
            <path id="Trazado_874829_-_Contorno" data-name="Trazado 874829 - Contorno" d="M149.711,33.007a3.125,3.125,0,0,1-1.35-.25,8.645,8.645,0,0,1,6.055-16.088,3,3,0,0,1,0,5.81,2.645,2.645,0,0,0-.891,4.7,3,3,0,0,1-1.763,5.423A5.034,5.034,0,0,1,149.711,33.007Z" transform="translate(-111.364 -17.389)" fill="#fff"/>
          </g>
          <path id="Trazado_874830" data-name="Trazado 874830" d="M157.78,13.2V11.831A4.331,4.331,0,0,0,153.449,7.5h-2.508a4.331,4.331,0,0,0-4.331,4.331V13.2Z" transform="translate(-111.364 -6.724)" fill="#fff"/>
          <path id="Trazado_874830_-_Contorno" data-name="Trazado 874830 - Contorno" d="M157.78,16.2H146.61a3,3,0,0,1-3-3V11.831A7.34,7.34,0,0,1,150.941,4.5h2.508a7.34,7.34,0,0,1,7.331,7.331V13.2A3,3,0,0,1,157.78,16.2Z" transform="translate(-111.364 -6.724)" fill="#fff"/>
          <g id="Grupo_1100029" data-name="Grupo 1100029" transform="translate(35.246 0.776)" opacity="0.1">
            <path id="Trazado_874831" data-name="Trazado 874831" d="M153.612,7.5c-.054,0-.109,0-.163,0H150.94a4.331,4.331,0,0,0-4.331,4.331V13.2h2.835V11.831A4.331,4.331,0,0,1,153.612,7.5Z" transform="translate(-146.609 -7.5)" fill="#fff"/>
            <path id="Trazado_874831_-_Contorno" data-name="Trazado 874831 - Contorno" d="M150.94,4.5h2.508a3.074,3.074,0,0,1,3.081,2.946,2.934,2.934,0,0,1-2.806,3.056,1.325,1.325,0,0,0-1.279,1.329V13.2a3,3,0,0,1-3,3h-2.835a3,3,0,0,1-3-3V11.831A7.34,7.34,0,0,1,150.94,4.5Z" transform="translate(-146.609 -7.5)" fill="#fff"/>
          </g>
          <path id="Trazado_874832" data-name="Trazado 874832" d="M209.725,306.126a6.538,6.538,0,0,0-1.672-3.3L204,298.782h-3.68v2.972l4.4,4.4a2.153,2.153,0,0,1,.355.7L206.806,318a.517.517,0,0,1,.458-.282h4.258Z" transform="translate(-159.52 -267.862)" fill="#fff"/>
          <path id="Trazado_874832_-_Contorno" data-name="Trazado 874832 - Contorno" d="M200.325,295.782H204a3,3,0,0,1,2.121.879l4.048,4.048a9.544,9.544,0,0,1,2.516,4.958l1.8,11.593a3,3,0,0,1-2.965,3.459h-3.446a3,3,0,0,1-4.234-2.259l-1.64-10.588-4-4a3,3,0,0,1-.879-2.121v-2.972A3,3,0,0,1,200.325,295.782Z" transform="translate(-159.52 -267.862)" fill="#fff"/>
          <g id="Grupo_874833" data-name="Grupo 874833" opacity="0.1">
            <path id="Trazado_874833" data-name="Trazado 874833" d="M207.344,312.97a2.153,2.153,0,0,0-.355-.7l-6.662-6.662v2.265l4.4,4.4a2.153,2.153,0,0,1,.355.7l1.728,11.154a.517.517,0,0,1,.458-.282h1.764Z" transform="translate(-159.521 -273.985)" fill="#fff"/>
            <path id="Trazado_874833_-_Contorno" data-name="Trazado 874833 - Contorno" d="M200.325,302.612a3,3,0,0,1,2.122.879l6.662,6.662a6.22,6.22,0,0,1,1.177,2.234l1.706,11a3,3,0,0,1-2.965,3.459h-.952a3,3,0,0,1-4.234-2.259L202.2,314l-4-4a3,3,0,0,1-.879-2.121v-2.265a3,3,0,0,1,3-3Z" transform="translate(-159.521 -273.985)" fill="#fff"/>
          </g>
          <path id="Trazado_874834" data-name="Trazado 874834" d="M268.956,483.609a.519.519,0,0,1-.517.517h-5.55a.519.519,0,0,1-.517-.517v-1.317a.519.519,0,0,1,.517-.517h5.55a.519.519,0,0,1,.517.517Z" transform="translate(-215.145 -431.918)" fill="#fff"/>
          <path id="Trazado_874834_-_Contorno" data-name="Trazado 874834 - Contorno" d="M268.438,487.127h-5.55a3.959,3.959,0,0,1-3.517-3.517v-1.317a3.959,3.959,0,0,1,3.517-3.517h5.55a3.959,3.959,0,0,1,3.517,3.517v1.317A3.959,3.959,0,0,1,268.438,487.127Z" transform="translate(-215.145 -431.918)" fill="#fff"/>
          <path id="Trazado_874835" data-name="Trazado 874835" d="M85.657,298.782v4.536a2.155,2.155,0,0,1-.241.743l-7.749,10.591.008.006a.518.518,0,0,1,.583.006l3.457,2.421,7.5-10.246a6.537,6.537,0,0,0,1.148-3.514v-4.544h-4.7Z" transform="translate(-49.556 -267.862)" fill="#fff"/>
          <path id="Trazado_874835_-_Contorno" data-name="Trazado 874835 - Contorno" d="M85.657,295.782h4.7a3,3,0,0,1,3,3v4.544a9.542,9.542,0,0,1-1.727,5.285l-7.5,10.246a3,3,0,0,1-4.142.686l-2.731-1.912a3,3,0,0,1-2.01-4.741l7.4-10.136v-3.971a3,3,0,0,1,3-3Z" transform="translate(-49.556 -267.862)" fill="#fff"/>
          <g id="Grupo_874836" data-name="Grupo 874836" opacity="0.1">
            <path id="Trazado_874836" data-name="Trazado 874836" d="M87.9,298.782H85.657v4.536a2.155,2.155,0,0,1-.241.743l-7.749,10.591.008.006a.518.518,0,0,1,.583.006l3.457,2.421L82,316.7l-2.087-1.527,7.749-10.591a2.153,2.153,0,0,0,.241-.743Z" transform="translate(-49.556 -267.862)" fill="#fff"/>
            <path id="Trazado_874836_-_Contorno" data-name="Trazado 874836 - Contorno" d="M85.657,295.782H87.9a3,3,0,0,1,3,3v5.056a6.224,6.224,0,0,1-.746,2.41l-6.068,8.3a3,3,0,0,1,.333,3.926c-.964,1.317-3.087,2.008-4.424,1.072l-2.731-1.912a3,3,0,0,1-2.01-4.741l7.4-10.136v-3.971A3,3,0,0,1,85.657,295.782Z" transform="translate(-49.556 -267.862)" fill="#fff"/>
          </g>
          <path id="Trazado_874837" data-name="Trazado 874837" d="M73.7,456.433a.519.519,0,0,1-.721.127l-4.546-3.183a.519.519,0,0,1-.127-.721l.755-1.079a.519.519,0,0,1,.721-.127l4.546,3.183a.519.519,0,0,1,.127.721Z" transform="translate(-41.084 -404.649)" fill="#fff"/>
          <path id="Trazado_874837_-_Contorno" data-name="Trazado 874837 - Contorno" d="M73.28,459.654a4.093,4.093,0,0,1-2.016-.635l-4.547-3.183a3.959,3.959,0,0,1-.864-4.9l.755-1.079a3.519,3.519,0,0,1,4.9-.864l4.547,3.184a3.959,3.959,0,0,1,.863,4.9l-.754,1.077A4.062,4.062,0,0,1,73.28,459.654Z" transform="translate(-41.084 -404.649)" fill="#fff"/>
          <path id="Trazado_874838" data-name="Trazado 874838" d="M100.159,143.511a4.614,4.614,0,0,1,.31-1.666,1.328,1.328,0,0,0-1.076-.553H95.539a1.333,1.333,0,0,0-1.329,1.329v6.442a1.318,1.318,0,0,1,.4-.062h1.728a1.333,1.333,0,0,1,1.329,1.329v4.918a1.328,1.328,0,0,1-.537,1.063h2.265a1.319,1.319,0,0,0,.765-.245V143.511Z" transform="translate(-64.387 -126.67)" fill="#fff"/>
          <path id="Trazado_874838_-_Contorno" data-name="Trazado 874838 - Contorno" d="M95.539,138.292h3.855a4.343,4.343,0,0,1,3.5,1.792,3,3,0,0,1,.37,2.842l-.109,13.141a3,3,0,0,1-1.264,2.447,6.154,6.154,0,0,1-2.5.8H97.129a3,3,0,0,1-2.463-4.713V152h-.057a2.516,2.516,0,0,1-2.425-.478,2.868,2.868,0,0,1-.974-2.46v-6.442A4.334,4.334,0,0,1,95.539,138.292Z" transform="translate(-64.387 -126.67)" fill="#fff"/>
          <g id="Grupo_1100030" data-name="Grupo 1100030" transform="translate(29.823 14.622)" opacity="0.1">
            <path id="Trazado_874839" data-name="Trazado 874839" d="M94.609,149h1.728a1.318,1.318,0,0,1,.749.233V142.62a1.333,1.333,0,0,1,1.329-1.329H95.539a1.333,1.333,0,0,0-1.329,1.329v6.442A1.319,1.319,0,0,1,94.609,149Z" transform="translate(-94.21 -141.291)" fill="#fff"/>
            <path id="Trazado_874839_-_Contorno" data-name="Trazado 874839 - Contorno" d="M97.086,152.234a3,3,0,0,1-1.16-.233H94.609a2.517,2.517,0,0,1-2.425-.479,2.868,2.868,0,0,1-.974-2.459V142.62a4.334,4.334,0,0,1,4.329-4.329h2.876a3,3,0,0,1,1.671,5.492v5.45a3,3,0,0,1-3,3Z" transform="translate(-94.21 -141.291)" fill="#fff"/>
          </g>
          <path id="Trazado_874840" data-name="Trazado 874840" d="M160.958,136.708V122.629a4.629,4.629,0,1,0-9.258,0v14.08Z" transform="translate(-115.927 -105.789)" fill="#fff"/>
          <path id="Trazado_874840_-_Contorno" data-name="Trazado 874840 - Contorno" d="M151.7,139.709a3,3,0,0,1-3-3v-14.08a7.629,7.629,0,1,1,15.258,0v14.079a3,3,0,0,1-3,3ZM156.329,121a1.631,1.631,0,0,0-1.629,1.629v11.08h3.258v-11.08A1.631,1.631,0,0,0,156.329,121Z" transform="translate(-115.927 -105.789)" fill="#fff"/>
          <g id="Grupo_1100031" data-name="Grupo 1100031" transform="translate(35.773 12.211)" opacity="0.1">
            <path id="Trazado_874841" data-name="Trazado 874841" d="M157.459,118.14a4.631,4.631,0,0,0-5.759,4.489v14.08h2.26v-14.08A4.63,4.63,0,0,1,157.459,118.14Z" transform="translate(-151.7 -118)" fill="#fff"/>
            <path id="Trazado_874841_-_Contorno" data-name="Trazado 874841 - Contorno" d="M156.329,115a7.652,7.652,0,0,1,1.86.23,3,3,0,0,1,0,5.82,1.625,1.625,0,0,0-1.229,1.579v14.08a3,3,0,0,1-3,3H151.7a3,3,0,0,1-3-3v-14.08A7.638,7.638,0,0,1,156.329,115Z" transform="translate(-151.7 -118)" fill="#fff"/>
          </g>
          <path id="Trazado_874842" data-name="Trazado 874842" d="M159.046,208.8l-.253-.253a6.93,6.93,0,0,1-7.094.744v2.794a6.93,6.93,0,0,0,8.613-2.318A6.6,6.6,0,0,1,159.046,208.8Z" transform="translate(-115.926 -186.963)" fill="#fff"/>
          <path id="Trazado_874842_-_Contorno" data-name="Trazado 874842 - Contorno" d="M158.792,205.544a3,3,0,0,1,2.122.879l.253.253a4.083,4.083,0,0,1,1.734,2.2,3.572,3.572,0,0,1-.131,2.6,9.93,9.93,0,0,1-12.34,3.318,3,3,0,0,1-1.731-2.718v-2.794a3,3,0,0,1,4.269-2.718,3.965,3.965,0,0,0,4.019-.421A2.992,2.992,0,0,1,158.792,205.544Z" transform="translate(-115.926 -186.963)" fill="#fff"/>
          <path id="Trazado_874843" data-name="Trazado 874843" d="M206.167,159.957a.513.513,0,0,1,.132-.341h-6.759a4.893,4.893,0,0,1-2.767-1.146l-2.763-2.763a1.764,1.764,0,0,0-2.494,2.495l2.763,2.763a8.291,8.291,0,0,0,5.262,2.18h6.627v-3.187Z" transform="translate(-151.159 -139.13)" fill="#fff"/>
          <path id="Trazado_874843_-_Contorno" data-name="Trazado 874843 - Contorno" d="M206.167,166.143h-6.627a11.287,11.287,0,0,1-7.383-3.058l-2.763-2.763a4.764,4.764,0,0,1,6.737-6.737l2.763,2.763,7.4.268a3,3,0,0,1,2.868,3.88v2.648A3,3,0,0,1,206.167,166.143Z" transform="translate(-151.159 -139.13)" fill="#fff"/>
          <g id="Grupo_874844" data-name="Grupo 874844" opacity="0.1">
            <path id="Trazado_874844" data-name="Trazado 874844" d="M206.168,165.118h-6.032a8.291,8.291,0,0,1-5.262-2.18l-2.763-2.763a1.755,1.755,0,0,1-.487-.931c-.037.031-.073.063-.107.1a1.764,1.764,0,0,0,0,2.494l2.763,2.763a8.291,8.291,0,0,0,5.262,2.18h6.627v-1.661Z" transform="translate(-151.16 -142.766)" fill="#fff"/>
            <path id="Trazado_874844_-_Contorno" data-name="Trazado 874844 - Contorno" d="M206.168,169.779h-6.627a11.287,11.287,0,0,1-7.383-3.058l-2.763-2.763a4.769,4.769,0,0,1,0-6.737,3.116,3.116,0,0,1,3.069-.791,3,3,0,0,1,2.111,2.278l2.42,2.109a5.365,5.365,0,0,0,3.14,1.3h6.032a3,3,0,0,1,3,3v1.661A3,3,0,0,1,206.168,169.779Z" transform="translate(-151.16 -142.766)" fill="#fff"/>
          </g>
          <g id="Grupo_1100032" data-name="Grupo 1100032" transform="translate(55.612 17.961)">
            <path id="Trazado_874845" data-name="Trazado 874845" d="M345.583,175.912a.509.509,0,0,1,.177.033v-1.208a1.174,1.174,0,1,0-2.347,0v1.174Z" transform="translate(-343.412 -173.564)" fill="#fff"/>
            <path id="Trazado_874845_-_Contorno" data-name="Trazado 874845 - Contorno" d="M345.759,178.945a3,3,0,0,1-.445-.033h-1.9a3,3,0,0,1-3-3v-1.174a4.174,4.174,0,1,1,8.347,0v1.208a3,3,0,0,1-3,3Z" transform="translate(-343.412 -173.564)" fill="#fff"/>
            <path id="Trazado_874846" data-name="Trazado 874846" d="M345.583,239.711h-2.171v26.2a1.174,1.174,0,1,0,2.347,0V239.678A.507.507,0,0,1,345.583,239.711Z" transform="translate(-343.412 -232.836)" fill="#fff"/>
            <path id="Trazado_874846_-_Contorno" data-name="Trazado 874846 - Contorno" d="M346.407,236.546a2.6,2.6,0,0,1,1.5.593,2.828,2.828,0,0,1,.854,2.539V265.91a4.174,4.174,0,1,1-8.347,0v-26.2a3,3,0,0,1,3-3h2.171A2.364,2.364,0,0,1,346.407,236.546Z" transform="translate(-343.412 -232.836)" fill="#fff"/>
          </g>
          <path id="Trazado_874847" data-name="Trazado 874847" d="M340.866,200.265a.519.519,0,0,1-.517.517h-2.258a.519.519,0,0,1-.517-.517v-3.492a.519.519,0,0,1,.517-.517h2.258a.519.519,0,0,1,.517.517Z" transform="translate(-282.566 -175.945)" fill="#fff"/>
          <path id="Trazado_874847_-_Contorno" data-name="Trazado 874847 - Contorno" d="M340.349,203.782h-2.258a3.959,3.959,0,0,1-3.517-3.517v-3.492a3.959,3.959,0,0,1,3.517-3.517h2.258a3.959,3.959,0,0,1,3.517,3.517v3.492A3.959,3.959,0,0,1,340.349,203.782Z" transform="translate(-282.566 -175.945)" fill="#fff"/>
          <path id="Trazado_874848" data-name="Trazado 874848" d="M89.606,222.034a1.333,1.333,0,0,1-1.329,1.329H86.549a1.333,1.333,0,0,1-1.329-1.329v-4.918a1.333,1.333,0,0,1,1.329-1.329h1.728a1.333,1.333,0,0,1,1.329,1.329v4.918Z" transform="translate(-56.327 -193.456)" fill="#fff"/>
          <path id="Trazado_874848_-_Contorno" data-name="Trazado 874848 - Contorno" d="M88.277,226.364H86.549a4.334,4.334,0,0,1-4.329-4.329v-4.918a4.334,4.334,0,0,1,4.329-4.329h1.728a4.334,4.334,0,0,1,4.329,4.329v4.918A4.334,4.334,0,0,1,88.277,226.364Z" transform="translate(-56.327 -193.456)" fill="#fff"/>
          <g id="Grupo_1100033" data-name="Grupo 1100033" transform="translate(28.893 22.331)" opacity="0.1">
            <path id="Trazado_874849" data-name="Trazado 874849" d="M86.916,222.034v-4.918a1.333,1.333,0,0,1,1.329-1.329h-1.7a1.333,1.333,0,0,0-1.329,1.329v4.918a1.333,1.333,0,0,0,1.329,1.329h1.7A1.333,1.333,0,0,1,86.916,222.034Z" transform="translate(-85.219 -215.787)" fill="#fff"/>
            <path id="Trazado_874849_-_Contorno" data-name="Trazado 874849 - Contorno" d="M88.245,226.364h-1.7a4.334,4.334,0,0,1-4.329-4.329v-4.919a4.334,4.334,0,0,1,4.329-4.329h1.7a3,3,0,0,1,1.671,5.492v2.592a3,3,0,0,1-1.671,5.492Z" transform="translate(-85.219 -215.787)" fill="#fff"/>
          </g>
          <path id="Trazado_874850" data-name="Trazado 874850" d="M69.965,51.433H58.695a1.944,1.944,0,0,0,.041-.4V42.326a.776.776,0,1,0-1.552,0v8.709a.4.4,0,1,1-.8,0V25.613h.8v13.5a.776.776,0,0,0,1.552,0V25.191a1.287,1.287,0,0,0,.341-.872V20.827a1.287,1.287,0,0,0-.341-.872v-.82a1.95,1.95,0,1,0-3.9,0v.575H48.381a4.221,4.221,0,0,1-2.218-.919l-.356-.356V16.84a5.385,5.385,0,0,0-1.516-3.748,6.418,6.418,0,0,0,3.02-5.441c0-.134,0-.267-.013-.4H51.12a.776.776,0,0,0,0-1.552H47.192V5.108A5.113,5.113,0,0,0,42.085,0H39.577A5.113,5.113,0,0,0,34.47,5.107V7.651A6.411,6.411,0,0,0,36.932,12.7,5.454,5.454,0,0,0,35.9,13.845H31.153a2.108,2.108,0,0,0-2.105,2.105v.129H26.812a.776.776,0,1,0,0,1.552h2.235v1.152h-.824a.776.776,0,0,0,0,1.552h.824v1.578a2.1,2.1,0,0,0-.93,1.746v4.918a2.108,2.108,0,0,0,2.105,2.105H31.95a2.091,2.091,0,0,0,1.021-.266H35v.5a.775.775,0,0,0,.329.634v1.135H33.162a.776.776,0,0,0,0,1.552h2.164v1.035h-1.34a.776.776,0,1,0,0,1.552h.455l-6.925,9.465a1.277,1.277,0,0,0-.168.192l-.755,1.079a1.295,1.295,0,0,0,.318,1.8l2.953,2.068H23.167a.776.776,0,1,0,0,1.552h46.8a.776.776,0,1,0,0-1.552ZM32.5,28.578a.554.554,0,0,1-.553.553H30.222a.554.554,0,0,1-.553-.553V23.66a.554.554,0,0,1,.553-.553H31.95a.554.554,0,0,1,.553.553ZM35,16.84V28.866h-.963a2.1,2.1,0,0,0,.022-.287V23.66a2.108,2.108,0,0,0-2.105-2.105H30.6V20.336h.563a.776.776,0,1,0,0-1.552H30.6V17.632h.563a.776.776,0,1,0,0-1.552H30.6v-.129a.554.554,0,0,1,.553-.553h3.855a.544.544,0,0,1,.177.032A5.391,5.391,0,0,0,35,16.84Zm21.392,2.295a.4.4,0,1,1,.8,0v.4h-.8Zm-.6,1.951h1.74v2.975h-1.74Zm-7.4.176h5.851v1.975H48.381a7.543,7.543,0,0,1-4.713-1.952l-2.763-2.763a.988.988,0,1,1,1.4-1.4l2.763,2.763A5.664,5.664,0,0,0,48.381,21.262ZM36.022,5.107a3.559,3.559,0,0,1,3.555-3.555h2.508A3.559,3.559,0,0,1,45.64,5.107V5.7H36.022V5.107Zm0,2.544c0-.135.008-.268.019-.4h9.7c.011.132.019.265.019.4a4.872,4.872,0,0,1-2.824,4.416,5.393,5.393,0,0,0-4.545-.242A4.869,4.869,0,0,1,36.022,7.651Zm.527,9.189a3.853,3.853,0,1,1,7.705,0v.042l-.855-.855a2.54,2.54,0,1,0-3.592,3.592l1.827,1.827a6.109,6.109,0,0,1-5.086.36V16.84Zm0,6.6a7.681,7.681,0,0,0,6.225-.869q.226.206.48.4A6.153,6.153,0,0,1,36.549,24.6Zm0,2.791a7.689,7.689,0,0,0,7.706-2.058v1.487a.776.776,0,1,0,1.552,0V24.317a8.044,8.044,0,0,0,2.575.473h5.941a1.3,1.3,0,0,0,.514.622V51.035a1.952,1.952,0,0,0,.041.4h-.291V50.374a1.3,1.3,0,0,0-1.294-1.294h-.627L50.972,38.145a7.28,7.28,0,0,0-1.89-3.726l-3.3-3.3a.778.778,0,0,0,.026-.2V28.873a.776.776,0,0,0-1.552,0v1.271H36.549V26.236ZM47.907,49.081,46.324,38.866c0-.011,0-.022-.006-.032a2.8,2.8,0,0,0-.546-1.07l-.022-.023-4.17-4.17V31.7h2.582l3.821,3.821a5.774,5.774,0,0,1,1.454,2.866l1.657,10.7ZM28.469,47.587l4.122,2.887-.458.655-4.122-2.886Zm5.756,2.6a1.284,1.284,0,0,0-.531-.835l-.44-.308L35.409,46.1a.776.776,0,0,0-1.253-.917l-2.175,2.972L29.4,46.343l6.963-9.516H37.63a.776.776,0,1,0,0-1.552h-.752V34.241h.87a.776.776,0,0,0,0-1.552h-.87V31.7h3.151v3.767a5.772,5.772,0,0,1-1,3.055L35.974,42.7a.776.776,0,0,0,1.253.917l3.056-4.177a7.34,7.34,0,0,0,1.289-3.679l3.055,3.055a1.89,1.89,0,0,1,.17.331l1.692,10.922a1.29,1.29,0,0,0-.039.31v1.058H33.815l.2-.281A1.285,1.285,0,0,0,34.225,50.185ZM48,51.433v-.8h5.032v.8Z" transform="translate(0)" fill="#fff"/>
          <path id="Trazado_874850_-_Contorno" data-name="Trazado 874850 - Contorno" d="M69.966,55.985h-46.8a3.776,3.776,0,1,1,0-7.552h.191a4.26,4.26,0,0,1,.775-2.591l.755-1.078,5.519-7.514a3.664,3.664,0,0,1-.2-1.2q0-.115.007-.227a3.758,3.758,0,0,1-.827-2.208,5.114,5.114,0,0,1-4.272-5.037V23.66a5.1,5.1,0,0,1,.283-1.678,3.455,3.455,0,0,1-.945-2.179,3.775,3.775,0,0,1,2.357-6.724h.142a5.055,5.055,0,0,1,4.2-2.234h.871a9.423,9.423,0,0,1-.554-3.194V5.107A8.117,8.117,0,0,1,39.577-3h2.508a8.122,8.122,0,0,1,7.742,5.7H51.12a3.776,3.776,0,0,1,0,7.552H49.881a9.335,9.335,0,0,1-1.715,3.366,8.354,8.354,0,0,1,.628,2.746l3.845.221a4.758,4.758,0,0,1,4.148-2.4,4.955,4.955,0,0,1,4.95,4.95l-.006,0a4.278,4.278,0,0,1,.347,1.69v3.492a4.674,4.674,0,0,1-.341,1.436V39.118a3.754,3.754,0,0,1-.358,1.6,3.754,3.754,0,0,1,.358,1.6v6.107h8.23a3.776,3.776,0,1,1,0,7.552ZM37.417,48.433H43.2l-1.01-6.523-2.541,3.473a3.827,3.827,0,0,1-1.218.979,4.224,4.224,0,0,1-.6,1.505ZM48.807,29.9l2.4,2.4a8.7,8.7,0,0,1,.633.709V27.79H48.649a3.766,3.766,0,0,1,.158,1.083Z" transform="translate(0)" fill="#fff"/>
        </g>
      </g>
      <g id="caminar--2" data-name="caminar-" transform="translate(765.47 874.753)">
        <path id="Trazado_874828-2" data-name="Trazado 874828" d="M149.713,30.079a4.627,4.627,0,0,1,4.532.242,5.645,5.645,0,1,0-4.532-.242Z" transform="translate(-111.363 -17.388)" fill="#ffcfab"/>
        <path id="Trazado_874829-2" data-name="Trazado 874829" d="M149.714,30.08a4.607,4.607,0,0,1,2.042-.479,5.645,5.645,0,0,1,1.911-10.026,5.645,5.645,0,0,0-3.953,10.505Z" transform="translate(-111.364 -17.389)" opacity="0.1"/>
        <path id="Trazado_874830-2" data-name="Trazado 874830" d="M157.78,13.2V11.831A4.331,4.331,0,0,0,153.449,7.5h-2.508a4.331,4.331,0,0,0-4.331,4.331V13.2Z" transform="translate(-111.364 -6.724)" fill="#e23c38"/>
        <g id="Grupo_1100029-2" data-name="Grupo 1100029" transform="translate(35.246 0.776)" opacity="0.1">
          <path id="Trazado_874831-2" data-name="Trazado 874831" d="M153.612,7.5c-.054,0-.109,0-.163,0H150.94a4.331,4.331,0,0,0-4.331,4.331V13.2h2.835V11.831A4.331,4.331,0,0,1,153.612,7.5Z" transform="translate(-146.609 -7.5)"/>
        </g>
        <path id="Trazado_874832-2" data-name="Trazado 874832" d="M209.725,306.126a6.538,6.538,0,0,0-1.672-3.3L204,298.782h-3.68v2.972l4.4,4.4a2.153,2.153,0,0,1,.355.7L206.806,318a.517.517,0,0,1,.458-.282h4.258Z" transform="translate(-159.52 -267.862)" fill="#34a1d7"/>
        <path id="Trazado_874833-2" data-name="Trazado 874833" d="M207.344,312.97a2.153,2.153,0,0,0-.355-.7l-6.662-6.662v2.265l4.4,4.4a2.153,2.153,0,0,1,.355.7l1.728,11.154a.517.517,0,0,1,.458-.282h1.764Z" transform="translate(-159.521 -273.985)" opacity="0.1"/>
        <path id="Trazado_874834-2" data-name="Trazado 874834" d="M268.956,483.609a.519.519,0,0,1-.517.517h-5.55a.519.519,0,0,1-.517-.517v-1.317a.519.519,0,0,1,.517-.517h5.55a.519.519,0,0,1,.517.517Z" transform="translate(-215.145 -431.918)" fill="#08375e"/>
        <path id="Trazado_874835-2" data-name="Trazado 874835" d="M85.657,298.782v4.536a2.155,2.155,0,0,1-.241.743l-7.749,10.591.008.006a.518.518,0,0,1,.583.006l3.457,2.421,7.5-10.246a6.537,6.537,0,0,0,1.148-3.514v-4.544h-4.7Z" transform="translate(-49.556 -267.862)" fill="#34a1d7"/>
        <path id="Trazado_874836-2" data-name="Trazado 874836" d="M87.9,298.782H85.657v4.536a2.155,2.155,0,0,1-.241.743l-7.749,10.591.008.006a.518.518,0,0,1,.583.006l3.457,2.421L82,316.7l-2.087-1.527,7.749-10.591a2.153,2.153,0,0,0,.241-.743Z" transform="translate(-49.556 -267.862)" opacity="0.1"/>
        <path id="Trazado_874837-2" data-name="Trazado 874837" d="M73.7,456.433a.519.519,0,0,1-.721.127l-4.546-3.183a.519.519,0,0,1-.127-.721l.755-1.079a.519.519,0,0,1,.721-.127l4.546,3.183a.519.519,0,0,1,.127.721Z" transform="translate(-41.084 -404.649)" fill="#08375e"/>
        <path id="Trazado_874838-2" data-name="Trazado 874838" d="M100.159,143.511a4.614,4.614,0,0,1,.31-1.666,1.328,1.328,0,0,0-1.076-.553H95.539a1.333,1.333,0,0,0-1.329,1.329v6.442a1.318,1.318,0,0,1,.4-.062h1.728a1.333,1.333,0,0,1,1.329,1.329v4.918a1.328,1.328,0,0,1-.537,1.063h2.265a1.319,1.319,0,0,0,.765-.245V143.511Z" transform="translate(-64.387 -126.67)" fill="#cb7c52"/>
        <g id="Grupo_1100030-2" data-name="Grupo 1100030" transform="translate(29.823 14.622)" opacity="0.1">
          <path id="Trazado_874839-2" data-name="Trazado 874839" d="M94.609,149h1.728a1.318,1.318,0,0,1,.749.233V142.62a1.333,1.333,0,0,1,1.329-1.329H95.539a1.333,1.333,0,0,0-1.329,1.329v6.442A1.319,1.319,0,0,1,94.609,149Z" transform="translate(-94.21 -141.291)"/>
        </g>
        <path id="Trazado_874840-2" data-name="Trazado 874840" d="M160.958,136.708V122.629a4.629,4.629,0,1,0-9.258,0v14.08Z" transform="translate(-115.927 -105.789)" fill="#ef5a50"/>
        <g id="Grupo_1100031-2" data-name="Grupo 1100031" transform="translate(35.773 12.211)" opacity="0.1">
          <path id="Trazado_874841-2" data-name="Trazado 874841" d="M157.459,118.14a4.631,4.631,0,0,0-5.759,4.489v14.08h2.26v-14.08A4.63,4.63,0,0,1,157.459,118.14Z" transform="translate(-151.7 -118)"/>
        </g>
        <path id="Trazado_874842-2" data-name="Trazado 874842" d="M159.046,208.8l-.253-.253a6.93,6.93,0,0,1-7.094.744v2.794a6.93,6.93,0,0,0,8.613-2.318A6.6,6.6,0,0,1,159.046,208.8Z" transform="translate(-115.926 -186.963)" fill="#ab5436"/>
        <path id="Trazado_874843-2" data-name="Trazado 874843" d="M206.167,159.957a.513.513,0,0,1,.132-.341h-6.759a4.893,4.893,0,0,1-2.767-1.146l-2.763-2.763a1.764,1.764,0,0,0-2.494,2.495l2.763,2.763a8.291,8.291,0,0,0,5.262,2.18h6.627v-3.187Z" transform="translate(-151.159 -139.13)" fill="#e23c38"/>
        <path id="Trazado_874844-2" data-name="Trazado 874844" d="M206.168,165.118h-6.032a8.291,8.291,0,0,1-5.262-2.18l-2.763-2.763a1.755,1.755,0,0,1-.487-.931c-.037.031-.073.063-.107.1a1.764,1.764,0,0,0,0,2.494l2.763,2.763a8.291,8.291,0,0,0,5.262,2.18h6.627v-1.661Z" transform="translate(-151.16 -142.765)" opacity="0.1"/>
        <g id="Grupo_1100032-2" data-name="Grupo 1100032" transform="translate(55.612 17.961)">
          <path id="Trazado_874845-2" data-name="Trazado 874845" d="M345.583,175.912a.509.509,0,0,1,.177.033v-1.208a1.174,1.174,0,1,0-2.347,0v1.174Z" transform="translate(-343.412 -173.564)" fill="#cb7c52"/>
          <path id="Trazado_874846-2" data-name="Trazado 874846" d="M345.583,239.711h-2.171v26.2a1.174,1.174,0,1,0,2.347,0V239.678A.507.507,0,0,1,345.583,239.711Z" transform="translate(-343.412 -232.836)" fill="#cb7c52"/>
        </g>
        <path id="Trazado_874847-2" data-name="Trazado 874847" d="M340.866,200.265a.519.519,0,0,1-.517.517h-2.258a.519.519,0,0,1-.517-.517v-3.492a.519.519,0,0,1,.517-.517h2.258a.519.519,0,0,1,.517.517Z" transform="translate(-282.566 -175.945)" fill="#ffcfab"/>
        <path id="Trazado_874848-2" data-name="Trazado 874848" d="M89.606,222.034a1.333,1.333,0,0,1-1.329,1.329H86.549a1.333,1.333,0,0,1-1.329-1.329v-4.918a1.333,1.333,0,0,1,1.329-1.329h1.728a1.333,1.333,0,0,1,1.329,1.329v4.918Z" transform="translate(-56.327 -193.456)" fill="#ffbb4a"/>
        <g id="Grupo_1100033-2" data-name="Grupo 1100033" transform="translate(28.893 22.331)" opacity="0.1">
          <path id="Trazado_874849-2" data-name="Trazado 874849" d="M86.916,222.034v-4.918a1.333,1.333,0,0,1,1.329-1.329h-1.7a1.333,1.333,0,0,0-1.329,1.329v4.918a1.333,1.333,0,0,0,1.329,1.329h1.7A1.333,1.333,0,0,1,86.916,222.034Z" transform="translate(-85.219 -215.787)"/>
        </g>
        <path id="Trazado_874850-2" data-name="Trazado 874850" d="M69.965,51.433H58.695a1.944,1.944,0,0,0,.041-.4V42.326a.776.776,0,1,0-1.552,0v8.709a.4.4,0,1,1-.8,0V25.613h.8v13.5a.776.776,0,0,0,1.552,0V25.191a1.287,1.287,0,0,0,.341-.872V20.827a1.287,1.287,0,0,0-.341-.872v-.82a1.95,1.95,0,1,0-3.9,0v.575H48.381a4.221,4.221,0,0,1-2.218-.919l-.356-.356V16.84a5.385,5.385,0,0,0-1.516-3.748,6.418,6.418,0,0,0,3.02-5.441c0-.134,0-.267-.013-.4H51.12a.776.776,0,0,0,0-1.552H47.192V5.108A5.113,5.113,0,0,0,42.085,0H39.577A5.113,5.113,0,0,0,34.47,5.107V7.651A6.411,6.411,0,0,0,36.932,12.7,5.454,5.454,0,0,0,35.9,13.845H31.153a2.108,2.108,0,0,0-2.105,2.105v.129H26.812a.776.776,0,1,0,0,1.552h2.235v1.152h-.824a.776.776,0,0,0,0,1.552h.824v1.578a2.1,2.1,0,0,0-.93,1.746v4.918a2.108,2.108,0,0,0,2.105,2.105H31.95a2.091,2.091,0,0,0,1.021-.266H35v.5a.775.775,0,0,0,.329.634v1.135H33.162a.776.776,0,0,0,0,1.552h2.164v1.035h-1.34a.776.776,0,1,0,0,1.552h.455l-6.925,9.465a1.277,1.277,0,0,0-.168.192l-.755,1.079a1.295,1.295,0,0,0,.318,1.8l2.953,2.068H23.167a.776.776,0,1,0,0,1.552h46.8a.776.776,0,1,0,0-1.552ZM32.5,28.578a.554.554,0,0,1-.553.553H30.222a.554.554,0,0,1-.553-.553V23.66a.554.554,0,0,1,.553-.553H31.95a.554.554,0,0,1,.553.553ZM35,16.84V28.866h-.963a2.1,2.1,0,0,0,.022-.287V23.66a2.108,2.108,0,0,0-2.105-2.105H30.6V20.336h.563a.776.776,0,1,0,0-1.552H30.6V17.632h.563a.776.776,0,1,0,0-1.552H30.6v-.129a.554.554,0,0,1,.553-.553h3.855a.544.544,0,0,1,.177.032A5.391,5.391,0,0,0,35,16.84Zm21.392,2.295a.4.4,0,1,1,.8,0v.4h-.8Zm-.6,1.951h1.74v2.975h-1.74Zm-7.4.176h5.851v1.975H48.381a7.543,7.543,0,0,1-4.713-1.952l-2.763-2.763a.988.988,0,1,1,1.4-1.4l2.763,2.763A5.664,5.664,0,0,0,48.381,21.262ZM36.022,5.107a3.559,3.559,0,0,1,3.555-3.555h2.508A3.559,3.559,0,0,1,45.64,5.107V5.7H36.022V5.107Zm0,2.544c0-.135.008-.268.019-.4h9.7c.011.132.019.265.019.4a4.872,4.872,0,0,1-2.824,4.416,5.393,5.393,0,0,0-4.545-.242A4.869,4.869,0,0,1,36.022,7.651Zm.527,9.189a3.853,3.853,0,1,1,7.705,0v.042l-.855-.855a2.54,2.54,0,1,0-3.592,3.592l1.827,1.827a6.109,6.109,0,0,1-5.086.36V16.84Zm0,6.6a7.681,7.681,0,0,0,6.225-.869q.226.206.48.4A6.153,6.153,0,0,1,36.549,24.6Zm0,2.791a7.689,7.689,0,0,0,7.706-2.058v1.487a.776.776,0,1,0,1.552,0V24.317a8.044,8.044,0,0,0,2.575.473h5.941a1.3,1.3,0,0,0,.514.622V51.035a1.952,1.952,0,0,0,.041.4h-.291V50.374a1.3,1.3,0,0,0-1.294-1.294h-.627L50.972,38.145a7.28,7.28,0,0,0-1.89-3.726l-3.3-3.3a.778.778,0,0,0,.026-.2V28.873a.776.776,0,0,0-1.552,0v1.271H36.549V26.236ZM47.907,49.081,46.324,38.866c0-.011,0-.022-.006-.032a2.8,2.8,0,0,0-.546-1.07l-.022-.023-4.17-4.17V31.7h2.582l3.821,3.821a5.774,5.774,0,0,1,1.454,2.866l1.657,10.7ZM28.469,47.587l4.122,2.887-.458.655-4.122-2.886Zm5.756,2.6a1.284,1.284,0,0,0-.531-.835l-.44-.308L35.409,46.1a.776.776,0,0,0-1.253-.917l-2.175,2.972L29.4,46.343l6.963-9.516H37.63a.776.776,0,1,0,0-1.552h-.752V34.241h.87a.776.776,0,0,0,0-1.552h-.87V31.7h3.151v3.767a5.772,5.772,0,0,1-1,3.055L35.974,42.7a.776.776,0,0,0,1.253.917l3.056-4.177a7.34,7.34,0,0,0,1.289-3.679l3.055,3.055a1.89,1.89,0,0,1,.17.331l1.692,10.922a1.29,1.29,0,0,0-.039.31v1.058H33.815l.2-.281A1.285,1.285,0,0,0,34.225,50.185ZM48,51.433v-.8h5.032v.8Z" transform="translate(0)"/>
      </g>
    </g>
  </g>
</svg>
