<svg xmlns="http://www.w3.org/2000/svg" xmlns:xlink="http://www.w3.org/1999/xlink" width="132" height="132" viewBox="0 0 132 132">
  <defs>
    <clipPath id="clip-path">
      <rect id="Rectángulo_401440" data-name="Rectángulo 401440" width="100.791" height="100.793" fill="none"/>
    </clipPath>
  </defs>
  <g id="Grupo_1099813" data-name="Grupo 1099813" transform="translate(-632.051 -1015)">
    <rect id="Rectángulo_401305" data-name="Rectángulo 401305" width="132" height="132" rx="14" transform="translate(632.051 1015)" fill="#d59cff"/>
    <g id="Grupo_1099812" data-name="Grupo 1099812" transform="translate(648.051 1031)">
      <g id="Grupo_1099811" data-name="Grupo 1099811" clip-path="url(#clip-path)">
        <path id="Trazado_873801" data-name="Trazado 873801" d="M89.364,2.436a1.5,1.5,0,0,1,1.5,1.5V26.416h3a1.5,1.5,0,0,1,1.421,1.025l3,8.993a1.5,1.5,0,0,1-1.421,1.972h-1.5V96.859a1.5,1.5,0,0,1-1.5,1.5H6.931a1.5,1.5,0,0,1-1.5-1.5V38.406h-1.5a1.5,1.5,0,0,1-1.421-1.972l3-8.993a1.5,1.5,0,0,1,1.421-1.025h3V3.934a1.5,1.5,0,0,1,1.5-1.5Zm0-2.436H11.427A3.939,3.939,0,0,0,7.493,3.934V23.98H6.931A3.93,3.93,0,0,0,3.2,26.672l-3,8.992A3.939,3.939,0,0,0,2.691,40.64q.151.05.305.088v56.13a3.939,3.939,0,0,0,3.934,3.934H93.86a3.939,3.939,0,0,0,3.934-3.934V40.729a3.935,3.935,0,0,0,2.795-5.064l-3-8.993a3.929,3.929,0,0,0-3.73-2.69H93.3V3.934A3.939,3.939,0,0,0,89.364,0" transform="translate(0)" fill="#fff"/>
        <rect id="Rectángulo_401420" data-name="Rectángulo 401420" width="86.929" height="59.951" transform="translate(6.745 36.834)" fill="#f6f0e5"/>
        <path id="Trazado_873802" data-name="Trazado 873802" d="M112.928,157.6H20l3-8.993h86.929Z" transform="translate(-16.256 -120.768)" fill="#7bace6"/>
        <rect id="Rectángulo_401421" data-name="Rectángulo 401421" width="77.937" height="23.98" transform="translate(11.242 3.861)" fill="#a8d7e4"/>
        <rect id="Rectángulo_401422" data-name="Rectángulo 401422" width="26.978" height="59.951" transform="translate(6.745 36.834)" fill="#ebe5db"/>
        <rect id="Rectángulo_401423" data-name="Rectángulo 401423" width="26.978" height="59.951" transform="translate(66.696 36.834)" fill="#ebe5db"/>
        <rect id="Rectángulo_401424" data-name="Rectángulo 401424" width="5.995" height="5.995" transform="translate(41.217 42.83)" fill="#a8d7e4"/>
        <rect id="Rectángulo_401425" data-name="Rectángulo 401425" width="5.995" height="5.995" transform="translate(53.207 42.83)" fill="#a8d7e4"/>
        <rect id="Rectángulo_401426" data-name="Rectángulo 401426" width="5.995" height="5.995" transform="translate(17.237 42.83)" fill="#a8d7e4"/>
        <rect id="Rectángulo_401427" data-name="Rectángulo 401427" width="5.995" height="5.995" transform="translate(17.237 54.82)" fill="#a8d7e4"/>
        <rect id="Rectángulo_401428" data-name="Rectángulo 401428" width="5.995" height="5.995" transform="translate(14.239 83.297)" fill="#a8d7e4"/>
        <rect id="Rectángulo_401429" data-name="Rectángulo 401429" width="5.995" height="5.995" transform="translate(20.234 83.297)" fill="#a8d7e4"/>
        <rect id="Rectángulo_401430" data-name="Rectángulo 401430" width="26.978" height="5.995" transform="translate(6.745 69.808)" fill="#ccc7be"/>
        <rect id="Rectángulo_401431" data-name="Rectángulo 401431" width="5.995" height="5.995" transform="translate(77.188 42.83)" fill="#a8d7e4"/>
        <rect id="Rectángulo_401432" data-name="Rectángulo 401432" width="5.995" height="5.995" transform="translate(77.188 54.82)" fill="#a8d7e4"/>
        <rect id="Rectángulo_401433" data-name="Rectángulo 401433" width="5.995" height="5.995" transform="translate(74.19 83.297)" fill="#a8d7e4"/>
        <rect id="Rectángulo_401434" data-name="Rectángulo 401434" width="5.995" height="5.995" transform="translate(80.185 83.297)" fill="#a8d7e4"/>
        <rect id="Rectángulo_401435" data-name="Rectángulo 401435" width="26.978" height="5.995" transform="translate(66.696 69.808)" fill="#ccc7be"/>
        <path id="Trazado_873803" data-name="Trazado 873803" d="M133.5,372.61h47.961a1.5,1.5,0,0,1,1.5,1.5v3a1.5,1.5,0,0,1-1.5,1.5H133.5a1.5,1.5,0,0,1-1.5-1.5v-3a1.5,1.5,0,0,1,1.5-1.5" transform="translate(-107.273 -302.802)" fill="#ebe5db"/>
        <rect id="Rectángulo_401436" data-name="Rectángulo 401436" width="23.98" height="20.983" transform="translate(38.22 75.803)" fill="#a8d7e4"/>
        <rect id="Rectángulo_401437" data-name="Rectángulo 401437" width="5.995" height="20.983" transform="translate(32.225 75.803)" fill="#7bace6"/>
        <rect id="Rectángulo_401438" data-name="Rectángulo 401438" width="5.995" height="20.983" transform="translate(62.2 75.803)" fill="#7bace6"/>
        <rect id="Rectángulo_401439" data-name="Rectángulo 401439" width="11.99" height="20.983" transform="translate(50.21 75.803)" fill="#96c8d6"/>
        <path id="Trazado_873804" data-name="Trazado 873804" d="M148,307.6l22.482-14.988L192.967,307.6Z" transform="translate(-120.276 -237.79)" fill="#7bace6"/>
        <path id="Trazado_873805" data-name="Trazado 873805" d="M107.851,46.608l-3-8.993a1.5,1.5,0,0,0-1.421-1.025h-3V14.109a1.5,1.5,0,0,0-1.5-1.5H21a1.5,1.5,0,0,0-1.5,1.5V36.59h-3a1.5,1.5,0,0,0-1.421,1.025l-3,8.993a1.5,1.5,0,0,0,1.421,1.972H15v58.452a1.5,1.5,0,0,0,1.5,1.5h86.929a1.5,1.5,0,0,0,1.5-1.5V48.581h1.5a1.5,1.5,0,0,0,1.421-1.972m-85.353-31H97.438V36.59H22.5Zm-4.915,23.98h84.768l2,6H15.586ZM83.949,84.551H35.988v-3H83.949Zm-41.516-6,17.536-11.69L77.5,78.556Zm1.049,8.993h3v17.985h-3Zm6,0h8.993v17.985H49.477Zm11.99,0H70.46v17.985H61.467Zm11.99,0h3v17.985h-3Zm28.477-8.993H91.443a1.5,1.5,0,1,0,0,3h10.491v3H91.443a1.5,1.5,0,1,0,0,3h10.491v17.985H79.452V87.549h4.5a3,3,0,0,0,3-3v-3a3,3,0,0,0-3-3H82.9L60.8,63.82a1.5,1.5,0,0,0-1.664,0l-22.1,14.736H35.988a3,3,0,0,0-3,3v3a3,3,0,0,0,3,3h4.5v17.985H18V87.549H28.494a1.5,1.5,0,1,0,0-3H18v-3H28.494a1.5,1.5,0,1,0,0-3H18V48.581h23.98V69.564a1.5,1.5,0,1,0,3,0V48.581H74.956V69.564a1.5,1.5,0,1,0,3,0V48.581h23.98Z" transform="translate(-9.758 -10.248)"/>
        <path id="Trazado_873806" data-name="Trazado 873806" d="M110.5,44.61a1.5,1.5,0,0,0-1.5,1.5v4.5h-6v-4.5a1.5,1.5,0,1,0-3,0V58.1a1.5,1.5,0,0,0,3,0V53.6h6v4.5a1.5,1.5,0,1,0,3,0V46.109a1.5,1.5,0,0,0-1.5-1.5" transform="translate(-81.269 -36.252)"/>
        <path id="Trazado_873807" data-name="Trazado 873807" d="M181,44.61h-6a3,3,0,0,0-3,3V56.6a3,3,0,0,0,3,3h6a3,3,0,0,0,3-3V47.608a3,3,0,0,0-3-3m-6,3h6V56.6h-6Z" transform="translate(-139.779 -36.252)"/>
        <path id="Trazado_873808" data-name="Trazado 873808" d="M254.5,44.61H245.5a1.5,1.5,0,0,0,0,3h3V58.1a1.5,1.5,0,0,0,3,0V47.608h3a1.5,1.5,0,0,0,0-3" transform="translate(-198.29 -36.252)"/>
        <path id="Trazado_873809" data-name="Trazado 873809" d="M326.5,47.608a1.5,1.5,0,0,0,0-3H317.5a1.5,1.5,0,0,0-1.5,1.5V58.1a1.5,1.5,0,0,0,1.5,1.5H326.5a1.5,1.5,0,0,0,0-3H319v-3H326.5a1.5,1.5,0,0,0,0-3H319v-3Z" transform="translate(-256.801 -36.252)"/>
        <path id="Trazado_873810" data-name="Trazado 873810" d="M395.5,56.6H391V46.109a1.5,1.5,0,1,0-3,0V58.1a1.5,1.5,0,0,0,1.5,1.5h6a1.5,1.5,0,0,0,0-3" transform="translate(-315.312 -36.252)"/>
        <path id="Trazado_873811" data-name="Trazado 873811" d="M219.5,220.61h-6a1.5,1.5,0,0,0-1.5,1.5v6a1.5,1.5,0,0,0,1.5,1.5h6a1.5,1.5,0,0,0,1.5-1.5v-6a1.5,1.5,0,0,0-1.5-1.5m-1.5,6h-3v-3h3Z" transform="translate(-172.286 -179.279)"/>
        <path id="Trazado_873812" data-name="Trazado 873812" d="M283.5,220.61h-6a1.5,1.5,0,0,0-1.5,1.5v6a1.5,1.5,0,0,0,1.5,1.5h6a1.5,1.5,0,0,0,1.5-1.5v-6a1.5,1.5,0,0,0-1.5-1.5m-1.5,6h-3v-3h3Z" transform="translate(-224.295 -179.279)"/>
        <path id="Trazado_873813" data-name="Trazado 873813" d="M91.5,220.61h-6a1.5,1.5,0,0,0-1.5,1.5v6a1.5,1.5,0,0,0,1.5,1.5h6a1.5,1.5,0,0,0,1.5-1.5v-6a1.5,1.5,0,0,0-1.5-1.5m-1.5,6H87v-3h3Z" transform="translate(-68.266 -179.279)"/>
        <path id="Trazado_873814" data-name="Trazado 873814" d="M91.5,284.61h-6a1.5,1.5,0,0,0-1.5,1.5v6a1.5,1.5,0,0,0,1.5,1.5h6a1.5,1.5,0,0,0,1.5-1.5v-6a1.5,1.5,0,0,0-1.5-1.5m-1.5,6H87v-3h3Z" transform="translate(-68.266 -231.289)"/>
        <path id="Trazado_873815" data-name="Trazado 873815" d="M69.5,436.61a1.5,1.5,0,0,0-1.5,1.5v6a1.5,1.5,0,0,0,1.5,1.5h11.99a1.5,1.5,0,0,0,1.5-1.5v-6a1.5,1.5,0,0,0-1.5-1.5Zm1.5,3h3v3H71Zm8.993,3H77v-3h3Z" transform="translate(-55.264 -354.812)"/>
        <path id="Trazado_873816" data-name="Trazado 873816" d="M405.5,229.6h6a1.5,1.5,0,0,0,1.5-1.5v-6a1.5,1.5,0,0,0-1.5-1.5h-6a1.5,1.5,0,0,0-1.5,1.5v6a1.5,1.5,0,0,0,1.5,1.5m1.5-6h3v3h-3Z" transform="translate(-328.315 -179.279)"/>
        <path id="Trazado_873817" data-name="Trazado 873817" d="M405.5,293.6h6a1.5,1.5,0,0,0,1.5-1.5v-6a1.5,1.5,0,0,0-1.5-1.5h-6a1.5,1.5,0,0,0-1.5,1.5v6a1.5,1.5,0,0,0,1.5,1.5m1.5-6h3v3h-3Z" transform="translate(-328.315 -231.289)"/>
        <path id="Trazado_873818" data-name="Trazado 873818" d="M389.5,436.61a1.5,1.5,0,0,0-1.5,1.5v6a1.5,1.5,0,0,0,1.5,1.5h11.99a1.5,1.5,0,0,0,1.5-1.5v-6a1.5,1.5,0,0,0-1.5-1.5Zm1.5,3h3v3h-3Zm8.993,3h-3v-3h3Z" transform="translate(-315.312 -354.812)"/>
      </g>
    </g>
  </g>
</svg>
