<svg xmlns="http://www.w3.org/2000/svg" width="89" height="89" viewBox="0 0 89 89">
  <g id="Grupo_1100042" data-name="Grupo 1100042" transform="translate(913 10786)">
    <rect id="Rectángulo_400898" data-name="Rectángulo 400898" width="89" height="89" rx="44.5" transform="translate(-913 -10786)" fill="#e9bd68"/>
    <g id="_FILLED_OUTLINE" data-name="/ FILLED_OUTLINE" transform="translate(-912 -10779.378)">
      <rect id="Rectángulo_401504" data-name="Rectángulo 401504" width="18.933" height="11.36" rx="5.68" transform="translate(27.6 24.394) rotate(-45)" fill="#fff"/>
      <path id="Rectángulo_401504_-_Contorno" data-name="Rectángulo 401504 - Contorno" d="M5.68-3h7.573a8.68,8.68,0,1,1,0,17.36H5.68A8.68,8.68,0,1,1,5.68-3ZM13.253,8.36a2.68,2.68,0,1,0,0-5.36H5.68a2.68,2.68,0,1,0,0,5.36Z" transform="translate(27.6 24.394) rotate(-45)" fill="#fff"/>
      <path id="Trazado_874874" data-name="Trazado 874874" d="M218.341,28.658l-5.508-5.508a1.785,1.785,0,0,0-2.524,0L208,25.458l8.033,8.033,2.308-2.308A1.785,1.785,0,0,0,218.341,28.658Z" transform="translate(-170.58 -10.883)" fill="#fff"/>
      <path id="Trazado_874874_-_Contorno" data-name="Trazado 874874 - Contorno" d="M216.033,36.491a2.991,2.991,0,0,1-2.121-.879l-8.033-8.033a3,3,0,0,1,0-4.243l2.308-2.308a4.785,4.785,0,0,1,6.767,0l5.508,5.508a4.785,4.785,0,0,1,0,6.767l-2.308,2.308A2.991,2.991,0,0,1,216.033,36.491Z" transform="translate(-170.58 -10.883)" fill="#fff"/>
      <path id="Trazado_874875" data-name="Trazado 874875" d="M32.033,328l-2.678,2.678H26.678L24,336.925l1.785,1.785,6.248-2.678v-2.678l2.678-2.678Z" transform="translate(-7.107 -282.186)" fill="#fff"/>
      <path id="Trazado_874875_-_Contorno" data-name="Trazado 874875 - Contorno" d="M32.033,325a2.991,2.991,0,0,1,2.121.879l2.678,2.678a3,3,0,0,1,0,4.243l-1.8,1.8v1.435a3,3,0,0,1-1.818,2.757l-6.248,2.678a3,3,0,0,1-3.3-.636l-1.785-1.785a3,3,0,0,1-.636-3.3L23.92,329.5a3,3,0,0,1,2.757-1.818h1.435l1.8-1.8A2.991,2.991,0,0,1,32.033,325Zm-3,8.678h-.377l-.283.66.66-.283Z" transform="translate(-7.107 -282.186)" fill="#fff"/>
      <path id="Trazado_874876" data-name="Trazado 874876" d="M1.785,0H19.041a1.785,1.785,0,0,1,1.785,1.785V4.526a1.785,1.785,0,0,1-1.785,1.785H1.785A1.785,1.785,0,0,1,0,4.526V1.785A1.785,1.785,0,0,1,1.785,0Z" transform="translate(23.136 45.811) rotate(-45)" fill="#fff"/>
      <path id="Trazado_874876_-_Contorno" data-name="Trazado 874876 - Contorno" d="M1.785-3H19.041a4.79,4.79,0,0,1,4.785,4.785V4.526a4.79,4.79,0,0,1-4.785,4.785H1.785A4.79,4.79,0,0,1-3,4.526V1.785A4.79,4.79,0,0,1,1.785-3ZM17.827,3H3v.311H17.827Z" transform="translate(23.136 45.811) rotate(-45)" fill="#fff"/>
      <path id="Trazado_874877" data-name="Trazado 874877" d="M35.635,446.248H19.124a3.124,3.124,0,1,1,0-6.248h2.231v1.785H19.124a1.339,1.339,0,0,0,0,2.678H35.635Z" transform="translate(0 -381.691)" fill="#fff"/>
      <path id="Trazado_874877_-_Contorno" data-name="Trazado 874877 - Contorno" d="M35.635,449.248H19.124a6.124,6.124,0,1,1,0-12.248h2.231a3,3,0,0,1,3,3v1.463h11.28a3,3,0,0,1,3,3v1.785A3,3,0,0,1,35.635,449.248Z" transform="translate(0 -381.691)" fill="#fff"/>
      <g id="Grupo_1100041" data-name="Grupo 1100041" transform="translate(16.724 10.378)">
        <path id="Trazado_874878" data-name="Trazado 874878" d="M0,0H5.049V1.785H0Z" transform="translate(32.557 3.57) rotate(-45)" fill="#fff"/>
        <path id="Trazado_874878_-_Contorno" data-name="Trazado 874878 - Contorno" d="M0-3H5.049a3,3,0,0,1,3,3V1.785a3,3,0,0,1-3,3H0a3,3,0,0,1-3-3V0A3,3,0,0,1,0-3Z" transform="translate(32.557 3.57) rotate(-45)" fill="#fff"/>
        <path id="Trazado_874879" data-name="Trazado 874879" d="M0,0H7.573V1.785H0Z" transform="translate(34.341 8.032) rotate(-45)" fill="#fff"/>
        <path id="Trazado_874879_-_Contorno" data-name="Trazado 874879 - Contorno" d="M0-3H7.573a3,3,0,0,1,3,3V1.785a3,3,0,0,1-3,3H0a3,3,0,0,1-2.121-.879A3,3,0,0,1-3,1.785V0A3,3,0,0,1,0-3Z" transform="translate(34.341 8.032) rotate(-45)" fill="#fff"/>
        <path id="Trazado_874880" data-name="Trazado 874880" d="M0,0H7.573V1.785H0Z" transform="translate(35.233 13.387) rotate(-45)" fill="#fff"/>
        <path id="Trazado_874880_-_Contorno" data-name="Trazado 874880 - Contorno" d="M0-3H7.573a3,3,0,0,1,3,3V1.785a3,3,0,0,1-3,3H0a3,3,0,0,1-2.121-.879A3,3,0,0,1-3,1.785V0A3,3,0,0,1,0-3Z" transform="translate(35.233 13.387) rotate(-45)" fill="#fff"/>
        <path id="Trazado_874881" data-name="Trazado 874881" d="M0,0H1.785V5.2H0Z" transform="matrix(0.857, -0.515, 0.515, 0.857, 4.761, 12.678)" fill="#fff"/>
        <path id="Trazado_874881_-_Contorno" data-name="Trazado 874881 - Contorno" d="M0-3H1.785a3,3,0,0,1,3,3V5.2a3,3,0,0,1-3,3H0a3,3,0,0,1-3-3V0A3,3,0,0,1,0-3Z" transform="matrix(0.857, -0.515, 0.515, 0.857, 4.761, 12.678)" fill="#fff"/>
        <path id="Trazado_874882" data-name="Trazado 874882" d="M0,0H1.785V4.551H0Z" transform="matrix(0.196, -0.981, 0.981, 0.196, 0, 18.457)" fill="#fff"/>
        <path id="Trazado_874882_-_Contorno" data-name="Trazado 874882 - Contorno" d="M0-3H1.785a3,3,0,0,1,3,3V4.551a3,3,0,0,1-3,3H0a3,3,0,0,1-3-3V0A3,3,0,0,1,0-3Z" transform="matrix(0.196, -0.981, 0.981, 0.196, 0, 18.457)" fill="#fff"/>
        <path id="Trazado_874883" data-name="Trazado 874883" d="M0,0H5.2V1.785H0Z" transform="matrix(0.857, -0.515, 0.515, 0.857, 1.504, 23.947)" fill="#fff"/>
        <path id="Trazado_874883_-_Contorno" data-name="Trazado 874883 - Contorno" d="M0-3H5.2a3,3,0,0,1,3,3V1.785a3,3,0,0,1-3,3H0a3,3,0,0,1-3-3V0A3,3,0,0,1,0-3Z" transform="matrix(0.857, -0.515, 0.515, 0.857, 1.504, 23.947)" fill="#fff"/>
      </g>
      <path id="Trazado_874884" data-name="Trazado 874884" d="M0,0H1.785V2.822H0Z" transform="matrix(0.316, -0.949, 0.949, 0.316, 28.224, 55.571)" fill="#fff"/>
      <path id="Trazado_874884_-_Contorno" data-name="Trazado 874884 - Contorno" d="M0-3H1.785a3,3,0,0,1,3,3V2.822a3,3,0,0,1-3,3H0a3,3,0,0,1-3-3V0A3,3,0,0,1,0-3Z" transform="matrix(0.316, -0.949, 0.949, 0.316, 28.224, 55.571)" fill="#fff"/>
      <path id="Trazado_874885" data-name="Trazado 874885" d="M0,0H1.785V2.524H0Z" transform="translate(24.288 59.828) rotate(-45)" fill="#fff"/>
      <path id="Trazado_874885_-_Contorno" data-name="Trazado 874885 - Contorno" d="M0-3H1.785a3,3,0,0,1,3,3V2.524a3,3,0,0,1-3,3H0a3,3,0,0,1-3-3V0A3,3,0,0,1,0-3Z" transform="translate(24.288 59.828) rotate(-45)" fill="#fff"/>
      <path id="Trazado_874886" data-name="Trazado 874886" d="M0,0H1.785V2.524H0Z" transform="translate(28.75 58.936) rotate(-45)" fill="#fff"/>
      <path id="Trazado_874886_-_Contorno" data-name="Trazado 874886 - Contorno" d="M0-3H1.785a3,3,0,0,1,3,3V2.524a3,3,0,0,1-3,3H0a3,3,0,0,1-3-3V0A3,3,0,0,1,0-3Z" transform="translate(28.75 58.936) rotate(-45)" fill="#fff"/>
      <path id="Trazado_874887" data-name="Trazado 874887" d="M436.463,204.463h-1.785A2.681,2.681,0,0,0,432,201.785V200A4.468,4.468,0,0,1,436.463,204.463Z" transform="translate(-369.589 -168.467)" fill="#fff"/>
      <path id="Trazado_874887_-_Contorno" data-name="Trazado 874887 - Contorno" d="M436.463,207.463h-1.785a3,3,0,0,1-3-3A2.484,2.484,0,0,1,429,201.785V200a3,3,0,0,1,3-3,7.48,7.48,0,0,1,7.459,7.459,3,3,0,0,1-3,3Z" transform="translate(-369.589 -168.467)" fill="#fff"/>
      <path id="Trazado_874888" data-name="Trazado 874888" d="M88.958,209.665a1.785,1.785,0,0,0-.523-1.262l-8.4-8.4-.784.784a2.678,2.678,0,0,0,0,3.787l-.108-.108H78.095a1.785,1.785,0,0,0-1.262.523l-4.048,4.048A2.678,2.678,0,0,0,72,210.927v1.352a2.678,2.678,0,0,0,.784,1.893L77.2,218.59a3.57,3.57,0,0,0,2.524,1.046h2.091l13.388,13.388h11.6l-17.85-17.85Z" transform="translate(-49.752 -168.467)" fill="#fff"/>
      <path id="Trazado_874888_-_Contorno" data-name="Trazado 874888 - Contorno" d="M80.033,197a3,3,0,0,1,2.121.879l8.4,8.4a4.754,4.754,0,0,1,1.4,3.384v4.266L108.93,230.9a3,3,0,0,1-2.121,5.121h-11.6a3,3,0,0,1-2.121-.879L80.575,222.635h-.849a6.527,6.527,0,0,1-4.646-1.924l-4.418-4.418A5.641,5.641,0,0,1,69,212.279v-1.352a5.64,5.64,0,0,1,1.663-4.015l4.048-4.048a4.83,4.83,0,0,1,.773-.629,5.653,5.653,0,0,1,1.643-3.573l.784-.784A3,3,0,0,1,80.033,197Zm19.533,33.023L86.837,217.294a3,3,0,0,1-.879-2.121v-5.508l-4.079-3.824a2.87,2.87,0,0,1-.563.8,3,3,0,0,1-2.829.824h-.392l-3.189,3.692L75,212.279l4.323,4.19,2.494.167a3,3,0,0,1,2.121.879l12.509,12.509Z" transform="translate(-49.752 -168.467)" fill="#fff"/>
      <path id="Trazado_874889" data-name="Trazado 874889" d="M266.4,185.338a1.785,1.785,0,0,1-.523-1.262v-5.463a1.785,1.785,0,0,0-.523-1.262l-6.494-6.494a2.678,2.678,0,0,0-3.8.015l-4.3,4.368.317.317a3.257,3.257,0,0,0,1.189.759L247.584,181a1.893,1.893,0,0,0,2.678,2.678,1.893,1.893,0,0,0,2.678,2.678,1.893,1.893,0,1,0,2.678,2.678l.893-.893a1.893,1.893,0,0,0,2.678,2.678l15.619,15.619V193.741Z" transform="translate(-205.255 -141.878)" fill="#fff"/>
      <path id="Trazado_874889_-_Contorno" data-name="Trazado 874889 - Contorno" d="M256.97,167.072a5.641,5.641,0,0,1,4.014,1.663l6.494,6.494a4.754,4.754,0,0,1,1.4,3.384v5.463l8.047,7.543a3,3,0,0,1,.879,2.121v12.694a3,3,0,0,1-5.121,2.121l-14.224-14.224a4.934,4.934,0,0,1-4.073-1.4q-.172-.172-.323-.356a4.894,4.894,0,0,1-4.315-3.034,4.928,4.928,0,0,1-2.681-2.679,4.9,4.9,0,0,1-1.606-7.992l2.633-2.633a3.07,3.07,0,0,1,.528-3.109l4.3-4.368a5.715,5.715,0,0,1,4.024-1.694Zm14.836,27.911-7.524-7.524a4.754,4.754,0,0,1-1.4-3.384v-5.463l-5.9-5.415-2.046,2.078q.032.1.054.2a3.277,3.277,0,0,1-.6,2.959l-2.348,2.348a3.137,3.137,0,0,1,1.125.77,2.041,2.041,0,0,1,.545,1.847,2.246,2.246,0,0,1,2.133.83,1.921,1.921,0,0,1,.518.91,3,3,0,0,1,3.137,2.734,1.5,1.5,0,0,1,.472-.06c.8,0,.776.316,1.339.879l10.5,10.5Z" transform="translate(-205.255 -141.878)" fill="#fff"/>
      <rect id="Rectángulo_401505" data-name="Rectángulo 401505" width="1.785" height="6.158" rx="0.893" transform="translate(28.86 36.734) rotate(-45)" fill="#fff"/>
      <path id="Rectángulo_401505_-_Contorno" data-name="Rectángulo 401505 - Contorno" d="M.893-3A3.9,3.9,0,0,1,4.785.893V5.265A3.893,3.893,0,1,1-3,5.265V.893A3.9,3.9,0,0,1,.893-3Z" transform="translate(28.86 36.734) rotate(-45)" fill="#fff"/>
      <path id="Trazado_874890" data-name="Trazado 874890" d="M127.15,108.832l5.508,5.508a1.785,1.785,0,0,0,2.524,0l2.308-2.308L129.458,104l-2.308,2.308A1.785,1.785,0,0,0,127.15,108.832Z" transform="translate(-98.285 -83.177)" fill="#fff"/>
      <path id="Trazado_874890_-_Contorno" data-name="Trazado 874890 - Contorno" d="M129.458,101a2.991,2.991,0,0,1,2.121.879l8.033,8.033a3,3,0,0,1,0,4.243l-2.308,2.308a4.785,4.785,0,0,1-6.767,0l-5.508-5.508a4.785,4.785,0,0,1,0-6.767l2.308-2.308A2.991,2.991,0,0,1,129.458,101Z" transform="translate(-98.285 -83.177)" fill="#fff"/>
      <path id="Trazado_874891" data-name="Trazado 874891" d="M235.57,136,232,139.57,246.433,154a2.524,2.524,0,0,0,3.57-3.57Z" transform="translate(-191.902 -111.607)" fill="#fff"/>
      <path id="Trazado_874891_-_Contorno" data-name="Trazado 874891 - Contorno" d="M235.57,133a3,3,0,0,1,2.121.879l14.433,14.433a5.524,5.524,0,0,1-7.813,7.813l-14.433-14.433a3,3,0,0,1,0-4.243l3.57-3.57A3,3,0,0,1,235.57,133Z" transform="translate(-191.902 -111.607)" fill="#fff"/>
      <rect id="Rectángulo_401506" data-name="Rectángulo 401506" width="8.835" height="3.787" rx="1.893" transform="translate(43.662 43.136) rotate(-45)" fill="#fff"/>
      <path id="Rectángulo_401506_-_Contorno" data-name="Rectángulo 401506 - Contorno" d="M1.893-3H6.942a4.893,4.893,0,0,1,0,9.787H1.893A4.893,4.893,0,1,1,1.893-3Z" transform="translate(43.662 43.136) rotate(-45)" fill="#fff"/>
      <rect id="Rectángulo_401507" data-name="Rectángulo 401507" width="8.835" height="3.787" rx="1.893" transform="translate(40.985 40.458) rotate(-45)" fill="#fff"/>
      <path id="Rectángulo_401507_-_Contorno" data-name="Rectángulo 401507 - Contorno" d="M1.893-3H6.942a4.893,4.893,0,0,1,0,9.787H1.893A4.893,4.893,0,1,1,1.893-3Z" transform="translate(40.985 40.458) rotate(-45)" fill="#fff"/>
      <rect id="Rectángulo_401508" data-name="Rectángulo 401508" width="7.573" height="3.787" rx="1.893" transform="translate(49.908 47.599) rotate(-45)" fill="#fff"/>
      <path id="Rectángulo_401508_-_Contorno" data-name="Rectángulo 401508 - Contorno" d="M1.893-3H5.68a4.893,4.893,0,1,1,0,9.787H1.893A4.893,4.893,0,1,1,1.893-3Z" transform="translate(49.908 47.599) rotate(-45)" fill="#fff"/>
      <rect id="Rectángulo_401509" data-name="Rectángulo 401509" width="8.835" height="3.787" rx="1.893" transform="translate(46.339 45.813) rotate(-45)" fill="#fff"/>
      <path id="Rectángulo_401509_-_Contorno" data-name="Rectángulo 401509 - Contorno" d="M1.893-3H6.942a4.893,4.893,0,0,1,0,9.787H1.893A4.893,4.893,0,1,1,1.893-3Z" transform="translate(46.339 45.813) rotate(-45)" fill="#fff"/>
      <rect id="Rectángulo_401510" data-name="Rectángulo 401510" width="5.049" height="1.785" rx="0.893" transform="translate(47.046 43.844) rotate(-45)" fill="#fff"/>
      <path id="Rectángulo_401510_-_Contorno" data-name="Rectángulo 401510 - Contorno" d="M.893-3H4.156a3.893,3.893,0,1,1,0,7.785H.893A3.893,3.893,0,1,1,.893-3Z" transform="translate(47.046 43.844) rotate(-45)" fill="#fff"/>
      <rect id="Rectángulo_401511" data-name="Rectángulo 401511" width="5.049" height="1.785" rx="0.893" transform="translate(44.369 41.166) rotate(-45)" fill="#fff"/>
      <path id="Rectángulo_401511_-_Contorno" data-name="Rectángulo 401511 - Contorno" d="M.893-3H4.156a3.893,3.893,0,1,1,0,7.785H.893A3.893,3.893,0,1,1,.893-3Z" transform="translate(44.369 41.166) rotate(-45)" fill="#fff"/>
      <rect id="Rectángulo_401512" data-name="Rectángulo 401512" width="5.049" height="1.785" rx="0.893" transform="translate(49.723 46.521) rotate(-45)" fill="#fff"/>
      <path id="Rectángulo_401512_-_Contorno" data-name="Rectángulo 401512 - Contorno" d="M.893-3H4.156a3.893,3.893,0,1,1,0,7.785H.893A3.893,3.893,0,1,1,.893-3Z" transform="translate(49.723 46.521) rotate(-45)" fill="#fff"/>
      <path id="Trazado_874892" data-name="Trazado 874892" d="M288.576,170.856a2.678,2.678,0,0,0-3.8.015l-4.3,4.368.317.317a3.271,3.271,0,0,0,4.626,0l1.253-1.253,2.757,4.6a2.582,2.582,0,0,0,4.587-.311h0a2.582,2.582,0,0,0-.547-2.843Z" transform="translate(-234.967 -141.878)" fill="#fff"/>
      <path id="Trazado_874892_-_Contorno" data-name="Trazado 874892 - Contorno" d="M286.683,167.072a5.641,5.641,0,0,1,4.015,1.663l4.889,4.889a5.582,5.582,0,0,1-3.569,9.516,5.753,5.753,0,0,1-5.164-2.7l-.951-1.584a6.282,6.282,0,0,1-7.234-1.181c-1.165-1.165-1.489-3.369-.333-4.543l4.3-4.368a5.715,5.715,0,0,1,4.023-1.694Z" transform="translate(-234.967 -141.878)" fill="#fff"/>
      <path id="Trazado_874893" data-name="Trazado 874893" d="M467.57,179.57A3.574,3.574,0,0,0,464,176v1.785a1.787,1.787,0,0,1,1.785,1.785Z" transform="translate(-398.019 -147.144)" fill="#fff"/>
      <path id="Trazado_874893_-_Contorno" data-name="Trazado 874893 - Contorno" d="M467.57,182.57h-1.785A9.823,9.823,0,0,1,461,177.785V176a3,3,0,0,1,3-3,6.585,6.585,0,0,1,6.567,6.567,3,3,0,0,1-3,3Z" transform="translate(-398.019 -147.144)" fill="#fff"/>
      <path id="Trazado_874894" data-name="Trazado 874894" d="M17.785,443.124a1.34,1.34,0,0,1,1.339-1.339h2.231V440H19.124a3.124,3.124,0,1,0,0,6.248H35.635v-1.785H19.124A1.34,1.34,0,0,1,17.785,443.124Z" transform="translate(0 -381.691)" fill="#fff"/>
      <path id="Trazado_874894_-_Contorno" data-name="Trazado 874894 - Contorno" d="M35.635,449.248H19.124a6.124,6.124,0,1,1,0-12.248h2.231a3,3,0,0,1,3,3v1.463h11.28a3,3,0,0,1,3,3v1.785A3,3,0,0,1,35.635,449.248Z" transform="translate(0 -381.691)" fill="#fff"/>
      <path id="Trazado_874895" data-name="Trazado 874895" d="M0,0H5.049V1.785H0Z" transform="translate(49.281 13.948) rotate(-45)" fill="#fff"/>
      <path id="Trazado_874895_-_Contorno" data-name="Trazado 874895 - Contorno" d="M0-3H5.049a3,3,0,0,1,3,3V1.785a3,3,0,0,1-3,3H0a3,3,0,0,1-3-3V0A3,3,0,0,1,0-3Z" transform="translate(49.281 13.948) rotate(-45)" fill="#fff"/>
      <path id="Trazado_874896" data-name="Trazado 874896" d="M0,0H7.573V1.785H0Z" transform="translate(51.065 18.41) rotate(-45)" fill="#fff"/>
      <path id="Trazado_874896_-_Contorno" data-name="Trazado 874896 - Contorno" d="M0-3H7.573a3,3,0,0,1,3,3V1.785a3,3,0,0,1-3,3H0a3,3,0,0,1-2.121-.879A3,3,0,0,1-3,1.785V0A3,3,0,0,1,0-3Z" transform="translate(51.065 18.41) rotate(-45)" fill="#fff"/>
      <path id="Trazado_874897" data-name="Trazado 874897" d="M0,0H7.573V1.785H0Z" transform="translate(51.957 23.765) rotate(-45)" fill="#fff"/>
      <path id="Trazado_874897_-_Contorno" data-name="Trazado 874897 - Contorno" d="M0-3H7.573a3,3,0,0,1,3,3V1.785a3,3,0,0,1-3,3H0a3,3,0,0,1-2.121-.879A3,3,0,0,1-3,1.785V0A3,3,0,0,1,0-3Z" transform="translate(51.957 23.765) rotate(-45)" fill="#fff"/>
      <path id="Trazado_874898" data-name="Trazado 874898" d="M57.241,50.666a2.785,2.785,0,0,0-1.864-4.753A2.784,2.784,0,0,0,52.7,43.235a2.784,2.784,0,0,0-2.678-2.678,2.761,2.761,0,0,0-.5-1.491,4.138,4.138,0,0,0,1.559-.982l.444-.444,2.089,3.482,1.531-.918-2.678-4.463a.893.893,0,0,0-1.4-.172l-1.253,1.253a2.38,2.38,0,0,1-3.026.281l3.652-3.709a1.772,1.772,0,0,1,1.265-.533,1.753,1.753,0,0,1,1.269.523l6.494,6.494a.887.887,0,0,1,.261.631v5.463a2.66,2.66,0,0,0,.784,1.893l8.4,8.4,1.262-1.262-8.4-8.4a.887.887,0,0,1-.261-.631V40.511a2.66,2.66,0,0,0-.784-1.893L54.24,32.123a3.545,3.545,0,0,0-2.524-1.046H51.7a3.545,3.545,0,0,0-2.53,1.065l-.133.135L44.93,28.168l3.462-3.462a2.678,2.678,0,0,0,0-3.787l-5.508-5.508a2.677,2.677,0,0,0-3.787,0L28.234,26.275a2.677,2.677,0,0,0,0,3.787l5.508,5.508a2.658,2.658,0,0,0,1.414.741L33.85,37.616l-2.939-2.939a.893.893,0,0,0-1.262,0l-.784.784a3.571,3.571,0,0,0-.923,3.446,2.658,2.658,0,0,0-1.493.755L22.4,43.711a3.547,3.547,0,0,0-1.046,2.524v1.352A3.547,3.547,0,0,0,22.4,50.112l.37.37-.893.893H19.57a.892.892,0,0,0-.82.541l-2.678,6.248a.893.893,0,0,0,.189.983l1.785,1.785a.892.892,0,0,0,.983.189l6.248-2.678a.892.892,0,0,0,.541-.82V55.314l.893-.893.108.108a4.433,4.433,0,0,0,3.156,1.307H31.7L44.822,68.963,46.084,67.7,32.7,54.313a.892.892,0,0,0-.631-.261H29.974a2.66,2.66,0,0,1-1.893-.784l-4.418-4.418a1.773,1.773,0,0,1-.523-1.262V46.235a1.773,1.773,0,0,1,.523-1.262l4.048-4.048a.887.887,0,0,1,.631-.261h.676l4.2,4.2L34.481,43.6l-4.354-4.354a1.785,1.785,0,0,1,0-2.524l.153-.153,7.771,7.771a.887.887,0,0,1,.261.631v5.508a.892.892,0,0,0,.261.631l17.85,17.85L57.687,67.7,40.1,50.112V44.973a2.657,2.657,0,0,0-.541-1.614L41.7,41.218a2.681,2.681,0,0,0,0-3.787L39.76,35.493a2.661,2.661,0,0,0-1.416-.739L40.1,33l5.094,5.084a4.178,4.178,0,0,0,.387.341,2.826,2.826,0,0,0-.311.268l-3.57,3.57a2.785,2.785,0,0,0,1.864,4.753,2.784,2.784,0,0,0,2.678,2.678,2.788,2.788,0,0,0,3.7,2.526,2.788,2.788,0,0,0,3.89,1.651L68.92,68.963,70.182,67.7,55.194,52.713ZM24.033,51.744l1.415,1.415-1.154,1.154a.892.892,0,0,0-.261.631v2.089l-5.151,2.208-.93-.93,2.208-5.151h2.089a.892.892,0,0,0,.631-.261Zm16.327-35.07a.894.894,0,0,1,1.262,0l5.508,5.508a.894.894,0,0,1,0,1.262l-1.677,1.677-6.77-6.77ZM35,34.308,29.5,28.8a.894.894,0,0,1,0-1.262l1.677-1.677,6.77,6.77-1.677,1.677A.894.894,0,0,1,35,34.308ZM38.5,36.756l1.938,1.938a.893.893,0,0,1,0,1.262l-2.123,2.123-3.2-3.2,2.123-2.123A.893.893,0,0,1,38.5,36.756Zm.708-5.387-6.77-6.77,4.985-4.985,6.77,6.77ZM45.5,35.875,41.36,31.738l2.308-2.308,4.118,4.118Zm-1.828,9.36a1,1,0,0,1-.708-1.709l3.57-3.57a1,1,0,0,1,1.415,1.415l-3.57,3.57A.994.994,0,0,1,43.668,45.235Zm2.678,2.678a1,1,0,0,1-.708-1.708l3.57-3.57a1,1,0,0,1,1.415,1.415l-3.57,3.57A.994.994,0,0,1,46.346,47.912ZM49.731,50.3a1,1,0,1,1-1.415-1.415l3.57-3.57A1,1,0,1,1,53.3,46.726L50.623,49.4Zm3.57,1.785a1,1,0,0,1-1.415-1.415l2.678-2.678A1,1,0,1,1,55.979,49.4Z" transform="translate(0 -3.775)" fill="#fff"/>
      <path id="Trazado_874898_-_Contorno" data-name="Trazado 874898 - Contorno" d="M68.92,71.963a2.99,2.99,0,0,1-2.121-.879L52.868,57.153A5.765,5.765,0,0,1,51.225,57l8.583,8.583a3,3,0,0,1,0,4.243l-1.262,1.262a3,3,0,0,1-4.243,0l-17.85-17.85a4.973,4.973,0,0,1-1.14-2.752V47.013a3.088,3.088,0,0,1-4.215-.027l-2.6-2.6-2.711,2.711.356.493L30.2,51.146l1.863-.094a4.972,4.972,0,0,1,2.753,1.14L48.206,65.579a3,3,0,0,1,0,4.243l-1.262,1.262a3,3,0,0,1-4.243,0L30.453,58.836h-.479a7.568,7.568,0,0,1-1.4-.13A4.911,4.911,0,0,1,26.458,61.2l-6.248,2.678a5.028,5.028,0,0,1-1.533.315,3.867,3.867,0,0,1-2.753-1.14L14.14,61.266a3.874,3.874,0,0,1-.825-4.286l2.678-6.248a4.891,4.891,0,0,1,2.45-2.094,6.2,6.2,0,0,1-.087-1.06V46.235a6.584,6.584,0,0,1,1.93-4.651l4.042-4.042a5.533,5.533,0,0,1,.563-.494,6.583,6.583,0,0,1,1.851-3.706l.265-.265-.894-.894a5.677,5.677,0,0,1,0-8.029L36.976,13.29a5.678,5.678,0,0,1,8.029,0L50.513,18.8a5.684,5.684,0,0,1,0,8.029l-1.341,1.341.308.308a6.636,6.636,0,0,1,6.886,1.531L62.856,36.5a5.691,5.691,0,0,1,1.663,4.023V45.1L72.3,52.886a3,3,0,0,1,0,4.243l-1.262,1.262a3.088,3.088,0,0,1-4.243,0l-6.624-6.624a5.782,5.782,0,0,1-.739.945L72.3,65.579a3,3,0,0,1,0,4.243l-1.262,1.262A2.991,2.991,0,0,1,68.92,71.963ZM36.678,24.6l2.528,2.528.743-.743L37.42,23.856Z" transform="translate(0 -3.775)" fill="#fff"/>
      <path id="Trazado_874899" data-name="Trazado 874899" d="M0,0H1.785V5.2H0Z" transform="matrix(0.857, -0.515, 0.515, 0.857, 21.485, 23.057)" fill="#fff"/>
      <path id="Trazado_874899_-_Contorno" data-name="Trazado 874899 - Contorno" d="M0-3H1.785a3,3,0,0,1,3,3V5.2a3,3,0,0,1-3,3H0a3,3,0,0,1-3-3V0A3,3,0,0,1,0-3Z" transform="matrix(0.857, -0.515, 0.515, 0.857, 21.485, 23.057)" fill="#fff"/>
      <path id="Trazado_874900" data-name="Trazado 874900" d="M0,0H1.785V4.551H0Z" transform="matrix(0.196, -0.981, 0.981, 0.196, 16.724, 28.835)" fill="#fff"/>
      <path id="Trazado_874900_-_Contorno" data-name="Trazado 874900 - Contorno" d="M0-3H1.785a3,3,0,0,1,3,3V4.551a3,3,0,0,1-3,3H0a3,3,0,0,1-3-3V0A3,3,0,0,1,0-3Z" transform="matrix(0.196, -0.981, 0.981, 0.196, 16.724, 28.835)" fill="#fff"/>
      <path id="Trazado_874901" data-name="Trazado 874901" d="M0,0H5.2V1.785H0Z" transform="matrix(0.857, -0.515, 0.515, 0.857, 18.228, 34.324)" fill="#fff"/>
      <path id="Trazado_874901_-_Contorno" data-name="Trazado 874901 - Contorno" d="M0-3H5.2a3,3,0,0,1,3,3V1.785a3,3,0,0,1-3,3H0a3,3,0,0,1-3-3V0A3,3,0,0,1,0-3Z" transform="matrix(0.857, -0.515, 0.515, 0.857, 18.228, 34.324)" fill="#fff"/>
      <path id="Trazado_874902" data-name="Trazado 874902" d="M0,0H1.785V2.822H0Z" transform="matrix(0.316, -0.949, 0.949, 0.316, 28.224, 55.571)" fill="#fff"/>
      <path id="Trazado_874902_-_Contorno" data-name="Trazado 874902 - Contorno" d="M0-3H1.785a3,3,0,0,1,3,3V2.822a3,3,0,0,1-3,3H0a3,3,0,0,1-3-3V0A3,3,0,0,1,0-3Z" transform="matrix(0.316, -0.949, 0.949, 0.316, 28.224, 55.571)" fill="#fff"/>
      <path id="Trazado_874903" data-name="Trazado 874903" d="M0,0H1.785V2.524H0Z" transform="translate(24.288 59.828) rotate(-45)" fill="#fff"/>
      <path id="Trazado_874903_-_Contorno" data-name="Trazado 874903 - Contorno" d="M0-3H1.785a3,3,0,0,1,3,3V2.524a3,3,0,0,1-3,3H0a3,3,0,0,1-3-3V0A3,3,0,0,1,0-3Z" transform="translate(24.288 59.828) rotate(-45)" fill="#fff"/>
      <path id="Trazado_874904" data-name="Trazado 874904" d="M0,0H1.785V2.524H0Z" transform="translate(28.75 58.936) rotate(-45)" fill="#fff"/>
      <path id="Trazado_874904_-_Contorno" data-name="Trazado 874904 - Contorno" d="M0-3H1.785a3,3,0,0,1,3,3V2.524a3,3,0,0,1-3,3H0a3,3,0,0,1-3-3V0A3,3,0,0,1,0-3Z" transform="translate(28.75 58.936) rotate(-45)" fill="#fff"/>
      <path id="Trazado_874905" data-name="Trazado 874905" d="M434.678,204.463h1.785A4.468,4.468,0,0,0,432,200v1.785A2.681,2.681,0,0,1,434.678,204.463Z" transform="translate(-369.589 -168.467)" fill="#fff"/>
      <path id="Trazado_874905_-_Contorno" data-name="Trazado 874905 - Contorno" d="M436.463,207.463h-1.785a3,3,0,0,1-3-3A2.484,2.484,0,0,1,429,201.785V200a3,3,0,0,1,3-3,7.48,7.48,0,0,1,7.459,7.459,3,3,0,0,1-3,3Z" transform="translate(-369.589 -168.467)" fill="#fff"/>
      <path id="Trazado_874906" data-name="Trazado 874906" d="M465.785,179.57h1.785A3.574,3.574,0,0,0,464,176v1.785A1.787,1.787,0,0,1,465.785,179.57Z" transform="translate(-398.019 -147.144)" fill="#fff"/>
      <path id="Trazado_874906_-_Contorno" data-name="Trazado 874906 - Contorno" d="M467.57,182.57h-1.785A9.823,9.823,0,0,1,461,177.785V176a3,3,0,0,1,3-3,6.585,6.585,0,0,1,6.567,6.567,3,3,0,0,1-3,3Z" transform="translate(-398.019 -147.144)" fill="#fff"/>
    </g>
    <g id="_FILLED_OUTLINE-2" data-name="/ FILLED_OUTLINE" transform="translate(-912 -10779.378)">
      <rect id="Rectángulo_401504-2" data-name="Rectángulo 401504" width="18.933" height="11.36" rx="5.68" transform="translate(27.6 24.394) rotate(-45)" fill="#e2803d"/>
      <path id="Trazado_874874-2" data-name="Trazado 874874" d="M218.341,28.658l-5.508-5.508a1.785,1.785,0,0,0-2.524,0L208,25.458l8.033,8.033,2.308-2.308A1.785,1.785,0,0,0,218.341,28.658Z" transform="translate(-170.58 -10.883)" fill="#f2995c"/>
      <path id="Trazado_874875-2" data-name="Trazado 874875" d="M32.033,328l-2.678,2.678H26.678L24,336.925l1.785,1.785,6.248-2.678v-2.678l2.678-2.678Z" transform="translate(-7.107 -282.186)" fill="#a0745c"/>
      <path id="Trazado_874876-2" data-name="Trazado 874876" d="M1.785,0H19.041a1.785,1.785,0,0,1,1.785,1.785V4.526a1.785,1.785,0,0,1-1.785,1.785H1.785A1.785,1.785,0,0,1,0,4.526V1.785A1.785,1.785,0,0,1,1.785,0Z" transform="translate(23.136 45.811) rotate(-45)" fill="#f2995c"/>
      <path id="Trazado_874877-2" data-name="Trazado 874877" d="M35.635,446.248H19.124a3.124,3.124,0,1,1,0-6.248h2.231v1.785H19.124a1.339,1.339,0,0,0,0,2.678H35.635Z" transform="translate(0 -381.691)" fill="#a0745c"/>
      <g id="Grupo_1100041-2" data-name="Grupo 1100041" transform="translate(16.724 10.378)">
        <path id="Trazado_874878-2" data-name="Trazado 874878" d="M0,0H5.049V1.785H0Z" transform="translate(32.557 3.57) rotate(-45)" fill="#ffd168"/>
        <path id="Trazado_874879-2" data-name="Trazado 874879" d="M0,0H7.573V1.785H0Z" transform="translate(34.341 8.032) rotate(-45)" fill="#ffd168"/>
        <path id="Trazado_874880-2" data-name="Trazado 874880" d="M0,0H7.573V1.785H0Z" transform="translate(35.233 13.387) rotate(-45)" fill="#ffd168"/>
        <path id="Trazado_874881-2" data-name="Trazado 874881" d="M0,0H1.785V5.2H0Z" transform="matrix(0.857, -0.515, 0.515, 0.857, 4.761, 12.678)" fill="#ffd168"/>
        <path id="Trazado_874882-2" data-name="Trazado 874882" d="M0,0H1.785V4.551H0Z" transform="matrix(0.196, -0.981, 0.981, 0.196, 0, 18.457)" fill="#ffd168"/>
        <path id="Trazado_874883-2" data-name="Trazado 874883" d="M0,0H5.2V1.785H0Z" transform="matrix(0.857, -0.515, 0.515, 0.857, 1.504, 23.947)" fill="#ffd168"/>
      </g>
      <path id="Trazado_874884-2" data-name="Trazado 874884" d="M0,0H1.785V2.822H0Z" transform="matrix(0.316, -0.949, 0.949, 0.316, 28.224, 55.571)" fill="#d6b4aa"/>
      <path id="Trazado_874885-2" data-name="Trazado 874885" d="M0,0H1.785V2.524H0Z" transform="translate(24.288 59.828) rotate(-45)" fill="#d6b4aa"/>
      <path id="Trazado_874886-2" data-name="Trazado 874886" d="M0,0H1.785V2.524H0Z" transform="translate(28.75 58.936) rotate(-45)" fill="#d6b4aa"/>
      <path id="Trazado_874887-2" data-name="Trazado 874887" d="M436.463,204.463h-1.785A2.681,2.681,0,0,0,432,201.785V200A4.468,4.468,0,0,1,436.463,204.463Z" transform="translate(-369.589 -168.467)" fill="#ffe7b1"/>
      <path id="Trazado_874888-2" data-name="Trazado 874888" d="M88.958,209.665a1.785,1.785,0,0,0-.523-1.262l-8.4-8.4-.784.784a2.678,2.678,0,0,0,0,3.787l-.108-.108H78.095a1.785,1.785,0,0,0-1.262.523l-4.048,4.048A2.678,2.678,0,0,0,72,210.927v1.352a2.678,2.678,0,0,0,.784,1.893L77.2,218.59a3.57,3.57,0,0,0,2.524,1.046h2.091l13.388,13.388h11.6l-17.85-17.85Z" transform="translate(-49.752 -168.467)" fill="#fcdcc8"/>
      <path id="Trazado_874889-2" data-name="Trazado 874889" d="M266.4,185.338a1.785,1.785,0,0,1-.523-1.262v-5.463a1.785,1.785,0,0,0-.523-1.262l-6.494-6.494a2.678,2.678,0,0,0-3.8.015l-4.3,4.368.317.317a3.257,3.257,0,0,0,1.189.759L247.584,181a1.893,1.893,0,0,0,2.678,2.678,1.893,1.893,0,0,0,2.678,2.678,1.893,1.893,0,1,0,2.678,2.678l.893-.893a1.893,1.893,0,0,0,2.678,2.678l15.619,15.619V193.741Z" transform="translate(-205.255 -141.878)" fill="#fcdcc8"/>
      <rect id="Rectángulo_401505-2" data-name="Rectángulo 401505" width="1.785" height="6.158" rx="0.893" transform="translate(28.86 36.734) rotate(-45)" fill="#efc8b4"/>
      <path id="Trazado_874890-2" data-name="Trazado 874890" d="M127.15,108.832l5.508,5.508a1.785,1.785,0,0,0,2.524,0l2.308-2.308L129.458,104l-2.308,2.308A1.785,1.785,0,0,0,127.15,108.832Z" transform="translate(-98.285 -83.177)" fill="#f2995c"/>
      <path id="Trazado_874891-2" data-name="Trazado 874891" d="M235.57,136,232,139.57,246.433,154a2.524,2.524,0,0,0,3.57-3.57Z" transform="translate(-191.902 -111.607)" fill="#a0745c"/>
      <rect id="Rectángulo_401506-2" data-name="Rectángulo 401506" width="8.835" height="3.787" rx="1.893" transform="translate(43.662 43.136) rotate(-45)" fill="#f4d1bd"/>
      <rect id="Rectángulo_401507-2" data-name="Rectángulo 401507" width="8.835" height="3.787" rx="1.893" transform="translate(40.985 40.458) rotate(-45)" fill="#f4d1bd"/>
      <rect id="Rectángulo_401508-2" data-name="Rectángulo 401508" width="7.573" height="3.787" rx="1.893" transform="translate(49.908 47.599) rotate(-45)" fill="#f4d1bd"/>
      <rect id="Rectángulo_401509-2" data-name="Rectángulo 401509" width="8.835" height="3.787" rx="1.893" transform="translate(46.339 45.813) rotate(-45)" fill="#f4d1bd"/>
      <rect id="Rectángulo_401510-2" data-name="Rectángulo 401510" width="5.049" height="1.785" rx="0.893" transform="translate(47.046 43.844) rotate(-45)" fill="#eabfac"/>
      <rect id="Rectángulo_401511-2" data-name="Rectángulo 401511" width="5.049" height="1.785" rx="0.893" transform="translate(44.369 41.166) rotate(-45)" fill="#eabfac"/>
      <rect id="Rectángulo_401512-2" data-name="Rectángulo 401512" width="5.049" height="1.785" rx="0.893" transform="translate(49.723 46.521) rotate(-45)" fill="#eabfac"/>
      <path id="Trazado_874892-2" data-name="Trazado 874892" d="M288.576,170.856a2.678,2.678,0,0,0-3.8.015l-4.3,4.368.317.317a3.271,3.271,0,0,0,4.626,0l1.253-1.253,2.757,4.6a2.582,2.582,0,0,0,4.587-.311h0a2.582,2.582,0,0,0-.547-2.843Z" transform="translate(-234.967 -141.878)" fill="#fcdcc8"/>
      <path id="Trazado_874893-2" data-name="Trazado 874893" d="M467.57,179.57A3.574,3.574,0,0,0,464,176v1.785a1.787,1.787,0,0,1,1.785,1.785Z" transform="translate(-398.019 -147.144)" fill="#ffe7b1"/>
      <path id="Trazado_874894-2" data-name="Trazado 874894" d="M17.785,443.124a1.34,1.34,0,0,1,1.339-1.339h2.231V440H19.124a3.124,3.124,0,1,0,0,6.248H35.635v-1.785H19.124A1.34,1.34,0,0,1,17.785,443.124Z" transform="translate(0 -381.691)"/>
      <path id="Trazado_874895-2" data-name="Trazado 874895" d="M0,0H5.049V1.785H0Z" transform="translate(49.281 13.948) rotate(-45)"/>
      <path id="Trazado_874896-2" data-name="Trazado 874896" d="M0,0H7.573V1.785H0Z" transform="translate(51.065 18.41) rotate(-45)"/>
      <path id="Trazado_874897-2" data-name="Trazado 874897" d="M0,0H7.573V1.785H0Z" transform="translate(51.957 23.765) rotate(-45)"/>
      <path id="Trazado_874898-2" data-name="Trazado 874898" d="M57.241,50.666a2.785,2.785,0,0,0-1.864-4.753A2.784,2.784,0,0,0,52.7,43.235a2.784,2.784,0,0,0-2.678-2.678,2.761,2.761,0,0,0-.5-1.491,4.138,4.138,0,0,0,1.559-.982l.444-.444,2.089,3.482,1.531-.918-2.678-4.463a.893.893,0,0,0-1.4-.172l-1.253,1.253a2.38,2.38,0,0,1-3.026.281l3.652-3.709a1.772,1.772,0,0,1,1.265-.533,1.753,1.753,0,0,1,1.269.523l6.494,6.494a.887.887,0,0,1,.261.631v5.463a2.66,2.66,0,0,0,.784,1.893l8.4,8.4,1.262-1.262-8.4-8.4a.887.887,0,0,1-.261-.631V40.511a2.66,2.66,0,0,0-.784-1.893L54.24,32.123a3.545,3.545,0,0,0-2.524-1.046H51.7a3.545,3.545,0,0,0-2.53,1.065l-.133.135L44.93,28.168l3.462-3.462a2.678,2.678,0,0,0,0-3.787l-5.508-5.508a2.677,2.677,0,0,0-3.787,0L28.234,26.275a2.677,2.677,0,0,0,0,3.787l5.508,5.508a2.658,2.658,0,0,0,1.414.741L33.85,37.616l-2.939-2.939a.893.893,0,0,0-1.262,0l-.784.784a3.571,3.571,0,0,0-.923,3.446,2.658,2.658,0,0,0-1.493.755L22.4,43.711a3.547,3.547,0,0,0-1.046,2.524v1.352A3.547,3.547,0,0,0,22.4,50.112l.37.37-.893.893H19.57a.892.892,0,0,0-.82.541l-2.678,6.248a.893.893,0,0,0,.189.983l1.785,1.785a.892.892,0,0,0,.983.189l6.248-2.678a.892.892,0,0,0,.541-.82V55.314l.893-.893.108.108a4.433,4.433,0,0,0,3.156,1.307H31.7L44.822,68.963,46.084,67.7,32.7,54.313a.892.892,0,0,0-.631-.261H29.974a2.66,2.66,0,0,1-1.893-.784l-4.418-4.418a1.773,1.773,0,0,1-.523-1.262V46.235a1.773,1.773,0,0,1,.523-1.262l4.048-4.048a.887.887,0,0,1,.631-.261h.676l4.2,4.2L34.481,43.6l-4.354-4.354a1.785,1.785,0,0,1,0-2.524l.153-.153,7.771,7.771a.887.887,0,0,1,.261.631v5.508a.892.892,0,0,0,.261.631l17.85,17.85L57.687,67.7,40.1,50.112V44.973a2.657,2.657,0,0,0-.541-1.614L41.7,41.218a2.681,2.681,0,0,0,0-3.787L39.76,35.493a2.661,2.661,0,0,0-1.416-.739L40.1,33l5.094,5.084a4.178,4.178,0,0,0,.387.341,2.826,2.826,0,0,0-.311.268l-3.57,3.57a2.785,2.785,0,0,0,1.864,4.753,2.784,2.784,0,0,0,2.678,2.678,2.788,2.788,0,0,0,3.7,2.526,2.788,2.788,0,0,0,3.89,1.651L68.92,68.963,70.182,67.7,55.194,52.713ZM24.033,51.744l1.415,1.415-1.154,1.154a.892.892,0,0,0-.261.631v2.089l-5.151,2.208-.93-.93,2.208-5.151h2.089a.892.892,0,0,0,.631-.261Zm16.327-35.07a.894.894,0,0,1,1.262,0l5.508,5.508a.894.894,0,0,1,0,1.262l-1.677,1.677-6.77-6.77ZM35,34.308,29.5,28.8a.894.894,0,0,1,0-1.262l1.677-1.677,6.77,6.77-1.677,1.677A.894.894,0,0,1,35,34.308ZM38.5,36.756l1.938,1.938a.893.893,0,0,1,0,1.262l-2.123,2.123-3.2-3.2,2.123-2.123A.893.893,0,0,1,38.5,36.756Zm.708-5.387-6.77-6.77,4.985-4.985,6.77,6.77ZM45.5,35.875,41.36,31.738l2.308-2.308,4.118,4.118Zm-1.828,9.36a1,1,0,0,1-.708-1.709l3.57-3.57a1,1,0,0,1,1.415,1.415l-3.57,3.57A.994.994,0,0,1,43.668,45.235Zm2.678,2.678a1,1,0,0,1-.708-1.708l3.57-3.57a1,1,0,0,1,1.415,1.415l-3.57,3.57A.994.994,0,0,1,46.346,47.912ZM49.731,50.3a1,1,0,1,1-1.415-1.415l3.57-3.57A1,1,0,1,1,53.3,46.726L50.623,49.4Zm3.57,1.785a1,1,0,0,1-1.415-1.415l2.678-2.678A1,1,0,1,1,55.979,49.4Z" transform="translate(0 -3.775)"/>
      <path id="Trazado_874899-2" data-name="Trazado 874899" d="M0,0H1.785V5.2H0Z" transform="matrix(0.857, -0.515, 0.515, 0.857, 21.485, 23.057)"/>
      <path id="Trazado_874900-2" data-name="Trazado 874900" d="M0,0H1.785V4.551H0Z" transform="matrix(0.196, -0.981, 0.981, 0.196, 16.724, 28.835)"/>
      <path id="Trazado_874901-2" data-name="Trazado 874901" d="M0,0H5.2V1.785H0Z" transform="matrix(0.857, -0.515, 0.515, 0.857, 18.228, 34.324)"/>
      <path id="Trazado_874902-2" data-name="Trazado 874902" d="M0,0H1.785V2.822H0Z" transform="matrix(0.316, -0.949, 0.949, 0.316, 28.224, 55.571)"/>
      <path id="Trazado_874903-2" data-name="Trazado 874903" d="M0,0H1.785V2.524H0Z" transform="translate(24.288 59.828) rotate(-45)"/>
      <path id="Trazado_874904-2" data-name="Trazado 874904" d="M0,0H1.785V2.524H0Z" transform="translate(28.75 58.936) rotate(-45)"/>
      <path id="Trazado_874905-2" data-name="Trazado 874905" d="M434.678,204.463h1.785A4.468,4.468,0,0,0,432,200v1.785A2.681,2.681,0,0,1,434.678,204.463Z" transform="translate(-369.589 -168.467)"/>
      <path id="Trazado_874906-2" data-name="Trazado 874906" d="M465.785,179.57h1.785A3.574,3.574,0,0,0,464,176v1.785A1.787,1.787,0,0,1,465.785,179.57Z" transform="translate(-398.019 -147.144)"/>
    </g>
  </g>
</svg>
