<svg xmlns="http://www.w3.org/2000/svg" xmlns:xlink="http://www.w3.org/1999/xlink" width="387.529" height="318.232" viewBox="0 0 387.529 318.232">
  <defs>
    <clipPath id="clip-path">
      <rect id="Rectángulo_401242" data-name="Rectángulo 401242" width="241" height="246" transform="translate(704.73 2847)" fill="none"/>
    </clipPath>
    <clipPath id="clip-path-2">
      <rect id="Rectángulo_401241" data-name="Rectángulo 401241" width="203.777" height="224.337" fill="#e9decf"/>
    </clipPath>
    <clipPath id="clip-path-3">
      <rect id="Rectángulo_401418" data-name="Rectángulo 401418" width="304.529" height="311.504" fill="none"/>
    </clipPath>
    <clipPath id="clip-path-5">
      <rect id="Rectángulo_401410" data-name="Rectángulo 401410" width="68.132" height="59.847" fill="none"/>
    </clipPath>
    <clipPath id="clip-path-6">
      <rect id="Rectángulo_401411" data-name="Rectángulo 401411" width="24.788" height="21.528" fill="none"/>
    </clipPath>
    <clipPath id="clip-path-7">
      <rect id="Rectángulo_401412" data-name="Rectángulo 401412" width="7.372" height="7.423" fill="none"/>
    </clipPath>
    <clipPath id="clip-path-8">
      <rect id="Rectángulo_401413" data-name="Rectángulo 401413" width="7.804" height="6.884" fill="none"/>
    </clipPath>
    <clipPath id="clip-path-9">
      <rect id="Rectángulo_401414" data-name="Rectángulo 401414" width="7.502" height="7.341" fill="none"/>
    </clipPath>
    <clipPath id="clip-path-10">
      <rect id="Rectángulo_401415" data-name="Rectángulo 401415" width="8.964" height="4.917" fill="none"/>
    </clipPath>
    <clipPath id="clip-path-11">
      <path id="Trazado_873713" data-name="Trazado 873713" d="M202.927,145.956c3.565,12.965,14.338,54.712,18.162,98.765L191.128,144.314s.1,0,.291,0a47.71,47.71,0,0,1,11.508,1.645" transform="translate(-191.128 -144.311)" fill="none"/>
    </clipPath>
  </defs>
  <g id="Grupo_1100356" data-name="Grupo 1100356" transform="translate(-185 -709)">
    <g id="Enmascarar_grupo_1098682" data-name="Enmascarar grupo 1098682" transform="translate(-519.73 -2138)" clip-path="url(#clip-path)">
      <g id="Grupo_1099372" data-name="Grupo 1099372" transform="translate(723.877 2861.114)">
        <g id="Grupo_1099371" data-name="Grupo 1099371" clip-path="url(#clip-path-2)">
          <path id="Trazado_873302" data-name="Trazado 873302" d="M34.137,211.562A1130.407,1130.407,0,0,1,35.93,91.083c.7-10.3,1.179-20.672,2.955-30.9q-.3,1.7-.595,3.393a59.378,59.378,0,0,1,5.791-17.611L42.4,49.014a41.613,41.613,0,0,1,5.285-7.55c.693-.779,2.69-2.421-.553.442.575-.507,1.108-1.04,1.685-1.542a44.358,44.358,0,0,1,4.193-3.2c.462-.315,3.125-1.943.764-.56-2.457,1.44.781-.414,1.248-.66q2.258-1.195,4.637-2.246a112.812,112.812,0,0,1,10.686-4.031q-1.994.643-3.978,1.286a128.791,128.791,0,0,1,25.659-5.439q-2.214.227-4.424.456a107.6,107.6,0,0,1,21.223-.1l-4.426-.456a80.442,80.442,0,0,1,15.23,3.089q-1.991-.643-3.978-1.288a65.281,65.281,0,0,1,6.322,2.387q1.628.722,3.188,1.531c.464.242.917.5,1.376.742,2.537,1.361-2.388-1.564-.943-.553,1.918,1.343,3.862,2.627,5.632,4.1q1.4,1.159,2.69,2.384c.364.34,1.765,1.714.113.088-1.811-1.782.087.136.337.407,6.357,6.858,11.115,14.593,15.374,22.321l-1.678-3.048c9.692,17.793,15.494,36.615,18.842,55.689q-.3-1.695-.595-3.393c5.139,29.834,4.511,60,3.667,90.013-.189,6.679,7.791,13.069,16.648,12.764,9.181-.315,16.446-5.605,16.648-12.764.877-31.21,1.208-62.4-4.26-93.4a188,188,0,0,0-12.875-43.595c-6.779-15.335-15.419-30.822-28.966-43.4C129.652-6.072,80.237-3.7,45.26,10.635A72.364,72.364,0,0,0,19.937,27.5,52.34,52.34,0,0,0,8.158,48.415C5.832,56.047,4.833,63.943,4.127,71.752,3.384,80.019,2.8,88.3,2.272,96.574Q-.978,147.683.42,198.882q.18,6.34.42,12.681c.255,6.667,7.474,13.077,16.648,12.762,8.8-.3,16.921-5.612,16.648-12.762" transform="translate(-0.001 0)" fill="#e9decf"/>
          <path id="Trazado_873303" data-name="Trazado 873303" d="M57.625,179.085a460.809,460.809,0,0,1-3.2-52.384q-.047-13.01.65-26.012c.455-8.481.852-17.044,2.317-25.464q-.3,1.7-.595,3.393A44.257,44.257,0,0,1,61.3,65.34L59.623,68.39A31.919,31.919,0,0,1,62.788,63.8c.448-.534.966-1.038,1.407-1.574-2.784,3.368-.972.96.024.126q1.112-.932,2.335-1.782c1.13-.783,3.181-1.312-.837.407,1.9-.813,3.585-1.788,5.594-2.483l-3.976,1.286a34.846,34.846,0,0,1,6.218-1.372l-4.426.456a35.8,35.8,0,0,1,6.588-.051q-2.211-.23-4.426-.456a38.467,38.467,0,0,1,7.123,1.462L74.436,58.53a39.764,39.764,0,0,1,5.871,2.43c.115.061,1.347.771,1.376.75-.131.088-3.181-2.035-1.381-.776.946.662,1.893,1.31,2.781,2.02.79.631,1.507,1.3,2.253,1.962,1.285,1.138-2.089-2.3-1.065-1.023.3.368.644.713.95,1.075a36.219,36.219,0,0,1,3.656,5.336L87.2,67.258a53.489,53.489,0,0,1,5.432,16.433q-.3-1.7-.595-3.393c2.724,15.727,3.82,31.714,4.744,47.555q1.418,24.358.9,48.753c-.138,6.677,7.756,13.067,16.648,12.762,9.137-.315,16.5-5.607,16.648-12.762a618.353,618.353,0,0,0-1.936-63.445c-.841-10.218-1.76-20.473-3.343-30.644-1.676-10.773-4.2-22.1-12.433-31.241C105.533,42.7,93.95,35.36,80.143,33.742a56.082,56.082,0,0,0-25.634,2.709,43.623,43.623,0,0,0-14.924,8.8A47.893,47.893,0,0,0,28.1,60.686c-2.5,5.284-3.47,10.894-4.315,16.448-1.545,10.154-1.942,20.471-2.329,30.684a459.152,459.152,0,0,0,2.877,71.266,12.307,12.307,0,0,0,4.877,9.024,19.831,19.831,0,0,0,11.772,3.739c8.346-.286,17.49-5.643,16.648-12.762" transform="translate(25.77 23.371)" fill="#e9decf"/>
        </g>
      </g>
    </g>
    <g id="Grupo_1099806" data-name="Grupo 1099806" transform="translate(268 715.729)">
      <g id="Grupo_1099805" data-name="Grupo 1099805" transform="translate(0)" clip-path="url(#clip-path-3)">
        <g id="Grupo_1099800" data-name="Grupo 1099800">
          <g id="Grupo_1099799" data-name="Grupo 1099799" clip-path="url(#clip-path-3)">
            <path id="Trazado_873631" data-name="Trazado 873631" d="M140.639,241.576q1.28-3.248,2.664-6.579c25.54-33.838,66.665-71.083,80.959-83.358a47.091,47.091,0,0,1,5.827.568c-12.092,10.923-64.757,58.974-89.45,89.369" transform="translate(-34.092 -34.618)" fill="#70bf68"/>
            <path id="Trazado_873632" data-name="Trazado 873632" d="M250.843,222.1c16.83-12.973-28.774,33.675-43.7,57.689-6.116,9.837-11.044,18.513-14.007,25.256H181.51a80.767,80.767,0,0,0,6.628-8.694c13.029-19.322,45.875-61.277,62.7-74.251" transform="translate(-90.061 -50.194)" fill="#70bf68"/>
            <path id="Trazado_873633" data-name="Trazado 873633" d="M148.19,234.99c16.261-39.061,43.35-84.6,80.959-83.358-14.3,12.276-55.419,49.52-80.959,83.358" transform="translate(-38.979 -34.611)" fill="#d5ea59"/>
            <path id="Trazado_873634" data-name="Trazado 873634" d="M135.758,252.859c1.287-3.574,2.682-7.3,4.187-11.114,24.692-30.4,77.358-78.446,89.45-89.369q1.867.3,3.767.748c-14.16,15.1-77.649,82.575-97.4,99.735" transform="translate(-33.397 -34.786)" fill="#d5ea59"/>
            <path id="Trazado_873635" data-name="Trazado 873635" d="M148.8,275.223c21.237-27.792,96.89-101.818,96.89-101.818,5.216,3.128-29.045,33.4-20.63,30.639S209.048,226.4,188.688,254c-11.175,15.151-16.379,29.968-20.552,40.437H155.409c2.963-6.743,7.891-15.419,14.007-25.256,14.929-24.014,60.533-70.662,43.7-57.689s-49.675,54.928-62.7,74.25a80.865,80.865,0,0,1-6.628,8.695h-.429s1.822-7.6,5.446-19.219" transform="translate(-52.336 -39.587)" fill="#d5ea59"/>
            <path id="Trazado_873636" data-name="Trazado 873636" d="M61.628,285.093A315.9,315.9,0,0,1,70.9,319.939H21.827c5.732-6.553,17.841-18.548,39.8-34.846" transform="translate(216.781 -65.085)" fill="#70bf68"/>
            <path id="Trazado_873637" data-name="Trazado 873637" d="M42.5,300.889c1.816-6.066,24.945-30.276,48.786-41.81q.4.993.782,1.98A69.475,69.475,0,0,0,71.817,273.84c-24.7,22.633-31.216,33.4-29.316,27.05" transform="translate(179.9 -59.146)" fill="#70bf68"/>
            <path id="Trazado_873638" data-name="Trazado 873638" d="M92.2,254.455q.741,1.792,1.448,3.569C69.8,269.557,46.674,293.767,44.858,299.833c-1.9,6.349,4.614-4.416,29.316-27.05A69.492,69.492,0,0,1,94.427,260c2.456,6.3,4.6,12.4,6.439,18.1-21.96,16.3-34.069,28.292-39.8,34.846H33.847C50.2,271.994,80.074,258.834,92.2,254.455" transform="translate(177.543 -58.09)" fill="#d5ea59"/>
            <path id="Trazado_873639" data-name="Trazado 873639" d="M84.967,249.425c20.359-27.6,44.789-52.721,36.374-49.96s25.846-27.511,20.63-30.638c0,0-75.653,74.025-96.89,101.817,1.61-5.163,3.576-11.123,5.894-17.563,19.754-17.16,83.243-84.637,97.4-99.735,1.336.319,2.683.689,4.043,1.128,31.611,10.2,52.772,45.092,65.933,76.9-12.123,4.379-42,17.539-58.349,58.489H70.665c10.5-15.51,49.253-73.222,30.86-52.725-16.865,18.795-28.047,43.464-31.9,52.725H64.415c4.173-10.468,9.377-25.286,20.552-40.437" transform="translate(51.385 -35.008)" fill="#70bf68"/>
            <path id="Trazado_873640" data-name="Trazado 873640" d="M191.185,313.363h-1.039c3.852-9.261,15.034-33.93,31.9-52.725,18.393-20.5-20.364,37.215-30.86,52.725" transform="translate(-69.134 -58.508)" fill="#d5ea59"/>
            <path id="Trazado_873641" data-name="Trazado 873641" d="M99.236,82.422c5.551,7.438,9.99,22.69,12.5,46.833,4.181,40.181-5.806,76.309-16.7,74.285-10.615-1.972-7.885-48.58-10.376-77.16,12.824-12.137,14.4-36.4,14.573-43.958" transform="translate(126.483 -18.816)" fill="#2d854d"/>
            <path id="Trazado_873642" data-name="Trazado 873642" d="M107.788,76.024c4.432-1.646,8.611-.15,12.3,4.791-.173,7.56-1.749,31.821-14.573,43.958-.066-.751-.133-1.492-.206-2.217-2.851-28.314-6.44-43.219,2.48-46.532" transform="translate(105.633 -17.209)" fill="#1c6439"/>
            <path id="Trazado_873643" data-name="Trazado 873643" d="M133.377,76.064s-14.424-5.534-15.239,20,5.1,72.125,5.1,72.125" transform="translate(80.044 -17.25)" fill="none" stroke="#222" stroke-miterlimit="10" stroke-width="0.5"/>
            <path id="Trazado_873644" data-name="Trazado 873644" d="M98.37,75.558s8.957,1.975,12.54,37.052c3.328,32.584-4.9,89.409-4.9,89.409" transform="translate(116.914 -17.249)" fill="none" stroke="#222" stroke-miterlimit="10" stroke-width="0.5"/>
            <path id="Trazado_873645" data-name="Trazado 873645" d="M128.54,147.423c5.551,7.439,9.989,22.69,12.5,46.833,4.181,40.18-5.806,76.308-16.7,74.284-10.615-1.972-7.885-48.579-10.376-77.16,12.824-12.137,14.4-36.4,14.573-43.958" transform="translate(74.565 -33.656)" fill="#2d854d"/>
            <path id="Trazado_873646" data-name="Trazado 873646" d="M137.092,141.025c4.432-1.646,8.611-.15,12.3,4.791-.173,7.56-1.749,31.821-14.573,43.958-.066-.751-.134-1.492-.206-2.217-2.851-28.314-6.44-43.219,2.48-46.532" transform="translate(53.715 -32.049)" fill="#1c6439"/>
            <path id="Trazado_873647" data-name="Trazado 873647" d="M162.757,141.065s-14.424-5.534-15.239,20,1.891,41.713,1.891,41.713" transform="translate(28.05 -32.089)" fill="none" stroke="#222" stroke-miterlimit="10" stroke-width="0.5"/>
            <path id="Trazado_873648" data-name="Trazado 873648" d="M127.674,140.56s8.957,1.976,12.54,37.052c3.328,32.584-4.9,89.409-4.9,89.409" transform="translate(64.996 -32.089)" fill="none" stroke="#222" stroke-miterlimit="10" stroke-width="0.5"/>
            <path id="Trazado_873649" data-name="Trazado 873649" d="M23.09,298.577s9.423-55.662,32.176-91.264c9.135-14.294,13.486-17.33,20.588-15.088,9.233,2.914,1.844,17.681-5.83,35.957-6.78,16.148-22.377,70.4-22.377,70.4Z" transform="translate(206.559 -43.732)" fill="#85cc90"/>
            <path id="Trazado_873650" data-name="Trazado 873650" d="M73.419,192.421S59.741,208.309,46.369,245.6s-17.71,53.175-17.71,53.175" transform="translate(208.993 -43.928)" fill="none" stroke="#222" stroke-miterlimit="10" stroke-width="0.5"/>
            <path id="Trazado_873651" data-name="Trazado 873651" d="M86.661,304.618s3-45.862,1.634-63.163.285-31.273,15.612-18.435,3.926,81.6,3.926,81.6Z" transform="translate(125.741 -49.773)" fill="#85cc90"/>
            <path id="Trazado_873652" data-name="Trazado 873652" d="M97.919,218.029s7.223,8.384,8.606,44.507c1.231,32.147,0,42.085,0,42.085" transform="translate(121.892 -49.775)" fill="none" stroke="#222" stroke-miterlimit="10" stroke-width="0.5"/>
            <path id="Trazado_873653" data-name="Trazado 873653" d="M22.6,308.327s9.568-27.467,25.449-52.387-7.228-27.364-18.526-12.37S0,308.327,0,308.327Z" transform="translate(251.084 -53.482)" fill="#85cc90"/>
            <path id="Trazado_873654" data-name="Trazado 873654" d="M45.321,236.06S33.858,237.8,21.387,264.474,3.613,308.737,3.613,308.737" transform="translate(256.419 -53.891)" fill="none" stroke="#222" stroke-miterlimit="10" stroke-width="0.5"/>
            <path id="Trazado_873655" data-name="Trazado 873655" d="M38.94,235.655s1.84.447,1.824,1.133-4.757,1.127-4.641,1.056,5.038,1.885,4.357,3.642-7.594-2.132-7.594-2.132-4.513,6.519-6.272,5.841,1.7-5.035,1.7-5.035-3.372,2.7-4.132,1.881.5-2.208.5-2.208" transform="translate(245.294 -53.799)" fill="none" stroke="#162c29" stroke-miterlimit="10" stroke-width="1"/>
            <path id="Trazado_873656" data-name="Trazado 873656" d="M20.045,219.035A16.386,16.386,0,0,0,39.039,231.8a16.386,16.386,0,0,0,12.776-18.986c-1.656-8.459-10.111-13.925-18.884-12.208s-14.543,9.968-12.886,18.428" transform="translate(237.176 -45.725)" fill="#fcc467"/>
            <path id="Trazado_873657" data-name="Trazado 873657" d="M33.323,226.3a16.477,16.477,0,0,1,11.011,1.641,16.261,16.261,0,0,1-11.78,9.724,16,16,0,0,1-11.129-1.918,16.334,16.334,0,0,1,11.9-9.447" transform="translate(243.66 -51.591)" fill="#ee7e3c"/>
            <path id="Trazado_873658" data-name="Trazado 873658" d="M52.992,208.358s-3.367,1.269-3.853,7.714c0,0-2.392-5.018-7.465-3.325s-3.117,7.427-3.117,7.427-6.916-6.667-14.743-1.185" transform="translate(233.159 -47.567)" fill="none" stroke="#162c29" stroke-miterlimit="10" stroke-width="1"/>
            <line id="Línea_565" data-name="Línea 565" x2="4.499" y2="13.467" transform="translate(271.716 172.607)" fill="none" stroke="#162c29" stroke-miterlimit="10" stroke-width="1"/>
            <line id="Línea_566" data-name="Línea 566" x1="0.091" y2="15.024" transform="translate(282.207 168.505)" fill="none" stroke="#162c29" stroke-miterlimit="10" stroke-width="1"/>
            <line id="Línea_567" data-name="Línea 567" x1="0.063" y2="4.207" transform="translate(278.079 160.766)" fill="none" stroke="#15302b" stroke-linecap="round" stroke-linejoin="round" stroke-width="0.5"/>
            <line id="Línea_568" data-name="Línea 568" x2="1.314" y2="4.66" transform="translate(273.306 160.595)" fill="none" stroke="#15302b" stroke-linecap="round" stroke-linejoin="round" stroke-width="0.5"/>
            <line id="Línea_569" data-name="Línea 569" x2="2.876" y2="8.129" transform="translate(268.84 164.478)" fill="none" stroke="#15302b" stroke-linecap="round" stroke-linejoin="round" stroke-width="0.5"/>
            <path id="Trazado_873659" data-name="Trazado 873659" d="M32.478,207.083a1.381,1.381,0,1,0,1.75-.868,1.381,1.381,0,0,0-1.75.868" transform="translate(244.352 -47.061)" fill="#e55f78"/>
            <path id="Trazado_873660" data-name="Trazado 873660" d="M38.741,207.254a1.381,1.381,0,1,0,1.75-.868,1.381,1.381,0,0,0-1.75.868" transform="translate(233.255 -47.1)" fill="#e55f78"/>
            <path id="Trazado_873661" data-name="Trazado 873661" d="M44.244,212.145a1.611,1.611,0,1,0,2.041-1.012,1.611,1.611,0,0,0-2.041,1.012" transform="translate(223.069 -48.181)" fill="#e55f78"/>
            <path id="Trazado_873662" data-name="Trazado 873662" d="M23.935,240.449a219.686,219.686,0,0,1,6.157,33.963c1.55,14.256,1.72,35.289,1.72,35.289" transform="translate(254.246 -54.893)" fill="none" stroke="#162c29" stroke-miterlimit="10" stroke-width="1"/>
            <path id="Trazado_873663" data-name="Trazado 873663" d="M329.933,164.821a164.62,164.62,0,0,0,2.134-24.573c.023-13.474-11.193-24.714-25.272-25.249-28.9-1.1-66.431.154-66.431.154s12.2,6.6,5.238,36.227-24.7,129.673-24.7,129.673l76.9-7.439a17.066,17.066,0,0,0,15.385-13.621c4.045-21.612,12.357-66.686,16.743-95.173" transform="translate(-198.011 -26.151)" fill="#fcc467"/>
            <path id="Trazado_873664" data-name="Trazado 873664" d="M372.521,115.333c-22.844,2.192-31.356,35.8-40.6,103.744s21.142,62.156,21.142,62.156,17.735-100.047,24.7-129.673-5.237-36.227-5.237-36.227" transform="translate(-330.168 -26.33)" fill="#ee7e3c"/>
            <line id="Línea_570" data-name="Línea 570" x2="30.323" y2="6.695" transform="translate(18.562 112.006)" fill="none" stroke="#222" stroke-linecap="round" stroke-linejoin="round" stroke-width="0.75"/>
            <line id="Línea_571" data-name="Línea 571" x2="29.136" y2="6.524" transform="translate(20.284 108.086)" fill="none" stroke="#222" stroke-linecap="round" stroke-linejoin="round" stroke-width="0.75"/>
            <path id="Trazado_873665" data-name="Trazado 873665" d="M328.371,114.78s10.259,3.05,4.682,32.331-25.2,132.331-25.2,132.331" transform="translate(-267.754 -26.204)" fill="none" stroke="#222" stroke-linecap="round" stroke-linejoin="round" stroke-width="0.75"/>
            <path id="Trazado_873666" data-name="Trazado 873666" d="M307.764,114.581s9.542,3.16,5.991,31.036-23.827,132.225-23.827,132.225" transform="translate(-233.757 -26.158)" fill="none" stroke="#222" stroke-linecap="round" stroke-linejoin="round" stroke-width="0.75"/>
            <path id="Trazado_873667" data-name="Trazado 873667" d="M196.557,148.7c37.877-13.259,81.556-5.116,81.556-5.116l40.308,135.636.211,7.816H177.447C181,198.787,196.557,148.7,196.557,148.7" transform="translate(-151.041 -32.214)" fill="#fffcee"/>
            <path id="Trazado_873668" data-name="Trazado 873668" d="M190.077,25.56s-1.962-11.818,5.77-13.721,14.823,8.968,14.823,8.968S208.035,10.1,219.949,2.123c6.5-4.353,14.362-1.247,20.169,2.472,4.329-2.554,10.942-4.652,20.765-4.03,22.427,1.419,24.723,23.563,24.723,23.563,25.552,17.588,11.124,31.4,5.228,36.452a10.89,10.89,0,0,1-3.331,1.749c-1.374.522-3.612,3.462-5.177,16.006-2.409,19.3-29.661,36.22-63.013,16.042s-17.755-40.1-17.755-40.1-9.242,8.582-16.731,5.064.495-13.369.495-13.369-17.034,6.4-13.469-13.716,18.223-6.693,18.223-6.693" transform="translate(-127.962 0)" fill="#302e2e"/>
            <g id="Grupo_1099783" data-name="Grupo 1099783" transform="translate(81.144 43.641)" style="mix-blend-mode: multiply;isolation: isolate">
              <g id="Grupo_1099782" data-name="Grupo 1099782">
                <g id="Grupo_1099781" data-name="Grupo 1099781" clip-path="url(#clip-path-5)">
                  <path id="Trazado_873669" data-name="Trazado 873669" d="M247.41,56.608c-25.06-1.226-46.718,17.5-46.221,42.589q.006.353.018.708a69.1,69.1,0,0,0,10.18,7.382c24.216,14.651,45.217,9.742,55.827-1.432,4-4.217,4.593-48.053-19.8-49.246" transform="translate(-201.181 -56.551)" fill="#222"/>
                </g>
              </g>
            </g>
            <path id="Trazado_873670" data-name="Trazado 873670" d="M204.028,54.728c-4.48,13.554-4.308,28.775-1.021,36.041a29.842,29.842,0,0,0,2.045,3.719c8.155,12.84,23.009,14.382,23.009,14.382s.624.038,1.7-.015c5.756-.285,24.456-3.206,28.934-28.9a60.156,60.156,0,0,0-4.545-35.891,8.945,8.945,0,0,0-14.939-2.116c-5.3,6.021-15.014,12.285-32.645,12.979Z" transform="translate(-109.913 -8.864)" fill="#f47365"/>
            <path id="Trazado_873671" data-name="Trazado 873671" d="M239.321,140.155l8.208-29.2c8.155,12.84,23.009,14.382,23.009,14.382s.624.038,1.7-.015l-4.46,27.365s-23.849,4.933-28.453-12.532" transform="translate(-152.39 -25.33)" fill="#f47365"/>
            <g id="Grupo_1099786" data-name="Grupo 1099786" transform="translate(95.056 85.624)" style="mix-blend-mode: multiply;isolation: isolate">
              <g id="Grupo_1099785" data-name="Grupo 1099785">
                <g id="Grupo_1099784" data-name="Grupo 1099784" clip-path="url(#clip-path-6)">
                  <path id="Trazado_873672" data-name="Trazado 873672" d="M262.413,125.337S247.559,123.8,239.4,110.955l-.083.3a21.8,21.8,0,0,0,1.212,3.612,29.768,29.768,0,0,0,2.044,3.718c6.04,9.51,15.741,12.816,20.374,13.894l1.158-7.16c-1.071.052-1.7.015-1.7.015" transform="translate(-239.321 -110.954)" fill="#222"/>
                </g>
              </g>
            </g>
            <path id="Trazado_873673" data-name="Trazado 873673" d="M290.047,80.5s-11.122-1.394-10.5-13.031c.632-11.727,11.716-8.5,11.716-8.5s-2.6,8.193-1.221,21.534" transform="translate(-202.45 -13.369)" fill="#f47365"/>
            <path id="Trazado_873674" data-name="Trazado 873674" d="M289.956,64a5.471,5.471,0,0,0-6.134,3.863" transform="translate(-204.454 -14.595)" fill="none" stroke="#222" stroke-linecap="round" stroke-linejoin="round" stroke-width="0.75"/>
            <path id="Trazado_873675" data-name="Trazado 873675" d="M285.547,64.952a10.6,10.6,0,0,0,1.663,8.913" transform="translate(-202.77 -14.828)" fill="none" stroke="#222" stroke-linecap="round" stroke-linejoin="round" stroke-width="0.75"/>
            <path id="Trazado_873676" data-name="Trazado 873676" d="M282.57,82.49a2.9,2.9,0,1,0,2.93-2.871,2.9,2.9,0,0,0-2.93,2.871" transform="translate(-201.903 -18.176)" fill="#fff"/>
            <path id="Trazado_873677" data-name="Trazado 873677" d="M184,91.214s9.489,2.493,12.773-7.163c3.31-9.731-6.744-10.727-6.744-10.727s-.559,7.5-6.029,17.89" transform="translate(-34.908 -16.739)" fill="#f47365"/>
            <path id="Trazado_873678" data-name="Trazado 873678" d="M186.9,78.731a4.789,4.789,0,0,1,3.723,5.138" transform="translate(-30.324 -17.974)" fill="none" stroke="#222" stroke-linecap="round" stroke-linejoin="round" stroke-width="0.75"/>
            <path id="Trazado_873679" data-name="Trazado 873679" d="M193.419,80.64a9.279,9.279,0,0,1-4.258,6.7" transform="translate(-34.866 -18.41)" fill="none" stroke="#222" stroke-linecap="round" stroke-linejoin="round" stroke-width="0.75"/>
            <path id="Trazado_873680" data-name="Trazado 873680" d="M197.615,95.442a2.539,2.539,0,1,1-1.445-3.287,2.539,2.539,0,0,1,1.445,3.287" transform="translate(-41.975 -20.999)" fill="#fff"/>
            <path id="Trazado_873681" data-name="Trazado 873681" d="M246.438,60.8a17.375,17.375,0,0,0-9.377,3.339" transform="translate(-124.85 -13.88)" fill="none" stroke="#222" stroke-linecap="round" stroke-linejoin="round" stroke-width="0.75"/>
            <path id="Trazado_873682" data-name="Trazado 873682" d="M213.42,67.988a14.021,14.021,0,0,0-6.874-4.162" transform="translate(-68.283 -14.571)" fill="none" stroke="#222" stroke-linecap="round" stroke-linejoin="round" stroke-width="0.75"/>
            <path id="Trazado_873683" data-name="Trazado 873683" d="M220.768,70.88a12.851,12.851,0,0,0,2.632,9.7c4.46,5.885,2.3,7.605-2.655,8.762" transform="translate(-91.563 -16.181)" fill="none" stroke="#222" stroke-linecap="round" stroke-linejoin="round" stroke-width="0.75"/>
            <g id="Grupo_1099789" data-name="Grupo 1099789" transform="translate(119.034 74.009)" style="mix-blend-mode: multiply;isolation: isolate">
              <g id="Grupo_1099788" data-name="Grupo 1099788">
                <g id="Grupo_1099787" data-name="Grupo 1099787" clip-path="url(#clip-path-7)">
                  <path id="Trazado_873684" data-name="Trazado 873684" d="M232.45,95.932c2.581-.367,2.169,2.854,2.169,2.854s3.329-1.322,3.564,1.238c.2,2.219-5,3.967-6.337,3.055s-1.6-6.832.605-7.147" transform="translate(-230.817 -95.903)" fill="#f43d4f"/>
                </g>
              </g>
            </g>
            <g id="Grupo_1099792" data-name="Grupo 1099792" transform="translate(110.053 64.149)" opacity="0.5" style="mix-blend-mode: multiply;isolation: isolate">
              <g id="Grupo_1099791" data-name="Grupo 1099791">
                <g id="Grupo_1099790" data-name="Grupo 1099790" clip-path="url(#clip-path-8)">
                  <path id="Trazado_873685" data-name="Trazado 873685" d="M242.356,83.652c1.981-1.694,3.36,1.246,3.36,1.246s2.1-2.9,3.673-.865c1.361,1.764-2.1,6.031-3.713,5.977s-5.014-4.91-3.32-6.357" transform="translate(-241.894 -83.126)" fill="#f43d4f"/>
                </g>
              </g>
            </g>
            <g id="Grupo_1099795" data-name="Grupo 1099795" transform="translate(136.095 71.611)" opacity="0.5" style="mix-blend-mode: multiply;isolation: isolate">
              <g id="Grupo_1099794" data-name="Grupo 1099794">
                <g id="Grupo_1099793" data-name="Grupo 1099793" clip-path="url(#clip-path-9)">
                  <path id="Trazado_873686" data-name="Trazado 873686" d="M216.011,96.766c-.583-2.54-3.442-1-3.442-1s.038-3.582-2.436-2.882c-2.144.607-1.9,6.094-.573,7.012s6.952-.961,6.451-3.132" transform="translate(-208.54 -92.796)" fill="#f43d4f"/>
                </g>
              </g>
            </g>
            <path id="Trazado_873687" data-name="Trazado 873687" d="M238.765,102.791a10.1,10.1,0,0,1-7.5-6.414" transform="translate(-112.708 -22.002)" fill="none" stroke="#222" stroke-linecap="round" stroke-linejoin="round" stroke-width="0.75"/>
            <path id="Trazado_873688" data-name="Trazado 873688" d="M236.758,74.369a2.749,2.749,0,1,0,3.185-2.23,2.749,2.749,0,0,0-3.185,2.23" transform="translate(-120.36 -16.459)" fill="#222"/>
            <path id="Trazado_873689" data-name="Trazado 873689" d="M240.558,73.615a13.893,13.893,0,0,0,7.841,1.352" transform="translate(-129.51 -16.806)" fill="none" stroke="#222" stroke-linecap="round" stroke-linejoin="round" stroke-width="0.75"/>
            <path id="Trazado_873690" data-name="Trazado 873690" d="M240.582,69.914a13.884,13.884,0,0,0,6.972,3.837" transform="translate(-128.683 -15.961)" fill="none" stroke="#222" stroke-linecap="round" stroke-linejoin="round" stroke-width="0.75"/>
            <path id="Trazado_873691" data-name="Trazado 873691" d="M213.274,77.245a13.888,13.888,0,0,1-7.893,1.016" transform="translate(-67.239 -17.635)" fill="none" stroke="#222" stroke-linecap="round" stroke-linejoin="round" stroke-width="0.75"/>
            <path id="Trazado_873692" data-name="Trazado 873692" d="M213.453,73.5a13.9,13.9,0,0,1-7.13,3.536" transform="translate(-68.144 -16.779)" fill="none" stroke="#222" stroke-linecap="round" stroke-linejoin="round" stroke-width="0.75"/>
            <path id="Trazado_873693" data-name="Trazado 873693" d="M212,77.325a2.749,2.749,0,1,0,3.184-2.231A2.749,2.749,0,0,0,212,77.325" transform="translate(-76.5 -17.134)" fill="#222"/>
            <path id="Trazado_873694" data-name="Trazado 873694" d="M286.667,34.569c4.691,8.252,2.607,13.351-2.365,10.885s-2.276-19.047,2.365-10.885" transform="translate(-202.11 -7.38)" fill="#ffb674"/>
            <path id="Trazado_873695" data-name="Trazado 873695" d="M297.166,46.139c4.69,8.251,2.607,13.351-2.365,10.885s-2.276-19.047,2.365-10.885" transform="translate(-220.711 -10.022)" fill="#ffb674"/>
            <line id="Línea_572" data-name="Línea 572" x1="288.335" transform="translate(0 254.845)" fill="#222"/>
            <line id="Línea_573" data-name="Línea 573" x1="288.335" transform="translate(0 254.845)" fill="none" stroke="#222" stroke-miterlimit="10" stroke-width="2"/>
            <path id="Trazado_873696" data-name="Trazado 873696" d="M108.1,236.154l2.055-3.022H73.369L43.545,278.1H71.227Z" transform="translate(160.773 -53.223)" fill="#333"/>
            <path id="Trazado_873697" data-name="Trazado 873697" d="M97,287.8,117.3,277.164s-12.33-19.825-6.648-28.65a69.1,69.1,0,0,1,11.242-13.66l24.661,14.628,11.484-12.935a84.57,84.57,0,0,1-2.176,11.726c-1.451,5.077,1.33,15.352-5.923,23.935s-29.012,36.228-29.012,36.228-28.65,28.929-40.617,34.248S52.39,286.11,52.39,286.11l-6.182-20.718,37.905-11.606C91.381,272.828,97,287.8,97,287.8" transform="translate(110.827 -53.616)" fill="#f47365"/>
            <line id="Línea_574" data-name="Línea 574" x2="21.811" y2="17.073" transform="translate(228.201 185.925)" fill="none" stroke="#222" stroke-linecap="round" stroke-linejoin="round" stroke-width="0.75"/>
            <line id="Línea_575" data-name="Línea 575" x2="17.717" y2="20.388" transform="translate(225.284 189.5)" fill="none" stroke="#222" stroke-linecap="round" stroke-linejoin="round" stroke-width="0.75"/>
            <line id="Línea_576" data-name="Línea 576" x2="14.868" y2="20.671" transform="translate(221.483 194.899)" fill="none" stroke="#222" stroke-linecap="round" stroke-linejoin="round" stroke-width="0.75"/>
            <line id="Línea_577" data-name="Línea 577" x2="4.593" y2="2.902" transform="translate(257.386 195.866)" fill="none" stroke="#222" stroke-linecap="round" stroke-linejoin="round" stroke-width="0.75"/>
            <g id="Grupo_1099798" data-name="Grupo 1099798" transform="translate(223.44 223.549)" style="mix-blend-mode: multiply;isolation: isolate">
              <g id="Grupo_1099797" data-name="Grupo 1099797">
                <g id="Grupo_1099796" data-name="Grupo 1099796" clip-path="url(#clip-path-10)">
                  <path id="Trazado_873698" data-name="Trazado 873698" d="M98.155,289.681l4.271,4.916-8.964-2.458Z" transform="translate(-93.463 -289.681)" fill="#222"/>
                </g>
              </g>
            </g>
            <line id="Línea_578" data-name="Línea 578" x1="16.602" y2="8.462" transform="translate(191.222 234.187)" fill="none" stroke="#222" stroke-linecap="round" stroke-linejoin="round" stroke-width="0.75"/>
            <path id="Trazado_873699" data-name="Trazado 873699" d="M187.7,176.227c6.543,16.179,15.133,38.443,22.173,56.889L171.97,244.722,142.008,144.314s32.4-.967,45.694,31.913" transform="translate(-14.935 -32.945)" fill="#fffcee"/>
            <path id="Trazado_873700" data-name="Trazado 873700" d="M155.958,363.946s-6-2.342-7.991-6.4" transform="translate(34.384 -81.626)" fill="none" stroke="#222" stroke-linecap="round" stroke-linejoin="round" stroke-width="0.75"/>
            <path id="Trazado_873701" data-name="Trazado 873701" d="M202.927,145.957c3.565,12.964,14.338,54.712,18.162,98.764L191.127,144.314a46.085,46.085,0,0,1,11.8,1.643" transform="translate(-64.054 -32.945)" fill="#893e29"/>
            <path id="Trazado_873702" data-name="Trazado 873702" d="M278.4,147.221c4.3-1.2,8.625-2.158,12.92-2.91.019.025,36.318,49.356,20,112.165L300.7,228.037c.43-14.871-1.824-45.477-22.3-80.816" transform="translate(-225.843 -32.945)" fill="#893e29"/>
            <path id="Trazado_873703" data-name="Trazado 873703" d="M299.675,190.494c.654,2.192-.2,4.383-1.9,4.893s-3.619-.855-4.274-3.048.2-4.383,1.9-4.893,3.619.856,4.274,3.048" transform="translate(-221.691 -42.768)" fill="#ffb674"/>
            <path id="Trazado_873704" data-name="Trazado 873704" d="M286.223,251.865c7.242.069,7.364-6.445,7.445-10.755l.048-1.805c.153-4.234.389-10.073-6.69-10.574-2.587-.2-4.463.289-5.9,1.533-1.9,1.641-2.969,4.619-3.276,9.1-.333,4.852-.423,8.444,1.447,10.466a6.768,6.768,0,0,0,4.395,1.881,22.367,22.367,0,0,0,2.531.151m.7-21.826c5.753.454,5.635,4.9,5.48,9.22l-.05,1.827c-.079,4.243-.177,9.522-6.118,9.466-3.132-.028-4.972-.526-5.975-1.611-1.387-1.5-1.46-4.251-1.1-9.483.282-4.117,1.205-6.8,2.825-8.2,1.157-1,2.726-1.386,4.94-1.218m.063-.652-.013,0Z" transform="translate(-203.51 -52.208)" fill="#ffb674"/>
            <path id="Trazado_873705" data-name="Trazado 873705" d="M286.224,239.748a.656.656,0,0,1-.571-.6,77.393,77.393,0,0,1,.551-9.825.656.656,0,0,1,.725-.579h.008a.656.656,0,0,1,.571.725,78.317,78.317,0,0,0-.548,9.575.655.655,0,0,1-.6.705.6.6,0,0,1-.134,0" transform="translate(-203.391 -52.22)" fill="#ffb674"/>
            <path id="Trazado_873706" data-name="Trazado 873706" d="M277.786,250.625l17.276.972-.837,5.547-16.734-.643Z" transform="translate(-204.675 -57.216)" fill="#ee7e3c"/>
            <path id="Trazado_873707" data-name="Trazado 873707" d="M305.064,170.808c.654,2.192-.2,4.383-1.9,4.893s-3.619-.855-4.274-3.048.2-4.383,1.9-4.893,3.619.856,4.274,3.048" transform="translate(-231.239 -38.274)" fill="#ffb674"/>
            <path id="Trazado_873708" data-name="Trazado 873708" d="M212.261,185.793c.414,1.77-.367,3.464-1.743,3.786s-2.827-.851-3.24-2.62.366-3.465,1.742-3.787,2.828.852,3.241,2.621" transform="translate(-67.716 -41.805)" fill="#ffb674"/>
            <path id="Trazado_873709" data-name="Trazado 873709" d="M217.352,168.543c.44,1.881-.39,3.682-1.852,4.024s-3.005-.905-3.445-2.785.39-3.683,1.852-4.024,3.005.9,3.445,2.785" transform="translate(-76.494 -37.829)" fill="#ffb674"/>
          </g>
        </g>
        <g id="Grupo_1099802" data-name="Grupo 1099802" transform="translate(127.073 111.366)">
          <g id="Grupo_1099801" data-name="Grupo 1099801" clip-path="url(#clip-path-11)">
            <path id="Trazado_873710" data-name="Trazado 873710" d="M199.9,242.385c6.995-1.879,5.362-8.185,4.281-12.359l-.438-1.752c-.99-4.119-2.331-9.806-9.284-8.388-2.545.5-4.22,1.477-5.271,3.062-1.387,2.09-1.62,5.246-.711,9.648.983,4.763,1.861,8.246,4.206,9.692a6.766,6.766,0,0,0,4.738.631,22.182,22.182,0,0,0,2.479-.535m-5.187-21.212c5.664-1.108,6.745,3.209,7.755,7.408l.442,1.774c1.064,4.108,2.388,9.22-3.35,10.761-3.024.814-4.931.829-6.188.053-1.739-1.07-2.548-3.7-3.608-8.838-.836-4.041-.666-6.874.519-8.659.845-1.273,2.253-2.067,4.431-2.5m-.114-.645-.013,0Z" transform="translate(-172.739 -161.514)" fill="#ffb674"/>
            <path id="Trazado_873711" data-name="Trazado 873711" d="M200.925,230.732a.657.657,0,0,1-.712-.424,77.449,77.449,0,0,1-2.108-9.612.655.655,0,0,1,.543-.752h.008a.656.656,0,0,1,.745.545,78.307,78.307,0,0,0,2.043,9.37.654.654,0,0,1-.39.84.553.553,0,0,1-.13.034" transform="translate(-176.902 -161.576)" fill="#ffb674"/>
            <path id="Trazado_873712" data-name="Trazado 873712" d="M186.123,243.554l16.9-3.7.683,5.568-16.291,3.876Z" transform="translate(-169.885 -166.122)" fill="#ee7e3c"/>
          </g>
        </g>
        <g id="Grupo_1099804" data-name="Grupo 1099804">
          <g id="Grupo_1099803" data-name="Grupo 1099803" clip-path="url(#clip-path-3)">
            <path id="Trazado_873714" data-name="Trazado 873714" d="M296.82,159.367c4.278-3.593,10.121-6.338,16.843-8.424l37.226,99.737c-9.872,2.27-34.8,8.422-48.78,11.886-3.857-11.357-27.569-84.483-5.289-103.2" transform="translate(-268.146 -34.459)" fill="#fffcee"/>
            <path id="Trazado_873715" data-name="Trazado 873715" d="M173.066,305.564s54.881-52.464,67.453-62.577,25.023-8.624,25.023-8.624c3.505.484,30.342,11.6,30.342,11.6s-2.9,5.319-12.693,2.418l-9.791-2.9s-.605,11.6-2.539,13.237-5.319,1.511-5.319,1.511a6.537,6.537,0,0,1-4.835,3.989s-1.209,2.78-5.924,4.836a21.41,21.41,0,0,1-6.6,1.223l-.169.228-64.174,78.836c-11.258,14.3-26.723,19.294-38.135,12.919-.144-.08-.281-.158-.409-.232a19.456,19.456,0,0,1-8.507-10.109l-25.374-68.842s-.185-.52-.513-1.487c13.976-3.463,38.909-9.616,48.78-11.886Z" transform="translate(-76.939 -53.486)" fill="#f47365"/>
            <line id="Línea_579" data-name="Línea 579" x1="11.282" y2="10.477" transform="translate(84.844 252.078)" fill="none" stroke="#222" stroke-linecap="round" stroke-linejoin="round" stroke-width="0.75"/>
            <path id="Trazado_873716" data-name="Trazado 873716" d="M172.132,278.754l-4.843.228s-.967-5.238,3.143-6.205,5.964-1.371,5.964-1.371" transform="translate(-0.888 -61.96)" fill="none" stroke="#222" stroke-linecap="round" stroke-linejoin="round" stroke-width="0.75"/>
            <line id="Línea_580" data-name="Línea 580" x1="20.631" y1="2.901" transform="translate(65.986 299.303)" fill="none" stroke="#222" stroke-linecap="round" stroke-linejoin="round" stroke-width="0.5"/>
            <path id="Trazado_873717" data-name="Trazado 873717" d="M148.278,262.175a84.8,84.8,0,0,0,1.435-19.379" transform="translate(40.324 -55.429)" fill="none" stroke="#222" stroke-linecap="round" stroke-linejoin="round" stroke-width="0.75"/>
            <path id="Trazado_873718" data-name="Trazado 873718" d="M154.746,266.473s3.022-20.631,0-22.323" transform="translate(29.022 -55.738)" fill="none" stroke="#222" stroke-linecap="round" stroke-linejoin="round" stroke-width="0.75"/>
            <path id="Trazado_873719" data-name="Trazado 873719" d="M137.481,241.643a16.93,16.93,0,0,1,2.578,6.1l-1.974-.585S138.206,243.456,137.481,241.643Z" transform="translate(58.375 -55.166)" fill="none" stroke="#222" stroke-linecap="round" stroke-linejoin="round" stroke-width="0.75"/>
            <path id="Trazado_873720" data-name="Trazado 873720" d="M120.937,248.339a6.882,6.882,0,0,1-5.6.644c-2.861-1.087-6.175-2.37-3.37-4.308" transform="translate(98.007 -55.858)" fill="none" stroke="#222" stroke-linecap="round" stroke-linejoin="round" stroke-width="0.75"/>
            <line id="Línea_581" data-name="Línea 581" x1="2.043" y2="1.702" transform="translate(202.666 186.71)" fill="none" stroke="#222" stroke-linecap="round" stroke-linejoin="round" stroke-width="0.75"/>
            <line id="Línea_582" data-name="Línea 582" x1="2.236" y2="1.692" transform="translate(201.175 186.196)" fill="none" stroke="#222" stroke-linecap="round" stroke-linejoin="round" stroke-width="0.75"/>
            <line id="Línea_583" data-name="Línea 583" x1="2.358" y2="1.777" transform="translate(199.513 185.59)" fill="none" stroke="#222" stroke-linecap="round" stroke-linejoin="round" stroke-width="0.75"/>
            <path id="Trazado_873721" data-name="Trazado 873721" d="M121.861,246.24a5.439,5.439,0,0,1-3.193,1.438" transform="translate(91.092 -56.215)" fill="none" stroke="#222" stroke-linecap="round" stroke-linejoin="round" stroke-width="0.75"/>
            <path id="Trazado_873722" data-name="Trazado 873722" d="M147.024,265.114a7.135,7.135,0,0,1-4.24-.443" transform="translate(47.318 -60.423)" fill="none" stroke="#222" stroke-linecap="round" stroke-linejoin="round" stroke-width="0.75"/>
            <path id="Trazado_873723" data-name="Trazado 873723" d="M146,264.136a12.46,12.46,0,0,1-3.684-.276" transform="translate(48.706 -60.238)" fill="none" stroke="#222" stroke-linecap="round" stroke-linejoin="round" stroke-width="0.75"/>
            <path id="Trazado_873724" data-name="Trazado 873724" d="M147.194,266.58a6.12,6.12,0,0,1-2.73-.421" transform="translate(45.852 -60.762)" fill="none" stroke="#222" stroke-linecap="round" stroke-linejoin="round" stroke-width="0.75"/>
            <path id="Trazado_873725" data-name="Trazado 873725" d="M154.626,268.7a6.725,6.725,0,0,1-3.348,2.206" transform="translate(33.161 -61.343)" fill="none" stroke="#222" stroke-linecap="round" stroke-linejoin="round" stroke-width="0.75"/>
            <path id="Trazado_873726" data-name="Trazado 873726" d="M154.353,267.458a5.692,5.692,0,0,1-3.049,1.487" transform="translate(33.414 -61.059)" fill="none" stroke="#222" stroke-linecap="round" stroke-linejoin="round" stroke-width="0.75"/>
            <path id="Trazado_873727" data-name="Trazado 873727" d="M164.457,277.26a5.944,5.944,0,0,1-3.5-1.246" transform="translate(15.86 -63.012)" fill="none" stroke="#222" stroke-linecap="round" stroke-linejoin="round" stroke-width="0.75"/>
            <path id="Trazado_873728" data-name="Trazado 873728" d="M162.855,276.424a5.705,5.705,0,0,1-3.227-.84" transform="translate(18.487 -62.914)" fill="none" stroke="#222" stroke-linecap="round" stroke-linejoin="round" stroke-width="0.75"/>
            <path id="Trazado_873729" data-name="Trazado 873729" d="M161.318,275.36a8.351,8.351,0,0,1-3-.507" transform="translate(21.033 -62.747)" fill="none" stroke="#222" stroke-linecap="round" stroke-linejoin="round" stroke-width="0.75"/>
            <path id="Trazado_873730" data-name="Trazado 873730" d="M171.443,280.727a2.661,2.661,0,0,1,2.226-1.632c1.692-.151,3.8.1,3.583,1.342" transform="translate(-5.043 -63.707)" fill="none" stroke="#222" stroke-linecap="round" stroke-linejoin="round" stroke-width="0.75"/>
            <line id="Línea_584" data-name="Línea 584" x1="0.769" y2="1.43" transform="translate(169.85 215.429)" fill="none" stroke="#222" stroke-linecap="round" stroke-linejoin="round" stroke-width="0.75"/>
            <line id="Línea_585" data-name="Línea 585" x1="5.731" y2="7.323" transform="translate(170.905 203.173)" fill="none" stroke="#222" stroke-linecap="round" stroke-linejoin="round" stroke-width="0.75"/>
            <line id="Línea_586" data-name="Línea 586" y1="7.415" transform="translate(175.507 204.691)" fill="none" stroke="#222" stroke-linecap="round" stroke-linejoin="round" stroke-width="0.75"/>
            <path id="Trazado_873731" data-name="Trazado 873731" d="M110.9,269.706l13.384,35.857s54.881-52.464,67.453-62.577,25.023-8.624,25.023-8.624c3.505.484,30.342,11.6,30.342,11.6s-2.9,5.319-12.693,2.418l-9.791-2.9s-.605,11.6-2.539,13.236-5.319,1.511-5.319,1.511a6.539,6.539,0,0,1-4.835,3.99S210.718,267,206,269.056a21.385,21.385,0,0,1-6.6,1.223l-.169.228L168.005,308.87" transform="translate(-28.159 -53.486)" fill="none" stroke="#222" stroke-linecap="round" stroke-linejoin="round" stroke-width="0.75"/>
            <path id="Trazado_873732" data-name="Trazado 873732" d="M331.984,200.026,350.89,250.68c-9.872,2.27-34.8,8.422-48.78,11.886-3.858-11.357-27.57-84.483-5.289-103.2,4.277-3.593,10.121-6.338,16.842-8.424" transform="translate(-268.148 -34.459)" fill="none" stroke="#222" stroke-linecap="round" stroke-linejoin="round" stroke-width="0.75"/>
          </g>
        </g>
      </g>
    </g>
  </g>
</svg>
