<svg xmlns="http://www.w3.org/2000/svg" xmlns:xlink="http://www.w3.org/1999/xlink" width="85" height="89.566" viewBox="0 0 85 89.566">
  <defs>
    <filter id="Trazado_873071" x="1" y="6" width="83.573" height="83.566" filterUnits="userSpaceOnUse">
      <feOffset dy="6" input="SourceAlpha"/>
      <feGaussianBlur stdDeviation="5" result="blur"/>
      <feFlood flood-opacity="0.341"/>
      <feComposite operator="in" in2="blur"/>
      <feComposite in="SourceGraphic"/>
    </filter>
  </defs>
  <g id="Grupo_1099566" data-name="Grupo 1099566" transform="translate(-180 -408)">
    <ellipse id="Elipse_11499" data-name="Elipse 11499" cx="42.5" cy="41.5" rx="42.5" ry="41.5" transform="translate(180 408)" fill="#3a4a38"/>
    <g id="Grupo_1099040" data-name="Grupo 1099040" transform="translate(197.598 424.598)">
      <g id="Grupo_1099041" data-name="Grupo 1099041" transform="translate(-1.598 -1.598)">
        <g transform="matrix(1, 0, 0, 1, -16, -15)" filter="url(#Trazado_873071)">
          <path id="Trazado_873071-2" data-name="Trazado 873071" d="M53.371,47.776,53.036,46.7h0L46.665,26.18a4.771,4.771,0,0,0-4.56-3.369h-1.75a16.316,16.316,0,0,0,1.808-7.431,15.377,15.377,0,1,0-30.755,0,16.319,16.319,0,0,0,1.808,7.434h-1.75a4.771,4.771,0,0,0-4.56,3.368L.2,47.778a4.46,4.46,0,0,0,4.258,5.787H49.113a4.46,4.46,0,0,0,4.258-5.79" transform="translate(16 15)" fill="#fff"/>
        </g>
        <path id="Trazado_873072" data-name="Trazado 873072" d="M55.442,247h5.973a2.361,2.361,0,0,1,2.255,1.661l6.475,20.863a2.05,2.05,0,0,1-1.954,2.657H25.071a2.046,2.046,0,0,1-2.05-2.042v0a2.039,2.039,0,0,1,.092-.608l6.475-20.863A2.361,2.361,0,0,1,31.842,247h5.973" transform="translate(-19.843 -221.791)" fill="#f9d266"/>
        <path id="Trazado_873073" data-name="Trazado 873073" d="M61.308,312.661A2.361,2.361,0,0,0,59.054,311H29.481a2.351,2.351,0,0,0-1.5.551l-4.866,15.678a2.05,2.05,0,0,0,1.954,2.657H66.654Z" transform="translate(-19.843 -279.496)" fill="#fce797"/>
        <path id="Trazado_873074" data-name="Trazado 873074" d="M147.612,56.05,157.253,44a13.461,13.461,0,0,0,2.949-8.408,12.591,12.591,0,1,0-25.181,0A13.461,13.461,0,0,0,137.97,44Z" transform="translate(-120.827 -19.824)" fill="#4d8c28"/>
        <path id="Trazado_873075" data-name="Trazado 873075" d="M172.792,313.96c3.9.665,6.689,2.4,6.689,4.43,0,2.608-4.58,4.721-10.23,4.721s-10.23-2.114-10.23-4.721c0-2.033,2.783-3.765,6.689-4.43l3.541,4.43Z" transform="translate(-142.466 -282.164)" fill="#d5883e"/>
        <path id="Trazado_873076" data-name="Trazado 873076" d="M176.464,55a9.443,9.443,0,1,1-9.443,9.443A9.443,9.443,0,0,1,176.464,55" transform="translate(-149.679 -48.677)" fill="#6bc13b"/>
        <path id="Trazado_873077" data-name="Trazado 873077" d="M167.318,102.869A9.466,9.466,0,0,1,168.792,95h2.556a1.967,1.967,0,1,1,0,3.935,1.18,1.18,0,0,0-1.18,1.18,2.754,2.754,0,0,1-2.754,2.754Z" transform="translate(-149.678 -84.742)" fill="#3d54bd"/>
        <path id="Trazado_873078" data-name="Trazado 873078" d="M248.419,99.591H246.1a1.574,1.574,0,0,1-1.574-1.574,1.574,1.574,0,0,0-1.574-1.574h-2.361a1.574,1.574,0,0,1,0-3.148h2.361a1.574,1.574,0,0,0,0-3.148,1.574,1.574,0,0,1,0-3.148h5.464a9.443,9.443,0,0,1,0,12.591Z" transform="translate(-214.597 -77.529)" fill="#3d54bd"/>
        <path id="Trazado_873079" data-name="Trazado 873079" d="M63.663,60.111,57.189,39.248a3.133,3.133,0,0,0-3.006-2.214h-2.86a.787.787,0,0,1-.665-1.2,14.291,14.291,0,0,0,2.116-7.452,13.378,13.378,0,1,0-26.755,0,14.291,14.291,0,0,0,2.116,7.452.787.787,0,0,1-.665,1.2H24.61A3.133,3.133,0,0,0,21.6,39.248L15.13,60.111a2.833,2.833,0,0,0,2.709,3.677H60.958a2.833,2.833,0,0,0,2.709-3.677ZM39.4,16.574a11.817,11.817,0,0,1,11.8,11.8,12.719,12.719,0,0,1-2.777,7.917L40.011,46.81a.787.787,0,0,1-1.229,0L30.37,36.295a12.719,12.719,0,0,1-2.777-7.917,11.817,11.817,0,0,1,11.8-11.8m-.615,32.754a.787.787,0,0,0,1.229,0l2.944-3.68a.785.785,0,0,1,.787-.277c3,.691,5.1,2.084,5.1,3.466,0,1.861-3.878,3.935-9.443,3.935s-9.443-2.074-9.443-3.935c0-1.382,2.094-2.775,5.1-3.466a.785.785,0,0,1,.787.277ZM60.958,62.215H17.839a1.264,1.264,0,0,1-1.206-1.638l6.475-20.863a1.566,1.566,0,0,1,1.5-1.107h5.217a.787.787,0,0,1,.614.3l.63.787a.787.787,0,0,1-.614,1.279H26.019a.787.787,0,0,0,0,1.574h6.956a.787.787,0,0,1,.614.3l.108.135a.786.786,0,0,1-.37,1.239C30.26,45.2,28.38,46.9,28.38,48.837c0,3.089,4.839,5.508,11.017,5.508s11.017-2.42,11.017-5.508c0-1.938-1.88-3.641-4.948-4.626a.786.786,0,0,1-.37-1.239l.108-.135a.787.787,0,0,1,.614-.3h6.956a.787.787,0,1,0,0-1.574H48.336a.787.787,0,0,1-.614-1.279l.63-.787a.787.787,0,0,1,.614-.3h5.217a1.566,1.566,0,0,1,1.5,1.107L62.16,60.577a1.264,1.264,0,0,1-1.2,1.638Z" transform="translate(-12.612 -12.611)"/>
        <path id="Trazado_873080" data-name="Trazado 873080" d="M169.251,67.46a10.23,10.23,0,1,0-10.23-10.23,10.23,10.23,0,0,0,10.23,10.23m8.656-10.23a8.616,8.616,0,0,1-1.984,5.508h-1.951a.787.787,0,0,1-.787-.787,2.361,2.361,0,0,0-2.361-2.361h-2.361a.787.787,0,1,1,0-1.574h2.361a2.361,2.361,0,0,0,0-4.721.787.787,0,1,1,0-1.574h5.1a8.616,8.616,0,0,1,1.984,5.508m-3.695-7.082h-3.388a2.361,2.361,0,0,0,0,4.721.787.787,0,0,1,0,1.574h-2.361a2.361,2.361,0,1,0,0,4.721h2.361a.787.787,0,0,1,.787.787,2.361,2.361,0,0,0,2.361,2.361h.236a8.631,8.631,0,0,1-13.063-4.078,3.536,3.536,0,0,0,2.6-3.4.393.393,0,0,1,.393-.393,2.754,2.754,0,0,0,0-5.508h-.807a8.608,8.608,0,0,1,10.884-.787M162,52.508h2.131a1.18,1.18,0,0,1,0,2.361,1.967,1.967,0,0,0-1.967,1.967,1.967,1.967,0,0,1-1.436,1.889A8.5,8.5,0,0,1,162,52.508" transform="translate(-142.466 -41.464)"/>
        <path id="Trazado_873081" data-name="Trazado 873081" d="M79.808,463h34.624a.787.787,0,1,1,0,1.574H79.808a.787.787,0,1,1,0-1.574" transform="translate(-70.335 -416.544)"/>
        <path id="Trazado_873082" data-name="Trazado 873082" d="M127.808,431h25.181a.787.787,0,1,1,0,1.574H127.808a.787.787,0,1,1,0-1.574" transform="translate(-113.613 -387.692)"/>
      </g>
    </g>
  </g>
</svg>
