<svg xmlns="http://www.w3.org/2000/svg" xmlns:xlink="http://www.w3.org/1999/xlink" width="85.703" height="88.179" viewBox="0 0 85.703 88.179">
  <defs>
    <filter id="Trazado_873040" x="0" y="7" width="85.703" height="81.179" filterUnits="userSpaceOnUse">
      <feOffset dy="6" input="SourceAlpha"/>
      <feGaussianBlur stdDeviation="5" result="blur"/>
      <feFlood flood-opacity="0.341"/>
      <feComposite operator="in" in2="blur"/>
      <feComposite in="SourceGraphic"/>
    </filter>
  </defs>
  <g id="Grupo_1099565" data-name="Grupo 1099565" transform="translate(-639 -745)">
    <ellipse id="Elipse_11500" data-name="Elipse 11500" cx="42.5" cy="41.5" rx="42.5" ry="41.5" transform="translate(639 745)" fill="#e9bd68"/>
    <g id="Grupo_1099037" data-name="Grupo 1099037" transform="translate(654 761)">
      <g id="Grupo_1099042" data-name="Grupo 1099042" transform="translate(0 0)">
        <g transform="matrix(1, 0, 0, 1, -15, -16)" filter="url(#Trazado_873040)">
          <path id="Trazado_873040-2" data-name="Trazado 873040" d="M55.7,33.262c0-.3-.007-.584,0-.846,0-.01,0-.02,0-.03a3.96,3.96,0,0,0-3.939-3.927H47.216V27.449a3.128,3.128,0,0,0-.183-1.052h.056a2.106,2.106,0,0,0,1.5-.646,2.817,2.817,0,0,0,.6-2.15c0-.081-.007-.2,0-.248a1.545,1.545,0,0,0,.009-.163,2.073,2.073,0,0,0-.351-1.155,2.094,2.094,0,0,0,.2-1.128l0-.022a22.4,22.4,0,0,0-.377-2.261,2.078,2.078,0,0,0-.558-1.022,2.094,2.094,0,0,0-.035-1.172l0-.007a21.816,21.816,0,0,0-.822-2.143,2.094,2.094,0,0,0-.753-.892,2.071,2.071,0,0,0-.265-1.153A21.64,21.64,0,0,0,45.012,10.3a2.088,2.088,0,0,0-.93-.741,2.1,2.1,0,0,0-.474-1.038,20.36,20.36,0,0,0-1.543-1.633,2.037,2.037,0,0,0-1.05-.583,2.074,2.074,0,0,0-.677-.953A19.879,19.879,0,0,0,38.47,4.036,2.071,2.071,0,0,0,37.336,3.7h-.013A3.328,3.328,0,0,0,35.5,2.454c-.1-.037-.252-.093-.31-.12a1.532,1.532,0,0,0-.167-.088l-.01,0a3.4,3.4,0,0,0-1.408-.37,2.138,2.138,0,0,0-.421.042,2.086,2.086,0,0,0-1.011-.6A19.351,19.351,0,0,0,29.919.848l-.014,0a2.107,2.107,0,0,0-1.168.173A2.177,2.177,0,0,0,28.49.872,2.892,2.892,0,0,0,27.171.6c-.124,0-.242,0-.346.008-.078,0-.152.005-.207.005h-.041A1.565,1.565,0,0,0,26.415.6a2.062,2.062,0,0,0-1.4.538A2.746,2.746,0,0,0,22.755,0,3.174,3.174,0,0,0,21.6.225c-.336.129-.724.262-1.135.4a13.7,13.7,0,0,0-4.717,2.34L10.458,1.554l-.016,0a3.083,3.083,0,0,0-.763-.095A3.775,3.775,0,0,0,7.782,2L5.633,3.25A2.1,2.1,0,0,0,5.606,6.88L9.781,9.412,6.317,13.157l-2.076-.422a2.183,2.183,0,0,0-.566-.073,4.329,4.329,0,0,0-2.267.9c-.117.077-.263.172-.325.2l-.013.007a2.1,2.1,0,0,0,.021,3.668l1.543.858A2.239,2.239,0,0,0,3.2,19.631l.522.583a2.223,2.223,0,0,0,1.244.72l.379.917a2.1,2.1,0,0,0-1.587,2.1,1.525,1.525,0,0,0,.015.169c0,.044,0,.163,0,.242a3.829,3.829,0,0,0,.156,1.263,2.2,2.2,0,0,0,.407.724,2.109,2.109,0,0,0-.155,1.28A22.58,22.58,0,0,0,4.8,30.048a2.1,2.1,0,0,0,.746,1.067,2.107,2.107,0,0,0,.131,1.275,23.324,23.324,0,0,0,1.114,2.228l.011.019a2.115,2.115,0,0,0,.927.841,2.1,2.1,0,0,0,.4,1.238,23.834,23.834,0,0,0,1.566,1.932q.029.033.06.064a2.158,2.158,0,0,0,1.066.58,2.087,2.087,0,0,0,.664,1.124,21.934,21.934,0,0,0,1.959,1.549,2.09,2.09,0,0,0,1.205.388h.031a2.11,2.11,0,0,0,.852.916l.074.04c.158.08.318.166.488.256a9.5,9.5,0,0,0,2.142.916,1.548,1.548,0,0,0,.353.047h.037a2.1,2.1,0,0,0,.467-.054,2.067,2.067,0,0,0,1.086.729,19.659,19.659,0,0,0,2.56.568,1.552,1.552,0,0,0,.219.016,2.091,2.091,0,0,0,.93-.216,2.1,2.1,0,0,0,.41.259,3.015,3.015,0,0,0,1.324.255h.121v1.9a3.2,3.2,0,0,0,3.2,3.2H51.547a3.2,3.2,0,0,0,3.2-3.2V38.539c1-1.6.974-3.624.953-5.277M25.194,4.4l-.149.01.045-.09c.034.028.069.054.1.08" transform="translate(15 16)" fill="#fff"/>
        </g>
        <path id="Trazado_873041" data-name="Trazado 873041" d="M51.96,226.258a.552.552,0,0,0-.536.567c.083.547-.175,1.578.619,1.629.856-.062.443-1.114.485-1.671a.557.557,0,0,0-.567-.526" transform="translate(-46.121 -202.924)" fill="#231f20"/>
        <path id="Trazado_873042" data-name="Trazado 873042" d="M196.174,414.439a18.58,18.58,0,0,0,2.362.526.551.551,0,0,0,.093-1.093,19.012,19.012,0,0,1-2.145-.495.553.553,0,0,0-.309,1.062Z" transform="translate(-175.587 -370.727)" fill="#231f20"/>
        <path id="Trazado_873043" data-name="Trazado 873043" d="M56.309,259.256a.552.552,0,0,0-1.083.217,21.086,21.086,0,0,0,.567,2.248.55.55,0,1,0,1.052-.32,20.372,20.372,0,0,1-.536-2.145" transform="translate(-49.521 -232.127)" fill="#231f20"/>
        <path id="Trazado_873044" data-name="Trazado 873044" d="M68.311,301.381a21.8,21.8,0,0,0,1.042,2.083.563.563,0,0,0,.485.278.552.552,0,0,0,.474-.825c-.361-.639-.691-1.3-.99-1.97a.548.548,0,0,0-.722-.289A.537.537,0,0,0,68.311,301.381Z" transform="translate(-61.224 -269.611)" fill="#231f20"/>
        <path id="Trazado_873045" data-name="Trazado 873045" d="M120.279,371.4a.565.565,0,0,0-.784.052.547.547,0,0,0,.052.784,20.4,20.4,0,0,0,1.825,1.444.555.555,0,0,0,.639-.908C121.414,372.335,120.826,371.881,120.279,371.4Z" transform="translate(-107.045 -332.975)" fill="#231f20"/>
        <path id="Trazado_873046" data-name="Trazado 873046" d="M158.071,397.531a18.421,18.421,0,0,1-1.98-.959.554.554,0,1,0-.536.969,11.631,11.631,0,0,0,2.31,1.052A.554.554,0,0,0,158.071,397.531Z" transform="translate(-139.257 -355.613)" fill="#231f20"/>
        <path id="Trazado_873047" data-name="Trazado 873047" d="M91.843,341.619a.555.555,0,0,0,.413-.918,21.939,21.939,0,0,1-1.392-1.712.554.554,0,0,0-.9.65,22.371,22.371,0,0,0,1.464,1.8.6.6,0,0,0,.413.175" transform="translate(-80.589 -303.826)" fill="#231f20"/>
        <path id="Trazado_873048" data-name="Trazado 873048" d="M240.687,421.907a.552.552,0,0,0,0-1.1c-.557.062-1.547-.33-1.66.485.021.835,1.1.557,1.66.619" transform="translate(-214.377 -377.37)" fill="#231f20"/>
        <path id="Trazado_873049" data-name="Trazado 873049" d="M451.642,221.768c.835-.021.536-1.1.6-1.66a.559.559,0,0,0-.557-.547c-.815.062-.464,1.083-.567,1.629a.54.54,0,0,0,.526.578" transform="translate(-404.592 -196.918)" fill="#231f20"/>
        <path id="Trazado_873050" data-name="Trazado 873050" d="M434.932,144.053a.553.553,0,0,0,1.052-.34,20.256,20.256,0,0,0-.763-1.99.554.554,0,1,0-1.011.454,19.6,19.6,0,0,1,.722,1.877" transform="translate(-389.388 -126.814)" fill="#231f20"/>
        <path id="Trazado_873051" data-name="Trazado 873051" d="M446.951,182.418a.547.547,0,0,0,.608.485.554.554,0,0,0,.485-.608,20.809,20.809,0,0,0-.351-2.1.555.555,0,0,0-1.083.237C446.755,181.077,446.869,181.747,446.951,182.418Z" transform="translate(-400.541 -161.229)" fill="#231f20"/>
        <path id="Trazado_873052" data-name="Trazado 873052" d="M388.493,75.881a.564.564,0,0,0,.01.784,18.685,18.685,0,0,1,1.382,1.475.549.549,0,1,0,.835-.712,18.833,18.833,0,0,0-1.464-1.547.513.513,0,0,0-.763,0" transform="translate(-348.291 -67.903)" fill="#231f20"/>
        <path id="Trazado_873053" data-name="Trazado 873053" d="M356.784,51.118a.553.553,0,0,0,.175.763c.567.361,1.124.753,1.65,1.165a.551.551,0,1,0,.681-.866,18.312,18.312,0,0,0-1.743-1.227A.542.542,0,0,0,356.784,51.118Z" transform="translate(-319.913 -45.615)" fill="#231f20"/>
        <path id="Trazado_873054" data-name="Trazado 873054" d="M416.555,108.32a20.392,20.392,0,0,0-1.134-1.8.552.552,0,0,0-.908.629c.382.557.743,1.124,1.073,1.712a.562.562,0,0,0,.485.278A.552.552,0,0,0,416.555,108.32Z" transform="translate(-371.671 -95.32)" fill="#231f20"/>
        <path id="Trazado_873055" data-name="Trazado 873055" d="M282.41,23.015a.553.553,0,0,0-.165,1.093c.712.093,1.413.278,2.114.423a.551.551,0,0,0,.134-1.083A17.774,17.774,0,0,0,282.41,23.015Z" transform="translate(-252.717 -20.637)" fill="#231f20"/>
        <path id="Trazado_873056" data-name="Trazado 873056" d="M322.107,33.386c-.413-.186-1.042-.474-1.268.1a.554.554,0,0,0,.33.712c.722.217,1.382.66,2.094.856a.544.544,0,0,0,.495-.309c.33-.866-1.124-1.031-1.65-1.361" transform="translate(-287.721 -29.728)" fill="#231f20"/>
        <path id="Trazado_873057" data-name="Trazado 873057" d="M251.541,21.931c.547-.072,1.557.309,1.65-.505-.021-.835-1.1-.536-1.66-.6A.552.552,0,0,0,251.541,21.931Z" transform="translate(-225.116 -18.676)" fill="#231f20"/>
        <path id="Trazado_873058" data-name="Trazado 873058" d="M65.206,43.459H59.121V40.9a1.6,1.6,0,0,0-1.6-1.6h-.433A17.341,17.341,0,0,0,35.762,19.874l1.464-2.929a1.256,1.256,0,0,0-1.619-1.825c-1.825.7-4.661,1.361-5.92,3.032L23.511,16.5a2,2,0,0,0-1.5.289L19.85,18.048a.551.551,0,0,0-.01.949l5.816,3.527L20.314,28.3l-2.991-.608c-.588-.2-1.557.629-2.063.9a.551.551,0,0,0,.021.949l2.578,1.433a.833.833,0,0,0-.052,1.083l.526.588a.816.816,0,0,0,1.073.083l1.124,2.723a.56.56,0,0,0,.949.134c.32-.464,1.238-1.33,1.134-1.929l-.268-3.042,1.846-1.341C18.447,40.974,27.7,54.886,40.733,54.174v7.26a1.655,1.655,0,0,0,1.65,1.65H65a1.655,1.655,0,0,0,1.65-1.65V51.5c1.186-1.464.928-3.888.949-5.651A2.408,2.408,0,0,0,65.206,43.459Zm-8.735-3.053h1.062a.5.5,0,0,1,.5.5v2.558H49.344V40.9a.491.491,0,0,1,.144-.351.474.474,0,0,1,.351-.144C49.86,40.407,56.45,40.427,56.471,40.407ZM53.48,27.794a16.386,16.386,0,0,1,2.485,6.332,5.07,5.07,0,0,0-3.764.629,2.364,2.364,0,0,1-1.815.433c-.928-.227-1.588-.98-1.557-1.2a2.828,2.828,0,0,1,1-.351c2.063-.33,3.114-1.64,1.733-3.465-.289-.454-.578-.877-.5-1.258.124-.588,1-1.227,2.1-1.557.113.144.206.289.309.433M35.938,20.957A16.518,16.518,0,0,1,48.55,22.968c-3.135,1.258-6.281,3.218-6.446,7.178-.144,1.207-.278,2.238-1.176,2.96-1.083.9-2.331.392-3.176,1.681-.959,1.722.784,3.042.309,4.878a3.929,3.929,0,0,1-2.217,2.764,6.192,6.192,0,0,1,.083-1.289c.413-2.248.165-5.868-2.372-7.59a2.662,2.662,0,0,1-1.062-1.32c.3-.4,1.176-1.568,1.485-1.99a1.967,1.967,0,0,0,.454-1.444l-.918-6.322c-.021-.113.464-.4.547-.464a5.071,5.071,0,0,0,.732-.681A4.659,4.659,0,0,1,35.938,20.957Zm-3.785,9.89c-.6-1.3-1.949-4.27-2.527-5.538.712-.516,2.176-1.578,2.888-2.1.155,1.052.691,4.775.835,5.755.031.464-.959,1.5-1.2,1.887M21.2,18.543c.371-.165,1.64-1.093,2.021-.969l5.61,1.5L26.409,21.7ZM16.642,29.032c.072-.041.413-.237.443-.268l2.341.485c-.155.165-.67.722-.815.877Zm4.775,4.826-.227.289-.856-2.083c.206-.144.773-.567.969-.712l.206,2.341a.294.294,0,0,1-.093.165m-2.4-2.207c-.021.01-.031.021-.052.031l-.144-.155s.3-.33.309-.33c1.155-1.248,6.507-7.044,7.786-8.426,1.021-1.052,1.99-2.135,2.97-3.218a6.434,6.434,0,0,1,2.805-2.228c.113-.01,3.609-1.372,3.62-1.217a33.547,33.547,0,0,1-1.629,3.455,8.749,8.749,0,0,1-3.125,3.073C27.306,25.546,23.17,28.629,19.014,31.651ZM40.733,53.061c-13.3.712-21.884-14.335-14.386-25.37l2.362-1.712c.423.918,2.083,4.558,2.537,5.548a3.64,3.64,0,0,0,.155.908c.639,1.97,1.877,1.794,2.826,3.486a7.988,7.988,0,0,1,.608,5.095c-.134,1.124-.258,2.094.536,2.434,1.578.464,3.372-1.784,3.764-3.537a5.1,5.1,0,0,0-.32-2.939c-.258-.763-.371-1.186-.124-1.6.2-.33.485-.413,1.042-.557,3.486-.763,3.166-3.434,3.744-6.167.794-2.733,3.671-3.878,6.126-4.94a15.994,15.994,0,0,1,2.867,2.733c-2.32.835-3.249,2.568-1.836,4.352.969,1.268.206,1.5-1.052,1.784-3.063.443-1.918,3.022.536,3.692a3.507,3.507,0,0,0,2.6-.526,3.752,3.752,0,0,1,3.393-.382,16.336,16.336,0,0,1-.134,3.95H49.829a1.631,1.631,0,0,0-1.6,1.609V43.48H42.146a2.392,2.392,0,0,0-2.372,2.372c.021,1.8-.258,4.156.949,5.662v1.547Zm24.8,8.364a.535.535,0,0,1-.536.547H42.373a.535.535,0,0,1-.536-.547V52.638A5.255,5.255,0,0,0,44.982,53.7h5.043v.773a1.25,1.25,0,0,0,1.238,1.248H56.11a1.25,1.25,0,0,0,1.238-1.248V53.7H62.39a5.324,5.324,0,0,0,3.145-1.062ZM51.118,54.484V52.009a.133.133,0,0,1,.134-.144H56.1a.139.139,0,0,1,.134.144v2.475a.146.146,0,0,1-.134.144H51.252a.139.139,0,0,1-.134-.144M66.474,48.5a4.127,4.127,0,0,1-4.094,4.1H57.337v-.588A1.252,1.252,0,0,0,56.1,50.761H51.252a1.252,1.252,0,0,0-1.238,1.258v.588H44.972a4.129,4.129,0,0,1-3.878-2.784c-.371-.846-.155-3.063-.206-3.981a1.274,1.274,0,0,1,1.268-1.268H65.216a1.268,1.268,0,0,1,1.268,1.268V48.5Z" transform="translate(-13.453 -13.453)" fill="#231f20"/>
        <path id="Trazado_873059" data-name="Trazado 873059" d="M298.926,379.961v8.787a.535.535,0,0,1-.536.547H275.763a.535.535,0,0,1-.536-.547v-8.787a5.255,5.255,0,0,0,3.145,1.062h5.043v.773a1.25,1.25,0,0,0,1.238,1.248H289.5a1.25,1.25,0,0,0,1.237-1.248v-.773h5.043A5.255,5.255,0,0,0,298.926,379.961Z" transform="translate(-246.843 -340.776)" fill="#769671"/>
        <path id="Trazado_873060" data-name="Trazado 873060" d="M291.568,302.84c-.041,1.557.3,3.878-.835,5.146a4.1,4.1,0,0,1-3.259,1.619h-5.043v-.588a1.252,1.252,0,0,0-1.238-1.258h-4.847a1.252,1.252,0,0,0-1.238,1.258v.588h-5.043a4.1,4.1,0,0,1-3.259-1.629,4.017,4.017,0,0,1-.825-2.475c.01-.227-.041-2.888.052-3.032a1.275,1.275,0,0,1,1.207-.908H290.3A1.283,1.283,0,0,1,291.568,302.84Z" transform="translate(-238.547 -270.462)" fill="#e9bd68"/>
        <path id="Trazado_873061" data-name="Trazado 873061" d="M33.722,148.956c-.155.165-.67.722-.815.877l-1.98-1.1c.072-.041.413-.237.443-.268Z" transform="translate(-27.738 -133.15)" fill="#a09445"/>
        <path id="Trazado_873062" data-name="Trazado 873062" d="M67.9,175.912a1.99,1.99,0,0,1-.32.443l-.856-2.083c.206-.144.773-.567.969-.712Z" transform="translate(-59.846 -155.662)" fill="#a09445"/>
        <path id="Trazado_873063" data-name="Trazado 873063" d="M160.55,100.305c.041.464-.959,1.506-1.2,1.9-.6-1.3-1.949-4.27-2.527-5.538.712-.516,2.176-1.578,2.888-2.1.155,1.042.691,4.765.835,5.744" transform="translate(-140.654 -84.809)" fill="#a09445"/>
        <path id="Trazado_873064" data-name="Trazado 873064" d="M82.769,41.358l-2.424,2.63-5.218-3.156c.371-.165,1.64-1.093,2.021-.969Z" transform="translate(-67.379 -35.741)" fill="#a09445"/>
        <path id="Trazado_873065" data-name="Trazado 873065" d="M370.442,372.605v2.475a.146.146,0,0,1-.134.144h-4.847a.139.139,0,0,1-.134-.144v-2.475a.133.133,0,0,1,.134-.144h4.847a.139.139,0,0,1,.134.144" transform="translate(-327.652 -334.05)" fill="#ffefe1"/>
        <path id="Trazado_873066" data-name="Trazado 873066" d="M69.535,25.995l-1.557,3.114a8.749,8.749,0,0,1-3.125,3.073c-4.27,2.908-8.4,6.012-12.582,9.044l-.144-.155s.3-.33.309-.33c1.155-1.248,6.507-7.044,7.786-8.426,1.021-1.052,1.99-2.135,2.97-3.218A6.434,6.434,0,0,1,66,26.871c.113-.01,3.609-1.372,3.62-1.217A.589.589,0,0,1,69.535,25.995Z" transform="translate(-46.751 -22.998)" fill="#e9bd68"/>
        <path id="Trazado_873067" data-name="Trazado 873067" d="M350.154,141.726a5.07,5.07,0,0,0-3.764.629,2.364,2.364,0,0,1-1.815.433c-.928-.227-1.588-.98-1.557-1.2a2.828,2.828,0,0,1,1-.351c2.063-.33,3.115-1.64,1.733-3.465-.289-.454-.578-.877-.5-1.258.124-.588,1-1.227,2.1-1.557a16.256,16.256,0,0,1,2.795,6.765" transform="translate(-307.642 -121.043)" fill="#f6a96c"/>
        <path id="Trazado_873068" data-name="Trazado 873068" d="M200.584,70.73c-3.135,1.258-6.281,3.218-6.446,7.178-.144,1.207-.278,2.238-1.176,2.96-1.083.9-2.331.392-3.176,1.681-.959,1.722.784,3.042.309,4.878a3.929,3.929,0,0,1-2.217,2.764,6.192,6.192,0,0,1,.083-1.289c.413-2.248.165-5.868-2.372-7.59a2.662,2.662,0,0,1-1.062-1.32c.3-.4,1.176-1.578,1.485-1.99a1.967,1.967,0,0,0,.454-1.444l-.918-6.322c-.021-.113.464-.4.547-.464.309-.217.547-.516.835-.753A16.512,16.512,0,0,1,200.584,70.73Z" transform="translate(-165.497 -61.215)" fill="#f6a96c"/>
        <path id="Trazado_873069" data-name="Trazado 873069" d="M130.424,115.054h-6.146a1.631,1.631,0,0,0-1.6,1.609v2.558h-6.085a2.392,2.392,0,0,0-2.372,2.372c.021,1.8-.258,4.156.949,5.662v1.557c-13.3.712-21.884-14.335-14.386-25.37l2.362-1.712c.423.918,2.083,4.558,2.537,5.548a3.64,3.64,0,0,0,.155.908c.639,1.97,1.877,1.794,2.826,3.486a7.988,7.988,0,0,1,.608,5.095c-.134,1.124-.258,2.094.536,2.434,1.578.464,3.372-1.784,3.764-3.537a5.1,5.1,0,0,0-.32-2.939c-.258-.763-.371-1.186-.124-1.6.2-.33.485-.413,1.042-.557,3.486-.763,3.166-3.434,3.744-6.167.794-2.733,3.671-3.878,6.126-4.94a15.992,15.992,0,0,1,2.867,2.733c-2.32.835-3.249,2.568-1.836,4.352.969,1.268.206,1.5-1.052,1.784-3.063.443-1.918,3.022.536,3.692a3.507,3.507,0,0,0,2.6-.526,3.752,3.752,0,0,1,3.393-.382A15.759,15.759,0,0,1,130.424,115.054Z" transform="translate(-87.891 -89.204)" fill="#ffefe1"/>
      </g>
    </g>
  </g>
</svg>
